{
  "header": {
    "formatType": 1,
    "trackCount": 17,
    "ticksPerBeat": 480
  },
  "tracks": [
    [
      {
        "deltaTime": 0,
        "type": "meta",
        "subtype": "trackName",
        "text": "untitled"
      },
      {
        "deltaTime": 0,
        "type": "meta",
        "subtype": "smpteOffset",
        "frameRate": 30,
        "hour": 0,
        "min": 0,
        "sec": 3,
        "frame": 0,
        "subframe": 0
      },
      {
        "deltaTime": 0,
        "type": "meta",
        "subtype": "timeSignature",
        "numerator": 3,
        "denominator": 4,
        "metronome": 24,
        "thirtyseconds": 8
      },
      {
        "deltaTime": 0,
        "type": "meta",
        "subtype": "keySignature",
        "key": 0,
        "scale": 0
      },
      {
        "deltaTime": 0,
        "type": "meta",
        "subtype": "setTempo",
        "microsecondsPerBeat": 240000
      },
      {
        "deltaTime": 1200,
        "type": "meta",
        "subtype": "setTempo",
        "microsecondsPerBeat": 600000
      },
      {
        "deltaTime": 240,
        "type": "meta",
        "subtype": "marker",
        "text": "A"
      },
      {
        "deltaTime": 31680,
        "type": "meta",
        "subtype": "marker",
        "text": "A'"
      },
      {
        "deltaTime": 31680,
        "type": "meta",
        "subtype": "marker",
        "text": "B"
      },
      {
        "deltaTime": 57120,
        "type": "meta",
        "subtype": "setTempo",
        "microsecondsPerBeat": 1200000
      },
      {
        "deltaTime": 0,
        "type": "meta",
        "subtype": "endOfTrack"
      }
    ],
    [
      {
        "deltaTime": 0,
        "type": "meta",
        "subtype": "unknown",
        "data": "\u0000"
      },
      {
        "deltaTime": 0,
        "type": "meta",
        "subtype": "trackName",
        "text": "Solo Flute"
      },
      {
        "deltaTime": 0,
        "channel": 0,
        "type": "channel",
        "subtype": "programChange",
        "programNumber": 73
      },
      {
        "deltaTime": 0,
        "channel": 0,
        "type": "channel",
        "subtype": "controller",
        "controllerType": 7,
        "value": 100
      },
      {
        "deltaTime": 0,
        "channel": 0,
        "type": "channel",
        "subtype": "controller",
        "controllerType": 10,
        "value": 64
      },
      {
        "channel": 0,
        "deltaTime": 0,
        "noteNumber": 76,
        "subtype": "noteOn",
        "type": "channel",
        "velocity": 100
      },
      {
        "channel": 0,
        "deltaTime": 240,
        "noteNumber": 76,
        "subtype": "noteOff",
        "type": "channel",
        "velocity": 0
      },
      {
        "channel": 0,
        "deltaTime": 0,
        "noteNumber": 69,
        "subtype": "noteOn",
        "type": "channel",
        "velocity": 100
      },
      {
        "channel": 0,
        "deltaTime": 120,
        "noteNumber": 69,
        "subtype": "noteOff",
        "type": "channel",
        "velocity": 0
      },
      {
        "channel": 0,
        "deltaTime": 0,
        "noteNumber": 71,
        "subtype": "noteOn",
        "type": "channel",
        "velocity": 100
      },
      {
        "channel": 0,
        "deltaTime": 120,
        "noteNumber": 71,
        "subtype": "noteOff",
        "type": "channel",
        "velocity": 0
      },
      {
        "channel": 0,
        "deltaTime": 0,
        "noteNumber": 72,
        "subtype": "noteOn",
        "type": "channel",
        "velocity": 100
      },
      {
        "channel": 0,
        "deltaTime": 120,
        "noteNumber": 72,
        "subtype": "noteOff",
        "type": "channel",
        "velocity": 0
      },
      {
        "channel": 0,
        "deltaTime": 0,
        "noteNumber": 74,
        "subtype": "noteOn",
        "type": "channel",
        "velocity": 100
      },
      {
        "channel": 0,
        "deltaTime": 120,
        "noteNumber": 74,
        "subtype": "noteOff",
        "type": "channel",
        "velocity": 0
      },
      {
        "channel": 0,
        "deltaTime": 0,
        "noteNumber": 76,
        "subtype": "noteOn",
        "type": "channel",
        "velocity": 100
      },
      {
        "channel": 0,
        "deltaTime": 240,
        "noteNumber": 76,
        "subtype": "noteOff",
        "type": "channel",
        "velocity": 0
      },
      {
        "channel": 0,
        "deltaTime": 0,
        "noteNumber": 78,
        "subtype": "noteOn",
        "type": "channel",
        "velocity": 100
      },
      {
        "channel": 0,
        "deltaTime": 120,
        "noteNumber": 78,
        "subtype": "noteOff",
        "type": "channel",
        "velocity": 0
      },
      {
        "channel": 0,
        "deltaTime": 0,
        "noteNumber": 80,
        "subtype": "noteOn",
        "type": "channel",
        "velocity": 100
      },
      {
        "channel": 0,
        "deltaTime": 120,
        "noteNumber": 80,
        "subtype": "noteOff",
        "type": "channel",
        "velocity": 0
      },
      {
        "channel": 0,
        "deltaTime": 0,
        "noteNumber": 81,
        "subtype": "noteOn",
        "type": "channel",
        "velocity": 100
      },
      {
        "channel": 0,
        "deltaTime": 240,
        "noteNumber": 81,
        "subtype": "noteOff",
        "type": "channel",
        "velocity": 0
      },
      {
        "channel": 0,
        "deltaTime": 0,
        "noteNumber": 83,
        "subtype": "noteOn",
        "type": "channel",
        "velocity": 100
      },
      {
        "channel": 0,
        "deltaTime": 240,
        "noteNumber": 83,
        "subtype": "noteOff",
        "type": "channel",
        "velocity": 0
      },
      {
        "channel": 0,
        "deltaTime": 0,
        "noteNumber": 84,
        "subtype": "noteOn",
        "type": "channel",
        "velocity": 100
      },
      {
        "channel": 0,
        "deltaTime": 240,
        "noteNumber": 84,
        "subtype": "noteOff",
        "type": "channel",
        "velocity": 0
      },
      {
        "channel": 0,
        "deltaTime": 0,
        "noteNumber": 69,
        "subtype": "noteOn",
        "type": "channel",
        "velocity": 100
      },
      {
        "channel": 0,
        "deltaTime": 240,
        "noteNumber": 69,
        "subtype": "noteOff",
        "type": "channel",
        "velocity": 0
      },
      {
        "channel": 0,
        "deltaTime": 0,
        "noteNumber": 67,
        "subtype": "noteOn",
        "type": "channel",
        "velocity": 100
      },
      {
        "channel": 0,
        "deltaTime": 480,
        "noteNumber": 67,
        "subtype": "noteOff",
        "type": "channel",
        "velocity": 0
      },
      {
        "channel": 0,
        "deltaTime": 0,
        "noteNumber": 83,
        "subtype": "noteOn",
        "type": "channel",
        "velocity": 100
      },
      {
        "channel": 0,
        "deltaTime": 480,
        "noteNumber": 83,
        "subtype": "noteOff",
        "type": "channel",
        "velocity": 0
      },
      {
        "channel": 0,
        "deltaTime": 0,
        "noteNumber": 65,
        "subtype": "noteOn",
        "type": "channel",
        "velocity": 100
      },
      {
        "channel": 0,
        "deltaTime": 240,
        "noteNumber": 65,
        "subtype": "noteOff",
        "type": "channel",
        "velocity": 0
      },
      {
        "channel": 0,
        "deltaTime": 0,
        "noteNumber": 81,
        "subtype": "noteOn",
        "type": "channel",
        "velocity": 100
      },
      {
        "channel": 0,
        "deltaTime": 120,
        "noteNumber": 81,
        "subtype": "noteOff",
        "type": "channel",
        "velocity": 0
      },
      {
        "channel": 0,
        "deltaTime": 0,
        "noteNumber": 80,
        "subtype": "noteOn",
        "type": "channel",
        "velocity": 100
      },
      {
        "channel": 0,
        "deltaTime": 120,
        "noteNumber": 80,
        "subtype": "noteOff",
        "type": "channel",
        "velocity": 0
      },
      {
        "channel": 0,
        "deltaTime": 0,
        "noteNumber": 81,
        "subtype": "noteOn",
        "type": "channel",
        "velocity": 100
      },
      {
        "channel": 0,
        "deltaTime": 240,
        "noteNumber": 81,
        "subtype": "noteOff",
        "type": "channel",
        "velocity": 0
      },
      {
        "channel": 0,
        "deltaTime": 0,
        "noteNumber": 64,
        "subtype": "noteOn",
        "type": "channel",
        "velocity": 100
      },
      {
        "channel": 0,
        "deltaTime": 240,
        "noteNumber": 64,
        "subtype": "noteOff",
        "type": "channel",
        "velocity": 0
      },
      {
        "channel": 0,
        "deltaTime": 0,
        "noteNumber": 62,
        "subtype": "noteOn",
        "type": "channel",
        "velocity": 100
      },
      {
        "channel": 0,
        "deltaTime": 240,
        "noteNumber": 62,
        "subtype": "noteOff",
        "type": "channel",
        "velocity": 0
      },
      {
        "channel": 0,
        "deltaTime": 0,
        "noteNumber": 83,
        "subtype": "noteOn",
        "type": "channel",
        "velocity": 100
      },
      {
        "channel": 0,
        "deltaTime": 240,
        "noteNumber": 83,
        "subtype": "noteOff",
        "type": "channel",
        "velocity": 0
      },
      {
        "channel": 0,
        "deltaTime": 0,
        "noteNumber": 80,
        "subtype": "noteOn",
        "type": "channel",
        "velocity": 100
      },
      {
        "channel": 0,
        "deltaTime": 540,
        "noteNumber": 80,
        "subtype": "noteOff",
        "type": "channel",
        "velocity": 0
      },
      {
        "channel": 0,
        "deltaTime": 0,
        "noteNumber": 83,
        "subtype": "noteOn",
        "type": "channel",
        "velocity": 100
      },
      {
        "channel": 0,
        "deltaTime": 120,
        "noteNumber": 83,
        "subtype": "noteOff",
        "type": "channel",
        "velocity": 0
      },
      {
        "channel": 0,
        "deltaTime": 0,
        "noteNumber": 81,
        "subtype": "noteOn",
        "type": "channel",
        "velocity": 100
      },
      {
        "channel": 0,
        "deltaTime": 120,
        "noteNumber": 81,
        "subtype": "noteOff",
        "type": "channel",
        "velocity": 0
      },
      {
        "channel": 0,
        "deltaTime": 0,
        "noteNumber": 80,
        "subtype": "noteOn",
        "type": "channel",
        "velocity": 100
      },
      {
        "channel": 0,
        "deltaTime": 120,
        "noteNumber": 80,
        "subtype": "noteOff",
        "type": "channel",
        "velocity": 0
      },
      {
        "channel": 0,
        "deltaTime": 0,
        "noteNumber": 77,
        "subtype": "noteOn",
        "type": "channel",
        "velocity": 100
      },
      {
        "channel": 0,
        "deltaTime": 120,
        "noteNumber": 77,
        "subtype": "noteOff",
        "type": "channel",
        "velocity": 0
      },
      {
        "channel": 0,
        "deltaTime": 0,
        "noteNumber": 76,
        "subtype": "noteOn",
        "type": "channel",
        "velocity": 100
      },
      {
        "channel": 0,
        "deltaTime": 120,
        "noteNumber": 76,
        "subtype": "noteOff",
        "type": "channel",
        "velocity": 0
      },
      {
        "channel": 0,
        "deltaTime": 0,
        "noteNumber": 74,
        "subtype": "noteOn",
        "type": "channel",
        "velocity": 100
      },
      {
        "channel": 0,
        "deltaTime": 120,
        "noteNumber": 74,
        "subtype": "noteOff",
        "type": "channel",
        "velocity": 0
      },
      {
        "channel": 0,
        "deltaTime": 0,
        "noteNumber": 72,
        "subtype": "noteOn",
        "type": "channel",
        "velocity": 100
      },
      {
        "channel": 0,
        "deltaTime": 120,
        "noteNumber": 72,
        "subtype": "noteOff",
        "type": "channel",
        "velocity": 0
      },
      {
        "channel": 0,
        "deltaTime": 0,
        "noteNumber": 74,
        "subtype": "noteOn",
        "type": "channel",
        "velocity": 100
      },
      {
        "channel": 0,
        "deltaTime": 120,
        "noteNumber": 74,
        "subtype": "noteOff",
        "type": "channel",
        "velocity": 0
      },
      {
        "channel": 0,
        "deltaTime": 0,
        "noteNumber": 76,
        "subtype": "noteOn",
        "type": "channel",
        "velocity": 100
      },
      {
        "channel": 0,
        "deltaTime": 120,
        "noteNumber": 76,
        "subtype": "noteOff",
        "type": "channel",
        "velocity": 0
      },
      {
        "channel": 0,
        "deltaTime": 0,
        "noteNumber": 72,
        "subtype": "noteOn",
        "type": "channel",
        "velocity": 100
      },
      {
        "channel": 0,
        "deltaTime": 120,
        "noteNumber": 72,
        "subtype": "noteOff",
        "type": "channel",
        "velocity": 0
      },
      {
        "channel": 0,
        "deltaTime": 0,
        "noteNumber": 69,
        "subtype": "noteOn",
        "type": "channel",
        "velocity": 100
      },
      {
        "channel": 0,
        "deltaTime": 240,
        "noteNumber": 69,
        "subtype": "noteOff",
        "type": "channel",
        "velocity": 0
      },
      {
        "channel": 0,
        "deltaTime": 0,
        "noteNumber": 84,
        "subtype": "noteOn",
        "type": "channel",
        "velocity": 100
      },
      {
        "channel": 0,
        "deltaTime": 120,
        "noteNumber": 84,
        "subtype": "noteOff",
        "type": "channel",
        "velocity": 0
      },
      {
        "channel": 0,
        "deltaTime": 0,
        "noteNumber": 83,
        "subtype": "noteOn",
        "type": "channel",
        "velocity": 100
      },
      {
        "channel": 0,
        "deltaTime": 120,
        "noteNumber": 83,
        "subtype": "noteOff",
        "type": "channel",
        "velocity": 0
      },
      {
        "channel": 0,
        "deltaTime": 0,
        "noteNumber": 81,
        "subtype": "noteOn",
        "type": "channel",
        "velocity": 100
      },
      {
        "channel": 0,
        "deltaTime": 120,
        "noteNumber": 81,
        "subtype": "noteOff",
        "type": "channel",
        "velocity": 0
      },
      {
        "channel": 0,
        "deltaTime": 0,
        "noteNumber": 79,
        "subtype": "noteOn",
        "type": "channel",
        "velocity": 100
      },
      {
        "channel": 0,
        "deltaTime": 120,
        "noteNumber": 79,
        "subtype": "noteOff",
        "type": "channel",
        "velocity": 0
      },
      {
        "channel": 0,
        "deltaTime": 0,
        "noteNumber": 77,
        "subtype": "noteOn",
        "type": "channel",
        "velocity": 100
      },
      {
        "channel": 0,
        "deltaTime": 120,
        "noteNumber": 77,
        "subtype": "noteOff",
        "type": "channel",
        "velocity": 0
      },
      {
        "channel": 0,
        "deltaTime": 0,
        "noteNumber": 76,
        "subtype": "noteOn",
        "type": "channel",
        "velocity": 100
      },
      {
        "channel": 0,
        "deltaTime": 120,
        "noteNumber": 76,
        "subtype": "noteOff",
        "type": "channel",
        "velocity": 0
      },
      {
        "channel": 0,
        "deltaTime": 0,
        "noteNumber": 74,
        "subtype": "noteOn",
        "type": "channel",
        "velocity": 100
      },
      {
        "channel": 0,
        "deltaTime": 120,
        "noteNumber": 74,
        "subtype": "noteOff",
        "type": "channel",
        "velocity": 0
      },
      {
        "channel": 0,
        "deltaTime": 0,
        "noteNumber": 76,
        "subtype": "noteOn",
        "type": "channel",
        "velocity": 100
      },
      {
        "channel": 0,
        "deltaTime": 120,
        "noteNumber": 76,
        "subtype": "noteOff",
        "type": "channel",
        "velocity": 0
      },
      {
        "channel": 0,
        "deltaTime": 0,
        "noteNumber": 77,
        "subtype": "noteOn",
        "type": "channel",
        "velocity": 100
      },
      {
        "channel": 0,
        "deltaTime": 120,
        "noteNumber": 77,
        "subtype": "noteOff",
        "type": "channel",
        "velocity": 0
      },
      {
        "channel": 0,
        "deltaTime": 0,
        "noteNumber": 74,
        "subtype": "noteOn",
        "type": "channel",
        "velocity": 100
      },
      {
        "channel": 0,
        "deltaTime": 120,
        "noteNumber": 74,
        "subtype": "noteOff",
        "type": "channel",
        "velocity": 0
      },
      {
        "channel": 0,
        "deltaTime": 0,
        "noteNumber": 71,
        "subtype": "noteOn",
        "type": "channel",
        "velocity": 100
      },
      {
        "channel": 0,
        "deltaTime": 240,
        "noteNumber": 71,
        "subtype": "noteOff",
        "type": "channel",
        "velocity": 0
      },
      {
        "channel": 0,
        "deltaTime": 0,
        "noteNumber": 86,
        "subtype": "noteOn",
        "type": "channel",
        "velocity": 100
      },
      {
        "channel": 0,
        "deltaTime": 120,
        "noteNumber": 86,
        "subtype": "noteOff",
        "type": "channel",
        "velocity": 0
      },
      {
        "channel": 0,
        "deltaTime": 0,
        "noteNumber": 84,
        "subtype": "noteOn",
        "type": "channel",
        "velocity": 100
      },
      {
        "channel": 0,
        "deltaTime": 120,
        "noteNumber": 84,
        "subtype": "noteOff",
        "type": "channel",
        "velocity": 0
      },
      {
        "channel": 0,
        "deltaTime": 0,
        "noteNumber": 83,
        "subtype": "noteOn",
        "type": "channel",
        "velocity": 100
      },
      {
        "channel": 0,
        "deltaTime": 120,
        "noteNumber": 83,
        "subtype": "noteOff",
        "type": "channel",
        "velocity": 0
      },
      {
        "channel": 0,
        "deltaTime": 0,
        "noteNumber": 81,
        "subtype": "noteOn",
        "type": "channel",
        "velocity": 100
      },
      {
        "channel": 0,
        "deltaTime": 120,
        "noteNumber": 81,
        "subtype": "noteOff",
        "type": "channel",
        "velocity": 0
      },
      {
        "channel": 0,
        "deltaTime": 0,
        "noteNumber": 79,
        "subtype": "noteOn",
        "type": "channel",
        "velocity": 100
      },
      {
        "channel": 0,
        "deltaTime": 120,
        "noteNumber": 79,
        "subtype": "noteOff",
        "type": "channel",
        "velocity": 0
      },
      {
        "channel": 0,
        "deltaTime": 0,
        "noteNumber": 77,
        "subtype": "noteOn",
        "type": "channel",
        "velocity": 100
      },
      {
        "channel": 0,
        "deltaTime": 120,
        "noteNumber": 77,
        "subtype": "noteOff",
        "type": "channel",
        "velocity": 0
      },
      {
        "channel": 0,
        "deltaTime": 0,
        "noteNumber": 76,
        "subtype": "noteOn",
        "type": "channel",
        "velocity": 100
      },
      {
        "channel": 0,
        "deltaTime": 120,
        "noteNumber": 76,
        "subtype": "noteOff",
        "type": "channel",
        "velocity": 0
      },
      {
        "channel": 0,
        "deltaTime": 0,
        "noteNumber": 77,
        "subtype": "noteOn",
        "type": "channel",
        "velocity": 100
      },
      {
        "channel": 0,
        "deltaTime": 120,
        "noteNumber": 77,
        "subtype": "noteOff",
        "type": "channel",
        "velocity": 0
      },
      {
        "channel": 0,
        "deltaTime": 0,
        "noteNumber": 79,
        "subtype": "noteOn",
        "type": "channel",
        "velocity": 100
      },
      {
        "channel": 0,
        "deltaTime": 120,
        "noteNumber": 79,
        "subtype": "noteOff",
        "type": "channel",
        "velocity": 0
      },
      {
        "channel": 0,
        "deltaTime": 0,
        "noteNumber": 76,
        "subtype": "noteOn",
        "type": "channel",
        "velocity": 100
      },
      {
        "channel": 0,
        "deltaTime": 120,
        "noteNumber": 76,
        "subtype": "noteOff",
        "type": "channel",
        "velocity": 0
      },
      {
        "channel": 0,
        "deltaTime": 0,
        "noteNumber": 72,
        "subtype": "noteOn",
        "type": "channel",
        "velocity": 100
      },
      {
        "channel": 0,
        "deltaTime": 120,
        "noteNumber": 72,
        "subtype": "noteOff",
        "type": "channel",
        "velocity": 0
      },
      {
        "channel": 0,
        "deltaTime": 0,
        "noteNumber": 74,
        "subtype": "noteOn",
        "type": "channel",
        "velocity": 100
      },
      {
        "channel": 0,
        "deltaTime": 120,
        "noteNumber": 74,
        "subtype": "noteOff",
        "type": "channel",
        "velocity": 0
      },
      {
        "channel": 0,
        "deltaTime": 0,
        "noteNumber": 76,
        "subtype": "noteOn",
        "type": "channel",
        "velocity": 100
      },
      {
        "channel": 0,
        "deltaTime": 120,
        "noteNumber": 76,
        "subtype": "noteOff",
        "type": "channel",
        "velocity": 0
      },
      {
        "channel": 0,
        "deltaTime": 0,
        "noteNumber": 72,
        "subtype": "noteOn",
        "type": "channel",
        "velocity": 100
      },
      {
        "channel": 0,
        "deltaTime": 120,
        "noteNumber": 72,
        "subtype": "noteOff",
        "type": "channel",
        "velocity": 0
      },
      {
        "channel": 0,
        "deltaTime": 0,
        "noteNumber": 77,
        "subtype": "noteOn",
        "type": "channel",
        "velocity": 100
      },
      {
        "channel": 0,
        "deltaTime": 120,
        "noteNumber": 77,
        "subtype": "noteOff",
        "type": "channel",
        "velocity": 0
      },
      {
        "channel": 0,
        "deltaTime": 0,
        "noteNumber": 79,
        "subtype": "noteOn",
        "type": "channel",
        "velocity": 100
      },
      {
        "channel": 0,
        "deltaTime": 120,
        "noteNumber": 79,
        "subtype": "noteOff",
        "type": "channel",
        "velocity": 0
      },
      {
        "channel": 0,
        "deltaTime": 0,
        "noteNumber": 81,
        "subtype": "noteOn",
        "type": "channel",
        "velocity": 100
      },
      {
        "channel": 0,
        "deltaTime": 120,
        "noteNumber": 81,
        "subtype": "noteOff",
        "type": "channel",
        "velocity": 0
      },
      {
        "channel": 0,
        "deltaTime": 0,
        "noteNumber": 77,
        "subtype": "noteOn",
        "type": "channel",
        "velocity": 100
      },
      {
        "channel": 0,
        "deltaTime": 120,
        "noteNumber": 77,
        "subtype": "noteOff",
        "type": "channel",
        "velocity": 0
      },
      {
        "channel": 0,
        "deltaTime": 0,
        "noteNumber": 74,
        "subtype": "noteOn",
        "type": "channel",
        "velocity": 100
      },
      {
        "channel": 0,
        "deltaTime": 120,
        "noteNumber": 74,
        "subtype": "noteOff",
        "type": "channel",
        "velocity": 0
      },
      {
        "channel": 0,
        "deltaTime": 0,
        "noteNumber": 76,
        "subtype": "noteOn",
        "type": "channel",
        "velocity": 100
      },
      {
        "channel": 0,
        "deltaTime": 120,
        "noteNumber": 76,
        "subtype": "noteOff",
        "type": "channel",
        "velocity": 0
      },
      {
        "channel": 0,
        "deltaTime": 0,
        "noteNumber": 77,
        "subtype": "noteOn",
        "type": "channel",
        "velocity": 100
      },
      {
        "channel": 0,
        "deltaTime": 120,
        "noteNumber": 77,
        "subtype": "noteOff",
        "type": "channel",
        "velocity": 0
      },
      {
        "channel": 0,
        "deltaTime": 0,
        "noteNumber": 74,
        "subtype": "noteOn",
        "type": "channel",
        "velocity": 100
      },
      {
        "channel": 0,
        "deltaTime": 120,
        "noteNumber": 74,
        "subtype": "noteOff",
        "type": "channel",
        "velocity": 0
      },
      {
        "channel": 0,
        "deltaTime": 0,
        "noteNumber": 71,
        "subtype": "noteOn",
        "type": "channel",
        "velocity": 100
      },
      {
        "channel": 0,
        "deltaTime": 120,
        "noteNumber": 71,
        "subtype": "noteOff",
        "type": "channel",
        "velocity": 0
      },
      {
        "channel": 0,
        "deltaTime": 0,
        "noteNumber": 72,
        "subtype": "noteOn",
        "type": "channel",
        "velocity": 100
      },
      {
        "channel": 0,
        "deltaTime": 120,
        "noteNumber": 72,
        "subtype": "noteOff",
        "type": "channel",
        "velocity": 0
      },
      {
        "channel": 0,
        "deltaTime": 0,
        "noteNumber": 74,
        "subtype": "noteOn",
        "type": "channel",
        "velocity": 100
      },
      {
        "channel": 0,
        "deltaTime": 120,
        "noteNumber": 74,
        "subtype": "noteOff",
        "type": "channel",
        "velocity": 0
      },
      {
        "channel": 0,
        "deltaTime": 0,
        "noteNumber": 71,
        "subtype": "noteOn",
        "type": "channel",
        "velocity": 100
      },
      {
        "channel": 0,
        "deltaTime": 120,
        "noteNumber": 71,
        "subtype": "noteOff",
        "type": "channel",
        "velocity": 0
      },
      {
        "channel": 0,
        "deltaTime": 0,
        "noteNumber": 76,
        "subtype": "noteOn",
        "type": "channel",
        "velocity": 100
      },
      {
        "channel": 0,
        "deltaTime": 120,
        "noteNumber": 76,
        "subtype": "noteOff",
        "type": "channel",
        "velocity": 0
      },
      {
        "channel": 0,
        "deltaTime": 0,
        "noteNumber": 77,
        "subtype": "noteOn",
        "type": "channel",
        "velocity": 100
      },
      {
        "channel": 0,
        "deltaTime": 120,
        "noteNumber": 77,
        "subtype": "noteOff",
        "type": "channel",
        "velocity": 0
      },
      {
        "channel": 0,
        "deltaTime": 0,
        "noteNumber": 79,
        "subtype": "noteOn",
        "type": "channel",
        "velocity": 100
      },
      {
        "channel": 0,
        "deltaTime": 120,
        "noteNumber": 79,
        "subtype": "noteOff",
        "type": "channel",
        "velocity": 0
      },
      {
        "channel": 0,
        "deltaTime": 0,
        "noteNumber": 76,
        "subtype": "noteOn",
        "type": "channel",
        "velocity": 100
      },
      {
        "channel": 0,
        "deltaTime": 120,
        "noteNumber": 76,
        "subtype": "noteOff",
        "type": "channel",
        "velocity": 0
      },
      {
        "channel": 0,
        "deltaTime": 0,
        "noteNumber": 72,
        "subtype": "noteOn",
        "type": "channel",
        "velocity": 100
      },
      {
        "channel": 0,
        "deltaTime": 120,
        "noteNumber": 72,
        "subtype": "noteOff",
        "type": "channel",
        "velocity": 0
      },
      {
        "channel": 0,
        "deltaTime": 0,
        "noteNumber": 74,
        "subtype": "noteOn",
        "type": "channel",
        "velocity": 100
      },
      {
        "channel": 0,
        "deltaTime": 120,
        "noteNumber": 74,
        "subtype": "noteOff",
        "type": "channel",
        "velocity": 0
      },
      {
        "channel": 0,
        "deltaTime": 0,
        "noteNumber": 76,
        "subtype": "noteOn",
        "type": "channel",
        "velocity": 100
      },
      {
        "channel": 0,
        "deltaTime": 120,
        "noteNumber": 76,
        "subtype": "noteOff",
        "type": "channel",
        "velocity": 0
      },
      {
        "channel": 0,
        "deltaTime": 0,
        "noteNumber": 72,
        "subtype": "noteOn",
        "type": "channel",
        "velocity": 100
      },
      {
        "channel": 0,
        "deltaTime": 120,
        "noteNumber": 72,
        "subtype": "noteOff",
        "type": "channel",
        "velocity": 0
      },
      {
        "channel": 0,
        "deltaTime": 0,
        "noteNumber": 69,
        "subtype": "noteOn",
        "type": "channel",
        "velocity": 100
      },
      {
        "channel": 0,
        "deltaTime": 120,
        "noteNumber": 69,
        "subtype": "noteOff",
        "type": "channel",
        "velocity": 0
      },
      {
        "channel": 0,
        "deltaTime": 0,
        "noteNumber": 71,
        "subtype": "noteOn",
        "type": "channel",
        "velocity": 100
      },
      {
        "channel": 0,
        "deltaTime": 120,
        "noteNumber": 71,
        "subtype": "noteOff",
        "type": "channel",
        "velocity": 0
      },
      {
        "channel": 0,
        "deltaTime": 0,
        "noteNumber": 72,
        "subtype": "noteOn",
        "type": "channel",
        "velocity": 100
      },
      {
        "channel": 0,
        "deltaTime": 120,
        "noteNumber": 72,
        "subtype": "noteOff",
        "type": "channel",
        "velocity": 0
      },
      {
        "channel": 0,
        "deltaTime": 0,
        "noteNumber": 69,
        "subtype": "noteOn",
        "type": "channel",
        "velocity": 100
      },
      {
        "channel": 0,
        "deltaTime": 120,
        "noteNumber": 69,
        "subtype": "noteOff",
        "type": "channel",
        "velocity": 0
      },
      {
        "channel": 0,
        "deltaTime": 0,
        "noteNumber": 74,
        "subtype": "noteOn",
        "type": "channel",
        "velocity": 100
      },
      {
        "channel": 0,
        "deltaTime": 120,
        "noteNumber": 74,
        "subtype": "noteOff",
        "type": "channel",
        "velocity": 0
      },
      {
        "channel": 0,
        "deltaTime": 0,
        "noteNumber": 76,
        "subtype": "noteOn",
        "type": "channel",
        "velocity": 100
      },
      {
        "channel": 0,
        "deltaTime": 120,
        "noteNumber": 76,
        "subtype": "noteOff",
        "type": "channel",
        "velocity": 0
      },
      {
        "channel": 0,
        "deltaTime": 0,
        "noteNumber": 77,
        "subtype": "noteOn",
        "type": "channel",
        "velocity": 100
      },
      {
        "channel": 0,
        "deltaTime": 120,
        "noteNumber": 77,
        "subtype": "noteOff",
        "type": "channel",
        "velocity": 0
      },
      {
        "channel": 0,
        "deltaTime": 0,
        "noteNumber": 74,
        "subtype": "noteOn",
        "type": "channel",
        "velocity": 100
      },
      {
        "channel": 0,
        "deltaTime": 120,
        "noteNumber": 74,
        "subtype": "noteOff",
        "type": "channel",
        "velocity": 0
      },
      {
        "channel": 0,
        "deltaTime": 0,
        "noteNumber": 71,
        "subtype": "noteOn",
        "type": "channel",
        "velocity": 100
      },
      {
        "channel": 0,
        "deltaTime": 60,
        "noteNumber": 71,
        "subtype": "noteOff",
        "type": "channel",
        "velocity": 0
      },
      {
        "channel": 0,
        "deltaTime": 0,
        "noteNumber": 69,
        "subtype": "noteOn",
        "type": "channel",
        "velocity": 100
      },
      {
        "channel": 0,
        "deltaTime": 60,
        "noteNumber": 69,
        "subtype": "noteOff",
        "type": "channel",
        "velocity": 0
      },
      {
        "channel": 0,
        "deltaTime": 0,
        "noteNumber": 71,
        "subtype": "noteOn",
        "type": "channel",
        "velocity": 100
      },
      {
        "channel": 0,
        "deltaTime": 120,
        "noteNumber": 71,
        "subtype": "noteOff",
        "type": "channel",
        "velocity": 0
      },
      {
        "channel": 0,
        "deltaTime": 120,
        "noteNumber": 67,
        "subtype": "noteOn",
        "type": "channel",
        "velocity": 100
      },
      {
        "channel": 0,
        "deltaTime": 120,
        "noteNumber": 67,
        "subtype": "noteOff",
        "type": "channel",
        "velocity": 0
      },
      {
        "channel": 0,
        "deltaTime": 0,
        "noteNumber": 69,
        "subtype": "noteOn",
        "type": "channel",
        "velocity": 100
      },
      {
        "channel": 0,
        "deltaTime": 120,
        "noteNumber": 69,
        "subtype": "noteOff",
        "type": "channel",
        "velocity": 0
      },
      {
        "channel": 0,
        "deltaTime": 0,
        "noteNumber": 71,
        "subtype": "noteOn",
        "type": "channel",
        "velocity": 100
      },
      {
        "channel": 0,
        "deltaTime": 120,
        "noteNumber": 71,
        "subtype": "noteOff",
        "type": "channel",
        "velocity": 0
      },
      {
        "channel": 0,
        "deltaTime": 0,
        "noteNumber": 72,
        "subtype": "noteOn",
        "type": "channel",
        "velocity": 100
      },
      {
        "channel": 0,
        "deltaTime": 120,
        "noteNumber": 72,
        "subtype": "noteOff",
        "type": "channel",
        "velocity": 0
      },
      {
        "channel": 0,
        "deltaTime": 0,
        "noteNumber": 74,
        "subtype": "noteOn",
        "type": "channel",
        "velocity": 100
      },
      {
        "channel": 0,
        "deltaTime": 120,
        "noteNumber": 74,
        "subtype": "noteOff",
        "type": "channel",
        "velocity": 0
      },
      {
        "channel": 0,
        "deltaTime": 0,
        "noteNumber": 76,
        "subtype": "noteOn",
        "type": "channel",
        "velocity": 100
      },
      {
        "channel": 0,
        "deltaTime": 120,
        "noteNumber": 76,
        "subtype": "noteOff",
        "type": "channel",
        "velocity": 0
      },
      {
        "channel": 0,
        "deltaTime": 0,
        "noteNumber": 77,
        "subtype": "noteOn",
        "type": "channel",
        "velocity": 100
      },
      {
        "channel": 0,
        "deltaTime": 240,
        "noteNumber": 77,
        "subtype": "noteOff",
        "type": "channel",
        "velocity": 0
      },
      {
        "channel": 0,
        "deltaTime": 0,
        "noteNumber": 68,
        "subtype": "noteOn",
        "type": "channel",
        "velocity": 100
      },
      {
        "channel": 0,
        "deltaTime": 120,
        "noteNumber": 68,
        "subtype": "noteOff",
        "type": "channel",
        "velocity": 0
      },
      {
        "channel": 0,
        "deltaTime": 0,
        "noteNumber": 69,
        "subtype": "noteOn",
        "type": "channel",
        "velocity": 100
      },
      {
        "channel": 0,
        "deltaTime": 120,
        "noteNumber": 69,
        "subtype": "noteOff",
        "type": "channel",
        "velocity": 0
      },
      {
        "channel": 0,
        "deltaTime": 0,
        "noteNumber": 71,
        "subtype": "noteOn",
        "type": "channel",
        "velocity": 100
      },
      {
        "channel": 0,
        "deltaTime": 240,
        "noteNumber": 71,
        "subtype": "noteOff",
        "type": "channel",
        "velocity": 0
      },
      {
        "channel": 0,
        "deltaTime": 0,
        "noteNumber": 74,
        "subtype": "noteOn",
        "type": "channel",
        "velocity": 100
      },
      {
        "channel": 0,
        "deltaTime": 240,
        "noteNumber": 74,
        "subtype": "noteOff",
        "type": "channel",
        "velocity": 0
      },
      {
        "channel": 0,
        "deltaTime": 0,
        "noteNumber": 76,
        "subtype": "noteOn",
        "type": "channel",
        "velocity": 100
      },
      {
        "channel": 0,
        "deltaTime": 120,
        "noteNumber": 76,
        "subtype": "noteOff",
        "type": "channel",
        "velocity": 0
      },
      {
        "channel": 0,
        "deltaTime": 0,
        "noteNumber": 74,
        "subtype": "noteOn",
        "type": "channel",
        "velocity": 100
      },
      {
        "channel": 0,
        "deltaTime": 120,
        "noteNumber": 74,
        "subtype": "noteOff",
        "type": "channel",
        "velocity": 0
      },
      {
        "channel": 0,
        "deltaTime": 0,
        "noteNumber": 72,
        "subtype": "noteOn",
        "type": "channel",
        "velocity": 100
      },
      {
        "channel": 0,
        "deltaTime": 120,
        "noteNumber": 72,
        "subtype": "noteOff",
        "type": "channel",
        "velocity": 0
      },
      {
        "channel": 0,
        "deltaTime": 0,
        "noteNumber": 71,
        "subtype": "noteOn",
        "type": "channel",
        "velocity": 100
      },
      {
        "channel": 0,
        "deltaTime": 120,
        "noteNumber": 71,
        "subtype": "noteOff",
        "type": "channel",
        "velocity": 0
      },
      {
        "channel": 0,
        "deltaTime": 0,
        "noteNumber": 72,
        "subtype": "noteOn",
        "type": "channel",
        "velocity": 100
      },
      {
        "channel": 0,
        "deltaTime": 120,
        "noteNumber": 72,
        "subtype": "noteOff",
        "type": "channel",
        "velocity": 0
      },
      {
        "channel": 0,
        "deltaTime": 0,
        "noteNumber": 71,
        "subtype": "noteOn",
        "type": "channel",
        "velocity": 100
      },
      {
        "channel": 0,
        "deltaTime": 120,
        "noteNumber": 71,
        "subtype": "noteOff",
        "type": "channel",
        "velocity": 0
      },
      {
        "channel": 0,
        "deltaTime": 0,
        "noteNumber": 69,
        "subtype": "noteOn",
        "type": "channel",
        "velocity": 100
      },
      {
        "channel": 0,
        "deltaTime": 120,
        "noteNumber": 69,
        "subtype": "noteOff",
        "type": "channel",
        "velocity": 0
      },
      {
        "channel": 0,
        "deltaTime": 0,
        "noteNumber": 76,
        "subtype": "noteOn",
        "type": "channel",
        "velocity": 100
      },
      {
        "channel": 0,
        "deltaTime": 120,
        "noteNumber": 76,
        "subtype": "noteOff",
        "type": "channel",
        "velocity": 0
      },
      {
        "channel": 0,
        "deltaTime": 0,
        "noteNumber": 72,
        "subtype": "noteOn",
        "type": "channel",
        "velocity": 100
      },
      {
        "channel": 0,
        "deltaTime": 120,
        "noteNumber": 72,
        "subtype": "noteOff",
        "type": "channel",
        "velocity": 0
      },
      {
        "channel": 0,
        "deltaTime": 0,
        "noteNumber": 71,
        "subtype": "noteOn",
        "type": "channel",
        "velocity": 100
      },
      {
        "channel": 0,
        "deltaTime": 120,
        "noteNumber": 71,
        "subtype": "noteOff",
        "type": "channel",
        "velocity": 0
      },
      {
        "channel": 0,
        "deltaTime": 0,
        "noteNumber": 69,
        "subtype": "noteOn",
        "type": "channel",
        "velocity": 100
      },
      {
        "channel": 0,
        "deltaTime": 120,
        "noteNumber": 69,
        "subtype": "noteOff",
        "type": "channel",
        "velocity": 0
      },
      {
        "channel": 0,
        "deltaTime": 0,
        "noteNumber": 76,
        "subtype": "noteOn",
        "type": "channel",
        "velocity": 100
      },
      {
        "channel": 0,
        "deltaTime": 120,
        "noteNumber": 76,
        "subtype": "noteOff",
        "type": "channel",
        "velocity": 0
      },
      {
        "channel": 0,
        "deltaTime": 0,
        "noteNumber": 81,
        "subtype": "noteOn",
        "type": "channel",
        "velocity": 100
      },
      {
        "channel": 0,
        "deltaTime": 120,
        "noteNumber": 81,
        "subtype": "noteOff",
        "type": "channel",
        "velocity": 0
      },
      {
        "channel": 0,
        "deltaTime": 0,
        "noteNumber": 80,
        "subtype": "noteOn",
        "type": "channel",
        "velocity": 100
      },
      {
        "channel": 0,
        "deltaTime": 120,
        "noteNumber": 80,
        "subtype": "noteOff",
        "type": "channel",
        "velocity": 0
      },
      {
        "channel": 0,
        "deltaTime": 0,
        "noteNumber": 81,
        "subtype": "noteOn",
        "type": "channel",
        "velocity": 100
      },
      {
        "channel": 0,
        "deltaTime": 120,
        "noteNumber": 81,
        "subtype": "noteOff",
        "type": "channel",
        "velocity": 0
      },
      {
        "channel": 0,
        "deltaTime": 0,
        "noteNumber": 72,
        "subtype": "noteOn",
        "type": "channel",
        "velocity": 100
      },
      {
        "channel": 0,
        "deltaTime": 120,
        "noteNumber": 72,
        "subtype": "noteOff",
        "type": "channel",
        "velocity": 0
      },
      {
        "channel": 0,
        "deltaTime": 0,
        "noteNumber": 63,
        "subtype": "noteOn",
        "type": "channel",
        "velocity": 100
      },
      {
        "channel": 0,
        "deltaTime": 120,
        "noteNumber": 63,
        "subtype": "noteOff",
        "type": "channel",
        "velocity": 0
      },
      {
        "channel": 0,
        "deltaTime": 0,
        "noteNumber": 72,
        "subtype": "noteOn",
        "type": "channel",
        "velocity": 100
      },
      {
        "channel": 0,
        "deltaTime": 120,
        "noteNumber": 72,
        "subtype": "noteOff",
        "type": "channel",
        "velocity": 0
      },
      {
        "channel": 0,
        "deltaTime": 0,
        "noteNumber": 81,
        "subtype": "noteOn",
        "type": "channel",
        "velocity": 100
      },
      {
        "channel": 0,
        "deltaTime": 120,
        "noteNumber": 81,
        "subtype": "noteOff",
        "type": "channel",
        "velocity": 0
      },
      {
        "channel": 0,
        "deltaTime": 0,
        "noteNumber": 81,
        "subtype": "noteOn",
        "type": "channel",
        "velocity": 100
      },
      {
        "channel": 0,
        "deltaTime": 120,
        "noteNumber": 81,
        "subtype": "noteOff",
        "type": "channel",
        "velocity": 0
      },
      {
        "channel": 0,
        "deltaTime": 0,
        "noteNumber": 63,
        "subtype": "noteOn",
        "type": "channel",
        "velocity": 100
      },
      {
        "channel": 0,
        "deltaTime": 120,
        "noteNumber": 63,
        "subtype": "noteOff",
        "type": "channel",
        "velocity": 0
      },
      {
        "channel": 0,
        "deltaTime": 0,
        "noteNumber": 72,
        "subtype": "noteOn",
        "type": "channel",
        "velocity": 100
      },
      {
        "channel": 0,
        "deltaTime": 120,
        "noteNumber": 72,
        "subtype": "noteOff",
        "type": "channel",
        "velocity": 0
      },
      {
        "channel": 0,
        "deltaTime": 0,
        "noteNumber": 81,
        "subtype": "noteOn",
        "type": "channel",
        "velocity": 100
      },
      {
        "channel": 0,
        "deltaTime": 120,
        "noteNumber": 81,
        "subtype": "noteOff",
        "type": "channel",
        "velocity": 0
      },
      {
        "channel": 0,
        "deltaTime": 0,
        "noteNumber": 81,
        "subtype": "noteOn",
        "type": "channel",
        "velocity": 100
      },
      {
        "channel": 0,
        "deltaTime": 120,
        "noteNumber": 81,
        "subtype": "noteOff",
        "type": "channel",
        "velocity": 0
      },
      {
        "channel": 0,
        "deltaTime": 0,
        "noteNumber": 71,
        "subtype": "noteOn",
        "type": "channel",
        "velocity": 100
      },
      {
        "channel": 0,
        "deltaTime": 120,
        "noteNumber": 71,
        "subtype": "noteOff",
        "type": "channel",
        "velocity": 0
      },
      {
        "channel": 0,
        "deltaTime": 0,
        "noteNumber": 81,
        "subtype": "noteOn",
        "type": "channel",
        "velocity": 100
      },
      {
        "channel": 0,
        "deltaTime": 120,
        "noteNumber": 81,
        "subtype": "noteOff",
        "type": "channel",
        "velocity": 0
      },
      {
        "channel": 0,
        "deltaTime": 0,
        "noteNumber": 79,
        "subtype": "noteOn",
        "type": "channel",
        "velocity": 100
      },
      {
        "channel": 0,
        "deltaTime": 120,
        "noteNumber": 79,
        "subtype": "noteOff",
        "type": "channel",
        "velocity": 0
      },
      {
        "channel": 0,
        "deltaTime": 0,
        "noteNumber": 78,
        "subtype": "noteOn",
        "type": "channel",
        "velocity": 100
      },
      {
        "channel": 0,
        "deltaTime": 120,
        "noteNumber": 78,
        "subtype": "noteOff",
        "type": "channel",
        "velocity": 0
      },
      {
        "channel": 0,
        "deltaTime": 0,
        "noteNumber": 79,
        "subtype": "noteOn",
        "type": "channel",
        "velocity": 100
      },
      {
        "channel": 0,
        "deltaTime": 120,
        "noteNumber": 79,
        "subtype": "noteOff",
        "type": "channel",
        "velocity": 0
      },
      {
        "channel": 0,
        "deltaTime": 0,
        "noteNumber": 78,
        "subtype": "noteOn",
        "type": "channel",
        "velocity": 100
      },
      {
        "channel": 0,
        "deltaTime": 120,
        "noteNumber": 78,
        "subtype": "noteOff",
        "type": "channel",
        "velocity": 0
      },
      {
        "channel": 0,
        "deltaTime": 0,
        "noteNumber": 76,
        "subtype": "noteOn",
        "type": "channel",
        "velocity": 100
      },
      {
        "channel": 0,
        "deltaTime": 120,
        "noteNumber": 76,
        "subtype": "noteOff",
        "type": "channel",
        "velocity": 0
      },
      {
        "channel": 0,
        "deltaTime": 0,
        "noteNumber": 83,
        "subtype": "noteOn",
        "type": "channel",
        "velocity": 100
      },
      {
        "channel": 0,
        "deltaTime": 120,
        "noteNumber": 83,
        "subtype": "noteOff",
        "type": "channel",
        "velocity": 0
      },
      {
        "channel": 0,
        "deltaTime": 0,
        "noteNumber": 79,
        "subtype": "noteOn",
        "type": "channel",
        "velocity": 100
      },
      {
        "channel": 0,
        "deltaTime": 120,
        "noteNumber": 79,
        "subtype": "noteOff",
        "type": "channel",
        "velocity": 0
      },
      {
        "channel": 0,
        "deltaTime": 0,
        "noteNumber": 78,
        "subtype": "noteOn",
        "type": "channel",
        "velocity": 100
      },
      {
        "channel": 0,
        "deltaTime": 120,
        "noteNumber": 78,
        "subtype": "noteOff",
        "type": "channel",
        "velocity": 0
      },
      {
        "channel": 0,
        "deltaTime": 0,
        "noteNumber": 76,
        "subtype": "noteOn",
        "type": "channel",
        "velocity": 100
      },
      {
        "channel": 0,
        "deltaTime": 120,
        "noteNumber": 76,
        "subtype": "noteOff",
        "type": "channel",
        "velocity": 0
      },
      {
        "channel": 0,
        "deltaTime": 0,
        "noteNumber": 83,
        "subtype": "noteOn",
        "type": "channel",
        "velocity": 100
      },
      {
        "channel": 0,
        "deltaTime": 120,
        "noteNumber": 83,
        "subtype": "noteOff",
        "type": "channel",
        "velocity": 0
      },
      {
        "channel": 0,
        "deltaTime": 0,
        "noteNumber": 84,
        "subtype": "noteOn",
        "type": "channel",
        "velocity": 100
      },
      {
        "channel": 0,
        "deltaTime": 120,
        "noteNumber": 84,
        "subtype": "noteOff",
        "type": "channel",
        "velocity": 0
      },
      {
        "channel": 0,
        "deltaTime": 0,
        "noteNumber": 83,
        "subtype": "noteOn",
        "type": "channel",
        "velocity": 100
      },
      {
        "channel": 0,
        "deltaTime": 120,
        "noteNumber": 83,
        "subtype": "noteOff",
        "type": "channel",
        "velocity": 0
      },
      {
        "channel": 0,
        "deltaTime": 0,
        "noteNumber": 84,
        "subtype": "noteOn",
        "type": "channel",
        "velocity": 100
      },
      {
        "channel": 0,
        "deltaTime": 120,
        "noteNumber": 84,
        "subtype": "noteOff",
        "type": "channel",
        "velocity": 0
      },
      {
        "channel": 0,
        "deltaTime": 0,
        "noteNumber": 76,
        "subtype": "noteOn",
        "type": "channel",
        "velocity": 100
      },
      {
        "channel": 0,
        "deltaTime": 120,
        "noteNumber": 76,
        "subtype": "noteOff",
        "type": "channel",
        "velocity": 0
      },
      {
        "channel": 0,
        "deltaTime": 0,
        "noteNumber": 66,
        "subtype": "noteOn",
        "type": "channel",
        "velocity": 100
      },
      {
        "channel": 0,
        "deltaTime": 120,
        "noteNumber": 66,
        "subtype": "noteOff",
        "type": "channel",
        "velocity": 0
      },
      {
        "channel": 0,
        "deltaTime": 0,
        "noteNumber": 74,
        "subtype": "noteOn",
        "type": "channel",
        "velocity": 100
      },
      {
        "channel": 0,
        "deltaTime": 120,
        "noteNumber": 74,
        "subtype": "noteOff",
        "type": "channel",
        "velocity": 0
      },
      {
        "channel": 0,
        "deltaTime": 0,
        "noteNumber": 84,
        "subtype": "noteOn",
        "type": "channel",
        "velocity": 100
      },
      {
        "channel": 0,
        "deltaTime": 120,
        "noteNumber": 84,
        "subtype": "noteOff",
        "type": "channel",
        "velocity": 0
      },
      {
        "channel": 0,
        "deltaTime": 0,
        "noteNumber": 84,
        "subtype": "noteOn",
        "type": "channel",
        "velocity": 100
      },
      {
        "channel": 0,
        "deltaTime": 120,
        "noteNumber": 84,
        "subtype": "noteOff",
        "type": "channel",
        "velocity": 0
      },
      {
        "channel": 0,
        "deltaTime": 0,
        "noteNumber": 68,
        "subtype": "noteOn",
        "type": "channel",
        "velocity": 100
      },
      {
        "channel": 0,
        "deltaTime": 120,
        "noteNumber": 68,
        "subtype": "noteOff",
        "type": "channel",
        "velocity": 0
      },
      {
        "channel": 0,
        "deltaTime": 0,
        "noteNumber": 74,
        "subtype": "noteOn",
        "type": "channel",
        "velocity": 100
      },
      {
        "channel": 0,
        "deltaTime": 120,
        "noteNumber": 74,
        "subtype": "noteOff",
        "type": "channel",
        "velocity": 0
      },
      {
        "channel": 0,
        "deltaTime": 0,
        "noteNumber": 83,
        "subtype": "noteOn",
        "type": "channel",
        "velocity": 100
      },
      {
        "channel": 0,
        "deltaTime": 120,
        "noteNumber": 83,
        "subtype": "noteOff",
        "type": "channel",
        "velocity": 0
      },
      {
        "channel": 0,
        "deltaTime": 0,
        "noteNumber": 74,
        "subtype": "noteOn",
        "type": "channel",
        "velocity": 100
      },
      {
        "channel": 0,
        "deltaTime": 120,
        "noteNumber": 74,
        "subtype": "noteOff",
        "type": "channel",
        "velocity": 0
      },
      {
        "channel": 0,
        "deltaTime": 0,
        "noteNumber": 68,
        "subtype": "noteOn",
        "type": "channel",
        "velocity": 100
      },
      {
        "channel": 0,
        "deltaTime": 120,
        "noteNumber": 68,
        "subtype": "noteOff",
        "type": "channel",
        "velocity": 0
      },
      {
        "channel": 0,
        "deltaTime": 0,
        "noteNumber": 74,
        "subtype": "noteOn",
        "type": "channel",
        "velocity": 100
      },
      {
        "channel": 0,
        "deltaTime": 120,
        "noteNumber": 74,
        "subtype": "noteOff",
        "type": "channel",
        "velocity": 0
      },
      {
        "channel": 0,
        "deltaTime": 0,
        "noteNumber": 72,
        "subtype": "noteOn",
        "type": "channel",
        "velocity": 100
      },
      {
        "channel": 0,
        "deltaTime": 120,
        "noteNumber": 72,
        "subtype": "noteOff",
        "type": "channel",
        "velocity": 0
      },
      {
        "channel": 0,
        "deltaTime": 0,
        "noteNumber": 71,
        "subtype": "noteOn",
        "type": "channel",
        "velocity": 100
      },
      {
        "channel": 0,
        "deltaTime": 120,
        "noteNumber": 71,
        "subtype": "noteOff",
        "type": "channel",
        "velocity": 0
      },
      {
        "channel": 0,
        "deltaTime": 0,
        "noteNumber": 69,
        "subtype": "noteOn",
        "type": "channel",
        "velocity": 100
      },
      {
        "channel": 0,
        "deltaTime": 120,
        "noteNumber": 69,
        "subtype": "noteOff",
        "type": "channel",
        "velocity": 0
      },
      {
        "channel": 0,
        "deltaTime": 0,
        "noteNumber": 71,
        "subtype": "noteOn",
        "type": "channel",
        "velocity": 100
      },
      {
        "channel": 0,
        "deltaTime": 120,
        "noteNumber": 71,
        "subtype": "noteOff",
        "type": "channel",
        "velocity": 0
      },
      {
        "channel": 0,
        "deltaTime": 0,
        "noteNumber": 72,
        "subtype": "noteOn",
        "type": "channel",
        "velocity": 100
      },
      {
        "channel": 0,
        "deltaTime": 120,
        "noteNumber": 72,
        "subtype": "noteOff",
        "type": "channel",
        "velocity": 0
      },
      {
        "channel": 0,
        "deltaTime": 0,
        "noteNumber": 76,
        "subtype": "noteOn",
        "type": "channel",
        "velocity": 100
      },
      {
        "channel": 0,
        "deltaTime": 120,
        "noteNumber": 76,
        "subtype": "noteOff",
        "type": "channel",
        "velocity": 0
      },
      {
        "channel": 0,
        "deltaTime": 0,
        "noteNumber": 69,
        "subtype": "noteOn",
        "type": "channel",
        "velocity": 100
      },
      {
        "channel": 0,
        "deltaTime": 120,
        "noteNumber": 69,
        "subtype": "noteOff",
        "type": "channel",
        "velocity": 0
      },
      {
        "channel": 0,
        "deltaTime": 0,
        "noteNumber": 71,
        "subtype": "noteOn",
        "type": "channel",
        "velocity": 100
      },
      {
        "channel": 0,
        "deltaTime": 120,
        "noteNumber": 71,
        "subtype": "noteOff",
        "type": "channel",
        "velocity": 0
      },
      {
        "channel": 0,
        "deltaTime": 0,
        "noteNumber": 72,
        "subtype": "noteOn",
        "type": "channel",
        "velocity": 100
      },
      {
        "channel": 0,
        "deltaTime": 120,
        "noteNumber": 72,
        "subtype": "noteOff",
        "type": "channel",
        "velocity": 0
      },
      {
        "channel": 0,
        "deltaTime": 0,
        "noteNumber": 76,
        "subtype": "noteOn",
        "type": "channel",
        "velocity": 100
      },
      {
        "channel": 0,
        "deltaTime": 120,
        "noteNumber": 76,
        "subtype": "noteOff",
        "type": "channel",
        "velocity": 0
      },
      {
        "channel": 0,
        "deltaTime": 0,
        "noteNumber": 81,
        "subtype": "noteOn",
        "type": "channel",
        "velocity": 100
      },
      {
        "channel": 0,
        "deltaTime": 120,
        "noteNumber": 81,
        "subtype": "noteOff",
        "type": "channel",
        "velocity": 0
      },
      {
        "channel": 0,
        "deltaTime": 0,
        "noteNumber": 83,
        "subtype": "noteOn",
        "type": "channel",
        "velocity": 100
      },
      {
        "channel": 0,
        "deltaTime": 120,
        "noteNumber": 83,
        "subtype": "noteOff",
        "type": "channel",
        "velocity": 0
      },
      {
        "channel": 0,
        "deltaTime": 0,
        "noteNumber": 84,
        "subtype": "noteOn",
        "type": "channel",
        "velocity": 100
      },
      {
        "channel": 0,
        "deltaTime": 120,
        "noteNumber": 84,
        "subtype": "noteOff",
        "type": "channel",
        "velocity": 0
      },
      {
        "channel": 0,
        "deltaTime": 0,
        "noteNumber": 81,
        "subtype": "noteOn",
        "type": "channel",
        "velocity": 100
      },
      {
        "channel": 0,
        "deltaTime": 120,
        "noteNumber": 81,
        "subtype": "noteOff",
        "type": "channel",
        "velocity": 0
      },
      {
        "channel": 0,
        "deltaTime": 0,
        "noteNumber": 87,
        "subtype": "noteOn",
        "type": "channel",
        "velocity": 100
      },
      {
        "channel": 0,
        "deltaTime": 720,
        "noteNumber": 87,
        "subtype": "noteOff",
        "type": "channel",
        "velocity": 0
      },
      {
        "channel": 0,
        "deltaTime": 0,
        "noteNumber": 69,
        "subtype": "noteOn",
        "type": "channel",
        "velocity": 100
      },
      {
        "channel": 0,
        "deltaTime": 120,
        "noteNumber": 69,
        "subtype": "noteOff",
        "type": "channel",
        "velocity": 0
      },
      {
        "channel": 0,
        "deltaTime": 0,
        "noteNumber": 72,
        "subtype": "noteOn",
        "type": "channel",
        "velocity": 100
      },
      {
        "channel": 0,
        "deltaTime": 120,
        "noteNumber": 72,
        "subtype": "noteOff",
        "type": "channel",
        "velocity": 0
      },
      {
        "channel": 0,
        "deltaTime": 0,
        "noteNumber": 71,
        "subtype": "noteOn",
        "type": "channel",
        "velocity": 100
      },
      {
        "channel": 0,
        "deltaTime": 120,
        "noteNumber": 71,
        "subtype": "noteOff",
        "type": "channel",
        "velocity": 0
      },
      {
        "channel": 0,
        "deltaTime": 0,
        "noteNumber": 69,
        "subtype": "noteOn",
        "type": "channel",
        "velocity": 100
      },
      {
        "channel": 0,
        "deltaTime": 120,
        "noteNumber": 69,
        "subtype": "noteOff",
        "type": "channel",
        "velocity": 0
      },
      {
        "channel": 0,
        "deltaTime": 0,
        "noteNumber": 67,
        "subtype": "noteOn",
        "type": "channel",
        "velocity": 100
      },
      {
        "channel": 0,
        "deltaTime": 120,
        "noteNumber": 67,
        "subtype": "noteOff",
        "type": "channel",
        "velocity": 0
      },
      {
        "channel": 0,
        "deltaTime": 0,
        "noteNumber": 66,
        "subtype": "noteOn",
        "type": "channel",
        "velocity": 100
      },
      {
        "channel": 0,
        "deltaTime": 120,
        "noteNumber": 66,
        "subtype": "noteOff",
        "type": "channel",
        "velocity": 0
      },
      {
        "channel": 0,
        "deltaTime": 0,
        "noteNumber": 67,
        "subtype": "noteOn",
        "type": "channel",
        "velocity": 100
      },
      {
        "channel": 0,
        "deltaTime": 120,
        "noteNumber": 67,
        "subtype": "noteOff",
        "type": "channel",
        "velocity": 0
      },
      {
        "channel": 0,
        "deltaTime": 0,
        "noteNumber": 71,
        "subtype": "noteOn",
        "type": "channel",
        "velocity": 100
      },
      {
        "channel": 0,
        "deltaTime": 120,
        "noteNumber": 71,
        "subtype": "noteOff",
        "type": "channel",
        "velocity": 0
      },
      {
        "channel": 0,
        "deltaTime": 0,
        "noteNumber": 76,
        "subtype": "noteOn",
        "type": "channel",
        "velocity": 100
      },
      {
        "channel": 0,
        "deltaTime": 120,
        "noteNumber": 76,
        "subtype": "noteOff",
        "type": "channel",
        "velocity": 0
      },
      {
        "channel": 0,
        "deltaTime": 0,
        "noteNumber": 83,
        "subtype": "noteOn",
        "type": "channel",
        "velocity": 100
      },
      {
        "channel": 0,
        "deltaTime": 120,
        "noteNumber": 83,
        "subtype": "noteOff",
        "type": "channel",
        "velocity": 0
      },
      {
        "channel": 0,
        "deltaTime": 0,
        "noteNumber": 81,
        "subtype": "noteOn",
        "type": "channel",
        "velocity": 100
      },
      {
        "channel": 0,
        "deltaTime": 120,
        "noteNumber": 81,
        "subtype": "noteOff",
        "type": "channel",
        "velocity": 0
      },
      {
        "channel": 0,
        "deltaTime": 0,
        "noteNumber": 79,
        "subtype": "noteOn",
        "type": "channel",
        "velocity": 100
      },
      {
        "channel": 0,
        "deltaTime": 120,
        "noteNumber": 79,
        "subtype": "noteOff",
        "type": "channel",
        "velocity": 0
      },
      {
        "channel": 0,
        "deltaTime": 0,
        "noteNumber": 78,
        "subtype": "noteOn",
        "type": "channel",
        "velocity": 100
      },
      {
        "channel": 0,
        "deltaTime": 120,
        "noteNumber": 78,
        "subtype": "noteOff",
        "type": "channel",
        "velocity": 0
      },
      {
        "channel": 0,
        "deltaTime": 0,
        "noteNumber": 76,
        "subtype": "noteOn",
        "type": "channel",
        "velocity": 100
      },
      {
        "channel": 0,
        "deltaTime": 120,
        "noteNumber": 76,
        "subtype": "noteOff",
        "type": "channel",
        "velocity": 0
      },
      {
        "channel": 0,
        "deltaTime": 0,
        "noteNumber": 79,
        "subtype": "noteOn",
        "type": "channel",
        "velocity": 100
      },
      {
        "channel": 0,
        "deltaTime": 120,
        "noteNumber": 79,
        "subtype": "noteOff",
        "type": "channel",
        "velocity": 0
      },
      {
        "channel": 0,
        "deltaTime": 0,
        "noteNumber": 78,
        "subtype": "noteOn",
        "type": "channel",
        "velocity": 100
      },
      {
        "channel": 0,
        "deltaTime": 120,
        "noteNumber": 78,
        "subtype": "noteOff",
        "type": "channel",
        "velocity": 0
      },
      {
        "channel": 0,
        "deltaTime": 0,
        "noteNumber": 76,
        "subtype": "noteOn",
        "type": "channel",
        "velocity": 100
      },
      {
        "channel": 0,
        "deltaTime": 120,
        "noteNumber": 76,
        "subtype": "noteOff",
        "type": "channel",
        "velocity": 0
      },
      {
        "channel": 0,
        "deltaTime": 0,
        "noteNumber": 75,
        "subtype": "noteOn",
        "type": "channel",
        "velocity": 100
      },
      {
        "channel": 0,
        "deltaTime": 120,
        "noteNumber": 75,
        "subtype": "noteOff",
        "type": "channel",
        "velocity": 0
      },
      {
        "channel": 0,
        "deltaTime": 0,
        "noteNumber": 76,
        "subtype": "noteOn",
        "type": "channel",
        "velocity": 100
      },
      {
        "channel": 0,
        "deltaTime": 240,
        "noteNumber": 76,
        "subtype": "noteOff",
        "type": "channel",
        "velocity": 0
      },
      {
        "channel": 0,
        "deltaTime": 0,
        "noteNumber": 70,
        "subtype": "noteOn",
        "type": "channel",
        "velocity": 100
      },
      {
        "channel": 0,
        "deltaTime": 120,
        "noteNumber": 70,
        "subtype": "noteOff",
        "type": "channel",
        "velocity": 0
      },
      {
        "channel": 0,
        "deltaTime": 0,
        "noteNumber": 71,
        "subtype": "noteOn",
        "type": "channel",
        "velocity": 100
      },
      {
        "channel": 0,
        "deltaTime": 120,
        "noteNumber": 71,
        "subtype": "noteOff",
        "type": "channel",
        "velocity": 0
      },
      {
        "channel": 0,
        "deltaTime": 0,
        "noteNumber": 73,
        "subtype": "noteOn",
        "type": "channel",
        "velocity": 100
      },
      {
        "channel": 0,
        "deltaTime": 240,
        "noteNumber": 73,
        "subtype": "noteOff",
        "type": "channel",
        "velocity": 0
      },
      {
        "channel": 0,
        "deltaTime": 0,
        "noteNumber": 76,
        "subtype": "noteOn",
        "type": "channel",
        "velocity": 100
      },
      {
        "channel": 0,
        "deltaTime": 240,
        "noteNumber": 76,
        "subtype": "noteOff",
        "type": "channel",
        "velocity": 0
      },
      {
        "channel": 0,
        "deltaTime": 0,
        "noteNumber": 78,
        "subtype": "noteOn",
        "type": "channel",
        "velocity": 100
      },
      {
        "channel": 0,
        "deltaTime": 120,
        "noteNumber": 78,
        "subtype": "noteOff",
        "type": "channel",
        "velocity": 0
      },
      {
        "channel": 0,
        "deltaTime": 0,
        "noteNumber": 76,
        "subtype": "noteOn",
        "type": "channel",
        "velocity": 100
      },
      {
        "channel": 0,
        "deltaTime": 120,
        "noteNumber": 76,
        "subtype": "noteOff",
        "type": "channel",
        "velocity": 0
      },
      {
        "channel": 0,
        "deltaTime": 0,
        "noteNumber": 74,
        "subtype": "noteOn",
        "type": "channel",
        "velocity": 100
      },
      {
        "channel": 0,
        "deltaTime": 120,
        "noteNumber": 74,
        "subtype": "noteOff",
        "type": "channel",
        "velocity": 0
      },
      {
        "channel": 0,
        "deltaTime": 0,
        "noteNumber": 73,
        "subtype": "noteOn",
        "type": "channel",
        "velocity": 100
      },
      {
        "channel": 0,
        "deltaTime": 120,
        "noteNumber": 73,
        "subtype": "noteOff",
        "type": "channel",
        "velocity": 0
      },
      {
        "channel": 0,
        "deltaTime": 0,
        "noteNumber": 75,
        "subtype": "noteOn",
        "type": "channel",
        "velocity": 100
      },
      {
        "channel": 0,
        "deltaTime": 240,
        "noteNumber": 75,
        "subtype": "noteOff",
        "type": "channel",
        "velocity": 0
      },
      {
        "channel": 0,
        "deltaTime": 0,
        "noteNumber": 78,
        "subtype": "noteOn",
        "type": "channel",
        "velocity": 100
      },
      {
        "channel": 0,
        "deltaTime": 120,
        "noteNumber": 78,
        "subtype": "noteOff",
        "type": "channel",
        "velocity": 0
      },
      {
        "channel": 0,
        "deltaTime": 0,
        "noteNumber": 79,
        "subtype": "noteOn",
        "type": "channel",
        "velocity": 100
      },
      {
        "channel": 0,
        "deltaTime": 120,
        "noteNumber": 79,
        "subtype": "noteOff",
        "type": "channel",
        "velocity": 0
      },
      {
        "channel": 0,
        "deltaTime": 0,
        "noteNumber": 81,
        "subtype": "noteOn",
        "type": "channel",
        "velocity": 100
      },
      {
        "channel": 0,
        "deltaTime": 240,
        "noteNumber": 81,
        "subtype": "noteOff",
        "type": "channel",
        "velocity": 0
      },
      {
        "channel": 0,
        "deltaTime": 0,
        "noteNumber": 78,
        "subtype": "noteOn",
        "type": "channel",
        "velocity": 100
      },
      {
        "channel": 0,
        "deltaTime": 240,
        "noteNumber": 78,
        "subtype": "noteOff",
        "type": "channel",
        "velocity": 0
      },
      {
        "channel": 0,
        "deltaTime": 0,
        "noteNumber": 76,
        "subtype": "noteOn",
        "type": "channel",
        "velocity": 100
      },
      {
        "channel": 0,
        "deltaTime": 120,
        "noteNumber": 76,
        "subtype": "noteOff",
        "type": "channel",
        "velocity": 0
      },
      {
        "channel": 0,
        "deltaTime": 0,
        "noteNumber": 75,
        "subtype": "noteOn",
        "type": "channel",
        "velocity": 100
      },
      {
        "channel": 0,
        "deltaTime": 120,
        "noteNumber": 75,
        "subtype": "noteOff",
        "type": "channel",
        "velocity": 0
      },
      {
        "channel": 0,
        "deltaTime": 0,
        "noteNumber": 73,
        "subtype": "noteOn",
        "type": "channel",
        "velocity": 100
      },
      {
        "channel": 0,
        "deltaTime": 120,
        "noteNumber": 73,
        "subtype": "noteOff",
        "type": "channel",
        "velocity": 0
      },
      {
        "channel": 0,
        "deltaTime": 0,
        "noteNumber": 71,
        "subtype": "noteOn",
        "type": "channel",
        "velocity": 100
      },
      {
        "channel": 0,
        "deltaTime": 120,
        "noteNumber": 71,
        "subtype": "noteOff",
        "type": "channel",
        "velocity": 0
      },
      {
        "channel": 0,
        "deltaTime": 0,
        "noteNumber": 69,
        "subtype": "noteOn",
        "type": "channel",
        "velocity": 100
      },
      {
        "channel": 0,
        "deltaTime": 120,
        "noteNumber": 69,
        "subtype": "noteOff",
        "type": "channel",
        "velocity": 0
      },
      {
        "channel": 0,
        "deltaTime": 0,
        "noteNumber": 66,
        "subtype": "noteOn",
        "type": "channel",
        "velocity": 100
      },
      {
        "channel": 0,
        "deltaTime": 120,
        "noteNumber": 66,
        "subtype": "noteOff",
        "type": "channel",
        "velocity": 0
      },
      {
        "channel": 0,
        "deltaTime": 0,
        "noteNumber": 67,
        "subtype": "noteOn",
        "type": "channel",
        "velocity": 100
      },
      {
        "channel": 0,
        "deltaTime": 120,
        "noteNumber": 67,
        "subtype": "noteOff",
        "type": "channel",
        "velocity": 0
      },
      {
        "channel": 0,
        "deltaTime": 0,
        "noteNumber": 71,
        "subtype": "noteOn",
        "type": "channel",
        "velocity": 100
      },
      {
        "channel": 0,
        "deltaTime": 120,
        "noteNumber": 71,
        "subtype": "noteOff",
        "type": "channel",
        "velocity": 0
      },
      {
        "channel": 0,
        "deltaTime": 0,
        "noteNumber": 76,
        "subtype": "noteOn",
        "type": "channel",
        "velocity": 100
      },
      {
        "channel": 0,
        "deltaTime": 120,
        "noteNumber": 76,
        "subtype": "noteOff",
        "type": "channel",
        "velocity": 0
      },
      {
        "channel": 0,
        "deltaTime": 0,
        "noteNumber": 79,
        "subtype": "noteOn",
        "type": "channel",
        "velocity": 100
      },
      {
        "channel": 0,
        "deltaTime": 120,
        "noteNumber": 79,
        "subtype": "noteOff",
        "type": "channel",
        "velocity": 0
      },
      {
        "channel": 0,
        "deltaTime": 0,
        "noteNumber": 83,
        "subtype": "noteOn",
        "type": "channel",
        "velocity": 100
      },
      {
        "channel": 0,
        "deltaTime": 120,
        "noteNumber": 83,
        "subtype": "noteOff",
        "type": "channel",
        "velocity": 0
      },
      {
        "channel": 0,
        "deltaTime": 0,
        "noteNumber": 76,
        "subtype": "noteOn",
        "type": "channel",
        "velocity": 100
      },
      {
        "channel": 0,
        "deltaTime": 120,
        "noteNumber": 76,
        "subtype": "noteOff",
        "type": "channel",
        "velocity": 0
      },
      {
        "channel": 0,
        "deltaTime": 0,
        "noteNumber": 71,
        "subtype": "noteOn",
        "type": "channel",
        "velocity": 100
      },
      {
        "channel": 0,
        "deltaTime": 240,
        "noteNumber": 71,
        "subtype": "noteOff",
        "type": "channel",
        "velocity": 0
      },
      {
        "channel": 0,
        "deltaTime": 0,
        "noteNumber": 75,
        "subtype": "noteOn",
        "type": "channel",
        "velocity": 100
      },
      {
        "channel": 0,
        "deltaTime": 240,
        "noteNumber": 75,
        "subtype": "noteOff",
        "type": "channel",
        "velocity": 0
      },
      {
        "channel": 0,
        "deltaTime": 0,
        "noteNumber": 76,
        "subtype": "noteOn",
        "type": "channel",
        "velocity": 100
      },
      {
        "channel": 0,
        "deltaTime": 120,
        "noteNumber": 76,
        "subtype": "noteOff",
        "type": "channel",
        "velocity": 0
      },
      {
        "channel": 0,
        "deltaTime": 0,
        "noteNumber": 71,
        "subtype": "noteOn",
        "type": "channel",
        "velocity": 100
      },
      {
        "channel": 0,
        "deltaTime": 120,
        "noteNumber": 71,
        "subtype": "noteOff",
        "type": "channel",
        "velocity": 0
      },
      {
        "channel": 0,
        "deltaTime": 0,
        "noteNumber": 72,
        "subtype": "noteOn",
        "type": "channel",
        "velocity": 100
      },
      {
        "channel": 0,
        "deltaTime": 120,
        "noteNumber": 72,
        "subtype": "noteOff",
        "type": "channel",
        "velocity": 0
      },
      {
        "channel": 0,
        "deltaTime": 0,
        "noteNumber": 69,
        "subtype": "noteOn",
        "type": "channel",
        "velocity": 100
      },
      {
        "channel": 0,
        "deltaTime": 120,
        "noteNumber": 69,
        "subtype": "noteOff",
        "type": "channel",
        "velocity": 0
      },
      {
        "channel": 0,
        "deltaTime": 0,
        "noteNumber": 67,
        "subtype": "noteOn",
        "type": "channel",
        "velocity": 100
      },
      {
        "channel": 0,
        "deltaTime": 120,
        "noteNumber": 67,
        "subtype": "noteOff",
        "type": "channel",
        "velocity": 0
      },
      {
        "channel": 0,
        "deltaTime": 0,
        "noteNumber": 76,
        "subtype": "noteOn",
        "type": "channel",
        "velocity": 100
      },
      {
        "channel": 0,
        "deltaTime": 120,
        "noteNumber": 76,
        "subtype": "noteOff",
        "type": "channel",
        "velocity": 0
      },
      {
        "channel": 0,
        "deltaTime": 0,
        "noteNumber": 66,
        "subtype": "noteOn",
        "type": "channel",
        "velocity": 100
      },
      {
        "channel": 0,
        "deltaTime": 120,
        "noteNumber": 66,
        "subtype": "noteOff",
        "type": "channel",
        "velocity": 0
      },
      {
        "channel": 0,
        "deltaTime": 0,
        "noteNumber": 75,
        "subtype": "noteOn",
        "type": "channel",
        "velocity": 100
      },
      {
        "channel": 0,
        "deltaTime": 120,
        "noteNumber": 75,
        "subtype": "noteOff",
        "type": "channel",
        "velocity": 0
      },
      {
        "channel": 0,
        "deltaTime": 0,
        "noteNumber": 64,
        "subtype": "noteOn",
        "type": "channel",
        "velocity": 100
      },
      {
        "channel": 0,
        "deltaTime": 240,
        "noteNumber": 64,
        "subtype": "noteOff",
        "type": "channel",
        "velocity": 0
      },
      {
        "channel": 0,
        "deltaTime": 0,
        "noteNumber": 76,
        "subtype": "noteOn",
        "type": "channel",
        "velocity": 100
      },
      {
        "channel": 0,
        "deltaTime": 240,
        "noteNumber": 76,
        "subtype": "noteOff",
        "type": "channel",
        "velocity": 0
      },
      {
        "channel": 0,
        "deltaTime": 0,
        "noteNumber": 69,
        "subtype": "noteOn",
        "type": "channel",
        "velocity": 100
      },
      {
        "channel": 0,
        "deltaTime": 120,
        "noteNumber": 69,
        "subtype": "noteOff",
        "type": "channel",
        "velocity": 0
      },
      {
        "channel": 0,
        "deltaTime": 0,
        "noteNumber": 71,
        "subtype": "noteOn",
        "type": "channel",
        "velocity": 100
      },
      {
        "channel": 0,
        "deltaTime": 120,
        "noteNumber": 71,
        "subtype": "noteOff",
        "type": "channel",
        "velocity": 0
      },
      {
        "channel": 0,
        "deltaTime": 0,
        "noteNumber": 72,
        "subtype": "noteOn",
        "type": "channel",
        "velocity": 100
      },
      {
        "channel": 0,
        "deltaTime": 120,
        "noteNumber": 72,
        "subtype": "noteOff",
        "type": "channel",
        "velocity": 0
      },
      {
        "channel": 0,
        "deltaTime": 0,
        "noteNumber": 74,
        "subtype": "noteOn",
        "type": "channel",
        "velocity": 100
      },
      {
        "channel": 0,
        "deltaTime": 120,
        "noteNumber": 74,
        "subtype": "noteOff",
        "type": "channel",
        "velocity": 0
      },
      {
        "channel": 0,
        "deltaTime": 0,
        "noteNumber": 76,
        "subtype": "noteOn",
        "type": "channel",
        "velocity": 100
      },
      {
        "channel": 0,
        "deltaTime": 240,
        "noteNumber": 76,
        "subtype": "noteOff",
        "type": "channel",
        "velocity": 0
      },
      {
        "channel": 0,
        "deltaTime": 0,
        "noteNumber": 78,
        "subtype": "noteOn",
        "type": "channel",
        "velocity": 100
      },
      {
        "channel": 0,
        "deltaTime": 120,
        "noteNumber": 78,
        "subtype": "noteOff",
        "type": "channel",
        "velocity": 0
      },
      {
        "channel": 0,
        "deltaTime": 0,
        "noteNumber": 80,
        "subtype": "noteOn",
        "type": "channel",
        "velocity": 100
      },
      {
        "channel": 0,
        "deltaTime": 120,
        "noteNumber": 80,
        "subtype": "noteOff",
        "type": "channel",
        "velocity": 0
      },
      {
        "channel": 0,
        "deltaTime": 0,
        "noteNumber": 81,
        "subtype": "noteOn",
        "type": "channel",
        "velocity": 100
      },
      {
        "channel": 0,
        "deltaTime": 240,
        "noteNumber": 81,
        "subtype": "noteOff",
        "type": "channel",
        "velocity": 0
      },
      {
        "channel": 0,
        "deltaTime": 0,
        "noteNumber": 83,
        "subtype": "noteOn",
        "type": "channel",
        "velocity": 100
      },
      {
        "channel": 0,
        "deltaTime": 240,
        "noteNumber": 83,
        "subtype": "noteOff",
        "type": "channel",
        "velocity": 0
      },
      {
        "channel": 0,
        "deltaTime": 0,
        "noteNumber": 84,
        "subtype": "noteOn",
        "type": "channel",
        "velocity": 100
      },
      {
        "channel": 0,
        "deltaTime": 240,
        "noteNumber": 84,
        "subtype": "noteOff",
        "type": "channel",
        "velocity": 0
      },
      {
        "channel": 0,
        "deltaTime": 0,
        "noteNumber": 69,
        "subtype": "noteOn",
        "type": "channel",
        "velocity": 100
      },
      {
        "channel": 0,
        "deltaTime": 240,
        "noteNumber": 69,
        "subtype": "noteOff",
        "type": "channel",
        "velocity": 0
      },
      {
        "channel": 0,
        "deltaTime": 0,
        "noteNumber": 67,
        "subtype": "noteOn",
        "type": "channel",
        "velocity": 100
      },
      {
        "channel": 0,
        "deltaTime": 480,
        "noteNumber": 67,
        "subtype": "noteOff",
        "type": "channel",
        "velocity": 0
      },
      {
        "channel": 0,
        "deltaTime": 0,
        "noteNumber": 83,
        "subtype": "noteOn",
        "type": "channel",
        "velocity": 100
      },
      {
        "channel": 0,
        "deltaTime": 480,
        "noteNumber": 83,
        "subtype": "noteOff",
        "type": "channel",
        "velocity": 0
      },
      {
        "channel": 0,
        "deltaTime": 0,
        "noteNumber": 65,
        "subtype": "noteOn",
        "type": "channel",
        "velocity": 100
      },
      {
        "channel": 0,
        "deltaTime": 240,
        "noteNumber": 65,
        "subtype": "noteOff",
        "type": "channel",
        "velocity": 0
      },
      {
        "channel": 0,
        "deltaTime": 0,
        "noteNumber": 81,
        "subtype": "noteOn",
        "type": "channel",
        "velocity": 100
      },
      {
        "channel": 0,
        "deltaTime": 120,
        "noteNumber": 81,
        "subtype": "noteOff",
        "type": "channel",
        "velocity": 0
      },
      {
        "channel": 0,
        "deltaTime": 0,
        "noteNumber": 80,
        "subtype": "noteOn",
        "type": "channel",
        "velocity": 100
      },
      {
        "channel": 0,
        "deltaTime": 120,
        "noteNumber": 80,
        "subtype": "noteOff",
        "type": "channel",
        "velocity": 0
      },
      {
        "channel": 0,
        "deltaTime": 0,
        "noteNumber": 81,
        "subtype": "noteOn",
        "type": "channel",
        "velocity": 100
      },
      {
        "channel": 0,
        "deltaTime": 240,
        "noteNumber": 81,
        "subtype": "noteOff",
        "type": "channel",
        "velocity": 0
      },
      {
        "channel": 0,
        "deltaTime": 0,
        "noteNumber": 64,
        "subtype": "noteOn",
        "type": "channel",
        "velocity": 100
      },
      {
        "channel": 0,
        "deltaTime": 240,
        "noteNumber": 64,
        "subtype": "noteOff",
        "type": "channel",
        "velocity": 0
      },
      {
        "channel": 0,
        "deltaTime": 0,
        "noteNumber": 62,
        "subtype": "noteOn",
        "type": "channel",
        "velocity": 100
      },
      {
        "channel": 0,
        "deltaTime": 240,
        "noteNumber": 62,
        "subtype": "noteOff",
        "type": "channel",
        "velocity": 0
      },
      {
        "channel": 0,
        "deltaTime": 0,
        "noteNumber": 83,
        "subtype": "noteOn",
        "type": "channel",
        "velocity": 100
      },
      {
        "channel": 0,
        "deltaTime": 4,
        "noteNumber": 83,
        "subtype": "noteOff",
        "type": "channel",
        "velocity": 0
      },
      {
        "channel": 0,
        "deltaTime": 0,
        "noteNumber": 80,
        "subtype": "noteOn",
        "type": "channel",
        "velocity": 100
      },
      {
        "channel": 0,
        "deltaTime": 540,
        "noteNumber": 80,
        "subtype": "noteOff",
        "type": "channel",
        "velocity": 0
      },
      {
        "channel": 0,
        "deltaTime": 0,
        "noteNumber": 83,
        "subtype": "noteOn",
        "type": "channel",
        "velocity": 100
      },
      {
        "channel": 0,
        "deltaTime": 120,
        "noteNumber": 83,
        "subtype": "noteOff",
        "type": "channel",
        "velocity": 0
      },
      {
        "channel": 0,
        "deltaTime": 0,
        "noteNumber": 81,
        "subtype": "noteOn",
        "type": "channel",
        "velocity": 100
      },
      {
        "channel": 0,
        "deltaTime": 120,
        "noteNumber": 81,
        "subtype": "noteOff",
        "type": "channel",
        "velocity": 0
      },
      {
        "channel": 0,
        "deltaTime": 0,
        "noteNumber": 80,
        "subtype": "noteOn",
        "type": "channel",
        "velocity": 100
      },
      {
        "channel": 0,
        "deltaTime": 120,
        "noteNumber": 80,
        "subtype": "noteOff",
        "type": "channel",
        "velocity": 0
      },
      {
        "channel": 0,
        "deltaTime": 0,
        "noteNumber": 77,
        "subtype": "noteOn",
        "type": "channel",
        "velocity": 100
      },
      {
        "channel": 0,
        "deltaTime": 120,
        "noteNumber": 77,
        "subtype": "noteOff",
        "type": "channel",
        "velocity": 0
      },
      {
        "channel": 0,
        "deltaTime": 0,
        "noteNumber": 76,
        "subtype": "noteOn",
        "type": "channel",
        "velocity": 100
      },
      {
        "channel": 0,
        "deltaTime": 120,
        "noteNumber": 76,
        "subtype": "noteOff",
        "type": "channel",
        "velocity": 0
      },
      {
        "channel": 0,
        "deltaTime": 0,
        "noteNumber": 74,
        "subtype": "noteOn",
        "type": "channel",
        "velocity": 100
      },
      {
        "channel": 0,
        "deltaTime": 120,
        "noteNumber": 74,
        "subtype": "noteOff",
        "type": "channel",
        "velocity": 0
      },
      {
        "channel": 0,
        "deltaTime": 0,
        "noteNumber": 72,
        "subtype": "noteOn",
        "type": "channel",
        "velocity": 100
      },
      {
        "channel": 0,
        "deltaTime": 120,
        "noteNumber": 72,
        "subtype": "noteOff",
        "type": "channel",
        "velocity": 0
      },
      {
        "channel": 0,
        "deltaTime": 0,
        "noteNumber": 74,
        "subtype": "noteOn",
        "type": "channel",
        "velocity": 100
      },
      {
        "channel": 0,
        "deltaTime": 120,
        "noteNumber": 74,
        "subtype": "noteOff",
        "type": "channel",
        "velocity": 0
      },
      {
        "channel": 0,
        "deltaTime": 0,
        "noteNumber": 76,
        "subtype": "noteOn",
        "type": "channel",
        "velocity": 100
      },
      {
        "channel": 0,
        "deltaTime": 120,
        "noteNumber": 76,
        "subtype": "noteOff",
        "type": "channel",
        "velocity": 0
      },
      {
        "channel": 0,
        "deltaTime": 0,
        "noteNumber": 72,
        "subtype": "noteOn",
        "type": "channel",
        "velocity": 100
      },
      {
        "channel": 0,
        "deltaTime": 120,
        "noteNumber": 72,
        "subtype": "noteOff",
        "type": "channel",
        "velocity": 0
      },
      {
        "channel": 0,
        "deltaTime": 0,
        "noteNumber": 69,
        "subtype": "noteOn",
        "type": "channel",
        "velocity": 100
      },
      {
        "channel": 0,
        "deltaTime": 240,
        "noteNumber": 69,
        "subtype": "noteOff",
        "type": "channel",
        "velocity": 0
      },
      {
        "channel": 0,
        "deltaTime": 0,
        "noteNumber": 84,
        "subtype": "noteOn",
        "type": "channel",
        "velocity": 100
      },
      {
        "channel": 0,
        "deltaTime": 120,
        "noteNumber": 84,
        "subtype": "noteOff",
        "type": "channel",
        "velocity": 0
      },
      {
        "channel": 0,
        "deltaTime": 0,
        "noteNumber": 83,
        "subtype": "noteOn",
        "type": "channel",
        "velocity": 100
      },
      {
        "channel": 0,
        "deltaTime": 120,
        "noteNumber": 83,
        "subtype": "noteOff",
        "type": "channel",
        "velocity": 0
      },
      {
        "channel": 0,
        "deltaTime": 0,
        "noteNumber": 81,
        "subtype": "noteOn",
        "type": "channel",
        "velocity": 100
      },
      {
        "channel": 0,
        "deltaTime": 120,
        "noteNumber": 81,
        "subtype": "noteOff",
        "type": "channel",
        "velocity": 0
      },
      {
        "channel": 0,
        "deltaTime": 0,
        "noteNumber": 79,
        "subtype": "noteOn",
        "type": "channel",
        "velocity": 100
      },
      {
        "channel": 0,
        "deltaTime": 120,
        "noteNumber": 79,
        "subtype": "noteOff",
        "type": "channel",
        "velocity": 0
      },
      {
        "channel": 0,
        "deltaTime": 0,
        "noteNumber": 77,
        "subtype": "noteOn",
        "type": "channel",
        "velocity": 100
      },
      {
        "channel": 0,
        "deltaTime": 120,
        "noteNumber": 77,
        "subtype": "noteOff",
        "type": "channel",
        "velocity": 0
      },
      {
        "channel": 0,
        "deltaTime": 0,
        "noteNumber": 76,
        "subtype": "noteOn",
        "type": "channel",
        "velocity": 100
      },
      {
        "channel": 0,
        "deltaTime": 120,
        "noteNumber": 76,
        "subtype": "noteOff",
        "type": "channel",
        "velocity": 0
      },
      {
        "channel": 0,
        "deltaTime": 0,
        "noteNumber": 74,
        "subtype": "noteOn",
        "type": "channel",
        "velocity": 100
      },
      {
        "channel": 0,
        "deltaTime": 120,
        "noteNumber": 74,
        "subtype": "noteOff",
        "type": "channel",
        "velocity": 0
      },
      {
        "channel": 0,
        "deltaTime": 0,
        "noteNumber": 76,
        "subtype": "noteOn",
        "type": "channel",
        "velocity": 100
      },
      {
        "channel": 0,
        "deltaTime": 120,
        "noteNumber": 76,
        "subtype": "noteOff",
        "type": "channel",
        "velocity": 0
      },
      {
        "channel": 0,
        "deltaTime": 0,
        "noteNumber": 77,
        "subtype": "noteOn",
        "type": "channel",
        "velocity": 100
      },
      {
        "channel": 0,
        "deltaTime": 120,
        "noteNumber": 77,
        "subtype": "noteOff",
        "type": "channel",
        "velocity": 0
      },
      {
        "channel": 0,
        "deltaTime": 0,
        "noteNumber": 74,
        "subtype": "noteOn",
        "type": "channel",
        "velocity": 100
      },
      {
        "channel": 0,
        "deltaTime": 120,
        "noteNumber": 74,
        "subtype": "noteOff",
        "type": "channel",
        "velocity": 0
      },
      {
        "channel": 0,
        "deltaTime": 0,
        "noteNumber": 71,
        "subtype": "noteOn",
        "type": "channel",
        "velocity": 100
      },
      {
        "channel": 0,
        "deltaTime": 240,
        "noteNumber": 71,
        "subtype": "noteOff",
        "type": "channel",
        "velocity": 0
      },
      {
        "channel": 0,
        "deltaTime": 0,
        "noteNumber": 86,
        "subtype": "noteOn",
        "type": "channel",
        "velocity": 100
      },
      {
        "channel": 0,
        "deltaTime": 120,
        "noteNumber": 86,
        "subtype": "noteOff",
        "type": "channel",
        "velocity": 0
      },
      {
        "channel": 0,
        "deltaTime": 0,
        "noteNumber": 84,
        "subtype": "noteOn",
        "type": "channel",
        "velocity": 100
      },
      {
        "channel": 0,
        "deltaTime": 120,
        "noteNumber": 84,
        "subtype": "noteOff",
        "type": "channel",
        "velocity": 0
      },
      {
        "channel": 0,
        "deltaTime": 0,
        "noteNumber": 83,
        "subtype": "noteOn",
        "type": "channel",
        "velocity": 100
      },
      {
        "channel": 0,
        "deltaTime": 120,
        "noteNumber": 83,
        "subtype": "noteOff",
        "type": "channel",
        "velocity": 0
      },
      {
        "channel": 0,
        "deltaTime": 0,
        "noteNumber": 81,
        "subtype": "noteOn",
        "type": "channel",
        "velocity": 100
      },
      {
        "channel": 0,
        "deltaTime": 120,
        "noteNumber": 81,
        "subtype": "noteOff",
        "type": "channel",
        "velocity": 0
      },
      {
        "channel": 0,
        "deltaTime": 0,
        "noteNumber": 79,
        "subtype": "noteOn",
        "type": "channel",
        "velocity": 100
      },
      {
        "channel": 0,
        "deltaTime": 120,
        "noteNumber": 79,
        "subtype": "noteOff",
        "type": "channel",
        "velocity": 0
      },
      {
        "channel": 0,
        "deltaTime": 0,
        "noteNumber": 77,
        "subtype": "noteOn",
        "type": "channel",
        "velocity": 100
      },
      {
        "channel": 0,
        "deltaTime": 120,
        "noteNumber": 77,
        "subtype": "noteOff",
        "type": "channel",
        "velocity": 0
      },
      {
        "channel": 0,
        "deltaTime": 0,
        "noteNumber": 76,
        "subtype": "noteOn",
        "type": "channel",
        "velocity": 100
      },
      {
        "channel": 0,
        "deltaTime": 120,
        "noteNumber": 76,
        "subtype": "noteOff",
        "type": "channel",
        "velocity": 0
      },
      {
        "channel": 0,
        "deltaTime": 0,
        "noteNumber": 77,
        "subtype": "noteOn",
        "type": "channel",
        "velocity": 100
      },
      {
        "channel": 0,
        "deltaTime": 120,
        "noteNumber": 77,
        "subtype": "noteOff",
        "type": "channel",
        "velocity": 0
      },
      {
        "channel": 0,
        "deltaTime": 0,
        "noteNumber": 79,
        "subtype": "noteOn",
        "type": "channel",
        "velocity": 100
      },
      {
        "channel": 0,
        "deltaTime": 120,
        "noteNumber": 79,
        "subtype": "noteOff",
        "type": "channel",
        "velocity": 0
      },
      {
        "channel": 0,
        "deltaTime": 0,
        "noteNumber": 76,
        "subtype": "noteOn",
        "type": "channel",
        "velocity": 100
      },
      {
        "channel": 0,
        "deltaTime": 120,
        "noteNumber": 76,
        "subtype": "noteOff",
        "type": "channel",
        "velocity": 0
      },
      {
        "channel": 0,
        "deltaTime": 0,
        "noteNumber": 72,
        "subtype": "noteOn",
        "type": "channel",
        "velocity": 100
      },
      {
        "channel": 0,
        "deltaTime": 120,
        "noteNumber": 72,
        "subtype": "noteOff",
        "type": "channel",
        "velocity": 0
      },
      {
        "channel": 0,
        "deltaTime": 0,
        "noteNumber": 74,
        "subtype": "noteOn",
        "type": "channel",
        "velocity": 100
      },
      {
        "channel": 0,
        "deltaTime": 120,
        "noteNumber": 74,
        "subtype": "noteOff",
        "type": "channel",
        "velocity": 0
      },
      {
        "channel": 0,
        "deltaTime": 0,
        "noteNumber": 76,
        "subtype": "noteOn",
        "type": "channel",
        "velocity": 100
      },
      {
        "channel": 0,
        "deltaTime": 120,
        "noteNumber": 76,
        "subtype": "noteOff",
        "type": "channel",
        "velocity": 0
      },
      {
        "channel": 0,
        "deltaTime": 0,
        "noteNumber": 72,
        "subtype": "noteOn",
        "type": "channel",
        "velocity": 100
      },
      {
        "channel": 0,
        "deltaTime": 120,
        "noteNumber": 72,
        "subtype": "noteOff",
        "type": "channel",
        "velocity": 0
      },
      {
        "channel": 0,
        "deltaTime": 0,
        "noteNumber": 77,
        "subtype": "noteOn",
        "type": "channel",
        "velocity": 100
      },
      {
        "channel": 0,
        "deltaTime": 120,
        "noteNumber": 77,
        "subtype": "noteOff",
        "type": "channel",
        "velocity": 0
      },
      {
        "channel": 0,
        "deltaTime": 0,
        "noteNumber": 79,
        "subtype": "noteOn",
        "type": "channel",
        "velocity": 100
      },
      {
        "channel": 0,
        "deltaTime": 120,
        "noteNumber": 79,
        "subtype": "noteOff",
        "type": "channel",
        "velocity": 0
      },
      {
        "channel": 0,
        "deltaTime": 0,
        "noteNumber": 81,
        "subtype": "noteOn",
        "type": "channel",
        "velocity": 100
      },
      {
        "channel": 0,
        "deltaTime": 120,
        "noteNumber": 81,
        "subtype": "noteOff",
        "type": "channel",
        "velocity": 0
      },
      {
        "channel": 0,
        "deltaTime": 0,
        "noteNumber": 77,
        "subtype": "noteOn",
        "type": "channel",
        "velocity": 100
      },
      {
        "channel": 0,
        "deltaTime": 120,
        "noteNumber": 77,
        "subtype": "noteOff",
        "type": "channel",
        "velocity": 0
      },
      {
        "channel": 0,
        "deltaTime": 0,
        "noteNumber": 74,
        "subtype": "noteOn",
        "type": "channel",
        "velocity": 100
      },
      {
        "channel": 0,
        "deltaTime": 120,
        "noteNumber": 74,
        "subtype": "noteOff",
        "type": "channel",
        "velocity": 0
      },
      {
        "channel": 0,
        "deltaTime": 0,
        "noteNumber": 76,
        "subtype": "noteOn",
        "type": "channel",
        "velocity": 100
      },
      {
        "channel": 0,
        "deltaTime": 120,
        "noteNumber": 76,
        "subtype": "noteOff",
        "type": "channel",
        "velocity": 0
      },
      {
        "channel": 0,
        "deltaTime": 0,
        "noteNumber": 77,
        "subtype": "noteOn",
        "type": "channel",
        "velocity": 100
      },
      {
        "channel": 0,
        "deltaTime": 120,
        "noteNumber": 77,
        "subtype": "noteOff",
        "type": "channel",
        "velocity": 0
      },
      {
        "channel": 0,
        "deltaTime": 0,
        "noteNumber": 74,
        "subtype": "noteOn",
        "type": "channel",
        "velocity": 100
      },
      {
        "channel": 0,
        "deltaTime": 120,
        "noteNumber": 74,
        "subtype": "noteOff",
        "type": "channel",
        "velocity": 0
      },
      {
        "channel": 0,
        "deltaTime": 0,
        "noteNumber": 71,
        "subtype": "noteOn",
        "type": "channel",
        "velocity": 100
      },
      {
        "channel": 0,
        "deltaTime": 120,
        "noteNumber": 71,
        "subtype": "noteOff",
        "type": "channel",
        "velocity": 0
      },
      {
        "channel": 0,
        "deltaTime": 0,
        "noteNumber": 72,
        "subtype": "noteOn",
        "type": "channel",
        "velocity": 100
      },
      {
        "channel": 0,
        "deltaTime": 120,
        "noteNumber": 72,
        "subtype": "noteOff",
        "type": "channel",
        "velocity": 0
      },
      {
        "channel": 0,
        "deltaTime": 0,
        "noteNumber": 74,
        "subtype": "noteOn",
        "type": "channel",
        "velocity": 100
      },
      {
        "channel": 0,
        "deltaTime": 120,
        "noteNumber": 74,
        "subtype": "noteOff",
        "type": "channel",
        "velocity": 0
      },
      {
        "channel": 0,
        "deltaTime": 0,
        "noteNumber": 71,
        "subtype": "noteOn",
        "type": "channel",
        "velocity": 100
      },
      {
        "channel": 0,
        "deltaTime": 120,
        "noteNumber": 71,
        "subtype": "noteOff",
        "type": "channel",
        "velocity": 0
      },
      {
        "channel": 0,
        "deltaTime": 0,
        "noteNumber": 76,
        "subtype": "noteOn",
        "type": "channel",
        "velocity": 100
      },
      {
        "channel": 0,
        "deltaTime": 120,
        "noteNumber": 76,
        "subtype": "noteOff",
        "type": "channel",
        "velocity": 0
      },
      {
        "channel": 0,
        "deltaTime": 0,
        "noteNumber": 77,
        "subtype": "noteOn",
        "type": "channel",
        "velocity": 100
      },
      {
        "channel": 0,
        "deltaTime": 120,
        "noteNumber": 77,
        "subtype": "noteOff",
        "type": "channel",
        "velocity": 0
      },
      {
        "channel": 0,
        "deltaTime": 0,
        "noteNumber": 79,
        "subtype": "noteOn",
        "type": "channel",
        "velocity": 100
      },
      {
        "channel": 0,
        "deltaTime": 120,
        "noteNumber": 79,
        "subtype": "noteOff",
        "type": "channel",
        "velocity": 0
      },
      {
        "channel": 0,
        "deltaTime": 0,
        "noteNumber": 76,
        "subtype": "noteOn",
        "type": "channel",
        "velocity": 100
      },
      {
        "channel": 0,
        "deltaTime": 120,
        "noteNumber": 76,
        "subtype": "noteOff",
        "type": "channel",
        "velocity": 0
      },
      {
        "channel": 0,
        "deltaTime": 0,
        "noteNumber": 72,
        "subtype": "noteOn",
        "type": "channel",
        "velocity": 100
      },
      {
        "channel": 0,
        "deltaTime": 120,
        "noteNumber": 72,
        "subtype": "noteOff",
        "type": "channel",
        "velocity": 0
      },
      {
        "channel": 0,
        "deltaTime": 0,
        "noteNumber": 74,
        "subtype": "noteOn",
        "type": "channel",
        "velocity": 100
      },
      {
        "channel": 0,
        "deltaTime": 120,
        "noteNumber": 74,
        "subtype": "noteOff",
        "type": "channel",
        "velocity": 0
      },
      {
        "channel": 0,
        "deltaTime": 0,
        "noteNumber": 76,
        "subtype": "noteOn",
        "type": "channel",
        "velocity": 100
      },
      {
        "channel": 0,
        "deltaTime": 120,
        "noteNumber": 76,
        "subtype": "noteOff",
        "type": "channel",
        "velocity": 0
      },
      {
        "channel": 0,
        "deltaTime": 0,
        "noteNumber": 72,
        "subtype": "noteOn",
        "type": "channel",
        "velocity": 100
      },
      {
        "channel": 0,
        "deltaTime": 120,
        "noteNumber": 72,
        "subtype": "noteOff",
        "type": "channel",
        "velocity": 0
      },
      {
        "channel": 0,
        "deltaTime": 0,
        "noteNumber": 69,
        "subtype": "noteOn",
        "type": "channel",
        "velocity": 100
      },
      {
        "channel": 0,
        "deltaTime": 120,
        "noteNumber": 69,
        "subtype": "noteOff",
        "type": "channel",
        "velocity": 0
      },
      {
        "channel": 0,
        "deltaTime": 0,
        "noteNumber": 71,
        "subtype": "noteOn",
        "type": "channel",
        "velocity": 100
      },
      {
        "channel": 0,
        "deltaTime": 120,
        "noteNumber": 71,
        "subtype": "noteOff",
        "type": "channel",
        "velocity": 0
      },
      {
        "channel": 0,
        "deltaTime": 0,
        "noteNumber": 72,
        "subtype": "noteOn",
        "type": "channel",
        "velocity": 100
      },
      {
        "channel": 0,
        "deltaTime": 120,
        "noteNumber": 72,
        "subtype": "noteOff",
        "type": "channel",
        "velocity": 0
      },
      {
        "channel": 0,
        "deltaTime": 0,
        "noteNumber": 69,
        "subtype": "noteOn",
        "type": "channel",
        "velocity": 100
      },
      {
        "channel": 0,
        "deltaTime": 120,
        "noteNumber": 69,
        "subtype": "noteOff",
        "type": "channel",
        "velocity": 0
      },
      {
        "channel": 0,
        "deltaTime": 0,
        "noteNumber": 74,
        "subtype": "noteOn",
        "type": "channel",
        "velocity": 100
      },
      {
        "channel": 0,
        "deltaTime": 120,
        "noteNumber": 74,
        "subtype": "noteOff",
        "type": "channel",
        "velocity": 0
      },
      {
        "channel": 0,
        "deltaTime": 0,
        "noteNumber": 76,
        "subtype": "noteOn",
        "type": "channel",
        "velocity": 100
      },
      {
        "channel": 0,
        "deltaTime": 120,
        "noteNumber": 76,
        "subtype": "noteOff",
        "type": "channel",
        "velocity": 0
      },
      {
        "channel": 0,
        "deltaTime": 0,
        "noteNumber": 77,
        "subtype": "noteOn",
        "type": "channel",
        "velocity": 100
      },
      {
        "channel": 0,
        "deltaTime": 120,
        "noteNumber": 77,
        "subtype": "noteOff",
        "type": "channel",
        "velocity": 0
      },
      {
        "channel": 0,
        "deltaTime": 0,
        "noteNumber": 74,
        "subtype": "noteOn",
        "type": "channel",
        "velocity": 100
      },
      {
        "channel": 0,
        "deltaTime": 120,
        "noteNumber": 74,
        "subtype": "noteOff",
        "type": "channel",
        "velocity": 0
      },
      {
        "channel": 0,
        "deltaTime": 0,
        "noteNumber": 71,
        "subtype": "noteOn",
        "type": "channel",
        "velocity": 100
      },
      {
        "channel": 0,
        "deltaTime": 60,
        "noteNumber": 71,
        "subtype": "noteOff",
        "type": "channel",
        "velocity": 0
      },
      {
        "channel": 0,
        "deltaTime": 0,
        "noteNumber": 69,
        "subtype": "noteOn",
        "type": "channel",
        "velocity": 100
      },
      {
        "channel": 0,
        "deltaTime": 60,
        "noteNumber": 69,
        "subtype": "noteOff",
        "type": "channel",
        "velocity": 0
      },
      {
        "channel": 0,
        "deltaTime": 0,
        "noteNumber": 71,
        "subtype": "noteOn",
        "type": "channel",
        "velocity": 100
      },
      {
        "channel": 0,
        "deltaTime": 120,
        "noteNumber": 71,
        "subtype": "noteOff",
        "type": "channel",
        "velocity": 0
      },
      {
        "channel": 0,
        "deltaTime": 120,
        "noteNumber": 67,
        "subtype": "noteOn",
        "type": "channel",
        "velocity": 100
      },
      {
        "channel": 0,
        "deltaTime": 120,
        "noteNumber": 67,
        "subtype": "noteOff",
        "type": "channel",
        "velocity": 0
      },
      {
        "channel": 0,
        "deltaTime": 0,
        "noteNumber": 69,
        "subtype": "noteOn",
        "type": "channel",
        "velocity": 100
      },
      {
        "channel": 0,
        "deltaTime": 120,
        "noteNumber": 69,
        "subtype": "noteOff",
        "type": "channel",
        "velocity": 0
      },
      {
        "channel": 0,
        "deltaTime": 0,
        "noteNumber": 71,
        "subtype": "noteOn",
        "type": "channel",
        "velocity": 100
      },
      {
        "channel": 0,
        "deltaTime": 120,
        "noteNumber": 71,
        "subtype": "noteOff",
        "type": "channel",
        "velocity": 0
      },
      {
        "channel": 0,
        "deltaTime": 0,
        "noteNumber": 72,
        "subtype": "noteOn",
        "type": "channel",
        "velocity": 100
      },
      {
        "channel": 0,
        "deltaTime": 120,
        "noteNumber": 72,
        "subtype": "noteOff",
        "type": "channel",
        "velocity": 0
      },
      {
        "channel": 0,
        "deltaTime": 0,
        "noteNumber": 74,
        "subtype": "noteOn",
        "type": "channel",
        "velocity": 100
      },
      {
        "channel": 0,
        "deltaTime": 120,
        "noteNumber": 74,
        "subtype": "noteOff",
        "type": "channel",
        "velocity": 0
      },
      {
        "channel": 0,
        "deltaTime": 0,
        "noteNumber": 76,
        "subtype": "noteOn",
        "type": "channel",
        "velocity": 100
      },
      {
        "channel": 0,
        "deltaTime": 120,
        "noteNumber": 76,
        "subtype": "noteOff",
        "type": "channel",
        "velocity": 0
      },
      {
        "channel": 0,
        "deltaTime": 0,
        "noteNumber": 77,
        "subtype": "noteOn",
        "type": "channel",
        "velocity": 100
      },
      {
        "channel": 0,
        "deltaTime": 240,
        "noteNumber": 77,
        "subtype": "noteOff",
        "type": "channel",
        "velocity": 0
      },
      {
        "channel": 0,
        "deltaTime": 0,
        "noteNumber": 68,
        "subtype": "noteOn",
        "type": "channel",
        "velocity": 100
      },
      {
        "channel": 0,
        "deltaTime": 120,
        "noteNumber": 68,
        "subtype": "noteOff",
        "type": "channel",
        "velocity": 0
      },
      {
        "channel": 0,
        "deltaTime": 0,
        "noteNumber": 69,
        "subtype": "noteOn",
        "type": "channel",
        "velocity": 100
      },
      {
        "channel": 0,
        "deltaTime": 120,
        "noteNumber": 69,
        "subtype": "noteOff",
        "type": "channel",
        "velocity": 0
      },
      {
        "channel": 0,
        "deltaTime": 0,
        "noteNumber": 71,
        "subtype": "noteOn",
        "type": "channel",
        "velocity": 100
      },
      {
        "channel": 0,
        "deltaTime": 240,
        "noteNumber": 71,
        "subtype": "noteOff",
        "type": "channel",
        "velocity": 0
      },
      {
        "channel": 0,
        "deltaTime": 0,
        "noteNumber": 74,
        "subtype": "noteOn",
        "type": "channel",
        "velocity": 100
      },
      {
        "channel": 0,
        "deltaTime": 240,
        "noteNumber": 74,
        "subtype": "noteOff",
        "type": "channel",
        "velocity": 0
      },
      {
        "channel": 0,
        "deltaTime": 0,
        "noteNumber": 76,
        "subtype": "noteOn",
        "type": "channel",
        "velocity": 100
      },
      {
        "channel": 0,
        "deltaTime": 120,
        "noteNumber": 76,
        "subtype": "noteOff",
        "type": "channel",
        "velocity": 0
      },
      {
        "channel": 0,
        "deltaTime": 0,
        "noteNumber": 74,
        "subtype": "noteOn",
        "type": "channel",
        "velocity": 100
      },
      {
        "channel": 0,
        "deltaTime": 120,
        "noteNumber": 74,
        "subtype": "noteOff",
        "type": "channel",
        "velocity": 0
      },
      {
        "channel": 0,
        "deltaTime": 0,
        "noteNumber": 72,
        "subtype": "noteOn",
        "type": "channel",
        "velocity": 100
      },
      {
        "channel": 0,
        "deltaTime": 120,
        "noteNumber": 72,
        "subtype": "noteOff",
        "type": "channel",
        "velocity": 0
      },
      {
        "channel": 0,
        "deltaTime": 0,
        "noteNumber": 71,
        "subtype": "noteOn",
        "type": "channel",
        "velocity": 100
      },
      {
        "channel": 0,
        "deltaTime": 120,
        "noteNumber": 71,
        "subtype": "noteOff",
        "type": "channel",
        "velocity": 0
      },
      {
        "channel": 0,
        "deltaTime": 0,
        "noteNumber": 72,
        "subtype": "noteOn",
        "type": "channel",
        "velocity": 100
      },
      {
        "channel": 0,
        "deltaTime": 120,
        "noteNumber": 72,
        "subtype": "noteOff",
        "type": "channel",
        "velocity": 0
      },
      {
        "channel": 0,
        "deltaTime": 0,
        "noteNumber": 71,
        "subtype": "noteOn",
        "type": "channel",
        "velocity": 100
      },
      {
        "channel": 0,
        "deltaTime": 120,
        "noteNumber": 71,
        "subtype": "noteOff",
        "type": "channel",
        "velocity": 0
      },
      {
        "channel": 0,
        "deltaTime": 0,
        "noteNumber": 69,
        "subtype": "noteOn",
        "type": "channel",
        "velocity": 100
      },
      {
        "channel": 0,
        "deltaTime": 120,
        "noteNumber": 69,
        "subtype": "noteOff",
        "type": "channel",
        "velocity": 0
      },
      {
        "channel": 0,
        "deltaTime": 0,
        "noteNumber": 76,
        "subtype": "noteOn",
        "type": "channel",
        "velocity": 100
      },
      {
        "channel": 0,
        "deltaTime": 120,
        "noteNumber": 76,
        "subtype": "noteOff",
        "type": "channel",
        "velocity": 0
      },
      {
        "channel": 0,
        "deltaTime": 0,
        "noteNumber": 72,
        "subtype": "noteOn",
        "type": "channel",
        "velocity": 100
      },
      {
        "channel": 0,
        "deltaTime": 120,
        "noteNumber": 72,
        "subtype": "noteOff",
        "type": "channel",
        "velocity": 0
      },
      {
        "channel": 0,
        "deltaTime": 0,
        "noteNumber": 71,
        "subtype": "noteOn",
        "type": "channel",
        "velocity": 100
      },
      {
        "channel": 0,
        "deltaTime": 120,
        "noteNumber": 71,
        "subtype": "noteOff",
        "type": "channel",
        "velocity": 0
      },
      {
        "channel": 0,
        "deltaTime": 0,
        "noteNumber": 69,
        "subtype": "noteOn",
        "type": "channel",
        "velocity": 100
      },
      {
        "channel": 0,
        "deltaTime": 120,
        "noteNumber": 69,
        "subtype": "noteOff",
        "type": "channel",
        "velocity": 0
      },
      {
        "channel": 0,
        "deltaTime": 0,
        "noteNumber": 76,
        "subtype": "noteOn",
        "type": "channel",
        "velocity": 100
      },
      {
        "channel": 0,
        "deltaTime": 120,
        "noteNumber": 76,
        "subtype": "noteOff",
        "type": "channel",
        "velocity": 0
      },
      {
        "channel": 0,
        "deltaTime": 0,
        "noteNumber": 81,
        "subtype": "noteOn",
        "type": "channel",
        "velocity": 100
      },
      {
        "channel": 0,
        "deltaTime": 120,
        "noteNumber": 81,
        "subtype": "noteOff",
        "type": "channel",
        "velocity": 0
      },
      {
        "channel": 0,
        "deltaTime": 0,
        "noteNumber": 80,
        "subtype": "noteOn",
        "type": "channel",
        "velocity": 100
      },
      {
        "channel": 0,
        "deltaTime": 120,
        "noteNumber": 80,
        "subtype": "noteOff",
        "type": "channel",
        "velocity": 0
      },
      {
        "channel": 0,
        "deltaTime": 0,
        "noteNumber": 81,
        "subtype": "noteOn",
        "type": "channel",
        "velocity": 100
      },
      {
        "channel": 0,
        "deltaTime": 120,
        "noteNumber": 81,
        "subtype": "noteOff",
        "type": "channel",
        "velocity": 0
      },
      {
        "channel": 0,
        "deltaTime": 0,
        "noteNumber": 72,
        "subtype": "noteOn",
        "type": "channel",
        "velocity": 100
      },
      {
        "channel": 0,
        "deltaTime": 120,
        "noteNumber": 72,
        "subtype": "noteOff",
        "type": "channel",
        "velocity": 0
      },
      {
        "channel": 0,
        "deltaTime": 0,
        "noteNumber": 63,
        "subtype": "noteOn",
        "type": "channel",
        "velocity": 100
      },
      {
        "channel": 0,
        "deltaTime": 120,
        "noteNumber": 63,
        "subtype": "noteOff",
        "type": "channel",
        "velocity": 0
      },
      {
        "channel": 0,
        "deltaTime": 0,
        "noteNumber": 72,
        "subtype": "noteOn",
        "type": "channel",
        "velocity": 100
      },
      {
        "channel": 0,
        "deltaTime": 120,
        "noteNumber": 72,
        "subtype": "noteOff",
        "type": "channel",
        "velocity": 0
      },
      {
        "channel": 0,
        "deltaTime": 0,
        "noteNumber": 81,
        "subtype": "noteOn",
        "type": "channel",
        "velocity": 100
      },
      {
        "channel": 0,
        "deltaTime": 120,
        "noteNumber": 81,
        "subtype": "noteOff",
        "type": "channel",
        "velocity": 0
      },
      {
        "channel": 0,
        "deltaTime": 0,
        "noteNumber": 81,
        "subtype": "noteOn",
        "type": "channel",
        "velocity": 100
      },
      {
        "channel": 0,
        "deltaTime": 120,
        "noteNumber": 81,
        "subtype": "noteOff",
        "type": "channel",
        "velocity": 0
      },
      {
        "channel": 0,
        "deltaTime": 0,
        "noteNumber": 63,
        "subtype": "noteOn",
        "type": "channel",
        "velocity": 100
      },
      {
        "channel": 0,
        "deltaTime": 120,
        "noteNumber": 63,
        "subtype": "noteOff",
        "type": "channel",
        "velocity": 0
      },
      {
        "channel": 0,
        "deltaTime": 0,
        "noteNumber": 72,
        "subtype": "noteOn",
        "type": "channel",
        "velocity": 100
      },
      {
        "channel": 0,
        "deltaTime": 120,
        "noteNumber": 72,
        "subtype": "noteOff",
        "type": "channel",
        "velocity": 0
      },
      {
        "channel": 0,
        "deltaTime": 0,
        "noteNumber": 81,
        "subtype": "noteOn",
        "type": "channel",
        "velocity": 100
      },
      {
        "channel": 0,
        "deltaTime": 120,
        "noteNumber": 81,
        "subtype": "noteOff",
        "type": "channel",
        "velocity": 0
      },
      {
        "channel": 0,
        "deltaTime": 0,
        "noteNumber": 81,
        "subtype": "noteOn",
        "type": "channel",
        "velocity": 100
      },
      {
        "channel": 0,
        "deltaTime": 120,
        "noteNumber": 81,
        "subtype": "noteOff",
        "type": "channel",
        "velocity": 0
      },
      {
        "channel": 0,
        "deltaTime": 0,
        "noteNumber": 71,
        "subtype": "noteOn",
        "type": "channel",
        "velocity": 100
      },
      {
        "channel": 0,
        "deltaTime": 120,
        "noteNumber": 71,
        "subtype": "noteOff",
        "type": "channel",
        "velocity": 0
      },
      {
        "channel": 0,
        "deltaTime": 0,
        "noteNumber": 81,
        "subtype": "noteOn",
        "type": "channel",
        "velocity": 100
      },
      {
        "channel": 0,
        "deltaTime": 120,
        "noteNumber": 81,
        "subtype": "noteOff",
        "type": "channel",
        "velocity": 0
      },
      {
        "channel": 0,
        "deltaTime": 0,
        "noteNumber": 79,
        "subtype": "noteOn",
        "type": "channel",
        "velocity": 100
      },
      {
        "channel": 0,
        "deltaTime": 120,
        "noteNumber": 79,
        "subtype": "noteOff",
        "type": "channel",
        "velocity": 0
      },
      {
        "channel": 0,
        "deltaTime": 0,
        "noteNumber": 78,
        "subtype": "noteOn",
        "type": "channel",
        "velocity": 100
      },
      {
        "channel": 0,
        "deltaTime": 120,
        "noteNumber": 78,
        "subtype": "noteOff",
        "type": "channel",
        "velocity": 0
      },
      {
        "channel": 0,
        "deltaTime": 0,
        "noteNumber": 79,
        "subtype": "noteOn",
        "type": "channel",
        "velocity": 100
      },
      {
        "channel": 0,
        "deltaTime": 120,
        "noteNumber": 79,
        "subtype": "noteOff",
        "type": "channel",
        "velocity": 0
      },
      {
        "channel": 0,
        "deltaTime": 0,
        "noteNumber": 78,
        "subtype": "noteOn",
        "type": "channel",
        "velocity": 100
      },
      {
        "channel": 0,
        "deltaTime": 120,
        "noteNumber": 78,
        "subtype": "noteOff",
        "type": "channel",
        "velocity": 0
      },
      {
        "channel": 0,
        "deltaTime": 0,
        "noteNumber": 76,
        "subtype": "noteOn",
        "type": "channel",
        "velocity": 100
      },
      {
        "channel": 0,
        "deltaTime": 120,
        "noteNumber": 76,
        "subtype": "noteOff",
        "type": "channel",
        "velocity": 0
      },
      {
        "channel": 0,
        "deltaTime": 0,
        "noteNumber": 83,
        "subtype": "noteOn",
        "type": "channel",
        "velocity": 100
      },
      {
        "channel": 0,
        "deltaTime": 120,
        "noteNumber": 83,
        "subtype": "noteOff",
        "type": "channel",
        "velocity": 0
      },
      {
        "channel": 0,
        "deltaTime": 0,
        "noteNumber": 79,
        "subtype": "noteOn",
        "type": "channel",
        "velocity": 100
      },
      {
        "channel": 0,
        "deltaTime": 120,
        "noteNumber": 79,
        "subtype": "noteOff",
        "type": "channel",
        "velocity": 0
      },
      {
        "channel": 0,
        "deltaTime": 0,
        "noteNumber": 78,
        "subtype": "noteOn",
        "type": "channel",
        "velocity": 100
      },
      {
        "channel": 0,
        "deltaTime": 120,
        "noteNumber": 78,
        "subtype": "noteOff",
        "type": "channel",
        "velocity": 0
      },
      {
        "channel": 0,
        "deltaTime": 0,
        "noteNumber": 76,
        "subtype": "noteOn",
        "type": "channel",
        "velocity": 100
      },
      {
        "channel": 0,
        "deltaTime": 120,
        "noteNumber": 76,
        "subtype": "noteOff",
        "type": "channel",
        "velocity": 0
      },
      {
        "channel": 0,
        "deltaTime": 0,
        "noteNumber": 83,
        "subtype": "noteOn",
        "type": "channel",
        "velocity": 100
      },
      {
        "channel": 0,
        "deltaTime": 120,
        "noteNumber": 83,
        "subtype": "noteOff",
        "type": "channel",
        "velocity": 0
      },
      {
        "channel": 0,
        "deltaTime": 0,
        "noteNumber": 84,
        "subtype": "noteOn",
        "type": "channel",
        "velocity": 100
      },
      {
        "channel": 0,
        "deltaTime": 120,
        "noteNumber": 84,
        "subtype": "noteOff",
        "type": "channel",
        "velocity": 0
      },
      {
        "channel": 0,
        "deltaTime": 0,
        "noteNumber": 83,
        "subtype": "noteOn",
        "type": "channel",
        "velocity": 100
      },
      {
        "channel": 0,
        "deltaTime": 120,
        "noteNumber": 83,
        "subtype": "noteOff",
        "type": "channel",
        "velocity": 0
      },
      {
        "channel": 0,
        "deltaTime": 0,
        "noteNumber": 84,
        "subtype": "noteOn",
        "type": "channel",
        "velocity": 100
      },
      {
        "channel": 0,
        "deltaTime": 120,
        "noteNumber": 84,
        "subtype": "noteOff",
        "type": "channel",
        "velocity": 0
      },
      {
        "channel": 0,
        "deltaTime": 0,
        "noteNumber": 76,
        "subtype": "noteOn",
        "type": "channel",
        "velocity": 100
      },
      {
        "channel": 0,
        "deltaTime": 120,
        "noteNumber": 76,
        "subtype": "noteOff",
        "type": "channel",
        "velocity": 0
      },
      {
        "channel": 0,
        "deltaTime": 0,
        "noteNumber": 66,
        "subtype": "noteOn",
        "type": "channel",
        "velocity": 100
      },
      {
        "channel": 0,
        "deltaTime": 120,
        "noteNumber": 66,
        "subtype": "noteOff",
        "type": "channel",
        "velocity": 0
      },
      {
        "channel": 0,
        "deltaTime": 0,
        "noteNumber": 74,
        "subtype": "noteOn",
        "type": "channel",
        "velocity": 100
      },
      {
        "channel": 0,
        "deltaTime": 120,
        "noteNumber": 74,
        "subtype": "noteOff",
        "type": "channel",
        "velocity": 0
      },
      {
        "channel": 0,
        "deltaTime": 0,
        "noteNumber": 84,
        "subtype": "noteOn",
        "type": "channel",
        "velocity": 100
      },
      {
        "channel": 0,
        "deltaTime": 120,
        "noteNumber": 84,
        "subtype": "noteOff",
        "type": "channel",
        "velocity": 0
      },
      {
        "channel": 0,
        "deltaTime": 0,
        "noteNumber": 84,
        "subtype": "noteOn",
        "type": "channel",
        "velocity": 100
      },
      {
        "channel": 0,
        "deltaTime": 120,
        "noteNumber": 84,
        "subtype": "noteOff",
        "type": "channel",
        "velocity": 0
      },
      {
        "channel": 0,
        "deltaTime": 0,
        "noteNumber": 68,
        "subtype": "noteOn",
        "type": "channel",
        "velocity": 100
      },
      {
        "channel": 0,
        "deltaTime": 120,
        "noteNumber": 68,
        "subtype": "noteOff",
        "type": "channel",
        "velocity": 0
      },
      {
        "channel": 0,
        "deltaTime": 0,
        "noteNumber": 74,
        "subtype": "noteOn",
        "type": "channel",
        "velocity": 100
      },
      {
        "channel": 0,
        "deltaTime": 120,
        "noteNumber": 74,
        "subtype": "noteOff",
        "type": "channel",
        "velocity": 0
      },
      {
        "channel": 0,
        "deltaTime": 0,
        "noteNumber": 83,
        "subtype": "noteOn",
        "type": "channel",
        "velocity": 100
      },
      {
        "channel": 0,
        "deltaTime": 120,
        "noteNumber": 83,
        "subtype": "noteOff",
        "type": "channel",
        "velocity": 0
      },
      {
        "channel": 0,
        "deltaTime": 0,
        "noteNumber": 74,
        "subtype": "noteOn",
        "type": "channel",
        "velocity": 100
      },
      {
        "channel": 0,
        "deltaTime": 120,
        "noteNumber": 74,
        "subtype": "noteOff",
        "type": "channel",
        "velocity": 0
      },
      {
        "channel": 0,
        "deltaTime": 0,
        "noteNumber": 68,
        "subtype": "noteOn",
        "type": "channel",
        "velocity": 100
      },
      {
        "channel": 0,
        "deltaTime": 120,
        "noteNumber": 68,
        "subtype": "noteOff",
        "type": "channel",
        "velocity": 0
      },
      {
        "channel": 0,
        "deltaTime": 0,
        "noteNumber": 74,
        "subtype": "noteOn",
        "type": "channel",
        "velocity": 100
      },
      {
        "channel": 0,
        "deltaTime": 120,
        "noteNumber": 74,
        "subtype": "noteOff",
        "type": "channel",
        "velocity": 0
      },
      {
        "channel": 0,
        "deltaTime": 0,
        "noteNumber": 72,
        "subtype": "noteOn",
        "type": "channel",
        "velocity": 100
      },
      {
        "channel": 0,
        "deltaTime": 120,
        "noteNumber": 72,
        "subtype": "noteOff",
        "type": "channel",
        "velocity": 0
      },
      {
        "channel": 0,
        "deltaTime": 0,
        "noteNumber": 71,
        "subtype": "noteOn",
        "type": "channel",
        "velocity": 100
      },
      {
        "channel": 0,
        "deltaTime": 120,
        "noteNumber": 71,
        "subtype": "noteOff",
        "type": "channel",
        "velocity": 0
      },
      {
        "channel": 0,
        "deltaTime": 0,
        "noteNumber": 69,
        "subtype": "noteOn",
        "type": "channel",
        "velocity": 100
      },
      {
        "channel": 0,
        "deltaTime": 120,
        "noteNumber": 69,
        "subtype": "noteOff",
        "type": "channel",
        "velocity": 0
      },
      {
        "channel": 0,
        "deltaTime": 0,
        "noteNumber": 71,
        "subtype": "noteOn",
        "type": "channel",
        "velocity": 100
      },
      {
        "channel": 0,
        "deltaTime": 120,
        "noteNumber": 71,
        "subtype": "noteOff",
        "type": "channel",
        "velocity": 0
      },
      {
        "channel": 0,
        "deltaTime": 0,
        "noteNumber": 72,
        "subtype": "noteOn",
        "type": "channel",
        "velocity": 100
      },
      {
        "channel": 0,
        "deltaTime": 120,
        "noteNumber": 72,
        "subtype": "noteOff",
        "type": "channel",
        "velocity": 0
      },
      {
        "channel": 0,
        "deltaTime": 0,
        "noteNumber": 76,
        "subtype": "noteOn",
        "type": "channel",
        "velocity": 100
      },
      {
        "channel": 0,
        "deltaTime": 120,
        "noteNumber": 76,
        "subtype": "noteOff",
        "type": "channel",
        "velocity": 0
      },
      {
        "channel": 0,
        "deltaTime": 0,
        "noteNumber": 69,
        "subtype": "noteOn",
        "type": "channel",
        "velocity": 100
      },
      {
        "channel": 0,
        "deltaTime": 120,
        "noteNumber": 69,
        "subtype": "noteOff",
        "type": "channel",
        "velocity": 0
      },
      {
        "channel": 0,
        "deltaTime": 0,
        "noteNumber": 71,
        "subtype": "noteOn",
        "type": "channel",
        "velocity": 100
      },
      {
        "channel": 0,
        "deltaTime": 120,
        "noteNumber": 71,
        "subtype": "noteOff",
        "type": "channel",
        "velocity": 0
      },
      {
        "channel": 0,
        "deltaTime": 0,
        "noteNumber": 72,
        "subtype": "noteOn",
        "type": "channel",
        "velocity": 100
      },
      {
        "channel": 0,
        "deltaTime": 120,
        "noteNumber": 72,
        "subtype": "noteOff",
        "type": "channel",
        "velocity": 0
      },
      {
        "channel": 0,
        "deltaTime": 0,
        "noteNumber": 76,
        "subtype": "noteOn",
        "type": "channel",
        "velocity": 100
      },
      {
        "channel": 0,
        "deltaTime": 120,
        "noteNumber": 76,
        "subtype": "noteOff",
        "type": "channel",
        "velocity": 0
      },
      {
        "channel": 0,
        "deltaTime": 0,
        "noteNumber": 81,
        "subtype": "noteOn",
        "type": "channel",
        "velocity": 100
      },
      {
        "channel": 0,
        "deltaTime": 120,
        "noteNumber": 81,
        "subtype": "noteOff",
        "type": "channel",
        "velocity": 0
      },
      {
        "channel": 0,
        "deltaTime": 0,
        "noteNumber": 83,
        "subtype": "noteOn",
        "type": "channel",
        "velocity": 100
      },
      {
        "channel": 0,
        "deltaTime": 120,
        "noteNumber": 83,
        "subtype": "noteOff",
        "type": "channel",
        "velocity": 0
      },
      {
        "channel": 0,
        "deltaTime": 0,
        "noteNumber": 84,
        "subtype": "noteOn",
        "type": "channel",
        "velocity": 100
      },
      {
        "channel": 0,
        "deltaTime": 120,
        "noteNumber": 84,
        "subtype": "noteOff",
        "type": "channel",
        "velocity": 0
      },
      {
        "channel": 0,
        "deltaTime": 0,
        "noteNumber": 81,
        "subtype": "noteOn",
        "type": "channel",
        "velocity": 100
      },
      {
        "channel": 0,
        "deltaTime": 120,
        "noteNumber": 81,
        "subtype": "noteOff",
        "type": "channel",
        "velocity": 0
      },
      {
        "channel": 0,
        "deltaTime": 0,
        "noteNumber": 87,
        "subtype": "noteOn",
        "type": "channel",
        "velocity": 100
      },
      {
        "channel": 0,
        "deltaTime": 720,
        "noteNumber": 87,
        "subtype": "noteOff",
        "type": "channel",
        "velocity": 0
      },
      {
        "channel": 0,
        "deltaTime": 0,
        "noteNumber": 69,
        "subtype": "noteOn",
        "type": "channel",
        "velocity": 100
      },
      {
        "channel": 0,
        "deltaTime": 120,
        "noteNumber": 69,
        "subtype": "noteOff",
        "type": "channel",
        "velocity": 0
      },
      {
        "channel": 0,
        "deltaTime": 0,
        "noteNumber": 72,
        "subtype": "noteOn",
        "type": "channel",
        "velocity": 100
      },
      {
        "channel": 0,
        "deltaTime": 120,
        "noteNumber": 72,
        "subtype": "noteOff",
        "type": "channel",
        "velocity": 0
      },
      {
        "channel": 0,
        "deltaTime": 0,
        "noteNumber": 71,
        "subtype": "noteOn",
        "type": "channel",
        "velocity": 100
      },
      {
        "channel": 0,
        "deltaTime": 120,
        "noteNumber": 71,
        "subtype": "noteOff",
        "type": "channel",
        "velocity": 0
      },
      {
        "channel": 0,
        "deltaTime": 0,
        "noteNumber": 69,
        "subtype": "noteOn",
        "type": "channel",
        "velocity": 100
      },
      {
        "channel": 0,
        "deltaTime": 120,
        "noteNumber": 69,
        "subtype": "noteOff",
        "type": "channel",
        "velocity": 0
      },
      {
        "channel": 0,
        "deltaTime": 0,
        "noteNumber": 67,
        "subtype": "noteOn",
        "type": "channel",
        "velocity": 100
      },
      {
        "channel": 0,
        "deltaTime": 120,
        "noteNumber": 67,
        "subtype": "noteOff",
        "type": "channel",
        "velocity": 0
      },
      {
        "channel": 0,
        "deltaTime": 0,
        "noteNumber": 66,
        "subtype": "noteOn",
        "type": "channel",
        "velocity": 100
      },
      {
        "channel": 0,
        "deltaTime": 120,
        "noteNumber": 66,
        "subtype": "noteOff",
        "type": "channel",
        "velocity": 0
      },
      {
        "channel": 0,
        "deltaTime": 0,
        "noteNumber": 67,
        "subtype": "noteOn",
        "type": "channel",
        "velocity": 100
      },
      {
        "channel": 0,
        "deltaTime": 120,
        "noteNumber": 67,
        "subtype": "noteOff",
        "type": "channel",
        "velocity": 0
      },
      {
        "channel": 0,
        "deltaTime": 0,
        "noteNumber": 71,
        "subtype": "noteOn",
        "type": "channel",
        "velocity": 100
      },
      {
        "channel": 0,
        "deltaTime": 120,
        "noteNumber": 71,
        "subtype": "noteOff",
        "type": "channel",
        "velocity": 0
      },
      {
        "channel": 0,
        "deltaTime": 0,
        "noteNumber": 76,
        "subtype": "noteOn",
        "type": "channel",
        "velocity": 100
      },
      {
        "channel": 0,
        "deltaTime": 120,
        "noteNumber": 76,
        "subtype": "noteOff",
        "type": "channel",
        "velocity": 0
      },
      {
        "channel": 0,
        "deltaTime": 0,
        "noteNumber": 83,
        "subtype": "noteOn",
        "type": "channel",
        "velocity": 100
      },
      {
        "channel": 0,
        "deltaTime": 120,
        "noteNumber": 83,
        "subtype": "noteOff",
        "type": "channel",
        "velocity": 0
      },
      {
        "channel": 0,
        "deltaTime": 0,
        "noteNumber": 81,
        "subtype": "noteOn",
        "type": "channel",
        "velocity": 100
      },
      {
        "channel": 0,
        "deltaTime": 120,
        "noteNumber": 81,
        "subtype": "noteOff",
        "type": "channel",
        "velocity": 0
      },
      {
        "channel": 0,
        "deltaTime": 0,
        "noteNumber": 79,
        "subtype": "noteOn",
        "type": "channel",
        "velocity": 100
      },
      {
        "channel": 0,
        "deltaTime": 120,
        "noteNumber": 79,
        "subtype": "noteOff",
        "type": "channel",
        "velocity": 0
      },
      {
        "channel": 0,
        "deltaTime": 0,
        "noteNumber": 78,
        "subtype": "noteOn",
        "type": "channel",
        "velocity": 100
      },
      {
        "channel": 0,
        "deltaTime": 120,
        "noteNumber": 78,
        "subtype": "noteOff",
        "type": "channel",
        "velocity": 0
      },
      {
        "channel": 0,
        "deltaTime": 0,
        "noteNumber": 76,
        "subtype": "noteOn",
        "type": "channel",
        "velocity": 100
      },
      {
        "channel": 0,
        "deltaTime": 120,
        "noteNumber": 76,
        "subtype": "noteOff",
        "type": "channel",
        "velocity": 0
      },
      {
        "channel": 0,
        "deltaTime": 0,
        "noteNumber": 79,
        "subtype": "noteOn",
        "type": "channel",
        "velocity": 100
      },
      {
        "channel": 0,
        "deltaTime": 120,
        "noteNumber": 79,
        "subtype": "noteOff",
        "type": "channel",
        "velocity": 0
      },
      {
        "channel": 0,
        "deltaTime": 0,
        "noteNumber": 78,
        "subtype": "noteOn",
        "type": "channel",
        "velocity": 100
      },
      {
        "channel": 0,
        "deltaTime": 120,
        "noteNumber": 78,
        "subtype": "noteOff",
        "type": "channel",
        "velocity": 0
      },
      {
        "channel": 0,
        "deltaTime": 0,
        "noteNumber": 76,
        "subtype": "noteOn",
        "type": "channel",
        "velocity": 100
      },
      {
        "channel": 0,
        "deltaTime": 120,
        "noteNumber": 76,
        "subtype": "noteOff",
        "type": "channel",
        "velocity": 0
      },
      {
        "channel": 0,
        "deltaTime": 0,
        "noteNumber": 75,
        "subtype": "noteOn",
        "type": "channel",
        "velocity": 100
      },
      {
        "channel": 0,
        "deltaTime": 120,
        "noteNumber": 75,
        "subtype": "noteOff",
        "type": "channel",
        "velocity": 0
      },
      {
        "channel": 0,
        "deltaTime": 0,
        "noteNumber": 76,
        "subtype": "noteOn",
        "type": "channel",
        "velocity": 100
      },
      {
        "channel": 0,
        "deltaTime": 240,
        "noteNumber": 76,
        "subtype": "noteOff",
        "type": "channel",
        "velocity": 0
      },
      {
        "channel": 0,
        "deltaTime": 0,
        "noteNumber": 70,
        "subtype": "noteOn",
        "type": "channel",
        "velocity": 100
      },
      {
        "channel": 0,
        "deltaTime": 120,
        "noteNumber": 70,
        "subtype": "noteOff",
        "type": "channel",
        "velocity": 0
      },
      {
        "channel": 0,
        "deltaTime": 0,
        "noteNumber": 71,
        "subtype": "noteOn",
        "type": "channel",
        "velocity": 100
      },
      {
        "channel": 0,
        "deltaTime": 120,
        "noteNumber": 71,
        "subtype": "noteOff",
        "type": "channel",
        "velocity": 0
      },
      {
        "channel": 0,
        "deltaTime": 0,
        "noteNumber": 73,
        "subtype": "noteOn",
        "type": "channel",
        "velocity": 100
      },
      {
        "channel": 0,
        "deltaTime": 240,
        "noteNumber": 73,
        "subtype": "noteOff",
        "type": "channel",
        "velocity": 0
      },
      {
        "channel": 0,
        "deltaTime": 0,
        "noteNumber": 76,
        "subtype": "noteOn",
        "type": "channel",
        "velocity": 100
      },
      {
        "channel": 0,
        "deltaTime": 240,
        "noteNumber": 76,
        "subtype": "noteOff",
        "type": "channel",
        "velocity": 0
      },
      {
        "channel": 0,
        "deltaTime": 0,
        "noteNumber": 78,
        "subtype": "noteOn",
        "type": "channel",
        "velocity": 100
      },
      {
        "channel": 0,
        "deltaTime": 120,
        "noteNumber": 78,
        "subtype": "noteOff",
        "type": "channel",
        "velocity": 0
      },
      {
        "channel": 0,
        "deltaTime": 0,
        "noteNumber": 76,
        "subtype": "noteOn",
        "type": "channel",
        "velocity": 100
      },
      {
        "channel": 0,
        "deltaTime": 120,
        "noteNumber": 76,
        "subtype": "noteOff",
        "type": "channel",
        "velocity": 0
      },
      {
        "channel": 0,
        "deltaTime": 0,
        "noteNumber": 74,
        "subtype": "noteOn",
        "type": "channel",
        "velocity": 100
      },
      {
        "channel": 0,
        "deltaTime": 120,
        "noteNumber": 74,
        "subtype": "noteOff",
        "type": "channel",
        "velocity": 0
      },
      {
        "channel": 0,
        "deltaTime": 0,
        "noteNumber": 73,
        "subtype": "noteOn",
        "type": "channel",
        "velocity": 100
      },
      {
        "channel": 0,
        "deltaTime": 120,
        "noteNumber": 73,
        "subtype": "noteOff",
        "type": "channel",
        "velocity": 0
      },
      {
        "channel": 0,
        "deltaTime": 0,
        "noteNumber": 75,
        "subtype": "noteOn",
        "type": "channel",
        "velocity": 100
      },
      {
        "channel": 0,
        "deltaTime": 240,
        "noteNumber": 75,
        "subtype": "noteOff",
        "type": "channel",
        "velocity": 0
      },
      {
        "channel": 0,
        "deltaTime": 0,
        "noteNumber": 78,
        "subtype": "noteOn",
        "type": "channel",
        "velocity": 100
      },
      {
        "channel": 0,
        "deltaTime": 120,
        "noteNumber": 78,
        "subtype": "noteOff",
        "type": "channel",
        "velocity": 0
      },
      {
        "channel": 0,
        "deltaTime": 0,
        "noteNumber": 79,
        "subtype": "noteOn",
        "type": "channel",
        "velocity": 100
      },
      {
        "channel": 0,
        "deltaTime": 120,
        "noteNumber": 79,
        "subtype": "noteOff",
        "type": "channel",
        "velocity": 0
      },
      {
        "channel": 0,
        "deltaTime": 0,
        "noteNumber": 81,
        "subtype": "noteOn",
        "type": "channel",
        "velocity": 100
      },
      {
        "channel": 0,
        "deltaTime": 240,
        "noteNumber": 81,
        "subtype": "noteOff",
        "type": "channel",
        "velocity": 0
      },
      {
        "channel": 0,
        "deltaTime": 0,
        "noteNumber": 78,
        "subtype": "noteOn",
        "type": "channel",
        "velocity": 100
      },
      {
        "channel": 0,
        "deltaTime": 240,
        "noteNumber": 78,
        "subtype": "noteOff",
        "type": "channel",
        "velocity": 0
      },
      {
        "channel": 0,
        "deltaTime": 0,
        "noteNumber": 76,
        "subtype": "noteOn",
        "type": "channel",
        "velocity": 100
      },
      {
        "channel": 0,
        "deltaTime": 120,
        "noteNumber": 76,
        "subtype": "noteOff",
        "type": "channel",
        "velocity": 0
      },
      {
        "channel": 0,
        "deltaTime": 0,
        "noteNumber": 75,
        "subtype": "noteOn",
        "type": "channel",
        "velocity": 100
      },
      {
        "channel": 0,
        "deltaTime": 120,
        "noteNumber": 75,
        "subtype": "noteOff",
        "type": "channel",
        "velocity": 0
      },
      {
        "channel": 0,
        "deltaTime": 0,
        "noteNumber": 73,
        "subtype": "noteOn",
        "type": "channel",
        "velocity": 100
      },
      {
        "channel": 0,
        "deltaTime": 120,
        "noteNumber": 73,
        "subtype": "noteOff",
        "type": "channel",
        "velocity": 0
      },
      {
        "channel": 0,
        "deltaTime": 0,
        "noteNumber": 71,
        "subtype": "noteOn",
        "type": "channel",
        "velocity": 100
      },
      {
        "channel": 0,
        "deltaTime": 120,
        "noteNumber": 71,
        "subtype": "noteOff",
        "type": "channel",
        "velocity": 0
      },
      {
        "channel": 0,
        "deltaTime": 0,
        "noteNumber": 69,
        "subtype": "noteOn",
        "type": "channel",
        "velocity": 100
      },
      {
        "channel": 0,
        "deltaTime": 120,
        "noteNumber": 69,
        "subtype": "noteOff",
        "type": "channel",
        "velocity": 0
      },
      {
        "channel": 0,
        "deltaTime": 0,
        "noteNumber": 66,
        "subtype": "noteOn",
        "type": "channel",
        "velocity": 100
      },
      {
        "channel": 0,
        "deltaTime": 120,
        "noteNumber": 66,
        "subtype": "noteOff",
        "type": "channel",
        "velocity": 0
      },
      {
        "channel": 0,
        "deltaTime": 0,
        "noteNumber": 67,
        "subtype": "noteOn",
        "type": "channel",
        "velocity": 100
      },
      {
        "channel": 0,
        "deltaTime": 120,
        "noteNumber": 67,
        "subtype": "noteOff",
        "type": "channel",
        "velocity": 0
      },
      {
        "channel": 0,
        "deltaTime": 0,
        "noteNumber": 71,
        "subtype": "noteOn",
        "type": "channel",
        "velocity": 100
      },
      {
        "channel": 0,
        "deltaTime": 120,
        "noteNumber": 71,
        "subtype": "noteOff",
        "type": "channel",
        "velocity": 0
      },
      {
        "channel": 0,
        "deltaTime": 0,
        "noteNumber": 76,
        "subtype": "noteOn",
        "type": "channel",
        "velocity": 100
      },
      {
        "channel": 0,
        "deltaTime": 120,
        "noteNumber": 76,
        "subtype": "noteOff",
        "type": "channel",
        "velocity": 0
      },
      {
        "channel": 0,
        "deltaTime": 0,
        "noteNumber": 79,
        "subtype": "noteOn",
        "type": "channel",
        "velocity": 100
      },
      {
        "channel": 0,
        "deltaTime": 120,
        "noteNumber": 79,
        "subtype": "noteOff",
        "type": "channel",
        "velocity": 0
      },
      {
        "channel": 0,
        "deltaTime": 0,
        "noteNumber": 83,
        "subtype": "noteOn",
        "type": "channel",
        "velocity": 100
      },
      {
        "channel": 0,
        "deltaTime": 120,
        "noteNumber": 83,
        "subtype": "noteOff",
        "type": "channel",
        "velocity": 0
      },
      {
        "channel": 0,
        "deltaTime": 0,
        "noteNumber": 76,
        "subtype": "noteOn",
        "type": "channel",
        "velocity": 100
      },
      {
        "channel": 0,
        "deltaTime": 120,
        "noteNumber": 76,
        "subtype": "noteOff",
        "type": "channel",
        "velocity": 0
      },
      {
        "channel": 0,
        "deltaTime": 0,
        "noteNumber": 71,
        "subtype": "noteOn",
        "type": "channel",
        "velocity": 100
      },
      {
        "channel": 0,
        "deltaTime": 240,
        "noteNumber": 71,
        "subtype": "noteOff",
        "type": "channel",
        "velocity": 0
      },
      {
        "channel": 0,
        "deltaTime": 0,
        "noteNumber": 75,
        "subtype": "noteOn",
        "type": "channel",
        "velocity": 100
      },
      {
        "channel": 0,
        "deltaTime": 240,
        "noteNumber": 75,
        "subtype": "noteOff",
        "type": "channel",
        "velocity": 0
      },
      {
        "channel": 0,
        "deltaTime": 0,
        "noteNumber": 76,
        "subtype": "noteOn",
        "type": "channel",
        "velocity": 100
      },
      {
        "channel": 0,
        "deltaTime": 120,
        "noteNumber": 76,
        "subtype": "noteOff",
        "type": "channel",
        "velocity": 0
      },
      {
        "channel": 0,
        "deltaTime": 0,
        "noteNumber": 71,
        "subtype": "noteOn",
        "type": "channel",
        "velocity": 100
      },
      {
        "channel": 0,
        "deltaTime": 120,
        "noteNumber": 71,
        "subtype": "noteOff",
        "type": "channel",
        "velocity": 0
      },
      {
        "channel": 0,
        "deltaTime": 0,
        "noteNumber": 72,
        "subtype": "noteOn",
        "type": "channel",
        "velocity": 100
      },
      {
        "channel": 0,
        "deltaTime": 120,
        "noteNumber": 72,
        "subtype": "noteOff",
        "type": "channel",
        "velocity": 0
      },
      {
        "channel": 0,
        "deltaTime": 0,
        "noteNumber": 69,
        "subtype": "noteOn",
        "type": "channel",
        "velocity": 100
      },
      {
        "channel": 0,
        "deltaTime": 120,
        "noteNumber": 69,
        "subtype": "noteOff",
        "type": "channel",
        "velocity": 0
      },
      {
        "channel": 0,
        "deltaTime": 0,
        "noteNumber": 67,
        "subtype": "noteOn",
        "type": "channel",
        "velocity": 100
      },
      {
        "channel": 0,
        "deltaTime": 120,
        "noteNumber": 67,
        "subtype": "noteOff",
        "type": "channel",
        "velocity": 0
      },
      {
        "channel": 0,
        "deltaTime": 0,
        "noteNumber": 76,
        "subtype": "noteOn",
        "type": "channel",
        "velocity": 100
      },
      {
        "channel": 0,
        "deltaTime": 120,
        "noteNumber": 76,
        "subtype": "noteOff",
        "type": "channel",
        "velocity": 0
      },
      {
        "channel": 0,
        "deltaTime": 0,
        "noteNumber": 66,
        "subtype": "noteOn",
        "type": "channel",
        "velocity": 100
      },
      {
        "channel": 0,
        "deltaTime": 120,
        "noteNumber": 66,
        "subtype": "noteOff",
        "type": "channel",
        "velocity": 0
      },
      {
        "channel": 0,
        "deltaTime": 0,
        "noteNumber": 75,
        "subtype": "noteOn",
        "type": "channel",
        "velocity": 100
      },
      {
        "channel": 0,
        "deltaTime": 120,
        "noteNumber": 75,
        "subtype": "noteOff",
        "type": "channel",
        "velocity": 0
      },
      {
        "channel": 0,
        "deltaTime": 0,
        "noteNumber": 64,
        "subtype": "noteOn",
        "type": "channel",
        "velocity": 100
      },
      {
        "channel": 0,
        "deltaTime": 240,
        "noteNumber": 64,
        "subtype": "noteOff",
        "type": "channel",
        "velocity": 0
      },
      {
        "channel": 0,
        "deltaTime": 0,
        "noteNumber": 71,
        "subtype": "noteOn",
        "type": "channel",
        "velocity": 100
      },
      {
        "channel": 0,
        "deltaTime": 240,
        "noteNumber": 71,
        "subtype": "noteOff",
        "type": "channel",
        "velocity": 0
      },
      {
        "channel": 0,
        "deltaTime": 0,
        "noteNumber": 64,
        "subtype": "noteOn",
        "type": "channel",
        "velocity": 100
      },
      {
        "channel": 0,
        "deltaTime": 120,
        "noteNumber": 64,
        "subtype": "noteOff",
        "type": "channel",
        "velocity": 0
      },
      {
        "channel": 0,
        "deltaTime": 0,
        "noteNumber": 66,
        "subtype": "noteOn",
        "type": "channel",
        "velocity": 100
      },
      {
        "channel": 0,
        "deltaTime": 120,
        "noteNumber": 66,
        "subtype": "noteOff",
        "type": "channel",
        "velocity": 0
      },
      {
        "channel": 0,
        "deltaTime": 0,
        "noteNumber": 68,
        "subtype": "noteOn",
        "type": "channel",
        "velocity": 100
      },
      {
        "channel": 0,
        "deltaTime": 120,
        "noteNumber": 68,
        "subtype": "noteOff",
        "type": "channel",
        "velocity": 0
      },
      {
        "channel": 0,
        "deltaTime": 0,
        "noteNumber": 69,
        "subtype": "noteOn",
        "type": "channel",
        "velocity": 100
      },
      {
        "channel": 0,
        "deltaTime": 120,
        "noteNumber": 69,
        "subtype": "noteOff",
        "type": "channel",
        "velocity": 0
      },
      {
        "channel": 0,
        "deltaTime": 0,
        "noteNumber": 71,
        "subtype": "noteOn",
        "type": "channel",
        "velocity": 100
      },
      {
        "channel": 0,
        "deltaTime": 120,
        "noteNumber": 71,
        "subtype": "noteOff",
        "type": "channel",
        "velocity": 0
      },
      {
        "channel": 0,
        "deltaTime": 0,
        "noteNumber": 72,
        "subtype": "noteOn",
        "type": "channel",
        "velocity": 100
      },
      {
        "channel": 0,
        "deltaTime": 120,
        "noteNumber": 72,
        "subtype": "noteOff",
        "type": "channel",
        "velocity": 0
      },
      {
        "channel": 0,
        "deltaTime": 0,
        "noteNumber": 74,
        "subtype": "noteOn",
        "type": "channel",
        "velocity": 100
      },
      {
        "channel": 0,
        "deltaTime": 120,
        "noteNumber": 74,
        "subtype": "noteOff",
        "type": "channel",
        "velocity": 0
      },
      {
        "channel": 0,
        "deltaTime": 0,
        "noteNumber": 76,
        "subtype": "noteOn",
        "type": "channel",
        "velocity": 100
      },
      {
        "channel": 0,
        "deltaTime": 120,
        "noteNumber": 76,
        "subtype": "noteOff",
        "type": "channel",
        "velocity": 0
      },
      {
        "channel": 0,
        "deltaTime": 0,
        "noteNumber": 77,
        "subtype": "noteOn",
        "type": "channel",
        "velocity": 100
      },
      {
        "channel": 0,
        "deltaTime": 240,
        "noteNumber": 77,
        "subtype": "noteOff",
        "type": "channel",
        "velocity": 0
      },
      {
        "channel": 0,
        "deltaTime": 0,
        "noteNumber": 76,
        "subtype": "noteOn",
        "type": "channel",
        "velocity": 100
      },
      {
        "channel": 0,
        "deltaTime": 120,
        "noteNumber": 76,
        "subtype": "noteOff",
        "type": "channel",
        "velocity": 0
      },
      {
        "channel": 0,
        "deltaTime": 0,
        "noteNumber": 74,
        "subtype": "noteOn",
        "type": "channel",
        "velocity": 100
      },
      {
        "channel": 0,
        "deltaTime": 120,
        "noteNumber": 74,
        "subtype": "noteOff",
        "type": "channel",
        "velocity": 0
      },
      {
        "channel": 0,
        "deltaTime": 0,
        "noteNumber": 72,
        "subtype": "noteOn",
        "type": "channel",
        "velocity": 100
      },
      {
        "channel": 0,
        "deltaTime": 240,
        "noteNumber": 72,
        "subtype": "noteOff",
        "type": "channel",
        "velocity": 0
      },
      {
        "channel": 0,
        "deltaTime": 0,
        "noteNumber": 69,
        "subtype": "noteOn",
        "type": "channel",
        "velocity": 100
      },
      {
        "channel": 0,
        "deltaTime": 240,
        "noteNumber": 69,
        "subtype": "noteOff",
        "type": "channel",
        "velocity": 0
      },
      {
        "channel": 0,
        "deltaTime": 0,
        "noteNumber": 84,
        "subtype": "noteOn",
        "type": "channel",
        "velocity": 100
      },
      {
        "channel": 0,
        "deltaTime": 480,
        "noteNumber": 84,
        "subtype": "noteOff",
        "type": "channel",
        "velocity": 0
      },
      {
        "channel": 0,
        "deltaTime": 0,
        "noteNumber": 67,
        "subtype": "noteOn",
        "type": "channel",
        "velocity": 100
      },
      {
        "channel": 0,
        "deltaTime": 480,
        "noteNumber": 67,
        "subtype": "noteOff",
        "type": "channel",
        "velocity": 0
      },
      {
        "channel": 0,
        "deltaTime": 0,
        "noteNumber": 66,
        "subtype": "noteOn",
        "type": "channel",
        "velocity": 100
      },
      {
        "channel": 0,
        "deltaTime": 240,
        "noteNumber": 66,
        "subtype": "noteOff",
        "type": "channel",
        "velocity": 0
      },
      {
        "channel": 0,
        "deltaTime": 0,
        "noteNumber": 84,
        "subtype": "noteOn",
        "type": "channel",
        "velocity": 100
      },
      {
        "channel": 0,
        "deltaTime": 120,
        "noteNumber": 84,
        "subtype": "noteOff",
        "type": "channel",
        "velocity": 0
      },
      {
        "channel": 0,
        "deltaTime": 0,
        "noteNumber": 83,
        "subtype": "noteOn",
        "type": "channel",
        "velocity": 100
      },
      {
        "channel": 0,
        "deltaTime": 120,
        "noteNumber": 83,
        "subtype": "noteOff",
        "type": "channel",
        "velocity": 0
      },
      {
        "channel": 0,
        "deltaTime": 0,
        "noteNumber": 84,
        "subtype": "noteOn",
        "type": "channel",
        "velocity": 100
      },
      {
        "channel": 0,
        "deltaTime": 240,
        "noteNumber": 84,
        "subtype": "noteOff",
        "type": "channel",
        "velocity": 0
      },
      {
        "channel": 0,
        "deltaTime": 0,
        "noteNumber": 64,
        "subtype": "noteOn",
        "type": "channel",
        "velocity": 100
      },
      {
        "channel": 0,
        "deltaTime": 240,
        "noteNumber": 64,
        "subtype": "noteOff",
        "type": "channel",
        "velocity": 0
      },
      {
        "channel": 0,
        "deltaTime": 0,
        "noteNumber": 62,
        "subtype": "noteOn",
        "type": "channel",
        "velocity": 100
      },
      {
        "channel": 0,
        "deltaTime": 240,
        "noteNumber": 62,
        "subtype": "noteOff",
        "type": "channel",
        "velocity": 0
      },
      {
        "channel": 0,
        "deltaTime": 0,
        "noteNumber": 84,
        "subtype": "noteOn",
        "type": "channel",
        "velocity": 100
      },
      {
        "channel": 0,
        "deltaTime": 240,
        "noteNumber": 84,
        "subtype": "noteOff",
        "type": "channel",
        "velocity": 0
      },
      {
        "channel": 0,
        "deltaTime": 0,
        "noteNumber": 83,
        "subtype": "noteOn",
        "type": "channel",
        "velocity": 100
      },
      {
        "channel": 0,
        "deltaTime": 120,
        "noteNumber": 83,
        "subtype": "noteOff",
        "type": "channel",
        "velocity": 0
      },
      {
        "channel": 0,
        "deltaTime": 0,
        "noteNumber": 84,
        "subtype": "noteOn",
        "type": "channel",
        "velocity": 100
      },
      {
        "channel": 0,
        "deltaTime": 120,
        "noteNumber": 84,
        "subtype": "noteOff",
        "type": "channel",
        "velocity": 0
      },
      {
        "channel": 0,
        "deltaTime": 0,
        "noteNumber": 86,
        "subtype": "noteOn",
        "type": "channel",
        "velocity": 100
      },
      {
        "channel": 0,
        "deltaTime": 120,
        "noteNumber": 86,
        "subtype": "noteOff",
        "type": "channel",
        "velocity": 0
      },
      {
        "channel": 0,
        "deltaTime": 0,
        "noteNumber": 83,
        "subtype": "noteOn",
        "type": "channel",
        "velocity": 100
      },
      {
        "channel": 0,
        "deltaTime": 120,
        "noteNumber": 83,
        "subtype": "noteOff",
        "type": "channel",
        "velocity": 0
      },
      {
        "channel": 0,
        "deltaTime": 0,
        "noteNumber": 79,
        "subtype": "noteOn",
        "type": "channel",
        "velocity": 100
      },
      {
        "channel": 0,
        "deltaTime": 600,
        "noteNumber": 79,
        "subtype": "noteOff",
        "type": "channel",
        "velocity": 0
      },
      {
        "channel": 0,
        "deltaTime": 0,
        "noteNumber": 77,
        "subtype": "noteOn",
        "type": "channel",
        "velocity": 100
      },
      {
        "channel": 0,
        "deltaTime": 120,
        "noteNumber": 77,
        "subtype": "noteOff",
        "type": "channel",
        "velocity": 0
      },
      {
        "channel": 0,
        "deltaTime": 0,
        "noteNumber": 76,
        "subtype": "noteOn",
        "type": "channel",
        "velocity": 100
      },
      {
        "channel": 0,
        "deltaTime": 120,
        "noteNumber": 76,
        "subtype": "noteOff",
        "type": "channel",
        "velocity": 0
      },
      {
        "channel": 0,
        "deltaTime": 0,
        "noteNumber": 74,
        "subtype": "noteOn",
        "type": "channel",
        "velocity": 100
      },
      {
        "channel": 0,
        "deltaTime": 120,
        "noteNumber": 74,
        "subtype": "noteOff",
        "type": "channel",
        "velocity": 0
      },
      {
        "channel": 0,
        "deltaTime": 0,
        "noteNumber": 72,
        "subtype": "noteOn",
        "type": "channel",
        "velocity": 100
      },
      {
        "channel": 0,
        "deltaTime": 120,
        "noteNumber": 72,
        "subtype": "noteOff",
        "type": "channel",
        "velocity": 0
      },
      {
        "channel": 0,
        "deltaTime": 0,
        "noteNumber": 71,
        "subtype": "noteOn",
        "type": "channel",
        "velocity": 100
      },
      {
        "channel": 0,
        "deltaTime": 120,
        "noteNumber": 71,
        "subtype": "noteOff",
        "type": "channel",
        "velocity": 0
      },
      {
        "channel": 0,
        "deltaTime": 0,
        "noteNumber": 69,
        "subtype": "noteOn",
        "type": "channel",
        "velocity": 100
      },
      {
        "channel": 0,
        "deltaTime": 120,
        "noteNumber": 69,
        "subtype": "noteOff",
        "type": "channel",
        "velocity": 0
      },
      {
        "channel": 0,
        "deltaTime": 0,
        "noteNumber": 72,
        "subtype": "noteOn",
        "type": "channel",
        "velocity": 100
      },
      {
        "channel": 0,
        "deltaTime": 120,
        "noteNumber": 72,
        "subtype": "noteOff",
        "type": "channel",
        "velocity": 0
      },
      {
        "channel": 0,
        "deltaTime": 0,
        "noteNumber": 77,
        "subtype": "noteOn",
        "type": "channel",
        "velocity": 100
      },
      {
        "channel": 0,
        "deltaTime": 120,
        "noteNumber": 77,
        "subtype": "noteOff",
        "type": "channel",
        "velocity": 0
      },
      {
        "channel": 0,
        "deltaTime": 0,
        "noteNumber": 79,
        "subtype": "noteOn",
        "type": "channel",
        "velocity": 100
      },
      {
        "channel": 0,
        "deltaTime": 120,
        "noteNumber": 79,
        "subtype": "noteOff",
        "type": "channel",
        "velocity": 0
      },
      {
        "channel": 0,
        "deltaTime": 0,
        "noteNumber": 81,
        "subtype": "noteOn",
        "type": "channel",
        "velocity": 100
      },
      {
        "channel": 0,
        "deltaTime": 120,
        "noteNumber": 81,
        "subtype": "noteOff",
        "type": "channel",
        "velocity": 0
      },
      {
        "channel": 0,
        "deltaTime": 0,
        "noteNumber": 77,
        "subtype": "noteOn",
        "type": "channel",
        "velocity": 100
      },
      {
        "channel": 0,
        "deltaTime": 120,
        "noteNumber": 77,
        "subtype": "noteOff",
        "type": "channel",
        "velocity": 0
      },
      {
        "channel": 0,
        "deltaTime": 0,
        "noteNumber": 74,
        "subtype": "noteOn",
        "type": "channel",
        "velocity": 100
      },
      {
        "channel": 0,
        "deltaTime": 120,
        "noteNumber": 74,
        "subtype": "noteOff",
        "type": "channel",
        "velocity": 0
      },
      {
        "channel": 0,
        "deltaTime": 0,
        "noteNumber": 76,
        "subtype": "noteOn",
        "type": "channel",
        "velocity": 100
      },
      {
        "channel": 0,
        "deltaTime": 120,
        "noteNumber": 76,
        "subtype": "noteOff",
        "type": "channel",
        "velocity": 0
      },
      {
        "channel": 0,
        "deltaTime": 0,
        "noteNumber": 77,
        "subtype": "noteOn",
        "type": "channel",
        "velocity": 100
      },
      {
        "channel": 0,
        "deltaTime": 120,
        "noteNumber": 77,
        "subtype": "noteOff",
        "type": "channel",
        "velocity": 0
      },
      {
        "channel": 0,
        "deltaTime": 0,
        "noteNumber": 74,
        "subtype": "noteOn",
        "type": "channel",
        "velocity": 100
      },
      {
        "channel": 0,
        "deltaTime": 120,
        "noteNumber": 74,
        "subtype": "noteOff",
        "type": "channel",
        "velocity": 0
      },
      {
        "channel": 0,
        "deltaTime": 0,
        "noteNumber": 72,
        "subtype": "noteOn",
        "type": "channel",
        "velocity": 100
      },
      {
        "channel": 0,
        "deltaTime": 120,
        "noteNumber": 72,
        "subtype": "noteOff",
        "type": "channel",
        "velocity": 0
      },
      {
        "channel": 0,
        "deltaTime": 0,
        "noteNumber": 71,
        "subtype": "noteOn",
        "type": "channel",
        "velocity": 100
      },
      {
        "channel": 0,
        "deltaTime": 120,
        "noteNumber": 71,
        "subtype": "noteOff",
        "type": "channel",
        "velocity": 0
      },
      {
        "channel": 0,
        "deltaTime": 0,
        "noteNumber": 69,
        "subtype": "noteOn",
        "type": "channel",
        "velocity": 100
      },
      {
        "channel": 0,
        "deltaTime": 120,
        "noteNumber": 69,
        "subtype": "noteOff",
        "type": "channel",
        "velocity": 0
      },
      {
        "channel": 0,
        "deltaTime": 0,
        "noteNumber": 67,
        "subtype": "noteOn",
        "type": "channel",
        "velocity": 100
      },
      {
        "channel": 0,
        "deltaTime": 120,
        "noteNumber": 67,
        "subtype": "noteOff",
        "type": "channel",
        "velocity": 0
      },
      {
        "channel": 0,
        "deltaTime": 0,
        "noteNumber": 76,
        "subtype": "noteOn",
        "type": "channel",
        "velocity": 100
      },
      {
        "channel": 0,
        "deltaTime": 120,
        "noteNumber": 76,
        "subtype": "noteOff",
        "type": "channel",
        "velocity": 0
      },
      {
        "channel": 0,
        "deltaTime": 0,
        "noteNumber": 77,
        "subtype": "noteOn",
        "type": "channel",
        "velocity": 100
      },
      {
        "channel": 0,
        "deltaTime": 120,
        "noteNumber": 77,
        "subtype": "noteOff",
        "type": "channel",
        "velocity": 0
      },
      {
        "channel": 0,
        "deltaTime": 0,
        "noteNumber": 79,
        "subtype": "noteOn",
        "type": "channel",
        "velocity": 100
      },
      {
        "channel": 0,
        "deltaTime": 120,
        "noteNumber": 79,
        "subtype": "noteOff",
        "type": "channel",
        "velocity": 0
      },
      {
        "channel": 0,
        "deltaTime": 0,
        "noteNumber": 76,
        "subtype": "noteOn",
        "type": "channel",
        "velocity": 100
      },
      {
        "channel": 0,
        "deltaTime": 120,
        "noteNumber": 76,
        "subtype": "noteOff",
        "type": "channel",
        "velocity": 0
      },
      {
        "channel": 0,
        "deltaTime": 0,
        "noteNumber": 72,
        "subtype": "noteOn",
        "type": "channel",
        "velocity": 100
      },
      {
        "channel": 0,
        "deltaTime": 120,
        "noteNumber": 72,
        "subtype": "noteOff",
        "type": "channel",
        "velocity": 0
      },
      {
        "channel": 0,
        "deltaTime": 0,
        "noteNumber": 74,
        "subtype": "noteOn",
        "type": "channel",
        "velocity": 100
      },
      {
        "channel": 0,
        "deltaTime": 120,
        "noteNumber": 74,
        "subtype": "noteOff",
        "type": "channel",
        "velocity": 0
      },
      {
        "channel": 0,
        "deltaTime": 0,
        "noteNumber": 76,
        "subtype": "noteOn",
        "type": "channel",
        "velocity": 100
      },
      {
        "channel": 0,
        "deltaTime": 120,
        "noteNumber": 76,
        "subtype": "noteOff",
        "type": "channel",
        "velocity": 0
      },
      {
        "channel": 0,
        "deltaTime": 0,
        "noteNumber": 72,
        "subtype": "noteOn",
        "type": "channel",
        "velocity": 100
      },
      {
        "channel": 0,
        "deltaTime": 120,
        "noteNumber": 72,
        "subtype": "noteOff",
        "type": "channel",
        "velocity": 0
      },
      {
        "channel": 0,
        "deltaTime": 0,
        "noteNumber": 69,
        "subtype": "noteOn",
        "type": "channel",
        "velocity": 100
      },
      {
        "channel": 0,
        "deltaTime": 120,
        "noteNumber": 69,
        "subtype": "noteOff",
        "type": "channel",
        "velocity": 0
      },
      {
        "channel": 0,
        "deltaTime": 0,
        "noteNumber": 67,
        "subtype": "noteOn",
        "type": "channel",
        "velocity": 100
      },
      {
        "channel": 0,
        "deltaTime": 120,
        "noteNumber": 67,
        "subtype": "noteOff",
        "type": "channel",
        "velocity": 0
      },
      {
        "channel": 0,
        "deltaTime": 0,
        "noteNumber": 65,
        "subtype": "noteOn",
        "type": "channel",
        "velocity": 100
      },
      {
        "channel": 0,
        "deltaTime": 120,
        "noteNumber": 65,
        "subtype": "noteOff",
        "type": "channel",
        "velocity": 0
      },
      {
        "channel": 0,
        "deltaTime": 0,
        "noteNumber": 69,
        "subtype": "noteOn",
        "type": "channel",
        "velocity": 100
      },
      {
        "channel": 0,
        "deltaTime": 120,
        "noteNumber": 69,
        "subtype": "noteOff",
        "type": "channel",
        "velocity": 0
      },
      {
        "channel": 0,
        "deltaTime": 0,
        "noteNumber": 74,
        "subtype": "noteOn",
        "type": "channel",
        "velocity": 100
      },
      {
        "channel": 0,
        "deltaTime": 120,
        "noteNumber": 74,
        "subtype": "noteOff",
        "type": "channel",
        "velocity": 0
      },
      {
        "channel": 0,
        "deltaTime": 0,
        "noteNumber": 76,
        "subtype": "noteOn",
        "type": "channel",
        "velocity": 100
      },
      {
        "channel": 0,
        "deltaTime": 120,
        "noteNumber": 76,
        "subtype": "noteOff",
        "type": "channel",
        "velocity": 0
      },
      {
        "channel": 0,
        "deltaTime": 0,
        "noteNumber": 77,
        "subtype": "noteOn",
        "type": "channel",
        "velocity": 100
      },
      {
        "channel": 0,
        "deltaTime": 120,
        "noteNumber": 77,
        "subtype": "noteOff",
        "type": "channel",
        "velocity": 0
      },
      {
        "channel": 0,
        "deltaTime": 0,
        "noteNumber": 79,
        "subtype": "noteOn",
        "type": "channel",
        "velocity": 100
      },
      {
        "channel": 0,
        "deltaTime": 120,
        "noteNumber": 79,
        "subtype": "noteOff",
        "type": "channel",
        "velocity": 0
      },
      {
        "channel": 0,
        "deltaTime": 0,
        "noteNumber": 81,
        "subtype": "noteOn",
        "type": "channel",
        "velocity": 100
      },
      {
        "channel": 0,
        "deltaTime": 120,
        "noteNumber": 81,
        "subtype": "noteOff",
        "type": "channel",
        "velocity": 0
      },
      {
        "channel": 0,
        "deltaTime": 0,
        "noteNumber": 83,
        "subtype": "noteOn",
        "type": "channel",
        "velocity": 100
      },
      {
        "channel": 0,
        "deltaTime": 120,
        "noteNumber": 83,
        "subtype": "noteOff",
        "type": "channel",
        "velocity": 0
      },
      {
        "channel": 0,
        "deltaTime": 0,
        "noteNumber": 84,
        "subtype": "noteOn",
        "type": "channel",
        "velocity": 100
      },
      {
        "channel": 0,
        "deltaTime": 120,
        "noteNumber": 84,
        "subtype": "noteOff",
        "type": "channel",
        "velocity": 0
      },
      {
        "channel": 0,
        "deltaTime": 0,
        "noteNumber": 81,
        "subtype": "noteOn",
        "type": "channel",
        "velocity": 100
      },
      {
        "channel": 0,
        "deltaTime": 120,
        "noteNumber": 81,
        "subtype": "noteOff",
        "type": "channel",
        "velocity": 0
      },
      {
        "channel": 0,
        "deltaTime": 0,
        "noteNumber": 77,
        "subtype": "noteOn",
        "type": "channel",
        "velocity": 100
      },
      {
        "channel": 0,
        "deltaTime": 120,
        "noteNumber": 77,
        "subtype": "noteOff",
        "type": "channel",
        "velocity": 0
      },
      {
        "channel": 0,
        "deltaTime": 0,
        "noteNumber": 76,
        "subtype": "noteOn",
        "type": "channel",
        "velocity": 100
      },
      {
        "channel": 0,
        "deltaTime": 120,
        "noteNumber": 76,
        "subtype": "noteOff",
        "type": "channel",
        "velocity": 0
      },
      {
        "channel": 0,
        "deltaTime": 0,
        "noteNumber": 77,
        "subtype": "noteOn",
        "type": "channel",
        "velocity": 100
      },
      {
        "channel": 0,
        "deltaTime": 120,
        "noteNumber": 77,
        "subtype": "noteOff",
        "type": "channel",
        "velocity": 0
      },
      {
        "channel": 0,
        "deltaTime": 0,
        "noteNumber": 74,
        "subtype": "noteOn",
        "type": "channel",
        "velocity": 100
      },
      {
        "channel": 0,
        "deltaTime": 120,
        "noteNumber": 74,
        "subtype": "noteOff",
        "type": "channel",
        "velocity": 0
      },
      {
        "channel": 0,
        "deltaTime": 0,
        "noteNumber": 71,
        "subtype": "noteOn",
        "type": "channel",
        "velocity": 100
      },
      {
        "channel": 0,
        "deltaTime": 120,
        "noteNumber": 71,
        "subtype": "noteOff",
        "type": "channel",
        "velocity": 0
      },
      {
        "channel": 0,
        "deltaTime": 0,
        "noteNumber": 69,
        "subtype": "noteOn",
        "type": "channel",
        "velocity": 100
      },
      {
        "channel": 0,
        "deltaTime": 120,
        "noteNumber": 69,
        "subtype": "noteOff",
        "type": "channel",
        "velocity": 0
      },
      {
        "channel": 0,
        "deltaTime": 0,
        "noteNumber": 71,
        "subtype": "noteOn",
        "type": "channel",
        "velocity": 100
      },
      {
        "channel": 0,
        "deltaTime": 120,
        "noteNumber": 71,
        "subtype": "noteOff",
        "type": "channel",
        "velocity": 0
      },
      {
        "channel": 0,
        "deltaTime": 0,
        "noteNumber": 67,
        "subtype": "noteOn",
        "type": "channel",
        "velocity": 100
      },
      {
        "channel": 0,
        "deltaTime": 120,
        "noteNumber": 67,
        "subtype": "noteOff",
        "type": "channel",
        "velocity": 0
      },
      {
        "channel": 0,
        "deltaTime": 0,
        "noteNumber": 65,
        "subtype": "noteOn",
        "type": "channel",
        "velocity": 100
      },
      {
        "channel": 0,
        "deltaTime": 120,
        "noteNumber": 65,
        "subtype": "noteOff",
        "type": "channel",
        "velocity": 0
      },
      {
        "channel": 0,
        "deltaTime": 0,
        "noteNumber": 64,
        "subtype": "noteOn",
        "type": "channel",
        "velocity": 100
      },
      {
        "channel": 0,
        "deltaTime": 120,
        "noteNumber": 64,
        "subtype": "noteOff",
        "type": "channel",
        "velocity": 0
      },
      {
        "channel": 0,
        "deltaTime": 0,
        "noteNumber": 65,
        "subtype": "noteOn",
        "type": "channel",
        "velocity": 100
      },
      {
        "channel": 0,
        "deltaTime": 120,
        "noteNumber": 65,
        "subtype": "noteOff",
        "type": "channel",
        "velocity": 0
      },
      {
        "channel": 0,
        "deltaTime": 0,
        "noteNumber": 62,
        "subtype": "noteOn",
        "type": "channel",
        "velocity": 100
      },
      {
        "channel": 0,
        "deltaTime": 120,
        "noteNumber": 62,
        "subtype": "noteOff",
        "type": "channel",
        "velocity": 0
      },
      {
        "channel": 0,
        "deltaTime": 0,
        "noteNumber": 64,
        "subtype": "noteOn",
        "type": "channel",
        "velocity": 100
      },
      {
        "channel": 0,
        "deltaTime": 120,
        "noteNumber": 64,
        "subtype": "noteOff",
        "type": "channel",
        "velocity": 0
      },
      {
        "channel": 0,
        "deltaTime": 0,
        "noteNumber": 72,
        "subtype": "noteOn",
        "type": "channel",
        "velocity": 100
      },
      {
        "channel": 0,
        "deltaTime": 120,
        "noteNumber": 72,
        "subtype": "noteOff",
        "type": "channel",
        "velocity": 0
      },
      {
        "channel": 0,
        "deltaTime": 0,
        "noteNumber": 79,
        "subtype": "noteOn",
        "type": "channel",
        "velocity": 100
      },
      {
        "channel": 0,
        "deltaTime": 120,
        "noteNumber": 79,
        "subtype": "noteOff",
        "type": "channel",
        "velocity": 0
      },
      {
        "channel": 0,
        "deltaTime": 0,
        "noteNumber": 79,
        "subtype": "noteOn",
        "type": "channel",
        "velocity": 100
      },
      {
        "channel": 0,
        "deltaTime": 120,
        "noteNumber": 79,
        "subtype": "noteOff",
        "type": "channel",
        "velocity": 0
      },
      {
        "channel": 0,
        "deltaTime": 0,
        "noteNumber": 64,
        "subtype": "noteOn",
        "type": "channel",
        "velocity": 100
      },
      {
        "channel": 0,
        "deltaTime": 120,
        "noteNumber": 64,
        "subtype": "noteOff",
        "type": "channel",
        "velocity": 0
      },
      {
        "channel": 0,
        "deltaTime": 0,
        "noteNumber": 72,
        "subtype": "noteOn",
        "type": "channel",
        "velocity": 100
      },
      {
        "channel": 0,
        "deltaTime": 120,
        "noteNumber": 72,
        "subtype": "noteOff",
        "type": "channel",
        "velocity": 0
      },
      {
        "channel": 0,
        "deltaTime": 0,
        "noteNumber": 79,
        "subtype": "noteOn",
        "type": "channel",
        "velocity": 100
      },
      {
        "channel": 0,
        "deltaTime": 120,
        "noteNumber": 79,
        "subtype": "noteOff",
        "type": "channel",
        "velocity": 0
      },
      {
        "channel": 0,
        "deltaTime": 0,
        "noteNumber": 72,
        "subtype": "noteOn",
        "type": "channel",
        "velocity": 100
      },
      {
        "channel": 0,
        "deltaTime": 120,
        "noteNumber": 72,
        "subtype": "noteOff",
        "type": "channel",
        "velocity": 0
      },
      {
        "channel": 0,
        "deltaTime": 0,
        "noteNumber": 81,
        "subtype": "noteOn",
        "type": "channel",
        "velocity": 100
      },
      {
        "channel": 0,
        "deltaTime": 120,
        "noteNumber": 81,
        "subtype": "noteOff",
        "type": "channel",
        "velocity": 0
      },
      {
        "channel": 0,
        "deltaTime": 0,
        "noteNumber": 72,
        "subtype": "noteOn",
        "type": "channel",
        "velocity": 100
      },
      {
        "channel": 0,
        "deltaTime": 120,
        "noteNumber": 72,
        "subtype": "noteOff",
        "type": "channel",
        "velocity": 0
      },
      {
        "channel": 0,
        "deltaTime": 0,
        "noteNumber": 82,
        "subtype": "noteOn",
        "type": "channel",
        "velocity": 100
      },
      {
        "channel": 0,
        "deltaTime": 120,
        "noteNumber": 82,
        "subtype": "noteOff",
        "type": "channel",
        "velocity": 0
      },
      {
        "channel": 0,
        "deltaTime": 0,
        "noteNumber": 72,
        "subtype": "noteOn",
        "type": "channel",
        "velocity": 100
      },
      {
        "channel": 0,
        "deltaTime": 120,
        "noteNumber": 72,
        "subtype": "noteOff",
        "type": "channel",
        "velocity": 0
      },
      {
        "channel": 0,
        "deltaTime": 0,
        "noteNumber": 65,
        "subtype": "noteOn",
        "type": "channel",
        "velocity": 100
      },
      {
        "channel": 0,
        "deltaTime": 120,
        "noteNumber": 65,
        "subtype": "noteOff",
        "type": "channel",
        "velocity": 0
      },
      {
        "channel": 0,
        "deltaTime": 0,
        "noteNumber": 72,
        "subtype": "noteOn",
        "type": "channel",
        "velocity": 100
      },
      {
        "channel": 0,
        "deltaTime": 120,
        "noteNumber": 72,
        "subtype": "noteOff",
        "type": "channel",
        "velocity": 0
      },
      {
        "channel": 0,
        "deltaTime": 0,
        "noteNumber": 81,
        "subtype": "noteOn",
        "type": "channel",
        "velocity": 100
      },
      {
        "channel": 0,
        "deltaTime": 120,
        "noteNumber": 81,
        "subtype": "noteOff",
        "type": "channel",
        "velocity": 0
      },
      {
        "channel": 0,
        "deltaTime": 0,
        "noteNumber": 77,
        "subtype": "noteOn",
        "type": "channel",
        "velocity": 100
      },
      {
        "channel": 0,
        "deltaTime": 120,
        "noteNumber": 77,
        "subtype": "noteOff",
        "type": "channel",
        "velocity": 0
      },
      {
        "channel": 0,
        "deltaTime": 0,
        "noteNumber": 76,
        "subtype": "noteOn",
        "type": "channel",
        "velocity": 100
      },
      {
        "channel": 0,
        "deltaTime": 120,
        "noteNumber": 76,
        "subtype": "noteOff",
        "type": "channel",
        "velocity": 0
      },
      {
        "channel": 0,
        "deltaTime": 0,
        "noteNumber": 74,
        "subtype": "noteOn",
        "type": "channel",
        "velocity": 100
      },
      {
        "channel": 0,
        "deltaTime": 120,
        "noteNumber": 74,
        "subtype": "noteOff",
        "type": "channel",
        "velocity": 0
      },
      {
        "channel": 0,
        "deltaTime": 0,
        "noteNumber": 72,
        "subtype": "noteOn",
        "type": "channel",
        "velocity": 100
      },
      {
        "channel": 0,
        "deltaTime": 120,
        "noteNumber": 72,
        "subtype": "noteOff",
        "type": "channel",
        "velocity": 0
      },
      {
        "channel": 0,
        "deltaTime": 0,
        "noteNumber": 70,
        "subtype": "noteOn",
        "type": "channel",
        "velocity": 100
      },
      {
        "channel": 0,
        "deltaTime": 120,
        "noteNumber": 70,
        "subtype": "noteOff",
        "type": "channel",
        "velocity": 0
      },
      {
        "channel": 0,
        "deltaTime": 0,
        "noteNumber": 69,
        "subtype": "noteOn",
        "type": "channel",
        "velocity": 100
      },
      {
        "channel": 0,
        "deltaTime": 120,
        "noteNumber": 69,
        "subtype": "noteOff",
        "type": "channel",
        "velocity": 0
      },
      {
        "channel": 0,
        "deltaTime": 0,
        "noteNumber": 67,
        "subtype": "noteOn",
        "type": "channel",
        "velocity": 100
      },
      {
        "channel": 0,
        "deltaTime": 120,
        "noteNumber": 67,
        "subtype": "noteOff",
        "type": "channel",
        "velocity": 0
      },
      {
        "channel": 0,
        "deltaTime": 0,
        "noteNumber": 65,
        "subtype": "noteOn",
        "type": "channel",
        "velocity": 100
      },
      {
        "channel": 0,
        "deltaTime": 120,
        "noteNumber": 65,
        "subtype": "noteOff",
        "type": "channel",
        "velocity": 0
      },
      {
        "channel": 0,
        "deltaTime": 0,
        "noteNumber": 64,
        "subtype": "noteOn",
        "type": "channel",
        "velocity": 100
      },
      {
        "channel": 0,
        "deltaTime": 120,
        "noteNumber": 64,
        "subtype": "noteOff",
        "type": "channel",
        "velocity": 0
      },
      {
        "channel": 0,
        "deltaTime": 0,
        "noteNumber": 66,
        "subtype": "noteOn",
        "type": "channel",
        "velocity": 100
      },
      {
        "channel": 0,
        "deltaTime": 120,
        "noteNumber": 66,
        "subtype": "noteOff",
        "type": "channel",
        "velocity": 0
      },
      {
        "channel": 0,
        "deltaTime": 0,
        "noteNumber": 74,
        "subtype": "noteOn",
        "type": "channel",
        "velocity": 100
      },
      {
        "channel": 0,
        "deltaTime": 120,
        "noteNumber": 74,
        "subtype": "noteOff",
        "type": "channel",
        "velocity": 0
      },
      {
        "channel": 0,
        "deltaTime": 0,
        "noteNumber": 81,
        "subtype": "noteOn",
        "type": "channel",
        "velocity": 100
      },
      {
        "channel": 0,
        "deltaTime": 120,
        "noteNumber": 81,
        "subtype": "noteOff",
        "type": "channel",
        "velocity": 0
      },
      {
        "channel": 0,
        "deltaTime": 0,
        "noteNumber": 81,
        "subtype": "noteOn",
        "type": "channel",
        "velocity": 100
      },
      {
        "channel": 0,
        "deltaTime": 120,
        "noteNumber": 81,
        "subtype": "noteOff",
        "type": "channel",
        "velocity": 0
      },
      {
        "channel": 0,
        "deltaTime": 0,
        "noteNumber": 66,
        "subtype": "noteOn",
        "type": "channel",
        "velocity": 100
      },
      {
        "channel": 0,
        "deltaTime": 120,
        "noteNumber": 66,
        "subtype": "noteOff",
        "type": "channel",
        "velocity": 0
      },
      {
        "channel": 0,
        "deltaTime": 0,
        "noteNumber": 74,
        "subtype": "noteOn",
        "type": "channel",
        "velocity": 100
      },
      {
        "channel": 0,
        "deltaTime": 120,
        "noteNumber": 74,
        "subtype": "noteOff",
        "type": "channel",
        "velocity": 0
      },
      {
        "channel": 0,
        "deltaTime": 0,
        "noteNumber": 81,
        "subtype": "noteOn",
        "type": "channel",
        "velocity": 100
      },
      {
        "channel": 0,
        "deltaTime": 120,
        "noteNumber": 81,
        "subtype": "noteOff",
        "type": "channel",
        "velocity": 0
      },
      {
        "channel": 0,
        "deltaTime": 0,
        "noteNumber": 74,
        "subtype": "noteOn",
        "type": "channel",
        "velocity": 100
      },
      {
        "channel": 0,
        "deltaTime": 120,
        "noteNumber": 74,
        "subtype": "noteOff",
        "type": "channel",
        "velocity": 0
      },
      {
        "channel": 0,
        "deltaTime": 0,
        "noteNumber": 83,
        "subtype": "noteOn",
        "type": "channel",
        "velocity": 100
      },
      {
        "channel": 0,
        "deltaTime": 120,
        "noteNumber": 83,
        "subtype": "noteOff",
        "type": "channel",
        "velocity": 0
      },
      {
        "channel": 0,
        "deltaTime": 0,
        "noteNumber": 74,
        "subtype": "noteOn",
        "type": "channel",
        "velocity": 100
      },
      {
        "channel": 0,
        "deltaTime": 120,
        "noteNumber": 74,
        "subtype": "noteOff",
        "type": "channel",
        "velocity": 0
      },
      {
        "channel": 0,
        "deltaTime": 0,
        "noteNumber": 84,
        "subtype": "noteOn",
        "type": "channel",
        "velocity": 100
      },
      {
        "channel": 0,
        "deltaTime": 120,
        "noteNumber": 84,
        "subtype": "noteOff",
        "type": "channel",
        "velocity": 0
      },
      {
        "channel": 0,
        "deltaTime": 0,
        "noteNumber": 74,
        "subtype": "noteOn",
        "type": "channel",
        "velocity": 100
      },
      {
        "channel": 0,
        "deltaTime": 120,
        "noteNumber": 74,
        "subtype": "noteOff",
        "type": "channel",
        "velocity": 0
      },
      {
        "channel": 0,
        "deltaTime": 0,
        "noteNumber": 67,
        "subtype": "noteOn",
        "type": "channel",
        "velocity": 100
      },
      {
        "channel": 0,
        "deltaTime": 120,
        "noteNumber": 67,
        "subtype": "noteOff",
        "type": "channel",
        "velocity": 0
      },
      {
        "channel": 0,
        "deltaTime": 0,
        "noteNumber": 74,
        "subtype": "noteOn",
        "type": "channel",
        "velocity": 100
      },
      {
        "channel": 0,
        "deltaTime": 120,
        "noteNumber": 74,
        "subtype": "noteOff",
        "type": "channel",
        "velocity": 0
      },
      {
        "channel": 0,
        "deltaTime": 0,
        "noteNumber": 83,
        "subtype": "noteOn",
        "type": "channel",
        "velocity": 100
      },
      {
        "channel": 0,
        "deltaTime": 120,
        "noteNumber": 83,
        "subtype": "noteOff",
        "type": "channel",
        "velocity": 0
      },
      {
        "channel": 0,
        "deltaTime": 0,
        "noteNumber": 79,
        "subtype": "noteOn",
        "type": "channel",
        "velocity": 100
      },
      {
        "channel": 0,
        "deltaTime": 120,
        "noteNumber": 79,
        "subtype": "noteOff",
        "type": "channel",
        "velocity": 0
      },
      {
        "channel": 0,
        "deltaTime": 0,
        "noteNumber": 77,
        "subtype": "noteOn",
        "type": "channel",
        "velocity": 100
      },
      {
        "channel": 0,
        "deltaTime": 120,
        "noteNumber": 77,
        "subtype": "noteOff",
        "type": "channel",
        "velocity": 0
      },
      {
        "channel": 0,
        "deltaTime": 0,
        "noteNumber": 76,
        "subtype": "noteOn",
        "type": "channel",
        "velocity": 100
      },
      {
        "channel": 0,
        "deltaTime": 120,
        "noteNumber": 76,
        "subtype": "noteOff",
        "type": "channel",
        "velocity": 0
      },
      {
        "channel": 0,
        "deltaTime": 0,
        "noteNumber": 74,
        "subtype": "noteOn",
        "type": "channel",
        "velocity": 100
      },
      {
        "channel": 0,
        "deltaTime": 120,
        "noteNumber": 74,
        "subtype": "noteOff",
        "type": "channel",
        "velocity": 0
      },
      {
        "channel": 0,
        "deltaTime": 0,
        "noteNumber": 72,
        "subtype": "noteOn",
        "type": "channel",
        "velocity": 100
      },
      {
        "channel": 0,
        "deltaTime": 120,
        "noteNumber": 72,
        "subtype": "noteOff",
        "type": "channel",
        "velocity": 0
      },
      {
        "channel": 0,
        "deltaTime": 0,
        "noteNumber": 71,
        "subtype": "noteOn",
        "type": "channel",
        "velocity": 100
      },
      {
        "channel": 0,
        "deltaTime": 120,
        "noteNumber": 71,
        "subtype": "noteOff",
        "type": "channel",
        "velocity": 0
      },
      {
        "channel": 0,
        "deltaTime": 0,
        "noteNumber": 69,
        "subtype": "noteOn",
        "type": "channel",
        "velocity": 100
      },
      {
        "channel": 0,
        "deltaTime": 120,
        "noteNumber": 69,
        "subtype": "noteOff",
        "type": "channel",
        "velocity": 0
      },
      {
        "channel": 0,
        "deltaTime": 0,
        "noteNumber": 67,
        "subtype": "noteOn",
        "type": "channel",
        "velocity": 100
      },
      {
        "channel": 0,
        "deltaTime": 120,
        "noteNumber": 67,
        "subtype": "noteOff",
        "type": "channel",
        "velocity": 0
      },
      {
        "channel": 0,
        "deltaTime": 0,
        "noteNumber": 65,
        "subtype": "noteOn",
        "type": "channel",
        "velocity": 100
      },
      {
        "channel": 0,
        "deltaTime": 120,
        "noteNumber": 65,
        "subtype": "noteOff",
        "type": "channel",
        "velocity": 0
      },
      {
        "channel": 0,
        "deltaTime": 0,
        "noteNumber": 64,
        "subtype": "noteOn",
        "type": "channel",
        "velocity": 100
      },
      {
        "channel": 0,
        "deltaTime": 120,
        "noteNumber": 64,
        "subtype": "noteOff",
        "type": "channel",
        "velocity": 0
      },
      {
        "channel": 0,
        "deltaTime": 0,
        "noteNumber": 65,
        "subtype": "noteOn",
        "type": "channel",
        "velocity": 100
      },
      {
        "channel": 0,
        "deltaTime": 120,
        "noteNumber": 65,
        "subtype": "noteOff",
        "type": "channel",
        "velocity": 0
      },
      {
        "channel": 0,
        "deltaTime": 0,
        "noteNumber": 67,
        "subtype": "noteOn",
        "type": "channel",
        "velocity": 100
      },
      {
        "channel": 0,
        "deltaTime": 120,
        "noteNumber": 67,
        "subtype": "noteOff",
        "type": "channel",
        "velocity": 0
      },
      {
        "channel": 0,
        "deltaTime": 0,
        "noteNumber": 72,
        "subtype": "noteOn",
        "type": "channel",
        "velocity": 100
      },
      {
        "channel": 0,
        "deltaTime": 120,
        "noteNumber": 72,
        "subtype": "noteOff",
        "type": "channel",
        "velocity": 0
      },
      {
        "channel": 0,
        "deltaTime": 0,
        "noteNumber": 76,
        "subtype": "noteOn",
        "type": "channel",
        "velocity": 100
      },
      {
        "channel": 0,
        "deltaTime": 120,
        "noteNumber": 76,
        "subtype": "noteOff",
        "type": "channel",
        "velocity": 0
      },
      {
        "channel": 0,
        "deltaTime": 0,
        "noteNumber": 72,
        "subtype": "noteOn",
        "type": "channel",
        "velocity": 100
      },
      {
        "channel": 0,
        "deltaTime": 120,
        "noteNumber": 72,
        "subtype": "noteOff",
        "type": "channel",
        "velocity": 0
      },
      {
        "channel": 0,
        "deltaTime": 0,
        "noteNumber": 71,
        "subtype": "noteOn",
        "type": "channel",
        "velocity": 100
      },
      {
        "channel": 0,
        "deltaTime": 120,
        "noteNumber": 71,
        "subtype": "noteOff",
        "type": "channel",
        "velocity": 0
      },
      {
        "channel": 0,
        "deltaTime": 0,
        "noteNumber": 72,
        "subtype": "noteOn",
        "type": "channel",
        "velocity": 100
      },
      {
        "channel": 0,
        "deltaTime": 120,
        "noteNumber": 72,
        "subtype": "noteOff",
        "type": "channel",
        "velocity": 0
      },
      {
        "channel": 0,
        "deltaTime": 0,
        "noteNumber": 67,
        "subtype": "noteOn",
        "type": "channel",
        "velocity": 100
      },
      {
        "channel": 0,
        "deltaTime": 120,
        "noteNumber": 67,
        "subtype": "noteOff",
        "type": "channel",
        "velocity": 0
      },
      {
        "channel": 0,
        "deltaTime": 0,
        "noteNumber": 71,
        "subtype": "noteOn",
        "type": "channel",
        "velocity": 100
      },
      {
        "channel": 0,
        "deltaTime": 120,
        "noteNumber": 71,
        "subtype": "noteOff",
        "type": "channel",
        "velocity": 0
      },
      {
        "channel": 0,
        "deltaTime": 0,
        "noteNumber": 72,
        "subtype": "noteOn",
        "type": "channel",
        "velocity": 100
      },
      {
        "channel": 0,
        "deltaTime": 120,
        "noteNumber": 72,
        "subtype": "noteOff",
        "type": "channel",
        "velocity": 0
      },
      {
        "channel": 0,
        "deltaTime": 0,
        "noteNumber": 76,
        "subtype": "noteOn",
        "type": "channel",
        "velocity": 100
      },
      {
        "channel": 0,
        "deltaTime": 120,
        "noteNumber": 76,
        "subtype": "noteOff",
        "type": "channel",
        "velocity": 0
      },
      {
        "channel": 0,
        "deltaTime": 0,
        "noteNumber": 65,
        "subtype": "noteOn",
        "type": "channel",
        "velocity": 100
      },
      {
        "channel": 0,
        "deltaTime": 120,
        "noteNumber": 65,
        "subtype": "noteOff",
        "type": "channel",
        "velocity": 0
      },
      {
        "channel": 0,
        "deltaTime": 0,
        "noteNumber": 67,
        "subtype": "noteOn",
        "type": "channel",
        "velocity": 100
      },
      {
        "channel": 0,
        "deltaTime": 120,
        "noteNumber": 67,
        "subtype": "noteOff",
        "type": "channel",
        "velocity": 0
      },
      {
        "channel": 0,
        "deltaTime": 0,
        "noteNumber": 69,
        "subtype": "noteOn",
        "type": "channel",
        "velocity": 100
      },
      {
        "channel": 0,
        "deltaTime": 120,
        "noteNumber": 69,
        "subtype": "noteOff",
        "type": "channel",
        "velocity": 0
      },
      {
        "channel": 0,
        "deltaTime": 0,
        "noteNumber": 72,
        "subtype": "noteOn",
        "type": "channel",
        "velocity": 100
      },
      {
        "channel": 0,
        "deltaTime": 120,
        "noteNumber": 72,
        "subtype": "noteOff",
        "type": "channel",
        "velocity": 0
      },
      {
        "channel": 0,
        "deltaTime": 0,
        "noteNumber": 76,
        "subtype": "noteOn",
        "type": "channel",
        "velocity": 100
      },
      {
        "channel": 0,
        "deltaTime": 120,
        "noteNumber": 76,
        "subtype": "noteOff",
        "type": "channel",
        "velocity": 0
      },
      {
        "channel": 0,
        "deltaTime": 0,
        "noteNumber": 72,
        "subtype": "noteOn",
        "type": "channel",
        "velocity": 100
      },
      {
        "channel": 0,
        "deltaTime": 120,
        "noteNumber": 72,
        "subtype": "noteOff",
        "type": "channel",
        "velocity": 0
      },
      {
        "channel": 0,
        "deltaTime": 0,
        "noteNumber": 71,
        "subtype": "noteOn",
        "type": "channel",
        "velocity": 100
      },
      {
        "channel": 0,
        "deltaTime": 120,
        "noteNumber": 71,
        "subtype": "noteOff",
        "type": "channel",
        "velocity": 0
      },
      {
        "channel": 0,
        "deltaTime": 0,
        "noteNumber": 72,
        "subtype": "noteOn",
        "type": "channel",
        "velocity": 100
      },
      {
        "channel": 0,
        "deltaTime": 120,
        "noteNumber": 72,
        "subtype": "noteOff",
        "type": "channel",
        "velocity": 0
      },
      {
        "channel": 0,
        "deltaTime": 0,
        "noteNumber": 69,
        "subtype": "noteOn",
        "type": "channel",
        "velocity": 100
      },
      {
        "channel": 0,
        "deltaTime": 120,
        "noteNumber": 69,
        "subtype": "noteOff",
        "type": "channel",
        "velocity": 0
      },
      {
        "channel": 0,
        "deltaTime": 0,
        "noteNumber": 71,
        "subtype": "noteOn",
        "type": "channel",
        "velocity": 100
      },
      {
        "channel": 0,
        "deltaTime": 120,
        "noteNumber": 71,
        "subtype": "noteOff",
        "type": "channel",
        "velocity": 0
      },
      {
        "channel": 0,
        "deltaTime": 0,
        "noteNumber": 72,
        "subtype": "noteOn",
        "type": "channel",
        "velocity": 100
      },
      {
        "channel": 0,
        "deltaTime": 120,
        "noteNumber": 72,
        "subtype": "noteOff",
        "type": "channel",
        "velocity": 0
      },
      {
        "channel": 0,
        "deltaTime": 0,
        "noteNumber": 76,
        "subtype": "noteOn",
        "type": "channel",
        "velocity": 100
      },
      {
        "channel": 0,
        "deltaTime": 120,
        "noteNumber": 76,
        "subtype": "noteOff",
        "type": "channel",
        "velocity": 0
      },
      {
        "channel": 0,
        "deltaTime": 0,
        "noteNumber": 67,
        "subtype": "noteOn",
        "type": "channel",
        "velocity": 100
      },
      {
        "channel": 0,
        "deltaTime": 120,
        "noteNumber": 67,
        "subtype": "noteOff",
        "type": "channel",
        "velocity": 0
      },
      {
        "channel": 0,
        "deltaTime": 0,
        "noteNumber": 69,
        "subtype": "noteOn",
        "type": "channel",
        "velocity": 100
      },
      {
        "channel": 0,
        "deltaTime": 120,
        "noteNumber": 69,
        "subtype": "noteOff",
        "type": "channel",
        "velocity": 0
      },
      {
        "channel": 0,
        "deltaTime": 0,
        "noteNumber": 71,
        "subtype": "noteOn",
        "type": "channel",
        "velocity": 100
      },
      {
        "channel": 0,
        "deltaTime": 120,
        "noteNumber": 71,
        "subtype": "noteOff",
        "type": "channel",
        "velocity": 0
      },
      {
        "channel": 0,
        "deltaTime": 0,
        "noteNumber": 72,
        "subtype": "noteOn",
        "type": "channel",
        "velocity": 100
      },
      {
        "channel": 0,
        "deltaTime": 120,
        "noteNumber": 72,
        "subtype": "noteOff",
        "type": "channel",
        "velocity": 0
      },
      {
        "channel": 0,
        "deltaTime": 0,
        "noteNumber": 76,
        "subtype": "noteOn",
        "type": "channel",
        "velocity": 100
      },
      {
        "channel": 0,
        "deltaTime": 120,
        "noteNumber": 76,
        "subtype": "noteOff",
        "type": "channel",
        "velocity": 0
      },
      {
        "channel": 0,
        "deltaTime": 0,
        "noteNumber": 72,
        "subtype": "noteOn",
        "type": "channel",
        "velocity": 100
      },
      {
        "channel": 0,
        "deltaTime": 120,
        "noteNumber": 72,
        "subtype": "noteOff",
        "type": "channel",
        "velocity": 0
      },
      {
        "channel": 0,
        "deltaTime": 0,
        "noteNumber": 71,
        "subtype": "noteOn",
        "type": "channel",
        "velocity": 100
      },
      {
        "channel": 0,
        "deltaTime": 120,
        "noteNumber": 71,
        "subtype": "noteOff",
        "type": "channel",
        "velocity": 0
      },
      {
        "channel": 0,
        "deltaTime": 0,
        "noteNumber": 72,
        "subtype": "noteOn",
        "type": "channel",
        "velocity": 100
      },
      {
        "channel": 0,
        "deltaTime": 120,
        "noteNumber": 72,
        "subtype": "noteOff",
        "type": "channel",
        "velocity": 0
      },
      {
        "channel": 0,
        "deltaTime": 0,
        "noteNumber": 71,
        "subtype": "noteOn",
        "type": "channel",
        "velocity": 100
      },
      {
        "channel": 0,
        "deltaTime": 120,
        "noteNumber": 71,
        "subtype": "noteOff",
        "type": "channel",
        "velocity": 0
      },
      {
        "channel": 0,
        "deltaTime": 0,
        "noteNumber": 72,
        "subtype": "noteOn",
        "type": "channel",
        "velocity": 100
      },
      {
        "channel": 0,
        "deltaTime": 120,
        "noteNumber": 72,
        "subtype": "noteOff",
        "type": "channel",
        "velocity": 0
      },
      {
        "channel": 0,
        "deltaTime": 0,
        "noteNumber": 74,
        "subtype": "noteOn",
        "type": "channel",
        "velocity": 100
      },
      {
        "channel": 0,
        "deltaTime": 120,
        "noteNumber": 74,
        "subtype": "noteOff",
        "type": "channel",
        "velocity": 0
      },
      {
        "channel": 0,
        "deltaTime": 0,
        "noteNumber": 76,
        "subtype": "noteOn",
        "type": "channel",
        "velocity": 100
      },
      {
        "channel": 0,
        "deltaTime": 120,
        "noteNumber": 76,
        "subtype": "noteOff",
        "type": "channel",
        "velocity": 0
      },
      {
        "channel": 0,
        "deltaTime": 0,
        "noteNumber": 69,
        "subtype": "noteOn",
        "type": "channel",
        "velocity": 100
      },
      {
        "channel": 0,
        "deltaTime": 120,
        "noteNumber": 69,
        "subtype": "noteOff",
        "type": "channel",
        "velocity": 0
      },
      {
        "channel": 0,
        "deltaTime": 0,
        "noteNumber": 71,
        "subtype": "noteOn",
        "type": "channel",
        "velocity": 100
      },
      {
        "channel": 0,
        "deltaTime": 120,
        "noteNumber": 71,
        "subtype": "noteOff",
        "type": "channel",
        "velocity": 0
      },
      {
        "channel": 0,
        "deltaTime": 0,
        "noteNumber": 72,
        "subtype": "noteOn",
        "type": "channel",
        "velocity": 100
      },
      {
        "channel": 0,
        "deltaTime": 120,
        "noteNumber": 72,
        "subtype": "noteOff",
        "type": "channel",
        "velocity": 0
      },
      {
        "channel": 0,
        "deltaTime": 0,
        "noteNumber": 76,
        "subtype": "noteOn",
        "type": "channel",
        "velocity": 100
      },
      {
        "channel": 0,
        "deltaTime": 120,
        "noteNumber": 76,
        "subtype": "noteOff",
        "type": "channel",
        "velocity": 0
      },
      {
        "channel": 0,
        "deltaTime": 0,
        "noteNumber": 77,
        "subtype": "noteOn",
        "type": "channel",
        "velocity": 100
      },
      {
        "channel": 0,
        "deltaTime": 120,
        "noteNumber": 77,
        "subtype": "noteOff",
        "type": "channel",
        "velocity": 0
      },
      {
        "channel": 0,
        "deltaTime": 0,
        "noteNumber": 81,
        "subtype": "noteOn",
        "type": "channel",
        "velocity": 100
      },
      {
        "channel": 0,
        "deltaTime": 120,
        "noteNumber": 81,
        "subtype": "noteOff",
        "type": "channel",
        "velocity": 0
      },
      {
        "channel": 0,
        "deltaTime": 0,
        "noteNumber": 77,
        "subtype": "noteOn",
        "type": "channel",
        "velocity": 100
      },
      {
        "channel": 0,
        "deltaTime": 120,
        "noteNumber": 77,
        "subtype": "noteOff",
        "type": "channel",
        "velocity": 0
      },
      {
        "channel": 0,
        "deltaTime": 0,
        "noteNumber": 76,
        "subtype": "noteOn",
        "type": "channel",
        "velocity": 100
      },
      {
        "channel": 0,
        "deltaTime": 120,
        "noteNumber": 76,
        "subtype": "noteOff",
        "type": "channel",
        "velocity": 0
      },
      {
        "channel": 0,
        "deltaTime": 0,
        "noteNumber": 74,
        "subtype": "noteOn",
        "type": "channel",
        "velocity": 100
      },
      {
        "channel": 0,
        "deltaTime": 120,
        "noteNumber": 74,
        "subtype": "noteOff",
        "type": "channel",
        "velocity": 0
      },
      {
        "channel": 0,
        "deltaTime": 0,
        "noteNumber": 77,
        "subtype": "noteOn",
        "type": "channel",
        "velocity": 100
      },
      {
        "channel": 0,
        "deltaTime": 120,
        "noteNumber": 77,
        "subtype": "noteOff",
        "type": "channel",
        "velocity": 0
      },
      {
        "channel": 0,
        "deltaTime": 0,
        "noteNumber": 74,
        "subtype": "noteOn",
        "type": "channel",
        "velocity": 100
      },
      {
        "channel": 0,
        "deltaTime": 120,
        "noteNumber": 74,
        "subtype": "noteOff",
        "type": "channel",
        "velocity": 0
      },
      {
        "channel": 0,
        "deltaTime": 0,
        "noteNumber": 72,
        "subtype": "noteOn",
        "type": "channel",
        "velocity": 100
      },
      {
        "channel": 0,
        "deltaTime": 120,
        "noteNumber": 72,
        "subtype": "noteOff",
        "type": "channel",
        "velocity": 0
      },
      {
        "channel": 0,
        "deltaTime": 0,
        "noteNumber": 71,
        "subtype": "noteOn",
        "type": "channel",
        "velocity": 100
      },
      {
        "channel": 0,
        "deltaTime": 120,
        "noteNumber": 71,
        "subtype": "noteOff",
        "type": "channel",
        "velocity": 0
      },
      {
        "channel": 0,
        "deltaTime": 0,
        "noteNumber": 72,
        "subtype": "noteOn",
        "type": "channel",
        "velocity": 100
      },
      {
        "channel": 0,
        "deltaTime": 120,
        "noteNumber": 72,
        "subtype": "noteOff",
        "type": "channel",
        "velocity": 0
      },
      {
        "channel": 0,
        "deltaTime": 0,
        "noteNumber": 74,
        "subtype": "noteOn",
        "type": "channel",
        "velocity": 100
      },
      {
        "channel": 0,
        "deltaTime": 120,
        "noteNumber": 74,
        "subtype": "noteOff",
        "type": "channel",
        "velocity": 0
      },
      {
        "channel": 0,
        "deltaTime": 0,
        "noteNumber": 77,
        "subtype": "noteOn",
        "type": "channel",
        "velocity": 100
      },
      {
        "channel": 0,
        "deltaTime": 120,
        "noteNumber": 77,
        "subtype": "noteOff",
        "type": "channel",
        "velocity": 0
      },
      {
        "channel": 0,
        "deltaTime": 0,
        "noteNumber": 79,
        "subtype": "noteOn",
        "type": "channel",
        "velocity": 100
      },
      {
        "channel": 0,
        "deltaTime": 120,
        "noteNumber": 79,
        "subtype": "noteOff",
        "type": "channel",
        "velocity": 0
      },
      {
        "channel": 0,
        "deltaTime": 0,
        "noteNumber": 86,
        "subtype": "noteOn",
        "type": "channel",
        "velocity": 100
      },
      {
        "channel": 0,
        "deltaTime": 120,
        "noteNumber": 86,
        "subtype": "noteOff",
        "type": "channel",
        "velocity": 0
      },
      {
        "channel": 0,
        "deltaTime": 0,
        "noteNumber": 83,
        "subtype": "noteOn",
        "type": "channel",
        "velocity": 100
      },
      {
        "channel": 0,
        "deltaTime": 120,
        "noteNumber": 83,
        "subtype": "noteOff",
        "type": "channel",
        "velocity": 0
      },
      {
        "channel": 0,
        "deltaTime": 0,
        "noteNumber": 81,
        "subtype": "noteOn",
        "type": "channel",
        "velocity": 100
      },
      {
        "channel": 0,
        "deltaTime": 120,
        "noteNumber": 81,
        "subtype": "noteOff",
        "type": "channel",
        "velocity": 0
      },
      {
        "channel": 0,
        "deltaTime": 0,
        "noteNumber": 79,
        "subtype": "noteOn",
        "type": "channel",
        "velocity": 100
      },
      {
        "channel": 0,
        "deltaTime": 120,
        "noteNumber": 79,
        "subtype": "noteOff",
        "type": "channel",
        "velocity": 0
      },
      {
        "channel": 0,
        "deltaTime": 0,
        "noteNumber": 83,
        "subtype": "noteOn",
        "type": "channel",
        "velocity": 100
      },
      {
        "channel": 0,
        "deltaTime": 120,
        "noteNumber": 83,
        "subtype": "noteOff",
        "type": "channel",
        "velocity": 0
      },
      {
        "channel": 0,
        "deltaTime": 0,
        "noteNumber": 79,
        "subtype": "noteOn",
        "type": "channel",
        "velocity": 100
      },
      {
        "channel": 0,
        "deltaTime": 120,
        "noteNumber": 79,
        "subtype": "noteOff",
        "type": "channel",
        "velocity": 0
      },
      {
        "channel": 0,
        "deltaTime": 0,
        "noteNumber": 77,
        "subtype": "noteOn",
        "type": "channel",
        "velocity": 100
      },
      {
        "channel": 0,
        "deltaTime": 120,
        "noteNumber": 77,
        "subtype": "noteOff",
        "type": "channel",
        "velocity": 0
      },
      {
        "channel": 0,
        "deltaTime": 0,
        "noteNumber": 88,
        "subtype": "noteOn",
        "type": "channel",
        "velocity": 100
      },
      {
        "channel": 0,
        "deltaTime": 120,
        "noteNumber": 88,
        "subtype": "noteOff",
        "type": "channel",
        "velocity": 0
      },
      {
        "channel": 0,
        "deltaTime": 0,
        "noteNumber": 91,
        "subtype": "noteOn",
        "type": "channel",
        "velocity": 100
      },
      {
        "channel": 0,
        "deltaTime": 120,
        "noteNumber": 91,
        "subtype": "noteOff",
        "type": "channel",
        "velocity": 0
      },
      {
        "channel": 0,
        "deltaTime": 0,
        "noteNumber": 88,
        "subtype": "noteOn",
        "type": "channel",
        "velocity": 100
      },
      {
        "channel": 0,
        "deltaTime": 120,
        "noteNumber": 88,
        "subtype": "noteOff",
        "type": "channel",
        "velocity": 0
      },
      {
        "channel": 0,
        "deltaTime": 0,
        "noteNumber": 86,
        "subtype": "noteOn",
        "type": "channel",
        "velocity": 100
      },
      {
        "channel": 0,
        "deltaTime": 120,
        "noteNumber": 86,
        "subtype": "noteOff",
        "type": "channel",
        "velocity": 0
      },
      {
        "channel": 0,
        "deltaTime": 0,
        "noteNumber": 84,
        "subtype": "noteOn",
        "type": "channel",
        "velocity": 100
      },
      {
        "channel": 0,
        "deltaTime": 120,
        "noteNumber": 84,
        "subtype": "noteOff",
        "type": "channel",
        "velocity": 0
      },
      {
        "channel": 0,
        "deltaTime": 0,
        "noteNumber": 88,
        "subtype": "noteOn",
        "type": "channel",
        "velocity": 100
      },
      {
        "channel": 0,
        "deltaTime": 120,
        "noteNumber": 88,
        "subtype": "noteOff",
        "type": "channel",
        "velocity": 0
      },
      {
        "channel": 0,
        "deltaTime": 0,
        "noteNumber": 84,
        "subtype": "noteOn",
        "type": "channel",
        "velocity": 100
      },
      {
        "channel": 0,
        "deltaTime": 120,
        "noteNumber": 84,
        "subtype": "noteOff",
        "type": "channel",
        "velocity": 0
      },
      {
        "channel": 0,
        "deltaTime": 0,
        "noteNumber": 83,
        "subtype": "noteOn",
        "type": "channel",
        "velocity": 100
      },
      {
        "channel": 0,
        "deltaTime": 120,
        "noteNumber": 83,
        "subtype": "noteOff",
        "type": "channel",
        "velocity": 0
      },
      {
        "channel": 0,
        "deltaTime": 0,
        "noteNumber": 81,
        "subtype": "noteOn",
        "type": "channel",
        "velocity": 100
      },
      {
        "channel": 0,
        "deltaTime": 120,
        "noteNumber": 81,
        "subtype": "noteOff",
        "type": "channel",
        "velocity": 0
      },
      {
        "channel": 0,
        "deltaTime": 0,
        "noteNumber": 84,
        "subtype": "noteOn",
        "type": "channel",
        "velocity": 100
      },
      {
        "channel": 0,
        "deltaTime": 120,
        "noteNumber": 84,
        "subtype": "noteOff",
        "type": "channel",
        "velocity": 0
      },
      {
        "channel": 0,
        "deltaTime": 0,
        "noteNumber": 81,
        "subtype": "noteOn",
        "type": "channel",
        "velocity": 100
      },
      {
        "channel": 0,
        "deltaTime": 120,
        "noteNumber": 81,
        "subtype": "noteOff",
        "type": "channel",
        "velocity": 0
      },
      {
        "channel": 0,
        "deltaTime": 0,
        "noteNumber": 79,
        "subtype": "noteOn",
        "type": "channel",
        "velocity": 100
      },
      {
        "channel": 0,
        "deltaTime": 120,
        "noteNumber": 79,
        "subtype": "noteOff",
        "type": "channel",
        "velocity": 0
      },
      {
        "channel": 0,
        "deltaTime": 0,
        "noteNumber": 77,
        "subtype": "noteOn",
        "type": "channel",
        "velocity": 100
      },
      {
        "channel": 0,
        "deltaTime": 120,
        "noteNumber": 77,
        "subtype": "noteOff",
        "type": "channel",
        "velocity": 0
      },
      {
        "channel": 0,
        "deltaTime": 0,
        "noteNumber": 76,
        "subtype": "noteOn",
        "type": "channel",
        "velocity": 100
      },
      {
        "channel": 0,
        "deltaTime": 120,
        "noteNumber": 76,
        "subtype": "noteOff",
        "type": "channel",
        "velocity": 0
      },
      {
        "channel": 0,
        "deltaTime": 0,
        "noteNumber": 81,
        "subtype": "noteOn",
        "type": "channel",
        "velocity": 100
      },
      {
        "channel": 0,
        "deltaTime": 120,
        "noteNumber": 81,
        "subtype": "noteOff",
        "type": "channel",
        "velocity": 0
      },
      {
        "channel": 0,
        "deltaTime": 0,
        "noteNumber": 74,
        "subtype": "noteOn",
        "type": "channel",
        "velocity": 100
      },
      {
        "channel": 0,
        "deltaTime": 120,
        "noteNumber": 74,
        "subtype": "noteOff",
        "type": "channel",
        "velocity": 0
      },
      {
        "channel": 0,
        "deltaTime": 0,
        "noteNumber": 76,
        "subtype": "noteOn",
        "type": "channel",
        "velocity": 100
      },
      {
        "channel": 0,
        "deltaTime": 120,
        "noteNumber": 76,
        "subtype": "noteOff",
        "type": "channel",
        "velocity": 0
      },
      {
        "channel": 0,
        "deltaTime": 0,
        "noteNumber": 71,
        "subtype": "noteOn",
        "type": "channel",
        "velocity": 100
      },
      {
        "channel": 0,
        "deltaTime": 120,
        "noteNumber": 71,
        "subtype": "noteOff",
        "type": "channel",
        "velocity": 0
      },
      {
        "channel": 0,
        "deltaTime": 0,
        "noteNumber": 72,
        "subtype": "noteOn",
        "type": "channel",
        "velocity": 100
      },
      {
        "channel": 0,
        "deltaTime": 120,
        "noteNumber": 72,
        "subtype": "noteOff",
        "type": "channel",
        "velocity": 0
      },
      {
        "channel": 0,
        "deltaTime": 0,
        "noteNumber": 66,
        "subtype": "noteOn",
        "type": "channel",
        "velocity": 100
      },
      {
        "channel": 0,
        "deltaTime": 120,
        "noteNumber": 66,
        "subtype": "noteOff",
        "type": "channel",
        "velocity": 0
      },
      {
        "channel": 0,
        "deltaTime": 0,
        "noteNumber": 67,
        "subtype": "noteOn",
        "type": "channel",
        "velocity": 100
      },
      {
        "channel": 0,
        "deltaTime": 120,
        "noteNumber": 67,
        "subtype": "noteOff",
        "type": "channel",
        "velocity": 0
      },
      {
        "channel": 0,
        "deltaTime": 0,
        "noteNumber": 72,
        "subtype": "noteOn",
        "type": "channel",
        "velocity": 100
      },
      {
        "channel": 0,
        "deltaTime": 120,
        "noteNumber": 72,
        "subtype": "noteOff",
        "type": "channel",
        "velocity": 0
      },
      {
        "channel": 0,
        "deltaTime": 0,
        "noteNumber": 67,
        "subtype": "noteOn",
        "type": "channel",
        "velocity": 100
      },
      {
        "channel": 0,
        "deltaTime": 120,
        "noteNumber": 67,
        "subtype": "noteOff",
        "type": "channel",
        "velocity": 0
      },
      {
        "channel": 0,
        "deltaTime": 0,
        "noteNumber": 71,
        "subtype": "noteOn",
        "type": "channel",
        "velocity": 100
      },
      {
        "channel": 0,
        "deltaTime": 120,
        "noteNumber": 71,
        "subtype": "noteOff",
        "type": "channel",
        "velocity": 0
      },
      {
        "channel": 0,
        "deltaTime": 0,
        "noteNumber": 63,
        "subtype": "noteOn",
        "type": "channel",
        "velocity": 100
      },
      {
        "channel": 0,
        "deltaTime": 120,
        "noteNumber": 63,
        "subtype": "noteOff",
        "type": "channel",
        "velocity": 0
      },
      {
        "channel": 0,
        "deltaTime": 0,
        "noteNumber": 72,
        "subtype": "noteOn",
        "type": "channel",
        "velocity": 100
      },
      {
        "channel": 0,
        "deltaTime": 120,
        "noteNumber": 72,
        "subtype": "noteOff",
        "type": "channel",
        "velocity": 0
      },
      {
        "channel": 0,
        "deltaTime": 0,
        "noteNumber": 81,
        "subtype": "noteOn",
        "type": "channel",
        "velocity": 100
      },
      {
        "channel": 0,
        "deltaTime": 360,
        "noteNumber": 81,
        "subtype": "noteOff",
        "type": "channel",
        "velocity": 0
      },
      {
        "channel": 0,
        "deltaTime": 0,
        "noteNumber": 84,
        "subtype": "noteOn",
        "type": "channel",
        "velocity": 100
      },
      {
        "channel": 0,
        "deltaTime": 120,
        "noteNumber": 84,
        "subtype": "noteOff",
        "type": "channel",
        "velocity": 0
      },
      {
        "channel": 0,
        "deltaTime": 0,
        "noteNumber": 83,
        "subtype": "noteOn",
        "type": "channel",
        "velocity": 100
      },
      {
        "channel": 0,
        "deltaTime": 120,
        "noteNumber": 83,
        "subtype": "noteOff",
        "type": "channel",
        "velocity": 0
      },
      {
        "channel": 0,
        "deltaTime": 0,
        "noteNumber": 81,
        "subtype": "noteOn",
        "type": "channel",
        "velocity": 100
      },
      {
        "channel": 0,
        "deltaTime": 120,
        "noteNumber": 81,
        "subtype": "noteOff",
        "type": "channel",
        "velocity": 0
      },
      {
        "channel": 0,
        "deltaTime": 0,
        "noteNumber": 79,
        "subtype": "noteOn",
        "type": "channel",
        "velocity": 100
      },
      {
        "channel": 0,
        "deltaTime": 120,
        "noteNumber": 79,
        "subtype": "noteOff",
        "type": "channel",
        "velocity": 0
      },
      {
        "channel": 0,
        "deltaTime": 0,
        "noteNumber": 78,
        "subtype": "noteOn",
        "type": "channel",
        "velocity": 100
      },
      {
        "channel": 0,
        "deltaTime": 120,
        "noteNumber": 78,
        "subtype": "noteOff",
        "type": "channel",
        "velocity": 0
      },
      {
        "channel": 0,
        "deltaTime": 0,
        "noteNumber": 76,
        "subtype": "noteOn",
        "type": "channel",
        "velocity": 100
      },
      {
        "channel": 0,
        "deltaTime": 120,
        "noteNumber": 76,
        "subtype": "noteOff",
        "type": "channel",
        "velocity": 0
      },
      {
        "channel": 0,
        "deltaTime": 0,
        "noteNumber": 75,
        "subtype": "noteOn",
        "type": "channel",
        "velocity": 100
      },
      {
        "channel": 0,
        "deltaTime": 120,
        "noteNumber": 75,
        "subtype": "noteOff",
        "type": "channel",
        "velocity": 0
      },
      {
        "channel": 0,
        "deltaTime": 0,
        "noteNumber": 83,
        "subtype": "noteOn",
        "type": "channel",
        "velocity": 100
      },
      {
        "channel": 0,
        "deltaTime": 120,
        "noteNumber": 83,
        "subtype": "noteOff",
        "type": "channel",
        "velocity": 0
      },
      {
        "channel": 0,
        "deltaTime": 0,
        "noteNumber": 81,
        "subtype": "noteOn",
        "type": "channel",
        "velocity": 100
      },
      {
        "channel": 0,
        "deltaTime": 120,
        "noteNumber": 81,
        "subtype": "noteOff",
        "type": "channel",
        "velocity": 0
      },
      {
        "channel": 0,
        "deltaTime": 0,
        "noteNumber": 84,
        "subtype": "noteOn",
        "type": "channel",
        "velocity": 100
      },
      {
        "channel": 0,
        "deltaTime": 120,
        "noteNumber": 84,
        "subtype": "noteOff",
        "type": "channel",
        "velocity": 0
      },
      {
        "channel": 0,
        "deltaTime": 0,
        "noteNumber": 83,
        "subtype": "noteOn",
        "type": "channel",
        "velocity": 100
      },
      {
        "channel": 0,
        "deltaTime": 120,
        "noteNumber": 83,
        "subtype": "noteOff",
        "type": "channel",
        "velocity": 0
      },
      {
        "channel": 0,
        "deltaTime": 0,
        "noteNumber": 81,
        "subtype": "noteOn",
        "type": "channel",
        "velocity": 100
      },
      {
        "channel": 0,
        "deltaTime": 120,
        "noteNumber": 81,
        "subtype": "noteOff",
        "type": "channel",
        "velocity": 0
      },
      {
        "channel": 0,
        "deltaTime": 0,
        "noteNumber": 79,
        "subtype": "noteOn",
        "type": "channel",
        "velocity": 100
      },
      {
        "channel": 0,
        "deltaTime": 120,
        "noteNumber": 79,
        "subtype": "noteOff",
        "type": "channel",
        "velocity": 0
      },
      {
        "channel": 0,
        "deltaTime": 0,
        "noteNumber": 78,
        "subtype": "noteOn",
        "type": "channel",
        "velocity": 100
      },
      {
        "channel": 0,
        "deltaTime": 120,
        "noteNumber": 78,
        "subtype": "noteOff",
        "type": "channel",
        "velocity": 0
      },
      {
        "channel": 0,
        "deltaTime": 0,
        "noteNumber": 76,
        "subtype": "noteOn",
        "type": "channel",
        "velocity": 100
      },
      {
        "channel": 0,
        "deltaTime": 120,
        "noteNumber": 76,
        "subtype": "noteOff",
        "type": "channel",
        "velocity": 0
      },
      {
        "channel": 0,
        "deltaTime": 0,
        "noteNumber": 71,
        "subtype": "noteOn",
        "type": "channel",
        "velocity": 100
      },
      {
        "channel": 0,
        "deltaTime": 240,
        "noteNumber": 71,
        "subtype": "noteOff",
        "type": "channel",
        "velocity": 0
      },
      {
        "channel": 0,
        "deltaTime": 0,
        "noteNumber": 75,
        "subtype": "noteOn",
        "type": "channel",
        "velocity": 100
      },
      {
        "channel": 0,
        "deltaTime": 240,
        "noteNumber": 75,
        "subtype": "noteOff",
        "type": "channel",
        "velocity": 0
      },
      {
        "channel": 0,
        "deltaTime": 0,
        "noteNumber": 76,
        "subtype": "noteOn",
        "type": "channel",
        "velocity": 100
      },
      {
        "channel": 0,
        "deltaTime": 600,
        "noteNumber": 76,
        "subtype": "noteOff",
        "type": "channel",
        "velocity": 0
      },
      {
        "channel": 0,
        "deltaTime": 0,
        "noteNumber": 78,
        "subtype": "noteOn",
        "type": "channel",
        "velocity": 100
      },
      {
        "channel": 0,
        "deltaTime": 120,
        "noteNumber": 78,
        "subtype": "noteOff",
        "type": "channel",
        "velocity": 0
      },
      {
        "channel": 0,
        "deltaTime": 0,
        "noteNumber": 79,
        "subtype": "noteOn",
        "type": "channel",
        "velocity": 100
      },
      {
        "channel": 0,
        "deltaTime": 120,
        "noteNumber": 79,
        "subtype": "noteOff",
        "type": "channel",
        "velocity": 0
      },
      {
        "channel": 0,
        "deltaTime": 0,
        "noteNumber": 81,
        "subtype": "noteOn",
        "type": "channel",
        "velocity": 100
      },
      {
        "channel": 0,
        "deltaTime": 120,
        "noteNumber": 81,
        "subtype": "noteOff",
        "type": "channel",
        "velocity": 0
      },
      {
        "channel": 0,
        "deltaTime": 0,
        "noteNumber": 82,
        "subtype": "noteOn",
        "type": "channel",
        "velocity": 100
      },
      {
        "channel": 0,
        "deltaTime": 120,
        "noteNumber": 82,
        "subtype": "noteOff",
        "type": "channel",
        "velocity": 0
      },
      {
        "channel": 0,
        "deltaTime": 0,
        "noteNumber": 81,
        "subtype": "noteOn",
        "type": "channel",
        "velocity": 100
      },
      {
        "channel": 0,
        "deltaTime": 120,
        "noteNumber": 81,
        "subtype": "noteOff",
        "type": "channel",
        "velocity": 0
      },
      {
        "channel": 0,
        "deltaTime": 0,
        "noteNumber": 82,
        "subtype": "noteOn",
        "type": "channel",
        "velocity": 100
      },
      {
        "channel": 0,
        "deltaTime": 120,
        "noteNumber": 82,
        "subtype": "noteOff",
        "type": "channel",
        "velocity": 0
      },
      {
        "channel": 0,
        "deltaTime": 0,
        "noteNumber": 79,
        "subtype": "noteOn",
        "type": "channel",
        "velocity": 100
      },
      {
        "channel": 0,
        "deltaTime": 120,
        "noteNumber": 79,
        "subtype": "noteOff",
        "type": "channel",
        "velocity": 0
      },
      {
        "channel": 0,
        "deltaTime": 0,
        "noteNumber": 73,
        "subtype": "noteOn",
        "type": "channel",
        "velocity": 100
      },
      {
        "channel": 0,
        "deltaTime": 120,
        "noteNumber": 73,
        "subtype": "noteOff",
        "type": "channel",
        "velocity": 0
      },
      {
        "channel": 0,
        "deltaTime": 0,
        "noteNumber": 74,
        "subtype": "noteOn",
        "type": "channel",
        "velocity": 100
      },
      {
        "channel": 0,
        "deltaTime": 120,
        "noteNumber": 74,
        "subtype": "noteOff",
        "type": "channel",
        "velocity": 0
      },
      {
        "channel": 0,
        "deltaTime": 0,
        "noteNumber": 76,
        "subtype": "noteOn",
        "type": "channel",
        "velocity": 100
      },
      {
        "channel": 0,
        "deltaTime": 120,
        "noteNumber": 76,
        "subtype": "noteOff",
        "type": "channel",
        "velocity": 0
      },
      {
        "channel": 0,
        "deltaTime": 0,
        "noteNumber": 77,
        "subtype": "noteOn",
        "type": "channel",
        "velocity": 100
      },
      {
        "channel": 0,
        "deltaTime": 120,
        "noteNumber": 77,
        "subtype": "noteOff",
        "type": "channel",
        "velocity": 0
      },
      {
        "channel": 0,
        "deltaTime": 0,
        "noteNumber": 79,
        "subtype": "noteOn",
        "type": "channel",
        "velocity": 100
      },
      {
        "channel": 0,
        "deltaTime": 120,
        "noteNumber": 79,
        "subtype": "noteOff",
        "type": "channel",
        "velocity": 0
      },
      {
        "channel": 0,
        "deltaTime": 0,
        "noteNumber": 77,
        "subtype": "noteOn",
        "type": "channel",
        "velocity": 100
      },
      {
        "channel": 0,
        "deltaTime": 120,
        "noteNumber": 77,
        "subtype": "noteOff",
        "type": "channel",
        "velocity": 0
      },
      {
        "channel": 0,
        "deltaTime": 0,
        "noteNumber": 79,
        "subtype": "noteOn",
        "type": "channel",
        "velocity": 100
      },
      {
        "channel": 0,
        "deltaTime": 120,
        "noteNumber": 79,
        "subtype": "noteOff",
        "type": "channel",
        "velocity": 0
      },
      {
        "channel": 0,
        "deltaTime": 0,
        "noteNumber": 76,
        "subtype": "noteOn",
        "type": "channel",
        "velocity": 100
      },
      {
        "channel": 0,
        "deltaTime": 120,
        "noteNumber": 76,
        "subtype": "noteOff",
        "type": "channel",
        "velocity": 0
      },
      {
        "channel": 0,
        "deltaTime": 0,
        "noteNumber": 69,
        "subtype": "noteOn",
        "type": "channel",
        "velocity": 100
      },
      {
        "channel": 0,
        "deltaTime": 120,
        "noteNumber": 69,
        "subtype": "noteOff",
        "type": "channel",
        "velocity": 0
      },
      {
        "channel": 0,
        "deltaTime": 0,
        "noteNumber": 73,
        "subtype": "noteOn",
        "type": "channel",
        "velocity": 100
      },
      {
        "channel": 0,
        "deltaTime": 120,
        "noteNumber": 73,
        "subtype": "noteOff",
        "type": "channel",
        "velocity": 0
      },
      {
        "channel": 0,
        "deltaTime": 0,
        "noteNumber": 76,
        "subtype": "noteOn",
        "type": "channel",
        "velocity": 100
      },
      {
        "channel": 0,
        "deltaTime": 120,
        "noteNumber": 76,
        "subtype": "noteOff",
        "type": "channel",
        "velocity": 0
      },
      {
        "channel": 0,
        "deltaTime": 0,
        "noteNumber": 79,
        "subtype": "noteOn",
        "type": "channel",
        "velocity": 100
      },
      {
        "channel": 0,
        "deltaTime": 120,
        "noteNumber": 79,
        "subtype": "noteOff",
        "type": "channel",
        "velocity": 0
      },
      {
        "channel": 0,
        "deltaTime": 0,
        "noteNumber": 77,
        "subtype": "noteOn",
        "type": "channel",
        "velocity": 100
      },
      {
        "channel": 0,
        "deltaTime": 240,
        "noteNumber": 77,
        "subtype": "noteOff",
        "type": "channel",
        "velocity": 0
      },
      {
        "channel": 0,
        "deltaTime": 0,
        "noteNumber": 62,
        "subtype": "noteOn",
        "type": "channel",
        "velocity": 100
      },
      {
        "channel": 0,
        "deltaTime": 120,
        "noteNumber": 62,
        "subtype": "noteOff",
        "type": "channel",
        "velocity": 0
      },
      {
        "channel": 0,
        "deltaTime": 0,
        "noteNumber": 64,
        "subtype": "noteOn",
        "type": "channel",
        "velocity": 100
      },
      {
        "channel": 0,
        "deltaTime": 120,
        "noteNumber": 64,
        "subtype": "noteOff",
        "type": "channel",
        "velocity": 0
      },
      {
        "channel": 0,
        "deltaTime": 0,
        "noteNumber": 65,
        "subtype": "noteOn",
        "type": "channel",
        "velocity": 100
      },
      {
        "channel": 0,
        "deltaTime": 120,
        "noteNumber": 65,
        "subtype": "noteOff",
        "type": "channel",
        "velocity": 0
      },
      {
        "channel": 0,
        "deltaTime": 0,
        "noteNumber": 69,
        "subtype": "noteOn",
        "type": "channel",
        "velocity": 100
      },
      {
        "channel": 0,
        "deltaTime": 120,
        "noteNumber": 69,
        "subtype": "noteOff",
        "type": "channel",
        "velocity": 0
      },
      {
        "channel": 0,
        "deltaTime": 0,
        "noteNumber": 74,
        "subtype": "noteOn",
        "type": "channel",
        "velocity": 100
      },
      {
        "channel": 0,
        "deltaTime": 120,
        "noteNumber": 74,
        "subtype": "noteOff",
        "type": "channel",
        "velocity": 0
      },
      {
        "channel": 0,
        "deltaTime": 0,
        "noteNumber": 76,
        "subtype": "noteOn",
        "type": "channel",
        "velocity": 100
      },
      {
        "channel": 0,
        "deltaTime": 120,
        "noteNumber": 76,
        "subtype": "noteOff",
        "type": "channel",
        "velocity": 0
      },
      {
        "channel": 0,
        "deltaTime": 0,
        "noteNumber": 77,
        "subtype": "noteOn",
        "type": "channel",
        "velocity": 100
      },
      {
        "channel": 0,
        "deltaTime": 120,
        "noteNumber": 77,
        "subtype": "noteOff",
        "type": "channel",
        "velocity": 0
      },
      {
        "channel": 0,
        "deltaTime": 0,
        "noteNumber": 76,
        "subtype": "noteOn",
        "type": "channel",
        "velocity": 100
      },
      {
        "channel": 0,
        "deltaTime": 120,
        "noteNumber": 76,
        "subtype": "noteOff",
        "type": "channel",
        "velocity": 0
      },
      {
        "channel": 0,
        "deltaTime": 0,
        "noteNumber": 77,
        "subtype": "noteOn",
        "type": "channel",
        "velocity": 100
      },
      {
        "channel": 0,
        "deltaTime": 120,
        "noteNumber": 77,
        "subtype": "noteOff",
        "type": "channel",
        "velocity": 0
      },
      {
        "channel": 0,
        "deltaTime": 0,
        "noteNumber": 74,
        "subtype": "noteOn",
        "type": "channel",
        "velocity": 100
      },
      {
        "channel": 0,
        "deltaTime": 120,
        "noteNumber": 74,
        "subtype": "noteOff",
        "type": "channel",
        "velocity": 0
      },
      {
        "channel": 0,
        "deltaTime": 0,
        "noteNumber": 68,
        "subtype": "noteOn",
        "type": "channel",
        "velocity": 100
      },
      {
        "channel": 0,
        "deltaTime": 120,
        "noteNumber": 68,
        "subtype": "noteOff",
        "type": "channel",
        "velocity": 0
      },
      {
        "channel": 0,
        "deltaTime": 0,
        "noteNumber": 69,
        "subtype": "noteOn",
        "type": "channel",
        "velocity": 100
      },
      {
        "channel": 0,
        "deltaTime": 120,
        "noteNumber": 69,
        "subtype": "noteOff",
        "type": "channel",
        "velocity": 0
      },
      {
        "channel": 0,
        "deltaTime": 0,
        "noteNumber": 71,
        "subtype": "noteOn",
        "type": "channel",
        "velocity": 100
      },
      {
        "channel": 0,
        "deltaTime": 120,
        "noteNumber": 71,
        "subtype": "noteOff",
        "type": "channel",
        "velocity": 0
      },
      {
        "channel": 0,
        "deltaTime": 0,
        "noteNumber": 72,
        "subtype": "noteOn",
        "type": "channel",
        "velocity": 100
      },
      {
        "channel": 0,
        "deltaTime": 120,
        "noteNumber": 72,
        "subtype": "noteOff",
        "type": "channel",
        "velocity": 0
      },
      {
        "channel": 0,
        "deltaTime": 0,
        "noteNumber": 74,
        "subtype": "noteOn",
        "type": "channel",
        "velocity": 100
      },
      {
        "channel": 0,
        "deltaTime": 120,
        "noteNumber": 74,
        "subtype": "noteOff",
        "type": "channel",
        "velocity": 0
      },
      {
        "channel": 0,
        "deltaTime": 0,
        "noteNumber": 72,
        "subtype": "noteOn",
        "type": "channel",
        "velocity": 100
      },
      {
        "channel": 0,
        "deltaTime": 120,
        "noteNumber": 72,
        "subtype": "noteOff",
        "type": "channel",
        "velocity": 0
      },
      {
        "channel": 0,
        "deltaTime": 0,
        "noteNumber": 74,
        "subtype": "noteOn",
        "type": "channel",
        "velocity": 100
      },
      {
        "channel": 0,
        "deltaTime": 120,
        "noteNumber": 74,
        "subtype": "noteOff",
        "type": "channel",
        "velocity": 0
      },
      {
        "channel": 0,
        "deltaTime": 0,
        "noteNumber": 71,
        "subtype": "noteOn",
        "type": "channel",
        "velocity": 100
      },
      {
        "channel": 0,
        "deltaTime": 120,
        "noteNumber": 71,
        "subtype": "noteOff",
        "type": "channel",
        "velocity": 0
      },
      {
        "channel": 0,
        "deltaTime": 0,
        "noteNumber": 64,
        "subtype": "noteOn",
        "type": "channel",
        "velocity": 100
      },
      {
        "channel": 0,
        "deltaTime": 120,
        "noteNumber": 64,
        "subtype": "noteOff",
        "type": "channel",
        "velocity": 0
      },
      {
        "channel": 0,
        "deltaTime": 0,
        "noteNumber": 68,
        "subtype": "noteOn",
        "type": "channel",
        "velocity": 100
      },
      {
        "channel": 0,
        "deltaTime": 120,
        "noteNumber": 68,
        "subtype": "noteOff",
        "type": "channel",
        "velocity": 0
      },
      {
        "channel": 0,
        "deltaTime": 0,
        "noteNumber": 71,
        "subtype": "noteOn",
        "type": "channel",
        "velocity": 100
      },
      {
        "channel": 0,
        "deltaTime": 120,
        "noteNumber": 71,
        "subtype": "noteOff",
        "type": "channel",
        "velocity": 0
      },
      {
        "channel": 0,
        "deltaTime": 0,
        "noteNumber": 74,
        "subtype": "noteOn",
        "type": "channel",
        "velocity": 100
      },
      {
        "channel": 0,
        "deltaTime": 120,
        "noteNumber": 74,
        "subtype": "noteOff",
        "type": "channel",
        "velocity": 0
      },
      {
        "channel": 0,
        "deltaTime": 0,
        "noteNumber": 72,
        "subtype": "noteOn",
        "type": "channel",
        "velocity": 100
      },
      {
        "channel": 0,
        "deltaTime": 120,
        "noteNumber": 72,
        "subtype": "noteOff",
        "type": "channel",
        "velocity": 0
      },
      {
        "channel": 0,
        "deltaTime": 0,
        "noteNumber": 71,
        "subtype": "noteOn",
        "type": "channel",
        "velocity": 100
      },
      {
        "channel": 0,
        "deltaTime": 120,
        "noteNumber": 71,
        "subtype": "noteOff",
        "type": "channel",
        "velocity": 0
      },
      {
        "channel": 0,
        "deltaTime": 0,
        "noteNumber": 69,
        "subtype": "noteOn",
        "type": "channel",
        "velocity": 100
      },
      {
        "channel": 0,
        "deltaTime": 120,
        "noteNumber": 69,
        "subtype": "noteOff",
        "type": "channel",
        "velocity": 0
      },
      {
        "channel": 0,
        "deltaTime": 0,
        "noteNumber": 71,
        "subtype": "noteOn",
        "type": "channel",
        "velocity": 100
      },
      {
        "channel": 0,
        "deltaTime": 120,
        "noteNumber": 71,
        "subtype": "noteOff",
        "type": "channel",
        "velocity": 0
      },
      {
        "channel": 0,
        "deltaTime": 0,
        "noteNumber": 72,
        "subtype": "noteOn",
        "type": "channel",
        "velocity": 100
      },
      {
        "channel": 0,
        "deltaTime": 120,
        "noteNumber": 72,
        "subtype": "noteOff",
        "type": "channel",
        "velocity": 0
      },
      {
        "channel": 0,
        "deltaTime": 0,
        "noteNumber": 76,
        "subtype": "noteOn",
        "type": "channel",
        "velocity": 100
      },
      {
        "channel": 0,
        "deltaTime": 120,
        "noteNumber": 76,
        "subtype": "noteOff",
        "type": "channel",
        "velocity": 0
      },
      {
        "channel": 0,
        "deltaTime": 0,
        "noteNumber": 81,
        "subtype": "noteOn",
        "type": "channel",
        "velocity": 100
      },
      {
        "channel": 0,
        "deltaTime": 120,
        "noteNumber": 81,
        "subtype": "noteOff",
        "type": "channel",
        "velocity": 0
      },
      {
        "channel": 0,
        "deltaTime": 0,
        "noteNumber": 83,
        "subtype": "noteOn",
        "type": "channel",
        "velocity": 100
      },
      {
        "channel": 0,
        "deltaTime": 120,
        "noteNumber": 83,
        "subtype": "noteOff",
        "type": "channel",
        "velocity": 0
      },
      {
        "channel": 0,
        "deltaTime": 0,
        "noteNumber": 84,
        "subtype": "noteOn",
        "type": "channel",
        "velocity": 100
      },
      {
        "channel": 0,
        "deltaTime": 120,
        "noteNumber": 84,
        "subtype": "noteOff",
        "type": "channel",
        "velocity": 0
      },
      {
        "channel": 0,
        "deltaTime": 0,
        "noteNumber": 83,
        "subtype": "noteOn",
        "type": "channel",
        "velocity": 100
      },
      {
        "channel": 0,
        "deltaTime": 120,
        "noteNumber": 83,
        "subtype": "noteOff",
        "type": "channel",
        "velocity": 0
      },
      {
        "channel": 0,
        "deltaTime": 0,
        "noteNumber": 84,
        "subtype": "noteOn",
        "type": "channel",
        "velocity": 100
      },
      {
        "channel": 0,
        "deltaTime": 120,
        "noteNumber": 84,
        "subtype": "noteOff",
        "type": "channel",
        "velocity": 0
      },
      {
        "channel": 0,
        "deltaTime": 0,
        "noteNumber": 81,
        "subtype": "noteOn",
        "type": "channel",
        "velocity": 100
      },
      {
        "channel": 0,
        "deltaTime": 120,
        "noteNumber": 81,
        "subtype": "noteOff",
        "type": "channel",
        "velocity": 0
      },
      {
        "channel": 0,
        "deltaTime": 0,
        "noteNumber": 75,
        "subtype": "noteOn",
        "type": "channel",
        "velocity": 100
      },
      {
        "channel": 0,
        "deltaTime": 120,
        "noteNumber": 75,
        "subtype": "noteOff",
        "type": "channel",
        "velocity": 0
      },
      {
        "channel": 0,
        "deltaTime": 0,
        "noteNumber": 76,
        "subtype": "noteOn",
        "type": "channel",
        "velocity": 100
      },
      {
        "channel": 0,
        "deltaTime": 120,
        "noteNumber": 76,
        "subtype": "noteOff",
        "type": "channel",
        "velocity": 0
      },
      {
        "channel": 0,
        "deltaTime": 0,
        "noteNumber": 78,
        "subtype": "noteOn",
        "type": "channel",
        "velocity": 100
      },
      {
        "channel": 0,
        "deltaTime": 120,
        "noteNumber": 78,
        "subtype": "noteOff",
        "type": "channel",
        "velocity": 0
      },
      {
        "channel": 0,
        "deltaTime": 0,
        "noteNumber": 79,
        "subtype": "noteOn",
        "type": "channel",
        "velocity": 100
      },
      {
        "channel": 0,
        "deltaTime": 120,
        "noteNumber": 79,
        "subtype": "noteOff",
        "type": "channel",
        "velocity": 0
      },
      {
        "channel": 0,
        "deltaTime": 0,
        "noteNumber": 81,
        "subtype": "noteOn",
        "type": "channel",
        "velocity": 100
      },
      {
        "channel": 0,
        "deltaTime": 120,
        "noteNumber": 81,
        "subtype": "noteOff",
        "type": "channel",
        "velocity": 0
      },
      {
        "channel": 0,
        "deltaTime": 0,
        "noteNumber": 79,
        "subtype": "noteOn",
        "type": "channel",
        "velocity": 100
      },
      {
        "channel": 0,
        "deltaTime": 120,
        "noteNumber": 79,
        "subtype": "noteOff",
        "type": "channel",
        "velocity": 0
      },
      {
        "channel": 0,
        "deltaTime": 0,
        "noteNumber": 81,
        "subtype": "noteOn",
        "type": "channel",
        "velocity": 100
      },
      {
        "channel": 0,
        "deltaTime": 120,
        "noteNumber": 81,
        "subtype": "noteOff",
        "type": "channel",
        "velocity": 0
      },
      {
        "channel": 0,
        "deltaTime": 0,
        "noteNumber": 78,
        "subtype": "noteOn",
        "type": "channel",
        "velocity": 100
      },
      {
        "channel": 0,
        "deltaTime": 120,
        "noteNumber": 78,
        "subtype": "noteOff",
        "type": "channel",
        "velocity": 0
      },
      {
        "channel": 0,
        "deltaTime": 0,
        "noteNumber": 71,
        "subtype": "noteOn",
        "type": "channel",
        "velocity": 100
      },
      {
        "channel": 0,
        "deltaTime": 120,
        "noteNumber": 71,
        "subtype": "noteOff",
        "type": "channel",
        "velocity": 0
      },
      {
        "channel": 0,
        "deltaTime": 0,
        "noteNumber": 75,
        "subtype": "noteOn",
        "type": "channel",
        "velocity": 100
      },
      {
        "channel": 0,
        "deltaTime": 120,
        "noteNumber": 75,
        "subtype": "noteOff",
        "type": "channel",
        "velocity": 0
      },
      {
        "channel": 0,
        "deltaTime": 0,
        "noteNumber": 78,
        "subtype": "noteOn",
        "type": "channel",
        "velocity": 100
      },
      {
        "channel": 0,
        "deltaTime": 120,
        "noteNumber": 78,
        "subtype": "noteOff",
        "type": "channel",
        "velocity": 0
      },
      {
        "channel": 0,
        "deltaTime": 0,
        "noteNumber": 81,
        "subtype": "noteOn",
        "type": "channel",
        "velocity": 100
      },
      {
        "channel": 0,
        "deltaTime": 120,
        "noteNumber": 81,
        "subtype": "noteOff",
        "type": "channel",
        "velocity": 0
      },
      {
        "channel": 0,
        "deltaTime": 0,
        "noteNumber": 80,
        "subtype": "noteOn",
        "type": "channel",
        "velocity": 100
      },
      {
        "channel": 0,
        "deltaTime": 120,
        "noteNumber": 80,
        "subtype": "noteOff",
        "type": "channel",
        "velocity": 0
      },
      {
        "channel": 0,
        "deltaTime": 0,
        "noteNumber": 81,
        "subtype": "noteOn",
        "type": "channel",
        "velocity": 100
      },
      {
        "channel": 0,
        "deltaTime": 120,
        "noteNumber": 81,
        "subtype": "noteOff",
        "type": "channel",
        "velocity": 0
      },
      {
        "channel": 0,
        "deltaTime": 0,
        "noteNumber": 83,
        "subtype": "noteOn",
        "type": "channel",
        "velocity": 100
      },
      {
        "channel": 0,
        "deltaTime": 120,
        "noteNumber": 83,
        "subtype": "noteOff",
        "type": "channel",
        "velocity": 0
      },
      {
        "channel": 0,
        "deltaTime": 0,
        "noteNumber": 80,
        "subtype": "noteOn",
        "type": "channel",
        "velocity": 100
      },
      {
        "channel": 0,
        "deltaTime": 120,
        "noteNumber": 80,
        "subtype": "noteOff",
        "type": "channel",
        "velocity": 0
      },
      {
        "channel": 0,
        "deltaTime": 0,
        "noteNumber": 76,
        "subtype": "noteOn",
        "type": "channel",
        "velocity": 100
      },
      {
        "channel": 0,
        "deltaTime": 120,
        "noteNumber": 76,
        "subtype": "noteOff",
        "type": "channel",
        "velocity": 0
      },
      {
        "channel": 0,
        "deltaTime": 0,
        "noteNumber": 80,
        "subtype": "noteOn",
        "type": "channel",
        "velocity": 100
      },
      {
        "channel": 0,
        "deltaTime": 120,
        "noteNumber": 80,
        "subtype": "noteOff",
        "type": "channel",
        "velocity": 0
      },
      {
        "channel": 0,
        "deltaTime": 0,
        "noteNumber": 74,
        "subtype": "noteOn",
        "type": "channel",
        "velocity": 100
      },
      {
        "channel": 0,
        "deltaTime": 120,
        "noteNumber": 74,
        "subtype": "noteOff",
        "type": "channel",
        "velocity": 0
      },
      {
        "channel": 0,
        "deltaTime": 0,
        "noteNumber": 80,
        "subtype": "noteOn",
        "type": "channel",
        "velocity": 100
      },
      {
        "channel": 0,
        "deltaTime": 120,
        "noteNumber": 80,
        "subtype": "noteOff",
        "type": "channel",
        "velocity": 0
      },
      {
        "channel": 0,
        "deltaTime": 0,
        "noteNumber": 72,
        "subtype": "noteOn",
        "type": "channel",
        "velocity": 100
      },
      {
        "channel": 0,
        "deltaTime": 120,
        "noteNumber": 72,
        "subtype": "noteOff",
        "type": "channel",
        "velocity": 0
      },
      {
        "channel": 0,
        "deltaTime": 0,
        "noteNumber": 80,
        "subtype": "noteOn",
        "type": "channel",
        "velocity": 100
      },
      {
        "channel": 0,
        "deltaTime": 120,
        "noteNumber": 80,
        "subtype": "noteOff",
        "type": "channel",
        "velocity": 0
      },
      {
        "channel": 0,
        "deltaTime": 0,
        "noteNumber": 71,
        "subtype": "noteOn",
        "type": "channel",
        "velocity": 100
      },
      {
        "channel": 0,
        "deltaTime": 120,
        "noteNumber": 71,
        "subtype": "noteOff",
        "type": "channel",
        "velocity": 0
      },
      {
        "channel": 0,
        "deltaTime": 0,
        "noteNumber": 80,
        "subtype": "noteOn",
        "type": "channel",
        "velocity": 100
      },
      {
        "channel": 0,
        "deltaTime": 120,
        "noteNumber": 80,
        "subtype": "noteOff",
        "type": "channel",
        "velocity": 0
      },
      {
        "channel": 0,
        "deltaTime": 0,
        "noteNumber": 72,
        "subtype": "noteOn",
        "type": "channel",
        "velocity": 100
      },
      {
        "channel": 0,
        "deltaTime": 120,
        "noteNumber": 72,
        "subtype": "noteOff",
        "type": "channel",
        "velocity": 0
      },
      {
        "channel": 0,
        "deltaTime": 0,
        "noteNumber": 76,
        "subtype": "noteOn",
        "type": "channel",
        "velocity": 100
      },
      {
        "channel": 0,
        "deltaTime": 120,
        "noteNumber": 76,
        "subtype": "noteOff",
        "type": "channel",
        "velocity": 0
      },
      {
        "channel": 0,
        "deltaTime": 0,
        "noteNumber": 81,
        "subtype": "noteOn",
        "type": "channel",
        "velocity": 100
      },
      {
        "channel": 0,
        "deltaTime": 120,
        "noteNumber": 81,
        "subtype": "noteOff",
        "type": "channel",
        "velocity": 0
      },
      {
        "channel": 0,
        "deltaTime": 0,
        "noteNumber": 76,
        "subtype": "noteOn",
        "type": "channel",
        "velocity": 100
      },
      {
        "channel": 0,
        "deltaTime": 120,
        "noteNumber": 76,
        "subtype": "noteOff",
        "type": "channel",
        "velocity": 0
      },
      {
        "channel": 0,
        "deltaTime": 0,
        "noteNumber": 72,
        "subtype": "noteOn",
        "type": "channel",
        "velocity": 100
      },
      {
        "channel": 0,
        "deltaTime": 120,
        "noteNumber": 72,
        "subtype": "noteOff",
        "type": "channel",
        "velocity": 0
      },
      {
        "channel": 0,
        "deltaTime": 0,
        "noteNumber": 76,
        "subtype": "noteOn",
        "type": "channel",
        "velocity": 100
      },
      {
        "channel": 0,
        "deltaTime": 120,
        "noteNumber": 76,
        "subtype": "noteOff",
        "type": "channel",
        "velocity": 0
      },
      {
        "channel": 0,
        "deltaTime": 0,
        "noteNumber": 71,
        "subtype": "noteOn",
        "type": "channel",
        "velocity": 100
      },
      {
        "channel": 0,
        "deltaTime": 120,
        "noteNumber": 71,
        "subtype": "noteOff",
        "type": "channel",
        "velocity": 0
      },
      {
        "channel": 0,
        "deltaTime": 0,
        "noteNumber": 76,
        "subtype": "noteOn",
        "type": "channel",
        "velocity": 100
      },
      {
        "channel": 0,
        "deltaTime": 120,
        "noteNumber": 76,
        "subtype": "noteOff",
        "type": "channel",
        "velocity": 0
      },
      {
        "channel": 0,
        "deltaTime": 0,
        "noteNumber": 72,
        "subtype": "noteOn",
        "type": "channel",
        "velocity": 100
      },
      {
        "channel": 0,
        "deltaTime": 120,
        "noteNumber": 72,
        "subtype": "noteOff",
        "type": "channel",
        "velocity": 0
      },
      {
        "channel": 0,
        "deltaTime": 0,
        "noteNumber": 76,
        "subtype": "noteOn",
        "type": "channel",
        "velocity": 100
      },
      {
        "channel": 0,
        "deltaTime": 120,
        "noteNumber": 76,
        "subtype": "noteOff",
        "type": "channel",
        "velocity": 0
      },
      {
        "channel": 0,
        "deltaTime": 0,
        "noteNumber": 69,
        "subtype": "noteOn",
        "type": "channel",
        "velocity": 100
      },
      {
        "channel": 0,
        "deltaTime": 120,
        "noteNumber": 69,
        "subtype": "noteOff",
        "type": "channel",
        "velocity": 0
      },
      {
        "channel": 0,
        "deltaTime": 0,
        "noteNumber": 76,
        "subtype": "noteOn",
        "type": "channel",
        "velocity": 100
      },
      {
        "channel": 0,
        "deltaTime": 120,
        "noteNumber": 76,
        "subtype": "noteOff",
        "type": "channel",
        "velocity": 0
      },
      {
        "channel": 0,
        "deltaTime": 0,
        "noteNumber": 68,
        "subtype": "noteOn",
        "type": "channel",
        "velocity": 100
      },
      {
        "channel": 0,
        "deltaTime": 120,
        "noteNumber": 68,
        "subtype": "noteOff",
        "type": "channel",
        "velocity": 0
      },
      {
        "channel": 0,
        "deltaTime": 0,
        "noteNumber": 76,
        "subtype": "noteOn",
        "type": "channel",
        "velocity": 100
      },
      {
        "channel": 0,
        "deltaTime": 120,
        "noteNumber": 76,
        "subtype": "noteOff",
        "type": "channel",
        "velocity": 0
      },
      {
        "channel": 0,
        "deltaTime": 0,
        "noteNumber": 83,
        "subtype": "noteOn",
        "type": "channel",
        "velocity": 100
      },
      {
        "channel": 0,
        "deltaTime": 120,
        "noteNumber": 83,
        "subtype": "noteOff",
        "type": "channel",
        "velocity": 0
      },
      {
        "channel": 0,
        "deltaTime": 0,
        "noteNumber": 76,
        "subtype": "noteOn",
        "type": "channel",
        "velocity": 100
      },
      {
        "channel": 0,
        "deltaTime": 120,
        "noteNumber": 76,
        "subtype": "noteOff",
        "type": "channel",
        "velocity": 0
      },
      {
        "channel": 0,
        "deltaTime": 0,
        "noteNumber": 68,
        "subtype": "noteOn",
        "type": "channel",
        "velocity": 100
      },
      {
        "channel": 0,
        "deltaTime": 120,
        "noteNumber": 68,
        "subtype": "noteOff",
        "type": "channel",
        "velocity": 0
      },
      {
        "channel": 0,
        "deltaTime": 0,
        "noteNumber": 76,
        "subtype": "noteOn",
        "type": "channel",
        "velocity": 100
      },
      {
        "channel": 0,
        "deltaTime": 120,
        "noteNumber": 76,
        "subtype": "noteOff",
        "type": "channel",
        "velocity": 0
      },
      {
        "channel": 0,
        "deltaTime": 0,
        "noteNumber": 66,
        "subtype": "noteOn",
        "type": "channel",
        "velocity": 100
      },
      {
        "channel": 0,
        "deltaTime": 120,
        "noteNumber": 66,
        "subtype": "noteOff",
        "type": "channel",
        "velocity": 0
      },
      {
        "channel": 0,
        "deltaTime": 0,
        "noteNumber": 76,
        "subtype": "noteOn",
        "type": "channel",
        "velocity": 100
      },
      {
        "channel": 0,
        "deltaTime": 120,
        "noteNumber": 76,
        "subtype": "noteOff",
        "type": "channel",
        "velocity": 0
      },
      {
        "channel": 0,
        "deltaTime": 0,
        "noteNumber": 68,
        "subtype": "noteOn",
        "type": "channel",
        "velocity": 100
      },
      {
        "channel": 0,
        "deltaTime": 120,
        "noteNumber": 68,
        "subtype": "noteOff",
        "type": "channel",
        "velocity": 0
      },
      {
        "channel": 0,
        "deltaTime": 0,
        "noteNumber": 76,
        "subtype": "noteOn",
        "type": "channel",
        "velocity": 100
      },
      {
        "channel": 0,
        "deltaTime": 120,
        "noteNumber": 76,
        "subtype": "noteOff",
        "type": "channel",
        "velocity": 0
      },
      {
        "channel": 0,
        "deltaTime": 0,
        "noteNumber": 64,
        "subtype": "noteOn",
        "type": "channel",
        "velocity": 100
      },
      {
        "channel": 0,
        "deltaTime": 120,
        "noteNumber": 64,
        "subtype": "noteOff",
        "type": "channel",
        "velocity": 0
      },
      {
        "channel": 0,
        "deltaTime": 0,
        "noteNumber": 76,
        "subtype": "noteOn",
        "type": "channel",
        "velocity": 100
      },
      {
        "channel": 0,
        "deltaTime": 120,
        "noteNumber": 76,
        "subtype": "noteOff",
        "type": "channel",
        "velocity": 0
      },
      {
        "channel": 0,
        "deltaTime": 0,
        "noteNumber": 69,
        "subtype": "noteOn",
        "type": "channel",
        "velocity": 100
      },
      {
        "channel": 0,
        "deltaTime": 120,
        "noteNumber": 69,
        "subtype": "noteOff",
        "type": "channel",
        "velocity": 0
      },
      {
        "channel": 0,
        "deltaTime": 0,
        "noteNumber": 76,
        "subtype": "noteOn",
        "type": "channel",
        "velocity": 100
      },
      {
        "channel": 0,
        "deltaTime": 120,
        "noteNumber": 76,
        "subtype": "noteOff",
        "type": "channel",
        "velocity": 0
      },
      {
        "channel": 0,
        "deltaTime": 0,
        "noteNumber": 84,
        "subtype": "noteOn",
        "type": "channel",
        "velocity": 100
      },
      {
        "channel": 0,
        "deltaTime": 120,
        "noteNumber": 84,
        "subtype": "noteOff",
        "type": "channel",
        "velocity": 0
      },
      {
        "channel": 0,
        "deltaTime": 0,
        "noteNumber": 76,
        "subtype": "noteOn",
        "type": "channel",
        "velocity": 100
      },
      {
        "channel": 0,
        "deltaTime": 120,
        "noteNumber": 76,
        "subtype": "noteOff",
        "type": "channel",
        "velocity": 0
      },
      {
        "channel": 0,
        "deltaTime": 0,
        "noteNumber": 77,
        "subtype": "noteOn",
        "type": "channel",
        "velocity": 100
      },
      {
        "channel": 0,
        "deltaTime": 120,
        "noteNumber": 77,
        "subtype": "noteOff",
        "type": "channel",
        "velocity": 0
      },
      {
        "channel": 0,
        "deltaTime": 0,
        "noteNumber": 74,
        "subtype": "noteOn",
        "type": "channel",
        "velocity": 100
      },
      {
        "channel": 0,
        "deltaTime": 120,
        "noteNumber": 74,
        "subtype": "noteOff",
        "type": "channel",
        "velocity": 0
      },
      {
        "channel": 0,
        "deltaTime": 0,
        "noteNumber": 81,
        "subtype": "noteOn",
        "type": "channel",
        "velocity": 100
      },
      {
        "channel": 0,
        "deltaTime": 120,
        "noteNumber": 81,
        "subtype": "noteOff",
        "type": "channel",
        "velocity": 0
      },
      {
        "channel": 0,
        "deltaTime": 0,
        "noteNumber": 74,
        "subtype": "noteOn",
        "type": "channel",
        "velocity": 100
      },
      {
        "channel": 0,
        "deltaTime": 120,
        "noteNumber": 74,
        "subtype": "noteOff",
        "type": "channel",
        "velocity": 0
      },
      {
        "channel": 0,
        "deltaTime": 0,
        "noteNumber": 84,
        "subtype": "noteOn",
        "type": "channel",
        "velocity": 100
      },
      {
        "channel": 0,
        "deltaTime": 120,
        "noteNumber": 84,
        "subtype": "noteOff",
        "type": "channel",
        "velocity": 0
      },
      {
        "channel": 0,
        "deltaTime": 0,
        "noteNumber": 74,
        "subtype": "noteOn",
        "type": "channel",
        "velocity": 100
      },
      {
        "channel": 0,
        "deltaTime": 120,
        "noteNumber": 74,
        "subtype": "noteOff",
        "type": "channel",
        "velocity": 0
      },
      {
        "channel": 0,
        "deltaTime": 0,
        "noteNumber": 81,
        "subtype": "noteOn",
        "type": "channel",
        "velocity": 100
      },
      {
        "channel": 0,
        "deltaTime": 120,
        "noteNumber": 81,
        "subtype": "noteOff",
        "type": "channel",
        "velocity": 0
      },
      {
        "channel": 0,
        "deltaTime": 0,
        "noteNumber": 74,
        "subtype": "noteOn",
        "type": "channel",
        "velocity": 100
      },
      {
        "channel": 0,
        "deltaTime": 120,
        "noteNumber": 74,
        "subtype": "noteOff",
        "type": "channel",
        "velocity": 0
      },
      {
        "channel": 0,
        "deltaTime": 0,
        "noteNumber": 83,
        "subtype": "noteOn",
        "type": "channel",
        "velocity": 100
      },
      {
        "channel": 0,
        "deltaTime": 120,
        "noteNumber": 83,
        "subtype": "noteOff",
        "type": "channel",
        "velocity": 0
      },
      {
        "channel": 0,
        "deltaTime": 0,
        "noteNumber": 74,
        "subtype": "noteOn",
        "type": "channel",
        "velocity": 100
      },
      {
        "channel": 0,
        "deltaTime": 120,
        "noteNumber": 74,
        "subtype": "noteOff",
        "type": "channel",
        "velocity": 0
      },
      {
        "channel": 0,
        "deltaTime": 0,
        "noteNumber": 67,
        "subtype": "noteOn",
        "type": "channel",
        "velocity": 100
      },
      {
        "channel": 0,
        "deltaTime": 120,
        "noteNumber": 67,
        "subtype": "noteOff",
        "type": "channel",
        "velocity": 0
      },
      {
        "channel": 0,
        "deltaTime": 0,
        "noteNumber": 74,
        "subtype": "noteOn",
        "type": "channel",
        "velocity": 100
      },
      {
        "channel": 0,
        "deltaTime": 120,
        "noteNumber": 74,
        "subtype": "noteOff",
        "type": "channel",
        "velocity": 0
      },
      {
        "channel": 0,
        "deltaTime": 0,
        "noteNumber": 76,
        "subtype": "noteOn",
        "type": "channel",
        "velocity": 100
      },
      {
        "channel": 0,
        "deltaTime": 120,
        "noteNumber": 76,
        "subtype": "noteOff",
        "type": "channel",
        "velocity": 0
      },
      {
        "channel": 0,
        "deltaTime": 0,
        "noteNumber": 72,
        "subtype": "noteOn",
        "type": "channel",
        "velocity": 100
      },
      {
        "channel": 0,
        "deltaTime": 120,
        "noteNumber": 72,
        "subtype": "noteOff",
        "type": "channel",
        "velocity": 0
      },
      {
        "channel": 0,
        "deltaTime": 0,
        "noteNumber": 79,
        "subtype": "noteOn",
        "type": "channel",
        "velocity": 100
      },
      {
        "channel": 0,
        "deltaTime": 120,
        "noteNumber": 79,
        "subtype": "noteOff",
        "type": "channel",
        "velocity": 0
      },
      {
        "channel": 0,
        "deltaTime": 0,
        "noteNumber": 72,
        "subtype": "noteOn",
        "type": "channel",
        "velocity": 100
      },
      {
        "channel": 0,
        "deltaTime": 120,
        "noteNumber": 72,
        "subtype": "noteOff",
        "type": "channel",
        "velocity": 0
      },
      {
        "channel": 0,
        "deltaTime": 0,
        "noteNumber": 82,
        "subtype": "noteOn",
        "type": "channel",
        "velocity": 100
      },
      {
        "channel": 0,
        "deltaTime": 120,
        "noteNumber": 82,
        "subtype": "noteOff",
        "type": "channel",
        "velocity": 0
      },
      {
        "channel": 0,
        "deltaTime": 0,
        "noteNumber": 72,
        "subtype": "noteOn",
        "type": "channel",
        "velocity": 100
      },
      {
        "channel": 0,
        "deltaTime": 120,
        "noteNumber": 72,
        "subtype": "noteOff",
        "type": "channel",
        "velocity": 0
      },
      {
        "channel": 0,
        "deltaTime": 0,
        "noteNumber": 79,
        "subtype": "noteOn",
        "type": "channel",
        "velocity": 100
      },
      {
        "channel": 0,
        "deltaTime": 120,
        "noteNumber": 79,
        "subtype": "noteOff",
        "type": "channel",
        "velocity": 0
      },
      {
        "channel": 0,
        "deltaTime": 0,
        "noteNumber": 72,
        "subtype": "noteOn",
        "type": "channel",
        "velocity": 100
      },
      {
        "channel": 0,
        "deltaTime": 120,
        "noteNumber": 72,
        "subtype": "noteOff",
        "type": "channel",
        "velocity": 0
      },
      {
        "channel": 0,
        "deltaTime": 0,
        "noteNumber": 81,
        "subtype": "noteOn",
        "type": "channel",
        "velocity": 100
      },
      {
        "channel": 0,
        "deltaTime": 120,
        "noteNumber": 81,
        "subtype": "noteOff",
        "type": "channel",
        "velocity": 0
      },
      {
        "channel": 0,
        "deltaTime": 0,
        "noteNumber": 72,
        "subtype": "noteOn",
        "type": "channel",
        "velocity": 100
      },
      {
        "channel": 0,
        "deltaTime": 120,
        "noteNumber": 72,
        "subtype": "noteOff",
        "type": "channel",
        "velocity": 0
      },
      {
        "channel": 0,
        "deltaTime": 0,
        "noteNumber": 65,
        "subtype": "noteOn",
        "type": "channel",
        "velocity": 100
      },
      {
        "channel": 0,
        "deltaTime": 120,
        "noteNumber": 65,
        "subtype": "noteOff",
        "type": "channel",
        "velocity": 0
      },
      {
        "channel": 0,
        "deltaTime": 0,
        "noteNumber": 69,
        "subtype": "noteOn",
        "type": "channel",
        "velocity": 100
      },
      {
        "channel": 0,
        "deltaTime": 120,
        "noteNumber": 69,
        "subtype": "noteOff",
        "type": "channel",
        "velocity": 0
      },
      {
        "channel": 0,
        "deltaTime": 0,
        "noteNumber": 74,
        "subtype": "noteOn",
        "type": "channel",
        "velocity": 100
      },
      {
        "channel": 0,
        "deltaTime": 120,
        "noteNumber": 74,
        "subtype": "noteOff",
        "type": "channel",
        "velocity": 0
      },
      {
        "channel": 0,
        "deltaTime": 0,
        "noteNumber": 76,
        "subtype": "noteOn",
        "type": "channel",
        "velocity": 100
      },
      {
        "channel": 0,
        "deltaTime": 120,
        "noteNumber": 76,
        "subtype": "noteOff",
        "type": "channel",
        "velocity": 0
      },
      {
        "channel": 0,
        "deltaTime": 0,
        "noteNumber": 77,
        "subtype": "noteOn",
        "type": "channel",
        "velocity": 100
      },
      {
        "channel": 0,
        "deltaTime": 120,
        "noteNumber": 77,
        "subtype": "noteOff",
        "type": "channel",
        "velocity": 0
      },
      {
        "channel": 0,
        "deltaTime": 0,
        "noteNumber": 74,
        "subtype": "noteOn",
        "type": "channel",
        "velocity": 100
      },
      {
        "channel": 0,
        "deltaTime": 120,
        "noteNumber": 74,
        "subtype": "noteOff",
        "type": "channel",
        "velocity": 0
      },
      {
        "channel": 0,
        "deltaTime": 0,
        "noteNumber": 71,
        "subtype": "noteOn",
        "type": "channel",
        "velocity": 100
      },
      {
        "channel": 0,
        "deltaTime": 120,
        "noteNumber": 71,
        "subtype": "noteOff",
        "type": "channel",
        "velocity": 0
      },
      {
        "channel": 0,
        "deltaTime": 0,
        "noteNumber": 72,
        "subtype": "noteOn",
        "type": "channel",
        "velocity": 100
      },
      {
        "channel": 0,
        "deltaTime": 120,
        "noteNumber": 72,
        "subtype": "noteOff",
        "type": "channel",
        "velocity": 0
      },
      {
        "channel": 0,
        "deltaTime": 0,
        "noteNumber": 74,
        "subtype": "noteOn",
        "type": "channel",
        "velocity": 100
      },
      {
        "channel": 0,
        "deltaTime": 120,
        "noteNumber": 74,
        "subtype": "noteOff",
        "type": "channel",
        "velocity": 0
      },
      {
        "channel": 0,
        "deltaTime": 0,
        "noteNumber": 71,
        "subtype": "noteOn",
        "type": "channel",
        "velocity": 100
      },
      {
        "channel": 0,
        "deltaTime": 120,
        "noteNumber": 71,
        "subtype": "noteOff",
        "type": "channel",
        "velocity": 0
      },
      {
        "channel": 0,
        "deltaTime": 0,
        "noteNumber": 68,
        "subtype": "noteOn",
        "type": "channel",
        "velocity": 100
      },
      {
        "channel": 0,
        "deltaTime": 120,
        "noteNumber": 68,
        "subtype": "noteOff",
        "type": "channel",
        "velocity": 0
      },
      {
        "channel": 0,
        "deltaTime": 0,
        "noteNumber": 69,
        "subtype": "noteOn",
        "type": "channel",
        "velocity": 100
      },
      {
        "channel": 0,
        "deltaTime": 120,
        "noteNumber": 69,
        "subtype": "noteOff",
        "type": "channel",
        "velocity": 0
      },
      {
        "channel": 0,
        "deltaTime": 0,
        "noteNumber": 71,
        "subtype": "noteOn",
        "type": "channel",
        "velocity": 100
      },
      {
        "channel": 0,
        "deltaTime": 120,
        "noteNumber": 71,
        "subtype": "noteOff",
        "type": "channel",
        "velocity": 0
      },
      {
        "channel": 0,
        "deltaTime": 0,
        "noteNumber": 68,
        "subtype": "noteOn",
        "type": "channel",
        "velocity": 100
      },
      {
        "channel": 0,
        "deltaTime": 120,
        "noteNumber": 68,
        "subtype": "noteOff",
        "type": "channel",
        "velocity": 0
      },
      {
        "channel": 0,
        "deltaTime": 0,
        "noteNumber": 64,
        "subtype": "noteOn",
        "type": "channel",
        "velocity": 100
      },
      {
        "channel": 0,
        "deltaTime": 120,
        "noteNumber": 64,
        "subtype": "noteOff",
        "type": "channel",
        "velocity": 0
      },
      {
        "channel": 0,
        "deltaTime": 0,
        "noteNumber": 66,
        "subtype": "noteOn",
        "type": "channel",
        "velocity": 100
      },
      {
        "channel": 0,
        "deltaTime": 120,
        "noteNumber": 66,
        "subtype": "noteOff",
        "type": "channel",
        "velocity": 0
      },
      {
        "channel": 0,
        "deltaTime": 0,
        "noteNumber": 68,
        "subtype": "noteOn",
        "type": "channel",
        "velocity": 100
      },
      {
        "channel": 0,
        "deltaTime": 120,
        "noteNumber": 68,
        "subtype": "noteOff",
        "type": "channel",
        "velocity": 0
      },
      {
        "channel": 0,
        "deltaTime": 0,
        "noteNumber": 71,
        "subtype": "noteOn",
        "type": "channel",
        "velocity": 100
      },
      {
        "channel": 0,
        "deltaTime": 120,
        "noteNumber": 71,
        "subtype": "noteOff",
        "type": "channel",
        "velocity": 0
      },
      {
        "channel": 0,
        "deltaTime": 0,
        "noteNumber": 74,
        "subtype": "noteOn",
        "type": "channel",
        "velocity": 100
      },
      {
        "channel": 0,
        "deltaTime": 120,
        "noteNumber": 74,
        "subtype": "noteOff",
        "type": "channel",
        "velocity": 0
      },
      {
        "channel": 0,
        "deltaTime": 0,
        "noteNumber": 72,
        "subtype": "noteOn",
        "type": "channel",
        "velocity": 100
      },
      {
        "channel": 0,
        "deltaTime": 120,
        "noteNumber": 72,
        "subtype": "noteOff",
        "type": "channel",
        "velocity": 0
      },
      {
        "channel": 0,
        "deltaTime": 0,
        "noteNumber": 74,
        "subtype": "noteOn",
        "type": "channel",
        "velocity": 100
      },
      {
        "channel": 0,
        "deltaTime": 120,
        "noteNumber": 74,
        "subtype": "noteOff",
        "type": "channel",
        "velocity": 0
      },
      {
        "channel": 0,
        "deltaTime": 0,
        "noteNumber": 71,
        "subtype": "noteOn",
        "type": "channel",
        "velocity": 100
      },
      {
        "channel": 0,
        "deltaTime": 120,
        "noteNumber": 71,
        "subtype": "noteOff",
        "type": "channel",
        "velocity": 0
      },
      {
        "channel": 0,
        "deltaTime": 0,
        "noteNumber": 72,
        "subtype": "noteOn",
        "type": "channel",
        "velocity": 100
      },
      {
        "channel": 0,
        "deltaTime": 120,
        "noteNumber": 72,
        "subtype": "noteOff",
        "type": "channel",
        "velocity": 0
      },
      {
        "channel": 0,
        "deltaTime": 0,
        "noteNumber": 81,
        "subtype": "noteOn",
        "type": "channel",
        "velocity": 100
      },
      {
        "channel": 0,
        "deltaTime": 120,
        "noteNumber": 81,
        "subtype": "noteOff",
        "type": "channel",
        "velocity": 0
      },
      {
        "channel": 0,
        "deltaTime": 0,
        "noteNumber": 77,
        "subtype": "noteOn",
        "type": "channel",
        "velocity": 100
      },
      {
        "channel": 0,
        "deltaTime": 120,
        "noteNumber": 77,
        "subtype": "noteOff",
        "type": "channel",
        "velocity": 0
      },
      {
        "channel": 0,
        "deltaTime": 0,
        "noteNumber": 76,
        "subtype": "noteOn",
        "type": "channel",
        "velocity": 100
      },
      {
        "channel": 0,
        "deltaTime": 120,
        "noteNumber": 76,
        "subtype": "noteOff",
        "type": "channel",
        "velocity": 0
      },
      {
        "channel": 0,
        "deltaTime": 0,
        "noteNumber": 74,
        "subtype": "noteOn",
        "type": "channel",
        "velocity": 100
      },
      {
        "channel": 0,
        "deltaTime": 120,
        "noteNumber": 74,
        "subtype": "noteOff",
        "type": "channel",
        "velocity": 0
      },
      {
        "channel": 0,
        "deltaTime": 0,
        "noteNumber": 84,
        "subtype": "noteOn",
        "type": "channel",
        "velocity": 100
      },
      {
        "channel": 0,
        "deltaTime": 120,
        "noteNumber": 84,
        "subtype": "noteOff",
        "type": "channel",
        "velocity": 0
      },
      {
        "channel": 0,
        "deltaTime": 0,
        "noteNumber": 83,
        "subtype": "noteOn",
        "type": "channel",
        "velocity": 100
      },
      {
        "channel": 0,
        "deltaTime": 120,
        "noteNumber": 83,
        "subtype": "noteOff",
        "type": "channel",
        "velocity": 0
      },
      {
        "channel": 0,
        "deltaTime": 0,
        "noteNumber": 81,
        "subtype": "noteOn",
        "type": "channel",
        "velocity": 100
      },
      {
        "channel": 0,
        "deltaTime": 120,
        "noteNumber": 81,
        "subtype": "noteOff",
        "type": "channel",
        "velocity": 0
      },
      {
        "channel": 0,
        "deltaTime": 0,
        "noteNumber": 76,
        "subtype": "noteOn",
        "type": "channel",
        "velocity": 100
      },
      {
        "channel": 0,
        "deltaTime": 120,
        "noteNumber": 76,
        "subtype": "noteOff",
        "type": "channel",
        "velocity": 0
      },
      {
        "channel": 0,
        "deltaTime": 0,
        "noteNumber": 83,
        "subtype": "noteOn",
        "type": "channel",
        "velocity": 100
      },
      {
        "channel": 0,
        "deltaTime": 120,
        "noteNumber": 83,
        "subtype": "noteOff",
        "type": "channel",
        "velocity": 0
      },
      {
        "channel": 0,
        "deltaTime": 0,
        "noteNumber": 81,
        "subtype": "noteOn",
        "type": "channel",
        "velocity": 100
      },
      {
        "channel": 0,
        "deltaTime": 120,
        "noteNumber": 81,
        "subtype": "noteOff",
        "type": "channel",
        "velocity": 0
      },
      {
        "channel": 0,
        "deltaTime": 0,
        "noteNumber": 80,
        "subtype": "noteOn",
        "type": "channel",
        "velocity": 100
      },
      {
        "channel": 0,
        "deltaTime": 120,
        "noteNumber": 80,
        "subtype": "noteOff",
        "type": "channel",
        "velocity": 0
      },
      {
        "channel": 0,
        "deltaTime": 0,
        "noteNumber": 81,
        "subtype": "noteOn",
        "type": "channel",
        "velocity": 100
      },
      {
        "channel": 0,
        "deltaTime": 120,
        "noteNumber": 81,
        "subtype": "noteOff",
        "type": "channel",
        "velocity": 0
      },
      {
        "channel": 0,
        "deltaTime": 0,
        "noteNumber": 77,
        "subtype": "noteOn",
        "type": "channel",
        "velocity": 100
      },
      {
        "channel": 0,
        "deltaTime": 120,
        "noteNumber": 77,
        "subtype": "noteOff",
        "type": "channel",
        "velocity": 0
      },
      {
        "channel": 0,
        "deltaTime": 0,
        "noteNumber": 74,
        "subtype": "noteOn",
        "type": "channel",
        "velocity": 100
      },
      {
        "channel": 0,
        "deltaTime": 120,
        "noteNumber": 74,
        "subtype": "noteOff",
        "type": "channel",
        "velocity": 0
      },
      {
        "channel": 0,
        "deltaTime": 0,
        "noteNumber": 72,
        "subtype": "noteOn",
        "type": "channel",
        "velocity": 100
      },
      {
        "channel": 0,
        "deltaTime": 120,
        "noteNumber": 72,
        "subtype": "noteOff",
        "type": "channel",
        "velocity": 0
      },
      {
        "channel": 0,
        "deltaTime": 0,
        "noteNumber": 71,
        "subtype": "noteOn",
        "type": "channel",
        "velocity": 100
      },
      {
        "channel": 0,
        "deltaTime": 120,
        "noteNumber": 71,
        "subtype": "noteOff",
        "type": "channel",
        "velocity": 0
      },
      {
        "channel": 0,
        "deltaTime": 0,
        "noteNumber": 81,
        "subtype": "noteOn",
        "type": "channel",
        "velocity": 100
      },
      {
        "channel": 0,
        "deltaTime": 120,
        "noteNumber": 81,
        "subtype": "noteOff",
        "type": "channel",
        "velocity": 0
      },
      {
        "channel": 0,
        "deltaTime": 0,
        "noteNumber": 79,
        "subtype": "noteOn",
        "type": "channel",
        "velocity": 100
      },
      {
        "channel": 0,
        "deltaTime": 120,
        "noteNumber": 79,
        "subtype": "noteOff",
        "type": "channel",
        "velocity": 0
      },
      {
        "channel": 0,
        "deltaTime": 0,
        "noteNumber": 77,
        "subtype": "noteOn",
        "type": "channel",
        "velocity": 100
      },
      {
        "channel": 0,
        "deltaTime": 120,
        "noteNumber": 77,
        "subtype": "noteOff",
        "type": "channel",
        "velocity": 0
      },
      {
        "channel": 0,
        "deltaTime": 0,
        "noteNumber": 73,
        "subtype": "noteOn",
        "type": "channel",
        "velocity": 100
      },
      {
        "channel": 0,
        "deltaTime": 120,
        "noteNumber": 73,
        "subtype": "noteOff",
        "type": "channel",
        "velocity": 0
      },
      {
        "channel": 0,
        "deltaTime": 0,
        "noteNumber": 79,
        "subtype": "noteOn",
        "type": "channel",
        "velocity": 100
      },
      {
        "channel": 0,
        "deltaTime": 120,
        "noteNumber": 79,
        "subtype": "noteOff",
        "type": "channel",
        "velocity": 0
      },
      {
        "channel": 0,
        "deltaTime": 0,
        "noteNumber": 77,
        "subtype": "noteOn",
        "type": "channel",
        "velocity": 100
      },
      {
        "channel": 0,
        "deltaTime": 120,
        "noteNumber": 77,
        "subtype": "noteOff",
        "type": "channel",
        "velocity": 0
      },
      {
        "channel": 0,
        "deltaTime": 0,
        "noteNumber": 76,
        "subtype": "noteOn",
        "type": "channel",
        "velocity": 100
      },
      {
        "channel": 0,
        "deltaTime": 120,
        "noteNumber": 76,
        "subtype": "noteOff",
        "type": "channel",
        "velocity": 0
      },
      {
        "channel": 0,
        "deltaTime": 0,
        "noteNumber": 77,
        "subtype": "noteOn",
        "type": "channel",
        "velocity": 100
      },
      {
        "channel": 0,
        "deltaTime": 120,
        "noteNumber": 77,
        "subtype": "noteOff",
        "type": "channel",
        "velocity": 0
      },
      {
        "channel": 0,
        "deltaTime": 0,
        "noteNumber": 74,
        "subtype": "noteOn",
        "type": "channel",
        "velocity": 100
      },
      {
        "channel": 0,
        "deltaTime": 120,
        "noteNumber": 74,
        "subtype": "noteOff",
        "type": "channel",
        "velocity": 0
      },
      {
        "channel": 0,
        "deltaTime": 0,
        "noteNumber": 70,
        "subtype": "noteOn",
        "type": "channel",
        "velocity": 100
      },
      {
        "channel": 0,
        "deltaTime": 120,
        "noteNumber": 70,
        "subtype": "noteOff",
        "type": "channel",
        "velocity": 0
      },
      {
        "channel": 0,
        "deltaTime": 0,
        "noteNumber": 69,
        "subtype": "noteOn",
        "type": "channel",
        "velocity": 100
      },
      {
        "channel": 0,
        "deltaTime": 120,
        "noteNumber": 69,
        "subtype": "noteOff",
        "type": "channel",
        "velocity": 0
      },
      {
        "channel": 0,
        "deltaTime": 0,
        "noteNumber": 68,
        "subtype": "noteOn",
        "type": "channel",
        "velocity": 100
      },
      {
        "channel": 0,
        "deltaTime": 120,
        "noteNumber": 68,
        "subtype": "noteOff",
        "type": "channel",
        "velocity": 0
      },
      {
        "channel": 0,
        "deltaTime": 0,
        "noteNumber": 77,
        "subtype": "noteOn",
        "type": "channel",
        "velocity": 100
      },
      {
        "channel": 0,
        "deltaTime": 120,
        "noteNumber": 77,
        "subtype": "noteOff",
        "type": "channel",
        "velocity": 0
      },
      {
        "channel": 0,
        "deltaTime": 0,
        "noteNumber": 76,
        "subtype": "noteOn",
        "type": "channel",
        "velocity": 100
      },
      {
        "channel": 0,
        "deltaTime": 120,
        "noteNumber": 76,
        "subtype": "noteOff",
        "type": "channel",
        "velocity": 0
      },
      {
        "channel": 0,
        "deltaTime": 0,
        "noteNumber": 74,
        "subtype": "noteOn",
        "type": "channel",
        "velocity": 100
      },
      {
        "channel": 0,
        "deltaTime": 120,
        "noteNumber": 74,
        "subtype": "noteOff",
        "type": "channel",
        "velocity": 0
      },
      {
        "channel": 0,
        "deltaTime": 0,
        "noteNumber": 69,
        "subtype": "noteOn",
        "type": "channel",
        "velocity": 100
      },
      {
        "channel": 0,
        "deltaTime": 120,
        "noteNumber": 69,
        "subtype": "noteOff",
        "type": "channel",
        "velocity": 0
      },
      {
        "channel": 0,
        "deltaTime": 0,
        "noteNumber": 76,
        "subtype": "noteOn",
        "type": "channel",
        "velocity": 100
      },
      {
        "channel": 0,
        "deltaTime": 120,
        "noteNumber": 76,
        "subtype": "noteOff",
        "type": "channel",
        "velocity": 0
      },
      {
        "channel": 0,
        "deltaTime": 0,
        "noteNumber": 74,
        "subtype": "noteOn",
        "type": "channel",
        "velocity": 100
      },
      {
        "channel": 0,
        "deltaTime": 120,
        "noteNumber": 74,
        "subtype": "noteOff",
        "type": "channel",
        "velocity": 0
      },
      {
        "channel": 0,
        "deltaTime": 0,
        "noteNumber": 72,
        "subtype": "noteOn",
        "type": "channel",
        "velocity": 100
      },
      {
        "channel": 0,
        "deltaTime": 120,
        "noteNumber": 72,
        "subtype": "noteOff",
        "type": "channel",
        "velocity": 0
      },
      {
        "channel": 0,
        "deltaTime": 0,
        "noteNumber": 74,
        "subtype": "noteOn",
        "type": "channel",
        "velocity": 100
      },
      {
        "channel": 0,
        "deltaTime": 120,
        "noteNumber": 74,
        "subtype": "noteOff",
        "type": "channel",
        "velocity": 0
      },
      {
        "channel": 0,
        "deltaTime": 0,
        "noteNumber": 71,
        "subtype": "noteOn",
        "type": "channel",
        "velocity": 100
      },
      {
        "channel": 0,
        "deltaTime": 120,
        "noteNumber": 71,
        "subtype": "noteOff",
        "type": "channel",
        "velocity": 0
      },
      {
        "channel": 0,
        "deltaTime": 0,
        "noteNumber": 68,
        "subtype": "noteOn",
        "type": "channel",
        "velocity": 100
      },
      {
        "channel": 0,
        "deltaTime": 120,
        "noteNumber": 68,
        "subtype": "noteOff",
        "type": "channel",
        "velocity": 0
      },
      {
        "channel": 0,
        "deltaTime": 0,
        "noteNumber": 66,
        "subtype": "noteOn",
        "type": "channel",
        "velocity": 100
      },
      {
        "channel": 0,
        "deltaTime": 120,
        "noteNumber": 66,
        "subtype": "noteOff",
        "type": "channel",
        "velocity": 0
      },
      {
        "channel": 0,
        "deltaTime": 0,
        "noteNumber": 64,
        "subtype": "noteOn",
        "type": "channel",
        "velocity": 100
      },
      {
        "channel": 0,
        "deltaTime": 120,
        "noteNumber": 64,
        "subtype": "noteOff",
        "type": "channel",
        "velocity": 0
      },
      {
        "channel": 0,
        "deltaTime": 0,
        "noteNumber": 66,
        "subtype": "noteOn",
        "type": "channel",
        "velocity": 100
      },
      {
        "channel": 0,
        "deltaTime": 120,
        "noteNumber": 66,
        "subtype": "noteOff",
        "type": "channel",
        "velocity": 0
      },
      {
        "channel": 0,
        "deltaTime": 0,
        "noteNumber": 68,
        "subtype": "noteOn",
        "type": "channel",
        "velocity": 100
      },
      {
        "channel": 0,
        "deltaTime": 120,
        "noteNumber": 68,
        "subtype": "noteOff",
        "type": "channel",
        "velocity": 0
      },
      {
        "channel": 0,
        "deltaTime": 0,
        "noteNumber": 69,
        "subtype": "noteOn",
        "type": "channel",
        "velocity": 100
      },
      {
        "channel": 0,
        "deltaTime": 120,
        "noteNumber": 69,
        "subtype": "noteOff",
        "type": "channel",
        "velocity": 0
      },
      {
        "channel": 0,
        "deltaTime": 0,
        "noteNumber": 71,
        "subtype": "noteOn",
        "type": "channel",
        "velocity": 100
      },
      {
        "channel": 0,
        "deltaTime": 120,
        "noteNumber": 71,
        "subtype": "noteOff",
        "type": "channel",
        "velocity": 0
      },
      {
        "channel": 0,
        "deltaTime": 0,
        "noteNumber": 72,
        "subtype": "noteOn",
        "type": "channel",
        "velocity": 100
      },
      {
        "channel": 0,
        "deltaTime": 120,
        "noteNumber": 72,
        "subtype": "noteOff",
        "type": "channel",
        "velocity": 0
      },
      {
        "channel": 0,
        "deltaTime": 0,
        "noteNumber": 74,
        "subtype": "noteOn",
        "type": "channel",
        "velocity": 100
      },
      {
        "channel": 0,
        "deltaTime": 120,
        "noteNumber": 74,
        "subtype": "noteOff",
        "type": "channel",
        "velocity": 0
      },
      {
        "channel": 0,
        "deltaTime": 0,
        "noteNumber": 71,
        "subtype": "noteOn",
        "type": "channel",
        "velocity": 100
      },
      {
        "channel": 0,
        "deltaTime": 120,
        "noteNumber": 71,
        "subtype": "noteOff",
        "type": "channel",
        "velocity": 0
      },
      {
        "channel": 0,
        "deltaTime": 0,
        "noteNumber": 72,
        "subtype": "noteOn",
        "type": "channel",
        "velocity": 100
      },
      {
        "channel": 0,
        "deltaTime": 120,
        "noteNumber": 72,
        "subtype": "noteOff",
        "type": "channel",
        "velocity": 0
      },
      {
        "channel": 0,
        "deltaTime": 0,
        "noteNumber": 69,
        "subtype": "noteOn",
        "type": "channel",
        "velocity": 100
      },
      {
        "channel": 0,
        "deltaTime": 120,
        "noteNumber": 69,
        "subtype": "noteOff",
        "type": "channel",
        "velocity": 0
      },
      {
        "channel": 0,
        "deltaTime": 0,
        "noteNumber": 72,
        "subtype": "noteOn",
        "type": "channel",
        "velocity": 100
      },
      {
        "channel": 0,
        "deltaTime": 120,
        "noteNumber": 72,
        "subtype": "noteOff",
        "type": "channel",
        "velocity": 0
      },
      {
        "channel": 0,
        "deltaTime": 0,
        "noteNumber": 76,
        "subtype": "noteOn",
        "type": "channel",
        "velocity": 100
      },
      {
        "channel": 0,
        "deltaTime": 120,
        "noteNumber": 76,
        "subtype": "noteOff",
        "type": "channel",
        "velocity": 0
      },
      {
        "channel": 0,
        "deltaTime": 0,
        "noteNumber": 81,
        "subtype": "noteOn",
        "type": "channel",
        "velocity": 100
      },
      {
        "channel": 0,
        "deltaTime": 120,
        "noteNumber": 81,
        "subtype": "noteOff",
        "type": "channel",
        "velocity": 0
      },
      {
        "channel": 0,
        "deltaTime": 0,
        "noteNumber": 83,
        "subtype": "noteOn",
        "type": "channel",
        "velocity": 100
      },
      {
        "channel": 0,
        "deltaTime": 120,
        "noteNumber": 83,
        "subtype": "noteOff",
        "type": "channel",
        "velocity": 0
      },
      {
        "channel": 0,
        "deltaTime": 0,
        "noteNumber": 84,
        "subtype": "noteOn",
        "type": "channel",
        "velocity": 100
      },
      {
        "channel": 0,
        "deltaTime": 120,
        "noteNumber": 84,
        "subtype": "noteOff",
        "type": "channel",
        "velocity": 0
      },
      {
        "channel": 0,
        "deltaTime": 0,
        "noteNumber": 81,
        "subtype": "noteOn",
        "type": "channel",
        "velocity": 100
      },
      {
        "channel": 0,
        "deltaTime": 120,
        "noteNumber": 81,
        "subtype": "noteOff",
        "type": "channel",
        "velocity": 0
      },
      {
        "channel": 0,
        "deltaTime": 0,
        "noteNumber": 76,
        "subtype": "noteOn",
        "type": "channel",
        "velocity": 100
      },
      {
        "channel": 0,
        "deltaTime": 120,
        "noteNumber": 76,
        "subtype": "noteOff",
        "type": "channel",
        "velocity": 0
      },
      {
        "channel": 0,
        "deltaTime": 0,
        "noteNumber": 81,
        "subtype": "noteOn",
        "type": "channel",
        "velocity": 100
      },
      {
        "channel": 0,
        "deltaTime": 120,
        "noteNumber": 81,
        "subtype": "noteOff",
        "type": "channel",
        "velocity": 0
      },
      {
        "channel": 0,
        "deltaTime": 0,
        "noteNumber": 83,
        "subtype": "noteOn",
        "type": "channel",
        "velocity": 100
      },
      {
        "channel": 0,
        "deltaTime": 120,
        "noteNumber": 83,
        "subtype": "noteOff",
        "type": "channel",
        "velocity": 0
      },
      {
        "channel": 0,
        "deltaTime": 0,
        "noteNumber": 80,
        "subtype": "noteOn",
        "type": "channel",
        "velocity": 100
      },
      {
        "channel": 0,
        "deltaTime": 120,
        "noteNumber": 80,
        "subtype": "noteOff",
        "type": "channel",
        "velocity": 0
      },
      {
        "channel": 0,
        "deltaTime": 0,
        "noteNumber": 81,
        "subtype": "noteOn",
        "type": "channel",
        "velocity": 100
      },
      {
        "channel": 0,
        "deltaTime": 120,
        "noteNumber": 81,
        "subtype": "noteOff",
        "type": "channel",
        "velocity": 0
      },
      {
        "channel": 0,
        "deltaTime": 0,
        "noteNumber": 76,
        "subtype": "noteOn",
        "type": "channel",
        "velocity": 100
      },
      {
        "channel": 0,
        "deltaTime": 120,
        "noteNumber": 76,
        "subtype": "noteOff",
        "type": "channel",
        "velocity": 0
      },
      {
        "channel": 0,
        "deltaTime": 0,
        "noteNumber": 77,
        "subtype": "noteOn",
        "type": "channel",
        "velocity": 100
      },
      {
        "channel": 0,
        "deltaTime": 120,
        "noteNumber": 77,
        "subtype": "noteOff",
        "type": "channel",
        "velocity": 0
      },
      {
        "channel": 0,
        "deltaTime": 0,
        "noteNumber": 74,
        "subtype": "noteOn",
        "type": "channel",
        "velocity": 100
      },
      {
        "channel": 0,
        "deltaTime": 120,
        "noteNumber": 74,
        "subtype": "noteOff",
        "type": "channel",
        "velocity": 0
      },
      {
        "channel": 0,
        "deltaTime": 0,
        "noteNumber": 72,
        "subtype": "noteOn",
        "type": "channel",
        "velocity": 100
      },
      {
        "channel": 0,
        "deltaTime": 120,
        "noteNumber": 72,
        "subtype": "noteOff",
        "type": "channel",
        "velocity": 0
      },
      {
        "channel": 0,
        "deltaTime": 0,
        "noteNumber": 81,
        "subtype": "noteOn",
        "type": "channel",
        "velocity": 100
      },
      {
        "channel": 0,
        "deltaTime": 120,
        "noteNumber": 81,
        "subtype": "noteOff",
        "type": "channel",
        "velocity": 0
      },
      {
        "channel": 0,
        "deltaTime": 0,
        "noteNumber": 71,
        "subtype": "noteOn",
        "type": "channel",
        "velocity": 100
      },
      {
        "channel": 0,
        "deltaTime": 120,
        "noteNumber": 71,
        "subtype": "noteOff",
        "type": "channel",
        "velocity": 0
      },
      {
        "channel": 0,
        "deltaTime": 0,
        "noteNumber": 80,
        "subtype": "noteOn",
        "type": "channel",
        "velocity": 100
      },
      {
        "channel": 0,
        "deltaTime": 120,
        "noteNumber": 80,
        "subtype": "noteOff",
        "type": "channel",
        "velocity": 0
      },
      {
        "channel": 0,
        "deltaTime": 0,
        "noteNumber": 69,
        "subtype": "noteOn",
        "type": "channel",
        "velocity": 100
      },
      {
        "channel": 0,
        "deltaTime": 480,
        "noteNumber": 69,
        "subtype": "noteOff",
        "type": "channel",
        "velocity": 0
      },
      [
        {
          "deltaTime": 0,
          "type": "meta",
          "subtype": "endOfTrack"
        }
      ]
    ],
    [
      {
        "deltaTime": 0,
        "type": "meta",
        "subtype": "unknown",
        "data": "\u0000"
      },
      {
        "deltaTime": 0,
        "type": "meta",
        "subtype": "trackName",
        "text": "--------------------------------------"
      },
      {
        "deltaTime": 0,
        "type": "meta",
        "subtype": "endOfTrack"
      }
    ],
    [
      {
        "deltaTime": 0,
        "type": "meta",
        "subtype": "unknown",
        "data": "\u0000"
      },
      {
        "deltaTime": 0,
        "type": "meta",
        "subtype": "trackName",
        "text": "Johann Sebastian Bach  (1685-1750)"
      },
      {
        "deltaTime": 0,
        "type": "meta",
        "subtype": "endOfTrack"
      }
    ],
    [
      {
        "deltaTime": 0,
        "type": "meta",
        "subtype": "unknown",
        "data": "\u0000"
      },
      {
        "deltaTime": 0,
        "type": "meta",
        "subtype": "trackName",
        "text": "--------------------------------------"
      },
      {
        "deltaTime": 0,
        "type": "meta",
        "subtype": "endOfTrack"
      }
    ],
    [
      {
        "deltaTime": 0,
        "type": "meta",
        "subtype": "unknown",
        "data": "\u0000"
      },
      {
        "deltaTime": 0,
        "type": "meta",
        "subtype": "trackName",
        "text": "Partita in A minor for Solo Flute - BWV 1013"
      },
      {
        "deltaTime": 0,
        "type": "meta",
        "subtype": "endOfTrack"
      }
    ],
    [
      {
        "deltaTime": 0,
        "type": "meta",
        "subtype": "unknown",
        "data": "\u0000"
      },
      {
        "deltaTime": 0,
        "type": "meta",
        "subtype": "trackName",
        "text": "--------------------------------------"
      },
      {
        "deltaTime": 0,
        "type": "meta",
        "subtype": "endOfTrack"
      }
    ],
    [
      {
        "deltaTime": 0,
        "type": "meta",
        "subtype": "unknown",
        "data": "\u0000"
      },
      {
        "deltaTime": 0,
        "type": "meta",
        "subtype": "trackName",
        "text": "2nd Movement: Courante"
      },
      {
        "deltaTime": 0,
        "type": "meta",
        "subtype": "endOfTrack"
      }
    ],
    [
      {
        "deltaTime": 0,
        "type": "meta",
        "subtype": "unknown",
        "data": "\u0000"
      },
      {
        "deltaTime": 0,
        "type": "meta",
        "subtype": "trackName",
        "text": "--------------------------------------"
      },
      {
        "deltaTime": 0,
        "type": "meta",
        "subtype": "endOfTrack"
      }
    ],
    [
      {
        "deltaTime": 0,
        "type": "meta",
        "subtype": "unknown",
        "data": "\u0000"
      },
      {
        "deltaTime": 0,
        "type": "meta",
        "subtype": "trackName",
        "text": "Sequenced with Cakewalk Pro Audio by"
      },
      {
        "deltaTime": 0,
        "type": "meta",
        "subtype": "endOfTrack"
      }
    ],
    [
      {
        "deltaTime": 0,
        "type": "meta",
        "subtype": "unknown",
        "data": "\u0000"
      },
      {
        "deltaTime": 0,
        "type": "meta",
        "subtype": "trackName",
        "text": "David J. Grossman - dave@unpronounceable.com"
      },
      {
        "deltaTime": 0,
        "type": "meta",
        "subtype": "endOfTrack"
      }
    ],
    [
      {
        "deltaTime": 0,
        "type": "meta",
        "subtype": "unknown",
        "data": "\u0000"
      },
      {
        "deltaTime": 0,
        "type": "meta",
        "subtype": "trackName",
        "text": "This and other Bach MIDI files can be found at:"
      },
      {
        "deltaTime": 0,
        "type": "meta",
        "subtype": "endOfTrack"
      }
    ],
    [
      {
        "deltaTime": 0,
        "type": "meta",
        "subtype": "unknown",
        "data": "\u0000"
      },
      {
        "deltaTime": 0,
        "type": "meta",
        "subtype": "trackName",
        "text": "Dave's J.S. Bach Page"
      },
      {
        "deltaTime": 0,
        "type": "meta",
        "subtype": "endOfTrack"
      }
    ],
    [
      {
        "deltaTime": 0,
        "type": "meta",
        "subtype": "unknown",
        "data": "\u0000"
      },
      {
        "deltaTime": 0,
        "type": "meta",
        "subtype": "trackName",
        "text": "http://www.unpronounceable.com/bach"
      },
      {
        "deltaTime": 0,
        "type": "meta",
        "subtype": "endOfTrack"
      }
    ],
    [
      {
        "deltaTime": 0,
        "type": "meta",
        "subtype": "unknown",
        "data": "\u0000"
      },
      {
        "deltaTime": 0,
        "type": "meta",
        "subtype": "trackName",
        "text": "--------------------------------------"
      },
      {
        "deltaTime": 0,
        "type": "meta",
        "subtype": "endOfTrack"
      }
    ],
    [
      {
        "deltaTime": 0,
        "type": "meta",
        "subtype": "unknown",
        "data": "\u0000"
      },
      {
        "deltaTime": 0,
        "type": "meta",
        "subtype": "trackName",
        "text": "Original Filename: fp-2cou.mid"
      },
      {
        "deltaTime": 0,
        "type": "meta",
        "subtype": "endOfTrack"
      }
    ],
    [
      {
        "deltaTime": 0,
        "type": "meta",
        "subtype": "unknown",
        "data": "\u0000"
      },
      {
        "deltaTime": 0,
        "type": "meta",
        "subtype": "trackName",
        "text": "Last Modified: March 1, 1997"
      },
      {
        "deltaTime": 0,
        "type": "meta",
        "subtype": "endOfTrack"
      }
    ]
  ]
}