{
  "header": {
    "PPQ": 480,
    "timeSignature": [
      3,
      4
    ],
    "bpm": 250,
    "name": "untitled"
  },
  "startTime": 0,
  "duration": 61.20000000000076,
  "tracks": [
    {
      "startTime": 0,
      "duration": 0,
      "length": 0,
      "notes": [],
      "controlChanges": {},
      "id": 0,
      "name": "untitled"
    },
    {
      "startTime": 0.6,
      "duration": 61.20000000000076,
      "length": 891,
      "notes": [
        {
          "name": "E5",
          "midi": 76,
          "time": 0.6,
          "velocity": 0.7874015748031497,
          "duration": 0.12
        },
        {
          "name": "A4",
          "midi": 69,
          "time": 0.72,
          "velocity": 0.7874015748031497,
          "duration": 0.06000000000000005
        },
        {
          "name": "B4",
          "midi": 71,
          "time": 0.78,
          "velocity": 0.7874015748031497,
          "duration": 0.06000000000000005
        },
        {
          "name": "C5",
          "midi": 72,
          "time": 0.8400000000000001,
          "velocity": 0.7874015748031497,
          "duration": 0.06000000000000005
        },
        {
          "name": "D5",
          "midi": 74,
          "time": 0.9000000000000001,
          "velocity": 0.7874015748031497,
          "duration": 0.06000000000000005
        },
        {
          "name": "E5",
          "midi": 76,
          "time": 0.9600000000000002,
          "velocity": 0.7874015748031497,
          "duration": 0.11999999999999988
        },
        {
          "name": "F#5",
          "midi": 78,
          "time": 1.08,
          "velocity": 0.7874015748031497,
          "duration": 0.06000000000000005
        },
        {
          "name": "G#5",
          "midi": 80,
          "time": 1.1400000000000001,
          "velocity": 0.7874015748031497,
          "duration": 0.06000000000000005
        },
        {
          "name": "A5",
          "midi": 81,
          "time": 1.2000000000000002,
          "velocity": 0.7874015748031497,
          "duration": 0.1200000000000001
        },
        {
          "name": "B5",
          "midi": 83,
          "time": 1.3200000000000003,
          "velocity": 0.7874015748031497,
          "duration": 0.1200000000000001
        },
        {
          "name": "C6",
          "midi": 84,
          "time": 1.4400000000000004,
          "velocity": 0.7874015748031497,
          "duration": 0.1200000000000001
        },
        {
          "name": "A4",
          "midi": 69,
          "time": 1.5600000000000005,
          "velocity": 0.7874015748031497,
          "duration": 0.1200000000000001
        },
        {
          "name": "G4",
          "midi": 67,
          "time": 1.6800000000000006,
          "velocity": 0.7874015748031497,
          "duration": 0.24
        },
        {
          "name": "B5",
          "midi": 83,
          "time": 1.9200000000000006,
          "velocity": 0.7874015748031497,
          "duration": 0.24
        },
        {
          "name": "F4",
          "midi": 65,
          "time": 2.1600000000000006,
          "velocity": 0.7874015748031497,
          "duration": 0.1200000000000001
        },
        {
          "name": "A5",
          "midi": 81,
          "time": 2.2800000000000007,
          "velocity": 0.7874015748031497,
          "duration": 0.06000000000000005
        },
        {
          "name": "G#5",
          "midi": 80,
          "time": 2.3400000000000007,
          "velocity": 0.7874015748031497,
          "duration": 0.06000000000000005
        },
        {
          "name": "A5",
          "midi": 81,
          "time": 2.400000000000001,
          "velocity": 0.7874015748031497,
          "duration": 0.1200000000000001
        },
        {
          "name": "E4",
          "midi": 64,
          "time": 2.520000000000001,
          "velocity": 0.7874015748031497,
          "duration": 0.1200000000000001
        },
        {
          "name": "D4",
          "midi": 62,
          "time": 2.640000000000001,
          "velocity": 0.7874015748031497,
          "duration": 0.1200000000000001
        },
        {
          "name": "B5",
          "midi": 83,
          "time": 2.760000000000001,
          "velocity": 0.7874015748031497,
          "duration": 0.1200000000000001
        },
        {
          "name": "G#5",
          "midi": 80,
          "time": 2.8800000000000012,
          "velocity": 0.7874015748031497,
          "duration": 0.35999999999999943
        },
        {
          "name": "B5",
          "midi": 83,
          "time": 3.2400000000000007,
          "velocity": 0.7874015748031497,
          "duration": 0.06000000000000005
        },
        {
          "name": "A5",
          "midi": 81,
          "time": 3.3000000000000007,
          "velocity": 0.7874015748031497,
          "duration": 0.06000000000000005
        },
        {
          "name": "G#5",
          "midi": 80,
          "time": 3.3600000000000008,
          "velocity": 0.7874015748031497,
          "duration": 0.06000000000000005
        },
        {
          "name": "F5",
          "midi": 77,
          "time": 3.420000000000001,
          "velocity": 0.7874015748031497,
          "duration": 0.06000000000000005
        },
        {
          "name": "E5",
          "midi": 76,
          "time": 3.480000000000001,
          "velocity": 0.7874015748031497,
          "duration": 0.06000000000000005
        },
        {
          "name": "D5",
          "midi": 74,
          "time": 3.540000000000001,
          "velocity": 0.7874015748031497,
          "duration": 0.06000000000000005
        },
        {
          "name": "C5",
          "midi": 72,
          "time": 3.600000000000001,
          "velocity": 0.7874015748031497,
          "duration": 0.06000000000000005
        },
        {
          "name": "D5",
          "midi": 74,
          "time": 3.660000000000001,
          "velocity": 0.7874015748031497,
          "duration": 0.06000000000000005
        },
        {
          "name": "E5",
          "midi": 76,
          "time": 3.720000000000001,
          "velocity": 0.7874015748031497,
          "duration": 0.06000000000000005
        },
        {
          "name": "C5",
          "midi": 72,
          "time": 3.780000000000001,
          "velocity": 0.7874015748031497,
          "duration": 0.06000000000000005
        },
        {
          "name": "A4",
          "midi": 69,
          "time": 3.840000000000001,
          "velocity": 0.7874015748031497,
          "duration": 0.1200000000000001
        },
        {
          "name": "C6",
          "midi": 84,
          "time": 3.9600000000000013,
          "velocity": 0.7874015748031497,
          "duration": 0.06000000000000005
        },
        {
          "name": "B5",
          "midi": 83,
          "time": 4.020000000000001,
          "velocity": 0.7874015748031497,
          "duration": 0.05999999999999961
        },
        {
          "name": "A5",
          "midi": 81,
          "time": 4.080000000000001,
          "velocity": 0.7874015748031497,
          "duration": 0.05999999999999961
        },
        {
          "name": "G5",
          "midi": 79,
          "time": 4.140000000000001,
          "velocity": 0.7874015748031497,
          "duration": 0.05999999999999961
        },
        {
          "name": "F5",
          "midi": 77,
          "time": 4.2,
          "velocity": 0.7874015748031497,
          "duration": 0.05999999999999961
        },
        {
          "name": "E5",
          "midi": 76,
          "time": 4.26,
          "velocity": 0.7874015748031497,
          "duration": 0.05999999999999961
        },
        {
          "name": "D5",
          "midi": 74,
          "time": 4.319999999999999,
          "velocity": 0.7874015748031497,
          "duration": 0.05999999999999961
        },
        {
          "name": "E5",
          "midi": 76,
          "time": 4.379999999999999,
          "velocity": 0.7874015748031497,
          "duration": 0.05999999999999961
        },
        {
          "name": "F5",
          "midi": 77,
          "time": 4.439999999999999,
          "velocity": 0.7874015748031497,
          "duration": 0.05999999999999961
        },
        {
          "name": "D5",
          "midi": 74,
          "time": 4.499999999999998,
          "velocity": 0.7874015748031497,
          "duration": 0.05999999999999961
        },
        {
          "name": "B4",
          "midi": 71,
          "time": 4.559999999999998,
          "velocity": 0.7874015748031497,
          "duration": 0.1200000000000001
        },
        {
          "name": "D6",
          "midi": 86,
          "time": 4.679999999999998,
          "velocity": 0.7874015748031497,
          "duration": 0.05999999999999961
        },
        {
          "name": "C6",
          "midi": 84,
          "time": 4.7399999999999975,
          "velocity": 0.7874015748031497,
          "duration": 0.05999999999999961
        },
        {
          "name": "B5",
          "midi": 83,
          "time": 4.799999999999997,
          "velocity": 0.7874015748031497,
          "duration": 0.05999999999999961
        },
        {
          "name": "A5",
          "midi": 81,
          "time": 4.859999999999997,
          "velocity": 0.7874015748031497,
          "duration": 0.05999999999999961
        },
        {
          "name": "G5",
          "midi": 79,
          "time": 4.919999999999996,
          "velocity": 0.7874015748031497,
          "duration": 0.05999999999999961
        },
        {
          "name": "F5",
          "midi": 77,
          "time": 4.979999999999996,
          "velocity": 0.7874015748031497,
          "duration": 0.05999999999999961
        },
        {
          "name": "E5",
          "midi": 76,
          "time": 5.039999999999996,
          "velocity": 0.7874015748031497,
          "duration": 0.05999999999999961
        },
        {
          "name": "F5",
          "midi": 77,
          "time": 5.099999999999995,
          "velocity": 0.7874015748031497,
          "duration": 0.05999999999999961
        },
        {
          "name": "G5",
          "midi": 79,
          "time": 5.159999999999995,
          "velocity": 0.7874015748031497,
          "duration": 0.05999999999999961
        },
        {
          "name": "E5",
          "midi": 76,
          "time": 5.219999999999994,
          "velocity": 0.7874015748031497,
          "duration": 0.05999999999999961
        },
        {
          "name": "C5",
          "midi": 72,
          "time": 5.279999999999994,
          "velocity": 0.7874015748031497,
          "duration": 0.05999999999999961
        },
        {
          "name": "D5",
          "midi": 74,
          "time": 5.339999999999994,
          "velocity": 0.7874015748031497,
          "duration": 0.05999999999999961
        },
        {
          "name": "E5",
          "midi": 76,
          "time": 5.399999999999993,
          "velocity": 0.7874015748031497,
          "duration": 0.05999999999999961
        },
        {
          "name": "C5",
          "midi": 72,
          "time": 5.459999999999993,
          "velocity": 0.7874015748031497,
          "duration": 0.05999999999999961
        },
        {
          "name": "F5",
          "midi": 77,
          "time": 5.5199999999999925,
          "velocity": 0.7874015748031497,
          "duration": 0.05999999999999961
        },
        {
          "name": "G5",
          "midi": 79,
          "time": 5.579999999999992,
          "velocity": 0.7874015748031497,
          "duration": 0.05999999999999961
        },
        {
          "name": "A5",
          "midi": 81,
          "time": 5.639999999999992,
          "velocity": 0.7874015748031497,
          "duration": 0.05999999999999961
        },
        {
          "name": "F5",
          "midi": 77,
          "time": 5.699999999999991,
          "velocity": 0.7874015748031497,
          "duration": 0.05999999999999961
        },
        {
          "name": "D5",
          "midi": 74,
          "time": 5.759999999999991,
          "velocity": 0.7874015748031497,
          "duration": 0.05999999999999961
        },
        {
          "name": "E5",
          "midi": 76,
          "time": 5.8199999999999905,
          "velocity": 0.7874015748031497,
          "duration": 0.05999999999999961
        },
        {
          "name": "F5",
          "midi": 77,
          "time": 5.87999999999999,
          "velocity": 0.7874015748031497,
          "duration": 0.05999999999999961
        },
        {
          "name": "D5",
          "midi": 74,
          "time": 5.93999999999999,
          "velocity": 0.7874015748031497,
          "duration": 0.05999999999999961
        },
        {
          "name": "B4",
          "midi": 71,
          "time": 5.999999999999989,
          "velocity": 0.7874015748031497,
          "duration": 0.05999999999999961
        },
        {
          "name": "C5",
          "midi": 72,
          "time": 6.059999999999989,
          "velocity": 0.7874015748031497,
          "duration": 0.05999999999999961
        },
        {
          "name": "D5",
          "midi": 74,
          "time": 6.119999999999989,
          "velocity": 0.7874015748031497,
          "duration": 0.05999999999999961
        },
        {
          "name": "B4",
          "midi": 71,
          "time": 6.179999999999988,
          "velocity": 0.7874015748031497,
          "duration": 0.05999999999999961
        },
        {
          "name": "E5",
          "midi": 76,
          "time": 6.239999999999988,
          "velocity": 0.7874015748031497,
          "duration": 0.05999999999999961
        },
        {
          "name": "F5",
          "midi": 77,
          "time": 6.299999999999987,
          "velocity": 0.7874015748031497,
          "duration": 0.05999999999999961
        },
        {
          "name": "G5",
          "midi": 79,
          "time": 6.359999999999987,
          "velocity": 0.7874015748031497,
          "duration": 0.05999999999999961
        },
        {
          "name": "E5",
          "midi": 76,
          "time": 6.419999999999987,
          "velocity": 0.7874015748031497,
          "duration": 0.05999999999999961
        },
        {
          "name": "C5",
          "midi": 72,
          "time": 6.479999999999986,
          "velocity": 0.7874015748031497,
          "duration": 0.05999999999999961
        },
        {
          "name": "D5",
          "midi": 74,
          "time": 6.539999999999986,
          "velocity": 0.7874015748031497,
          "duration": 0.05999999999999961
        },
        {
          "name": "E5",
          "midi": 76,
          "time": 6.599999999999985,
          "velocity": 0.7874015748031497,
          "duration": 0.05999999999999961
        },
        {
          "name": "C5",
          "midi": 72,
          "time": 6.659999999999985,
          "velocity": 0.7874015748031497,
          "duration": 0.05999999999999961
        },
        {
          "name": "A4",
          "midi": 69,
          "time": 6.719999999999985,
          "velocity": 0.7874015748031497,
          "duration": 0.05999999999999961
        },
        {
          "name": "B4",
          "midi": 71,
          "time": 6.779999999999984,
          "velocity": 0.7874015748031497,
          "duration": 0.05999999999999961
        },
        {
          "name": "C5",
          "midi": 72,
          "time": 6.839999999999984,
          "velocity": 0.7874015748031497,
          "duration": 0.05999999999999961
        },
        {
          "name": "A4",
          "midi": 69,
          "time": 6.8999999999999835,
          "velocity": 0.7874015748031497,
          "duration": 0.05999999999999961
        },
        {
          "name": "D5",
          "midi": 74,
          "time": 6.959999999999983,
          "velocity": 0.7874015748031497,
          "duration": 0.05999999999999961
        },
        {
          "name": "E5",
          "midi": 76,
          "time": 7.019999999999983,
          "velocity": 0.7874015748031497,
          "duration": 0.05999999999999961
        },
        {
          "name": "F5",
          "midi": 77,
          "time": 7.079999999999982,
          "velocity": 0.7874015748031497,
          "duration": 0.05999999999999961
        },
        {
          "name": "D5",
          "midi": 74,
          "time": 7.139999999999982,
          "velocity": 0.7874015748031497,
          "duration": 0.05999999999999961
        },
        {
          "name": "B4",
          "midi": 71,
          "time": 7.1999999999999815,
          "velocity": 0.7874015748031497,
          "duration": 0.21000000000000174
        },
        {
          "name": "A4",
          "midi": 69,
          "time": 7.409999999999983,
          "velocity": 0.7874015748031497,
          "duration": 0.03000000000000025
        },
        {
          "name": "B4",
          "midi": 71,
          "time": 7.4399999999999835,
          "velocity": 0.7874015748031497,
          "duration": 0.05999999999999961
        },
        {
          "name": "G4",
          "midi": 67,
          "time": 7.559999999999983,
          "velocity": 0.7874015748031497,
          "duration": 0.05999999999999961
        },
        {
          "name": "A4",
          "midi": 69,
          "time": 7.619999999999982,
          "velocity": 0.7874015748031497,
          "duration": 0.05999999999999961
        },
        {
          "name": "B4",
          "midi": 71,
          "time": 7.679999999999982,
          "velocity": 0.7874015748031497,
          "duration": 0.05999999999999961
        },
        {
          "name": "C5",
          "midi": 72,
          "time": 7.739999999999982,
          "velocity": 0.7874015748031497,
          "duration": 0.05999999999999961
        },
        {
          "name": "D5",
          "midi": 74,
          "time": 7.799999999999981,
          "velocity": 0.7874015748031497,
          "duration": 0.05999999999999961
        },
        {
          "name": "E5",
          "midi": 76,
          "time": 7.859999999999981,
          "velocity": 0.7874015748031497,
          "duration": 0.05999999999999961
        },
        {
          "name": "F5",
          "midi": 77,
          "time": 7.91999999999998,
          "velocity": 0.7874015748031497,
          "duration": 0.11999999999999922
        },
        {
          "name": "G#4",
          "midi": 68,
          "time": 8.03999999999998,
          "velocity": 0.7874015748031497,
          "duration": 0.0600000000000005
        },
        {
          "name": "A4",
          "midi": 69,
          "time": 8.09999999999998,
          "velocity": 0.7874015748031497,
          "duration": 0.0600000000000005
        },
        {
          "name": "B4",
          "midi": 71,
          "time": 8.15999999999998,
          "velocity": 0.7874015748031497,
          "duration": 0.11999999999999922
        },
        {
          "name": "D5",
          "midi": 74,
          "time": 8.27999999999998,
          "velocity": 0.7874015748031497,
          "duration": 0.11999999999999922
        },
        {
          "name": "E5",
          "midi": 76,
          "time": 8.399999999999979,
          "velocity": 0.7874015748031497,
          "duration": 0.0600000000000005
        },
        {
          "name": "D5",
          "midi": 74,
          "time": 8.45999999999998,
          "velocity": 0.7874015748031497,
          "duration": 0.0600000000000005
        },
        {
          "name": "C5",
          "midi": 72,
          "time": 8.51999999999998,
          "velocity": 0.7874015748031497,
          "duration": 0.0600000000000005
        },
        {
          "name": "B4",
          "midi": 71,
          "time": 8.57999999999998,
          "velocity": 0.7874015748031497,
          "duration": 0.0600000000000005
        },
        {
          "name": "C5",
          "midi": 72,
          "time": 8.639999999999981,
          "velocity": 0.7874015748031497,
          "duration": 0.0600000000000005
        },
        {
          "name": "B4",
          "midi": 71,
          "time": 8.699999999999982,
          "velocity": 0.7874015748031497,
          "duration": 0.0600000000000005
        },
        {
          "name": "A4",
          "midi": 69,
          "time": 8.759999999999982,
          "velocity": 0.7874015748031497,
          "duration": 0.0600000000000005
        },
        {
          "name": "E5",
          "midi": 76,
          "time": 8.819999999999983,
          "velocity": 0.7874015748031497,
          "duration": 0.0600000000000005
        },
        {
          "name": "C5",
          "midi": 72,
          "time": 8.879999999999983,
          "velocity": 0.7874015748031497,
          "duration": 0.0600000000000005
        },
        {
          "name": "B4",
          "midi": 71,
          "time": 8.939999999999984,
          "velocity": 0.7874015748031497,
          "duration": 0.0600000000000005
        },
        {
          "name": "A4",
          "midi": 69,
          "time": 8.999999999999984,
          "velocity": 0.7874015748031497,
          "duration": 0.0600000000000005
        },
        {
          "name": "E5",
          "midi": 76,
          "time": 9.059999999999985,
          "velocity": 0.7874015748031497,
          "duration": 0.0600000000000005
        },
        {
          "name": "A5",
          "midi": 81,
          "time": 9.119999999999985,
          "velocity": 0.7874015748031497,
          "duration": 0.0600000000000005
        },
        {
          "name": "G#5",
          "midi": 80,
          "time": 9.179999999999986,
          "velocity": 0.7874015748031497,
          "duration": 0.0600000000000005
        },
        {
          "name": "A5",
          "midi": 81,
          "time": 9.239999999999986,
          "velocity": 0.7874015748031497,
          "duration": 0.0600000000000005
        },
        {
          "name": "C5",
          "midi": 72,
          "time": 9.299999999999986,
          "velocity": 0.7874015748031497,
          "duration": 0.0600000000000005
        },
        {
          "name": "D#4",
          "midi": 63,
          "time": 9.359999999999987,
          "velocity": 0.7874015748031497,
          "duration": 0.0600000000000005
        },
        {
          "name": "C5",
          "midi": 72,
          "time": 9.419999999999987,
          "velocity": 0.7874015748031497,
          "duration": 0.0600000000000005
        },
        {
          "name": "A5",
          "midi": 81,
          "time": 9.479999999999988,
          "velocity": 0.7874015748031497,
          "duration": 0.0600000000000005
        },
        {
          "name": "A5",
          "midi": 81,
          "time": 9.539999999999988,
          "velocity": 0.7874015748031497,
          "duration": 0.0600000000000005
        },
        {
          "name": "D#4",
          "midi": 63,
          "time": 9.599999999999989,
          "velocity": 0.7874015748031497,
          "duration": 0.0600000000000005
        },
        {
          "name": "C5",
          "midi": 72,
          "time": 9.65999999999999,
          "velocity": 0.7874015748031497,
          "duration": 0.0600000000000005
        },
        {
          "name": "A5",
          "midi": 81,
          "time": 9.71999999999999,
          "velocity": 0.7874015748031497,
          "duration": 0.0600000000000005
        },
        {
          "name": "A5",
          "midi": 81,
          "time": 9.77999999999999,
          "velocity": 0.7874015748031497,
          "duration": 0.0600000000000005
        },
        {
          "name": "B4",
          "midi": 71,
          "time": 9.839999999999991,
          "velocity": 0.7874015748031497,
          "duration": 0.0600000000000005
        },
        {
          "name": "A5",
          "midi": 81,
          "time": 9.899999999999991,
          "velocity": 0.7874015748031497,
          "duration": 0.0600000000000005
        },
        {
          "name": "G5",
          "midi": 79,
          "time": 9.959999999999992,
          "velocity": 0.7874015748031497,
          "duration": 0.0600000000000005
        },
        {
          "name": "F#5",
          "midi": 78,
          "time": 10.019999999999992,
          "velocity": 0.7874015748031497,
          "duration": 0.0600000000000005
        },
        {
          "name": "G5",
          "midi": 79,
          "time": 10.079999999999993,
          "velocity": 0.7874015748031497,
          "duration": 0.0600000000000005
        },
        {
          "name": "F#5",
          "midi": 78,
          "time": 10.139999999999993,
          "velocity": 0.7874015748031497,
          "duration": 0.0600000000000005
        },
        {
          "name": "E5",
          "midi": 76,
          "time": 10.199999999999994,
          "velocity": 0.7874015748031497,
          "duration": 0.0600000000000005
        },
        {
          "name": "B5",
          "midi": 83,
          "time": 10.259999999999994,
          "velocity": 0.7874015748031497,
          "duration": 0.0600000000000005
        },
        {
          "name": "G5",
          "midi": 79,
          "time": 10.319999999999995,
          "velocity": 0.7874015748031497,
          "duration": 0.0600000000000005
        },
        {
          "name": "F#5",
          "midi": 78,
          "time": 10.379999999999995,
          "velocity": 0.7874015748031497,
          "duration": 0.0600000000000005
        },
        {
          "name": "E5",
          "midi": 76,
          "time": 10.439999999999996,
          "velocity": 0.7874015748031497,
          "duration": 0.0600000000000005
        },
        {
          "name": "B5",
          "midi": 83,
          "time": 10.499999999999996,
          "velocity": 0.7874015748031497,
          "duration": 0.0600000000000005
        },
        {
          "name": "C6",
          "midi": 84,
          "time": 10.559999999999997,
          "velocity": 0.7874015748031497,
          "duration": 0.0600000000000005
        },
        {
          "name": "B5",
          "midi": 83,
          "time": 10.619999999999997,
          "velocity": 0.7874015748031497,
          "duration": 0.0600000000000005
        },
        {
          "name": "C6",
          "midi": 84,
          "time": 10.679999999999998,
          "velocity": 0.7874015748031497,
          "duration": 0.0600000000000005
        },
        {
          "name": "E5",
          "midi": 76,
          "time": 10.739999999999998,
          "velocity": 0.7874015748031497,
          "duration": 0.0600000000000005
        },
        {
          "name": "F#4",
          "midi": 66,
          "time": 10.799999999999999,
          "velocity": 0.7874015748031497,
          "duration": 0.0600000000000005
        },
        {
          "name": "D5",
          "midi": 74,
          "time": 10.86,
          "velocity": 0.7874015748031497,
          "duration": 0.0600000000000005
        },
        {
          "name": "C6",
          "midi": 84,
          "time": 10.92,
          "velocity": 0.7874015748031497,
          "duration": 0.0600000000000005
        },
        {
          "name": "C6",
          "midi": 84,
          "time": 10.98,
          "velocity": 0.7874015748031497,
          "duration": 0.0600000000000005
        },
        {
          "name": "G#4",
          "midi": 68,
          "time": 11.040000000000001,
          "velocity": 0.7874015748031497,
          "duration": 0.0600000000000005
        },
        {
          "name": "D5",
          "midi": 74,
          "time": 11.100000000000001,
          "velocity": 0.7874015748031497,
          "duration": 0.0600000000000005
        },
        {
          "name": "B5",
          "midi": 83,
          "time": 11.160000000000002,
          "velocity": 0.7874015748031497,
          "duration": 0.0600000000000005
        },
        {
          "name": "D5",
          "midi": 74,
          "time": 11.220000000000002,
          "velocity": 0.7874015748031497,
          "duration": 0.0600000000000005
        },
        {
          "name": "G#4",
          "midi": 68,
          "time": 11.280000000000003,
          "velocity": 0.7874015748031497,
          "duration": 0.0600000000000005
        },
        {
          "name": "D5",
          "midi": 74,
          "time": 11.340000000000003,
          "velocity": 0.7874015748031497,
          "duration": 0.0600000000000005
        },
        {
          "name": "C5",
          "midi": 72,
          "time": 11.400000000000004,
          "velocity": 0.7874015748031497,
          "duration": 0.0600000000000005
        },
        {
          "name": "B4",
          "midi": 71,
          "time": 11.460000000000004,
          "velocity": 0.7874015748031497,
          "duration": 0.0600000000000005
        },
        {
          "name": "A4",
          "midi": 69,
          "time": 11.520000000000005,
          "velocity": 0.7874015748031497,
          "duration": 0.0600000000000005
        },
        {
          "name": "B4",
          "midi": 71,
          "time": 11.580000000000005,
          "velocity": 0.7874015748031497,
          "duration": 0.0600000000000005
        },
        {
          "name": "C5",
          "midi": 72,
          "time": 11.640000000000006,
          "velocity": 0.7874015748031497,
          "duration": 0.0600000000000005
        },
        {
          "name": "E5",
          "midi": 76,
          "time": 11.700000000000006,
          "velocity": 0.7874015748031497,
          "duration": 0.0600000000000005
        },
        {
          "name": "A4",
          "midi": 69,
          "time": 11.760000000000007,
          "velocity": 0.7874015748031497,
          "duration": 0.0600000000000005
        },
        {
          "name": "B4",
          "midi": 71,
          "time": 11.820000000000007,
          "velocity": 0.7874015748031497,
          "duration": 0.0600000000000005
        },
        {
          "name": "C5",
          "midi": 72,
          "time": 11.880000000000008,
          "velocity": 0.7874015748031497,
          "duration": 0.0600000000000005
        },
        {
          "name": "E5",
          "midi": 76,
          "time": 11.940000000000008,
          "velocity": 0.7874015748031497,
          "duration": 0.0600000000000005
        },
        {
          "name": "A5",
          "midi": 81,
          "time": 12.000000000000009,
          "velocity": 0.7874015748031497,
          "duration": 0.0600000000000005
        },
        {
          "name": "B5",
          "midi": 83,
          "time": 12.06000000000001,
          "velocity": 0.7874015748031497,
          "duration": 0.0600000000000005
        },
        {
          "name": "C6",
          "midi": 84,
          "time": 12.12000000000001,
          "velocity": 0.7874015748031497,
          "duration": 0.0600000000000005
        },
        {
          "name": "A5",
          "midi": 81,
          "time": 12.18000000000001,
          "velocity": 0.7874015748031497,
          "duration": 0.0600000000000005
        },
        {
          "name": "D#6",
          "midi": 87,
          "time": 12.24000000000001,
          "velocity": 0.7874015748031497,
          "duration": 0.35999999999999943
        },
        {
          "name": "A4",
          "midi": 69,
          "time": 12.60000000000001,
          "velocity": 0.7874015748031497,
          "duration": 0.0600000000000005
        },
        {
          "name": "C5",
          "midi": 72,
          "time": 12.66000000000001,
          "velocity": 0.7874015748031497,
          "duration": 0.0600000000000005
        },
        {
          "name": "B4",
          "midi": 71,
          "time": 12.720000000000011,
          "velocity": 0.7874015748031497,
          "duration": 0.0600000000000005
        },
        {
          "name": "A4",
          "midi": 69,
          "time": 12.780000000000012,
          "velocity": 0.7874015748031497,
          "duration": 0.0600000000000005
        },
        {
          "name": "G4",
          "midi": 67,
          "time": 12.840000000000012,
          "velocity": 0.7874015748031497,
          "duration": 0.0600000000000005
        },
        {
          "name": "F#4",
          "midi": 66,
          "time": 12.900000000000013,
          "velocity": 0.7874015748031497,
          "duration": 0.0600000000000005
        },
        {
          "name": "G4",
          "midi": 67,
          "time": 12.960000000000013,
          "velocity": 0.7874015748031497,
          "duration": 0.0600000000000005
        },
        {
          "name": "B4",
          "midi": 71,
          "time": 13.020000000000014,
          "velocity": 0.7874015748031497,
          "duration": 0.0600000000000005
        },
        {
          "name": "E5",
          "midi": 76,
          "time": 13.080000000000014,
          "velocity": 0.7874015748031497,
          "duration": 0.0600000000000005
        },
        {
          "name": "B5",
          "midi": 83,
          "time": 13.140000000000015,
          "velocity": 0.7874015748031497,
          "duration": 0.0600000000000005
        },
        {
          "name": "A5",
          "midi": 81,
          "time": 13.200000000000015,
          "velocity": 0.7874015748031497,
          "duration": 0.0600000000000005
        },
        {
          "name": "G5",
          "midi": 79,
          "time": 13.260000000000016,
          "velocity": 0.7874015748031497,
          "duration": 0.0600000000000005
        },
        {
          "name": "F#5",
          "midi": 78,
          "time": 13.320000000000016,
          "velocity": 0.7874015748031497,
          "duration": 0.0600000000000005
        },
        {
          "name": "E5",
          "midi": 76,
          "time": 13.380000000000017,
          "velocity": 0.7874015748031497,
          "duration": 0.0600000000000005
        },
        {
          "name": "G5",
          "midi": 79,
          "time": 13.440000000000017,
          "velocity": 0.7874015748031497,
          "duration": 0.0600000000000005
        },
        {
          "name": "F#5",
          "midi": 78,
          "time": 13.500000000000018,
          "velocity": 0.7874015748031497,
          "duration": 0.0600000000000005
        },
        {
          "name": "E5",
          "midi": 76,
          "time": 13.560000000000018,
          "velocity": 0.7874015748031497,
          "duration": 0.0600000000000005
        },
        {
          "name": "D#5",
          "midi": 75,
          "time": 13.620000000000019,
          "velocity": 0.7874015748031497,
          "duration": 0.0600000000000005
        },
        {
          "name": "E5",
          "midi": 76,
          "time": 13.68000000000002,
          "velocity": 0.7874015748031497,
          "duration": 0.11999999999999922
        },
        {
          "name": "A#4",
          "midi": 70,
          "time": 13.800000000000018,
          "velocity": 0.7874015748031497,
          "duration": 0.0600000000000005
        },
        {
          "name": "B4",
          "midi": 71,
          "time": 13.860000000000019,
          "velocity": 0.7874015748031497,
          "duration": 0.0600000000000005
        },
        {
          "name": "C#5",
          "midi": 73,
          "time": 13.92000000000002,
          "velocity": 0.7874015748031497,
          "duration": 0.11999999999999922
        },
        {
          "name": "E5",
          "midi": 76,
          "time": 14.040000000000019,
          "velocity": 0.7874015748031497,
          "duration": 0.11999999999999922
        },
        {
          "name": "F#5",
          "midi": 78,
          "time": 14.160000000000018,
          "velocity": 0.7874015748031497,
          "duration": 0.0600000000000005
        },
        {
          "name": "E5",
          "midi": 76,
          "time": 14.220000000000018,
          "velocity": 0.7874015748031497,
          "duration": 0.0600000000000005
        },
        {
          "name": "D5",
          "midi": 74,
          "time": 14.280000000000019,
          "velocity": 0.7874015748031497,
          "duration": 0.0600000000000005
        },
        {
          "name": "C#5",
          "midi": 73,
          "time": 14.34000000000002,
          "velocity": 0.7874015748031497,
          "duration": 0.0600000000000005
        },
        {
          "name": "D#5",
          "midi": 75,
          "time": 14.40000000000002,
          "velocity": 0.7874015748031497,
          "duration": 0.11999999999999922
        },
        {
          "name": "F#5",
          "midi": 78,
          "time": 14.52000000000002,
          "velocity": 0.7874015748031497,
          "duration": 0.0600000000000005
        },
        {
          "name": "G5",
          "midi": 79,
          "time": 14.58000000000002,
          "velocity": 0.7874015748031497,
          "duration": 0.0600000000000005
        },
        {
          "name": "A5",
          "midi": 81,
          "time": 14.64000000000002,
          "velocity": 0.7874015748031497,
          "duration": 0.11999999999999922
        },
        {
          "name": "F#5",
          "midi": 78,
          "time": 14.76000000000002,
          "velocity": 0.7874015748031497,
          "duration": 0.11999999999999922
        },
        {
          "name": "E5",
          "midi": 76,
          "time": 14.880000000000019,
          "velocity": 0.7874015748031497,
          "duration": 0.0600000000000005
        },
        {
          "name": "D#5",
          "midi": 75,
          "time": 14.940000000000019,
          "velocity": 0.7874015748031497,
          "duration": 0.0600000000000005
        },
        {
          "name": "C#5",
          "midi": 73,
          "time": 15.00000000000002,
          "velocity": 0.7874015748031497,
          "duration": 0.0600000000000005
        },
        {
          "name": "B4",
          "midi": 71,
          "time": 15.06000000000002,
          "velocity": 0.7874015748031497,
          "duration": 0.0600000000000005
        },
        {
          "name": "A4",
          "midi": 69,
          "time": 15.12000000000002,
          "velocity": 0.7874015748031497,
          "duration": 0.0600000000000005
        },
        {
          "name": "F#4",
          "midi": 66,
          "time": 15.180000000000021,
          "velocity": 0.7874015748031497,
          "duration": 0.0600000000000005
        },
        {
          "name": "G4",
          "midi": 67,
          "time": 15.240000000000022,
          "velocity": 0.7874015748031497,
          "duration": 0.0600000000000005
        },
        {
          "name": "B4",
          "midi": 71,
          "time": 15.300000000000022,
          "velocity": 0.7874015748031497,
          "duration": 0.0600000000000005
        },
        {
          "name": "E5",
          "midi": 76,
          "time": 15.360000000000023,
          "velocity": 0.7874015748031497,
          "duration": 0.0600000000000005
        },
        {
          "name": "G5",
          "midi": 79,
          "time": 15.420000000000023,
          "velocity": 0.7874015748031497,
          "duration": 0.0600000000000005
        },
        {
          "name": "B5",
          "midi": 83,
          "time": 15.480000000000024,
          "velocity": 0.7874015748031497,
          "duration": 0.0600000000000005
        },
        {
          "name": "E5",
          "midi": 76,
          "time": 15.540000000000024,
          "velocity": 0.7874015748031497,
          "duration": 0.0600000000000005
        },
        {
          "name": "B4",
          "midi": 71,
          "time": 15.600000000000025,
          "velocity": 0.7874015748031497,
          "duration": 0.11999999999999922
        },
        {
          "name": "D#5",
          "midi": 75,
          "time": 15.720000000000024,
          "velocity": 0.7874015748031497,
          "duration": 0.11999999999999922
        },
        {
          "name": "E5",
          "midi": 76,
          "time": 15.840000000000023,
          "velocity": 0.7874015748031497,
          "duration": 0.0600000000000005
        },
        {
          "name": "B4",
          "midi": 71,
          "time": 15.900000000000023,
          "velocity": 0.7874015748031497,
          "duration": 0.0600000000000005
        },
        {
          "name": "C5",
          "midi": 72,
          "time": 15.960000000000024,
          "velocity": 0.7874015748031497,
          "duration": 0.0600000000000005
        },
        {
          "name": "A4",
          "midi": 69,
          "time": 16.020000000000024,
          "velocity": 0.7874015748031497,
          "duration": 0.05999999999999872
        },
        {
          "name": "G4",
          "midi": 67,
          "time": 16.080000000000023,
          "velocity": 0.7874015748031497,
          "duration": 0.05999999999999872
        },
        {
          "name": "E5",
          "midi": 76,
          "time": 16.140000000000022,
          "velocity": 0.7874015748031497,
          "duration": 0.05999999999999872
        },
        {
          "name": "F#4",
          "midi": 66,
          "time": 16.20000000000002,
          "velocity": 0.7874015748031497,
          "duration": 0.05999999999999872
        },
        {
          "name": "D#5",
          "midi": 75,
          "time": 16.26000000000002,
          "velocity": 0.7874015748031497,
          "duration": 0.05999999999999872
        },
        {
          "name": "E4",
          "midi": 64,
          "time": 16.320000000000018,
          "velocity": 0.7874015748031497,
          "duration": 0.120000000000001
        },
        {
          "name": "E5",
          "midi": 76,
          "time": 16.44000000000002,
          "velocity": 0.7874015748031497,
          "duration": 0.120000000000001
        },
        {
          "name": "A4",
          "midi": 69,
          "time": 16.56000000000002,
          "velocity": 0.7874015748031497,
          "duration": 0.05999999999999872
        },
        {
          "name": "B4",
          "midi": 71,
          "time": 16.62000000000002,
          "velocity": 0.7874015748031497,
          "duration": 0.05999999999999872
        },
        {
          "name": "C5",
          "midi": 72,
          "time": 16.680000000000017,
          "velocity": 0.7874015748031497,
          "duration": 0.05999999999999872
        },
        {
          "name": "D5",
          "midi": 74,
          "time": 16.740000000000016,
          "velocity": 0.7874015748031497,
          "duration": 0.05999999999999872
        },
        {
          "name": "E5",
          "midi": 76,
          "time": 16.800000000000015,
          "velocity": 0.7874015748031497,
          "duration": 0.120000000000001
        },
        {
          "name": "F#5",
          "midi": 78,
          "time": 16.920000000000016,
          "velocity": 0.7874015748031497,
          "duration": 0.05999999999999872
        },
        {
          "name": "G#5",
          "midi": 80,
          "time": 16.980000000000015,
          "velocity": 0.7874015748031497,
          "duration": 0.05999999999999872
        },
        {
          "name": "A5",
          "midi": 81,
          "time": 17.040000000000013,
          "velocity": 0.7874015748031497,
          "duration": 0.120000000000001
        },
        {
          "name": "B5",
          "midi": 83,
          "time": 17.160000000000014,
          "velocity": 0.7874015748031497,
          "duration": 0.120000000000001
        },
        {
          "name": "C6",
          "midi": 84,
          "time": 17.280000000000015,
          "velocity": 0.7874015748031497,
          "duration": 0.120000000000001
        },
        {
          "name": "A4",
          "midi": 69,
          "time": 17.400000000000016,
          "velocity": 0.7874015748031497,
          "duration": 0.120000000000001
        },
        {
          "name": "G4",
          "midi": 67,
          "time": 17.520000000000017,
          "velocity": 0.7874015748031497,
          "duration": 0.23999999999999844
        },
        {
          "name": "B5",
          "midi": 83,
          "time": 17.760000000000016,
          "velocity": 0.7874015748031497,
          "duration": 0.23999999999999844
        },
        {
          "name": "F4",
          "midi": 65,
          "time": 18.000000000000014,
          "velocity": 0.7874015748031497,
          "duration": 0.120000000000001
        },
        {
          "name": "A5",
          "midi": 81,
          "time": 18.120000000000015,
          "velocity": 0.7874015748031497,
          "duration": 0.05999999999999872
        },
        {
          "name": "G#5",
          "midi": 80,
          "time": 18.180000000000014,
          "velocity": 0.7874015748031497,
          "duration": 0.05999999999999872
        },
        {
          "name": "A5",
          "midi": 81,
          "time": 18.240000000000013,
          "velocity": 0.7874015748031497,
          "duration": 0.120000000000001
        },
        {
          "name": "E4",
          "midi": 64,
          "time": 18.360000000000014,
          "velocity": 0.7874015748031497,
          "duration": 0.120000000000001
        },
        {
          "name": "D4",
          "midi": 62,
          "time": 18.480000000000015,
          "velocity": 0.7874015748031497,
          "duration": 0.120000000000001
        },
        {
          "name": "B5",
          "midi": 83,
          "time": 18.600000000000016,
          "velocity": 0.7874015748031497,
          "duration": 0.11999999999999744
        },
        {
          "name": "G#5",
          "midi": 80,
          "time": 18.720000000000013,
          "velocity": 0.7874015748031497,
          "duration": 0.360000000000003
        },
        {
          "name": "B5",
          "midi": 83,
          "time": 19.080000000000016,
          "velocity": 0.7874015748031497,
          "duration": 0.05999999999999872
        },
        {
          "name": "A5",
          "midi": 81,
          "time": 19.140000000000015,
          "velocity": 0.7874015748031497,
          "duration": 0.05999999999999872
        },
        {
          "name": "G#5",
          "midi": 80,
          "time": 19.200000000000014,
          "velocity": 0.7874015748031497,
          "duration": 0.05999999999999872
        },
        {
          "name": "F5",
          "midi": 77,
          "time": 19.260000000000012,
          "velocity": 0.7874015748031497,
          "duration": 0.05999999999999872
        },
        {
          "name": "E5",
          "midi": 76,
          "time": 19.32000000000001,
          "velocity": 0.7874015748031497,
          "duration": 0.05999999999999872
        },
        {
          "name": "D5",
          "midi": 74,
          "time": 19.38000000000001,
          "velocity": 0.7874015748031497,
          "duration": 0.05999999999999872
        },
        {
          "name": "C5",
          "midi": 72,
          "time": 19.44000000000001,
          "velocity": 0.7874015748031497,
          "duration": 0.05999999999999872
        },
        {
          "name": "D5",
          "midi": 74,
          "time": 19.500000000000007,
          "velocity": 0.7874015748031497,
          "duration": 0.05999999999999872
        },
        {
          "name": "E5",
          "midi": 76,
          "time": 19.560000000000006,
          "velocity": 0.7874015748031497,
          "duration": 0.05999999999999872
        },
        {
          "name": "C5",
          "midi": 72,
          "time": 19.620000000000005,
          "velocity": 0.7874015748031497,
          "duration": 0.05999999999999872
        },
        {
          "name": "A4",
          "midi": 69,
          "time": 19.680000000000003,
          "velocity": 0.7874015748031497,
          "duration": 0.120000000000001
        },
        {
          "name": "C6",
          "midi": 84,
          "time": 19.800000000000004,
          "velocity": 0.7874015748031497,
          "duration": 0.05999999999999872
        },
        {
          "name": "B5",
          "midi": 83,
          "time": 19.860000000000003,
          "velocity": 0.7874015748031497,
          "duration": 0.05999999999999872
        },
        {
          "name": "A5",
          "midi": 81,
          "time": 19.92,
          "velocity": 0.7874015748031497,
          "duration": 0.05999999999999872
        },
        {
          "name": "G5",
          "midi": 79,
          "time": 19.98,
          "velocity": 0.7874015748031497,
          "duration": 0.05999999999999872
        },
        {
          "name": "F5",
          "midi": 77,
          "time": 20.04,
          "velocity": 0.7874015748031497,
          "duration": 0.05999999999999872
        },
        {
          "name": "E5",
          "midi": 76,
          "time": 20.099999999999998,
          "velocity": 0.7874015748031497,
          "duration": 0.05999999999999872
        },
        {
          "name": "D5",
          "midi": 74,
          "time": 20.159999999999997,
          "velocity": 0.7874015748031497,
          "duration": 0.05999999999999872
        },
        {
          "name": "E5",
          "midi": 76,
          "time": 20.219999999999995,
          "velocity": 0.7874015748031497,
          "duration": 0.05999999999999872
        },
        {
          "name": "F5",
          "midi": 77,
          "time": 20.279999999999994,
          "velocity": 0.7874015748031497,
          "duration": 0.05999999999999872
        },
        {
          "name": "D5",
          "midi": 74,
          "time": 20.339999999999993,
          "velocity": 0.7874015748031497,
          "duration": 0.05999999999999872
        },
        {
          "name": "B4",
          "midi": 71,
          "time": 20.39999999999999,
          "velocity": 0.7874015748031497,
          "duration": 0.120000000000001
        },
        {
          "name": "D6",
          "midi": 86,
          "time": 20.519999999999992,
          "velocity": 0.7874015748031497,
          "duration": 0.05999999999999872
        },
        {
          "name": "C6",
          "midi": 84,
          "time": 20.57999999999999,
          "velocity": 0.7874015748031497,
          "duration": 0.05999999999999872
        },
        {
          "name": "B5",
          "midi": 83,
          "time": 20.63999999999999,
          "velocity": 0.7874015748031497,
          "duration": 0.05999999999999872
        },
        {
          "name": "A5",
          "midi": 81,
          "time": 20.69999999999999,
          "velocity": 0.7874015748031497,
          "duration": 0.05999999999999872
        },
        {
          "name": "G5",
          "midi": 79,
          "time": 20.759999999999987,
          "velocity": 0.7874015748031497,
          "duration": 0.05999999999999872
        },
        {
          "name": "F5",
          "midi": 77,
          "time": 20.819999999999986,
          "velocity": 0.7874015748031497,
          "duration": 0.05999999999999872
        },
        {
          "name": "E5",
          "midi": 76,
          "time": 20.879999999999985,
          "velocity": 0.7874015748031497,
          "duration": 0.05999999999999872
        },
        {
          "name": "F5",
          "midi": 77,
          "time": 20.939999999999984,
          "velocity": 0.7874015748031497,
          "duration": 0.05999999999999872
        },
        {
          "name": "G5",
          "midi": 79,
          "time": 20.999999999999982,
          "velocity": 0.7874015748031497,
          "duration": 0.05999999999999872
        },
        {
          "name": "E5",
          "midi": 76,
          "time": 21.05999999999998,
          "velocity": 0.7874015748031497,
          "duration": 0.05999999999999872
        },
        {
          "name": "C5",
          "midi": 72,
          "time": 21.11999999999998,
          "velocity": 0.7874015748031497,
          "duration": 0.05999999999999872
        },
        {
          "name": "D5",
          "midi": 74,
          "time": 21.17999999999998,
          "velocity": 0.7874015748031497,
          "duration": 0.05999999999999872
        },
        {
          "name": "E5",
          "midi": 76,
          "time": 21.239999999999977,
          "velocity": 0.7874015748031497,
          "duration": 0.05999999999999872
        },
        {
          "name": "C5",
          "midi": 72,
          "time": 21.299999999999976,
          "velocity": 0.7874015748031497,
          "duration": 0.05999999999999872
        },
        {
          "name": "F5",
          "midi": 77,
          "time": 21.359999999999975,
          "velocity": 0.7874015748031497,
          "duration": 0.05999999999999872
        },
        {
          "name": "G5",
          "midi": 79,
          "time": 21.419999999999973,
          "velocity": 0.7874015748031497,
          "duration": 0.05999999999999872
        },
        {
          "name": "A5",
          "midi": 81,
          "time": 21.479999999999972,
          "velocity": 0.7874015748031497,
          "duration": 0.05999999999999872
        },
        {
          "name": "F5",
          "midi": 77,
          "time": 21.53999999999997,
          "velocity": 0.7874015748031497,
          "duration": 0.05999999999999872
        },
        {
          "name": "D5",
          "midi": 74,
          "time": 21.59999999999997,
          "velocity": 0.7874015748031497,
          "duration": 0.05999999999999872
        },
        {
          "name": "E5",
          "midi": 76,
          "time": 21.659999999999968,
          "velocity": 0.7874015748031497,
          "duration": 0.05999999999999872
        },
        {
          "name": "F5",
          "midi": 77,
          "time": 21.719999999999967,
          "velocity": 0.7874015748031497,
          "duration": 0.05999999999999872
        },
        {
          "name": "D5",
          "midi": 74,
          "time": 21.779999999999966,
          "velocity": 0.7874015748031497,
          "duration": 0.05999999999999872
        },
        {
          "name": "B4",
          "midi": 71,
          "time": 21.839999999999964,
          "velocity": 0.7874015748031497,
          "duration": 0.05999999999999872
        },
        {
          "name": "C5",
          "midi": 72,
          "time": 21.899999999999963,
          "velocity": 0.7874015748031497,
          "duration": 0.05999999999999872
        },
        {
          "name": "D5",
          "midi": 74,
          "time": 21.95999999999996,
          "velocity": 0.7874015748031497,
          "duration": 0.05999999999999872
        },
        {
          "name": "B4",
          "midi": 71,
          "time": 22.01999999999996,
          "velocity": 0.7874015748031497,
          "duration": 0.05999999999999872
        },
        {
          "name": "E5",
          "midi": 76,
          "time": 22.07999999999996,
          "velocity": 0.7874015748031497,
          "duration": 0.05999999999999872
        },
        {
          "name": "F5",
          "midi": 77,
          "time": 22.139999999999958,
          "velocity": 0.7874015748031497,
          "duration": 0.05999999999999872
        },
        {
          "name": "G5",
          "midi": 79,
          "time": 22.199999999999957,
          "velocity": 0.7874015748031497,
          "duration": 0.05999999999999872
        },
        {
          "name": "E5",
          "midi": 76,
          "time": 22.259999999999955,
          "velocity": 0.7874015748031497,
          "duration": 0.05999999999999872
        },
        {
          "name": "C5",
          "midi": 72,
          "time": 22.319999999999954,
          "velocity": 0.7874015748031497,
          "duration": 0.05999999999999872
        },
        {
          "name": "D5",
          "midi": 74,
          "time": 22.379999999999953,
          "velocity": 0.7874015748031497,
          "duration": 0.05999999999999872
        },
        {
          "name": "E5",
          "midi": 76,
          "time": 22.43999999999995,
          "velocity": 0.7874015748031497,
          "duration": 0.05999999999999872
        },
        {
          "name": "C5",
          "midi": 72,
          "time": 22.49999999999995,
          "velocity": 0.7874015748031497,
          "duration": 0.05999999999999872
        },
        {
          "name": "A4",
          "midi": 69,
          "time": 22.55999999999995,
          "velocity": 0.7874015748031497,
          "duration": 0.05999999999999872
        },
        {
          "name": "B4",
          "midi": 71,
          "time": 22.619999999999948,
          "velocity": 0.7874015748031497,
          "duration": 0.05999999999999872
        },
        {
          "name": "C5",
          "midi": 72,
          "time": 22.679999999999946,
          "velocity": 0.7874015748031497,
          "duration": 0.05999999999999872
        },
        {
          "name": "A4",
          "midi": 69,
          "time": 22.739999999999945,
          "velocity": 0.7874015748031497,
          "duration": 0.05999999999999872
        },
        {
          "name": "D5",
          "midi": 74,
          "time": 22.799999999999944,
          "velocity": 0.7874015748031497,
          "duration": 0.05999999999999872
        },
        {
          "name": "E5",
          "midi": 76,
          "time": 22.859999999999943,
          "velocity": 0.7874015748031497,
          "duration": 0.05999999999999872
        },
        {
          "name": "F5",
          "midi": 77,
          "time": 22.91999999999994,
          "velocity": 0.7874015748031497,
          "duration": 0.05999999999999872
        },
        {
          "name": "D5",
          "midi": 74,
          "time": 22.97999999999994,
          "velocity": 0.7874015748031497,
          "duration": 0.05999999999999872
        },
        {
          "name": "B4",
          "midi": 71,
          "time": 23.03999999999994,
          "velocity": 0.7874015748031497,
          "duration": 0.21000000000000796
        },
        {
          "name": "A4",
          "midi": 69,
          "time": 23.249999999999947,
          "velocity": 0.7874015748031497,
          "duration": 0.030000000000001137
        },
        {
          "name": "B4",
          "midi": 71,
          "time": 23.279999999999948,
          "velocity": 0.7874015748031497,
          "duration": 0.05999999999999872
        },
        {
          "name": "G4",
          "midi": 67,
          "time": 23.399999999999945,
          "velocity": 0.7874015748031497,
          "duration": 0.05999999999999872
        },
        {
          "name": "A4",
          "midi": 69,
          "time": 23.459999999999944,
          "velocity": 0.7874015748031497,
          "duration": 0.05999999999999872
        },
        {
          "name": "B4",
          "midi": 71,
          "time": 23.519999999999943,
          "velocity": 0.7874015748031497,
          "duration": 0.05999999999999872
        },
        {
          "name": "C5",
          "midi": 72,
          "time": 23.57999999999994,
          "velocity": 0.7874015748031497,
          "duration": 0.05999999999999872
        },
        {
          "name": "D5",
          "midi": 74,
          "time": 23.63999999999994,
          "velocity": 0.7874015748031497,
          "duration": 0.05999999999999872
        },
        {
          "name": "E5",
          "midi": 76,
          "time": 23.69999999999994,
          "velocity": 0.7874015748031497,
          "duration": 0.05999999999999872
        },
        {
          "name": "F5",
          "midi": 77,
          "time": 23.759999999999938,
          "velocity": 0.7874015748031497,
          "duration": 0.120000000000001
        },
        {
          "name": "G#4",
          "midi": 68,
          "time": 23.87999999999994,
          "velocity": 0.7874015748031497,
          "duration": 0.05999999999999872
        },
        {
          "name": "A4",
          "midi": 69,
          "time": 23.939999999999937,
          "velocity": 0.7874015748031497,
          "duration": 0.05999999999999872
        },
        {
          "name": "B4",
          "midi": 71,
          "time": 23.999999999999936,
          "velocity": 0.7874015748031497,
          "duration": 0.120000000000001
        },
        {
          "name": "D5",
          "midi": 74,
          "time": 24.119999999999937,
          "velocity": 0.7874015748031497,
          "duration": 0.120000000000001
        },
        {
          "name": "E5",
          "midi": 76,
          "time": 24.239999999999938,
          "velocity": 0.7874015748031497,
          "duration": 0.05999999999999872
        },
        {
          "name": "D5",
          "midi": 74,
          "time": 24.299999999999937,
          "velocity": 0.7874015748031497,
          "duration": 0.05999999999999872
        },
        {
          "name": "C5",
          "midi": 72,
          "time": 24.359999999999935,
          "velocity": 0.7874015748031497,
          "duration": 0.05999999999999872
        },
        {
          "name": "B4",
          "midi": 71,
          "time": 24.419999999999934,
          "velocity": 0.7874015748031497,
          "duration": 0.05999999999999872
        },
        {
          "name": "C5",
          "midi": 72,
          "time": 24.479999999999933,
          "velocity": 0.7874015748031497,
          "duration": 0.05999999999999872
        },
        {
          "name": "B4",
          "midi": 71,
          "time": 24.53999999999993,
          "velocity": 0.7874015748031497,
          "duration": 0.05999999999999872
        },
        {
          "name": "A4",
          "midi": 69,
          "time": 24.59999999999993,
          "velocity": 0.7874015748031497,
          "duration": 0.05999999999999872
        },
        {
          "name": "E5",
          "midi": 76,
          "time": 24.65999999999993,
          "velocity": 0.7874015748031497,
          "duration": 0.05999999999999872
        },
        {
          "name": "C5",
          "midi": 72,
          "time": 24.719999999999928,
          "velocity": 0.7874015748031497,
          "duration": 0.05999999999999872
        },
        {
          "name": "B4",
          "midi": 71,
          "time": 24.779999999999927,
          "velocity": 0.7874015748031497,
          "duration": 0.05999999999999872
        },
        {
          "name": "A4",
          "midi": 69,
          "time": 24.839999999999925,
          "velocity": 0.7874015748031497,
          "duration": 0.05999999999999872
        },
        {
          "name": "E5",
          "midi": 76,
          "time": 24.899999999999924,
          "velocity": 0.7874015748031497,
          "duration": 0.05999999999999872
        },
        {
          "name": "A5",
          "midi": 81,
          "time": 24.959999999999923,
          "velocity": 0.7874015748031497,
          "duration": 0.05999999999999872
        },
        {
          "name": "G#5",
          "midi": 80,
          "time": 25.01999999999992,
          "velocity": 0.7874015748031497,
          "duration": 0.05999999999999872
        },
        {
          "name": "A5",
          "midi": 81,
          "time": 25.07999999999992,
          "velocity": 0.7874015748031497,
          "duration": 0.05999999999999872
        },
        {
          "name": "C5",
          "midi": 72,
          "time": 25.13999999999992,
          "velocity": 0.7874015748031497,
          "duration": 0.05999999999999872
        },
        {
          "name": "D#4",
          "midi": 63,
          "time": 25.199999999999918,
          "velocity": 0.7874015748031497,
          "duration": 0.05999999999999872
        },
        {
          "name": "C5",
          "midi": 72,
          "time": 25.259999999999916,
          "velocity": 0.7874015748031497,
          "duration": 0.05999999999999872
        },
        {
          "name": "A5",
          "midi": 81,
          "time": 25.319999999999915,
          "velocity": 0.7874015748031497,
          "duration": 0.05999999999999872
        },
        {
          "name": "A5",
          "midi": 81,
          "time": 25.379999999999914,
          "velocity": 0.7874015748031497,
          "duration": 0.05999999999999872
        },
        {
          "name": "D#4",
          "midi": 63,
          "time": 25.439999999999912,
          "velocity": 0.7874015748031497,
          "duration": 0.05999999999999872
        },
        {
          "name": "C5",
          "midi": 72,
          "time": 25.49999999999991,
          "velocity": 0.7874015748031497,
          "duration": 0.05999999999999872
        },
        {
          "name": "A5",
          "midi": 81,
          "time": 25.55999999999991,
          "velocity": 0.7874015748031497,
          "duration": 0.05999999999999872
        },
        {
          "name": "A5",
          "midi": 81,
          "time": 25.61999999999991,
          "velocity": 0.7874015748031497,
          "duration": 0.05999999999999872
        },
        {
          "name": "B4",
          "midi": 71,
          "time": 25.679999999999907,
          "velocity": 0.7874015748031497,
          "duration": 0.05999999999999872
        },
        {
          "name": "A5",
          "midi": 81,
          "time": 25.739999999999906,
          "velocity": 0.7874015748031497,
          "duration": 0.05999999999999872
        },
        {
          "name": "G5",
          "midi": 79,
          "time": 25.799999999999905,
          "velocity": 0.7874015748031497,
          "duration": 0.05999999999999872
        },
        {
          "name": "F#5",
          "midi": 78,
          "time": 25.859999999999904,
          "velocity": 0.7874015748031497,
          "duration": 0.05999999999999872
        },
        {
          "name": "G5",
          "midi": 79,
          "time": 25.919999999999902,
          "velocity": 0.7874015748031497,
          "duration": 0.05999999999999872
        },
        {
          "name": "F#5",
          "midi": 78,
          "time": 25.9799999999999,
          "velocity": 0.7874015748031497,
          "duration": 0.05999999999999872
        },
        {
          "name": "E5",
          "midi": 76,
          "time": 26.0399999999999,
          "velocity": 0.7874015748031497,
          "duration": 0.05999999999999872
        },
        {
          "name": "B5",
          "midi": 83,
          "time": 26.0999999999999,
          "velocity": 0.7874015748031497,
          "duration": 0.05999999999999872
        },
        {
          "name": "G5",
          "midi": 79,
          "time": 26.159999999999897,
          "velocity": 0.7874015748031497,
          "duration": 0.05999999999999872
        },
        {
          "name": "F#5",
          "midi": 78,
          "time": 26.219999999999896,
          "velocity": 0.7874015748031497,
          "duration": 0.05999999999999872
        },
        {
          "name": "E5",
          "midi": 76,
          "time": 26.279999999999895,
          "velocity": 0.7874015748031497,
          "duration": 0.05999999999999872
        },
        {
          "name": "B5",
          "midi": 83,
          "time": 26.339999999999893,
          "velocity": 0.7874015748031497,
          "duration": 0.05999999999999872
        },
        {
          "name": "C6",
          "midi": 84,
          "time": 26.399999999999892,
          "velocity": 0.7874015748031497,
          "duration": 0.05999999999999872
        },
        {
          "name": "B5",
          "midi": 83,
          "time": 26.45999999999989,
          "velocity": 0.7874015748031497,
          "duration": 0.05999999999999872
        },
        {
          "name": "C6",
          "midi": 84,
          "time": 26.51999999999989,
          "velocity": 0.7874015748031497,
          "duration": 0.05999999999999872
        },
        {
          "name": "E5",
          "midi": 76,
          "time": 26.579999999999888,
          "velocity": 0.7874015748031497,
          "duration": 0.05999999999999872
        },
        {
          "name": "F#4",
          "midi": 66,
          "time": 26.639999999999887,
          "velocity": 0.7874015748031497,
          "duration": 0.05999999999999872
        },
        {
          "name": "D5",
          "midi": 74,
          "time": 26.699999999999886,
          "velocity": 0.7874015748031497,
          "duration": 0.05999999999999872
        },
        {
          "name": "C6",
          "midi": 84,
          "time": 26.759999999999884,
          "velocity": 0.7874015748031497,
          "duration": 0.05999999999999872
        },
        {
          "name": "C6",
          "midi": 84,
          "time": 26.819999999999883,
          "velocity": 0.7874015748031497,
          "duration": 0.05999999999999872
        },
        {
          "name": "G#4",
          "midi": 68,
          "time": 26.87999999999988,
          "velocity": 0.7874015748031497,
          "duration": 0.05999999999999872
        },
        {
          "name": "D5",
          "midi": 74,
          "time": 26.93999999999988,
          "velocity": 0.7874015748031497,
          "duration": 0.05999999999999872
        },
        {
          "name": "B5",
          "midi": 83,
          "time": 26.99999999999988,
          "velocity": 0.7874015748031497,
          "duration": 0.05999999999999872
        },
        {
          "name": "D5",
          "midi": 74,
          "time": 27.059999999999878,
          "velocity": 0.7874015748031497,
          "duration": 0.05999999999999872
        },
        {
          "name": "G#4",
          "midi": 68,
          "time": 27.119999999999877,
          "velocity": 0.7874015748031497,
          "duration": 0.05999999999999872
        },
        {
          "name": "D5",
          "midi": 74,
          "time": 27.179999999999875,
          "velocity": 0.7874015748031497,
          "duration": 0.05999999999999872
        },
        {
          "name": "C5",
          "midi": 72,
          "time": 27.239999999999874,
          "velocity": 0.7874015748031497,
          "duration": 0.05999999999999872
        },
        {
          "name": "B4",
          "midi": 71,
          "time": 27.299999999999873,
          "velocity": 0.7874015748031497,
          "duration": 0.05999999999999872
        },
        {
          "name": "A4",
          "midi": 69,
          "time": 27.35999999999987,
          "velocity": 0.7874015748031497,
          "duration": 0.05999999999999872
        },
        {
          "name": "B4",
          "midi": 71,
          "time": 27.41999999999987,
          "velocity": 0.7874015748031497,
          "duration": 0.05999999999999872
        },
        {
          "name": "C5",
          "midi": 72,
          "time": 27.47999999999987,
          "velocity": 0.7874015748031497,
          "duration": 0.05999999999999872
        },
        {
          "name": "E5",
          "midi": 76,
          "time": 27.539999999999868,
          "velocity": 0.7874015748031497,
          "duration": 0.05999999999999872
        },
        {
          "name": "A4",
          "midi": 69,
          "time": 27.599999999999866,
          "velocity": 0.7874015748031497,
          "duration": 0.05999999999999872
        },
        {
          "name": "B4",
          "midi": 71,
          "time": 27.659999999999865,
          "velocity": 0.7874015748031497,
          "duration": 0.05999999999999872
        },
        {
          "name": "C5",
          "midi": 72,
          "time": 27.719999999999864,
          "velocity": 0.7874015748031497,
          "duration": 0.05999999999999872
        },
        {
          "name": "E5",
          "midi": 76,
          "time": 27.779999999999863,
          "velocity": 0.7874015748031497,
          "duration": 0.05999999999999872
        },
        {
          "name": "A5",
          "midi": 81,
          "time": 27.83999999999986,
          "velocity": 0.7874015748031497,
          "duration": 0.05999999999999872
        },
        {
          "name": "B5",
          "midi": 83,
          "time": 27.89999999999986,
          "velocity": 0.7874015748031497,
          "duration": 0.05999999999999872
        },
        {
          "name": "C6",
          "midi": 84,
          "time": 27.95999999999986,
          "velocity": 0.7874015748031497,
          "duration": 0.05999999999999872
        },
        {
          "name": "A5",
          "midi": 81,
          "time": 28.019999999999857,
          "velocity": 0.7874015748031497,
          "duration": 0.05999999999999872
        },
        {
          "name": "D#6",
          "midi": 87,
          "time": 28.079999999999856,
          "velocity": 0.7874015748031497,
          "duration": 0.35999999999999943
        },
        {
          "name": "A4",
          "midi": 69,
          "time": 28.439999999999856,
          "velocity": 0.7874015748031497,
          "duration": 0.05999999999999872
        },
        {
          "name": "C5",
          "midi": 72,
          "time": 28.499999999999854,
          "velocity": 0.7874015748031497,
          "duration": 0.05999999999999872
        },
        {
          "name": "B4",
          "midi": 71,
          "time": 28.559999999999853,
          "velocity": 0.7874015748031497,
          "duration": 0.05999999999999872
        },
        {
          "name": "A4",
          "midi": 69,
          "time": 28.619999999999852,
          "velocity": 0.7874015748031497,
          "duration": 0.05999999999999872
        },
        {
          "name": "G4",
          "midi": 67,
          "time": 28.67999999999985,
          "velocity": 0.7874015748031497,
          "duration": 0.05999999999999872
        },
        {
          "name": "F#4",
          "midi": 66,
          "time": 28.73999999999985,
          "velocity": 0.7874015748031497,
          "duration": 0.05999999999999872
        },
        {
          "name": "G4",
          "midi": 67,
          "time": 28.799999999999848,
          "velocity": 0.7874015748031497,
          "duration": 0.05999999999999872
        },
        {
          "name": "B4",
          "midi": 71,
          "time": 28.859999999999847,
          "velocity": 0.7874015748031497,
          "duration": 0.05999999999999872
        },
        {
          "name": "E5",
          "midi": 76,
          "time": 28.919999999999845,
          "velocity": 0.7874015748031497,
          "duration": 0.05999999999999872
        },
        {
          "name": "B5",
          "midi": 83,
          "time": 28.979999999999844,
          "velocity": 0.7874015748031497,
          "duration": 0.05999999999999872
        },
        {
          "name": "A5",
          "midi": 81,
          "time": 29.039999999999843,
          "velocity": 0.7874015748031497,
          "duration": 0.05999999999999872
        },
        {
          "name": "G5",
          "midi": 79,
          "time": 29.09999999999984,
          "velocity": 0.7874015748031497,
          "duration": 0.05999999999999872
        },
        {
          "name": "F#5",
          "midi": 78,
          "time": 29.15999999999984,
          "velocity": 0.7874015748031497,
          "duration": 0.05999999999999872
        },
        {
          "name": "E5",
          "midi": 76,
          "time": 29.21999999999984,
          "velocity": 0.7874015748031497,
          "duration": 0.05999999999999872
        },
        {
          "name": "G5",
          "midi": 79,
          "time": 29.279999999999838,
          "velocity": 0.7874015748031497,
          "duration": 0.05999999999999872
        },
        {
          "name": "F#5",
          "midi": 78,
          "time": 29.339999999999836,
          "velocity": 0.7874015748031497,
          "duration": 0.05999999999999872
        },
        {
          "name": "E5",
          "midi": 76,
          "time": 29.399999999999835,
          "velocity": 0.7874015748031497,
          "duration": 0.05999999999999872
        },
        {
          "name": "D#5",
          "midi": 75,
          "time": 29.459999999999834,
          "velocity": 0.7874015748031497,
          "duration": 0.05999999999999872
        },
        {
          "name": "E5",
          "midi": 76,
          "time": 29.519999999999833,
          "velocity": 0.7874015748031497,
          "duration": 0.120000000000001
        },
        {
          "name": "A#4",
          "midi": 70,
          "time": 29.639999999999834,
          "velocity": 0.7874015748031497,
          "duration": 0.05999999999999872
        },
        {
          "name": "B4",
          "midi": 71,
          "time": 29.699999999999832,
          "velocity": 0.7874015748031497,
          "duration": 0.05999999999999872
        },
        {
          "name": "C#5",
          "midi": 73,
          "time": 29.75999999999983,
          "velocity": 0.7874015748031497,
          "duration": 0.120000000000001
        },
        {
          "name": "E5",
          "midi": 76,
          "time": 29.879999999999832,
          "velocity": 0.7874015748031497,
          "duration": 0.120000000000001
        },
        {
          "name": "F#5",
          "midi": 78,
          "time": 29.999999999999833,
          "velocity": 0.7874015748031497,
          "duration": 0.05999999999999872
        },
        {
          "name": "E5",
          "midi": 76,
          "time": 30.05999999999983,
          "velocity": 0.7874015748031497,
          "duration": 0.05999999999999872
        },
        {
          "name": "D5",
          "midi": 74,
          "time": 30.11999999999983,
          "velocity": 0.7874015748031497,
          "duration": 0.05999999999999872
        },
        {
          "name": "C#5",
          "midi": 73,
          "time": 30.17999999999983,
          "velocity": 0.7874015748031497,
          "duration": 0.05999999999999872
        },
        {
          "name": "D#5",
          "midi": 75,
          "time": 30.239999999999828,
          "velocity": 0.7874015748031497,
          "duration": 0.120000000000001
        },
        {
          "name": "F#5",
          "midi": 78,
          "time": 30.35999999999983,
          "velocity": 0.7874015748031497,
          "duration": 0.05999999999999872
        },
        {
          "name": "G5",
          "midi": 79,
          "time": 30.419999999999828,
          "velocity": 0.7874015748031497,
          "duration": 0.05999999999999872
        },
        {
          "name": "A5",
          "midi": 81,
          "time": 30.479999999999826,
          "velocity": 0.7874015748031497,
          "duration": 0.120000000000001
        },
        {
          "name": "F#5",
          "midi": 78,
          "time": 30.599999999999827,
          "velocity": 0.7874015748031497,
          "duration": 0.120000000000001
        },
        {
          "name": "E5",
          "midi": 76,
          "time": 30.71999999999983,
          "velocity": 0.7874015748031497,
          "duration": 0.05999999999999872
        },
        {
          "name": "D#5",
          "midi": 75,
          "time": 30.779999999999827,
          "velocity": 0.7874015748031497,
          "duration": 0.05999999999999872
        },
        {
          "name": "C#5",
          "midi": 73,
          "time": 30.839999999999826,
          "velocity": 0.7874015748031497,
          "duration": 0.05999999999999872
        },
        {
          "name": "B4",
          "midi": 71,
          "time": 30.899999999999824,
          "velocity": 0.7874015748031497,
          "duration": 0.05999999999999872
        },
        {
          "name": "A4",
          "midi": 69,
          "time": 30.959999999999823,
          "velocity": 0.7874015748031497,
          "duration": 0.05999999999999872
        },
        {
          "name": "F#4",
          "midi": 66,
          "time": 31.019999999999822,
          "velocity": 0.7874015748031497,
          "duration": 0.05999999999999872
        },
        {
          "name": "G4",
          "midi": 67,
          "time": 31.07999999999982,
          "velocity": 0.7874015748031497,
          "duration": 0.05999999999999872
        },
        {
          "name": "B4",
          "midi": 71,
          "time": 31.13999999999982,
          "velocity": 0.7874015748031497,
          "duration": 0.05999999999999872
        },
        {
          "name": "E5",
          "midi": 76,
          "time": 31.199999999999818,
          "velocity": 0.7874015748031497,
          "duration": 0.05999999999999872
        },
        {
          "name": "G5",
          "midi": 79,
          "time": 31.259999999999817,
          "velocity": 0.7874015748031497,
          "duration": 0.05999999999999872
        },
        {
          "name": "B5",
          "midi": 83,
          "time": 31.319999999999816,
          "velocity": 0.7874015748031497,
          "duration": 0.05999999999999872
        },
        {
          "name": "E5",
          "midi": 76,
          "time": 31.379999999999814,
          "velocity": 0.7874015748031497,
          "duration": 0.05999999999999872
        },
        {
          "name": "B4",
          "midi": 71,
          "time": 31.439999999999813,
          "velocity": 0.7874015748031497,
          "duration": 0.120000000000001
        },
        {
          "name": "D#5",
          "midi": 75,
          "time": 31.559999999999814,
          "velocity": 0.7874015748031497,
          "duration": 0.120000000000001
        },
        {
          "name": "E5",
          "midi": 76,
          "time": 31.679999999999815,
          "velocity": 0.7874015748031497,
          "duration": 0.05999999999999872
        },
        {
          "name": "B4",
          "midi": 71,
          "time": 31.739999999999814,
          "velocity": 0.7874015748031497,
          "duration": 0.05999999999999872
        },
        {
          "name": "C5",
          "midi": 72,
          "time": 31.799999999999812,
          "velocity": 0.7874015748031497,
          "duration": 0.05999999999999872
        },
        {
          "name": "A4",
          "midi": 69,
          "time": 31.85999999999981,
          "velocity": 0.7874015748031497,
          "duration": 0.05999999999999872
        },
        {
          "name": "G4",
          "midi": 67,
          "time": 31.91999999999981,
          "velocity": 0.7874015748031497,
          "duration": 0.05999999999999872
        },
        {
          "name": "E5",
          "midi": 76,
          "time": 31.97999999999981,
          "velocity": 0.7874015748031497,
          "duration": 0.05999999999999872
        },
        {
          "name": "F#4",
          "midi": 66,
          "time": 32.03999999999981,
          "velocity": 0.7874015748031497,
          "duration": 0.060000000000002274
        },
        {
          "name": "D#5",
          "midi": 75,
          "time": 32.09999999999981,
          "velocity": 0.7874015748031497,
          "duration": 0.060000000000002274
        },
        {
          "name": "E4",
          "midi": 64,
          "time": 32.15999999999981,
          "velocity": 0.7874015748031497,
          "duration": 0.11999999999999744
        },
        {
          "name": "B4",
          "midi": 71,
          "time": 32.27999999999981,
          "velocity": 0.7874015748031497,
          "duration": 0.11999999999999744
        },
        {
          "name": "E4",
          "midi": 64,
          "time": 32.39999999999981,
          "velocity": 0.7874015748031497,
          "duration": 0.060000000000002274
        },
        {
          "name": "F#4",
          "midi": 66,
          "time": 32.45999999999981,
          "velocity": 0.7874015748031497,
          "duration": 0.060000000000002274
        },
        {
          "name": "G#4",
          "midi": 68,
          "time": 32.51999999999981,
          "velocity": 0.7874015748031497,
          "duration": 0.060000000000002274
        },
        {
          "name": "A4",
          "midi": 69,
          "time": 32.579999999999814,
          "velocity": 0.7874015748031497,
          "duration": 0.060000000000002274
        },
        {
          "name": "B4",
          "midi": 71,
          "time": 32.639999999999816,
          "velocity": 0.7874015748031497,
          "duration": 0.060000000000002274
        },
        {
          "name": "C5",
          "midi": 72,
          "time": 32.69999999999982,
          "velocity": 0.7874015748031497,
          "duration": 0.060000000000002274
        },
        {
          "name": "D5",
          "midi": 74,
          "time": 32.75999999999982,
          "velocity": 0.7874015748031497,
          "duration": 0.060000000000002274
        },
        {
          "name": "E5",
          "midi": 76,
          "time": 32.81999999999982,
          "velocity": 0.7874015748031497,
          "duration": 0.060000000000002274
        },
        {
          "name": "F5",
          "midi": 77,
          "time": 32.879999999999825,
          "velocity": 1,
          "duration": 0.11999999999999744
        },
        {
          "name": "E5",
          "midi": 76,
          "time": 32.99999999999982,
          "velocity": 0.7874015748031497,
          "duration": 0.060000000000002274
        },
        {
          "name": "D5",
          "midi": 74,
          "time": 33.059999999999825,
          "velocity": 0.7874015748031497,
          "duration": 0.060000000000002274
        },
        {
          "name": "C5",
          "midi": 72,
          "time": 33.11999999999983,
          "velocity": 1,
          "duration": 0.11999999999999744
        },
        {
          "name": "A4",
          "midi": 69,
          "time": 33.239999999999824,
          "velocity": 1,
          "duration": 0.11999999999999744
        },
        {
          "name": "C6",
          "midi": 84,
          "time": 33.35999999999982,
          "velocity": 1,
          "duration": 0.240000000000002
        },
        {
          "name": "G4",
          "midi": 67,
          "time": 33.599999999999824,
          "velocity": 1,
          "duration": 0.240000000000002
        },
        {
          "name": "F#4",
          "midi": 66,
          "time": 33.839999999999826,
          "velocity": 1,
          "duration": 0.11999999999999744
        },
        {
          "name": "C6",
          "midi": 84,
          "time": 33.95999999999982,
          "velocity": 0.7874015748031497,
          "duration": 0.060000000000002274
        },
        {
          "name": "B5",
          "midi": 83,
          "time": 34.019999999999825,
          "velocity": 0.7874015748031497,
          "duration": 0.060000000000002274
        },
        {
          "name": "C6",
          "midi": 84,
          "time": 34.07999999999983,
          "velocity": 1,
          "duration": 0.11999999999999744
        },
        {
          "name": "E4",
          "midi": 64,
          "time": 34.199999999999825,
          "velocity": 1,
          "duration": 0.11999999999999744
        },
        {
          "name": "D4",
          "midi": 62,
          "time": 34.31999999999982,
          "velocity": 1,
          "duration": 0.11999999999999744
        },
        {
          "name": "C6",
          "midi": 84,
          "time": 34.43999999999982,
          "velocity": 1,
          "duration": 0.11999999999999744
        },
        {
          "name": "B5",
          "midi": 83,
          "time": 34.55999999999982,
          "velocity": 0.7874015748031497,
          "duration": 0.060000000000002274
        },
        {
          "name": "C6",
          "midi": 84,
          "time": 34.61999999999982,
          "velocity": 0.7874015748031497,
          "duration": 0.060000000000002274
        },
        {
          "name": "D6",
          "midi": 86,
          "time": 34.67999999999982,
          "velocity": 0.7874015748031497,
          "duration": 0.060000000000002274
        },
        {
          "name": "B5",
          "midi": 83,
          "time": 34.739999999999824,
          "velocity": 0.7874015748031497,
          "duration": 0.060000000000002274
        },
        {
          "name": "G5",
          "midi": 79,
          "time": 34.79999999999983,
          "velocity": 1,
          "duration": 0.29999999999999716
        },
        {
          "name": "F5",
          "midi": 77,
          "time": 35.099999999999824,
          "velocity": 0.7874015748031497,
          "duration": 0.060000000000002274
        },
        {
          "name": "E5",
          "midi": 76,
          "time": 35.159999999999826,
          "velocity": 0.7874015748031497,
          "duration": 0.060000000000002274
        },
        {
          "name": "D5",
          "midi": 74,
          "time": 35.21999999999983,
          "velocity": 0.7874015748031497,
          "duration": 0.060000000000002274
        },
        {
          "name": "C5",
          "midi": 72,
          "time": 35.27999999999983,
          "velocity": 0.7874015748031497,
          "duration": 0.060000000000002274
        },
        {
          "name": "B4",
          "midi": 71,
          "time": 35.33999999999983,
          "velocity": 0.7874015748031497,
          "duration": 0.060000000000002274
        },
        {
          "name": "A4",
          "midi": 69,
          "time": 35.399999999999835,
          "velocity": 0.7874015748031497,
          "duration": 0.060000000000002274
        },
        {
          "name": "C5",
          "midi": 72,
          "time": 35.45999999999984,
          "velocity": 0.7874015748031497,
          "duration": 0.060000000000002274
        },
        {
          "name": "F5",
          "midi": 77,
          "time": 35.51999999999984,
          "velocity": 0.7874015748031497,
          "duration": 0.060000000000002274
        },
        {
          "name": "G5",
          "midi": 79,
          "time": 35.57999999999984,
          "velocity": 0.7874015748031497,
          "duration": 0.060000000000002274
        },
        {
          "name": "A5",
          "midi": 81,
          "time": 35.639999999999844,
          "velocity": 0.7874015748031497,
          "duration": 0.060000000000002274
        },
        {
          "name": "F5",
          "midi": 77,
          "time": 35.69999999999985,
          "velocity": 0.7874015748031497,
          "duration": 0.060000000000002274
        },
        {
          "name": "D5",
          "midi": 74,
          "time": 35.75999999999985,
          "velocity": 0.7874015748031497,
          "duration": 0.060000000000002274
        },
        {
          "name": "E5",
          "midi": 76,
          "time": 35.81999999999985,
          "velocity": 0.7874015748031497,
          "duration": 0.060000000000002274
        },
        {
          "name": "F5",
          "midi": 77,
          "time": 35.87999999999985,
          "velocity": 0.7874015748031497,
          "duration": 0.060000000000002274
        },
        {
          "name": "D5",
          "midi": 74,
          "time": 35.939999999999856,
          "velocity": 0.7874015748031497,
          "duration": 0.060000000000002274
        },
        {
          "name": "C5",
          "midi": 72,
          "time": 35.99999999999986,
          "velocity": 0.7874015748031497,
          "duration": 0.060000000000002274
        },
        {
          "name": "B4",
          "midi": 71,
          "time": 36.05999999999986,
          "velocity": 0.7874015748031497,
          "duration": 0.060000000000002274
        },
        {
          "name": "A4",
          "midi": 69,
          "time": 36.11999999999986,
          "velocity": 0.7874015748031497,
          "duration": 0.060000000000002274
        },
        {
          "name": "G4",
          "midi": 67,
          "time": 36.179999999999865,
          "velocity": 0.7874015748031497,
          "duration": 0.060000000000002274
        },
        {
          "name": "E5",
          "midi": 76,
          "time": 36.23999999999987,
          "velocity": 0.7874015748031497,
          "duration": 0.060000000000002274
        },
        {
          "name": "F5",
          "midi": 77,
          "time": 36.29999999999987,
          "velocity": 0.7874015748031497,
          "duration": 0.060000000000002274
        },
        {
          "name": "G5",
          "midi": 79,
          "time": 36.35999999999987,
          "velocity": 0.7874015748031497,
          "duration": 0.060000000000002274
        },
        {
          "name": "E5",
          "midi": 76,
          "time": 36.419999999999874,
          "velocity": 0.7874015748031497,
          "duration": 0.060000000000002274
        },
        {
          "name": "C5",
          "midi": 72,
          "time": 36.479999999999876,
          "velocity": 0.7874015748031497,
          "duration": 0.060000000000002274
        },
        {
          "name": "D5",
          "midi": 74,
          "time": 36.53999999999988,
          "velocity": 0.7874015748031497,
          "duration": 0.060000000000002274
        },
        {
          "name": "E5",
          "midi": 76,
          "time": 36.59999999999988,
          "velocity": 0.7874015748031497,
          "duration": 0.060000000000002274
        },
        {
          "name": "C5",
          "midi": 72,
          "time": 36.65999999999988,
          "velocity": 0.7874015748031497,
          "duration": 0.060000000000002274
        },
        {
          "name": "A4",
          "midi": 69,
          "time": 36.719999999999885,
          "velocity": 0.7874015748031497,
          "duration": 0.060000000000002274
        },
        {
          "name": "G4",
          "midi": 67,
          "time": 36.77999999999989,
          "velocity": 0.7874015748031497,
          "duration": 0.060000000000002274
        },
        {
          "name": "F4",
          "midi": 65,
          "time": 36.83999999999989,
          "velocity": 0.7874015748031497,
          "duration": 0.060000000000002274
        },
        {
          "name": "A4",
          "midi": 69,
          "time": 36.89999999999989,
          "velocity": 0.7874015748031497,
          "duration": 0.060000000000002274
        },
        {
          "name": "D5",
          "midi": 74,
          "time": 36.959999999999894,
          "velocity": 0.7874015748031497,
          "duration": 0.060000000000002274
        },
        {
          "name": "E5",
          "midi": 76,
          "time": 37.0199999999999,
          "velocity": 0.7874015748031497,
          "duration": 0.060000000000002274
        },
        {
          "name": "F5",
          "midi": 77,
          "time": 37.0799999999999,
          "velocity": 0.7874015748031497,
          "duration": 0.060000000000002274
        },
        {
          "name": "G5",
          "midi": 79,
          "time": 37.1399999999999,
          "velocity": 0.7874015748031497,
          "duration": 0.060000000000002274
        },
        {
          "name": "A5",
          "midi": 81,
          "time": 37.1999999999999,
          "velocity": 0.7874015748031497,
          "duration": 0.060000000000002274
        },
        {
          "name": "B5",
          "midi": 83,
          "time": 37.259999999999906,
          "velocity": 0.7874015748031497,
          "duration": 0.060000000000002274
        },
        {
          "name": "C6",
          "midi": 84,
          "time": 37.31999999999991,
          "velocity": 0.7874015748031497,
          "duration": 0.060000000000002274
        },
        {
          "name": "A5",
          "midi": 81,
          "time": 37.37999999999991,
          "velocity": 0.7874015748031497,
          "duration": 0.060000000000002274
        },
        {
          "name": "F5",
          "midi": 77,
          "time": 37.43999999999991,
          "velocity": 0.7874015748031497,
          "duration": 0.060000000000002274
        },
        {
          "name": "E5",
          "midi": 76,
          "time": 37.499999999999915,
          "velocity": 0.7874015748031497,
          "duration": 0.060000000000002274
        },
        {
          "name": "F5",
          "midi": 77,
          "time": 37.55999999999992,
          "velocity": 0.7874015748031497,
          "duration": 0.060000000000002274
        },
        {
          "name": "D5",
          "midi": 74,
          "time": 37.61999999999992,
          "velocity": 0.7874015748031497,
          "duration": 0.060000000000002274
        },
        {
          "name": "B4",
          "midi": 71,
          "time": 37.67999999999992,
          "velocity": 0.7874015748031497,
          "duration": 0.060000000000002274
        },
        {
          "name": "A4",
          "midi": 69,
          "time": 37.739999999999924,
          "velocity": 0.7874015748031497,
          "duration": 0.060000000000002274
        },
        {
          "name": "B4",
          "midi": 71,
          "time": 37.799999999999926,
          "velocity": 0.7874015748031497,
          "duration": 0.060000000000002274
        },
        {
          "name": "G4",
          "midi": 67,
          "time": 37.85999999999993,
          "velocity": 0.7874015748031497,
          "duration": 0.060000000000002274
        },
        {
          "name": "F4",
          "midi": 65,
          "time": 37.91999999999993,
          "velocity": 0.7874015748031497,
          "duration": 0.060000000000002274
        },
        {
          "name": "E4",
          "midi": 64,
          "time": 37.97999999999993,
          "velocity": 0.7874015748031497,
          "duration": 0.060000000000002274
        },
        {
          "name": "F4",
          "midi": 65,
          "time": 38.039999999999935,
          "velocity": 0.7874015748031497,
          "duration": 0.060000000000002274
        },
        {
          "name": "D4",
          "midi": 62,
          "time": 38.09999999999994,
          "velocity": 0.7874015748031497,
          "duration": 0.060000000000002274
        },
        {
          "name": "E4",
          "midi": 64,
          "time": 38.15999999999994,
          "velocity": 0.7874015748031497,
          "duration": 0.060000000000002274
        },
        {
          "name": "C5",
          "midi": 72,
          "time": 38.21999999999994,
          "velocity": 0.7874015748031497,
          "duration": 0.060000000000002274
        },
        {
          "name": "G5",
          "midi": 79,
          "time": 38.279999999999944,
          "velocity": 0.7874015748031497,
          "duration": 0.060000000000002274
        },
        {
          "name": "G5",
          "midi": 79,
          "time": 38.33999999999995,
          "velocity": 0.7874015748031497,
          "duration": 0.060000000000002274
        },
        {
          "name": "E4",
          "midi": 64,
          "time": 38.39999999999995,
          "velocity": 0.7874015748031497,
          "duration": 0.060000000000002274
        },
        {
          "name": "C5",
          "midi": 72,
          "time": 38.45999999999995,
          "velocity": 0.7874015748031497,
          "duration": 0.060000000000002274
        },
        {
          "name": "G5",
          "midi": 79,
          "time": 38.51999999999995,
          "velocity": 0.7874015748031497,
          "duration": 0.060000000000002274
        },
        {
          "name": "C5",
          "midi": 72,
          "time": 38.579999999999956,
          "velocity": 0.7874015748031497,
          "duration": 0.060000000000002274
        },
        {
          "name": "A5",
          "midi": 81,
          "time": 38.63999999999996,
          "velocity": 0.7874015748031497,
          "duration": 0.060000000000002274
        },
        {
          "name": "C5",
          "midi": 72,
          "time": 38.69999999999996,
          "velocity": 0.7874015748031497,
          "duration": 0.060000000000002274
        },
        {
          "name": "A#5",
          "midi": 82,
          "time": 38.75999999999996,
          "velocity": 0.7874015748031497,
          "duration": 0.060000000000002274
        },
        {
          "name": "C5",
          "midi": 72,
          "time": 38.819999999999965,
          "velocity": 0.7874015748031497,
          "duration": 0.060000000000002274
        },
        {
          "name": "F4",
          "midi": 65,
          "time": 38.87999999999997,
          "velocity": 0.7874015748031497,
          "duration": 0.060000000000002274
        },
        {
          "name": "C5",
          "midi": 72,
          "time": 38.93999999999997,
          "velocity": 0.7874015748031497,
          "duration": 0.060000000000002274
        },
        {
          "name": "A5",
          "midi": 81,
          "time": 38.99999999999997,
          "velocity": 0.7874015748031497,
          "duration": 0.060000000000002274
        },
        {
          "name": "F5",
          "midi": 77,
          "time": 39.059999999999974,
          "velocity": 0.7874015748031497,
          "duration": 0.060000000000002274
        },
        {
          "name": "E5",
          "midi": 76,
          "time": 39.119999999999976,
          "velocity": 0.7874015748031497,
          "duration": 0.060000000000002274
        },
        {
          "name": "D5",
          "midi": 74,
          "time": 39.17999999999998,
          "velocity": 0.7874015748031497,
          "duration": 0.060000000000002274
        },
        {
          "name": "C5",
          "midi": 72,
          "time": 39.23999999999998,
          "velocity": 0.7874015748031497,
          "duration": 0.060000000000002274
        },
        {
          "name": "A#4",
          "midi": 70,
          "time": 39.29999999999998,
          "velocity": 0.7874015748031497,
          "duration": 0.060000000000002274
        },
        {
          "name": "A4",
          "midi": 69,
          "time": 39.359999999999985,
          "velocity": 0.7874015748031497,
          "duration": 0.060000000000002274
        },
        {
          "name": "G4",
          "midi": 67,
          "time": 39.41999999999999,
          "velocity": 0.7874015748031497,
          "duration": 0.060000000000002274
        },
        {
          "name": "F4",
          "midi": 65,
          "time": 39.47999999999999,
          "velocity": 0.7874015748031497,
          "duration": 0.060000000000002274
        },
        {
          "name": "E4",
          "midi": 64,
          "time": 39.53999999999999,
          "velocity": 0.7874015748031497,
          "duration": 0.060000000000002274
        },
        {
          "name": "F#4",
          "midi": 66,
          "time": 39.599999999999994,
          "velocity": 0.7874015748031497,
          "duration": 0.060000000000002274
        },
        {
          "name": "D5",
          "midi": 74,
          "time": 39.66,
          "velocity": 0.7874015748031497,
          "duration": 0.060000000000002274
        },
        {
          "name": "A5",
          "midi": 81,
          "time": 39.72,
          "velocity": 0.7874015748031497,
          "duration": 0.060000000000002274
        },
        {
          "name": "A5",
          "midi": 81,
          "time": 39.78,
          "velocity": 0.7874015748031497,
          "duration": 0.060000000000002274
        },
        {
          "name": "F#4",
          "midi": 66,
          "time": 39.84,
          "velocity": 0.7874015748031497,
          "duration": 0.060000000000002274
        },
        {
          "name": "D5",
          "midi": 74,
          "time": 39.900000000000006,
          "velocity": 0.7874015748031497,
          "duration": 0.060000000000002274
        },
        {
          "name": "A5",
          "midi": 81,
          "time": 39.96000000000001,
          "velocity": 0.7874015748031497,
          "duration": 0.060000000000002274
        },
        {
          "name": "D5",
          "midi": 74,
          "time": 40.02000000000001,
          "velocity": 0.7874015748031497,
          "duration": 0.060000000000002274
        },
        {
          "name": "B5",
          "midi": 83,
          "time": 40.08000000000001,
          "velocity": 0.7874015748031497,
          "duration": 0.060000000000002274
        },
        {
          "name": "D5",
          "midi": 74,
          "time": 40.140000000000015,
          "velocity": 0.7874015748031497,
          "duration": 0.060000000000002274
        },
        {
          "name": "C6",
          "midi": 84,
          "time": 40.20000000000002,
          "velocity": 0.7874015748031497,
          "duration": 0.060000000000002274
        },
        {
          "name": "D5",
          "midi": 74,
          "time": 40.26000000000002,
          "velocity": 0.7874015748031497,
          "duration": 0.060000000000002274
        },
        {
          "name": "G4",
          "midi": 67,
          "time": 40.32000000000002,
          "velocity": 0.7874015748031497,
          "duration": 0.060000000000002274
        },
        {
          "name": "D5",
          "midi": 74,
          "time": 40.380000000000024,
          "velocity": 0.7874015748031497,
          "duration": 0.060000000000002274
        },
        {
          "name": "B5",
          "midi": 83,
          "time": 40.440000000000026,
          "velocity": 0.7874015748031497,
          "duration": 0.060000000000002274
        },
        {
          "name": "G5",
          "midi": 79,
          "time": 40.50000000000003,
          "velocity": 0.7874015748031497,
          "duration": 0.060000000000002274
        },
        {
          "name": "F5",
          "midi": 77,
          "time": 40.56000000000003,
          "velocity": 0.7874015748031497,
          "duration": 0.060000000000002274
        },
        {
          "name": "E5",
          "midi": 76,
          "time": 40.62000000000003,
          "velocity": 0.7874015748031497,
          "duration": 0.060000000000002274
        },
        {
          "name": "D5",
          "midi": 74,
          "time": 40.680000000000035,
          "velocity": 0.7874015748031497,
          "duration": 0.060000000000002274
        },
        {
          "name": "C5",
          "midi": 72,
          "time": 40.74000000000004,
          "velocity": 0.7874015748031497,
          "duration": 0.060000000000002274
        },
        {
          "name": "B4",
          "midi": 71,
          "time": 40.80000000000004,
          "velocity": 0.7874015748031497,
          "duration": 0.060000000000002274
        },
        {
          "name": "A4",
          "midi": 69,
          "time": 40.86000000000004,
          "velocity": 0.7874015748031497,
          "duration": 0.060000000000002274
        },
        {
          "name": "G4",
          "midi": 67,
          "time": 40.920000000000044,
          "velocity": 0.7874015748031497,
          "duration": 0.060000000000002274
        },
        {
          "name": "F4",
          "midi": 65,
          "time": 40.98000000000005,
          "velocity": 0.7874015748031497,
          "duration": 0.060000000000002274
        },
        {
          "name": "E4",
          "midi": 64,
          "time": 41.04000000000005,
          "velocity": 0.7874015748031497,
          "duration": 0.060000000000002274
        },
        {
          "name": "F4",
          "midi": 65,
          "time": 41.10000000000005,
          "velocity": 0.7874015748031497,
          "duration": 0.060000000000002274
        },
        {
          "name": "G4",
          "midi": 67,
          "time": 41.16000000000005,
          "velocity": 0.7874015748031497,
          "duration": 0.060000000000002274
        },
        {
          "name": "C5",
          "midi": 72,
          "time": 41.220000000000056,
          "velocity": 0.7874015748031497,
          "duration": 0.060000000000002274
        },
        {
          "name": "E5",
          "midi": 76,
          "time": 41.28000000000006,
          "velocity": 0.7874015748031497,
          "duration": 0.060000000000002274
        },
        {
          "name": "C5",
          "midi": 72,
          "time": 41.34000000000006,
          "velocity": 0.7874015748031497,
          "duration": 0.060000000000002274
        },
        {
          "name": "B4",
          "midi": 71,
          "time": 41.40000000000006,
          "velocity": 0.7874015748031497,
          "duration": 0.060000000000002274
        },
        {
          "name": "C5",
          "midi": 72,
          "time": 41.460000000000065,
          "velocity": 0.7874015748031497,
          "duration": 0.060000000000002274
        },
        {
          "name": "G4",
          "midi": 67,
          "time": 41.52000000000007,
          "velocity": 0.7874015748031497,
          "duration": 0.060000000000002274
        },
        {
          "name": "B4",
          "midi": 71,
          "time": 41.58000000000007,
          "velocity": 0.7874015748031497,
          "duration": 0.060000000000002274
        },
        {
          "name": "C5",
          "midi": 72,
          "time": 41.64000000000007,
          "velocity": 0.7874015748031497,
          "duration": 0.060000000000002274
        },
        {
          "name": "E5",
          "midi": 76,
          "time": 41.700000000000074,
          "velocity": 0.7874015748031497,
          "duration": 0.060000000000002274
        },
        {
          "name": "F4",
          "midi": 65,
          "time": 41.760000000000076,
          "velocity": 0.7874015748031497,
          "duration": 0.060000000000002274
        },
        {
          "name": "G4",
          "midi": 67,
          "time": 41.82000000000008,
          "velocity": 0.7874015748031497,
          "duration": 0.060000000000002274
        },
        {
          "name": "A4",
          "midi": 69,
          "time": 41.88000000000008,
          "velocity": 0.7874015748031497,
          "duration": 0.060000000000002274
        },
        {
          "name": "C5",
          "midi": 72,
          "time": 41.94000000000008,
          "velocity": 0.7874015748031497,
          "duration": 0.060000000000002274
        },
        {
          "name": "E5",
          "midi": 76,
          "time": 42.000000000000085,
          "velocity": 0.7874015748031497,
          "duration": 0.060000000000002274
        },
        {
          "name": "C5",
          "midi": 72,
          "time": 42.06000000000009,
          "velocity": 0.7874015748031497,
          "duration": 0.060000000000002274
        },
        {
          "name": "B4",
          "midi": 71,
          "time": 42.12000000000009,
          "velocity": 0.7874015748031497,
          "duration": 0.060000000000002274
        },
        {
          "name": "C5",
          "midi": 72,
          "time": 42.18000000000009,
          "velocity": 0.7874015748031497,
          "duration": 0.060000000000002274
        },
        {
          "name": "A4",
          "midi": 69,
          "time": 42.240000000000094,
          "velocity": 0.7874015748031497,
          "duration": 0.060000000000002274
        },
        {
          "name": "B4",
          "midi": 71,
          "time": 42.3000000000001,
          "velocity": 0.7874015748031497,
          "duration": 0.060000000000002274
        },
        {
          "name": "C5",
          "midi": 72,
          "time": 42.3600000000001,
          "velocity": 0.7874015748031497,
          "duration": 0.060000000000002274
        },
        {
          "name": "E5",
          "midi": 76,
          "time": 42.4200000000001,
          "velocity": 0.7874015748031497,
          "duration": 0.060000000000002274
        },
        {
          "name": "G4",
          "midi": 67,
          "time": 42.4800000000001,
          "velocity": 0.7874015748031497,
          "duration": 0.060000000000002274
        },
        {
          "name": "A4",
          "midi": 69,
          "time": 42.540000000000106,
          "velocity": 0.7874015748031497,
          "duration": 0.060000000000002274
        },
        {
          "name": "B4",
          "midi": 71,
          "time": 42.60000000000011,
          "velocity": 0.7874015748031497,
          "duration": 0.060000000000002274
        },
        {
          "name": "C5",
          "midi": 72,
          "time": 42.66000000000011,
          "velocity": 0.7874015748031497,
          "duration": 0.060000000000002274
        },
        {
          "name": "E5",
          "midi": 76,
          "time": 42.72000000000011,
          "velocity": 0.7874015748031497,
          "duration": 0.060000000000002274
        },
        {
          "name": "C5",
          "midi": 72,
          "time": 42.780000000000115,
          "velocity": 0.7874015748031497,
          "duration": 0.060000000000002274
        },
        {
          "name": "B4",
          "midi": 71,
          "time": 42.84000000000012,
          "velocity": 0.7874015748031497,
          "duration": 0.060000000000002274
        },
        {
          "name": "C5",
          "midi": 72,
          "time": 42.90000000000012,
          "velocity": 0.7874015748031497,
          "duration": 0.060000000000002274
        },
        {
          "name": "B4",
          "midi": 71,
          "time": 42.96000000000012,
          "velocity": 0.7874015748031497,
          "duration": 0.060000000000002274
        },
        {
          "name": "C5",
          "midi": 72,
          "time": 43.020000000000124,
          "velocity": 0.7874015748031497,
          "duration": 0.060000000000002274
        },
        {
          "name": "D5",
          "midi": 74,
          "time": 43.080000000000126,
          "velocity": 0.7874015748031497,
          "duration": 0.060000000000002274
        },
        {
          "name": "E5",
          "midi": 76,
          "time": 43.14000000000013,
          "velocity": 0.7874015748031497,
          "duration": 0.060000000000002274
        },
        {
          "name": "A4",
          "midi": 69,
          "time": 43.20000000000013,
          "velocity": 0.7874015748031497,
          "duration": 0.060000000000002274
        },
        {
          "name": "B4",
          "midi": 71,
          "time": 43.26000000000013,
          "velocity": 0.7874015748031497,
          "duration": 0.060000000000002274
        },
        {
          "name": "C5",
          "midi": 72,
          "time": 43.320000000000135,
          "velocity": 0.7874015748031497,
          "duration": 0.060000000000002274
        },
        {
          "name": "E5",
          "midi": 76,
          "time": 43.38000000000014,
          "velocity": 0.7874015748031497,
          "duration": 0.060000000000002274
        },
        {
          "name": "F5",
          "midi": 77,
          "time": 43.44000000000014,
          "velocity": 0.7874015748031497,
          "duration": 0.060000000000002274
        },
        {
          "name": "A5",
          "midi": 81,
          "time": 43.50000000000014,
          "velocity": 0.7874015748031497,
          "duration": 0.060000000000002274
        },
        {
          "name": "F5",
          "midi": 77,
          "time": 43.560000000000144,
          "velocity": 0.7874015748031497,
          "duration": 0.060000000000002274
        },
        {
          "name": "E5",
          "midi": 76,
          "time": 43.62000000000015,
          "velocity": 0.7874015748031497,
          "duration": 0.060000000000002274
        },
        {
          "name": "D5",
          "midi": 74,
          "time": 43.68000000000015,
          "velocity": 0.7874015748031497,
          "duration": 0.060000000000002274
        },
        {
          "name": "F5",
          "midi": 77,
          "time": 43.74000000000015,
          "velocity": 0.7874015748031497,
          "duration": 0.060000000000002274
        },
        {
          "name": "D5",
          "midi": 74,
          "time": 43.80000000000015,
          "velocity": 0.7874015748031497,
          "duration": 0.060000000000002274
        },
        {
          "name": "C5",
          "midi": 72,
          "time": 43.860000000000156,
          "velocity": 0.7874015748031497,
          "duration": 0.060000000000002274
        },
        {
          "name": "B4",
          "midi": 71,
          "time": 43.92000000000016,
          "velocity": 0.7874015748031497,
          "duration": 0.060000000000002274
        },
        {
          "name": "C5",
          "midi": 72,
          "time": 43.98000000000016,
          "velocity": 0.7874015748031497,
          "duration": 0.060000000000002274
        },
        {
          "name": "D5",
          "midi": 74,
          "time": 44.04000000000016,
          "velocity": 0.7874015748031497,
          "duration": 0.060000000000002274
        },
        {
          "name": "F5",
          "midi": 77,
          "time": 44.100000000000165,
          "velocity": 0.7874015748031497,
          "duration": 0.060000000000002274
        },
        {
          "name": "G5",
          "midi": 79,
          "time": 44.16000000000017,
          "velocity": 0.7874015748031497,
          "duration": 0.060000000000002274
        },
        {
          "name": "D6",
          "midi": 86,
          "time": 44.22000000000017,
          "velocity": 0.7874015748031497,
          "duration": 0.060000000000002274
        },
        {
          "name": "B5",
          "midi": 83,
          "time": 44.28000000000017,
          "velocity": 0.7874015748031497,
          "duration": 0.060000000000002274
        },
        {
          "name": "A5",
          "midi": 81,
          "time": 44.340000000000174,
          "velocity": 0.7874015748031497,
          "duration": 0.060000000000002274
        },
        {
          "name": "G5",
          "midi": 79,
          "time": 44.400000000000176,
          "velocity": 0.7874015748031497,
          "duration": 0.060000000000002274
        },
        {
          "name": "B5",
          "midi": 83,
          "time": 44.46000000000018,
          "velocity": 0.7874015748031497,
          "duration": 0.060000000000002274
        },
        {
          "name": "G5",
          "midi": 79,
          "time": 44.52000000000018,
          "velocity": 0.7874015748031497,
          "duration": 0.060000000000002274
        },
        {
          "name": "F5",
          "midi": 77,
          "time": 44.58000000000018,
          "velocity": 0.7874015748031497,
          "duration": 0.060000000000002274
        },
        {
          "name": "E6",
          "midi": 88,
          "time": 44.640000000000185,
          "velocity": 0.7874015748031497,
          "duration": 0.060000000000002274
        },
        {
          "name": "G6",
          "midi": 91,
          "time": 44.70000000000019,
          "velocity": 0.7874015748031497,
          "duration": 0.060000000000002274
        },
        {
          "name": "E6",
          "midi": 88,
          "time": 44.76000000000019,
          "velocity": 0.7874015748031497,
          "duration": 0.060000000000002274
        },
        {
          "name": "D6",
          "midi": 86,
          "time": 44.82000000000019,
          "velocity": 0.7874015748031497,
          "duration": 0.060000000000002274
        },
        {
          "name": "C6",
          "midi": 84,
          "time": 44.880000000000194,
          "velocity": 0.7874015748031497,
          "duration": 0.060000000000002274
        },
        {
          "name": "E6",
          "midi": 88,
          "time": 44.9400000000002,
          "velocity": 0.7874015748031497,
          "duration": 0.060000000000002274
        },
        {
          "name": "C6",
          "midi": 84,
          "time": 45.0000000000002,
          "velocity": 0.7874015748031497,
          "duration": 0.060000000000002274
        },
        {
          "name": "B5",
          "midi": 83,
          "time": 45.0600000000002,
          "velocity": 0.7874015748031497,
          "duration": 0.060000000000002274
        },
        {
          "name": "A5",
          "midi": 81,
          "time": 45.1200000000002,
          "velocity": 0.7874015748031497,
          "duration": 0.060000000000002274
        },
        {
          "name": "C6",
          "midi": 84,
          "time": 45.180000000000206,
          "velocity": 0.7874015748031497,
          "duration": 0.060000000000002274
        },
        {
          "name": "A5",
          "midi": 81,
          "time": 45.24000000000021,
          "velocity": 0.7874015748031497,
          "duration": 0.060000000000002274
        },
        {
          "name": "G5",
          "midi": 79,
          "time": 45.30000000000021,
          "velocity": 0.7874015748031497,
          "duration": 0.060000000000002274
        },
        {
          "name": "F5",
          "midi": 77,
          "time": 45.36000000000021,
          "velocity": 0.7874015748031497,
          "duration": 0.060000000000002274
        },
        {
          "name": "E5",
          "midi": 76,
          "time": 45.420000000000215,
          "velocity": 0.7874015748031497,
          "duration": 0.060000000000002274
        },
        {
          "name": "A5",
          "midi": 81,
          "time": 45.48000000000022,
          "velocity": 0.7874015748031497,
          "duration": 0.060000000000002274
        },
        {
          "name": "D5",
          "midi": 74,
          "time": 45.54000000000022,
          "velocity": 0.7874015748031497,
          "duration": 0.060000000000002274
        },
        {
          "name": "E5",
          "midi": 76,
          "time": 45.60000000000022,
          "velocity": 0.7874015748031497,
          "duration": 0.060000000000002274
        },
        {
          "name": "B4",
          "midi": 71,
          "time": 45.660000000000224,
          "velocity": 0.7874015748031497,
          "duration": 0.060000000000002274
        },
        {
          "name": "C5",
          "midi": 72,
          "time": 45.720000000000226,
          "velocity": 0.7874015748031497,
          "duration": 0.060000000000002274
        },
        {
          "name": "F#4",
          "midi": 66,
          "time": 45.78000000000023,
          "velocity": 0.7874015748031497,
          "duration": 0.060000000000002274
        },
        {
          "name": "G4",
          "midi": 67,
          "time": 45.84000000000023,
          "velocity": 0.7874015748031497,
          "duration": 0.060000000000002274
        },
        {
          "name": "C5",
          "midi": 72,
          "time": 45.90000000000023,
          "velocity": 0.7874015748031497,
          "duration": 0.060000000000002274
        },
        {
          "name": "G4",
          "midi": 67,
          "time": 45.960000000000235,
          "velocity": 0.7874015748031497,
          "duration": 0.060000000000002274
        },
        {
          "name": "B4",
          "midi": 71,
          "time": 46.02000000000024,
          "velocity": 0.7874015748031497,
          "duration": 0.060000000000002274
        },
        {
          "name": "D#4",
          "midi": 63,
          "time": 46.08000000000024,
          "velocity": 0.7874015748031497,
          "duration": 0.060000000000002274
        },
        {
          "name": "C5",
          "midi": 72,
          "time": 46.14000000000024,
          "velocity": 0.7874015748031497,
          "duration": 0.060000000000002274
        },
        {
          "name": "A5",
          "midi": 81,
          "time": 46.200000000000244,
          "velocity": 0.7874015748031497,
          "duration": 0.17999999999999972
        },
        {
          "name": "C6",
          "midi": 84,
          "time": 46.380000000000244,
          "velocity": 0.7874015748031497,
          "duration": 0.060000000000002274
        },
        {
          "name": "B5",
          "midi": 83,
          "time": 46.440000000000246,
          "velocity": 0.7874015748031497,
          "duration": 0.060000000000002274
        },
        {
          "name": "A5",
          "midi": 81,
          "time": 46.50000000000025,
          "velocity": 0.7874015748031497,
          "duration": 0.060000000000002274
        },
        {
          "name": "G5",
          "midi": 79,
          "time": 46.56000000000025,
          "velocity": 0.7874015748031497,
          "duration": 0.060000000000002274
        },
        {
          "name": "F#5",
          "midi": 78,
          "time": 46.62000000000025,
          "velocity": 0.7874015748031497,
          "duration": 0.060000000000002274
        },
        {
          "name": "E5",
          "midi": 76,
          "time": 46.680000000000256,
          "velocity": 0.7874015748031497,
          "duration": 0.060000000000002274
        },
        {
          "name": "D#5",
          "midi": 75,
          "time": 46.74000000000026,
          "velocity": 0.7874015748031497,
          "duration": 0.060000000000002274
        },
        {
          "name": "B5",
          "midi": 83,
          "time": 46.80000000000026,
          "velocity": 0.7874015748031497,
          "duration": 0.060000000000002274
        },
        {
          "name": "A5",
          "midi": 81,
          "time": 46.86000000000026,
          "velocity": 0.7874015748031497,
          "duration": 0.060000000000002274
        },
        {
          "name": "C6",
          "midi": 84,
          "time": 46.920000000000265,
          "velocity": 0.7874015748031497,
          "duration": 0.060000000000002274
        },
        {
          "name": "B5",
          "midi": 83,
          "time": 46.98000000000027,
          "velocity": 0.7874015748031497,
          "duration": 0.060000000000002274
        },
        {
          "name": "A5",
          "midi": 81,
          "time": 47.04000000000027,
          "velocity": 0.7874015748031497,
          "duration": 0.060000000000002274
        },
        {
          "name": "G5",
          "midi": 79,
          "time": 47.10000000000027,
          "velocity": 0.7874015748031497,
          "duration": 0.060000000000002274
        },
        {
          "name": "F#5",
          "midi": 78,
          "time": 47.160000000000274,
          "velocity": 0.7874015748031497,
          "duration": 0.060000000000002274
        },
        {
          "name": "E5",
          "midi": 76,
          "time": 47.220000000000276,
          "velocity": 0.7874015748031497,
          "duration": 0.060000000000002274
        },
        {
          "name": "B4",
          "midi": 71,
          "time": 47.28000000000028,
          "velocity": 0.7874015748031497,
          "duration": 0.11999999999999744
        },
        {
          "name": "D#5",
          "midi": 75,
          "time": 47.400000000000276,
          "velocity": 0.7874015748031497,
          "duration": 0.11999999999999744
        },
        {
          "name": "E5",
          "midi": 76,
          "time": 47.52000000000027,
          "velocity": 0.7874015748031497,
          "duration": 0.29999999999999716
        },
        {
          "name": "F#5",
          "midi": 78,
          "time": 47.82000000000027,
          "velocity": 0.7874015748031497,
          "duration": 0.060000000000002274
        },
        {
          "name": "G5",
          "midi": 79,
          "time": 47.88000000000027,
          "velocity": 0.7874015748031497,
          "duration": 0.060000000000002274
        },
        {
          "name": "A5",
          "midi": 81,
          "time": 47.940000000000275,
          "velocity": 0.7874015748031497,
          "duration": 0.060000000000002274
        },
        {
          "name": "A#5",
          "midi": 82,
          "time": 48.00000000000028,
          "velocity": 0.7874015748031497,
          "duration": 0.060000000000002274
        },
        {
          "name": "A5",
          "midi": 81,
          "time": 48.06000000000028,
          "velocity": 0.7874015748031497,
          "duration": 0.060000000000002274
        },
        {
          "name": "A#5",
          "midi": 82,
          "time": 48.12000000000028,
          "velocity": 0.7874015748031497,
          "duration": 0.060000000000002274
        },
        {
          "name": "G5",
          "midi": 79,
          "time": 48.180000000000284,
          "velocity": 0.7874015748031497,
          "duration": 0.060000000000002274
        },
        {
          "name": "C#5",
          "midi": 73,
          "time": 48.240000000000286,
          "velocity": 0.7874015748031497,
          "duration": 0.060000000000002274
        },
        {
          "name": "D5",
          "midi": 74,
          "time": 48.30000000000029,
          "velocity": 0.7874015748031497,
          "duration": 0.060000000000002274
        },
        {
          "name": "E5",
          "midi": 76,
          "time": 48.36000000000029,
          "velocity": 0.7874015748031497,
          "duration": 0.060000000000002274
        },
        {
          "name": "F5",
          "midi": 77,
          "time": 48.42000000000029,
          "velocity": 0.7874015748031497,
          "duration": 0.060000000000002274
        },
        {
          "name": "G5",
          "midi": 79,
          "time": 48.480000000000295,
          "velocity": 0.7874015748031497,
          "duration": 0.060000000000002274
        },
        {
          "name": "F5",
          "midi": 77,
          "time": 48.5400000000003,
          "velocity": 0.7874015748031497,
          "duration": 0.060000000000002274
        },
        {
          "name": "G5",
          "midi": 79,
          "time": 48.6000000000003,
          "velocity": 0.7874015748031497,
          "duration": 0.060000000000002274
        },
        {
          "name": "E5",
          "midi": 76,
          "time": 48.6600000000003,
          "velocity": 0.7874015748031497,
          "duration": 0.060000000000002274
        },
        {
          "name": "A4",
          "midi": 69,
          "time": 48.720000000000304,
          "velocity": 0.7874015748031497,
          "duration": 0.060000000000002274
        },
        {
          "name": "C#5",
          "midi": 73,
          "time": 48.78000000000031,
          "velocity": 0.7874015748031497,
          "duration": 0.060000000000002274
        },
        {
          "name": "E5",
          "midi": 76,
          "time": 48.84000000000031,
          "velocity": 0.7874015748031497,
          "duration": 0.060000000000002274
        },
        {
          "name": "G5",
          "midi": 79,
          "time": 48.90000000000031,
          "velocity": 0.7874015748031497,
          "duration": 0.060000000000002274
        },
        {
          "name": "F5",
          "midi": 77,
          "time": 48.96000000000031,
          "velocity": 0.7874015748031497,
          "duration": 0.11999999999999744
        },
        {
          "name": "D4",
          "midi": 62,
          "time": 49.08000000000031,
          "velocity": 0.7874015748031497,
          "duration": 0.060000000000002274
        },
        {
          "name": "E4",
          "midi": 64,
          "time": 49.14000000000031,
          "velocity": 0.7874015748031497,
          "duration": 0.060000000000002274
        },
        {
          "name": "F4",
          "midi": 65,
          "time": 49.200000000000315,
          "velocity": 0.7874015748031497,
          "duration": 0.060000000000002274
        },
        {
          "name": "A4",
          "midi": 69,
          "time": 49.26000000000032,
          "velocity": 0.7874015748031497,
          "duration": 0.060000000000002274
        },
        {
          "name": "D5",
          "midi": 74,
          "time": 49.32000000000032,
          "velocity": 0.7874015748031497,
          "duration": 0.060000000000002274
        },
        {
          "name": "E5",
          "midi": 76,
          "time": 49.38000000000032,
          "velocity": 0.7874015748031497,
          "duration": 0.060000000000002274
        },
        {
          "name": "F5",
          "midi": 77,
          "time": 49.440000000000325,
          "velocity": 0.7874015748031497,
          "duration": 0.060000000000002274
        },
        {
          "name": "E5",
          "midi": 76,
          "time": 49.50000000000033,
          "velocity": 0.7874015748031497,
          "duration": 0.060000000000002274
        },
        {
          "name": "F5",
          "midi": 77,
          "time": 49.56000000000033,
          "velocity": 0.7874015748031497,
          "duration": 0.060000000000002274
        },
        {
          "name": "D5",
          "midi": 74,
          "time": 49.62000000000033,
          "velocity": 0.7874015748031497,
          "duration": 0.060000000000002274
        },
        {
          "name": "G#4",
          "midi": 68,
          "time": 49.680000000000334,
          "velocity": 0.7874015748031497,
          "duration": 0.060000000000002274
        },
        {
          "name": "A4",
          "midi": 69,
          "time": 49.740000000000336,
          "velocity": 0.7874015748031497,
          "duration": 0.060000000000002274
        },
        {
          "name": "B4",
          "midi": 71,
          "time": 49.80000000000034,
          "velocity": 0.7874015748031497,
          "duration": 0.060000000000002274
        },
        {
          "name": "C5",
          "midi": 72,
          "time": 49.86000000000034,
          "velocity": 0.7874015748031497,
          "duration": 0.060000000000002274
        },
        {
          "name": "D5",
          "midi": 74,
          "time": 49.92000000000034,
          "velocity": 0.7874015748031497,
          "duration": 0.060000000000002274
        },
        {
          "name": "C5",
          "midi": 72,
          "time": 49.980000000000345,
          "velocity": 0.7874015748031497,
          "duration": 0.060000000000002274
        },
        {
          "name": "D5",
          "midi": 74,
          "time": 50.04000000000035,
          "velocity": 0.7874015748031497,
          "duration": 0.060000000000002274
        },
        {
          "name": "B4",
          "midi": 71,
          "time": 50.10000000000035,
          "velocity": 0.7874015748031497,
          "duration": 0.060000000000002274
        },
        {
          "name": "E4",
          "midi": 64,
          "time": 50.16000000000035,
          "velocity": 0.7874015748031497,
          "duration": 0.060000000000002274
        },
        {
          "name": "G#4",
          "midi": 68,
          "time": 50.220000000000354,
          "velocity": 0.7874015748031497,
          "duration": 0.060000000000002274
        },
        {
          "name": "B4",
          "midi": 71,
          "time": 50.280000000000356,
          "velocity": 0.7874015748031497,
          "duration": 0.060000000000002274
        },
        {
          "name": "D5",
          "midi": 74,
          "time": 50.34000000000036,
          "velocity": 0.7874015748031497,
          "duration": 0.060000000000002274
        },
        {
          "name": "C5",
          "midi": 72,
          "time": 50.40000000000036,
          "velocity": 0.7874015748031497,
          "duration": 0.060000000000002274
        },
        {
          "name": "B4",
          "midi": 71,
          "time": 50.46000000000036,
          "velocity": 0.7874015748031497,
          "duration": 0.060000000000002274
        },
        {
          "name": "A4",
          "midi": 69,
          "time": 50.520000000000366,
          "velocity": 0.7874015748031497,
          "duration": 0.060000000000002274
        },
        {
          "name": "B4",
          "midi": 71,
          "time": 50.58000000000037,
          "velocity": 0.7874015748031497,
          "duration": 0.060000000000002274
        },
        {
          "name": "C5",
          "midi": 72,
          "time": 50.64000000000037,
          "velocity": 0.7874015748031497,
          "duration": 0.060000000000002274
        },
        {
          "name": "E5",
          "midi": 76,
          "time": 50.70000000000037,
          "velocity": 0.7874015748031497,
          "duration": 0.060000000000002274
        },
        {
          "name": "A5",
          "midi": 81,
          "time": 50.760000000000375,
          "velocity": 0.7874015748031497,
          "duration": 0.060000000000002274
        },
        {
          "name": "B5",
          "midi": 83,
          "time": 50.82000000000038,
          "velocity": 0.7874015748031497,
          "duration": 0.060000000000002274
        },
        {
          "name": "C6",
          "midi": 84,
          "time": 50.88000000000038,
          "velocity": 0.7874015748031497,
          "duration": 0.060000000000002274
        },
        {
          "name": "B5",
          "midi": 83,
          "time": 50.94000000000038,
          "velocity": 0.7874015748031497,
          "duration": 0.060000000000002274
        },
        {
          "name": "C6",
          "midi": 84,
          "time": 51.000000000000384,
          "velocity": 0.7874015748031497,
          "duration": 0.060000000000002274
        },
        {
          "name": "A5",
          "midi": 81,
          "time": 51.060000000000386,
          "velocity": 0.7874015748031497,
          "duration": 0.060000000000002274
        },
        {
          "name": "D#5",
          "midi": 75,
          "time": 51.12000000000039,
          "velocity": 0.7874015748031497,
          "duration": 0.060000000000002274
        },
        {
          "name": "E5",
          "midi": 76,
          "time": 51.18000000000039,
          "velocity": 0.7874015748031497,
          "duration": 0.060000000000002274
        },
        {
          "name": "F#5",
          "midi": 78,
          "time": 51.24000000000039,
          "velocity": 0.7874015748031497,
          "duration": 0.060000000000002274
        },
        {
          "name": "G5",
          "midi": 79,
          "time": 51.300000000000395,
          "velocity": 0.7874015748031497,
          "duration": 0.060000000000002274
        },
        {
          "name": "A5",
          "midi": 81,
          "time": 51.3600000000004,
          "velocity": 0.7874015748031497,
          "duration": 0.060000000000002274
        },
        {
          "name": "G5",
          "midi": 79,
          "time": 51.4200000000004,
          "velocity": 0.7874015748031497,
          "duration": 0.060000000000002274
        },
        {
          "name": "A5",
          "midi": 81,
          "time": 51.4800000000004,
          "velocity": 0.7874015748031497,
          "duration": 0.060000000000002274
        },
        {
          "name": "F#5",
          "midi": 78,
          "time": 51.540000000000404,
          "velocity": 0.7874015748031497,
          "duration": 0.060000000000002274
        },
        {
          "name": "B4",
          "midi": 71,
          "time": 51.600000000000406,
          "velocity": 0.7874015748031497,
          "duration": 0.060000000000002274
        },
        {
          "name": "D#5",
          "midi": 75,
          "time": 51.66000000000041,
          "velocity": 0.7874015748031497,
          "duration": 0.060000000000002274
        },
        {
          "name": "F#5",
          "midi": 78,
          "time": 51.72000000000041,
          "velocity": 0.7874015748031497,
          "duration": 0.060000000000002274
        },
        {
          "name": "A5",
          "midi": 81,
          "time": 51.78000000000041,
          "velocity": 0.7874015748031497,
          "duration": 0.060000000000002274
        },
        {
          "name": "G#5",
          "midi": 80,
          "time": 51.840000000000416,
          "velocity": 0.7874015748031497,
          "duration": 0.060000000000002274
        },
        {
          "name": "A5",
          "midi": 81,
          "time": 51.90000000000042,
          "velocity": 0.7874015748031497,
          "duration": 0.060000000000002274
        },
        {
          "name": "B5",
          "midi": 83,
          "time": 51.96000000000042,
          "velocity": 0.7874015748031497,
          "duration": 0.060000000000002274
        },
        {
          "name": "G#5",
          "midi": 80,
          "time": 52.02000000000042,
          "velocity": 0.7874015748031497,
          "duration": 0.060000000000002274
        },
        {
          "name": "E5",
          "midi": 76,
          "time": 52.080000000000425,
          "velocity": 0.7874015748031497,
          "duration": 0.060000000000002274
        },
        {
          "name": "G#5",
          "midi": 80,
          "time": 52.14000000000043,
          "velocity": 0.7874015748031497,
          "duration": 0.060000000000002274
        },
        {
          "name": "D5",
          "midi": 74,
          "time": 52.20000000000043,
          "velocity": 0.7874015748031497,
          "duration": 0.060000000000002274
        },
        {
          "name": "G#5",
          "midi": 80,
          "time": 52.26000000000043,
          "velocity": 0.7874015748031497,
          "duration": 0.060000000000002274
        },
        {
          "name": "C5",
          "midi": 72,
          "time": 52.320000000000434,
          "velocity": 0.7874015748031497,
          "duration": 0.060000000000002274
        },
        {
          "name": "G#5",
          "midi": 80,
          "time": 52.380000000000436,
          "velocity": 0.7874015748031497,
          "duration": 0.060000000000002274
        },
        {
          "name": "B4",
          "midi": 71,
          "time": 52.44000000000044,
          "velocity": 0.7874015748031497,
          "duration": 0.060000000000002274
        },
        {
          "name": "G#5",
          "midi": 80,
          "time": 52.50000000000044,
          "velocity": 0.7874015748031497,
          "duration": 0.060000000000002274
        },
        {
          "name": "C5",
          "midi": 72,
          "time": 52.56000000000044,
          "velocity": 0.7874015748031497,
          "duration": 0.060000000000002274
        },
        {
          "name": "E5",
          "midi": 76,
          "time": 52.620000000000445,
          "velocity": 0.7874015748031497,
          "duration": 0.060000000000002274
        },
        {
          "name": "A5",
          "midi": 81,
          "time": 52.68000000000045,
          "velocity": 0.7874015748031497,
          "duration": 0.060000000000002274
        },
        {
          "name": "E5",
          "midi": 76,
          "time": 52.74000000000045,
          "velocity": 0.7874015748031497,
          "duration": 0.060000000000002274
        },
        {
          "name": "C5",
          "midi": 72,
          "time": 52.80000000000045,
          "velocity": 0.7874015748031497,
          "duration": 0.060000000000002274
        },
        {
          "name": "E5",
          "midi": 76,
          "time": 52.860000000000454,
          "velocity": 0.7874015748031497,
          "duration": 0.060000000000002274
        },
        {
          "name": "B4",
          "midi": 71,
          "time": 52.92000000000046,
          "velocity": 0.7874015748031497,
          "duration": 0.060000000000002274
        },
        {
          "name": "E5",
          "midi": 76,
          "time": 52.98000000000046,
          "velocity": 0.7874015748031497,
          "duration": 0.060000000000002274
        },
        {
          "name": "C5",
          "midi": 72,
          "time": 53.04000000000046,
          "velocity": 0.7874015748031497,
          "duration": 0.060000000000002274
        },
        {
          "name": "E5",
          "midi": 76,
          "time": 53.10000000000046,
          "velocity": 0.7874015748031497,
          "duration": 0.060000000000002274
        },
        {
          "name": "A4",
          "midi": 69,
          "time": 53.160000000000466,
          "velocity": 0.7874015748031497,
          "duration": 0.060000000000002274
        },
        {
          "name": "E5",
          "midi": 76,
          "time": 53.22000000000047,
          "velocity": 0.7874015748031497,
          "duration": 0.060000000000002274
        },
        {
          "name": "G#4",
          "midi": 68,
          "time": 53.28000000000047,
          "velocity": 0.7874015748031497,
          "duration": 0.060000000000002274
        },
        {
          "name": "E5",
          "midi": 76,
          "time": 53.34000000000047,
          "velocity": 0.7874015748031497,
          "duration": 0.060000000000002274
        },
        {
          "name": "B5",
          "midi": 83,
          "time": 53.400000000000475,
          "velocity": 0.7874015748031497,
          "duration": 0.060000000000002274
        },
        {
          "name": "E5",
          "midi": 76,
          "time": 53.46000000000048,
          "velocity": 0.7874015748031497,
          "duration": 0.060000000000002274
        },
        {
          "name": "G#4",
          "midi": 68,
          "time": 53.52000000000048,
          "velocity": 0.7874015748031497,
          "duration": 0.060000000000002274
        },
        {
          "name": "E5",
          "midi": 76,
          "time": 53.58000000000048,
          "velocity": 0.7874015748031497,
          "duration": 0.060000000000002274
        },
        {
          "name": "F#4",
          "midi": 66,
          "time": 53.640000000000484,
          "velocity": 0.7874015748031497,
          "duration": 0.060000000000002274
        },
        {
          "name": "E5",
          "midi": 76,
          "time": 53.700000000000486,
          "velocity": 0.7874015748031497,
          "duration": 0.060000000000002274
        },
        {
          "name": "G#4",
          "midi": 68,
          "time": 53.76000000000049,
          "velocity": 0.7874015748031497,
          "duration": 0.060000000000002274
        },
        {
          "name": "E5",
          "midi": 76,
          "time": 53.82000000000049,
          "velocity": 0.7874015748031497,
          "duration": 0.060000000000002274
        },
        {
          "name": "E4",
          "midi": 64,
          "time": 53.88000000000049,
          "velocity": 0.7874015748031497,
          "duration": 0.060000000000002274
        },
        {
          "name": "E5",
          "midi": 76,
          "time": 53.940000000000495,
          "velocity": 0.7874015748031497,
          "duration": 0.060000000000002274
        },
        {
          "name": "A4",
          "midi": 69,
          "time": 54.0000000000005,
          "velocity": 0.7874015748031497,
          "duration": 0.060000000000002274
        },
        {
          "name": "E5",
          "midi": 76,
          "time": 54.0600000000005,
          "velocity": 0.7874015748031497,
          "duration": 0.060000000000002274
        },
        {
          "name": "C6",
          "midi": 84,
          "time": 54.1200000000005,
          "velocity": 0.7874015748031497,
          "duration": 0.060000000000002274
        },
        {
          "name": "E5",
          "midi": 76,
          "time": 54.180000000000504,
          "velocity": 0.7874015748031497,
          "duration": 0.060000000000002274
        },
        {
          "name": "F5",
          "midi": 77,
          "time": 54.24000000000051,
          "velocity": 0.7874015748031497,
          "duration": 0.060000000000002274
        },
        {
          "name": "D5",
          "midi": 74,
          "time": 54.30000000000051,
          "velocity": 0.7874015748031497,
          "duration": 0.060000000000002274
        },
        {
          "name": "A5",
          "midi": 81,
          "time": 54.36000000000051,
          "velocity": 0.7874015748031497,
          "duration": 0.060000000000002274
        },
        {
          "name": "D5",
          "midi": 74,
          "time": 54.42000000000051,
          "velocity": 0.7874015748031497,
          "duration": 0.060000000000002274
        },
        {
          "name": "C6",
          "midi": 84,
          "time": 54.480000000000516,
          "velocity": 0.7874015748031497,
          "duration": 0.060000000000002274
        },
        {
          "name": "D5",
          "midi": 74,
          "time": 54.54000000000052,
          "velocity": 0.7874015748031497,
          "duration": 0.060000000000002274
        },
        {
          "name": "A5",
          "midi": 81,
          "time": 54.60000000000052,
          "velocity": 0.7874015748031497,
          "duration": 0.060000000000002274
        },
        {
          "name": "D5",
          "midi": 74,
          "time": 54.66000000000052,
          "velocity": 0.7874015748031497,
          "duration": 0.060000000000002274
        },
        {
          "name": "B5",
          "midi": 83,
          "time": 54.720000000000525,
          "velocity": 0.7874015748031497,
          "duration": 0.060000000000002274
        },
        {
          "name": "D5",
          "midi": 74,
          "time": 54.78000000000053,
          "velocity": 0.7874015748031497,
          "duration": 0.060000000000002274
        },
        {
          "name": "G4",
          "midi": 67,
          "time": 54.84000000000053,
          "velocity": 0.7874015748031497,
          "duration": 0.060000000000002274
        },
        {
          "name": "D5",
          "midi": 74,
          "time": 54.90000000000053,
          "velocity": 0.7874015748031497,
          "duration": 0.060000000000002274
        },
        {
          "name": "E5",
          "midi": 76,
          "time": 54.960000000000534,
          "velocity": 0.7874015748031497,
          "duration": 0.060000000000002274
        },
        {
          "name": "C5",
          "midi": 72,
          "time": 55.020000000000536,
          "velocity": 0.7874015748031497,
          "duration": 0.060000000000002274
        },
        {
          "name": "G5",
          "midi": 79,
          "time": 55.08000000000054,
          "velocity": 0.7874015748031497,
          "duration": 0.060000000000002274
        },
        {
          "name": "C5",
          "midi": 72,
          "time": 55.14000000000054,
          "velocity": 0.7874015748031497,
          "duration": 0.060000000000002274
        },
        {
          "name": "A#5",
          "midi": 82,
          "time": 55.20000000000054,
          "velocity": 0.7874015748031497,
          "duration": 0.060000000000002274
        },
        {
          "name": "C5",
          "midi": 72,
          "time": 55.260000000000545,
          "velocity": 0.7874015748031497,
          "duration": 0.060000000000002274
        },
        {
          "name": "G5",
          "midi": 79,
          "time": 55.32000000000055,
          "velocity": 0.7874015748031497,
          "duration": 0.060000000000002274
        },
        {
          "name": "C5",
          "midi": 72,
          "time": 55.38000000000055,
          "velocity": 0.7874015748031497,
          "duration": 0.060000000000002274
        },
        {
          "name": "A5",
          "midi": 81,
          "time": 55.44000000000055,
          "velocity": 0.7874015748031497,
          "duration": 0.060000000000002274
        },
        {
          "name": "C5",
          "midi": 72,
          "time": 55.500000000000554,
          "velocity": 0.7874015748031497,
          "duration": 0.060000000000002274
        },
        {
          "name": "F4",
          "midi": 65,
          "time": 55.56000000000056,
          "velocity": 0.7874015748031497,
          "duration": 0.060000000000002274
        },
        {
          "name": "A4",
          "midi": 69,
          "time": 55.62000000000056,
          "velocity": 0.7874015748031497,
          "duration": 0.060000000000002274
        },
        {
          "name": "D5",
          "midi": 74,
          "time": 55.68000000000056,
          "velocity": 0.7874015748031497,
          "duration": 0.060000000000002274
        },
        {
          "name": "E5",
          "midi": 76,
          "time": 55.74000000000056,
          "velocity": 0.7874015748031497,
          "duration": 0.060000000000002274
        },
        {
          "name": "F5",
          "midi": 77,
          "time": 55.800000000000566,
          "velocity": 0.7874015748031497,
          "duration": 0.060000000000002274
        },
        {
          "name": "D5",
          "midi": 74,
          "time": 55.86000000000057,
          "velocity": 0.7874015748031497,
          "duration": 0.060000000000002274
        },
        {
          "name": "B4",
          "midi": 71,
          "time": 55.92000000000057,
          "velocity": 0.7874015748031497,
          "duration": 0.060000000000002274
        },
        {
          "name": "C5",
          "midi": 72,
          "time": 55.98000000000057,
          "velocity": 0.7874015748031497,
          "duration": 0.060000000000002274
        },
        {
          "name": "D5",
          "midi": 74,
          "time": 56.040000000000575,
          "velocity": 0.7874015748031497,
          "duration": 0.060000000000002274
        },
        {
          "name": "B4",
          "midi": 71,
          "time": 56.10000000000058,
          "velocity": 0.7874015748031497,
          "duration": 0.060000000000002274
        },
        {
          "name": "G#4",
          "midi": 68,
          "time": 56.16000000000058,
          "velocity": 0.7874015748031497,
          "duration": 0.060000000000002274
        },
        {
          "name": "A4",
          "midi": 69,
          "time": 56.22000000000058,
          "velocity": 0.7874015748031497,
          "duration": 0.060000000000002274
        },
        {
          "name": "B4",
          "midi": 71,
          "time": 56.280000000000584,
          "velocity": 0.7874015748031497,
          "duration": 0.060000000000002274
        },
        {
          "name": "G#4",
          "midi": 68,
          "time": 56.340000000000586,
          "velocity": 0.7874015748031497,
          "duration": 0.060000000000002274
        },
        {
          "name": "E4",
          "midi": 64,
          "time": 56.40000000000059,
          "velocity": 0.7874015748031497,
          "duration": 0.060000000000002274
        },
        {
          "name": "F#4",
          "midi": 66,
          "time": 56.46000000000059,
          "velocity": 0.7874015748031497,
          "duration": 0.060000000000002274
        },
        {
          "name": "G#4",
          "midi": 68,
          "time": 56.52000000000059,
          "velocity": 0.7874015748031497,
          "duration": 0.060000000000002274
        },
        {
          "name": "B4",
          "midi": 71,
          "time": 56.580000000000595,
          "velocity": 0.7874015748031497,
          "duration": 0.060000000000002274
        },
        {
          "name": "D5",
          "midi": 74,
          "time": 56.6400000000006,
          "velocity": 0.7874015748031497,
          "duration": 0.060000000000002274
        },
        {
          "name": "C5",
          "midi": 72,
          "time": 56.7000000000006,
          "velocity": 0.7874015748031497,
          "duration": 0.060000000000002274
        },
        {
          "name": "D5",
          "midi": 74,
          "time": 56.7600000000006,
          "velocity": 0.7874015748031497,
          "duration": 0.060000000000002274
        },
        {
          "name": "B4",
          "midi": 71,
          "time": 56.820000000000604,
          "velocity": 0.7874015748031497,
          "duration": 0.060000000000002274
        },
        {
          "name": "C5",
          "midi": 72,
          "time": 56.88000000000061,
          "velocity": 0.7874015748031497,
          "duration": 0.060000000000002274
        },
        {
          "name": "A5",
          "midi": 81,
          "time": 56.94000000000061,
          "velocity": 0.7874015748031497,
          "duration": 0.060000000000002274
        },
        {
          "name": "F5",
          "midi": 77,
          "time": 57.00000000000061,
          "velocity": 0.7874015748031497,
          "duration": 0.060000000000002274
        },
        {
          "name": "E5",
          "midi": 76,
          "time": 57.06000000000061,
          "velocity": 0.7874015748031497,
          "duration": 0.060000000000002274
        },
        {
          "name": "D5",
          "midi": 74,
          "time": 57.120000000000616,
          "velocity": 0.7874015748031497,
          "duration": 0.060000000000002274
        },
        {
          "name": "C6",
          "midi": 84,
          "time": 57.18000000000062,
          "velocity": 0.7874015748031497,
          "duration": 0.060000000000002274
        },
        {
          "name": "B5",
          "midi": 83,
          "time": 57.24000000000062,
          "velocity": 0.7874015748031497,
          "duration": 0.060000000000002274
        },
        {
          "name": "A5",
          "midi": 81,
          "time": 57.30000000000062,
          "velocity": 0.7874015748031497,
          "duration": 0.060000000000002274
        },
        {
          "name": "E5",
          "midi": 76,
          "time": 57.360000000000625,
          "velocity": 0.7874015748031497,
          "duration": 0.060000000000002274
        },
        {
          "name": "B5",
          "midi": 83,
          "time": 57.42000000000063,
          "velocity": 0.7874015748031497,
          "duration": 0.060000000000002274
        },
        {
          "name": "A5",
          "midi": 81,
          "time": 57.48000000000063,
          "velocity": 0.7874015748031497,
          "duration": 0.060000000000002274
        },
        {
          "name": "G#5",
          "midi": 80,
          "time": 57.54000000000063,
          "velocity": 0.7874015748031497,
          "duration": 0.060000000000002274
        },
        {
          "name": "A5",
          "midi": 81,
          "time": 57.600000000000634,
          "velocity": 0.7874015748031497,
          "duration": 0.060000000000002274
        },
        {
          "name": "F5",
          "midi": 77,
          "time": 57.660000000000636,
          "velocity": 0.7874015748031497,
          "duration": 0.060000000000002274
        },
        {
          "name": "D5",
          "midi": 74,
          "time": 57.72000000000064,
          "velocity": 0.7874015748031497,
          "duration": 0.060000000000002274
        },
        {
          "name": "C5",
          "midi": 72,
          "time": 57.78000000000064,
          "velocity": 0.7874015748031497,
          "duration": 0.060000000000002274
        },
        {
          "name": "B4",
          "midi": 71,
          "time": 57.84000000000064,
          "velocity": 0.7874015748031497,
          "duration": 0.060000000000002274
        },
        {
          "name": "A5",
          "midi": 81,
          "time": 57.900000000000645,
          "velocity": 0.7874015748031497,
          "duration": 0.060000000000002274
        },
        {
          "name": "G5",
          "midi": 79,
          "time": 57.96000000000065,
          "velocity": 0.7874015748031497,
          "duration": 0.060000000000002274
        },
        {
          "name": "F5",
          "midi": 77,
          "time": 58.02000000000065,
          "velocity": 0.7874015748031497,
          "duration": 0.060000000000002274
        },
        {
          "name": "C#5",
          "midi": 73,
          "time": 58.08000000000065,
          "velocity": 0.7874015748031497,
          "duration": 0.060000000000002274
        },
        {
          "name": "G5",
          "midi": 79,
          "time": 58.140000000000654,
          "velocity": 0.7874015748031497,
          "duration": 0.060000000000002274
        },
        {
          "name": "F5",
          "midi": 77,
          "time": 58.20000000000066,
          "velocity": 0.7874015748031497,
          "duration": 0.060000000000002274
        },
        {
          "name": "E5",
          "midi": 76,
          "time": 58.26000000000066,
          "velocity": 0.7874015748031497,
          "duration": 0.060000000000002274
        },
        {
          "name": "F5",
          "midi": 77,
          "time": 58.32000000000066,
          "velocity": 0.7874015748031497,
          "duration": 0.060000000000002274
        },
        {
          "name": "D5",
          "midi": 74,
          "time": 58.38000000000066,
          "velocity": 0.7874015748031497,
          "duration": 0.060000000000002274
        },
        {
          "name": "A#4",
          "midi": 70,
          "time": 58.440000000000666,
          "velocity": 0.7874015748031497,
          "duration": 0.060000000000002274
        },
        {
          "name": "A4",
          "midi": 69,
          "time": 58.50000000000067,
          "velocity": 0.7874015748031497,
          "duration": 0.060000000000002274
        },
        {
          "name": "G#4",
          "midi": 68,
          "time": 58.56000000000067,
          "velocity": 0.7874015748031497,
          "duration": 0.060000000000002274
        },
        {
          "name": "F5",
          "midi": 77,
          "time": 58.62000000000067,
          "velocity": 0.7874015748031497,
          "duration": 0.060000000000002274
        },
        {
          "name": "E5",
          "midi": 76,
          "time": 58.680000000000675,
          "velocity": 0.7874015748031497,
          "duration": 0.060000000000002274
        },
        {
          "name": "D5",
          "midi": 74,
          "time": 58.74000000000068,
          "velocity": 0.7874015748031497,
          "duration": 0.060000000000002274
        },
        {
          "name": "A4",
          "midi": 69,
          "time": 58.80000000000068,
          "velocity": 0.7874015748031497,
          "duration": 0.060000000000002274
        },
        {
          "name": "E5",
          "midi": 76,
          "time": 58.86000000000068,
          "velocity": 0.7874015748031497,
          "duration": 0.060000000000002274
        },
        {
          "name": "D5",
          "midi": 74,
          "time": 58.920000000000684,
          "velocity": 0.7874015748031497,
          "duration": 0.060000000000002274
        },
        {
          "name": "C5",
          "midi": 72,
          "time": 58.980000000000686,
          "velocity": 0.7874015748031497,
          "duration": 0.060000000000002274
        },
        {
          "name": "D5",
          "midi": 74,
          "time": 59.04000000000069,
          "velocity": 0.7874015748031497,
          "duration": 0.060000000000002274
        },
        {
          "name": "B4",
          "midi": 71,
          "time": 59.10000000000069,
          "velocity": 0.7874015748031497,
          "duration": 0.060000000000002274
        },
        {
          "name": "G#4",
          "midi": 68,
          "time": 59.16000000000069,
          "velocity": 0.7874015748031497,
          "duration": 0.060000000000002274
        },
        {
          "name": "F#4",
          "midi": 66,
          "time": 59.220000000000695,
          "velocity": 0.7874015748031497,
          "duration": 0.060000000000002274
        },
        {
          "name": "E4",
          "midi": 64,
          "time": 59.2800000000007,
          "velocity": 0.7874015748031497,
          "duration": 0.060000000000002274
        },
        {
          "name": "F#4",
          "midi": 66,
          "time": 59.3400000000007,
          "velocity": 0.7874015748031497,
          "duration": 0.060000000000002274
        },
        {
          "name": "G#4",
          "midi": 68,
          "time": 59.4000000000007,
          "velocity": 0.7874015748031497,
          "duration": 0.060000000000002274
        },
        {
          "name": "A4",
          "midi": 69,
          "time": 59.460000000000704,
          "velocity": 0.7874015748031497,
          "duration": 0.060000000000002274
        },
        {
          "name": "B4",
          "midi": 71,
          "time": 59.52000000000071,
          "velocity": 0.7874015748031497,
          "duration": 0.060000000000002274
        },
        {
          "name": "C5",
          "midi": 72,
          "time": 59.58000000000071,
          "velocity": 0.7874015748031497,
          "duration": 0.060000000000002274
        },
        {
          "name": "D5",
          "midi": 74,
          "time": 59.64000000000071,
          "velocity": 0.7874015748031497,
          "duration": 0.060000000000002274
        },
        {
          "name": "B4",
          "midi": 71,
          "time": 59.70000000000071,
          "velocity": 0.7874015748031497,
          "duration": 0.060000000000002274
        },
        {
          "name": "C5",
          "midi": 72,
          "time": 59.760000000000716,
          "velocity": 0.7874015748031497,
          "duration": 0.060000000000002274
        },
        {
          "name": "A4",
          "midi": 69,
          "time": 59.82000000000072,
          "velocity": 0.7874015748031497,
          "duration": 0.060000000000002274
        },
        {
          "name": "C5",
          "midi": 72,
          "time": 59.88000000000072,
          "velocity": 0.7874015748031497,
          "duration": 0.060000000000002274
        },
        {
          "name": "E5",
          "midi": 76,
          "time": 59.94000000000072,
          "velocity": 0.7874015748031497,
          "duration": 0.060000000000002274
        },
        {
          "name": "A5",
          "midi": 81,
          "time": 60.000000000000725,
          "velocity": 0.7874015748031497,
          "duration": 0.060000000000002274
        },
        {
          "name": "B5",
          "midi": 83,
          "time": 60.06000000000073,
          "velocity": 0.7874015748031497,
          "duration": 0.060000000000002274
        },
        {
          "name": "C6",
          "midi": 84,
          "time": 60.12000000000073,
          "velocity": 0.7874015748031497,
          "duration": 0.060000000000002274
        },
        {
          "name": "A5",
          "midi": 81,
          "time": 60.18000000000073,
          "velocity": 0.7874015748031497,
          "duration": 0.060000000000002274
        },
        {
          "name": "E5",
          "midi": 76,
          "time": 60.240000000000734,
          "velocity": 0.7874015748031497,
          "duration": 0.060000000000002274
        },
        {
          "name": "A5",
          "midi": 81,
          "time": 60.300000000000736,
          "velocity": 0.7874015748031497,
          "duration": 0.060000000000002274
        },
        {
          "name": "B5",
          "midi": 83,
          "time": 60.36000000000074,
          "velocity": 0.7874015748031497,
          "duration": 0.060000000000002274
        },
        {
          "name": "G#5",
          "midi": 80,
          "time": 60.42000000000074,
          "velocity": 0.7874015748031497,
          "duration": 0.060000000000002274
        },
        {
          "name": "A5",
          "midi": 81,
          "time": 60.48000000000074,
          "velocity": 0.7874015748031497,
          "duration": 0.060000000000002274
        },
        {
          "name": "E5",
          "midi": 76,
          "time": 60.540000000000745,
          "velocity": 0.7874015748031497,
          "duration": 0.060000000000002274
        },
        {
          "name": "F5",
          "midi": 77,
          "time": 60.60000000000075,
          "velocity": 0.7874015748031497,
          "duration": 0.060000000000002274
        },
        {
          "name": "D5",
          "midi": 74,
          "time": 60.66000000000075,
          "velocity": 0.7874015748031497,
          "duration": 0.060000000000002274
        },
        {
          "name": "C5",
          "midi": 72,
          "time": 60.72000000000075,
          "velocity": 0.7874015748031497,
          "duration": 0.060000000000002274
        },
        {
          "name": "A5",
          "midi": 81,
          "time": 60.780000000000754,
          "velocity": 0.7874015748031497,
          "duration": 0.060000000000002274
        },
        {
          "name": "B4",
          "midi": 71,
          "time": 60.84000000000076,
          "velocity": 0.7874015748031497,
          "duration": 0.060000000000002274
        },
        {
          "name": "G#5",
          "midi": 80,
          "time": 60.90000000000076,
          "velocity": 0.7874015748031497,
          "duration": 0.060000000000002274
        },
        {
          "name": "A4",
          "midi": 69,
          "time": 60.96000000000076,
          "velocity": 0.7874015748031497,
          "duration": 0.240000000000002
        }
      ],
      "controlChanges": {
        "7": [
          {
            "number": 7,
            "time": 0,
            "value": 0.7874015748031497
          }
        ],
        "10": [
          {
            "number": 10,
            "time": 0,
            "value": 0.5039370078740157
          }
        ]
      },
      "id": 1,
      "name": "Solo Flute",
      "instrumentNumber": 73,
      "instrument": "flute",
      "instrumentFamily": "pipe",
      "channelNumber": 0,
      "isPercussion": false
    },
    {
      "startTime": 0,
      "duration": 0,
      "length": 0,
      "notes": [],
      "controlChanges": {},
      "id": 2,
      "name": "--------------------------------------"
    },
    {
      "startTime": 0,
      "duration": 0,
      "length": 0,
      "notes": [],
      "controlChanges": {},
      "id": 3,
      "name": "Johann Sebastian Bach  (1685-1750)"
    },
    {
      "startTime": 0,
      "duration": 0,
      "length": 0,
      "notes": [],
      "controlChanges": {},
      "id": 4,
      "name": "--------------------------------------"
    },
    {
      "startTime": 0,
      "duration": 0,
      "length": 0,
      "notes": [],
      "controlChanges": {},
      "id": 5,
      "name": "Partita in A minor for Solo Flute - BWV 1013"
    },
    {
      "startTime": 0,
      "duration": 0,
      "length": 0,
      "notes": [],
      "controlChanges": {},
      "id": 6,
      "name": "--------------------------------------"
    },
    {
      "startTime": 0,
      "duration": 0,
      "length": 0,
      "notes": [],
      "controlChanges": {},
      "id": 7,
      "name": "2nd Movement: Courante"
    },
    {
      "startTime": 0,
      "duration": 0,
      "length": 0,
      "notes": [],
      "controlChanges": {},
      "id": 8,
      "name": "--------------------------------------"
    },
    {
      "startTime": 0,
      "duration": 0,
      "length": 0,
      "notes": [],
      "controlChanges": {},
      "id": 9,
      "name": "Sequenced with Cakewalk Pro Audio by"
    },
    {
      "startTime": 0,
      "duration": 0,
      "length": 0,
      "notes": [],
      "controlChanges": {},
      "id": 10,
      "name": "David J. Grossman - dave@unpronounceable.com"
    },
    {
      "startTime": 0,
      "duration": 0,
      "length": 0,
      "notes": [],
      "controlChanges": {},
      "id": 11,
      "name": "This and other Bach MIDI files can be found at:"
    },
    {
      "startTime": 0,
      "duration": 0,
      "length": 0,
      "notes": [],
      "controlChanges": {},
      "id": 12,
      "name": "Dave's J.S. Bach Page"
    },
    {
      "startTime": 0,
      "duration": 0,
      "length": 0,
      "notes": [],
      "controlChanges": {},
      "id": 13,
      "name": "http://www.unpronounceable.com/bach"
    },
    {
      "startTime": 0,
      "duration": 0,
      "length": 0,
      "notes": [],
      "controlChanges": {},
      "id": 14,
      "name": "--------------------------------------"
    },
    {
      "startTime": 0,
      "duration": 0,
      "length": 0,
      "notes": [],
      "controlChanges": {},
      "id": 15,
      "name": "Original Filename: fp-2cou.mid"
    },
    {
      "startTime": 0,
      "duration": 0,
      "length": 0,
      "notes": [],
      "controlChanges": {},
      "id": 16,
      "name": "Last Modified: March 1, 1997"
    }
  ]
}