{
  "header": {
    "bpm": 120,
    "timeSignature": [
      4,
      4
    ],
    "PPQ": 480,
    "name": ""
  },
  "startTime": 0,
  "duration": 2500,
  "tracks": [
    {
      "startTime": 0,
      "duration": 2500,
      "length": 5000,
      "notes": [
        {
          "name": "G5",
          "midi": 79,
          "time": 0,
          "velocity": 1,
          "duration": 0.5
        },
        {
          "name": "G5",
          "midi": 79,
          "time": 0.5,
          "velocity": 1,
          "duration": 0.5
        },
        {
          "name": "G5",
          "midi": 79,
          "time": 1,
          "velocity": 1,
          "duration": 0.5
        },
        {
          "name": "G5",
          "midi": 79,
          "time": 1.5,
          "velocity": 1,
          "duration": 0.5
        },
        {
          "name": "G5",
          "midi": 79,
          "time": 2,
          "velocity": 1,
          "duration": 0.5
        },
        {
          "name": "G5",
          "midi": 79,
          "time": 2.5,
          "velocity": 1,
          "duration": 0.5
        },
        {
          "name": "G5",
          "midi": 79,
          "time": 3,
          "velocity": 1,
          "duration": 0.5
        },
        {
          "name": "G5",
          "midi": 79,
          "time": 3.5,
          "velocity": 1,
          "duration": 0.5
        },
        {
          "name": "G5",
          "midi": 79,
          "time": 4,
          "velocity": 1,
          "duration": 0.5
        },
        {
          "name": "G5",
          "midi": 79,
          "time": 4.5,
          "velocity": 1,
          "duration": 0.5
        },
        {
          "name": "G5",
          "midi": 79,
          "time": 5,
          "velocity": 1,
          "duration": 0.5
        },
        {
          "name": "G5",
          "midi": 79,
          "time": 5.5,
          "velocity": 1,
          "duration": 0.5
        },
        {
          "name": "G5",
          "midi": 79,
          "time": 6,
          "velocity": 1,
          "duration": 0.5
        },
        {
          "name": "G5",
          "midi": 79,
          "time": 6.5,
          "velocity": 1,
          "duration": 0.5
        },
        {
          "name": "G5",
          "midi": 79,
          "time": 7,
          "velocity": 1,
          "duration": 0.5
        },
        {
          "name": "G5",
          "midi": 79,
          "time": 7.5,
          "velocity": 1,
          "duration": 0.5
        },
        {
          "name": "G5",
          "midi": 79,
          "time": 8,
          "velocity": 1,
          "duration": 0.5
        },
        {
          "name": "G5",
          "midi": 79,
          "time": 8.5,
          "velocity": 1,
          "duration": 0.5
        },
        {
          "name": "G5",
          "midi": 79,
          "time": 9,
          "velocity": 1,
          "duration": 0.5
        },
        {
          "name": "G5",
          "midi": 79,
          "time": 9.5,
          "velocity": 1,
          "duration": 0.5
        },
        {
          "name": "G5",
          "midi": 79,
          "time": 10,
          "velocity": 1,
          "duration": 0.5
        },
        {
          "name": "G5",
          "midi": 79,
          "time": 10.5,
          "velocity": 1,
          "duration": 0.5
        },
        {
          "name": "G5",
          "midi": 79,
          "time": 11,
          "velocity": 1,
          "duration": 0.5
        },
        {
          "name": "G5",
          "midi": 79,
          "time": 11.5,
          "velocity": 1,
          "duration": 0.5
        },
        {
          "name": "G5",
          "midi": 79,
          "time": 12,
          "velocity": 1,
          "duration": 0.5
        },
        {
          "name": "G5",
          "midi": 79,
          "time": 12.5,
          "velocity": 1,
          "duration": 0.5
        },
        {
          "name": "G5",
          "midi": 79,
          "time": 13,
          "velocity": 1,
          "duration": 0.5
        },
        {
          "name": "G5",
          "midi": 79,
          "time": 13.5,
          "velocity": 1,
          "duration": 0.5
        },
        {
          "name": "G5",
          "midi": 79,
          "time": 14,
          "velocity": 1,
          "duration": 0.5
        },
        {
          "name": "G5",
          "midi": 79,
          "time": 14.5,
          "velocity": 1,
          "duration": 0.5
        },
        {
          "name": "G5",
          "midi": 79,
          "time": 15,
          "velocity": 1,
          "duration": 0.5
        },
        {
          "name": "G5",
          "midi": 79,
          "time": 15.5,
          "velocity": 1,
          "duration": 0.5
        },
        {
          "name": "G5",
          "midi": 79,
          "time": 16,
          "velocity": 1,
          "duration": 0.5
        },
        {
          "name": "G5",
          "midi": 79,
          "time": 16.5,
          "velocity": 1,
          "duration": 0.5
        },
        {
          "name": "G5",
          "midi": 79,
          "time": 17,
          "velocity": 1,
          "duration": 0.5
        },
        {
          "name": "G5",
          "midi": 79,
          "time": 17.5,
          "velocity": 1,
          "duration": 0.5
        },
        {
          "name": "G5",
          "midi": 79,
          "time": 18,
          "velocity": 1,
          "duration": 0.5
        },
        {
          "name": "G5",
          "midi": 79,
          "time": 18.5,
          "velocity": 1,
          "duration": 0.5
        },
        {
          "name": "G5",
          "midi": 79,
          "time": 19,
          "velocity": 1,
          "duration": 0.5
        },
        {
          "name": "G5",
          "midi": 79,
          "time": 19.5,
          "velocity": 1,
          "duration": 0.5
        },
        {
          "name": "G5",
          "midi": 79,
          "time": 20,
          "velocity": 1,
          "duration": 0.5
        },
        {
          "name": "G5",
          "midi": 79,
          "time": 20.5,
          "velocity": 1,
          "duration": 0.5
        },
        {
          "name": "G5",
          "midi": 79,
          "time": 21,
          "velocity": 1,
          "duration": 0.5
        },
        {
          "name": "G5",
          "midi": 79,
          "time": 21.5,
          "velocity": 1,
          "duration": 0.5
        },
        {
          "name": "G5",
          "midi": 79,
          "time": 22,
          "velocity": 1,
          "duration": 0.5
        },
        {
          "name": "G5",
          "midi": 79,
          "time": 22.5,
          "velocity": 1,
          "duration": 0.5
        },
        {
          "name": "G5",
          "midi": 79,
          "time": 23,
          "velocity": 1,
          "duration": 0.5
        },
        {
          "name": "G5",
          "midi": 79,
          "time": 23.5,
          "velocity": 1,
          "duration": 0.5
        },
        {
          "name": "G5",
          "midi": 79,
          "time": 24,
          "velocity": 1,
          "duration": 0.5
        },
        {
          "name": "G5",
          "midi": 79,
          "time": 24.5,
          "velocity": 1,
          "duration": 0.5
        },
        {
          "name": "G5",
          "midi": 79,
          "time": 25,
          "velocity": 1,
          "duration": 0.5
        },
        {
          "name": "G5",
          "midi": 79,
          "time": 25.5,
          "velocity": 1,
          "duration": 0.5
        },
        {
          "name": "G5",
          "midi": 79,
          "time": 26,
          "velocity": 1,
          "duration": 0.5
        },
        {
          "name": "G5",
          "midi": 79,
          "time": 26.5,
          "velocity": 1,
          "duration": 0.5
        },
        {
          "name": "G5",
          "midi": 79,
          "time": 27,
          "velocity": 1,
          "duration": 0.5
        },
        {
          "name": "G5",
          "midi": 79,
          "time": 27.5,
          "velocity": 1,
          "duration": 0.5
        },
        {
          "name": "G5",
          "midi": 79,
          "time": 28,
          "velocity": 1,
          "duration": 0.5
        },
        {
          "name": "G5",
          "midi": 79,
          "time": 28.5,
          "velocity": 1,
          "duration": 0.5
        },
        {
          "name": "G5",
          "midi": 79,
          "time": 29,
          "velocity": 1,
          "duration": 0.5
        },
        {
          "name": "G5",
          "midi": 79,
          "time": 29.5,
          "velocity": 1,
          "duration": 0.5
        },
        {
          "name": "G5",
          "midi": 79,
          "time": 30,
          "velocity": 1,
          "duration": 0.5
        },
        {
          "name": "G5",
          "midi": 79,
          "time": 30.5,
          "velocity": 1,
          "duration": 0.5
        },
        {
          "name": "G5",
          "midi": 79,
          "time": 31,
          "velocity": 1,
          "duration": 0.5
        },
        {
          "name": "G5",
          "midi": 79,
          "time": 31.5,
          "velocity": 1,
          "duration": 0.5
        },
        {
          "name": "G5",
          "midi": 79,
          "time": 32,
          "velocity": 1,
          "duration": 0.5
        },
        {
          "name": "G5",
          "midi": 79,
          "time": 32.5,
          "velocity": 1,
          "duration": 0.5
        },
        {
          "name": "G5",
          "midi": 79,
          "time": 33,
          "velocity": 1,
          "duration": 0.5
        },
        {
          "name": "G5",
          "midi": 79,
          "time": 33.5,
          "velocity": 1,
          "duration": 0.5
        },
        {
          "name": "G5",
          "midi": 79,
          "time": 34,
          "velocity": 1,
          "duration": 0.5
        },
        {
          "name": "G5",
          "midi": 79,
          "time": 34.5,
          "velocity": 1,
          "duration": 0.5
        },
        {
          "name": "G5",
          "midi": 79,
          "time": 35,
          "velocity": 1,
          "duration": 0.5
        },
        {
          "name": "G5",
          "midi": 79,
          "time": 35.5,
          "velocity": 1,
          "duration": 0.5
        },
        {
          "name": "G5",
          "midi": 79,
          "time": 36,
          "velocity": 1,
          "duration": 0.5
        },
        {
          "name": "G5",
          "midi": 79,
          "time": 36.5,
          "velocity": 1,
          "duration": 0.5
        },
        {
          "name": "G5",
          "midi": 79,
          "time": 37,
          "velocity": 1,
          "duration": 0.5
        },
        {
          "name": "G5",
          "midi": 79,
          "time": 37.5,
          "velocity": 1,
          "duration": 0.5
        },
        {
          "name": "G5",
          "midi": 79,
          "time": 38,
          "velocity": 1,
          "duration": 0.5
        },
        {
          "name": "G5",
          "midi": 79,
          "time": 38.5,
          "velocity": 1,
          "duration": 0.5
        },
        {
          "name": "G5",
          "midi": 79,
          "time": 39,
          "velocity": 1,
          "duration": 0.5
        },
        {
          "name": "G5",
          "midi": 79,
          "time": 39.5,
          "velocity": 1,
          "duration": 0.5
        },
        {
          "name": "G5",
          "midi": 79,
          "time": 40,
          "velocity": 1,
          "duration": 0.5
        },
        {
          "name": "G5",
          "midi": 79,
          "time": 40.5,
          "velocity": 1,
          "duration": 0.5
        },
        {
          "name": "G5",
          "midi": 79,
          "time": 41,
          "velocity": 1,
          "duration": 0.5
        },
        {
          "name": "G5",
          "midi": 79,
          "time": 41.5,
          "velocity": 1,
          "duration": 0.5
        },
        {
          "name": "G5",
          "midi": 79,
          "time": 42,
          "velocity": 1,
          "duration": 0.5
        },
        {
          "name": "G5",
          "midi": 79,
          "time": 42.5,
          "velocity": 1,
          "duration": 0.5
        },
        {
          "name": "G5",
          "midi": 79,
          "time": 43,
          "velocity": 1,
          "duration": 0.5
        },
        {
          "name": "G5",
          "midi": 79,
          "time": 43.5,
          "velocity": 1,
          "duration": 0.5
        },
        {
          "name": "G5",
          "midi": 79,
          "time": 44,
          "velocity": 1,
          "duration": 0.5
        },
        {
          "name": "G5",
          "midi": 79,
          "time": 44.5,
          "velocity": 1,
          "duration": 0.5
        },
        {
          "name": "G5",
          "midi": 79,
          "time": 45,
          "velocity": 1,
          "duration": 0.5
        },
        {
          "name": "G5",
          "midi": 79,
          "time": 45.5,
          "velocity": 1,
          "duration": 0.5
        },
        {
          "name": "G5",
          "midi": 79,
          "time": 46,
          "velocity": 1,
          "duration": 0.5
        },
        {
          "name": "G5",
          "midi": 79,
          "time": 46.5,
          "velocity": 1,
          "duration": 0.5
        },
        {
          "name": "G5",
          "midi": 79,
          "time": 47,
          "velocity": 1,
          "duration": 0.5
        },
        {
          "name": "G5",
          "midi": 79,
          "time": 47.5,
          "velocity": 1,
          "duration": 0.5
        },
        {
          "name": "G5",
          "midi": 79,
          "time": 48,
          "velocity": 1,
          "duration": 0.5
        },
        {
          "name": "G5",
          "midi": 79,
          "time": 48.5,
          "velocity": 1,
          "duration": 0.5
        },
        {
          "name": "G5",
          "midi": 79,
          "time": 49,
          "velocity": 1,
          "duration": 0.5
        },
        {
          "name": "G5",
          "midi": 79,
          "time": 49.5,
          "velocity": 1,
          "duration": 0.5
        },
        {
          "name": "G5",
          "midi": 79,
          "time": 50,
          "velocity": 1,
          "duration": 0.5
        },
        {
          "name": "G5",
          "midi": 79,
          "time": 50.5,
          "velocity": 1,
          "duration": 0.5
        },
        {
          "name": "G5",
          "midi": 79,
          "time": 51,
          "velocity": 1,
          "duration": 0.5
        },
        {
          "name": "A5",
          "midi": 81,
          "time": 51.5,
          "velocity": 1,
          "duration": 0.5
        },
        {
          "name": "A5",
          "midi": 81,
          "time": 52,
          "velocity": 1,
          "duration": 0.5
        },
        {
          "name": "A5",
          "midi": 81,
          "time": 52.5,
          "velocity": 1,
          "duration": 0.5
        },
        {
          "name": "A5",
          "midi": 81,
          "time": 53,
          "velocity": 1,
          "duration": 0.5
        },
        {
          "name": "A5",
          "midi": 81,
          "time": 53.5,
          "velocity": 1,
          "duration": 0.5
        },
        {
          "name": "A5",
          "midi": 81,
          "time": 54,
          "velocity": 1,
          "duration": 0.5
        },
        {
          "name": "A5",
          "midi": 81,
          "time": 54.5,
          "velocity": 1,
          "duration": 0.5
        },
        {
          "name": "A5",
          "midi": 81,
          "time": 55,
          "velocity": 1,
          "duration": 0.5
        },
        {
          "name": "A5",
          "midi": 81,
          "time": 55.5,
          "velocity": 1,
          "duration": 0.5
        },
        {
          "name": "A5",
          "midi": 81,
          "time": 56,
          "velocity": 1,
          "duration": 0.5
        },
        {
          "name": "A5",
          "midi": 81,
          "time": 56.5,
          "velocity": 1,
          "duration": 0.5
        },
        {
          "name": "A5",
          "midi": 81,
          "time": 57,
          "velocity": 1,
          "duration": 0.5
        },
        {
          "name": "A5",
          "midi": 81,
          "time": 57.5,
          "velocity": 1,
          "duration": 0.5
        },
        {
          "name": "A5",
          "midi": 81,
          "time": 58,
          "velocity": 1,
          "duration": 0.5
        },
        {
          "name": "A5",
          "midi": 81,
          "time": 58.5,
          "velocity": 1,
          "duration": 0.5
        },
        {
          "name": "A5",
          "midi": 81,
          "time": 59,
          "velocity": 1,
          "duration": 0.5
        },
        {
          "name": "A5",
          "midi": 81,
          "time": 59.5,
          "velocity": 1,
          "duration": 0.5
        },
        {
          "name": "A5",
          "midi": 81,
          "time": 60,
          "velocity": 1,
          "duration": 0.5
        },
        {
          "name": "A5",
          "midi": 81,
          "time": 60.5,
          "velocity": 1,
          "duration": 0.5
        },
        {
          "name": "A5",
          "midi": 81,
          "time": 61,
          "velocity": 1,
          "duration": 0.5
        },
        {
          "name": "A5",
          "midi": 81,
          "time": 61.5,
          "velocity": 1,
          "duration": 0.5
        },
        {
          "name": "A5",
          "midi": 81,
          "time": 62,
          "velocity": 1,
          "duration": 0.5
        },
        {
          "name": "A5",
          "midi": 81,
          "time": 62.5,
          "velocity": 1,
          "duration": 0.5
        },
        {
          "name": "A5",
          "midi": 81,
          "time": 63,
          "velocity": 1,
          "duration": 0.5
        },
        {
          "name": "A5",
          "midi": 81,
          "time": 63.5,
          "velocity": 1,
          "duration": 0.5
        },
        {
          "name": "A5",
          "midi": 81,
          "time": 64,
          "velocity": 1,
          "duration": 0.5
        },
        {
          "name": "A5",
          "midi": 81,
          "time": 64.5,
          "velocity": 1,
          "duration": 0.5
        },
        {
          "name": "A5",
          "midi": 81,
          "time": 65,
          "velocity": 1,
          "duration": 0.5
        },
        {
          "name": "A5",
          "midi": 81,
          "time": 65.5,
          "velocity": 1,
          "duration": 0.5
        },
        {
          "name": "A5",
          "midi": 81,
          "time": 66,
          "velocity": 1,
          "duration": 0.5
        },
        {
          "name": "A5",
          "midi": 81,
          "time": 66.5,
          "velocity": 1,
          "duration": 0.5
        },
        {
          "name": "A5",
          "midi": 81,
          "time": 67,
          "velocity": 1,
          "duration": 0.5
        },
        {
          "name": "A5",
          "midi": 81,
          "time": 67.5,
          "velocity": 1,
          "duration": 0.5
        },
        {
          "name": "A5",
          "midi": 81,
          "time": 68,
          "velocity": 1,
          "duration": 0.5
        },
        {
          "name": "A5",
          "midi": 81,
          "time": 68.5,
          "velocity": 1,
          "duration": 0.5
        },
        {
          "name": "A5",
          "midi": 81,
          "time": 69,
          "velocity": 1,
          "duration": 0.5
        },
        {
          "name": "A5",
          "midi": 81,
          "time": 69.5,
          "velocity": 1,
          "duration": 0.5
        },
        {
          "name": "A5",
          "midi": 81,
          "time": 70,
          "velocity": 1,
          "duration": 0.5
        },
        {
          "name": "A5",
          "midi": 81,
          "time": 70.5,
          "velocity": 1,
          "duration": 0.5
        },
        {
          "name": "A5",
          "midi": 81,
          "time": 71,
          "velocity": 1,
          "duration": 0.5
        },
        {
          "name": "A5",
          "midi": 81,
          "time": 71.5,
          "velocity": 1,
          "duration": 0.5
        },
        {
          "name": "A5",
          "midi": 81,
          "time": 72,
          "velocity": 1,
          "duration": 0.5
        },
        {
          "name": "A5",
          "midi": 81,
          "time": 72.5,
          "velocity": 1,
          "duration": 0.5
        },
        {
          "name": "A5",
          "midi": 81,
          "time": 73,
          "velocity": 1,
          "duration": 0.5
        },
        {
          "name": "A5",
          "midi": 81,
          "time": 73.5,
          "velocity": 1,
          "duration": 0.5
        },
        {
          "name": "A5",
          "midi": 81,
          "time": 74,
          "velocity": 1,
          "duration": 0.5
        },
        {
          "name": "A5",
          "midi": 81,
          "time": 74.5,
          "velocity": 1,
          "duration": 0.5
        },
        {
          "name": "A5",
          "midi": 81,
          "time": 75,
          "velocity": 1,
          "duration": 0.5
        },
        {
          "name": "A5",
          "midi": 81,
          "time": 75.5,
          "velocity": 1,
          "duration": 0.5
        },
        {
          "name": "A5",
          "midi": 81,
          "time": 76,
          "velocity": 1,
          "duration": 0.5
        },
        {
          "name": "A5",
          "midi": 81,
          "time": 76.5,
          "velocity": 1,
          "duration": 0.5
        },
        {
          "name": "A5",
          "midi": 81,
          "time": 77,
          "velocity": 1,
          "duration": 0.5
        },
        {
          "name": "A5",
          "midi": 81,
          "time": 77.5,
          "velocity": 1,
          "duration": 0.5
        },
        {
          "name": "A5",
          "midi": 81,
          "time": 78,
          "velocity": 1,
          "duration": 0.5
        },
        {
          "name": "A5",
          "midi": 81,
          "time": 78.5,
          "velocity": 1,
          "duration": 0.5
        },
        {
          "name": "A5",
          "midi": 81,
          "time": 79,
          "velocity": 1,
          "duration": 0.5
        },
        {
          "name": "A5",
          "midi": 81,
          "time": 79.5,
          "velocity": 1,
          "duration": 0.5
        },
        {
          "name": "A5",
          "midi": 81,
          "time": 80,
          "velocity": 1,
          "duration": 0.5
        },
        {
          "name": "A5",
          "midi": 81,
          "time": 80.5,
          "velocity": 1,
          "duration": 0.5
        },
        {
          "name": "A5",
          "midi": 81,
          "time": 81,
          "velocity": 1,
          "duration": 0.5
        },
        {
          "name": "A5",
          "midi": 81,
          "time": 81.5,
          "velocity": 1,
          "duration": 0.5
        },
        {
          "name": "A5",
          "midi": 81,
          "time": 82,
          "velocity": 1,
          "duration": 0.5
        },
        {
          "name": "A5",
          "midi": 81,
          "time": 82.5,
          "velocity": 1,
          "duration": 0.5
        },
        {
          "name": "A5",
          "midi": 81,
          "time": 83,
          "velocity": 1,
          "duration": 0.5
        },
        {
          "name": "A5",
          "midi": 81,
          "time": 83.5,
          "velocity": 1,
          "duration": 0.5
        },
        {
          "name": "A5",
          "midi": 81,
          "time": 84,
          "velocity": 1,
          "duration": 0.5
        },
        {
          "name": "A5",
          "midi": 81,
          "time": 84.5,
          "velocity": 1,
          "duration": 0.5
        },
        {
          "name": "A5",
          "midi": 81,
          "time": 85,
          "velocity": 1,
          "duration": 0.5
        },
        {
          "name": "A5",
          "midi": 81,
          "time": 85.5,
          "velocity": 1,
          "duration": 0.5
        },
        {
          "name": "A5",
          "midi": 81,
          "time": 86,
          "velocity": 1,
          "duration": 0.5
        },
        {
          "name": "A5",
          "midi": 81,
          "time": 86.5,
          "velocity": 1,
          "duration": 0.5
        },
        {
          "name": "A5",
          "midi": 81,
          "time": 87,
          "velocity": 1,
          "duration": 0.5
        },
        {
          "name": "A5",
          "midi": 81,
          "time": 87.5,
          "velocity": 1,
          "duration": 0.5
        },
        {
          "name": "A5",
          "midi": 81,
          "time": 88,
          "velocity": 1,
          "duration": 0.5
        },
        {
          "name": "A5",
          "midi": 81,
          "time": 88.5,
          "velocity": 1,
          "duration": 0.5
        },
        {
          "name": "A5",
          "midi": 81,
          "time": 89,
          "velocity": 1,
          "duration": 0.5
        },
        {
          "name": "A5",
          "midi": 81,
          "time": 89.5,
          "velocity": 1,
          "duration": 0.5
        },
        {
          "name": "A5",
          "midi": 81,
          "time": 90,
          "velocity": 1,
          "duration": 0.5
        },
        {
          "name": "A5",
          "midi": 81,
          "time": 90.5,
          "velocity": 1,
          "duration": 0.5
        },
        {
          "name": "A5",
          "midi": 81,
          "time": 91,
          "velocity": 1,
          "duration": 0.5
        },
        {
          "name": "A5",
          "midi": 81,
          "time": 91.5,
          "velocity": 1,
          "duration": 0.5
        },
        {
          "name": "A5",
          "midi": 81,
          "time": 92,
          "velocity": 1,
          "duration": 0.5
        },
        {
          "name": "A5",
          "midi": 81,
          "time": 92.5,
          "velocity": 1,
          "duration": 0.5
        },
        {
          "name": "A5",
          "midi": 81,
          "time": 93,
          "velocity": 1,
          "duration": 0.5
        },
        {
          "name": "A5",
          "midi": 81,
          "time": 93.5,
          "velocity": 1,
          "duration": 0.5
        },
        {
          "name": "A5",
          "midi": 81,
          "time": 94,
          "velocity": 1,
          "duration": 0.5
        },
        {
          "name": "A5",
          "midi": 81,
          "time": 94.5,
          "velocity": 1,
          "duration": 0.5
        },
        {
          "name": "A5",
          "midi": 81,
          "time": 95,
          "velocity": 1,
          "duration": 0.5
        },
        {
          "name": "A5",
          "midi": 81,
          "time": 95.5,
          "velocity": 1,
          "duration": 0.5
        },
        {
          "name": "A5",
          "midi": 81,
          "time": 96,
          "velocity": 1,
          "duration": 0.5
        },
        {
          "name": "A5",
          "midi": 81,
          "time": 96.5,
          "velocity": 1,
          "duration": 0.5
        },
        {
          "name": "A5",
          "midi": 81,
          "time": 97,
          "velocity": 1,
          "duration": 0.5
        },
        {
          "name": "A5",
          "midi": 81,
          "time": 97.5,
          "velocity": 1,
          "duration": 0.5
        },
        {
          "name": "A5",
          "midi": 81,
          "time": 98,
          "velocity": 1,
          "duration": 0.5
        },
        {
          "name": "A5",
          "midi": 81,
          "time": 98.5,
          "velocity": 1,
          "duration": 0.5
        },
        {
          "name": "A5",
          "midi": 81,
          "time": 99,
          "velocity": 1,
          "duration": 0.5
        },
        {
          "name": "A5",
          "midi": 81,
          "time": 99.5,
          "velocity": 1,
          "duration": 0.5
        },
        {
          "name": "A5",
          "midi": 81,
          "time": 100,
          "velocity": 1,
          "duration": 0.5
        },
        {
          "name": "A5",
          "midi": 81,
          "time": 100.5,
          "velocity": 1,
          "duration": 0.5
        },
        {
          "name": "A5",
          "midi": 81,
          "time": 101,
          "velocity": 1,
          "duration": 0.5
        },
        {
          "name": "A5",
          "midi": 81,
          "time": 101.5,
          "velocity": 1,
          "duration": 0.5
        },
        {
          "name": "A5",
          "midi": 81,
          "time": 102,
          "velocity": 1,
          "duration": 0.5
        },
        {
          "name": "A5",
          "midi": 81,
          "time": 102.5,
          "velocity": 1,
          "duration": 0.5
        },
        {
          "name": "A5",
          "midi": 81,
          "time": 103,
          "velocity": 1,
          "duration": 0.5
        },
        {
          "name": "A5",
          "midi": 81,
          "time": 103.5,
          "velocity": 1,
          "duration": 0.5
        },
        {
          "name": "A5",
          "midi": 81,
          "time": 104,
          "velocity": 1,
          "duration": 0.5
        },
        {
          "name": "A5",
          "midi": 81,
          "time": 104.5,
          "velocity": 1,
          "duration": 0.5
        },
        {
          "name": "A5",
          "midi": 81,
          "time": 105,
          "velocity": 1,
          "duration": 0.5
        },
        {
          "name": "A5",
          "midi": 81,
          "time": 105.5,
          "velocity": 1,
          "duration": 0.5
        },
        {
          "name": "A5",
          "midi": 81,
          "time": 106,
          "velocity": 1,
          "duration": 0.5
        },
        {
          "name": "A5",
          "midi": 81,
          "time": 106.5,
          "velocity": 1,
          "duration": 0.5
        },
        {
          "name": "A5",
          "midi": 81,
          "time": 107,
          "velocity": 1,
          "duration": 0.5
        },
        {
          "name": "A5",
          "midi": 81,
          "time": 107.5,
          "velocity": 1,
          "duration": 0.5
        },
        {
          "name": "A5",
          "midi": 81,
          "time": 108,
          "velocity": 1,
          "duration": 0.5
        },
        {
          "name": "A5",
          "midi": 81,
          "time": 108.5,
          "velocity": 1,
          "duration": 0.5
        },
        {
          "name": "A5",
          "midi": 81,
          "time": 109,
          "velocity": 1,
          "duration": 0.5
        },
        {
          "name": "A5",
          "midi": 81,
          "time": 109.5,
          "velocity": 1,
          "duration": 0.5
        },
        {
          "name": "A5",
          "midi": 81,
          "time": 110,
          "velocity": 1,
          "duration": 0.5
        },
        {
          "name": "A5",
          "midi": 81,
          "time": 110.5,
          "velocity": 1,
          "duration": 0.5
        },
        {
          "name": "A5",
          "midi": 81,
          "time": 111,
          "velocity": 1,
          "duration": 0.5
        },
        {
          "name": "A5",
          "midi": 81,
          "time": 111.5,
          "velocity": 1,
          "duration": 0.5
        },
        {
          "name": "A5",
          "midi": 81,
          "time": 112,
          "velocity": 1,
          "duration": 0.5
        },
        {
          "name": "A5",
          "midi": 81,
          "time": 112.5,
          "velocity": 1,
          "duration": 0.5
        },
        {
          "name": "A5",
          "midi": 81,
          "time": 113,
          "velocity": 1,
          "duration": 0.5
        },
        {
          "name": "A5",
          "midi": 81,
          "time": 113.5,
          "velocity": 1,
          "duration": 0.5
        },
        {
          "name": "A5",
          "midi": 81,
          "time": 114,
          "velocity": 1,
          "duration": 0.5
        },
        {
          "name": "A5",
          "midi": 81,
          "time": 114.5,
          "velocity": 1,
          "duration": 0.5
        },
        {
          "name": "A5",
          "midi": 81,
          "time": 115,
          "velocity": 1,
          "duration": 0.5
        },
        {
          "name": "A5",
          "midi": 81,
          "time": 115.5,
          "velocity": 1,
          "duration": 0.5
        },
        {
          "name": "A5",
          "midi": 81,
          "time": 116,
          "velocity": 1,
          "duration": 0.5
        },
        {
          "name": "A5",
          "midi": 81,
          "time": 116.5,
          "velocity": 1,
          "duration": 0.5
        },
        {
          "name": "A5",
          "midi": 81,
          "time": 117,
          "velocity": 1,
          "duration": 0.5
        },
        {
          "name": "A5",
          "midi": 81,
          "time": 117.5,
          "velocity": 1,
          "duration": 0.5
        },
        {
          "name": "A5",
          "midi": 81,
          "time": 118,
          "velocity": 1,
          "duration": 0.5
        },
        {
          "name": "A5",
          "midi": 81,
          "time": 118.5,
          "velocity": 1,
          "duration": 0.5
        },
        {
          "name": "A5",
          "midi": 81,
          "time": 119,
          "velocity": 1,
          "duration": 0.5
        },
        {
          "name": "A5",
          "midi": 81,
          "time": 119.5,
          "velocity": 1,
          "duration": 0.5
        },
        {
          "name": "A5",
          "midi": 81,
          "time": 120,
          "velocity": 1,
          "duration": 0.5
        },
        {
          "name": "A5",
          "midi": 81,
          "time": 120.5,
          "velocity": 1,
          "duration": 0.5
        },
        {
          "name": "A5",
          "midi": 81,
          "time": 121,
          "velocity": 1,
          "duration": 0.5
        },
        {
          "name": "A5",
          "midi": 81,
          "time": 121.5,
          "velocity": 1,
          "duration": 0.5
        },
        {
          "name": "A5",
          "midi": 81,
          "time": 122,
          "velocity": 1,
          "duration": 0.5
        },
        {
          "name": "A5",
          "midi": 81,
          "time": 122.5,
          "velocity": 1,
          "duration": 0.5
        },
        {
          "name": "A5",
          "midi": 81,
          "time": 123,
          "velocity": 1,
          "duration": 0.5
        },
        {
          "name": "A5",
          "midi": 81,
          "time": 123.5,
          "velocity": 1,
          "duration": 0.5
        },
        {
          "name": "A5",
          "midi": 81,
          "time": 124,
          "velocity": 1,
          "duration": 0.5
        },
        {
          "name": "A5",
          "midi": 81,
          "time": 124.5,
          "velocity": 1,
          "duration": 0.5
        },
        {
          "name": "A5",
          "midi": 81,
          "time": 125,
          "velocity": 1,
          "duration": 0.5
        },
        {
          "name": "A5",
          "midi": 81,
          "time": 125.5,
          "velocity": 1,
          "duration": 0.5
        },
        {
          "name": "A5",
          "midi": 81,
          "time": 126,
          "velocity": 1,
          "duration": 0.5
        },
        {
          "name": "A5",
          "midi": 81,
          "time": 126.5,
          "velocity": 1,
          "duration": 0.5
        },
        {
          "name": "A5",
          "midi": 81,
          "time": 127,
          "velocity": 1,
          "duration": 0.5
        },
        {
          "name": "A5",
          "midi": 81,
          "time": 127.5,
          "velocity": 1,
          "duration": 0.5
        },
        {
          "name": "A5",
          "midi": 81,
          "time": 128,
          "velocity": 1,
          "duration": 0.5
        },
        {
          "name": "A5",
          "midi": 81,
          "time": 128.5,
          "velocity": 1,
          "duration": 0.5
        },
        {
          "name": "A5",
          "midi": 81,
          "time": 129,
          "velocity": 1,
          "duration": 0.5
        },
        {
          "name": "A5",
          "midi": 81,
          "time": 129.5,
          "velocity": 1,
          "duration": 0.5
        },
        {
          "name": "A5",
          "midi": 81,
          "time": 130,
          "velocity": 1,
          "duration": 0.5
        },
        {
          "name": "A5",
          "midi": 81,
          "time": 130.5,
          "velocity": 1,
          "duration": 0.5
        },
        {
          "name": "A5",
          "midi": 81,
          "time": 131,
          "velocity": 1,
          "duration": 0.5
        },
        {
          "name": "A5",
          "midi": 81,
          "time": 131.5,
          "velocity": 1,
          "duration": 0.5
        },
        {
          "name": "A5",
          "midi": 81,
          "time": 132,
          "velocity": 1,
          "duration": 0.5
        },
        {
          "name": "A5",
          "midi": 81,
          "time": 132.5,
          "velocity": 1,
          "duration": 0.5
        },
        {
          "name": "A5",
          "midi": 81,
          "time": 133,
          "velocity": 1,
          "duration": 0.5
        },
        {
          "name": "A5",
          "midi": 81,
          "time": 133.5,
          "velocity": 1,
          "duration": 0.5
        },
        {
          "name": "A5",
          "midi": 81,
          "time": 134,
          "velocity": 1,
          "duration": 0.5
        },
        {
          "name": "A5",
          "midi": 81,
          "time": 134.5,
          "velocity": 1,
          "duration": 0.5
        },
        {
          "name": "A5",
          "midi": 81,
          "time": 135,
          "velocity": 1,
          "duration": 0.5
        },
        {
          "name": "A5",
          "midi": 81,
          "time": 135.5,
          "velocity": 1,
          "duration": 0.5
        },
        {
          "name": "A5",
          "midi": 81,
          "time": 136,
          "velocity": 1,
          "duration": 0.5
        },
        {
          "name": "A5",
          "midi": 81,
          "time": 136.5,
          "velocity": 1,
          "duration": 0.5
        },
        {
          "name": "A5",
          "midi": 81,
          "time": 137,
          "velocity": 1,
          "duration": 0.5
        },
        {
          "name": "A5",
          "midi": 81,
          "time": 137.5,
          "velocity": 1,
          "duration": 0.5
        },
        {
          "name": "A5",
          "midi": 81,
          "time": 138,
          "velocity": 1,
          "duration": 0.5
        },
        {
          "name": "A5",
          "midi": 81,
          "time": 138.5,
          "velocity": 1,
          "duration": 0.5
        },
        {
          "name": "A5",
          "midi": 81,
          "time": 139,
          "velocity": 1,
          "duration": 0.5
        },
        {
          "name": "A5",
          "midi": 81,
          "time": 139.5,
          "velocity": 1,
          "duration": 0.5
        },
        {
          "name": "A5",
          "midi": 81,
          "time": 140,
          "velocity": 1,
          "duration": 0.5
        },
        {
          "name": "A5",
          "midi": 81,
          "time": 140.5,
          "velocity": 1,
          "duration": 0.5
        },
        {
          "name": "A5",
          "midi": 81,
          "time": 141,
          "velocity": 1,
          "duration": 0.5
        },
        {
          "name": "A5",
          "midi": 81,
          "time": 141.5,
          "velocity": 1,
          "duration": 0.5
        },
        {
          "name": "A5",
          "midi": 81,
          "time": 142,
          "velocity": 1,
          "duration": 0.5
        },
        {
          "name": "A5",
          "midi": 81,
          "time": 142.5,
          "velocity": 1,
          "duration": 0.5
        },
        {
          "name": "A5",
          "midi": 81,
          "time": 143,
          "velocity": 1,
          "duration": 0.5
        },
        {
          "name": "A5",
          "midi": 81,
          "time": 143.5,
          "velocity": 1,
          "duration": 0.5
        },
        {
          "name": "A5",
          "midi": 81,
          "time": 144,
          "velocity": 1,
          "duration": 0.5
        },
        {
          "name": "A5",
          "midi": 81,
          "time": 144.5,
          "velocity": 1,
          "duration": 0.5
        },
        {
          "name": "A5",
          "midi": 81,
          "time": 145,
          "velocity": 1,
          "duration": 0.5
        },
        {
          "name": "A5",
          "midi": 81,
          "time": 145.5,
          "velocity": 1,
          "duration": 0.5
        },
        {
          "name": "A5",
          "midi": 81,
          "time": 146,
          "velocity": 1,
          "duration": 0.5
        },
        {
          "name": "A5",
          "midi": 81,
          "time": 146.5,
          "velocity": 1,
          "duration": 0.5
        },
        {
          "name": "A5",
          "midi": 81,
          "time": 147,
          "velocity": 1,
          "duration": 0.5
        },
        {
          "name": "A5",
          "midi": 81,
          "time": 147.5,
          "velocity": 1,
          "duration": 0.5
        },
        {
          "name": "A5",
          "midi": 81,
          "time": 148,
          "velocity": 1,
          "duration": 0.5
        },
        {
          "name": "A5",
          "midi": 81,
          "time": 148.5,
          "velocity": 1,
          "duration": 0.5
        },
        {
          "name": "A5",
          "midi": 81,
          "time": 149,
          "velocity": 1,
          "duration": 0.5
        },
        {
          "name": "A5",
          "midi": 81,
          "time": 149.5,
          "velocity": 1,
          "duration": 0.5
        },
        {
          "name": "A5",
          "midi": 81,
          "time": 150,
          "velocity": 1,
          "duration": 0.5
        },
        {
          "name": "A5",
          "midi": 81,
          "time": 150.5,
          "velocity": 1,
          "duration": 0.5
        },
        {
          "name": "A5",
          "midi": 81,
          "time": 151,
          "velocity": 1,
          "duration": 0.5
        },
        {
          "name": "A5",
          "midi": 81,
          "time": 151.5,
          "velocity": 1,
          "duration": 0.5
        },
        {
          "name": "A5",
          "midi": 81,
          "time": 152,
          "velocity": 1,
          "duration": 0.5
        },
        {
          "name": "A5",
          "midi": 81,
          "time": 152.5,
          "velocity": 1,
          "duration": 0.5
        },
        {
          "name": "A5",
          "midi": 81,
          "time": 153,
          "velocity": 1,
          "duration": 0.5
        },
        {
          "name": "A5",
          "midi": 81,
          "time": 153.5,
          "velocity": 1,
          "duration": 0.5
        },
        {
          "name": "A5",
          "midi": 81,
          "time": 154,
          "velocity": 1,
          "duration": 0.5
        },
        {
          "name": "A5",
          "midi": 81,
          "time": 154.5,
          "velocity": 1,
          "duration": 0.5
        },
        {
          "name": "A5",
          "midi": 81,
          "time": 155,
          "velocity": 1,
          "duration": 0.5
        },
        {
          "name": "A5",
          "midi": 81,
          "time": 155.5,
          "velocity": 1,
          "duration": 0.5
        },
        {
          "name": "A5",
          "midi": 81,
          "time": 156,
          "velocity": 1,
          "duration": 0.5
        },
        {
          "name": "A5",
          "midi": 81,
          "time": 156.5,
          "velocity": 1,
          "duration": 0.5
        },
        {
          "name": "A5",
          "midi": 81,
          "time": 157,
          "velocity": 1,
          "duration": 0.5
        },
        {
          "name": "A5",
          "midi": 81,
          "time": 157.5,
          "velocity": 1,
          "duration": 0.5
        },
        {
          "name": "A5",
          "midi": 81,
          "time": 158,
          "velocity": 1,
          "duration": 0.5
        },
        {
          "name": "A5",
          "midi": 81,
          "time": 158.5,
          "velocity": 1,
          "duration": 0.5
        },
        {
          "name": "A5",
          "midi": 81,
          "time": 159,
          "velocity": 1,
          "duration": 0.5
        },
        {
          "name": "A5",
          "midi": 81,
          "time": 159.5,
          "velocity": 1,
          "duration": 0.5
        },
        {
          "name": "A5",
          "midi": 81,
          "time": 160,
          "velocity": 1,
          "duration": 0.5
        },
        {
          "name": "A5",
          "midi": 81,
          "time": 160.5,
          "velocity": 1,
          "duration": 0.5
        },
        {
          "name": "A5",
          "midi": 81,
          "time": 161,
          "velocity": 1,
          "duration": 0.5
        },
        {
          "name": "A5",
          "midi": 81,
          "time": 161.5,
          "velocity": 1,
          "duration": 0.5
        },
        {
          "name": "A5",
          "midi": 81,
          "time": 162,
          "velocity": 1,
          "duration": 0.5
        },
        {
          "name": "A5",
          "midi": 81,
          "time": 162.5,
          "velocity": 1,
          "duration": 0.5
        },
        {
          "name": "A5",
          "midi": 81,
          "time": 163,
          "velocity": 1,
          "duration": 0.5
        },
        {
          "name": "A5",
          "midi": 81,
          "time": 163.5,
          "velocity": 1,
          "duration": 0.5
        },
        {
          "name": "A5",
          "midi": 81,
          "time": 164,
          "velocity": 1,
          "duration": 0.5
        },
        {
          "name": "A5",
          "midi": 81,
          "time": 164.5,
          "velocity": 1,
          "duration": 0.5
        },
        {
          "name": "A5",
          "midi": 81,
          "time": 165,
          "velocity": 1,
          "duration": 0.5
        },
        {
          "name": "A5",
          "midi": 81,
          "time": 165.5,
          "velocity": 1,
          "duration": 0.5
        },
        {
          "name": "A5",
          "midi": 81,
          "time": 166,
          "velocity": 1,
          "duration": 0.5
        },
        {
          "name": "A5",
          "midi": 81,
          "time": 166.5,
          "velocity": 1,
          "duration": 0.5
        },
        {
          "name": "A5",
          "midi": 81,
          "time": 167,
          "velocity": 1,
          "duration": 0.5
        },
        {
          "name": "A5",
          "midi": 81,
          "time": 167.5,
          "velocity": 1,
          "duration": 0.5
        },
        {
          "name": "A5",
          "midi": 81,
          "time": 168,
          "velocity": 1,
          "duration": 0.5
        },
        {
          "name": "A5",
          "midi": 81,
          "time": 168.5,
          "velocity": 1,
          "duration": 0.5
        },
        {
          "name": "A5",
          "midi": 81,
          "time": 169,
          "velocity": 1,
          "duration": 0.5
        },
        {
          "name": "A5",
          "midi": 81,
          "time": 169.5,
          "velocity": 1,
          "duration": 0.5
        },
        {
          "name": "A5",
          "midi": 81,
          "time": 170,
          "velocity": 1,
          "duration": 0.5
        },
        {
          "name": "A5",
          "midi": 81,
          "time": 170.5,
          "velocity": 1,
          "duration": 0.5
        },
        {
          "name": "A5",
          "midi": 81,
          "time": 171,
          "velocity": 1,
          "duration": 0.5
        },
        {
          "name": "A5",
          "midi": 81,
          "time": 171.5,
          "velocity": 1,
          "duration": 0.5
        },
        {
          "name": "A5",
          "midi": 81,
          "time": 172,
          "velocity": 1,
          "duration": 0.5
        },
        {
          "name": "A5",
          "midi": 81,
          "time": 172.5,
          "velocity": 1,
          "duration": 0.5
        },
        {
          "name": "A5",
          "midi": 81,
          "time": 173,
          "velocity": 1,
          "duration": 0.5
        },
        {
          "name": "A5",
          "midi": 81,
          "time": 173.5,
          "velocity": 1,
          "duration": 0.5
        },
        {
          "name": "A5",
          "midi": 81,
          "time": 174,
          "velocity": 1,
          "duration": 0.5
        },
        {
          "name": "A5",
          "midi": 81,
          "time": 174.5,
          "velocity": 1,
          "duration": 0.5
        },
        {
          "name": "A5",
          "midi": 81,
          "time": 175,
          "velocity": 1,
          "duration": 0.5
        },
        {
          "name": "A5",
          "midi": 81,
          "time": 175.5,
          "velocity": 1,
          "duration": 0.5
        },
        {
          "name": "A5",
          "midi": 81,
          "time": 176,
          "velocity": 1,
          "duration": 0.5
        },
        {
          "name": "A5",
          "midi": 81,
          "time": 176.5,
          "velocity": 1,
          "duration": 0.5
        },
        {
          "name": "A5",
          "midi": 81,
          "time": 177,
          "velocity": 1,
          "duration": 0.5
        },
        {
          "name": "A5",
          "midi": 81,
          "time": 177.5,
          "velocity": 1,
          "duration": 0.5
        },
        {
          "name": "A5",
          "midi": 81,
          "time": 178,
          "velocity": 1,
          "duration": 0.5
        },
        {
          "name": "A5",
          "midi": 81,
          "time": 178.5,
          "velocity": 1,
          "duration": 0.5
        },
        {
          "name": "A5",
          "midi": 81,
          "time": 179,
          "velocity": 1,
          "duration": 0.5
        },
        {
          "name": "A5",
          "midi": 81,
          "time": 179.5,
          "velocity": 1,
          "duration": 0.5
        },
        {
          "name": "A5",
          "midi": 81,
          "time": 180,
          "velocity": 1,
          "duration": 0.5
        },
        {
          "name": "A5",
          "midi": 81,
          "time": 180.5,
          "velocity": 1,
          "duration": 0.5
        },
        {
          "name": "A5",
          "midi": 81,
          "time": 181,
          "velocity": 1,
          "duration": 0.5
        },
        {
          "name": "A5",
          "midi": 81,
          "time": 181.5,
          "velocity": 1,
          "duration": 0.5
        },
        {
          "name": "A5",
          "midi": 81,
          "time": 182,
          "velocity": 1,
          "duration": 0.5
        },
        {
          "name": "A5",
          "midi": 81,
          "time": 182.5,
          "velocity": 1,
          "duration": 0.5
        },
        {
          "name": "A5",
          "midi": 81,
          "time": 183,
          "velocity": 1,
          "duration": 0.5
        },
        {
          "name": "A5",
          "midi": 81,
          "time": 183.5,
          "velocity": 1,
          "duration": 0.5
        },
        {
          "name": "A5",
          "midi": 81,
          "time": 184,
          "velocity": 1,
          "duration": 0.5
        },
        {
          "name": "A5",
          "midi": 81,
          "time": 184.5,
          "velocity": 1,
          "duration": 0.5
        },
        {
          "name": "A5",
          "midi": 81,
          "time": 185,
          "velocity": 1,
          "duration": 0.5
        },
        {
          "name": "A5",
          "midi": 81,
          "time": 185.5,
          "velocity": 1,
          "duration": 0.5
        },
        {
          "name": "A5",
          "midi": 81,
          "time": 186,
          "velocity": 1,
          "duration": 0.5
        },
        {
          "name": "A5",
          "midi": 81,
          "time": 186.5,
          "velocity": 1,
          "duration": 0.5
        },
        {
          "name": "A5",
          "midi": 81,
          "time": 187,
          "velocity": 1,
          "duration": 0.5
        },
        {
          "name": "A5",
          "midi": 81,
          "time": 187.5,
          "velocity": 1,
          "duration": 0.5
        },
        {
          "name": "A5",
          "midi": 81,
          "time": 188,
          "velocity": 1,
          "duration": 0.5
        },
        {
          "name": "A5",
          "midi": 81,
          "time": 188.5,
          "velocity": 1,
          "duration": 0.5
        },
        {
          "name": "A5",
          "midi": 81,
          "time": 189,
          "velocity": 1,
          "duration": 0.5
        },
        {
          "name": "A5",
          "midi": 81,
          "time": 189.5,
          "velocity": 1,
          "duration": 0.5
        },
        {
          "name": "A5",
          "midi": 81,
          "time": 190,
          "velocity": 1,
          "duration": 0.5
        },
        {
          "name": "A5",
          "midi": 81,
          "time": 190.5,
          "velocity": 1,
          "duration": 0.5
        },
        {
          "name": "A5",
          "midi": 81,
          "time": 191,
          "velocity": 1,
          "duration": 0.5
        },
        {
          "name": "A5",
          "midi": 81,
          "time": 191.5,
          "velocity": 1,
          "duration": 0.5
        },
        {
          "name": "A5",
          "midi": 81,
          "time": 192,
          "velocity": 1,
          "duration": 0.5
        },
        {
          "name": "A5",
          "midi": 81,
          "time": 192.5,
          "velocity": 1,
          "duration": 0.5
        },
        {
          "name": "A5",
          "midi": 81,
          "time": 193,
          "velocity": 1,
          "duration": 0.5
        },
        {
          "name": "A5",
          "midi": 81,
          "time": 193.5,
          "velocity": 1,
          "duration": 0.5
        },
        {
          "name": "A5",
          "midi": 81,
          "time": 194,
          "velocity": 1,
          "duration": 0.5
        },
        {
          "name": "A5",
          "midi": 81,
          "time": 194.5,
          "velocity": 1,
          "duration": 0.5
        },
        {
          "name": "A5",
          "midi": 81,
          "time": 195,
          "velocity": 1,
          "duration": 0.5
        },
        {
          "name": "A5",
          "midi": 81,
          "time": 195.5,
          "velocity": 1,
          "duration": 0.5
        },
        {
          "name": "A5",
          "midi": 81,
          "time": 196,
          "velocity": 1,
          "duration": 0.5
        },
        {
          "name": "A5",
          "midi": 81,
          "time": 196.5,
          "velocity": 1,
          "duration": 0.5
        },
        {
          "name": "A5",
          "midi": 81,
          "time": 197,
          "velocity": 1,
          "duration": 0.5
        },
        {
          "name": "A5",
          "midi": 81,
          "time": 197.5,
          "velocity": 1,
          "duration": 0.5
        },
        {
          "name": "A5",
          "midi": 81,
          "time": 198,
          "velocity": 1,
          "duration": 0.5
        },
        {
          "name": "A5",
          "midi": 81,
          "time": 198.5,
          "velocity": 1,
          "duration": 0.5
        },
        {
          "name": "A5",
          "midi": 81,
          "time": 199,
          "velocity": 1,
          "duration": 0.5
        },
        {
          "name": "A5",
          "midi": 81,
          "time": 199.5,
          "velocity": 1,
          "duration": 0.5
        },
        {
          "name": "A5",
          "midi": 81,
          "time": 200,
          "velocity": 1,
          "duration": 0.5
        },
        {
          "name": "A5",
          "midi": 81,
          "time": 200.5,
          "velocity": 1,
          "duration": 0.5
        },
        {
          "name": "A5",
          "midi": 81,
          "time": 201,
          "velocity": 1,
          "duration": 0.5
        },
        {
          "name": "A5",
          "midi": 81,
          "time": 201.5,
          "velocity": 1,
          "duration": 0.5
        },
        {
          "name": "A5",
          "midi": 81,
          "time": 202,
          "velocity": 1,
          "duration": 0.5
        },
        {
          "name": "A5",
          "midi": 81,
          "time": 202.5,
          "velocity": 1,
          "duration": 0.5
        },
        {
          "name": "A5",
          "midi": 81,
          "time": 203,
          "velocity": 1,
          "duration": 0.5
        },
        {
          "name": "A5",
          "midi": 81,
          "time": 203.5,
          "velocity": 1,
          "duration": 0.5
        },
        {
          "name": "A5",
          "midi": 81,
          "time": 204,
          "velocity": 1,
          "duration": 0.5
        },
        {
          "name": "A5",
          "midi": 81,
          "time": 204.5,
          "velocity": 1,
          "duration": 0.5
        },
        {
          "name": "A5",
          "midi": 81,
          "time": 205,
          "velocity": 1,
          "duration": 0.5
        },
        {
          "name": "A5",
          "midi": 81,
          "time": 205.5,
          "velocity": 1,
          "duration": 0.5
        },
        {
          "name": "A5",
          "midi": 81,
          "time": 206,
          "velocity": 1,
          "duration": 0.5
        },
        {
          "name": "A5",
          "midi": 81,
          "time": 206.5,
          "velocity": 1,
          "duration": 0.5
        },
        {
          "name": "A5",
          "midi": 81,
          "time": 207,
          "velocity": 1,
          "duration": 0.5
        },
        {
          "name": "A5",
          "midi": 81,
          "time": 207.5,
          "velocity": 1,
          "duration": 0.5
        },
        {
          "name": "A5",
          "midi": 81,
          "time": 208,
          "velocity": 1,
          "duration": 0.5
        },
        {
          "name": "A5",
          "midi": 81,
          "time": 208.5,
          "velocity": 1,
          "duration": 0.5
        },
        {
          "name": "A5",
          "midi": 81,
          "time": 209,
          "velocity": 1,
          "duration": 0.5
        },
        {
          "name": "A5",
          "midi": 81,
          "time": 209.5,
          "velocity": 1,
          "duration": 0.5
        },
        {
          "name": "A5",
          "midi": 81,
          "time": 210,
          "velocity": 1,
          "duration": 0.5
        },
        {
          "name": "A5",
          "midi": 81,
          "time": 210.5,
          "velocity": 1,
          "duration": 0.5
        },
        {
          "name": "A5",
          "midi": 81,
          "time": 211,
          "velocity": 1,
          "duration": 0.5
        },
        {
          "name": "A5",
          "midi": 81,
          "time": 211.5,
          "velocity": 1,
          "duration": 0.5
        },
        {
          "name": "A5",
          "midi": 81,
          "time": 212,
          "velocity": 1,
          "duration": 0.5
        },
        {
          "name": "A5",
          "midi": 81,
          "time": 212.5,
          "velocity": 1,
          "duration": 0.5
        },
        {
          "name": "A5",
          "midi": 81,
          "time": 213,
          "velocity": 1,
          "duration": 0.5
        },
        {
          "name": "A5",
          "midi": 81,
          "time": 213.5,
          "velocity": 1,
          "duration": 0.5
        },
        {
          "name": "A5",
          "midi": 81,
          "time": 214,
          "velocity": 1,
          "duration": 0.5
        },
        {
          "name": "A5",
          "midi": 81,
          "time": 214.5,
          "velocity": 1,
          "duration": 0.5
        },
        {
          "name": "A5",
          "midi": 81,
          "time": 215,
          "velocity": 1,
          "duration": 0.5
        },
        {
          "name": "A5",
          "midi": 81,
          "time": 215.5,
          "velocity": 1,
          "duration": 0.5
        },
        {
          "name": "A5",
          "midi": 81,
          "time": 216,
          "velocity": 1,
          "duration": 0.5
        },
        {
          "name": "A5",
          "midi": 81,
          "time": 216.5,
          "velocity": 1,
          "duration": 0.5
        },
        {
          "name": "A5",
          "midi": 81,
          "time": 217,
          "velocity": 1,
          "duration": 0.5
        },
        {
          "name": "A5",
          "midi": 81,
          "time": 217.5,
          "velocity": 1,
          "duration": 0.5
        },
        {
          "name": "A5",
          "midi": 81,
          "time": 218,
          "velocity": 1,
          "duration": 0.5
        },
        {
          "name": "A5",
          "midi": 81,
          "time": 218.5,
          "velocity": 1,
          "duration": 0.5
        },
        {
          "name": "A5",
          "midi": 81,
          "time": 219,
          "velocity": 1,
          "duration": 0.5
        },
        {
          "name": "A5",
          "midi": 81,
          "time": 219.5,
          "velocity": 1,
          "duration": 0.5
        },
        {
          "name": "A5",
          "midi": 81,
          "time": 220,
          "velocity": 1,
          "duration": 0.5
        },
        {
          "name": "A5",
          "midi": 81,
          "time": 220.5,
          "velocity": 1,
          "duration": 0.5
        },
        {
          "name": "A5",
          "midi": 81,
          "time": 221,
          "velocity": 1,
          "duration": 0.5
        },
        {
          "name": "A5",
          "midi": 81,
          "time": 221.5,
          "velocity": 1,
          "duration": 0.5
        },
        {
          "name": "A5",
          "midi": 81,
          "time": 222,
          "velocity": 1,
          "duration": 0.5
        },
        {
          "name": "A5",
          "midi": 81,
          "time": 222.5,
          "velocity": 1,
          "duration": 0.5
        },
        {
          "name": "A5",
          "midi": 81,
          "time": 223,
          "velocity": 1,
          "duration": 0.5
        },
        {
          "name": "A5",
          "midi": 81,
          "time": 223.5,
          "velocity": 1,
          "duration": 0.5
        },
        {
          "name": "A5",
          "midi": 81,
          "time": 224,
          "velocity": 1,
          "duration": 0.5
        },
        {
          "name": "A5",
          "midi": 81,
          "time": 224.5,
          "velocity": 1,
          "duration": 0.5
        },
        {
          "name": "A5",
          "midi": 81,
          "time": 225,
          "velocity": 1,
          "duration": 0.5
        },
        {
          "name": "A5",
          "midi": 81,
          "time": 225.5,
          "velocity": 1,
          "duration": 0.5
        },
        {
          "name": "A5",
          "midi": 81,
          "time": 226,
          "velocity": 1,
          "duration": 0.5
        },
        {
          "name": "A5",
          "midi": 81,
          "time": 226.5,
          "velocity": 1,
          "duration": 0.5
        },
        {
          "name": "A5",
          "midi": 81,
          "time": 227,
          "velocity": 1,
          "duration": 0.5
        },
        {
          "name": "A5",
          "midi": 81,
          "time": 227.5,
          "velocity": 1,
          "duration": 0.5
        },
        {
          "name": "A5",
          "midi": 81,
          "time": 228,
          "velocity": 1,
          "duration": 0.5
        },
        {
          "name": "A5",
          "midi": 81,
          "time": 228.5,
          "velocity": 1,
          "duration": 0.5
        },
        {
          "name": "A5",
          "midi": 81,
          "time": 229,
          "velocity": 1,
          "duration": 0.5
        },
        {
          "name": "A5",
          "midi": 81,
          "time": 229.5,
          "velocity": 1,
          "duration": 0.5
        },
        {
          "name": "A5",
          "midi": 81,
          "time": 230,
          "velocity": 1,
          "duration": 0.5
        },
        {
          "name": "A5",
          "midi": 81,
          "time": 230.5,
          "velocity": 1,
          "duration": 0.5
        },
        {
          "name": "A5",
          "midi": 81,
          "time": 231,
          "velocity": 1,
          "duration": 0.5
        },
        {
          "name": "A5",
          "midi": 81,
          "time": 231.5,
          "velocity": 1,
          "duration": 0.5
        },
        {
          "name": "A5",
          "midi": 81,
          "time": 232,
          "velocity": 1,
          "duration": 0.5
        },
        {
          "name": "A5",
          "midi": 81,
          "time": 232.5,
          "velocity": 1,
          "duration": 0.5
        },
        {
          "name": "A5",
          "midi": 81,
          "time": 233,
          "velocity": 1,
          "duration": 0.5
        },
        {
          "name": "A5",
          "midi": 81,
          "time": 233.5,
          "velocity": 1,
          "duration": 0.5
        },
        {
          "name": "A5",
          "midi": 81,
          "time": 234,
          "velocity": 1,
          "duration": 0.5
        },
        {
          "name": "A5",
          "midi": 81,
          "time": 234.5,
          "velocity": 1,
          "duration": 0.5
        },
        {
          "name": "A5",
          "midi": 81,
          "time": 235,
          "velocity": 1,
          "duration": 0.5
        },
        {
          "name": "A5",
          "midi": 81,
          "time": 235.5,
          "velocity": 1,
          "duration": 0.5
        },
        {
          "name": "A5",
          "midi": 81,
          "time": 236,
          "velocity": 1,
          "duration": 0.5
        },
        {
          "name": "A5",
          "midi": 81,
          "time": 236.5,
          "velocity": 1,
          "duration": 0.5
        },
        {
          "name": "A5",
          "midi": 81,
          "time": 237,
          "velocity": 1,
          "duration": 0.5
        },
        {
          "name": "A5",
          "midi": 81,
          "time": 237.5,
          "velocity": 1,
          "duration": 0.5
        },
        {
          "name": "A5",
          "midi": 81,
          "time": 238,
          "velocity": 1,
          "duration": 0.5
        },
        {
          "name": "A5",
          "midi": 81,
          "time": 238.5,
          "velocity": 1,
          "duration": 0.5
        },
        {
          "name": "A5",
          "midi": 81,
          "time": 239,
          "velocity": 1,
          "duration": 0.5
        },
        {
          "name": "A5",
          "midi": 81,
          "time": 239.5,
          "velocity": 1,
          "duration": 0.5
        },
        {
          "name": "A5",
          "midi": 81,
          "time": 240,
          "velocity": 1,
          "duration": 0.5
        },
        {
          "name": "A5",
          "midi": 81,
          "time": 240.5,
          "velocity": 1,
          "duration": 0.5
        },
        {
          "name": "A5",
          "midi": 81,
          "time": 241,
          "velocity": 1,
          "duration": 0.5
        },
        {
          "name": "A5",
          "midi": 81,
          "time": 241.5,
          "velocity": 1,
          "duration": 0.5
        },
        {
          "name": "A5",
          "midi": 81,
          "time": 242,
          "velocity": 1,
          "duration": 0.5
        },
        {
          "name": "A5",
          "midi": 81,
          "time": 242.5,
          "velocity": 1,
          "duration": 0.5
        },
        {
          "name": "A5",
          "midi": 81,
          "time": 243,
          "velocity": 1,
          "duration": 0.5
        },
        {
          "name": "A5",
          "midi": 81,
          "time": 243.5,
          "velocity": 1,
          "duration": 0.5
        },
        {
          "name": "A5",
          "midi": 81,
          "time": 244,
          "velocity": 1,
          "duration": 0.5
        },
        {
          "name": "A5",
          "midi": 81,
          "time": 244.5,
          "velocity": 1,
          "duration": 0.5
        },
        {
          "name": "A5",
          "midi": 81,
          "time": 245,
          "velocity": 1,
          "duration": 0.5
        },
        {
          "name": "A5",
          "midi": 81,
          "time": 245.5,
          "velocity": 1,
          "duration": 0.5
        },
        {
          "name": "A5",
          "midi": 81,
          "time": 246,
          "velocity": 1,
          "duration": 0.5
        },
        {
          "name": "A5",
          "midi": 81,
          "time": 246.5,
          "velocity": 1,
          "duration": 0.5
        },
        {
          "name": "A5",
          "midi": 81,
          "time": 247,
          "velocity": 1,
          "duration": 0.5
        },
        {
          "name": "A5",
          "midi": 81,
          "time": 247.5,
          "velocity": 1,
          "duration": 0.5
        },
        {
          "name": "A5",
          "midi": 81,
          "time": 248,
          "velocity": 1,
          "duration": 0.5
        },
        {
          "name": "A5",
          "midi": 81,
          "time": 248.5,
          "velocity": 1,
          "duration": 0.5
        },
        {
          "name": "A5",
          "midi": 81,
          "time": 249,
          "velocity": 1,
          "duration": 0.5
        },
        {
          "name": "A5",
          "midi": 81,
          "time": 249.5,
          "velocity": 1,
          "duration": 0.5
        },
        {
          "name": "A5",
          "midi": 81,
          "time": 250,
          "velocity": 1,
          "duration": 0.5
        },
        {
          "name": "A5",
          "midi": 81,
          "time": 250.5,
          "velocity": 1,
          "duration": 0.5
        },
        {
          "name": "A5",
          "midi": 81,
          "time": 251,
          "velocity": 1,
          "duration": 0.5
        },
        {
          "name": "A5",
          "midi": 81,
          "time": 251.5,
          "velocity": 1,
          "duration": 0.5
        },
        {
          "name": "A5",
          "midi": 81,
          "time": 252,
          "velocity": 1,
          "duration": 0.5
        },
        {
          "name": "A5",
          "midi": 81,
          "time": 252.5,
          "velocity": 1,
          "duration": 0.5
        },
        {
          "name": "A5",
          "midi": 81,
          "time": 253,
          "velocity": 1,
          "duration": 0.5
        },
        {
          "name": "A5",
          "midi": 81,
          "time": 253.5,
          "velocity": 1,
          "duration": 0.5
        },
        {
          "name": "A5",
          "midi": 81,
          "time": 254,
          "velocity": 1,
          "duration": 0.5
        },
        {
          "name": "A5",
          "midi": 81,
          "time": 254.5,
          "velocity": 1,
          "duration": 0.5
        },
        {
          "name": "A5",
          "midi": 81,
          "time": 255,
          "velocity": 1,
          "duration": 0.5
        },
        {
          "name": "A5",
          "midi": 81,
          "time": 255.5,
          "velocity": 1,
          "duration": 0.5
        },
        {
          "name": "A5",
          "midi": 81,
          "time": 256,
          "velocity": 1,
          "duration": 0.5
        },
        {
          "name": "A5",
          "midi": 81,
          "time": 256.5,
          "velocity": 1,
          "duration": 0.5
        },
        {
          "name": "A5",
          "midi": 81,
          "time": 257,
          "velocity": 1,
          "duration": 0.5
        },
        {
          "name": "A5",
          "midi": 81,
          "time": 257.5,
          "velocity": 1,
          "duration": 0.5
        },
        {
          "name": "A5",
          "midi": 81,
          "time": 258,
          "velocity": 1,
          "duration": 0.5
        },
        {
          "name": "A5",
          "midi": 81,
          "time": 258.5,
          "velocity": 1,
          "duration": 0.5
        },
        {
          "name": "A5",
          "midi": 81,
          "time": 259,
          "velocity": 1,
          "duration": 0.5
        },
        {
          "name": "A5",
          "midi": 81,
          "time": 259.5,
          "velocity": 1,
          "duration": 0.5
        },
        {
          "name": "A5",
          "midi": 81,
          "time": 260,
          "velocity": 1,
          "duration": 0.5
        },
        {
          "name": "A5",
          "midi": 81,
          "time": 260.5,
          "velocity": 1,
          "duration": 0.5
        },
        {
          "name": "A5",
          "midi": 81,
          "time": 261,
          "velocity": 1,
          "duration": 0.5
        },
        {
          "name": "A5",
          "midi": 81,
          "time": 261.5,
          "velocity": 1,
          "duration": 0.5
        },
        {
          "name": "A5",
          "midi": 81,
          "time": 262,
          "velocity": 1,
          "duration": 0.5
        },
        {
          "name": "A5",
          "midi": 81,
          "time": 262.5,
          "velocity": 1,
          "duration": 0.5
        },
        {
          "name": "A5",
          "midi": 81,
          "time": 263,
          "velocity": 1,
          "duration": 0.5
        },
        {
          "name": "A5",
          "midi": 81,
          "time": 263.5,
          "velocity": 1,
          "duration": 0.5
        },
        {
          "name": "A5",
          "midi": 81,
          "time": 264,
          "velocity": 1,
          "duration": 0.5
        },
        {
          "name": "A5",
          "midi": 81,
          "time": 264.5,
          "velocity": 1,
          "duration": 0.5
        },
        {
          "name": "A5",
          "midi": 81,
          "time": 265,
          "velocity": 1,
          "duration": 0.5
        },
        {
          "name": "A5",
          "midi": 81,
          "time": 265.5,
          "velocity": 1,
          "duration": 0.5
        },
        {
          "name": "A5",
          "midi": 81,
          "time": 266,
          "velocity": 1,
          "duration": 0.5
        },
        {
          "name": "A5",
          "midi": 81,
          "time": 266.5,
          "velocity": 1,
          "duration": 0.5
        },
        {
          "name": "A5",
          "midi": 81,
          "time": 267,
          "velocity": 1,
          "duration": 0.5
        },
        {
          "name": "A5",
          "midi": 81,
          "time": 267.5,
          "velocity": 1,
          "duration": 0.5
        },
        {
          "name": "A5",
          "midi": 81,
          "time": 268,
          "velocity": 1,
          "duration": 0.5
        },
        {
          "name": "A5",
          "midi": 81,
          "time": 268.5,
          "velocity": 1,
          "duration": 0.5
        },
        {
          "name": "A5",
          "midi": 81,
          "time": 269,
          "velocity": 1,
          "duration": 0.5
        },
        {
          "name": "A5",
          "midi": 81,
          "time": 269.5,
          "velocity": 1,
          "duration": 0.5
        },
        {
          "name": "A5",
          "midi": 81,
          "time": 270,
          "velocity": 1,
          "duration": 0.5
        },
        {
          "name": "A5",
          "midi": 81,
          "time": 270.5,
          "velocity": 1,
          "duration": 0.5
        },
        {
          "name": "A5",
          "midi": 81,
          "time": 271,
          "velocity": 1,
          "duration": 0.5
        },
        {
          "name": "A5",
          "midi": 81,
          "time": 271.5,
          "velocity": 1,
          "duration": 0.5
        },
        {
          "name": "A5",
          "midi": 81,
          "time": 272,
          "velocity": 1,
          "duration": 0.5
        },
        {
          "name": "A5",
          "midi": 81,
          "time": 272.5,
          "velocity": 1,
          "duration": 0.5
        },
        {
          "name": "A5",
          "midi": 81,
          "time": 273,
          "velocity": 1,
          "duration": 0.5
        },
        {
          "name": "A5",
          "midi": 81,
          "time": 273.5,
          "velocity": 1,
          "duration": 0.5
        },
        {
          "name": "A5",
          "midi": 81,
          "time": 274,
          "velocity": 1,
          "duration": 0.5
        },
        {
          "name": "A5",
          "midi": 81,
          "time": 274.5,
          "velocity": 1,
          "duration": 0.5
        },
        {
          "name": "A5",
          "midi": 81,
          "time": 275,
          "velocity": 1,
          "duration": 0.5
        },
        {
          "name": "A5",
          "midi": 81,
          "time": 275.5,
          "velocity": 1,
          "duration": 0.5
        },
        {
          "name": "A5",
          "midi": 81,
          "time": 276,
          "velocity": 1,
          "duration": 0.5
        },
        {
          "name": "A5",
          "midi": 81,
          "time": 276.5,
          "velocity": 1,
          "duration": 0.5
        },
        {
          "name": "A5",
          "midi": 81,
          "time": 277,
          "velocity": 1,
          "duration": 0.5
        },
        {
          "name": "A5",
          "midi": 81,
          "time": 277.5,
          "velocity": 1,
          "duration": 0.5
        },
        {
          "name": "A5",
          "midi": 81,
          "time": 278,
          "velocity": 1,
          "duration": 0.5
        },
        {
          "name": "A5",
          "midi": 81,
          "time": 278.5,
          "velocity": 1,
          "duration": 0.5
        },
        {
          "name": "A5",
          "midi": 81,
          "time": 279,
          "velocity": 1,
          "duration": 0.5
        },
        {
          "name": "A5",
          "midi": 81,
          "time": 279.5,
          "velocity": 1,
          "duration": 0.5
        },
        {
          "name": "A5",
          "midi": 81,
          "time": 280,
          "velocity": 1,
          "duration": 0.5
        },
        {
          "name": "A5",
          "midi": 81,
          "time": 280.5,
          "velocity": 1,
          "duration": 0.5
        },
        {
          "name": "A5",
          "midi": 81,
          "time": 281,
          "velocity": 1,
          "duration": 0.5
        },
        {
          "name": "A5",
          "midi": 81,
          "time": 281.5,
          "velocity": 1,
          "duration": 0.5
        },
        {
          "name": "A5",
          "midi": 81,
          "time": 282,
          "velocity": 1,
          "duration": 0.5
        },
        {
          "name": "A5",
          "midi": 81,
          "time": 282.5,
          "velocity": 1,
          "duration": 0.5
        },
        {
          "name": "A5",
          "midi": 81,
          "time": 283,
          "velocity": 1,
          "duration": 0.5
        },
        {
          "name": "A5",
          "midi": 81,
          "time": 283.5,
          "velocity": 1,
          "duration": 0.5
        },
        {
          "name": "A5",
          "midi": 81,
          "time": 284,
          "velocity": 1,
          "duration": 0.5
        },
        {
          "name": "A5",
          "midi": 81,
          "time": 284.5,
          "velocity": 1,
          "duration": 0.5
        },
        {
          "name": "A5",
          "midi": 81,
          "time": 285,
          "velocity": 1,
          "duration": 0.5
        },
        {
          "name": "A5",
          "midi": 81,
          "time": 285.5,
          "velocity": 1,
          "duration": 0.5
        },
        {
          "name": "A5",
          "midi": 81,
          "time": 286,
          "velocity": 1,
          "duration": 0.5
        },
        {
          "name": "A5",
          "midi": 81,
          "time": 286.5,
          "velocity": 1,
          "duration": 0.5
        },
        {
          "name": "A5",
          "midi": 81,
          "time": 287,
          "velocity": 1,
          "duration": 0.5
        },
        {
          "name": "A5",
          "midi": 81,
          "time": 287.5,
          "velocity": 1,
          "duration": 0.5
        },
        {
          "name": "A5",
          "midi": 81,
          "time": 288,
          "velocity": 1,
          "duration": 0.5
        },
        {
          "name": "A5",
          "midi": 81,
          "time": 288.5,
          "velocity": 1,
          "duration": 0.5
        },
        {
          "name": "A5",
          "midi": 81,
          "time": 289,
          "velocity": 1,
          "duration": 0.5
        },
        {
          "name": "A5",
          "midi": 81,
          "time": 289.5,
          "velocity": 1,
          "duration": 0.5
        },
        {
          "name": "A5",
          "midi": 81,
          "time": 290,
          "velocity": 1,
          "duration": 0.5
        },
        {
          "name": "A5",
          "midi": 81,
          "time": 290.5,
          "velocity": 1,
          "duration": 0.5
        },
        {
          "name": "A5",
          "midi": 81,
          "time": 291,
          "velocity": 1,
          "duration": 0.5
        },
        {
          "name": "A5",
          "midi": 81,
          "time": 291.5,
          "velocity": 1,
          "duration": 0.5
        },
        {
          "name": "A5",
          "midi": 81,
          "time": 292,
          "velocity": 1,
          "duration": 0.5
        },
        {
          "name": "A5",
          "midi": 81,
          "time": 292.5,
          "velocity": 1,
          "duration": 0.5
        },
        {
          "name": "A5",
          "midi": 81,
          "time": 293,
          "velocity": 1,
          "duration": 0.5
        },
        {
          "name": "A5",
          "midi": 81,
          "time": 293.5,
          "velocity": 1,
          "duration": 0.5
        },
        {
          "name": "A5",
          "midi": 81,
          "time": 294,
          "velocity": 1,
          "duration": 0.5
        },
        {
          "name": "A5",
          "midi": 81,
          "time": 294.5,
          "velocity": 1,
          "duration": 0.5
        },
        {
          "name": "A5",
          "midi": 81,
          "time": 295,
          "velocity": 1,
          "duration": 0.5
        },
        {
          "name": "A5",
          "midi": 81,
          "time": 295.5,
          "velocity": 1,
          "duration": 0.5
        },
        {
          "name": "A5",
          "midi": 81,
          "time": 296,
          "velocity": 1,
          "duration": 0.5
        },
        {
          "name": "A5",
          "midi": 81,
          "time": 296.5,
          "velocity": 1,
          "duration": 0.5
        },
        {
          "name": "A5",
          "midi": 81,
          "time": 297,
          "velocity": 1,
          "duration": 0.5
        },
        {
          "name": "A5",
          "midi": 81,
          "time": 297.5,
          "velocity": 1,
          "duration": 0.5
        },
        {
          "name": "A5",
          "midi": 81,
          "time": 298,
          "velocity": 1,
          "duration": 0.5
        },
        {
          "name": "A5",
          "midi": 81,
          "time": 298.5,
          "velocity": 1,
          "duration": 0.5
        },
        {
          "name": "A5",
          "midi": 81,
          "time": 299,
          "velocity": 1,
          "duration": 0.5
        },
        {
          "name": "A5",
          "midi": 81,
          "time": 299.5,
          "velocity": 1,
          "duration": 0.5
        },
        {
          "name": "A5",
          "midi": 81,
          "time": 300,
          "velocity": 1,
          "duration": 0.5
        },
        {
          "name": "A5",
          "midi": 81,
          "time": 300.5,
          "velocity": 1,
          "duration": 0.5
        },
        {
          "name": "A5",
          "midi": 81,
          "time": 301,
          "velocity": 1,
          "duration": 0.5
        },
        {
          "name": "A5",
          "midi": 81,
          "time": 301.5,
          "velocity": 1,
          "duration": 0.5
        },
        {
          "name": "A5",
          "midi": 81,
          "time": 302,
          "velocity": 1,
          "duration": 0.5
        },
        {
          "name": "A5",
          "midi": 81,
          "time": 302.5,
          "velocity": 1,
          "duration": 0.5
        },
        {
          "name": "A5",
          "midi": 81,
          "time": 303,
          "velocity": 1,
          "duration": 0.5
        },
        {
          "name": "A5",
          "midi": 81,
          "time": 303.5,
          "velocity": 1,
          "duration": 0.5
        },
        {
          "name": "A5",
          "midi": 81,
          "time": 304,
          "velocity": 1,
          "duration": 0.5
        },
        {
          "name": "A5",
          "midi": 81,
          "time": 304.5,
          "velocity": 1,
          "duration": 0.5
        },
        {
          "name": "A5",
          "midi": 81,
          "time": 305,
          "velocity": 1,
          "duration": 0.5
        },
        {
          "name": "A5",
          "midi": 81,
          "time": 305.5,
          "velocity": 1,
          "duration": 0.5
        },
        {
          "name": "A5",
          "midi": 81,
          "time": 306,
          "velocity": 1,
          "duration": 0.5
        },
        {
          "name": "A5",
          "midi": 81,
          "time": 306.5,
          "velocity": 1,
          "duration": 0.5
        },
        {
          "name": "A5",
          "midi": 81,
          "time": 307,
          "velocity": 1,
          "duration": 0.5
        },
        {
          "name": "A5",
          "midi": 81,
          "time": 307.5,
          "velocity": 1,
          "duration": 0.5
        },
        {
          "name": "A5",
          "midi": 81,
          "time": 308,
          "velocity": 1,
          "duration": 0.5
        },
        {
          "name": "A5",
          "midi": 81,
          "time": 308.5,
          "velocity": 1,
          "duration": 0.5
        },
        {
          "name": "A5",
          "midi": 81,
          "time": 309,
          "velocity": 1,
          "duration": 0.5
        },
        {
          "name": "A5",
          "midi": 81,
          "time": 309.5,
          "velocity": 1,
          "duration": 0.5
        },
        {
          "name": "A5",
          "midi": 81,
          "time": 310,
          "velocity": 1,
          "duration": 0.5
        },
        {
          "name": "A5",
          "midi": 81,
          "time": 310.5,
          "velocity": 1,
          "duration": 0.5
        },
        {
          "name": "A5",
          "midi": 81,
          "time": 311,
          "velocity": 1,
          "duration": 0.5
        },
        {
          "name": "A5",
          "midi": 81,
          "time": 311.5,
          "velocity": 1,
          "duration": 0.5
        },
        {
          "name": "A5",
          "midi": 81,
          "time": 312,
          "velocity": 1,
          "duration": 0.5
        },
        {
          "name": "A5",
          "midi": 81,
          "time": 312.5,
          "velocity": 1,
          "duration": 0.5
        },
        {
          "name": "A5",
          "midi": 81,
          "time": 313,
          "velocity": 1,
          "duration": 0.5
        },
        {
          "name": "A5",
          "midi": 81,
          "time": 313.5,
          "velocity": 1,
          "duration": 0.5
        },
        {
          "name": "A5",
          "midi": 81,
          "time": 314,
          "velocity": 1,
          "duration": 0.5
        },
        {
          "name": "A5",
          "midi": 81,
          "time": 314.5,
          "velocity": 1,
          "duration": 0.5
        },
        {
          "name": "A5",
          "midi": 81,
          "time": 315,
          "velocity": 1,
          "duration": 0.5
        },
        {
          "name": "A5",
          "midi": 81,
          "time": 315.5,
          "velocity": 1,
          "duration": 0.5
        },
        {
          "name": "A5",
          "midi": 81,
          "time": 316,
          "velocity": 1,
          "duration": 0.5
        },
        {
          "name": "A5",
          "midi": 81,
          "time": 316.5,
          "velocity": 1,
          "duration": 0.5
        },
        {
          "name": "A5",
          "midi": 81,
          "time": 317,
          "velocity": 1,
          "duration": 0.5
        },
        {
          "name": "A5",
          "midi": 81,
          "time": 317.5,
          "velocity": 1,
          "duration": 0.5
        },
        {
          "name": "A5",
          "midi": 81,
          "time": 318,
          "velocity": 1,
          "duration": 0.5
        },
        {
          "name": "A5",
          "midi": 81,
          "time": 318.5,
          "velocity": 1,
          "duration": 0.5
        },
        {
          "name": "A5",
          "midi": 81,
          "time": 319,
          "velocity": 1,
          "duration": 0.5
        },
        {
          "name": "A5",
          "midi": 81,
          "time": 319.5,
          "velocity": 1,
          "duration": 0.5
        },
        {
          "name": "A5",
          "midi": 81,
          "time": 320,
          "velocity": 1,
          "duration": 0.5
        },
        {
          "name": "A5",
          "midi": 81,
          "time": 320.5,
          "velocity": 1,
          "duration": 0.5
        },
        {
          "name": "A5",
          "midi": 81,
          "time": 321,
          "velocity": 1,
          "duration": 0.5
        },
        {
          "name": "A5",
          "midi": 81,
          "time": 321.5,
          "velocity": 1,
          "duration": 0.5
        },
        {
          "name": "A5",
          "midi": 81,
          "time": 322,
          "velocity": 1,
          "duration": 0.5
        },
        {
          "name": "A5",
          "midi": 81,
          "time": 322.5,
          "velocity": 1,
          "duration": 0.5
        },
        {
          "name": "A5",
          "midi": 81,
          "time": 323,
          "velocity": 1,
          "duration": 0.5
        },
        {
          "name": "A5",
          "midi": 81,
          "time": 323.5,
          "velocity": 1,
          "duration": 0.5
        },
        {
          "name": "A5",
          "midi": 81,
          "time": 324,
          "velocity": 1,
          "duration": 0.5
        },
        {
          "name": "A5",
          "midi": 81,
          "time": 324.5,
          "velocity": 1,
          "duration": 0.5
        },
        {
          "name": "A5",
          "midi": 81,
          "time": 325,
          "velocity": 1,
          "duration": 0.5
        },
        {
          "name": "A5",
          "midi": 81,
          "time": 325.5,
          "velocity": 1,
          "duration": 0.5
        },
        {
          "name": "A5",
          "midi": 81,
          "time": 326,
          "velocity": 1,
          "duration": 0.5
        },
        {
          "name": "A5",
          "midi": 81,
          "time": 326.5,
          "velocity": 1,
          "duration": 0.5
        },
        {
          "name": "A5",
          "midi": 81,
          "time": 327,
          "velocity": 1,
          "duration": 0.5
        },
        {
          "name": "A5",
          "midi": 81,
          "time": 327.5,
          "velocity": 1,
          "duration": 0.5
        },
        {
          "name": "A5",
          "midi": 81,
          "time": 328,
          "velocity": 1,
          "duration": 0.5
        },
        {
          "name": "A5",
          "midi": 81,
          "time": 328.5,
          "velocity": 1,
          "duration": 0.5
        },
        {
          "name": "A5",
          "midi": 81,
          "time": 329,
          "velocity": 1,
          "duration": 0.5
        },
        {
          "name": "A5",
          "midi": 81,
          "time": 329.5,
          "velocity": 1,
          "duration": 0.5
        },
        {
          "name": "A5",
          "midi": 81,
          "time": 330,
          "velocity": 1,
          "duration": 0.5
        },
        {
          "name": "A5",
          "midi": 81,
          "time": 330.5,
          "velocity": 1,
          "duration": 0.5
        },
        {
          "name": "A5",
          "midi": 81,
          "time": 331,
          "velocity": 1,
          "duration": 0.5
        },
        {
          "name": "A5",
          "midi": 81,
          "time": 331.5,
          "velocity": 1,
          "duration": 0.5
        },
        {
          "name": "A5",
          "midi": 81,
          "time": 332,
          "velocity": 1,
          "duration": 0.5
        },
        {
          "name": "A5",
          "midi": 81,
          "time": 332.5,
          "velocity": 1,
          "duration": 0.5
        },
        {
          "name": "A5",
          "midi": 81,
          "time": 333,
          "velocity": 1,
          "duration": 0.5
        },
        {
          "name": "A5",
          "midi": 81,
          "time": 333.5,
          "velocity": 1,
          "duration": 0.5
        },
        {
          "name": "A5",
          "midi": 81,
          "time": 334,
          "velocity": 1,
          "duration": 0.5
        },
        {
          "name": "A5",
          "midi": 81,
          "time": 334.5,
          "velocity": 1,
          "duration": 0.5
        },
        {
          "name": "A5",
          "midi": 81,
          "time": 335,
          "velocity": 1,
          "duration": 0.5
        },
        {
          "name": "A5",
          "midi": 81,
          "time": 335.5,
          "velocity": 1,
          "duration": 0.5
        },
        {
          "name": "A5",
          "midi": 81,
          "time": 336,
          "velocity": 1,
          "duration": 0.5
        },
        {
          "name": "A5",
          "midi": 81,
          "time": 336.5,
          "velocity": 1,
          "duration": 0.5
        },
        {
          "name": "A5",
          "midi": 81,
          "time": 337,
          "velocity": 1,
          "duration": 0.5
        },
        {
          "name": "A5",
          "midi": 81,
          "time": 337.5,
          "velocity": 1,
          "duration": 0.5
        },
        {
          "name": "A5",
          "midi": 81,
          "time": 338,
          "velocity": 1,
          "duration": 0.5
        },
        {
          "name": "A5",
          "midi": 81,
          "time": 338.5,
          "velocity": 1,
          "duration": 0.5
        },
        {
          "name": "A5",
          "midi": 81,
          "time": 339,
          "velocity": 1,
          "duration": 0.5
        },
        {
          "name": "A5",
          "midi": 81,
          "time": 339.5,
          "velocity": 1,
          "duration": 0.5
        },
        {
          "name": "A5",
          "midi": 81,
          "time": 340,
          "velocity": 1,
          "duration": 0.5
        },
        {
          "name": "A5",
          "midi": 81,
          "time": 340.5,
          "velocity": 1,
          "duration": 0.5
        },
        {
          "name": "A5",
          "midi": 81,
          "time": 341,
          "velocity": 1,
          "duration": 0.5
        },
        {
          "name": "A5",
          "midi": 81,
          "time": 341.5,
          "velocity": 1,
          "duration": 0.5
        },
        {
          "name": "A5",
          "midi": 81,
          "time": 342,
          "velocity": 1,
          "duration": 0.5
        },
        {
          "name": "A5",
          "midi": 81,
          "time": 342.5,
          "velocity": 1,
          "duration": 0.5
        },
        {
          "name": "A5",
          "midi": 81,
          "time": 343,
          "velocity": 1,
          "duration": 0.5
        },
        {
          "name": "A5",
          "midi": 81,
          "time": 343.5,
          "velocity": 1,
          "duration": 0.5
        },
        {
          "name": "A5",
          "midi": 81,
          "time": 344,
          "velocity": 1,
          "duration": 0.5
        },
        {
          "name": "A5",
          "midi": 81,
          "time": 344.5,
          "velocity": 1,
          "duration": 0.5
        },
        {
          "name": "A5",
          "midi": 81,
          "time": 345,
          "velocity": 1,
          "duration": 0.5
        },
        {
          "name": "A5",
          "midi": 81,
          "time": 345.5,
          "velocity": 1,
          "duration": 0.5
        },
        {
          "name": "A5",
          "midi": 81,
          "time": 346,
          "velocity": 1,
          "duration": 0.5
        },
        {
          "name": "A5",
          "midi": 81,
          "time": 346.5,
          "velocity": 1,
          "duration": 0.5
        },
        {
          "name": "A5",
          "midi": 81,
          "time": 347,
          "velocity": 1,
          "duration": 0.5
        },
        {
          "name": "A5",
          "midi": 81,
          "time": 347.5,
          "velocity": 1,
          "duration": 0.5
        },
        {
          "name": "A5",
          "midi": 81,
          "time": 348,
          "velocity": 1,
          "duration": 0.5
        },
        {
          "name": "A5",
          "midi": 81,
          "time": 348.5,
          "velocity": 1,
          "duration": 0.5
        },
        {
          "name": "A5",
          "midi": 81,
          "time": 349,
          "velocity": 1,
          "duration": 0.5
        },
        {
          "name": "A5",
          "midi": 81,
          "time": 349.5,
          "velocity": 1,
          "duration": 0.5
        },
        {
          "name": "A5",
          "midi": 81,
          "time": 350,
          "velocity": 1,
          "duration": 0.5
        },
        {
          "name": "A5",
          "midi": 81,
          "time": 350.5,
          "velocity": 1,
          "duration": 0.5
        },
        {
          "name": "A5",
          "midi": 81,
          "time": 351,
          "velocity": 1,
          "duration": 0.5
        },
        {
          "name": "A5",
          "midi": 81,
          "time": 351.5,
          "velocity": 1,
          "duration": 0.5
        },
        {
          "name": "A5",
          "midi": 81,
          "time": 352,
          "velocity": 1,
          "duration": 0.5
        },
        {
          "name": "A5",
          "midi": 81,
          "time": 352.5,
          "velocity": 1,
          "duration": 0.5
        },
        {
          "name": "A5",
          "midi": 81,
          "time": 353,
          "velocity": 1,
          "duration": 0.5
        },
        {
          "name": "A5",
          "midi": 81,
          "time": 353.5,
          "velocity": 1,
          "duration": 0.5
        },
        {
          "name": "A5",
          "midi": 81,
          "time": 354,
          "velocity": 1,
          "duration": 0.5
        },
        {
          "name": "A5",
          "midi": 81,
          "time": 354.5,
          "velocity": 1,
          "duration": 0.5
        },
        {
          "name": "A5",
          "midi": 81,
          "time": 355,
          "velocity": 1,
          "duration": 0.5
        },
        {
          "name": "A5",
          "midi": 81,
          "time": 355.5,
          "velocity": 1,
          "duration": 0.5
        },
        {
          "name": "A5",
          "midi": 81,
          "time": 356,
          "velocity": 1,
          "duration": 0.5
        },
        {
          "name": "A5",
          "midi": 81,
          "time": 356.5,
          "velocity": 1,
          "duration": 0.5
        },
        {
          "name": "A5",
          "midi": 81,
          "time": 357,
          "velocity": 1,
          "duration": 0.5
        },
        {
          "name": "A5",
          "midi": 81,
          "time": 357.5,
          "velocity": 1,
          "duration": 0.5
        },
        {
          "name": "A5",
          "midi": 81,
          "time": 358,
          "velocity": 1,
          "duration": 0.5
        },
        {
          "name": "A5",
          "midi": 81,
          "time": 358.5,
          "velocity": 1,
          "duration": 0.5
        },
        {
          "name": "A5",
          "midi": 81,
          "time": 359,
          "velocity": 1,
          "duration": 0.5
        },
        {
          "name": "A5",
          "midi": 81,
          "time": 359.5,
          "velocity": 1,
          "duration": 0.5
        },
        {
          "name": "A5",
          "midi": 81,
          "time": 360,
          "velocity": 1,
          "duration": 0.5
        },
        {
          "name": "A5",
          "midi": 81,
          "time": 360.5,
          "velocity": 1,
          "duration": 0.5
        },
        {
          "name": "A5",
          "midi": 81,
          "time": 361,
          "velocity": 1,
          "duration": 0.5
        },
        {
          "name": "A5",
          "midi": 81,
          "time": 361.5,
          "velocity": 1,
          "duration": 0.5
        },
        {
          "name": "A5",
          "midi": 81,
          "time": 362,
          "velocity": 1,
          "duration": 0.5
        },
        {
          "name": "A5",
          "midi": 81,
          "time": 362.5,
          "velocity": 1,
          "duration": 0.5
        },
        {
          "name": "A5",
          "midi": 81,
          "time": 363,
          "velocity": 1,
          "duration": 0.5
        },
        {
          "name": "A5",
          "midi": 81,
          "time": 363.5,
          "velocity": 1,
          "duration": 0.5
        },
        {
          "name": "A5",
          "midi": 81,
          "time": 364,
          "velocity": 1,
          "duration": 0.5
        },
        {
          "name": "A5",
          "midi": 81,
          "time": 364.5,
          "velocity": 1,
          "duration": 0.5
        },
        {
          "name": "A5",
          "midi": 81,
          "time": 365,
          "velocity": 1,
          "duration": 0.5
        },
        {
          "name": "A5",
          "midi": 81,
          "time": 365.5,
          "velocity": 1,
          "duration": 0.5
        },
        {
          "name": "A5",
          "midi": 81,
          "time": 366,
          "velocity": 1,
          "duration": 0.5
        },
        {
          "name": "A5",
          "midi": 81,
          "time": 366.5,
          "velocity": 1,
          "duration": 0.5
        },
        {
          "name": "A5",
          "midi": 81,
          "time": 367,
          "velocity": 1,
          "duration": 0.5
        },
        {
          "name": "A5",
          "midi": 81,
          "time": 367.5,
          "velocity": 1,
          "duration": 0.5
        },
        {
          "name": "A5",
          "midi": 81,
          "time": 368,
          "velocity": 1,
          "duration": 0.5
        },
        {
          "name": "A5",
          "midi": 81,
          "time": 368.5,
          "velocity": 1,
          "duration": 0.5
        },
        {
          "name": "A5",
          "midi": 81,
          "time": 369,
          "velocity": 1,
          "duration": 0.5
        },
        {
          "name": "A5",
          "midi": 81,
          "time": 369.5,
          "velocity": 1,
          "duration": 0.5
        },
        {
          "name": "A5",
          "midi": 81,
          "time": 370,
          "velocity": 1,
          "duration": 0.5
        },
        {
          "name": "A5",
          "midi": 81,
          "time": 370.5,
          "velocity": 1,
          "duration": 0.5
        },
        {
          "name": "A5",
          "midi": 81,
          "time": 371,
          "velocity": 1,
          "duration": 0.5
        },
        {
          "name": "A5",
          "midi": 81,
          "time": 371.5,
          "velocity": 1,
          "duration": 0.5
        },
        {
          "name": "A5",
          "midi": 81,
          "time": 372,
          "velocity": 1,
          "duration": 0.5
        },
        {
          "name": "A5",
          "midi": 81,
          "time": 372.5,
          "velocity": 1,
          "duration": 0.5
        },
        {
          "name": "A5",
          "midi": 81,
          "time": 373,
          "velocity": 1,
          "duration": 0.5
        },
        {
          "name": "A5",
          "midi": 81,
          "time": 373.5,
          "velocity": 1,
          "duration": 0.5
        },
        {
          "name": "A5",
          "midi": 81,
          "time": 374,
          "velocity": 1,
          "duration": 0.5
        },
        {
          "name": "A5",
          "midi": 81,
          "time": 374.5,
          "velocity": 1,
          "duration": 0.5
        },
        {
          "name": "A5",
          "midi": 81,
          "time": 375,
          "velocity": 1,
          "duration": 0.5
        },
        {
          "name": "A5",
          "midi": 81,
          "time": 375.5,
          "velocity": 1,
          "duration": 0.5
        },
        {
          "name": "A5",
          "midi": 81,
          "time": 376,
          "velocity": 1,
          "duration": 0.5
        },
        {
          "name": "A5",
          "midi": 81,
          "time": 376.5,
          "velocity": 1,
          "duration": 0.5
        },
        {
          "name": "A5",
          "midi": 81,
          "time": 377,
          "velocity": 1,
          "duration": 0.5
        },
        {
          "name": "A5",
          "midi": 81,
          "time": 377.5,
          "velocity": 1,
          "duration": 0.5
        },
        {
          "name": "A5",
          "midi": 81,
          "time": 378,
          "velocity": 1,
          "duration": 0.5
        },
        {
          "name": "A5",
          "midi": 81,
          "time": 378.5,
          "velocity": 1,
          "duration": 0.5
        },
        {
          "name": "A5",
          "midi": 81,
          "time": 379,
          "velocity": 1,
          "duration": 0.5
        },
        {
          "name": "A5",
          "midi": 81,
          "time": 379.5,
          "velocity": 1,
          "duration": 0.5
        },
        {
          "name": "A5",
          "midi": 81,
          "time": 380,
          "velocity": 1,
          "duration": 0.5
        },
        {
          "name": "A5",
          "midi": 81,
          "time": 380.5,
          "velocity": 1,
          "duration": 0.5
        },
        {
          "name": "A5",
          "midi": 81,
          "time": 381,
          "velocity": 1,
          "duration": 0.5
        },
        {
          "name": "A5",
          "midi": 81,
          "time": 381.5,
          "velocity": 1,
          "duration": 0.5
        },
        {
          "name": "A5",
          "midi": 81,
          "time": 382,
          "velocity": 1,
          "duration": 0.5
        },
        {
          "name": "A5",
          "midi": 81,
          "time": 382.5,
          "velocity": 1,
          "duration": 0.5
        },
        {
          "name": "A5",
          "midi": 81,
          "time": 383,
          "velocity": 1,
          "duration": 0.5
        },
        {
          "name": "A5",
          "midi": 81,
          "time": 383.5,
          "velocity": 1,
          "duration": 0.5
        },
        {
          "name": "A5",
          "midi": 81,
          "time": 384,
          "velocity": 1,
          "duration": 0.5
        },
        {
          "name": "A5",
          "midi": 81,
          "time": 384.5,
          "velocity": 1,
          "duration": 0.5
        },
        {
          "name": "A5",
          "midi": 81,
          "time": 385,
          "velocity": 1,
          "duration": 0.5
        },
        {
          "name": "A5",
          "midi": 81,
          "time": 385.5,
          "velocity": 1,
          "duration": 0.5
        },
        {
          "name": "A5",
          "midi": 81,
          "time": 386,
          "velocity": 1,
          "duration": 0.5
        },
        {
          "name": "A5",
          "midi": 81,
          "time": 386.5,
          "velocity": 1,
          "duration": 0.5
        },
        {
          "name": "A5",
          "midi": 81,
          "time": 387,
          "velocity": 1,
          "duration": 0.5
        },
        {
          "name": "A5",
          "midi": 81,
          "time": 387.5,
          "velocity": 1,
          "duration": 0.5
        },
        {
          "name": "A5",
          "midi": 81,
          "time": 388,
          "velocity": 1,
          "duration": 0.5
        },
        {
          "name": "A5",
          "midi": 81,
          "time": 388.5,
          "velocity": 1,
          "duration": 0.5
        },
        {
          "name": "A5",
          "midi": 81,
          "time": 389,
          "velocity": 1,
          "duration": 0.5
        },
        {
          "name": "A5",
          "midi": 81,
          "time": 389.5,
          "velocity": 1,
          "duration": 0.5
        },
        {
          "name": "A5",
          "midi": 81,
          "time": 390,
          "velocity": 1,
          "duration": 0.5
        },
        {
          "name": "A5",
          "midi": 81,
          "time": 390.5,
          "velocity": 1,
          "duration": 0.5
        },
        {
          "name": "A5",
          "midi": 81,
          "time": 391,
          "velocity": 1,
          "duration": 0.5
        },
        {
          "name": "A5",
          "midi": 81,
          "time": 391.5,
          "velocity": 1,
          "duration": 0.5
        },
        {
          "name": "A5",
          "midi": 81,
          "time": 392,
          "velocity": 1,
          "duration": 0.5
        },
        {
          "name": "A5",
          "midi": 81,
          "time": 392.5,
          "velocity": 1,
          "duration": 0.5
        },
        {
          "name": "A5",
          "midi": 81,
          "time": 393,
          "velocity": 1,
          "duration": 0.5
        },
        {
          "name": "A5",
          "midi": 81,
          "time": 393.5,
          "velocity": 1,
          "duration": 0.5
        },
        {
          "name": "A5",
          "midi": 81,
          "time": 394,
          "velocity": 1,
          "duration": 0.5
        },
        {
          "name": "A5",
          "midi": 81,
          "time": 394.5,
          "velocity": 1,
          "duration": 0.5
        },
        {
          "name": "A5",
          "midi": 81,
          "time": 395,
          "velocity": 1,
          "duration": 0.5
        },
        {
          "name": "A5",
          "midi": 81,
          "time": 395.5,
          "velocity": 1,
          "duration": 0.5
        },
        {
          "name": "A5",
          "midi": 81,
          "time": 396,
          "velocity": 1,
          "duration": 0.5
        },
        {
          "name": "A5",
          "midi": 81,
          "time": 396.5,
          "velocity": 1,
          "duration": 0.5
        },
        {
          "name": "A5",
          "midi": 81,
          "time": 397,
          "velocity": 1,
          "duration": 0.5
        },
        {
          "name": "A5",
          "midi": 81,
          "time": 397.5,
          "velocity": 1,
          "duration": 0.5
        },
        {
          "name": "A5",
          "midi": 81,
          "time": 398,
          "velocity": 1,
          "duration": 0.5
        },
        {
          "name": "A5",
          "midi": 81,
          "time": 398.5,
          "velocity": 1,
          "duration": 0.5
        },
        {
          "name": "A5",
          "midi": 81,
          "time": 399,
          "velocity": 1,
          "duration": 0.5
        },
        {
          "name": "A5",
          "midi": 81,
          "time": 399.5,
          "velocity": 1,
          "duration": 0.5
        },
        {
          "name": "A5",
          "midi": 81,
          "time": 400,
          "velocity": 1,
          "duration": 0.5
        },
        {
          "name": "A5",
          "midi": 81,
          "time": 400.5,
          "velocity": 1,
          "duration": 0.5
        },
        {
          "name": "A5",
          "midi": 81,
          "time": 401,
          "velocity": 1,
          "duration": 0.5
        },
        {
          "name": "A5",
          "midi": 81,
          "time": 401.5,
          "velocity": 1,
          "duration": 0.5
        },
        {
          "name": "A5",
          "midi": 81,
          "time": 402,
          "velocity": 1,
          "duration": 0.5
        },
        {
          "name": "A5",
          "midi": 81,
          "time": 402.5,
          "velocity": 1,
          "duration": 0.5
        },
        {
          "name": "A5",
          "midi": 81,
          "time": 403,
          "velocity": 1,
          "duration": 0.5
        },
        {
          "name": "A5",
          "midi": 81,
          "time": 403.5,
          "velocity": 1,
          "duration": 0.5
        },
        {
          "name": "A5",
          "midi": 81,
          "time": 404,
          "velocity": 1,
          "duration": 0.5
        },
        {
          "name": "A5",
          "midi": 81,
          "time": 404.5,
          "velocity": 1,
          "duration": 0.5
        },
        {
          "name": "A5",
          "midi": 81,
          "time": 405,
          "velocity": 1,
          "duration": 0.5
        },
        {
          "name": "A5",
          "midi": 81,
          "time": 405.5,
          "velocity": 1,
          "duration": 0.5
        },
        {
          "name": "A5",
          "midi": 81,
          "time": 406,
          "velocity": 1,
          "duration": 0.5
        },
        {
          "name": "A5",
          "midi": 81,
          "time": 406.5,
          "velocity": 1,
          "duration": 0.5
        },
        {
          "name": "A5",
          "midi": 81,
          "time": 407,
          "velocity": 1,
          "duration": 0.5
        },
        {
          "name": "A5",
          "midi": 81,
          "time": 407.5,
          "velocity": 1,
          "duration": 0.5
        },
        {
          "name": "A5",
          "midi": 81,
          "time": 408,
          "velocity": 1,
          "duration": 0.5
        },
        {
          "name": "A5",
          "midi": 81,
          "time": 408.5,
          "velocity": 1,
          "duration": 0.5
        },
        {
          "name": "A5",
          "midi": 81,
          "time": 409,
          "velocity": 1,
          "duration": 0.5
        },
        {
          "name": "A5",
          "midi": 81,
          "time": 409.5,
          "velocity": 1,
          "duration": 0.5
        },
        {
          "name": "A5",
          "midi": 81,
          "time": 410,
          "velocity": 1,
          "duration": 0.5
        },
        {
          "name": "A5",
          "midi": 81,
          "time": 410.5,
          "velocity": 1,
          "duration": 0.5
        },
        {
          "name": "A5",
          "midi": 81,
          "time": 411,
          "velocity": 1,
          "duration": 0.5
        },
        {
          "name": "A5",
          "midi": 81,
          "time": 411.5,
          "velocity": 1,
          "duration": 0.5
        },
        {
          "name": "A5",
          "midi": 81,
          "time": 412,
          "velocity": 1,
          "duration": 0.5
        },
        {
          "name": "A5",
          "midi": 81,
          "time": 412.5,
          "velocity": 1,
          "duration": 0.5
        },
        {
          "name": "A5",
          "midi": 81,
          "time": 413,
          "velocity": 1,
          "duration": 0.5
        },
        {
          "name": "A5",
          "midi": 81,
          "time": 413.5,
          "velocity": 1,
          "duration": 0.5
        },
        {
          "name": "A5",
          "midi": 81,
          "time": 414,
          "velocity": 1,
          "duration": 0.5
        },
        {
          "name": "A5",
          "midi": 81,
          "time": 414.5,
          "velocity": 1,
          "duration": 0.5
        },
        {
          "name": "A5",
          "midi": 81,
          "time": 415,
          "velocity": 1,
          "duration": 0.5
        },
        {
          "name": "A5",
          "midi": 81,
          "time": 415.5,
          "velocity": 1,
          "duration": 0.5
        },
        {
          "name": "A5",
          "midi": 81,
          "time": 416,
          "velocity": 1,
          "duration": 0.5
        },
        {
          "name": "A5",
          "midi": 81,
          "time": 416.5,
          "velocity": 1,
          "duration": 0.5
        },
        {
          "name": "A5",
          "midi": 81,
          "time": 417,
          "velocity": 1,
          "duration": 0.5
        },
        {
          "name": "A5",
          "midi": 81,
          "time": 417.5,
          "velocity": 1,
          "duration": 0.5
        },
        {
          "name": "A5",
          "midi": 81,
          "time": 418,
          "velocity": 1,
          "duration": 0.5
        },
        {
          "name": "A5",
          "midi": 81,
          "time": 418.5,
          "velocity": 1,
          "duration": 0.5
        },
        {
          "name": "A5",
          "midi": 81,
          "time": 419,
          "velocity": 1,
          "duration": 0.5
        },
        {
          "name": "A5",
          "midi": 81,
          "time": 419.5,
          "velocity": 1,
          "duration": 0.5
        },
        {
          "name": "A5",
          "midi": 81,
          "time": 420,
          "velocity": 1,
          "duration": 0.5
        },
        {
          "name": "A5",
          "midi": 81,
          "time": 420.5,
          "velocity": 1,
          "duration": 0.5
        },
        {
          "name": "A5",
          "midi": 81,
          "time": 421,
          "velocity": 1,
          "duration": 0.5
        },
        {
          "name": "A5",
          "midi": 81,
          "time": 421.5,
          "velocity": 1,
          "duration": 0.5
        },
        {
          "name": "A5",
          "midi": 81,
          "time": 422,
          "velocity": 1,
          "duration": 0.5
        },
        {
          "name": "A5",
          "midi": 81,
          "time": 422.5,
          "velocity": 1,
          "duration": 0.5
        },
        {
          "name": "A5",
          "midi": 81,
          "time": 423,
          "velocity": 1,
          "duration": 0.5
        },
        {
          "name": "A5",
          "midi": 81,
          "time": 423.5,
          "velocity": 1,
          "duration": 0.5
        },
        {
          "name": "A5",
          "midi": 81,
          "time": 424,
          "velocity": 1,
          "duration": 0.5
        },
        {
          "name": "A5",
          "midi": 81,
          "time": 424.5,
          "velocity": 1,
          "duration": 0.5
        },
        {
          "name": "A5",
          "midi": 81,
          "time": 425,
          "velocity": 1,
          "duration": 0.5
        },
        {
          "name": "A5",
          "midi": 81,
          "time": 425.5,
          "velocity": 1,
          "duration": 0.5
        },
        {
          "name": "A5",
          "midi": 81,
          "time": 426,
          "velocity": 1,
          "duration": 0.5
        },
        {
          "name": "A5",
          "midi": 81,
          "time": 426.5,
          "velocity": 1,
          "duration": 0.5
        },
        {
          "name": "A5",
          "midi": 81,
          "time": 427,
          "velocity": 1,
          "duration": 0.5
        },
        {
          "name": "A5",
          "midi": 81,
          "time": 427.5,
          "velocity": 1,
          "duration": 0.5
        },
        {
          "name": "A5",
          "midi": 81,
          "time": 428,
          "velocity": 1,
          "duration": 0.5
        },
        {
          "name": "A5",
          "midi": 81,
          "time": 428.5,
          "velocity": 1,
          "duration": 0.5
        },
        {
          "name": "A5",
          "midi": 81,
          "time": 429,
          "velocity": 1,
          "duration": 0.5
        },
        {
          "name": "A5",
          "midi": 81,
          "time": 429.5,
          "velocity": 1,
          "duration": 0.5
        },
        {
          "name": "A5",
          "midi": 81,
          "time": 430,
          "velocity": 1,
          "duration": 0.5
        },
        {
          "name": "A5",
          "midi": 81,
          "time": 430.5,
          "velocity": 1,
          "duration": 0.5
        },
        {
          "name": "A5",
          "midi": 81,
          "time": 431,
          "velocity": 1,
          "duration": 0.5
        },
        {
          "name": "A5",
          "midi": 81,
          "time": 431.5,
          "velocity": 1,
          "duration": 0.5
        },
        {
          "name": "A5",
          "midi": 81,
          "time": 432,
          "velocity": 1,
          "duration": 0.5
        },
        {
          "name": "A5",
          "midi": 81,
          "time": 432.5,
          "velocity": 1,
          "duration": 0.5
        },
        {
          "name": "A5",
          "midi": 81,
          "time": 433,
          "velocity": 1,
          "duration": 0.5
        },
        {
          "name": "A5",
          "midi": 81,
          "time": 433.5,
          "velocity": 1,
          "duration": 0.5
        },
        {
          "name": "A5",
          "midi": 81,
          "time": 434,
          "velocity": 1,
          "duration": 0.5
        },
        {
          "name": "A5",
          "midi": 81,
          "time": 434.5,
          "velocity": 1,
          "duration": 0.5
        },
        {
          "name": "A5",
          "midi": 81,
          "time": 435,
          "velocity": 1,
          "duration": 0.5
        },
        {
          "name": "A5",
          "midi": 81,
          "time": 435.5,
          "velocity": 1,
          "duration": 0.5
        },
        {
          "name": "A5",
          "midi": 81,
          "time": 436,
          "velocity": 1,
          "duration": 0.5
        },
        {
          "name": "A5",
          "midi": 81,
          "time": 436.5,
          "velocity": 1,
          "duration": 0.5
        },
        {
          "name": "A5",
          "midi": 81,
          "time": 437,
          "velocity": 1,
          "duration": 0.5
        },
        {
          "name": "A5",
          "midi": 81,
          "time": 437.5,
          "velocity": 1,
          "duration": 0.5
        },
        {
          "name": "A5",
          "midi": 81,
          "time": 438,
          "velocity": 1,
          "duration": 0.5
        },
        {
          "name": "A5",
          "midi": 81,
          "time": 438.5,
          "velocity": 1,
          "duration": 0.5
        },
        {
          "name": "A5",
          "midi": 81,
          "time": 439,
          "velocity": 1,
          "duration": 0.5
        },
        {
          "name": "A5",
          "midi": 81,
          "time": 439.5,
          "velocity": 1,
          "duration": 0.5
        },
        {
          "name": "A5",
          "midi": 81,
          "time": 440,
          "velocity": 1,
          "duration": 0.5
        },
        {
          "name": "A5",
          "midi": 81,
          "time": 440.5,
          "velocity": 1,
          "duration": 0.5
        },
        {
          "name": "A5",
          "midi": 81,
          "time": 441,
          "velocity": 1,
          "duration": 0.5
        },
        {
          "name": "A5",
          "midi": 81,
          "time": 441.5,
          "velocity": 1,
          "duration": 0.5
        },
        {
          "name": "A5",
          "midi": 81,
          "time": 442,
          "velocity": 1,
          "duration": 0.5
        },
        {
          "name": "A5",
          "midi": 81,
          "time": 442.5,
          "velocity": 1,
          "duration": 0.5
        },
        {
          "name": "A5",
          "midi": 81,
          "time": 443,
          "velocity": 1,
          "duration": 0.5
        },
        {
          "name": "A5",
          "midi": 81,
          "time": 443.5,
          "velocity": 1,
          "duration": 0.5
        },
        {
          "name": "A5",
          "midi": 81,
          "time": 444,
          "velocity": 1,
          "duration": 0.5
        },
        {
          "name": "A5",
          "midi": 81,
          "time": 444.5,
          "velocity": 1,
          "duration": 0.5
        },
        {
          "name": "A5",
          "midi": 81,
          "time": 445,
          "velocity": 1,
          "duration": 0.5
        },
        {
          "name": "A5",
          "midi": 81,
          "time": 445.5,
          "velocity": 1,
          "duration": 0.5
        },
        {
          "name": "A5",
          "midi": 81,
          "time": 446,
          "velocity": 1,
          "duration": 0.5
        },
        {
          "name": "A5",
          "midi": 81,
          "time": 446.5,
          "velocity": 1,
          "duration": 0.5
        },
        {
          "name": "A5",
          "midi": 81,
          "time": 447,
          "velocity": 1,
          "duration": 0.5
        },
        {
          "name": "A5",
          "midi": 81,
          "time": 447.5,
          "velocity": 1,
          "duration": 0.5
        },
        {
          "name": "A5",
          "midi": 81,
          "time": 448,
          "velocity": 1,
          "duration": 0.5
        },
        {
          "name": "A5",
          "midi": 81,
          "time": 448.5,
          "velocity": 1,
          "duration": 0.5
        },
        {
          "name": "A5",
          "midi": 81,
          "time": 449,
          "velocity": 1,
          "duration": 0.5
        },
        {
          "name": "A5",
          "midi": 81,
          "time": 449.5,
          "velocity": 1,
          "duration": 0.5
        },
        {
          "name": "A5",
          "midi": 81,
          "time": 450,
          "velocity": 1,
          "duration": 0.5
        },
        {
          "name": "A5",
          "midi": 81,
          "time": 450.5,
          "velocity": 1,
          "duration": 0.5
        },
        {
          "name": "A5",
          "midi": 81,
          "time": 451,
          "velocity": 1,
          "duration": 0.5
        },
        {
          "name": "A5",
          "midi": 81,
          "time": 451.5,
          "velocity": 1,
          "duration": 0.5
        },
        {
          "name": "A5",
          "midi": 81,
          "time": 452,
          "velocity": 1,
          "duration": 0.5
        },
        {
          "name": "A5",
          "midi": 81,
          "time": 452.5,
          "velocity": 1,
          "duration": 0.5
        },
        {
          "name": "A5",
          "midi": 81,
          "time": 453,
          "velocity": 1,
          "duration": 0.5
        },
        {
          "name": "A5",
          "midi": 81,
          "time": 453.5,
          "velocity": 1,
          "duration": 0.5
        },
        {
          "name": "A5",
          "midi": 81,
          "time": 454,
          "velocity": 1,
          "duration": 0.5
        },
        {
          "name": "A5",
          "midi": 81,
          "time": 454.5,
          "velocity": 1,
          "duration": 0.5
        },
        {
          "name": "A5",
          "midi": 81,
          "time": 455,
          "velocity": 1,
          "duration": 0.5
        },
        {
          "name": "A5",
          "midi": 81,
          "time": 455.5,
          "velocity": 1,
          "duration": 0.5
        },
        {
          "name": "A5",
          "midi": 81,
          "time": 456,
          "velocity": 1,
          "duration": 0.5
        },
        {
          "name": "A5",
          "midi": 81,
          "time": 456.5,
          "velocity": 1,
          "duration": 0.5
        },
        {
          "name": "A5",
          "midi": 81,
          "time": 457,
          "velocity": 1,
          "duration": 0.5
        },
        {
          "name": "A5",
          "midi": 81,
          "time": 457.5,
          "velocity": 1,
          "duration": 0.5
        },
        {
          "name": "A5",
          "midi": 81,
          "time": 458,
          "velocity": 1,
          "duration": 0.5
        },
        {
          "name": "A5",
          "midi": 81,
          "time": 458.5,
          "velocity": 1,
          "duration": 0.5
        },
        {
          "name": "A5",
          "midi": 81,
          "time": 459,
          "velocity": 1,
          "duration": 0.5
        },
        {
          "name": "A5",
          "midi": 81,
          "time": 459.5,
          "velocity": 1,
          "duration": 0.5
        },
        {
          "name": "A5",
          "midi": 81,
          "time": 460,
          "velocity": 1,
          "duration": 0.5
        },
        {
          "name": "A5",
          "midi": 81,
          "time": 460.5,
          "velocity": 1,
          "duration": 0.5
        },
        {
          "name": "A5",
          "midi": 81,
          "time": 461,
          "velocity": 1,
          "duration": 0.5
        },
        {
          "name": "A5",
          "midi": 81,
          "time": 461.5,
          "velocity": 1,
          "duration": 0.5
        },
        {
          "name": "A5",
          "midi": 81,
          "time": 462,
          "velocity": 1,
          "duration": 0.5
        },
        {
          "name": "A5",
          "midi": 81,
          "time": 462.5,
          "velocity": 1,
          "duration": 0.5
        },
        {
          "name": "A5",
          "midi": 81,
          "time": 463,
          "velocity": 1,
          "duration": 0.5
        },
        {
          "name": "A5",
          "midi": 81,
          "time": 463.5,
          "velocity": 1,
          "duration": 0.5
        },
        {
          "name": "A5",
          "midi": 81,
          "time": 464,
          "velocity": 1,
          "duration": 0.5
        },
        {
          "name": "A5",
          "midi": 81,
          "time": 464.5,
          "velocity": 1,
          "duration": 0.5
        },
        {
          "name": "A5",
          "midi": 81,
          "time": 465,
          "velocity": 1,
          "duration": 0.5
        },
        {
          "name": "A5",
          "midi": 81,
          "time": 465.5,
          "velocity": 1,
          "duration": 0.5
        },
        {
          "name": "A5",
          "midi": 81,
          "time": 466,
          "velocity": 1,
          "duration": 0.5
        },
        {
          "name": "A5",
          "midi": 81,
          "time": 466.5,
          "velocity": 1,
          "duration": 0.5
        },
        {
          "name": "A5",
          "midi": 81,
          "time": 467,
          "velocity": 1,
          "duration": 0.5
        },
        {
          "name": "A5",
          "midi": 81,
          "time": 467.5,
          "velocity": 1,
          "duration": 0.5
        },
        {
          "name": "A5",
          "midi": 81,
          "time": 468,
          "velocity": 1,
          "duration": 0.5
        },
        {
          "name": "A5",
          "midi": 81,
          "time": 468.5,
          "velocity": 1,
          "duration": 0.5
        },
        {
          "name": "A5",
          "midi": 81,
          "time": 469,
          "velocity": 1,
          "duration": 0.5
        },
        {
          "name": "A5",
          "midi": 81,
          "time": 469.5,
          "velocity": 1,
          "duration": 0.5
        },
        {
          "name": "A5",
          "midi": 81,
          "time": 470,
          "velocity": 1,
          "duration": 0.5
        },
        {
          "name": "A5",
          "midi": 81,
          "time": 470.5,
          "velocity": 1,
          "duration": 0.5
        },
        {
          "name": "A5",
          "midi": 81,
          "time": 471,
          "velocity": 1,
          "duration": 0.5
        },
        {
          "name": "A5",
          "midi": 81,
          "time": 471.5,
          "velocity": 1,
          "duration": 0.5
        },
        {
          "name": "A5",
          "midi": 81,
          "time": 472,
          "velocity": 1,
          "duration": 0.5
        },
        {
          "name": "A5",
          "midi": 81,
          "time": 472.5,
          "velocity": 1,
          "duration": 0.5
        },
        {
          "name": "A5",
          "midi": 81,
          "time": 473,
          "velocity": 1,
          "duration": 0.5
        },
        {
          "name": "A5",
          "midi": 81,
          "time": 473.5,
          "velocity": 1,
          "duration": 0.5
        },
        {
          "name": "A5",
          "midi": 81,
          "time": 474,
          "velocity": 1,
          "duration": 0.5
        },
        {
          "name": "A5",
          "midi": 81,
          "time": 474.5,
          "velocity": 1,
          "duration": 0.5
        },
        {
          "name": "A5",
          "midi": 81,
          "time": 475,
          "velocity": 1,
          "duration": 0.5
        },
        {
          "name": "A5",
          "midi": 81,
          "time": 475.5,
          "velocity": 1,
          "duration": 0.5
        },
        {
          "name": "A5",
          "midi": 81,
          "time": 476,
          "velocity": 1,
          "duration": 0.5
        },
        {
          "name": "A5",
          "midi": 81,
          "time": 476.5,
          "velocity": 1,
          "duration": 0.5
        },
        {
          "name": "A5",
          "midi": 81,
          "time": 477,
          "velocity": 1,
          "duration": 0.5
        },
        {
          "name": "A5",
          "midi": 81,
          "time": 477.5,
          "velocity": 1,
          "duration": 0.5
        },
        {
          "name": "A5",
          "midi": 81,
          "time": 478,
          "velocity": 1,
          "duration": 0.5
        },
        {
          "name": "A5",
          "midi": 81,
          "time": 478.5,
          "velocity": 1,
          "duration": 0.5
        },
        {
          "name": "A5",
          "midi": 81,
          "time": 479,
          "velocity": 1,
          "duration": 0.5
        },
        {
          "name": "A5",
          "midi": 81,
          "time": 479.5,
          "velocity": 1,
          "duration": 0.5
        },
        {
          "name": "A5",
          "midi": 81,
          "time": 480,
          "velocity": 1,
          "duration": 0.5
        },
        {
          "name": "A5",
          "midi": 81,
          "time": 480.5,
          "velocity": 1,
          "duration": 0.5
        },
        {
          "name": "A5",
          "midi": 81,
          "time": 481,
          "velocity": 1,
          "duration": 0.5
        },
        {
          "name": "A5",
          "midi": 81,
          "time": 481.5,
          "velocity": 1,
          "duration": 0.5
        },
        {
          "name": "A5",
          "midi": 81,
          "time": 482,
          "velocity": 1,
          "duration": 0.5
        },
        {
          "name": "A5",
          "midi": 81,
          "time": 482.5,
          "velocity": 1,
          "duration": 0.5
        },
        {
          "name": "A5",
          "midi": 81,
          "time": 483,
          "velocity": 1,
          "duration": 0.5
        },
        {
          "name": "A5",
          "midi": 81,
          "time": 483.5,
          "velocity": 1,
          "duration": 0.5
        },
        {
          "name": "A5",
          "midi": 81,
          "time": 484,
          "velocity": 1,
          "duration": 0.5
        },
        {
          "name": "A5",
          "midi": 81,
          "time": 484.5,
          "velocity": 1,
          "duration": 0.5
        },
        {
          "name": "A5",
          "midi": 81,
          "time": 485,
          "velocity": 1,
          "duration": 0.5
        },
        {
          "name": "A5",
          "midi": 81,
          "time": 485.5,
          "velocity": 1,
          "duration": 0.5
        },
        {
          "name": "A5",
          "midi": 81,
          "time": 486,
          "velocity": 1,
          "duration": 0.5
        },
        {
          "name": "A5",
          "midi": 81,
          "time": 486.5,
          "velocity": 1,
          "duration": 0.5
        },
        {
          "name": "A5",
          "midi": 81,
          "time": 487,
          "velocity": 1,
          "duration": 0.5
        },
        {
          "name": "A5",
          "midi": 81,
          "time": 487.5,
          "velocity": 1,
          "duration": 0.5
        },
        {
          "name": "A5",
          "midi": 81,
          "time": 488,
          "velocity": 1,
          "duration": 0.5
        },
        {
          "name": "A5",
          "midi": 81,
          "time": 488.5,
          "velocity": 1,
          "duration": 0.5
        },
        {
          "name": "A5",
          "midi": 81,
          "time": 489,
          "velocity": 1,
          "duration": 0.5
        },
        {
          "name": "A5",
          "midi": 81,
          "time": 489.5,
          "velocity": 1,
          "duration": 0.5
        },
        {
          "name": "A5",
          "midi": 81,
          "time": 490,
          "velocity": 1,
          "duration": 0.5
        },
        {
          "name": "A5",
          "midi": 81,
          "time": 490.5,
          "velocity": 1,
          "duration": 0.5
        },
        {
          "name": "A5",
          "midi": 81,
          "time": 491,
          "velocity": 1,
          "duration": 0.5
        },
        {
          "name": "A5",
          "midi": 81,
          "time": 491.5,
          "velocity": 1,
          "duration": 0.5
        },
        {
          "name": "A5",
          "midi": 81,
          "time": 492,
          "velocity": 1,
          "duration": 0.5
        },
        {
          "name": "A5",
          "midi": 81,
          "time": 492.5,
          "velocity": 1,
          "duration": 0.5
        },
        {
          "name": "A5",
          "midi": 81,
          "time": 493,
          "velocity": 1,
          "duration": 0.5
        },
        {
          "name": "A5",
          "midi": 81,
          "time": 493.5,
          "velocity": 1,
          "duration": 0.5
        },
        {
          "name": "A5",
          "midi": 81,
          "time": 494,
          "velocity": 1,
          "duration": 0.5
        },
        {
          "name": "A5",
          "midi": 81,
          "time": 494.5,
          "velocity": 1,
          "duration": 0.5
        },
        {
          "name": "A5",
          "midi": 81,
          "time": 495,
          "velocity": 1,
          "duration": 0.5
        },
        {
          "name": "A5",
          "midi": 81,
          "time": 495.5,
          "velocity": 1,
          "duration": 0.5
        },
        {
          "name": "A5",
          "midi": 81,
          "time": 496,
          "velocity": 1,
          "duration": 0.5
        },
        {
          "name": "A5",
          "midi": 81,
          "time": 496.5,
          "velocity": 1,
          "duration": 0.5
        },
        {
          "name": "A5",
          "midi": 81,
          "time": 497,
          "velocity": 1,
          "duration": 0.5
        },
        {
          "name": "A5",
          "midi": 81,
          "time": 497.5,
          "velocity": 1,
          "duration": 0.5
        },
        {
          "name": "A5",
          "midi": 81,
          "time": 498,
          "velocity": 1,
          "duration": 0.5
        },
        {
          "name": "A5",
          "midi": 81,
          "time": 498.5,
          "velocity": 1,
          "duration": 0.5
        },
        {
          "name": "A5",
          "midi": 81,
          "time": 499,
          "velocity": 1,
          "duration": 0.5
        },
        {
          "name": "A5",
          "midi": 81,
          "time": 499.5,
          "velocity": 1,
          "duration": 0.5
        },
        {
          "name": "A5",
          "midi": 81,
          "time": 500,
          "velocity": 1,
          "duration": 0.5
        },
        {
          "name": "A5",
          "midi": 81,
          "time": 500.5,
          "velocity": 1,
          "duration": 0.5
        },
        {
          "name": "A5",
          "midi": 81,
          "time": 501,
          "velocity": 1,
          "duration": 0.5
        },
        {
          "name": "A5",
          "midi": 81,
          "time": 501.5,
          "velocity": 1,
          "duration": 0.5
        },
        {
          "name": "A5",
          "midi": 81,
          "time": 502,
          "velocity": 1,
          "duration": 0.5
        },
        {
          "name": "A5",
          "midi": 81,
          "time": 502.5,
          "velocity": 1,
          "duration": 0.5
        },
        {
          "name": "A5",
          "midi": 81,
          "time": 503,
          "velocity": 1,
          "duration": 0.5
        },
        {
          "name": "A5",
          "midi": 81,
          "time": 503.5,
          "velocity": 1,
          "duration": 0.5
        },
        {
          "name": "A5",
          "midi": 81,
          "time": 504,
          "velocity": 1,
          "duration": 0.5
        },
        {
          "name": "A5",
          "midi": 81,
          "time": 504.5,
          "velocity": 1,
          "duration": 0.5
        },
        {
          "name": "A5",
          "midi": 81,
          "time": 505,
          "velocity": 1,
          "duration": 0.5
        },
        {
          "name": "A5",
          "midi": 81,
          "time": 505.5,
          "velocity": 1,
          "duration": 0.5
        },
        {
          "name": "A5",
          "midi": 81,
          "time": 506,
          "velocity": 1,
          "duration": 0.5
        },
        {
          "name": "A5",
          "midi": 81,
          "time": 506.5,
          "velocity": 1,
          "duration": 0.5
        },
        {
          "name": "A5",
          "midi": 81,
          "time": 507,
          "velocity": 1,
          "duration": 0.5
        },
        {
          "name": "A5",
          "midi": 81,
          "time": 507.5,
          "velocity": 1,
          "duration": 0.5
        },
        {
          "name": "A5",
          "midi": 81,
          "time": 508,
          "velocity": 1,
          "duration": 0.5
        },
        {
          "name": "A5",
          "midi": 81,
          "time": 508.5,
          "velocity": 1,
          "duration": 0.5
        },
        {
          "name": "A5",
          "midi": 81,
          "time": 509,
          "velocity": 1,
          "duration": 0.5
        },
        {
          "name": "A5",
          "midi": 81,
          "time": 509.5,
          "velocity": 1,
          "duration": 0.5
        },
        {
          "name": "A5",
          "midi": 81,
          "time": 510,
          "velocity": 1,
          "duration": 0.5
        },
        {
          "name": "A5",
          "midi": 81,
          "time": 510.5,
          "velocity": 1,
          "duration": 0.5
        },
        {
          "name": "A5",
          "midi": 81,
          "time": 511,
          "velocity": 1,
          "duration": 0.5
        },
        {
          "name": "A5",
          "midi": 81,
          "time": 511.5,
          "velocity": 1,
          "duration": 0.5
        },
        {
          "name": "A5",
          "midi": 81,
          "time": 512,
          "velocity": 1,
          "duration": 0.5
        },
        {
          "name": "A5",
          "midi": 81,
          "time": 512.5,
          "velocity": 1,
          "duration": 0.5
        },
        {
          "name": "A5",
          "midi": 81,
          "time": 513,
          "velocity": 1,
          "duration": 0.5
        },
        {
          "name": "A5",
          "midi": 81,
          "time": 513.5,
          "velocity": 1,
          "duration": 0.5
        },
        {
          "name": "A5",
          "midi": 81,
          "time": 514,
          "velocity": 1,
          "duration": 0.5
        },
        {
          "name": "A5",
          "midi": 81,
          "time": 514.5,
          "velocity": 1,
          "duration": 0.5
        },
        {
          "name": "A5",
          "midi": 81,
          "time": 515,
          "velocity": 1,
          "duration": 0.5
        },
        {
          "name": "A5",
          "midi": 81,
          "time": 515.5,
          "velocity": 1,
          "duration": 0.5
        },
        {
          "name": "A5",
          "midi": 81,
          "time": 516,
          "velocity": 1,
          "duration": 0.5
        },
        {
          "name": "A5",
          "midi": 81,
          "time": 516.5,
          "velocity": 1,
          "duration": 0.5
        },
        {
          "name": "A5",
          "midi": 81,
          "time": 517,
          "velocity": 1,
          "duration": 0.5
        },
        {
          "name": "A5",
          "midi": 81,
          "time": 517.5,
          "velocity": 1,
          "duration": 0.5
        },
        {
          "name": "A5",
          "midi": 81,
          "time": 518,
          "velocity": 1,
          "duration": 0.5
        },
        {
          "name": "A5",
          "midi": 81,
          "time": 518.5,
          "velocity": 1,
          "duration": 0.5
        },
        {
          "name": "A5",
          "midi": 81,
          "time": 519,
          "velocity": 1,
          "duration": 0.5
        },
        {
          "name": "A5",
          "midi": 81,
          "time": 519.5,
          "velocity": 1,
          "duration": 0.5
        },
        {
          "name": "A5",
          "midi": 81,
          "time": 520,
          "velocity": 1,
          "duration": 0.5
        },
        {
          "name": "A5",
          "midi": 81,
          "time": 520.5,
          "velocity": 1,
          "duration": 0.5
        },
        {
          "name": "A5",
          "midi": 81,
          "time": 521,
          "velocity": 1,
          "duration": 0.5
        },
        {
          "name": "A5",
          "midi": 81,
          "time": 521.5,
          "velocity": 1,
          "duration": 0.5
        },
        {
          "name": "A5",
          "midi": 81,
          "time": 522,
          "velocity": 1,
          "duration": 0.5
        },
        {
          "name": "A5",
          "midi": 81,
          "time": 522.5,
          "velocity": 1,
          "duration": 0.5
        },
        {
          "name": "A5",
          "midi": 81,
          "time": 523,
          "velocity": 1,
          "duration": 0.5
        },
        {
          "name": "A5",
          "midi": 81,
          "time": 523.5,
          "velocity": 1,
          "duration": 0.5
        },
        {
          "name": "A5",
          "midi": 81,
          "time": 524,
          "velocity": 1,
          "duration": 0.5
        },
        {
          "name": "A5",
          "midi": 81,
          "time": 524.5,
          "velocity": 1,
          "duration": 0.5
        },
        {
          "name": "A5",
          "midi": 81,
          "time": 525,
          "velocity": 1,
          "duration": 0.5
        },
        {
          "name": "A5",
          "midi": 81,
          "time": 525.5,
          "velocity": 1,
          "duration": 0.5
        },
        {
          "name": "A5",
          "midi": 81,
          "time": 526,
          "velocity": 1,
          "duration": 0.5
        },
        {
          "name": "A5",
          "midi": 81,
          "time": 526.5,
          "velocity": 1,
          "duration": 0.5
        },
        {
          "name": "A5",
          "midi": 81,
          "time": 527,
          "velocity": 1,
          "duration": 0.5
        },
        {
          "name": "A5",
          "midi": 81,
          "time": 527.5,
          "velocity": 1,
          "duration": 0.5
        },
        {
          "name": "A5",
          "midi": 81,
          "time": 528,
          "velocity": 1,
          "duration": 0.5
        },
        {
          "name": "A5",
          "midi": 81,
          "time": 528.5,
          "velocity": 1,
          "duration": 0.5
        },
        {
          "name": "A5",
          "midi": 81,
          "time": 529,
          "velocity": 1,
          "duration": 0.5
        },
        {
          "name": "A5",
          "midi": 81,
          "time": 529.5,
          "velocity": 1,
          "duration": 0.5
        },
        {
          "name": "A5",
          "midi": 81,
          "time": 530,
          "velocity": 1,
          "duration": 0.5
        },
        {
          "name": "A5",
          "midi": 81,
          "time": 530.5,
          "velocity": 1,
          "duration": 0.5
        },
        {
          "name": "A5",
          "midi": 81,
          "time": 531,
          "velocity": 1,
          "duration": 0.5
        },
        {
          "name": "A5",
          "midi": 81,
          "time": 531.5,
          "velocity": 1,
          "duration": 0.5
        },
        {
          "name": "A5",
          "midi": 81,
          "time": 532,
          "velocity": 1,
          "duration": 0.5
        },
        {
          "name": "A5",
          "midi": 81,
          "time": 532.5,
          "velocity": 1,
          "duration": 0.5
        },
        {
          "name": "A5",
          "midi": 81,
          "time": 533,
          "velocity": 1,
          "duration": 0.5
        },
        {
          "name": "A5",
          "midi": 81,
          "time": 533.5,
          "velocity": 1,
          "duration": 0.5
        },
        {
          "name": "A5",
          "midi": 81,
          "time": 534,
          "velocity": 1,
          "duration": 0.5
        },
        {
          "name": "A5",
          "midi": 81,
          "time": 534.5,
          "velocity": 1,
          "duration": 0.5
        },
        {
          "name": "A5",
          "midi": 81,
          "time": 535,
          "velocity": 1,
          "duration": 0.5
        },
        {
          "name": "A5",
          "midi": 81,
          "time": 535.5,
          "velocity": 1,
          "duration": 0.5
        },
        {
          "name": "A5",
          "midi": 81,
          "time": 536,
          "velocity": 1,
          "duration": 0.5
        },
        {
          "name": "A5",
          "midi": 81,
          "time": 536.5,
          "velocity": 1,
          "duration": 0.5
        },
        {
          "name": "A5",
          "midi": 81,
          "time": 537,
          "velocity": 1,
          "duration": 0.5
        },
        {
          "name": "A5",
          "midi": 81,
          "time": 537.5,
          "velocity": 1,
          "duration": 0.5
        },
        {
          "name": "A5",
          "midi": 81,
          "time": 538,
          "velocity": 1,
          "duration": 0.5
        },
        {
          "name": "A5",
          "midi": 81,
          "time": 538.5,
          "velocity": 1,
          "duration": 0.5
        },
        {
          "name": "A5",
          "midi": 81,
          "time": 539,
          "velocity": 1,
          "duration": 0.5
        },
        {
          "name": "A5",
          "midi": 81,
          "time": 539.5,
          "velocity": 1,
          "duration": 0.5
        },
        {
          "name": "A5",
          "midi": 81,
          "time": 540,
          "velocity": 1,
          "duration": 0.5
        },
        {
          "name": "A5",
          "midi": 81,
          "time": 540.5,
          "velocity": 1,
          "duration": 0.5
        },
        {
          "name": "A5",
          "midi": 81,
          "time": 541,
          "velocity": 1,
          "duration": 0.5
        },
        {
          "name": "A5",
          "midi": 81,
          "time": 541.5,
          "velocity": 1,
          "duration": 0.5
        },
        {
          "name": "A5",
          "midi": 81,
          "time": 542,
          "velocity": 1,
          "duration": 0.5
        },
        {
          "name": "A5",
          "midi": 81,
          "time": 542.5,
          "velocity": 1,
          "duration": 0.5
        },
        {
          "name": "A5",
          "midi": 81,
          "time": 543,
          "velocity": 1,
          "duration": 0.5
        },
        {
          "name": "A5",
          "midi": 81,
          "time": 543.5,
          "velocity": 1,
          "duration": 0.5
        },
        {
          "name": "A5",
          "midi": 81,
          "time": 544,
          "velocity": 1,
          "duration": 0.5
        },
        {
          "name": "A5",
          "midi": 81,
          "time": 544.5,
          "velocity": 1,
          "duration": 0.5
        },
        {
          "name": "A5",
          "midi": 81,
          "time": 545,
          "velocity": 1,
          "duration": 0.5
        },
        {
          "name": "A5",
          "midi": 81,
          "time": 545.5,
          "velocity": 1,
          "duration": 0.5
        },
        {
          "name": "A5",
          "midi": 81,
          "time": 546,
          "velocity": 1,
          "duration": 0.5
        },
        {
          "name": "A5",
          "midi": 81,
          "time": 546.5,
          "velocity": 1,
          "duration": 0.5
        },
        {
          "name": "A5",
          "midi": 81,
          "time": 547,
          "velocity": 1,
          "duration": 0.5
        },
        {
          "name": "A5",
          "midi": 81,
          "time": 547.5,
          "velocity": 1,
          "duration": 0.5
        },
        {
          "name": "A5",
          "midi": 81,
          "time": 548,
          "velocity": 1,
          "duration": 0.5
        },
        {
          "name": "A5",
          "midi": 81,
          "time": 548.5,
          "velocity": 1,
          "duration": 0.5
        },
        {
          "name": "A5",
          "midi": 81,
          "time": 549,
          "velocity": 1,
          "duration": 0.5
        },
        {
          "name": "A5",
          "midi": 81,
          "time": 549.5,
          "velocity": 1,
          "duration": 0.5
        },
        {
          "name": "A5",
          "midi": 81,
          "time": 550,
          "velocity": 1,
          "duration": 0.5
        },
        {
          "name": "A5",
          "midi": 81,
          "time": 550.5,
          "velocity": 1,
          "duration": 0.5
        },
        {
          "name": "A5",
          "midi": 81,
          "time": 551,
          "velocity": 1,
          "duration": 0.5
        },
        {
          "name": "A5",
          "midi": 81,
          "time": 551.5,
          "velocity": 1,
          "duration": 0.5
        },
        {
          "name": "A5",
          "midi": 81,
          "time": 552,
          "velocity": 1,
          "duration": 0.5
        },
        {
          "name": "A5",
          "midi": 81,
          "time": 552.5,
          "velocity": 1,
          "duration": 0.5
        },
        {
          "name": "A5",
          "midi": 81,
          "time": 553,
          "velocity": 1,
          "duration": 0.5
        },
        {
          "name": "A5",
          "midi": 81,
          "time": 553.5,
          "velocity": 1,
          "duration": 0.5
        },
        {
          "name": "A5",
          "midi": 81,
          "time": 554,
          "velocity": 1,
          "duration": 0.5
        },
        {
          "name": "A5",
          "midi": 81,
          "time": 554.5,
          "velocity": 1,
          "duration": 0.5
        },
        {
          "name": "A5",
          "midi": 81,
          "time": 555,
          "velocity": 1,
          "duration": 0.5
        },
        {
          "name": "A5",
          "midi": 81,
          "time": 555.5,
          "velocity": 1,
          "duration": 0.5
        },
        {
          "name": "A5",
          "midi": 81,
          "time": 556,
          "velocity": 1,
          "duration": 0.5
        },
        {
          "name": "A5",
          "midi": 81,
          "time": 556.5,
          "velocity": 1,
          "duration": 0.5
        },
        {
          "name": "A5",
          "midi": 81,
          "time": 557,
          "velocity": 1,
          "duration": 0.5
        },
        {
          "name": "A5",
          "midi": 81,
          "time": 557.5,
          "velocity": 1,
          "duration": 0.5
        },
        {
          "name": "A5",
          "midi": 81,
          "time": 558,
          "velocity": 1,
          "duration": 0.5
        },
        {
          "name": "A5",
          "midi": 81,
          "time": 558.5,
          "velocity": 1,
          "duration": 0.5
        },
        {
          "name": "A5",
          "midi": 81,
          "time": 559,
          "velocity": 1,
          "duration": 0.5
        },
        {
          "name": "A5",
          "midi": 81,
          "time": 559.5,
          "velocity": 1,
          "duration": 0.5
        },
        {
          "name": "A5",
          "midi": 81,
          "time": 560,
          "velocity": 1,
          "duration": 0.5
        },
        {
          "name": "A5",
          "midi": 81,
          "time": 560.5,
          "velocity": 1,
          "duration": 0.5
        },
        {
          "name": "A5",
          "midi": 81,
          "time": 561,
          "velocity": 1,
          "duration": 0.5
        },
        {
          "name": "A5",
          "midi": 81,
          "time": 561.5,
          "velocity": 1,
          "duration": 0.5
        },
        {
          "name": "A5",
          "midi": 81,
          "time": 562,
          "velocity": 1,
          "duration": 0.5
        },
        {
          "name": "A5",
          "midi": 81,
          "time": 562.5,
          "velocity": 1,
          "duration": 0.5
        },
        {
          "name": "A5",
          "midi": 81,
          "time": 563,
          "velocity": 1,
          "duration": 0.5
        },
        {
          "name": "A5",
          "midi": 81,
          "time": 563.5,
          "velocity": 1,
          "duration": 0.5
        },
        {
          "name": "A5",
          "midi": 81,
          "time": 564,
          "velocity": 1,
          "duration": 0.5
        },
        {
          "name": "A5",
          "midi": 81,
          "time": 564.5,
          "velocity": 1,
          "duration": 0.5
        },
        {
          "name": "A5",
          "midi": 81,
          "time": 565,
          "velocity": 1,
          "duration": 0.5
        },
        {
          "name": "A5",
          "midi": 81,
          "time": 565.5,
          "velocity": 1,
          "duration": 0.5
        },
        {
          "name": "A5",
          "midi": 81,
          "time": 566,
          "velocity": 1,
          "duration": 0.5
        },
        {
          "name": "A5",
          "midi": 81,
          "time": 566.5,
          "velocity": 1,
          "duration": 0.5
        },
        {
          "name": "A5",
          "midi": 81,
          "time": 567,
          "velocity": 1,
          "duration": 0.5
        },
        {
          "name": "A5",
          "midi": 81,
          "time": 567.5,
          "velocity": 1,
          "duration": 0.5
        },
        {
          "name": "A5",
          "midi": 81,
          "time": 568,
          "velocity": 1,
          "duration": 0.5
        },
        {
          "name": "A5",
          "midi": 81,
          "time": 568.5,
          "velocity": 1,
          "duration": 0.5
        },
        {
          "name": "A5",
          "midi": 81,
          "time": 569,
          "velocity": 1,
          "duration": 0.5
        },
        {
          "name": "A5",
          "midi": 81,
          "time": 569.5,
          "velocity": 1,
          "duration": 0.5
        },
        {
          "name": "A5",
          "midi": 81,
          "time": 570,
          "velocity": 1,
          "duration": 0.5
        },
        {
          "name": "A5",
          "midi": 81,
          "time": 570.5,
          "velocity": 1,
          "duration": 0.5
        },
        {
          "name": "A5",
          "midi": 81,
          "time": 571,
          "velocity": 1,
          "duration": 0.5
        },
        {
          "name": "A5",
          "midi": 81,
          "time": 571.5,
          "velocity": 1,
          "duration": 0.5
        },
        {
          "name": "A5",
          "midi": 81,
          "time": 572,
          "velocity": 1,
          "duration": 0.5
        },
        {
          "name": "A5",
          "midi": 81,
          "time": 572.5,
          "velocity": 1,
          "duration": 0.5
        },
        {
          "name": "A5",
          "midi": 81,
          "time": 573,
          "velocity": 1,
          "duration": 0.5
        },
        {
          "name": "A5",
          "midi": 81,
          "time": 573.5,
          "velocity": 1,
          "duration": 0.5
        },
        {
          "name": "A5",
          "midi": 81,
          "time": 574,
          "velocity": 1,
          "duration": 0.5
        },
        {
          "name": "A5",
          "midi": 81,
          "time": 574.5,
          "velocity": 1,
          "duration": 0.5
        },
        {
          "name": "A5",
          "midi": 81,
          "time": 575,
          "velocity": 1,
          "duration": 0.5
        },
        {
          "name": "A5",
          "midi": 81,
          "time": 575.5,
          "velocity": 1,
          "duration": 0.5
        },
        {
          "name": "A5",
          "midi": 81,
          "time": 576,
          "velocity": 1,
          "duration": 0.5
        },
        {
          "name": "A5",
          "midi": 81,
          "time": 576.5,
          "velocity": 1,
          "duration": 0.5
        },
        {
          "name": "A5",
          "midi": 81,
          "time": 577,
          "velocity": 1,
          "duration": 0.5
        },
        {
          "name": "A5",
          "midi": 81,
          "time": 577.5,
          "velocity": 1,
          "duration": 0.5
        },
        {
          "name": "A5",
          "midi": 81,
          "time": 578,
          "velocity": 1,
          "duration": 0.5
        },
        {
          "name": "A5",
          "midi": 81,
          "time": 578.5,
          "velocity": 1,
          "duration": 0.5
        },
        {
          "name": "A5",
          "midi": 81,
          "time": 579,
          "velocity": 1,
          "duration": 0.5
        },
        {
          "name": "A5",
          "midi": 81,
          "time": 579.5,
          "velocity": 1,
          "duration": 0.5
        },
        {
          "name": "A5",
          "midi": 81,
          "time": 580,
          "velocity": 1,
          "duration": 0.5
        },
        {
          "name": "A5",
          "midi": 81,
          "time": 580.5,
          "velocity": 1,
          "duration": 0.5
        },
        {
          "name": "A5",
          "midi": 81,
          "time": 581,
          "velocity": 1,
          "duration": 0.5
        },
        {
          "name": "A5",
          "midi": 81,
          "time": 581.5,
          "velocity": 1,
          "duration": 0.5
        },
        {
          "name": "A5",
          "midi": 81,
          "time": 582,
          "velocity": 1,
          "duration": 0.5
        },
        {
          "name": "A5",
          "midi": 81,
          "time": 582.5,
          "velocity": 1,
          "duration": 0.5
        },
        {
          "name": "A5",
          "midi": 81,
          "time": 583,
          "velocity": 1,
          "duration": 0.5
        },
        {
          "name": "A5",
          "midi": 81,
          "time": 583.5,
          "velocity": 1,
          "duration": 0.5
        },
        {
          "name": "A5",
          "midi": 81,
          "time": 584,
          "velocity": 1,
          "duration": 0.5
        },
        {
          "name": "A5",
          "midi": 81,
          "time": 584.5,
          "velocity": 1,
          "duration": 0.5
        },
        {
          "name": "A5",
          "midi": 81,
          "time": 585,
          "velocity": 1,
          "duration": 0.5
        },
        {
          "name": "A5",
          "midi": 81,
          "time": 585.5,
          "velocity": 1,
          "duration": 0.5
        },
        {
          "name": "A5",
          "midi": 81,
          "time": 586,
          "velocity": 1,
          "duration": 0.5
        },
        {
          "name": "A5",
          "midi": 81,
          "time": 586.5,
          "velocity": 1,
          "duration": 0.5
        },
        {
          "name": "A5",
          "midi": 81,
          "time": 587,
          "velocity": 1,
          "duration": 0.5
        },
        {
          "name": "A5",
          "midi": 81,
          "time": 587.5,
          "velocity": 1,
          "duration": 0.5
        },
        {
          "name": "A5",
          "midi": 81,
          "time": 588,
          "velocity": 1,
          "duration": 0.5
        },
        {
          "name": "A5",
          "midi": 81,
          "time": 588.5,
          "velocity": 1,
          "duration": 0.5
        },
        {
          "name": "A5",
          "midi": 81,
          "time": 589,
          "velocity": 1,
          "duration": 0.5
        },
        {
          "name": "A5",
          "midi": 81,
          "time": 589.5,
          "velocity": 1,
          "duration": 0.5
        },
        {
          "name": "A5",
          "midi": 81,
          "time": 590,
          "velocity": 1,
          "duration": 0.5
        },
        {
          "name": "A5",
          "midi": 81,
          "time": 590.5,
          "velocity": 1,
          "duration": 0.5
        },
        {
          "name": "A5",
          "midi": 81,
          "time": 591,
          "velocity": 1,
          "duration": 0.5
        },
        {
          "name": "A5",
          "midi": 81,
          "time": 591.5,
          "velocity": 1,
          "duration": 0.5
        },
        {
          "name": "A5",
          "midi": 81,
          "time": 592,
          "velocity": 1,
          "duration": 0.5
        },
        {
          "name": "A5",
          "midi": 81,
          "time": 592.5,
          "velocity": 1,
          "duration": 0.5
        },
        {
          "name": "A5",
          "midi": 81,
          "time": 593,
          "velocity": 1,
          "duration": 0.5
        },
        {
          "name": "A5",
          "midi": 81,
          "time": 593.5,
          "velocity": 1,
          "duration": 0.5
        },
        {
          "name": "A5",
          "midi": 81,
          "time": 594,
          "velocity": 1,
          "duration": 0.5
        },
        {
          "name": "A5",
          "midi": 81,
          "time": 594.5,
          "velocity": 1,
          "duration": 0.5
        },
        {
          "name": "A5",
          "midi": 81,
          "time": 595,
          "velocity": 1,
          "duration": 0.5
        },
        {
          "name": "A5",
          "midi": 81,
          "time": 595.5,
          "velocity": 1,
          "duration": 0.5
        },
        {
          "name": "A5",
          "midi": 81,
          "time": 596,
          "velocity": 1,
          "duration": 0.5
        },
        {
          "name": "A5",
          "midi": 81,
          "time": 596.5,
          "velocity": 1,
          "duration": 0.5
        },
        {
          "name": "A5",
          "midi": 81,
          "time": 597,
          "velocity": 1,
          "duration": 0.5
        },
        {
          "name": "A5",
          "midi": 81,
          "time": 597.5,
          "velocity": 1,
          "duration": 0.5
        },
        {
          "name": "A5",
          "midi": 81,
          "time": 598,
          "velocity": 1,
          "duration": 0.5
        },
        {
          "name": "A5",
          "midi": 81,
          "time": 598.5,
          "velocity": 1,
          "duration": 0.5
        },
        {
          "name": "A5",
          "midi": 81,
          "time": 599,
          "velocity": 1,
          "duration": 0.5
        },
        {
          "name": "A5",
          "midi": 81,
          "time": 599.5,
          "velocity": 1,
          "duration": 0.5
        },
        {
          "name": "A5",
          "midi": 81,
          "time": 600,
          "velocity": 1,
          "duration": 0.5
        },
        {
          "name": "A5",
          "midi": 81,
          "time": 600.5,
          "velocity": 1,
          "duration": 0.5
        },
        {
          "name": "A5",
          "midi": 81,
          "time": 601,
          "velocity": 1,
          "duration": 0.5
        },
        {
          "name": "A5",
          "midi": 81,
          "time": 601.5,
          "velocity": 1,
          "duration": 0.5
        },
        {
          "name": "A5",
          "midi": 81,
          "time": 602,
          "velocity": 1,
          "duration": 0.5
        },
        {
          "name": "A5",
          "midi": 81,
          "time": 602.5,
          "velocity": 1,
          "duration": 0.5
        },
        {
          "name": "A5",
          "midi": 81,
          "time": 603,
          "velocity": 1,
          "duration": 0.5
        },
        {
          "name": "A5",
          "midi": 81,
          "time": 603.5,
          "velocity": 1,
          "duration": 0.5
        },
        {
          "name": "A5",
          "midi": 81,
          "time": 604,
          "velocity": 1,
          "duration": 0.5
        },
        {
          "name": "A5",
          "midi": 81,
          "time": 604.5,
          "velocity": 1,
          "duration": 0.5
        },
        {
          "name": "A5",
          "midi": 81,
          "time": 605,
          "velocity": 1,
          "duration": 0.5
        },
        {
          "name": "A5",
          "midi": 81,
          "time": 605.5,
          "velocity": 1,
          "duration": 0.5
        },
        {
          "name": "A5",
          "midi": 81,
          "time": 606,
          "velocity": 1,
          "duration": 0.5
        },
        {
          "name": "A5",
          "midi": 81,
          "time": 606.5,
          "velocity": 1,
          "duration": 0.5
        },
        {
          "name": "A5",
          "midi": 81,
          "time": 607,
          "velocity": 1,
          "duration": 0.5
        },
        {
          "name": "A5",
          "midi": 81,
          "time": 607.5,
          "velocity": 1,
          "duration": 0.5
        },
        {
          "name": "A5",
          "midi": 81,
          "time": 608,
          "velocity": 1,
          "duration": 0.5
        },
        {
          "name": "A5",
          "midi": 81,
          "time": 608.5,
          "velocity": 1,
          "duration": 0.5
        },
        {
          "name": "A5",
          "midi": 81,
          "time": 609,
          "velocity": 1,
          "duration": 0.5
        },
        {
          "name": "A5",
          "midi": 81,
          "time": 609.5,
          "velocity": 1,
          "duration": 0.5
        },
        {
          "name": "A5",
          "midi": 81,
          "time": 610,
          "velocity": 1,
          "duration": 0.5
        },
        {
          "name": "A5",
          "midi": 81,
          "time": 610.5,
          "velocity": 1,
          "duration": 0.5
        },
        {
          "name": "A5",
          "midi": 81,
          "time": 611,
          "velocity": 1,
          "duration": 0.5
        },
        {
          "name": "A5",
          "midi": 81,
          "time": 611.5,
          "velocity": 1,
          "duration": 0.5
        },
        {
          "name": "A5",
          "midi": 81,
          "time": 612,
          "velocity": 1,
          "duration": 0.5
        },
        {
          "name": "A5",
          "midi": 81,
          "time": 612.5,
          "velocity": 1,
          "duration": 0.5
        },
        {
          "name": "A5",
          "midi": 81,
          "time": 613,
          "velocity": 1,
          "duration": 0.5
        },
        {
          "name": "A5",
          "midi": 81,
          "time": 613.5,
          "velocity": 1,
          "duration": 0.5
        },
        {
          "name": "A5",
          "midi": 81,
          "time": 614,
          "velocity": 1,
          "duration": 0.5
        },
        {
          "name": "A5",
          "midi": 81,
          "time": 614.5,
          "velocity": 1,
          "duration": 0.5
        },
        {
          "name": "A5",
          "midi": 81,
          "time": 615,
          "velocity": 1,
          "duration": 0.5
        },
        {
          "name": "A5",
          "midi": 81,
          "time": 615.5,
          "velocity": 1,
          "duration": 0.5
        },
        {
          "name": "A5",
          "midi": 81,
          "time": 616,
          "velocity": 1,
          "duration": 0.5
        },
        {
          "name": "A5",
          "midi": 81,
          "time": 616.5,
          "velocity": 1,
          "duration": 0.5
        },
        {
          "name": "A5",
          "midi": 81,
          "time": 617,
          "velocity": 1,
          "duration": 0.5
        },
        {
          "name": "A5",
          "midi": 81,
          "time": 617.5,
          "velocity": 1,
          "duration": 0.5
        },
        {
          "name": "A5",
          "midi": 81,
          "time": 618,
          "velocity": 1,
          "duration": 0.5
        },
        {
          "name": "A5",
          "midi": 81,
          "time": 618.5,
          "velocity": 1,
          "duration": 0.5
        },
        {
          "name": "A5",
          "midi": 81,
          "time": 619,
          "velocity": 1,
          "duration": 0.5
        },
        {
          "name": "A5",
          "midi": 81,
          "time": 619.5,
          "velocity": 1,
          "duration": 0.5
        },
        {
          "name": "A5",
          "midi": 81,
          "time": 620,
          "velocity": 1,
          "duration": 0.5
        },
        {
          "name": "A5",
          "midi": 81,
          "time": 620.5,
          "velocity": 1,
          "duration": 0.5
        },
        {
          "name": "A5",
          "midi": 81,
          "time": 621,
          "velocity": 1,
          "duration": 0.5
        },
        {
          "name": "A5",
          "midi": 81,
          "time": 621.5,
          "velocity": 1,
          "duration": 0.5
        },
        {
          "name": "A5",
          "midi": 81,
          "time": 622,
          "velocity": 1,
          "duration": 0.5
        },
        {
          "name": "A5",
          "midi": 81,
          "time": 622.5,
          "velocity": 1,
          "duration": 0.5
        },
        {
          "name": "A5",
          "midi": 81,
          "time": 623,
          "velocity": 1,
          "duration": 0.5
        },
        {
          "name": "A5",
          "midi": 81,
          "time": 623.5,
          "velocity": 1,
          "duration": 0.5
        },
        {
          "name": "A5",
          "midi": 81,
          "time": 624,
          "velocity": 1,
          "duration": 0.5
        },
        {
          "name": "A5",
          "midi": 81,
          "time": 624.5,
          "velocity": 1,
          "duration": 0.5
        },
        {
          "name": "A5",
          "midi": 81,
          "time": 625,
          "velocity": 1,
          "duration": 0.5
        },
        {
          "name": "A5",
          "midi": 81,
          "time": 625.5,
          "velocity": 1,
          "duration": 0.5
        },
        {
          "name": "A5",
          "midi": 81,
          "time": 626,
          "velocity": 1,
          "duration": 0.5
        },
        {
          "name": "A5",
          "midi": 81,
          "time": 626.5,
          "velocity": 1,
          "duration": 0.5
        },
        {
          "name": "A5",
          "midi": 81,
          "time": 627,
          "velocity": 1,
          "duration": 0.5
        },
        {
          "name": "A5",
          "midi": 81,
          "time": 627.5,
          "velocity": 1,
          "duration": 0.5
        },
        {
          "name": "A5",
          "midi": 81,
          "time": 628,
          "velocity": 1,
          "duration": 0.5
        },
        {
          "name": "A5",
          "midi": 81,
          "time": 628.5,
          "velocity": 1,
          "duration": 0.5
        },
        {
          "name": "A5",
          "midi": 81,
          "time": 629,
          "velocity": 1,
          "duration": 0.5
        },
        {
          "name": "A5",
          "midi": 81,
          "time": 629.5,
          "velocity": 1,
          "duration": 0.5
        },
        {
          "name": "A5",
          "midi": 81,
          "time": 630,
          "velocity": 1,
          "duration": 0.5
        },
        {
          "name": "A5",
          "midi": 81,
          "time": 630.5,
          "velocity": 1,
          "duration": 0.5
        },
        {
          "name": "A5",
          "midi": 81,
          "time": 631,
          "velocity": 1,
          "duration": 0.5
        },
        {
          "name": "A5",
          "midi": 81,
          "time": 631.5,
          "velocity": 1,
          "duration": 0.5
        },
        {
          "name": "A5",
          "midi": 81,
          "time": 632,
          "velocity": 1,
          "duration": 0.5
        },
        {
          "name": "A5",
          "midi": 81,
          "time": 632.5,
          "velocity": 1,
          "duration": 0.5
        },
        {
          "name": "A5",
          "midi": 81,
          "time": 633,
          "velocity": 1,
          "duration": 0.5
        },
        {
          "name": "A5",
          "midi": 81,
          "time": 633.5,
          "velocity": 1,
          "duration": 0.5
        },
        {
          "name": "A5",
          "midi": 81,
          "time": 634,
          "velocity": 1,
          "duration": 0.5
        },
        {
          "name": "A5",
          "midi": 81,
          "time": 634.5,
          "velocity": 1,
          "duration": 0.5
        },
        {
          "name": "A5",
          "midi": 81,
          "time": 635,
          "velocity": 1,
          "duration": 0.5
        },
        {
          "name": "A5",
          "midi": 81,
          "time": 635.5,
          "velocity": 1,
          "duration": 0.5
        },
        {
          "name": "A5",
          "midi": 81,
          "time": 636,
          "velocity": 1,
          "duration": 0.5
        },
        {
          "name": "A5",
          "midi": 81,
          "time": 636.5,
          "velocity": 1,
          "duration": 0.5
        },
        {
          "name": "A5",
          "midi": 81,
          "time": 637,
          "velocity": 1,
          "duration": 0.5
        },
        {
          "name": "A5",
          "midi": 81,
          "time": 637.5,
          "velocity": 1,
          "duration": 0.5
        },
        {
          "name": "A5",
          "midi": 81,
          "time": 638,
          "velocity": 1,
          "duration": 0.5
        },
        {
          "name": "A5",
          "midi": 81,
          "time": 638.5,
          "velocity": 1,
          "duration": 0.5
        },
        {
          "name": "A5",
          "midi": 81,
          "time": 639,
          "velocity": 1,
          "duration": 0.5
        },
        {
          "name": "A5",
          "midi": 81,
          "time": 639.5,
          "velocity": 1,
          "duration": 0.5
        },
        {
          "name": "A5",
          "midi": 81,
          "time": 640,
          "velocity": 1,
          "duration": 0.5
        },
        {
          "name": "A5",
          "midi": 81,
          "time": 640.5,
          "velocity": 1,
          "duration": 0.5
        },
        {
          "name": "A5",
          "midi": 81,
          "time": 641,
          "velocity": 1,
          "duration": 0.5
        },
        {
          "name": "A5",
          "midi": 81,
          "time": 641.5,
          "velocity": 1,
          "duration": 0.5
        },
        {
          "name": "A5",
          "midi": 81,
          "time": 642,
          "velocity": 1,
          "duration": 0.5
        },
        {
          "name": "A5",
          "midi": 81,
          "time": 642.5,
          "velocity": 1,
          "duration": 0.5
        },
        {
          "name": "A5",
          "midi": 81,
          "time": 643,
          "velocity": 1,
          "duration": 0.5
        },
        {
          "name": "A5",
          "midi": 81,
          "time": 643.5,
          "velocity": 1,
          "duration": 0.5
        },
        {
          "name": "A5",
          "midi": 81,
          "time": 644,
          "velocity": 1,
          "duration": 0.5
        },
        {
          "name": "A5",
          "midi": 81,
          "time": 644.5,
          "velocity": 1,
          "duration": 0.5
        },
        {
          "name": "A5",
          "midi": 81,
          "time": 645,
          "velocity": 1,
          "duration": 0.5
        },
        {
          "name": "A5",
          "midi": 81,
          "time": 645.5,
          "velocity": 1,
          "duration": 0.5
        },
        {
          "name": "A5",
          "midi": 81,
          "time": 646,
          "velocity": 1,
          "duration": 0.5
        },
        {
          "name": "A5",
          "midi": 81,
          "time": 646.5,
          "velocity": 1,
          "duration": 0.5
        },
        {
          "name": "A5",
          "midi": 81,
          "time": 647,
          "velocity": 1,
          "duration": 0.5
        },
        {
          "name": "A5",
          "midi": 81,
          "time": 647.5,
          "velocity": 1,
          "duration": 0.5
        },
        {
          "name": "A5",
          "midi": 81,
          "time": 648,
          "velocity": 1,
          "duration": 0.5
        },
        {
          "name": "A5",
          "midi": 81,
          "time": 648.5,
          "velocity": 1,
          "duration": 0.5
        },
        {
          "name": "A5",
          "midi": 81,
          "time": 649,
          "velocity": 1,
          "duration": 0.5
        },
        {
          "name": "A5",
          "midi": 81,
          "time": 649.5,
          "velocity": 1,
          "duration": 0.5
        },
        {
          "name": "A5",
          "midi": 81,
          "time": 650,
          "velocity": 1,
          "duration": 0.5
        },
        {
          "name": "A5",
          "midi": 81,
          "time": 650.5,
          "velocity": 1,
          "duration": 0.5
        },
        {
          "name": "A5",
          "midi": 81,
          "time": 651,
          "velocity": 1,
          "duration": 0.5
        },
        {
          "name": "A5",
          "midi": 81,
          "time": 651.5,
          "velocity": 1,
          "duration": 0.5
        },
        {
          "name": "A5",
          "midi": 81,
          "time": 652,
          "velocity": 1,
          "duration": 0.5
        },
        {
          "name": "A5",
          "midi": 81,
          "time": 652.5,
          "velocity": 1,
          "duration": 0.5
        },
        {
          "name": "A5",
          "midi": 81,
          "time": 653,
          "velocity": 1,
          "duration": 0.5
        },
        {
          "name": "A5",
          "midi": 81,
          "time": 653.5,
          "velocity": 1,
          "duration": 0.5
        },
        {
          "name": "A5",
          "midi": 81,
          "time": 654,
          "velocity": 1,
          "duration": 0.5
        },
        {
          "name": "A5",
          "midi": 81,
          "time": 654.5,
          "velocity": 1,
          "duration": 0.5
        },
        {
          "name": "A5",
          "midi": 81,
          "time": 655,
          "velocity": 1,
          "duration": 0.5
        },
        {
          "name": "A5",
          "midi": 81,
          "time": 655.5,
          "velocity": 1,
          "duration": 0.5
        },
        {
          "name": "A5",
          "midi": 81,
          "time": 656,
          "velocity": 1,
          "duration": 0.5
        },
        {
          "name": "A5",
          "midi": 81,
          "time": 656.5,
          "velocity": 1,
          "duration": 0.5
        },
        {
          "name": "A5",
          "midi": 81,
          "time": 657,
          "velocity": 1,
          "duration": 0.5
        },
        {
          "name": "A5",
          "midi": 81,
          "time": 657.5,
          "velocity": 1,
          "duration": 0.5
        },
        {
          "name": "A5",
          "midi": 81,
          "time": 658,
          "velocity": 1,
          "duration": 0.5
        },
        {
          "name": "A5",
          "midi": 81,
          "time": 658.5,
          "velocity": 1,
          "duration": 0.5
        },
        {
          "name": "A5",
          "midi": 81,
          "time": 659,
          "velocity": 1,
          "duration": 0.5
        },
        {
          "name": "A5",
          "midi": 81,
          "time": 659.5,
          "velocity": 1,
          "duration": 0.5
        },
        {
          "name": "A5",
          "midi": 81,
          "time": 660,
          "velocity": 1,
          "duration": 0.5
        },
        {
          "name": "A5",
          "midi": 81,
          "time": 660.5,
          "velocity": 1,
          "duration": 0.5
        },
        {
          "name": "A5",
          "midi": 81,
          "time": 661,
          "velocity": 1,
          "duration": 0.5
        },
        {
          "name": "A5",
          "midi": 81,
          "time": 661.5,
          "velocity": 1,
          "duration": 0.5
        },
        {
          "name": "A5",
          "midi": 81,
          "time": 662,
          "velocity": 1,
          "duration": 0.5
        },
        {
          "name": "A5",
          "midi": 81,
          "time": 662.5,
          "velocity": 1,
          "duration": 0.5
        },
        {
          "name": "A5",
          "midi": 81,
          "time": 663,
          "velocity": 1,
          "duration": 0.5
        },
        {
          "name": "A5",
          "midi": 81,
          "time": 663.5,
          "velocity": 1,
          "duration": 0.5
        },
        {
          "name": "A5",
          "midi": 81,
          "time": 664,
          "velocity": 1,
          "duration": 0.5
        },
        {
          "name": "A5",
          "midi": 81,
          "time": 664.5,
          "velocity": 1,
          "duration": 0.5
        },
        {
          "name": "A5",
          "midi": 81,
          "time": 665,
          "velocity": 1,
          "duration": 0.5
        },
        {
          "name": "A5",
          "midi": 81,
          "time": 665.5,
          "velocity": 1,
          "duration": 0.5
        },
        {
          "name": "A5",
          "midi": 81,
          "time": 666,
          "velocity": 1,
          "duration": 0.5
        },
        {
          "name": "A5",
          "midi": 81,
          "time": 666.5,
          "velocity": 1,
          "duration": 0.5
        },
        {
          "name": "A5",
          "midi": 81,
          "time": 667,
          "velocity": 1,
          "duration": 0.5
        },
        {
          "name": "A5",
          "midi": 81,
          "time": 667.5,
          "velocity": 1,
          "duration": 0.5
        },
        {
          "name": "A5",
          "midi": 81,
          "time": 668,
          "velocity": 1,
          "duration": 0.5
        },
        {
          "name": "A5",
          "midi": 81,
          "time": 668.5,
          "velocity": 1,
          "duration": 0.5
        },
        {
          "name": "A5",
          "midi": 81,
          "time": 669,
          "velocity": 1,
          "duration": 0.5
        },
        {
          "name": "A5",
          "midi": 81,
          "time": 669.5,
          "velocity": 1,
          "duration": 0.5
        },
        {
          "name": "A5",
          "midi": 81,
          "time": 670,
          "velocity": 1,
          "duration": 0.5
        },
        {
          "name": "A5",
          "midi": 81,
          "time": 670.5,
          "velocity": 1,
          "duration": 0.5
        },
        {
          "name": "A5",
          "midi": 81,
          "time": 671,
          "velocity": 1,
          "duration": 0.5
        },
        {
          "name": "A5",
          "midi": 81,
          "time": 671.5,
          "velocity": 1,
          "duration": 0.5
        },
        {
          "name": "A5",
          "midi": 81,
          "time": 672,
          "velocity": 1,
          "duration": 0.5
        },
        {
          "name": "A5",
          "midi": 81,
          "time": 672.5,
          "velocity": 1,
          "duration": 0.5
        },
        {
          "name": "A5",
          "midi": 81,
          "time": 673,
          "velocity": 1,
          "duration": 0.5
        },
        {
          "name": "A5",
          "midi": 81,
          "time": 673.5,
          "velocity": 1,
          "duration": 0.5
        },
        {
          "name": "A5",
          "midi": 81,
          "time": 674,
          "velocity": 1,
          "duration": 0.5
        },
        {
          "name": "A5",
          "midi": 81,
          "time": 674.5,
          "velocity": 1,
          "duration": 0.5
        },
        {
          "name": "A5",
          "midi": 81,
          "time": 675,
          "velocity": 1,
          "duration": 0.5
        },
        {
          "name": "A5",
          "midi": 81,
          "time": 675.5,
          "velocity": 1,
          "duration": 0.5
        },
        {
          "name": "A5",
          "midi": 81,
          "time": 676,
          "velocity": 1,
          "duration": 0.5
        },
        {
          "name": "A5",
          "midi": 81,
          "time": 676.5,
          "velocity": 1,
          "duration": 0.5
        },
        {
          "name": "A5",
          "midi": 81,
          "time": 677,
          "velocity": 1,
          "duration": 0.5
        },
        {
          "name": "A5",
          "midi": 81,
          "time": 677.5,
          "velocity": 1,
          "duration": 0.5
        },
        {
          "name": "A5",
          "midi": 81,
          "time": 678,
          "velocity": 1,
          "duration": 0.5
        },
        {
          "name": "A5",
          "midi": 81,
          "time": 678.5,
          "velocity": 1,
          "duration": 0.5
        },
        {
          "name": "A5",
          "midi": 81,
          "time": 679,
          "velocity": 1,
          "duration": 0.5
        },
        {
          "name": "A5",
          "midi": 81,
          "time": 679.5,
          "velocity": 1,
          "duration": 0.5
        },
        {
          "name": "A5",
          "midi": 81,
          "time": 680,
          "velocity": 1,
          "duration": 0.5
        },
        {
          "name": "A5",
          "midi": 81,
          "time": 680.5,
          "velocity": 1,
          "duration": 0.5
        },
        {
          "name": "A5",
          "midi": 81,
          "time": 681,
          "velocity": 1,
          "duration": 0.5
        },
        {
          "name": "A5",
          "midi": 81,
          "time": 681.5,
          "velocity": 1,
          "duration": 0.5
        },
        {
          "name": "A5",
          "midi": 81,
          "time": 682,
          "velocity": 1,
          "duration": 0.5
        },
        {
          "name": "A5",
          "midi": 81,
          "time": 682.5,
          "velocity": 1,
          "duration": 0.5
        },
        {
          "name": "A5",
          "midi": 81,
          "time": 683,
          "velocity": 1,
          "duration": 0.5
        },
        {
          "name": "A5",
          "midi": 81,
          "time": 683.5,
          "velocity": 1,
          "duration": 0.5
        },
        {
          "name": "A5",
          "midi": 81,
          "time": 684,
          "velocity": 1,
          "duration": 0.5
        },
        {
          "name": "A5",
          "midi": 81,
          "time": 684.5,
          "velocity": 1,
          "duration": 0.5
        },
        {
          "name": "A5",
          "midi": 81,
          "time": 685,
          "velocity": 1,
          "duration": 0.5
        },
        {
          "name": "A5",
          "midi": 81,
          "time": 685.5,
          "velocity": 1,
          "duration": 0.5
        },
        {
          "name": "A5",
          "midi": 81,
          "time": 686,
          "velocity": 1,
          "duration": 0.5
        },
        {
          "name": "A5",
          "midi": 81,
          "time": 686.5,
          "velocity": 1,
          "duration": 0.5
        },
        {
          "name": "A5",
          "midi": 81,
          "time": 687,
          "velocity": 1,
          "duration": 0.5
        },
        {
          "name": "A5",
          "midi": 81,
          "time": 687.5,
          "velocity": 1,
          "duration": 0.5
        },
        {
          "name": "A5",
          "midi": 81,
          "time": 688,
          "velocity": 1,
          "duration": 0.5
        },
        {
          "name": "A5",
          "midi": 81,
          "time": 688.5,
          "velocity": 1,
          "duration": 0.5
        },
        {
          "name": "A5",
          "midi": 81,
          "time": 689,
          "velocity": 1,
          "duration": 0.5
        },
        {
          "name": "A5",
          "midi": 81,
          "time": 689.5,
          "velocity": 1,
          "duration": 0.5
        },
        {
          "name": "A5",
          "midi": 81,
          "time": 690,
          "velocity": 1,
          "duration": 0.5
        },
        {
          "name": "A5",
          "midi": 81,
          "time": 690.5,
          "velocity": 1,
          "duration": 0.5
        },
        {
          "name": "A5",
          "midi": 81,
          "time": 691,
          "velocity": 1,
          "duration": 0.5
        },
        {
          "name": "A5",
          "midi": 81,
          "time": 691.5,
          "velocity": 1,
          "duration": 0.5
        },
        {
          "name": "A5",
          "midi": 81,
          "time": 692,
          "velocity": 1,
          "duration": 0.5
        },
        {
          "name": "A5",
          "midi": 81,
          "time": 692.5,
          "velocity": 1,
          "duration": 0.5
        },
        {
          "name": "A5",
          "midi": 81,
          "time": 693,
          "velocity": 1,
          "duration": 0.5
        },
        {
          "name": "A5",
          "midi": 81,
          "time": 693.5,
          "velocity": 1,
          "duration": 0.5
        },
        {
          "name": "A5",
          "midi": 81,
          "time": 694,
          "velocity": 1,
          "duration": 0.5
        },
        {
          "name": "A5",
          "midi": 81,
          "time": 694.5,
          "velocity": 1,
          "duration": 0.5
        },
        {
          "name": "A5",
          "midi": 81,
          "time": 695,
          "velocity": 1,
          "duration": 0.5
        },
        {
          "name": "A5",
          "midi": 81,
          "time": 695.5,
          "velocity": 1,
          "duration": 0.5
        },
        {
          "name": "A5",
          "midi": 81,
          "time": 696,
          "velocity": 1,
          "duration": 0.5
        },
        {
          "name": "A5",
          "midi": 81,
          "time": 696.5,
          "velocity": 1,
          "duration": 0.5
        },
        {
          "name": "A5",
          "midi": 81,
          "time": 697,
          "velocity": 1,
          "duration": 0.5
        },
        {
          "name": "A5",
          "midi": 81,
          "time": 697.5,
          "velocity": 1,
          "duration": 0.5
        },
        {
          "name": "A5",
          "midi": 81,
          "time": 698,
          "velocity": 1,
          "duration": 0.5
        },
        {
          "name": "A5",
          "midi": 81,
          "time": 698.5,
          "velocity": 1,
          "duration": 0.5
        },
        {
          "name": "A5",
          "midi": 81,
          "time": 699,
          "velocity": 1,
          "duration": 0.5
        },
        {
          "name": "A5",
          "midi": 81,
          "time": 699.5,
          "velocity": 1,
          "duration": 0.5
        },
        {
          "name": "A5",
          "midi": 81,
          "time": 700,
          "velocity": 1,
          "duration": 0.5
        },
        {
          "name": "A5",
          "midi": 81,
          "time": 700.5,
          "velocity": 1,
          "duration": 0.5
        },
        {
          "name": "A5",
          "midi": 81,
          "time": 701,
          "velocity": 1,
          "duration": 0.5
        },
        {
          "name": "A5",
          "midi": 81,
          "time": 701.5,
          "velocity": 1,
          "duration": 0.5
        },
        {
          "name": "A5",
          "midi": 81,
          "time": 702,
          "velocity": 1,
          "duration": 0.5
        },
        {
          "name": "A5",
          "midi": 81,
          "time": 702.5,
          "velocity": 1,
          "duration": 0.5
        },
        {
          "name": "A5",
          "midi": 81,
          "time": 703,
          "velocity": 1,
          "duration": 0.5
        },
        {
          "name": "A5",
          "midi": 81,
          "time": 703.5,
          "velocity": 1,
          "duration": 0.5
        },
        {
          "name": "A5",
          "midi": 81,
          "time": 704,
          "velocity": 1,
          "duration": 0.5
        },
        {
          "name": "A5",
          "midi": 81,
          "time": 704.5,
          "velocity": 1,
          "duration": 0.5
        },
        {
          "name": "A5",
          "midi": 81,
          "time": 705,
          "velocity": 1,
          "duration": 0.5
        },
        {
          "name": "A5",
          "midi": 81,
          "time": 705.5,
          "velocity": 1,
          "duration": 0.5
        },
        {
          "name": "A5",
          "midi": 81,
          "time": 706,
          "velocity": 1,
          "duration": 0.5
        },
        {
          "name": "A5",
          "midi": 81,
          "time": 706.5,
          "velocity": 1,
          "duration": 0.5
        },
        {
          "name": "A5",
          "midi": 81,
          "time": 707,
          "velocity": 1,
          "duration": 0.5
        },
        {
          "name": "A5",
          "midi": 81,
          "time": 707.5,
          "velocity": 1,
          "duration": 0.5
        },
        {
          "name": "A5",
          "midi": 81,
          "time": 708,
          "velocity": 1,
          "duration": 0.5
        },
        {
          "name": "A5",
          "midi": 81,
          "time": 708.5,
          "velocity": 1,
          "duration": 0.5
        },
        {
          "name": "A5",
          "midi": 81,
          "time": 709,
          "velocity": 1,
          "duration": 0.5
        },
        {
          "name": "A5",
          "midi": 81,
          "time": 709.5,
          "velocity": 1,
          "duration": 0.5
        },
        {
          "name": "A5",
          "midi": 81,
          "time": 710,
          "velocity": 1,
          "duration": 0.5
        },
        {
          "name": "A5",
          "midi": 81,
          "time": 710.5,
          "velocity": 1,
          "duration": 0.5
        },
        {
          "name": "A5",
          "midi": 81,
          "time": 711,
          "velocity": 1,
          "duration": 0.5
        },
        {
          "name": "A5",
          "midi": 81,
          "time": 711.5,
          "velocity": 1,
          "duration": 0.5
        },
        {
          "name": "A5",
          "midi": 81,
          "time": 712,
          "velocity": 1,
          "duration": 0.5
        },
        {
          "name": "A5",
          "midi": 81,
          "time": 712.5,
          "velocity": 1,
          "duration": 0.5
        },
        {
          "name": "A5",
          "midi": 81,
          "time": 713,
          "velocity": 1,
          "duration": 0.5
        },
        {
          "name": "A5",
          "midi": 81,
          "time": 713.5,
          "velocity": 1,
          "duration": 0.5
        },
        {
          "name": "A5",
          "midi": 81,
          "time": 714,
          "velocity": 1,
          "duration": 0.5
        },
        {
          "name": "A5",
          "midi": 81,
          "time": 714.5,
          "velocity": 1,
          "duration": 0.5
        },
        {
          "name": "A5",
          "midi": 81,
          "time": 715,
          "velocity": 1,
          "duration": 0.5
        },
        {
          "name": "A5",
          "midi": 81,
          "time": 715.5,
          "velocity": 1,
          "duration": 0.5
        },
        {
          "name": "A5",
          "midi": 81,
          "time": 716,
          "velocity": 1,
          "duration": 0.5
        },
        {
          "name": "A5",
          "midi": 81,
          "time": 716.5,
          "velocity": 1,
          "duration": 0.5
        },
        {
          "name": "A5",
          "midi": 81,
          "time": 717,
          "velocity": 1,
          "duration": 0.5
        },
        {
          "name": "A5",
          "midi": 81,
          "time": 717.5,
          "velocity": 1,
          "duration": 0.5
        },
        {
          "name": "A5",
          "midi": 81,
          "time": 718,
          "velocity": 1,
          "duration": 0.5
        },
        {
          "name": "A5",
          "midi": 81,
          "time": 718.5,
          "velocity": 1,
          "duration": 0.5
        },
        {
          "name": "A5",
          "midi": 81,
          "time": 719,
          "velocity": 1,
          "duration": 0.5
        },
        {
          "name": "A5",
          "midi": 81,
          "time": 719.5,
          "velocity": 1,
          "duration": 0.5
        },
        {
          "name": "A5",
          "midi": 81,
          "time": 720,
          "velocity": 1,
          "duration": 0.5
        },
        {
          "name": "A5",
          "midi": 81,
          "time": 720.5,
          "velocity": 1,
          "duration": 0.5
        },
        {
          "name": "A5",
          "midi": 81,
          "time": 721,
          "velocity": 1,
          "duration": 0.5
        },
        {
          "name": "A5",
          "midi": 81,
          "time": 721.5,
          "velocity": 1,
          "duration": 0.5
        },
        {
          "name": "A5",
          "midi": 81,
          "time": 722,
          "velocity": 1,
          "duration": 0.5
        },
        {
          "name": "A5",
          "midi": 81,
          "time": 722.5,
          "velocity": 1,
          "duration": 0.5
        },
        {
          "name": "A5",
          "midi": 81,
          "time": 723,
          "velocity": 1,
          "duration": 0.5
        },
        {
          "name": "A5",
          "midi": 81,
          "time": 723.5,
          "velocity": 1,
          "duration": 0.5
        },
        {
          "name": "A5",
          "midi": 81,
          "time": 724,
          "velocity": 1,
          "duration": 0.5
        },
        {
          "name": "A5",
          "midi": 81,
          "time": 724.5,
          "velocity": 1,
          "duration": 0.5
        },
        {
          "name": "A5",
          "midi": 81,
          "time": 725,
          "velocity": 1,
          "duration": 0.5
        },
        {
          "name": "A5",
          "midi": 81,
          "time": 725.5,
          "velocity": 1,
          "duration": 0.5
        },
        {
          "name": "A5",
          "midi": 81,
          "time": 726,
          "velocity": 1,
          "duration": 0.5
        },
        {
          "name": "A5",
          "midi": 81,
          "time": 726.5,
          "velocity": 1,
          "duration": 0.5
        },
        {
          "name": "A5",
          "midi": 81,
          "time": 727,
          "velocity": 1,
          "duration": 0.5
        },
        {
          "name": "A5",
          "midi": 81,
          "time": 727.5,
          "velocity": 1,
          "duration": 0.5
        },
        {
          "name": "A5",
          "midi": 81,
          "time": 728,
          "velocity": 1,
          "duration": 0.5
        },
        {
          "name": "A5",
          "midi": 81,
          "time": 728.5,
          "velocity": 1,
          "duration": 0.5
        },
        {
          "name": "A5",
          "midi": 81,
          "time": 729,
          "velocity": 1,
          "duration": 0.5
        },
        {
          "name": "A5",
          "midi": 81,
          "time": 729.5,
          "velocity": 1,
          "duration": 0.5
        },
        {
          "name": "A5",
          "midi": 81,
          "time": 730,
          "velocity": 1,
          "duration": 0.5
        },
        {
          "name": "A5",
          "midi": 81,
          "time": 730.5,
          "velocity": 1,
          "duration": 0.5
        },
        {
          "name": "A5",
          "midi": 81,
          "time": 731,
          "velocity": 1,
          "duration": 0.5
        },
        {
          "name": "A5",
          "midi": 81,
          "time": 731.5,
          "velocity": 1,
          "duration": 0.5
        },
        {
          "name": "A5",
          "midi": 81,
          "time": 732,
          "velocity": 1,
          "duration": 0.5
        },
        {
          "name": "A5",
          "midi": 81,
          "time": 732.5,
          "velocity": 1,
          "duration": 0.5
        },
        {
          "name": "A5",
          "midi": 81,
          "time": 733,
          "velocity": 1,
          "duration": 0.5
        },
        {
          "name": "A5",
          "midi": 81,
          "time": 733.5,
          "velocity": 1,
          "duration": 0.5
        },
        {
          "name": "A5",
          "midi": 81,
          "time": 734,
          "velocity": 1,
          "duration": 0.5
        },
        {
          "name": "A5",
          "midi": 81,
          "time": 734.5,
          "velocity": 1,
          "duration": 0.5
        },
        {
          "name": "A5",
          "midi": 81,
          "time": 735,
          "velocity": 1,
          "duration": 0.5
        },
        {
          "name": "A5",
          "midi": 81,
          "time": 735.5,
          "velocity": 1,
          "duration": 0.5
        },
        {
          "name": "A5",
          "midi": 81,
          "time": 736,
          "velocity": 1,
          "duration": 0.5
        },
        {
          "name": "A5",
          "midi": 81,
          "time": 736.5,
          "velocity": 1,
          "duration": 0.5
        },
        {
          "name": "A5",
          "midi": 81,
          "time": 737,
          "velocity": 1,
          "duration": 0.5
        },
        {
          "name": "A5",
          "midi": 81,
          "time": 737.5,
          "velocity": 1,
          "duration": 0.5
        },
        {
          "name": "A5",
          "midi": 81,
          "time": 738,
          "velocity": 1,
          "duration": 0.5
        },
        {
          "name": "A5",
          "midi": 81,
          "time": 738.5,
          "velocity": 1,
          "duration": 0.5
        },
        {
          "name": "A5",
          "midi": 81,
          "time": 739,
          "velocity": 1,
          "duration": 0.5
        },
        {
          "name": "A5",
          "midi": 81,
          "time": 739.5,
          "velocity": 1,
          "duration": 0.5
        },
        {
          "name": "A5",
          "midi": 81,
          "time": 740,
          "velocity": 1,
          "duration": 0.5
        },
        {
          "name": "A5",
          "midi": 81,
          "time": 740.5,
          "velocity": 1,
          "duration": 0.5
        },
        {
          "name": "A5",
          "midi": 81,
          "time": 741,
          "velocity": 1,
          "duration": 0.5
        },
        {
          "name": "A5",
          "midi": 81,
          "time": 741.5,
          "velocity": 1,
          "duration": 0.5
        },
        {
          "name": "A5",
          "midi": 81,
          "time": 742,
          "velocity": 1,
          "duration": 0.5
        },
        {
          "name": "A5",
          "midi": 81,
          "time": 742.5,
          "velocity": 1,
          "duration": 0.5
        },
        {
          "name": "A5",
          "midi": 81,
          "time": 743,
          "velocity": 1,
          "duration": 0.5
        },
        {
          "name": "A5",
          "midi": 81,
          "time": 743.5,
          "velocity": 1,
          "duration": 0.5
        },
        {
          "name": "A5",
          "midi": 81,
          "time": 744,
          "velocity": 1,
          "duration": 0.5
        },
        {
          "name": "A5",
          "midi": 81,
          "time": 744.5,
          "velocity": 1,
          "duration": 0.5
        },
        {
          "name": "A5",
          "midi": 81,
          "time": 745,
          "velocity": 1,
          "duration": 0.5
        },
        {
          "name": "A5",
          "midi": 81,
          "time": 745.5,
          "velocity": 1,
          "duration": 0.5
        },
        {
          "name": "A5",
          "midi": 81,
          "time": 746,
          "velocity": 1,
          "duration": 0.5
        },
        {
          "name": "A5",
          "midi": 81,
          "time": 746.5,
          "velocity": 1,
          "duration": 0.5
        },
        {
          "name": "A5",
          "midi": 81,
          "time": 747,
          "velocity": 1,
          "duration": 0.5
        },
        {
          "name": "A5",
          "midi": 81,
          "time": 747.5,
          "velocity": 1,
          "duration": 0.5
        },
        {
          "name": "A5",
          "midi": 81,
          "time": 748,
          "velocity": 1,
          "duration": 0.5
        },
        {
          "name": "A5",
          "midi": 81,
          "time": 748.5,
          "velocity": 1,
          "duration": 0.5
        },
        {
          "name": "A5",
          "midi": 81,
          "time": 749,
          "velocity": 1,
          "duration": 0.5
        },
        {
          "name": "A5",
          "midi": 81,
          "time": 749.5,
          "velocity": 1,
          "duration": 0.5
        },
        {
          "name": "A5",
          "midi": 81,
          "time": 750,
          "velocity": 1,
          "duration": 0.5
        },
        {
          "name": "A5",
          "midi": 81,
          "time": 750.5,
          "velocity": 1,
          "duration": 0.5
        },
        {
          "name": "A5",
          "midi": 81,
          "time": 751,
          "velocity": 1,
          "duration": 0.5
        },
        {
          "name": "A5",
          "midi": 81,
          "time": 751.5,
          "velocity": 1,
          "duration": 0.5
        },
        {
          "name": "A5",
          "midi": 81,
          "time": 752,
          "velocity": 1,
          "duration": 0.5
        },
        {
          "name": "A5",
          "midi": 81,
          "time": 752.5,
          "velocity": 1,
          "duration": 0.5
        },
        {
          "name": "A5",
          "midi": 81,
          "time": 753,
          "velocity": 1,
          "duration": 0.5
        },
        {
          "name": "A5",
          "midi": 81,
          "time": 753.5,
          "velocity": 1,
          "duration": 0.5
        },
        {
          "name": "A5",
          "midi": 81,
          "time": 754,
          "velocity": 1,
          "duration": 0.5
        },
        {
          "name": "A5",
          "midi": 81,
          "time": 754.5,
          "velocity": 1,
          "duration": 0.5
        },
        {
          "name": "A5",
          "midi": 81,
          "time": 755,
          "velocity": 1,
          "duration": 0.5
        },
        {
          "name": "A5",
          "midi": 81,
          "time": 755.5,
          "velocity": 1,
          "duration": 0.5
        },
        {
          "name": "A5",
          "midi": 81,
          "time": 756,
          "velocity": 1,
          "duration": 0.5
        },
        {
          "name": "A5",
          "midi": 81,
          "time": 756.5,
          "velocity": 1,
          "duration": 0.5
        },
        {
          "name": "A5",
          "midi": 81,
          "time": 757,
          "velocity": 1,
          "duration": 0.5
        },
        {
          "name": "A5",
          "midi": 81,
          "time": 757.5,
          "velocity": 1,
          "duration": 0.5
        },
        {
          "name": "A5",
          "midi": 81,
          "time": 758,
          "velocity": 1,
          "duration": 0.5
        },
        {
          "name": "A5",
          "midi": 81,
          "time": 758.5,
          "velocity": 1,
          "duration": 0.5
        },
        {
          "name": "A5",
          "midi": 81,
          "time": 759,
          "velocity": 1,
          "duration": 0.5
        },
        {
          "name": "A5",
          "midi": 81,
          "time": 759.5,
          "velocity": 1,
          "duration": 0.5
        },
        {
          "name": "A5",
          "midi": 81,
          "time": 760,
          "velocity": 1,
          "duration": 0.5
        },
        {
          "name": "A5",
          "midi": 81,
          "time": 760.5,
          "velocity": 1,
          "duration": 0.5
        },
        {
          "name": "A5",
          "midi": 81,
          "time": 761,
          "velocity": 1,
          "duration": 0.5
        },
        {
          "name": "A5",
          "midi": 81,
          "time": 761.5,
          "velocity": 1,
          "duration": 0.5
        },
        {
          "name": "A5",
          "midi": 81,
          "time": 762,
          "velocity": 1,
          "duration": 0.5
        },
        {
          "name": "A5",
          "midi": 81,
          "time": 762.5,
          "velocity": 1,
          "duration": 0.5
        },
        {
          "name": "A5",
          "midi": 81,
          "time": 763,
          "velocity": 1,
          "duration": 0.5
        },
        {
          "name": "A5",
          "midi": 81,
          "time": 763.5,
          "velocity": 1,
          "duration": 0.5
        },
        {
          "name": "A5",
          "midi": 81,
          "time": 764,
          "velocity": 1,
          "duration": 0.5
        },
        {
          "name": "A5",
          "midi": 81,
          "time": 764.5,
          "velocity": 1,
          "duration": 0.5
        },
        {
          "name": "A5",
          "midi": 81,
          "time": 765,
          "velocity": 1,
          "duration": 0.5
        },
        {
          "name": "A5",
          "midi": 81,
          "time": 765.5,
          "velocity": 1,
          "duration": 0.5
        },
        {
          "name": "A5",
          "midi": 81,
          "time": 766,
          "velocity": 1,
          "duration": 0.5
        },
        {
          "name": "A5",
          "midi": 81,
          "time": 766.5,
          "velocity": 1,
          "duration": 0.5
        },
        {
          "name": "A5",
          "midi": 81,
          "time": 767,
          "velocity": 1,
          "duration": 0.5
        },
        {
          "name": "A5",
          "midi": 81,
          "time": 767.5,
          "velocity": 1,
          "duration": 0.5
        },
        {
          "name": "A5",
          "midi": 81,
          "time": 768,
          "velocity": 1,
          "duration": 0.5
        },
        {
          "name": "A5",
          "midi": 81,
          "time": 768.5,
          "velocity": 1,
          "duration": 0.5
        },
        {
          "name": "A5",
          "midi": 81,
          "time": 769,
          "velocity": 1,
          "duration": 0.5
        },
        {
          "name": "A5",
          "midi": 81,
          "time": 769.5,
          "velocity": 1,
          "duration": 0.5
        },
        {
          "name": "A5",
          "midi": 81,
          "time": 770,
          "velocity": 1,
          "duration": 0.5
        },
        {
          "name": "A5",
          "midi": 81,
          "time": 770.5,
          "velocity": 1,
          "duration": 0.5
        },
        {
          "name": "A5",
          "midi": 81,
          "time": 771,
          "velocity": 1,
          "duration": 0.5
        },
        {
          "name": "A5",
          "midi": 81,
          "time": 771.5,
          "velocity": 1,
          "duration": 0.5
        },
        {
          "name": "A5",
          "midi": 81,
          "time": 772,
          "velocity": 1,
          "duration": 0.5
        },
        {
          "name": "A5",
          "midi": 81,
          "time": 772.5,
          "velocity": 1,
          "duration": 0.5
        },
        {
          "name": "A5",
          "midi": 81,
          "time": 773,
          "velocity": 1,
          "duration": 0.5
        },
        {
          "name": "A5",
          "midi": 81,
          "time": 773.5,
          "velocity": 1,
          "duration": 0.5
        },
        {
          "name": "A5",
          "midi": 81,
          "time": 774,
          "velocity": 1,
          "duration": 0.5
        },
        {
          "name": "A5",
          "midi": 81,
          "time": 774.5,
          "velocity": 1,
          "duration": 0.5
        },
        {
          "name": "A5",
          "midi": 81,
          "time": 775,
          "velocity": 1,
          "duration": 0.5
        },
        {
          "name": "A5",
          "midi": 81,
          "time": 775.5,
          "velocity": 1,
          "duration": 0.5
        },
        {
          "name": "A5",
          "midi": 81,
          "time": 776,
          "velocity": 1,
          "duration": 0.5
        },
        {
          "name": "A5",
          "midi": 81,
          "time": 776.5,
          "velocity": 1,
          "duration": 0.5
        },
        {
          "name": "A5",
          "midi": 81,
          "time": 777,
          "velocity": 1,
          "duration": 0.5
        },
        {
          "name": "A5",
          "midi": 81,
          "time": 777.5,
          "velocity": 1,
          "duration": 0.5
        },
        {
          "name": "A5",
          "midi": 81,
          "time": 778,
          "velocity": 1,
          "duration": 0.5
        },
        {
          "name": "A5",
          "midi": 81,
          "time": 778.5,
          "velocity": 1,
          "duration": 0.5
        },
        {
          "name": "A5",
          "midi": 81,
          "time": 779,
          "velocity": 1,
          "duration": 0.5
        },
        {
          "name": "A5",
          "midi": 81,
          "time": 779.5,
          "velocity": 1,
          "duration": 0.5
        },
        {
          "name": "A5",
          "midi": 81,
          "time": 780,
          "velocity": 1,
          "duration": 0.5
        },
        {
          "name": "A5",
          "midi": 81,
          "time": 780.5,
          "velocity": 1,
          "duration": 0.5
        },
        {
          "name": "A5",
          "midi": 81,
          "time": 781,
          "velocity": 1,
          "duration": 0.5
        },
        {
          "name": "A5",
          "midi": 81,
          "time": 781.5,
          "velocity": 1,
          "duration": 0.5
        },
        {
          "name": "A5",
          "midi": 81,
          "time": 782,
          "velocity": 1,
          "duration": 0.5
        },
        {
          "name": "A5",
          "midi": 81,
          "time": 782.5,
          "velocity": 1,
          "duration": 0.5
        },
        {
          "name": "A5",
          "midi": 81,
          "time": 783,
          "velocity": 1,
          "duration": 0.5
        },
        {
          "name": "A5",
          "midi": 81,
          "time": 783.5,
          "velocity": 1,
          "duration": 0.5
        },
        {
          "name": "A5",
          "midi": 81,
          "time": 784,
          "velocity": 1,
          "duration": 0.5
        },
        {
          "name": "A5",
          "midi": 81,
          "time": 784.5,
          "velocity": 1,
          "duration": 0.5
        },
        {
          "name": "A5",
          "midi": 81,
          "time": 785,
          "velocity": 1,
          "duration": 0.5
        },
        {
          "name": "A5",
          "midi": 81,
          "time": 785.5,
          "velocity": 1,
          "duration": 0.5
        },
        {
          "name": "A5",
          "midi": 81,
          "time": 786,
          "velocity": 1,
          "duration": 0.5
        },
        {
          "name": "A5",
          "midi": 81,
          "time": 786.5,
          "velocity": 1,
          "duration": 0.5
        },
        {
          "name": "A5",
          "midi": 81,
          "time": 787,
          "velocity": 1,
          "duration": 0.5
        },
        {
          "name": "A5",
          "midi": 81,
          "time": 787.5,
          "velocity": 1,
          "duration": 0.5
        },
        {
          "name": "A5",
          "midi": 81,
          "time": 788,
          "velocity": 1,
          "duration": 0.5
        },
        {
          "name": "A5",
          "midi": 81,
          "time": 788.5,
          "velocity": 1,
          "duration": 0.5
        },
        {
          "name": "A5",
          "midi": 81,
          "time": 789,
          "velocity": 1,
          "duration": 0.5
        },
        {
          "name": "A5",
          "midi": 81,
          "time": 789.5,
          "velocity": 1,
          "duration": 0.5
        },
        {
          "name": "A5",
          "midi": 81,
          "time": 790,
          "velocity": 1,
          "duration": 0.5
        },
        {
          "name": "A5",
          "midi": 81,
          "time": 790.5,
          "velocity": 1,
          "duration": 0.5
        },
        {
          "name": "A5",
          "midi": 81,
          "time": 791,
          "velocity": 1,
          "duration": 0.5
        },
        {
          "name": "A5",
          "midi": 81,
          "time": 791.5,
          "velocity": 1,
          "duration": 0.5
        },
        {
          "name": "A5",
          "midi": 81,
          "time": 792,
          "velocity": 1,
          "duration": 0.5
        },
        {
          "name": "A5",
          "midi": 81,
          "time": 792.5,
          "velocity": 1,
          "duration": 0.5
        },
        {
          "name": "A5",
          "midi": 81,
          "time": 793,
          "velocity": 1,
          "duration": 0.5
        },
        {
          "name": "A5",
          "midi": 81,
          "time": 793.5,
          "velocity": 1,
          "duration": 0.5
        },
        {
          "name": "A5",
          "midi": 81,
          "time": 794,
          "velocity": 1,
          "duration": 0.5
        },
        {
          "name": "A5",
          "midi": 81,
          "time": 794.5,
          "velocity": 1,
          "duration": 0.5
        },
        {
          "name": "A5",
          "midi": 81,
          "time": 795,
          "velocity": 1,
          "duration": 0.5
        },
        {
          "name": "A5",
          "midi": 81,
          "time": 795.5,
          "velocity": 1,
          "duration": 0.5
        },
        {
          "name": "A5",
          "midi": 81,
          "time": 796,
          "velocity": 1,
          "duration": 0.5
        },
        {
          "name": "A5",
          "midi": 81,
          "time": 796.5,
          "velocity": 1,
          "duration": 0.5
        },
        {
          "name": "A5",
          "midi": 81,
          "time": 797,
          "velocity": 1,
          "duration": 0.5
        },
        {
          "name": "A5",
          "midi": 81,
          "time": 797.5,
          "velocity": 1,
          "duration": 0.5
        },
        {
          "name": "A5",
          "midi": 81,
          "time": 798,
          "velocity": 1,
          "duration": 0.5
        },
        {
          "name": "A5",
          "midi": 81,
          "time": 798.5,
          "velocity": 1,
          "duration": 0.5
        },
        {
          "name": "A5",
          "midi": 81,
          "time": 799,
          "velocity": 1,
          "duration": 0.5
        },
        {
          "name": "A5",
          "midi": 81,
          "time": 799.5,
          "velocity": 1,
          "duration": 0.5
        },
        {
          "name": "A5",
          "midi": 81,
          "time": 800,
          "velocity": 1,
          "duration": 0.5
        },
        {
          "name": "A5",
          "midi": 81,
          "time": 800.5,
          "velocity": 1,
          "duration": 0.5
        },
        {
          "name": "A5",
          "midi": 81,
          "time": 801,
          "velocity": 1,
          "duration": 0.5
        },
        {
          "name": "A5",
          "midi": 81,
          "time": 801.5,
          "velocity": 1,
          "duration": 0.5
        },
        {
          "name": "A5",
          "midi": 81,
          "time": 802,
          "velocity": 1,
          "duration": 0.5
        },
        {
          "name": "A5",
          "midi": 81,
          "time": 802.5,
          "velocity": 1,
          "duration": 0.5
        },
        {
          "name": "A5",
          "midi": 81,
          "time": 803,
          "velocity": 1,
          "duration": 0.5
        },
        {
          "name": "A5",
          "midi": 81,
          "time": 803.5,
          "velocity": 1,
          "duration": 0.5
        },
        {
          "name": "A5",
          "midi": 81,
          "time": 804,
          "velocity": 1,
          "duration": 0.5
        },
        {
          "name": "A5",
          "midi": 81,
          "time": 804.5,
          "velocity": 1,
          "duration": 0.5
        },
        {
          "name": "A5",
          "midi": 81,
          "time": 805,
          "velocity": 1,
          "duration": 0.5
        },
        {
          "name": "A5",
          "midi": 81,
          "time": 805.5,
          "velocity": 1,
          "duration": 0.5
        },
        {
          "name": "A5",
          "midi": 81,
          "time": 806,
          "velocity": 1,
          "duration": 0.5
        },
        {
          "name": "A5",
          "midi": 81,
          "time": 806.5,
          "velocity": 1,
          "duration": 0.5
        },
        {
          "name": "A5",
          "midi": 81,
          "time": 807,
          "velocity": 1,
          "duration": 0.5
        },
        {
          "name": "A5",
          "midi": 81,
          "time": 807.5,
          "velocity": 1,
          "duration": 0.5
        },
        {
          "name": "A5",
          "midi": 81,
          "time": 808,
          "velocity": 1,
          "duration": 0.5
        },
        {
          "name": "A5",
          "midi": 81,
          "time": 808.5,
          "velocity": 1,
          "duration": 0.5
        },
        {
          "name": "A5",
          "midi": 81,
          "time": 809,
          "velocity": 1,
          "duration": 0.5
        },
        {
          "name": "A5",
          "midi": 81,
          "time": 809.5,
          "velocity": 1,
          "duration": 0.5
        },
        {
          "name": "A5",
          "midi": 81,
          "time": 810,
          "velocity": 1,
          "duration": 0.5
        },
        {
          "name": "A5",
          "midi": 81,
          "time": 810.5,
          "velocity": 1,
          "duration": 0.5
        },
        {
          "name": "A5",
          "midi": 81,
          "time": 811,
          "velocity": 1,
          "duration": 0.5
        },
        {
          "name": "A5",
          "midi": 81,
          "time": 811.5,
          "velocity": 1,
          "duration": 0.5
        },
        {
          "name": "A5",
          "midi": 81,
          "time": 812,
          "velocity": 1,
          "duration": 0.5
        },
        {
          "name": "A5",
          "midi": 81,
          "time": 812.5,
          "velocity": 1,
          "duration": 0.5
        },
        {
          "name": "A5",
          "midi": 81,
          "time": 813,
          "velocity": 1,
          "duration": 0.5
        },
        {
          "name": "A5",
          "midi": 81,
          "time": 813.5,
          "velocity": 1,
          "duration": 0.5
        },
        {
          "name": "A5",
          "midi": 81,
          "time": 814,
          "velocity": 1,
          "duration": 0.5
        },
        {
          "name": "A5",
          "midi": 81,
          "time": 814.5,
          "velocity": 1,
          "duration": 0.5
        },
        {
          "name": "A5",
          "midi": 81,
          "time": 815,
          "velocity": 1,
          "duration": 0.5
        },
        {
          "name": "A5",
          "midi": 81,
          "time": 815.5,
          "velocity": 1,
          "duration": 0.5
        },
        {
          "name": "A5",
          "midi": 81,
          "time": 816,
          "velocity": 1,
          "duration": 0.5
        },
        {
          "name": "A5",
          "midi": 81,
          "time": 816.5,
          "velocity": 1,
          "duration": 0.5
        },
        {
          "name": "A5",
          "midi": 81,
          "time": 817,
          "velocity": 1,
          "duration": 0.5
        },
        {
          "name": "A5",
          "midi": 81,
          "time": 817.5,
          "velocity": 1,
          "duration": 0.5
        },
        {
          "name": "A5",
          "midi": 81,
          "time": 818,
          "velocity": 1,
          "duration": 0.5
        },
        {
          "name": "A5",
          "midi": 81,
          "time": 818.5,
          "velocity": 1,
          "duration": 0.5
        },
        {
          "name": "A5",
          "midi": 81,
          "time": 819,
          "velocity": 1,
          "duration": 0.5
        },
        {
          "name": "A5",
          "midi": 81,
          "time": 819.5,
          "velocity": 1,
          "duration": 0.5
        },
        {
          "name": "A5",
          "midi": 81,
          "time": 820,
          "velocity": 1,
          "duration": 0.5
        },
        {
          "name": "A5",
          "midi": 81,
          "time": 820.5,
          "velocity": 1,
          "duration": 0.5
        },
        {
          "name": "A5",
          "midi": 81,
          "time": 821,
          "velocity": 1,
          "duration": 0.5
        },
        {
          "name": "A5",
          "midi": 81,
          "time": 821.5,
          "velocity": 1,
          "duration": 0.5
        },
        {
          "name": "A5",
          "midi": 81,
          "time": 822,
          "velocity": 1,
          "duration": 0.5
        },
        {
          "name": "A5",
          "midi": 81,
          "time": 822.5,
          "velocity": 1,
          "duration": 0.5
        },
        {
          "name": "A5",
          "midi": 81,
          "time": 823,
          "velocity": 1,
          "duration": 0.5
        },
        {
          "name": "A5",
          "midi": 81,
          "time": 823.5,
          "velocity": 1,
          "duration": 0.5
        },
        {
          "name": "A5",
          "midi": 81,
          "time": 824,
          "velocity": 1,
          "duration": 0.5
        },
        {
          "name": "A5",
          "midi": 81,
          "time": 824.5,
          "velocity": 1,
          "duration": 0.5
        },
        {
          "name": "A5",
          "midi": 81,
          "time": 825,
          "velocity": 1,
          "duration": 0.5
        },
        {
          "name": "A5",
          "midi": 81,
          "time": 825.5,
          "velocity": 1,
          "duration": 0.5
        },
        {
          "name": "A5",
          "midi": 81,
          "time": 826,
          "velocity": 1,
          "duration": 0.5
        },
        {
          "name": "A5",
          "midi": 81,
          "time": 826.5,
          "velocity": 1,
          "duration": 0.5
        },
        {
          "name": "A5",
          "midi": 81,
          "time": 827,
          "velocity": 1,
          "duration": 0.5
        },
        {
          "name": "A5",
          "midi": 81,
          "time": 827.5,
          "velocity": 1,
          "duration": 0.5
        },
        {
          "name": "A5",
          "midi": 81,
          "time": 828,
          "velocity": 1,
          "duration": 0.5
        },
        {
          "name": "A5",
          "midi": 81,
          "time": 828.5,
          "velocity": 1,
          "duration": 0.5
        },
        {
          "name": "A5",
          "midi": 81,
          "time": 829,
          "velocity": 1,
          "duration": 0.5
        },
        {
          "name": "A5",
          "midi": 81,
          "time": 829.5,
          "velocity": 1,
          "duration": 0.5
        },
        {
          "name": "A5",
          "midi": 81,
          "time": 830,
          "velocity": 1,
          "duration": 0.5
        },
        {
          "name": "A5",
          "midi": 81,
          "time": 830.5,
          "velocity": 1,
          "duration": 0.5
        },
        {
          "name": "A5",
          "midi": 81,
          "time": 831,
          "velocity": 1,
          "duration": 0.5
        },
        {
          "name": "A5",
          "midi": 81,
          "time": 831.5,
          "velocity": 1,
          "duration": 0.5
        },
        {
          "name": "A5",
          "midi": 81,
          "time": 832,
          "velocity": 1,
          "duration": 0.5
        },
        {
          "name": "A5",
          "midi": 81,
          "time": 832.5,
          "velocity": 1,
          "duration": 0.5
        },
        {
          "name": "A5",
          "midi": 81,
          "time": 833,
          "velocity": 1,
          "duration": 0.5
        },
        {
          "name": "A5",
          "midi": 81,
          "time": 833.5,
          "velocity": 1,
          "duration": 0.5
        },
        {
          "name": "A5",
          "midi": 81,
          "time": 834,
          "velocity": 1,
          "duration": 0.5
        },
        {
          "name": "A5",
          "midi": 81,
          "time": 834.5,
          "velocity": 1,
          "duration": 0.5
        },
        {
          "name": "A5",
          "midi": 81,
          "time": 835,
          "velocity": 1,
          "duration": 0.5
        },
        {
          "name": "A5",
          "midi": 81,
          "time": 835.5,
          "velocity": 1,
          "duration": 0.5
        },
        {
          "name": "A5",
          "midi": 81,
          "time": 836,
          "velocity": 1,
          "duration": 0.5
        },
        {
          "name": "A5",
          "midi": 81,
          "time": 836.5,
          "velocity": 1,
          "duration": 0.5
        },
        {
          "name": "A5",
          "midi": 81,
          "time": 837,
          "velocity": 1,
          "duration": 0.5
        },
        {
          "name": "A5",
          "midi": 81,
          "time": 837.5,
          "velocity": 1,
          "duration": 0.5
        },
        {
          "name": "A5",
          "midi": 81,
          "time": 838,
          "velocity": 1,
          "duration": 0.5
        },
        {
          "name": "A5",
          "midi": 81,
          "time": 838.5,
          "velocity": 1,
          "duration": 0.5
        },
        {
          "name": "A5",
          "midi": 81,
          "time": 839,
          "velocity": 1,
          "duration": 0.5
        },
        {
          "name": "A5",
          "midi": 81,
          "time": 839.5,
          "velocity": 1,
          "duration": 0.5
        },
        {
          "name": "A5",
          "midi": 81,
          "time": 840,
          "velocity": 1,
          "duration": 0.5
        },
        {
          "name": "A5",
          "midi": 81,
          "time": 840.5,
          "velocity": 1,
          "duration": 0.5
        },
        {
          "name": "A5",
          "midi": 81,
          "time": 841,
          "velocity": 1,
          "duration": 0.5
        },
        {
          "name": "A5",
          "midi": 81,
          "time": 841.5,
          "velocity": 1,
          "duration": 0.5
        },
        {
          "name": "A5",
          "midi": 81,
          "time": 842,
          "velocity": 1,
          "duration": 0.5
        },
        {
          "name": "A5",
          "midi": 81,
          "time": 842.5,
          "velocity": 1,
          "duration": 0.5
        },
        {
          "name": "A5",
          "midi": 81,
          "time": 843,
          "velocity": 1,
          "duration": 0.5
        },
        {
          "name": "A5",
          "midi": 81,
          "time": 843.5,
          "velocity": 1,
          "duration": 0.5
        },
        {
          "name": "A5",
          "midi": 81,
          "time": 844,
          "velocity": 1,
          "duration": 0.5
        },
        {
          "name": "A5",
          "midi": 81,
          "time": 844.5,
          "velocity": 1,
          "duration": 0.5
        },
        {
          "name": "A5",
          "midi": 81,
          "time": 845,
          "velocity": 1,
          "duration": 0.5
        },
        {
          "name": "A5",
          "midi": 81,
          "time": 845.5,
          "velocity": 1,
          "duration": 0.5
        },
        {
          "name": "A5",
          "midi": 81,
          "time": 846,
          "velocity": 1,
          "duration": 0.5
        },
        {
          "name": "A5",
          "midi": 81,
          "time": 846.5,
          "velocity": 1,
          "duration": 0.5
        },
        {
          "name": "A5",
          "midi": 81,
          "time": 847,
          "velocity": 1,
          "duration": 0.5
        },
        {
          "name": "A5",
          "midi": 81,
          "time": 847.5,
          "velocity": 1,
          "duration": 0.5
        },
        {
          "name": "A5",
          "midi": 81,
          "time": 848,
          "velocity": 1,
          "duration": 0.5
        },
        {
          "name": "A5",
          "midi": 81,
          "time": 848.5,
          "velocity": 1,
          "duration": 0.5
        },
        {
          "name": "A5",
          "midi": 81,
          "time": 849,
          "velocity": 1,
          "duration": 0.5
        },
        {
          "name": "A5",
          "midi": 81,
          "time": 849.5,
          "velocity": 1,
          "duration": 0.5
        },
        {
          "name": "A5",
          "midi": 81,
          "time": 850,
          "velocity": 1,
          "duration": 0.5
        },
        {
          "name": "A5",
          "midi": 81,
          "time": 850.5,
          "velocity": 1,
          "duration": 0.5
        },
        {
          "name": "A5",
          "midi": 81,
          "time": 851,
          "velocity": 1,
          "duration": 0.5
        },
        {
          "name": "A5",
          "midi": 81,
          "time": 851.5,
          "velocity": 1,
          "duration": 0.5
        },
        {
          "name": "A5",
          "midi": 81,
          "time": 852,
          "velocity": 1,
          "duration": 0.5
        },
        {
          "name": "A5",
          "midi": 81,
          "time": 852.5,
          "velocity": 1,
          "duration": 0.5
        },
        {
          "name": "A5",
          "midi": 81,
          "time": 853,
          "velocity": 1,
          "duration": 0.5
        },
        {
          "name": "A5",
          "midi": 81,
          "time": 853.5,
          "velocity": 1,
          "duration": 0.5
        },
        {
          "name": "A5",
          "midi": 81,
          "time": 854,
          "velocity": 1,
          "duration": 0.5
        },
        {
          "name": "A5",
          "midi": 81,
          "time": 854.5,
          "velocity": 1,
          "duration": 0.5
        },
        {
          "name": "A5",
          "midi": 81,
          "time": 855,
          "velocity": 1,
          "duration": 0.5
        },
        {
          "name": "A5",
          "midi": 81,
          "time": 855.5,
          "velocity": 1,
          "duration": 0.5
        },
        {
          "name": "A5",
          "midi": 81,
          "time": 856,
          "velocity": 1,
          "duration": 0.5
        },
        {
          "name": "A5",
          "midi": 81,
          "time": 856.5,
          "velocity": 1,
          "duration": 0.5
        },
        {
          "name": "A5",
          "midi": 81,
          "time": 857,
          "velocity": 1,
          "duration": 0.5
        },
        {
          "name": "A5",
          "midi": 81,
          "time": 857.5,
          "velocity": 1,
          "duration": 0.5
        },
        {
          "name": "A5",
          "midi": 81,
          "time": 858,
          "velocity": 1,
          "duration": 0.5
        },
        {
          "name": "A5",
          "midi": 81,
          "time": 858.5,
          "velocity": 1,
          "duration": 0.5
        },
        {
          "name": "A5",
          "midi": 81,
          "time": 859,
          "velocity": 1,
          "duration": 0.5
        },
        {
          "name": "A5",
          "midi": 81,
          "time": 859.5,
          "velocity": 1,
          "duration": 0.5
        },
        {
          "name": "A5",
          "midi": 81,
          "time": 860,
          "velocity": 1,
          "duration": 0.5
        },
        {
          "name": "A5",
          "midi": 81,
          "time": 860.5,
          "velocity": 1,
          "duration": 0.5
        },
        {
          "name": "A5",
          "midi": 81,
          "time": 861,
          "velocity": 1,
          "duration": 0.5
        },
        {
          "name": "A5",
          "midi": 81,
          "time": 861.5,
          "velocity": 1,
          "duration": 0.5
        },
        {
          "name": "A5",
          "midi": 81,
          "time": 862,
          "velocity": 1,
          "duration": 0.5
        },
        {
          "name": "A5",
          "midi": 81,
          "time": 862.5,
          "velocity": 1,
          "duration": 0.5
        },
        {
          "name": "A5",
          "midi": 81,
          "time": 863,
          "velocity": 1,
          "duration": 0.5
        },
        {
          "name": "A5",
          "midi": 81,
          "time": 863.5,
          "velocity": 1,
          "duration": 0.5
        },
        {
          "name": "A5",
          "midi": 81,
          "time": 864,
          "velocity": 1,
          "duration": 0.5
        },
        {
          "name": "A5",
          "midi": 81,
          "time": 864.5,
          "velocity": 1,
          "duration": 0.5
        },
        {
          "name": "A5",
          "midi": 81,
          "time": 865,
          "velocity": 1,
          "duration": 0.5
        },
        {
          "name": "A5",
          "midi": 81,
          "time": 865.5,
          "velocity": 1,
          "duration": 0.5
        },
        {
          "name": "A5",
          "midi": 81,
          "time": 866,
          "velocity": 1,
          "duration": 0.5
        },
        {
          "name": "A5",
          "midi": 81,
          "time": 866.5,
          "velocity": 1,
          "duration": 0.5
        },
        {
          "name": "A5",
          "midi": 81,
          "time": 867,
          "velocity": 1,
          "duration": 0.5
        },
        {
          "name": "A5",
          "midi": 81,
          "time": 867.5,
          "velocity": 1,
          "duration": 0.5
        },
        {
          "name": "A5",
          "midi": 81,
          "time": 868,
          "velocity": 1,
          "duration": 0.5
        },
        {
          "name": "A5",
          "midi": 81,
          "time": 868.5,
          "velocity": 1,
          "duration": 0.5
        },
        {
          "name": "A5",
          "midi": 81,
          "time": 869,
          "velocity": 1,
          "duration": 0.5
        },
        {
          "name": "A5",
          "midi": 81,
          "time": 869.5,
          "velocity": 1,
          "duration": 0.5
        },
        {
          "name": "A5",
          "midi": 81,
          "time": 870,
          "velocity": 1,
          "duration": 0.5
        },
        {
          "name": "A5",
          "midi": 81,
          "time": 870.5,
          "velocity": 1,
          "duration": 0.5
        },
        {
          "name": "A5",
          "midi": 81,
          "time": 871,
          "velocity": 1,
          "duration": 0.5
        },
        {
          "name": "A5",
          "midi": 81,
          "time": 871.5,
          "velocity": 1,
          "duration": 0.5
        },
        {
          "name": "A5",
          "midi": 81,
          "time": 872,
          "velocity": 1,
          "duration": 0.5
        },
        {
          "name": "A5",
          "midi": 81,
          "time": 872.5,
          "velocity": 1,
          "duration": 0.5
        },
        {
          "name": "A5",
          "midi": 81,
          "time": 873,
          "velocity": 1,
          "duration": 0.5
        },
        {
          "name": "A5",
          "midi": 81,
          "time": 873.5,
          "velocity": 1,
          "duration": 0.5
        },
        {
          "name": "A5",
          "midi": 81,
          "time": 874,
          "velocity": 1,
          "duration": 0.5
        },
        {
          "name": "A5",
          "midi": 81,
          "time": 874.5,
          "velocity": 1,
          "duration": 0.5
        },
        {
          "name": "A5",
          "midi": 81,
          "time": 875,
          "velocity": 1,
          "duration": 0.5
        },
        {
          "name": "A5",
          "midi": 81,
          "time": 875.5,
          "velocity": 1,
          "duration": 0.5
        },
        {
          "name": "A5",
          "midi": 81,
          "time": 876,
          "velocity": 1,
          "duration": 0.5
        },
        {
          "name": "A5",
          "midi": 81,
          "time": 876.5,
          "velocity": 1,
          "duration": 0.5
        },
        {
          "name": "A5",
          "midi": 81,
          "time": 877,
          "velocity": 1,
          "duration": 0.5
        },
        {
          "name": "A5",
          "midi": 81,
          "time": 877.5,
          "velocity": 1,
          "duration": 0.5
        },
        {
          "name": "A5",
          "midi": 81,
          "time": 878,
          "velocity": 1,
          "duration": 0.5
        },
        {
          "name": "A5",
          "midi": 81,
          "time": 878.5,
          "velocity": 1,
          "duration": 0.5
        },
        {
          "name": "A5",
          "midi": 81,
          "time": 879,
          "velocity": 1,
          "duration": 0.5
        },
        {
          "name": "A5",
          "midi": 81,
          "time": 879.5,
          "velocity": 1,
          "duration": 0.5
        },
        {
          "name": "A5",
          "midi": 81,
          "time": 880,
          "velocity": 1,
          "duration": 0.5
        },
        {
          "name": "A5",
          "midi": 81,
          "time": 880.5,
          "velocity": 1,
          "duration": 0.5
        },
        {
          "name": "A5",
          "midi": 81,
          "time": 881,
          "velocity": 1,
          "duration": 0.5
        },
        {
          "name": "A5",
          "midi": 81,
          "time": 881.5,
          "velocity": 1,
          "duration": 0.5
        },
        {
          "name": "A5",
          "midi": 81,
          "time": 882,
          "velocity": 1,
          "duration": 0.5
        },
        {
          "name": "A5",
          "midi": 81,
          "time": 882.5,
          "velocity": 1,
          "duration": 0.5
        },
        {
          "name": "A5",
          "midi": 81,
          "time": 883,
          "velocity": 1,
          "duration": 0.5
        },
        {
          "name": "A5",
          "midi": 81,
          "time": 883.5,
          "velocity": 1,
          "duration": 0.5
        },
        {
          "name": "A5",
          "midi": 81,
          "time": 884,
          "velocity": 1,
          "duration": 0.5
        },
        {
          "name": "A5",
          "midi": 81,
          "time": 884.5,
          "velocity": 1,
          "duration": 0.5
        },
        {
          "name": "A5",
          "midi": 81,
          "time": 885,
          "velocity": 1,
          "duration": 0.5
        },
        {
          "name": "A5",
          "midi": 81,
          "time": 885.5,
          "velocity": 1,
          "duration": 0.5
        },
        {
          "name": "A5",
          "midi": 81,
          "time": 886,
          "velocity": 1,
          "duration": 0.5
        },
        {
          "name": "A5",
          "midi": 81,
          "time": 886.5,
          "velocity": 1,
          "duration": 0.5
        },
        {
          "name": "A5",
          "midi": 81,
          "time": 887,
          "velocity": 1,
          "duration": 0.5
        },
        {
          "name": "A5",
          "midi": 81,
          "time": 887.5,
          "velocity": 1,
          "duration": 0.5
        },
        {
          "name": "A5",
          "midi": 81,
          "time": 888,
          "velocity": 1,
          "duration": 0.5
        },
        {
          "name": "A5",
          "midi": 81,
          "time": 888.5,
          "velocity": 1,
          "duration": 0.5
        },
        {
          "name": "A5",
          "midi": 81,
          "time": 889,
          "velocity": 1,
          "duration": 0.5
        },
        {
          "name": "A5",
          "midi": 81,
          "time": 889.5,
          "velocity": 1,
          "duration": 0.5
        },
        {
          "name": "A5",
          "midi": 81,
          "time": 890,
          "velocity": 1,
          "duration": 0.5
        },
        {
          "name": "A5",
          "midi": 81,
          "time": 890.5,
          "velocity": 1,
          "duration": 0.5
        },
        {
          "name": "A5",
          "midi": 81,
          "time": 891,
          "velocity": 1,
          "duration": 0.5
        },
        {
          "name": "A5",
          "midi": 81,
          "time": 891.5,
          "velocity": 1,
          "duration": 0.5
        },
        {
          "name": "A5",
          "midi": 81,
          "time": 892,
          "velocity": 1,
          "duration": 0.5
        },
        {
          "name": "A5",
          "midi": 81,
          "time": 892.5,
          "velocity": 1,
          "duration": 0.5
        },
        {
          "name": "A5",
          "midi": 81,
          "time": 893,
          "velocity": 1,
          "duration": 0.5
        },
        {
          "name": "A5",
          "midi": 81,
          "time": 893.5,
          "velocity": 1,
          "duration": 0.5
        },
        {
          "name": "A5",
          "midi": 81,
          "time": 894,
          "velocity": 1,
          "duration": 0.5
        },
        {
          "name": "A5",
          "midi": 81,
          "time": 894.5,
          "velocity": 1,
          "duration": 0.5
        },
        {
          "name": "A5",
          "midi": 81,
          "time": 895,
          "velocity": 1,
          "duration": 0.5
        },
        {
          "name": "A5",
          "midi": 81,
          "time": 895.5,
          "velocity": 1,
          "duration": 0.5
        },
        {
          "name": "A5",
          "midi": 81,
          "time": 896,
          "velocity": 1,
          "duration": 0.5
        },
        {
          "name": "A5",
          "midi": 81,
          "time": 896.5,
          "velocity": 1,
          "duration": 0.5
        },
        {
          "name": "A5",
          "midi": 81,
          "time": 897,
          "velocity": 1,
          "duration": 0.5
        },
        {
          "name": "A5",
          "midi": 81,
          "time": 897.5,
          "velocity": 1,
          "duration": 0.5
        },
        {
          "name": "A5",
          "midi": 81,
          "time": 898,
          "velocity": 1,
          "duration": 0.5
        },
        {
          "name": "A5",
          "midi": 81,
          "time": 898.5,
          "velocity": 1,
          "duration": 0.5
        },
        {
          "name": "A5",
          "midi": 81,
          "time": 899,
          "velocity": 1,
          "duration": 0.5
        },
        {
          "name": "A5",
          "midi": 81,
          "time": 899.5,
          "velocity": 1,
          "duration": 0.5
        },
        {
          "name": "A5",
          "midi": 81,
          "time": 900,
          "velocity": 1,
          "duration": 0.5
        },
        {
          "name": "A5",
          "midi": 81,
          "time": 900.5,
          "velocity": 1,
          "duration": 0.5
        },
        {
          "name": "A5",
          "midi": 81,
          "time": 901,
          "velocity": 1,
          "duration": 0.5
        },
        {
          "name": "A5",
          "midi": 81,
          "time": 901.5,
          "velocity": 1,
          "duration": 0.5
        },
        {
          "name": "A5",
          "midi": 81,
          "time": 902,
          "velocity": 1,
          "duration": 0.5
        },
        {
          "name": "A5",
          "midi": 81,
          "time": 902.5,
          "velocity": 1,
          "duration": 0.5
        },
        {
          "name": "A5",
          "midi": 81,
          "time": 903,
          "velocity": 1,
          "duration": 0.5
        },
        {
          "name": "A5",
          "midi": 81,
          "time": 903.5,
          "velocity": 1,
          "duration": 0.5
        },
        {
          "name": "A5",
          "midi": 81,
          "time": 904,
          "velocity": 1,
          "duration": 0.5
        },
        {
          "name": "A5",
          "midi": 81,
          "time": 904.5,
          "velocity": 1,
          "duration": 0.5
        },
        {
          "name": "A5",
          "midi": 81,
          "time": 905,
          "velocity": 1,
          "duration": 0.5
        },
        {
          "name": "A5",
          "midi": 81,
          "time": 905.5,
          "velocity": 1,
          "duration": 0.5
        },
        {
          "name": "A5",
          "midi": 81,
          "time": 906,
          "velocity": 1,
          "duration": 0.5
        },
        {
          "name": "A5",
          "midi": 81,
          "time": 906.5,
          "velocity": 1,
          "duration": 0.5
        },
        {
          "name": "A5",
          "midi": 81,
          "time": 907,
          "velocity": 1,
          "duration": 0.5
        },
        {
          "name": "A5",
          "midi": 81,
          "time": 907.5,
          "velocity": 1,
          "duration": 0.5
        },
        {
          "name": "A5",
          "midi": 81,
          "time": 908,
          "velocity": 1,
          "duration": 0.5
        },
        {
          "name": "A5",
          "midi": 81,
          "time": 908.5,
          "velocity": 1,
          "duration": 0.5
        },
        {
          "name": "A5",
          "midi": 81,
          "time": 909,
          "velocity": 1,
          "duration": 0.5
        },
        {
          "name": "A5",
          "midi": 81,
          "time": 909.5,
          "velocity": 1,
          "duration": 0.5
        },
        {
          "name": "A5",
          "midi": 81,
          "time": 910,
          "velocity": 1,
          "duration": 0.5
        },
        {
          "name": "A5",
          "midi": 81,
          "time": 910.5,
          "velocity": 1,
          "duration": 0.5
        },
        {
          "name": "A5",
          "midi": 81,
          "time": 911,
          "velocity": 1,
          "duration": 0.5
        },
        {
          "name": "A5",
          "midi": 81,
          "time": 911.5,
          "velocity": 1,
          "duration": 0.5
        },
        {
          "name": "A5",
          "midi": 81,
          "time": 912,
          "velocity": 1,
          "duration": 0.5
        },
        {
          "name": "A5",
          "midi": 81,
          "time": 912.5,
          "velocity": 1,
          "duration": 0.5
        },
        {
          "name": "A5",
          "midi": 81,
          "time": 913,
          "velocity": 1,
          "duration": 0.5
        },
        {
          "name": "A5",
          "midi": 81,
          "time": 913.5,
          "velocity": 1,
          "duration": 0.5
        },
        {
          "name": "A5",
          "midi": 81,
          "time": 914,
          "velocity": 1,
          "duration": 0.5
        },
        {
          "name": "A5",
          "midi": 81,
          "time": 914.5,
          "velocity": 1,
          "duration": 0.5
        },
        {
          "name": "A5",
          "midi": 81,
          "time": 915,
          "velocity": 1,
          "duration": 0.5
        },
        {
          "name": "A5",
          "midi": 81,
          "time": 915.5,
          "velocity": 1,
          "duration": 0.5
        },
        {
          "name": "A5",
          "midi": 81,
          "time": 916,
          "velocity": 1,
          "duration": 0.5
        },
        {
          "name": "A5",
          "midi": 81,
          "time": 916.5,
          "velocity": 1,
          "duration": 0.5
        },
        {
          "name": "A5",
          "midi": 81,
          "time": 917,
          "velocity": 1,
          "duration": 0.5
        },
        {
          "name": "A5",
          "midi": 81,
          "time": 917.5,
          "velocity": 1,
          "duration": 0.5
        },
        {
          "name": "A5",
          "midi": 81,
          "time": 918,
          "velocity": 1,
          "duration": 0.5
        },
        {
          "name": "A5",
          "midi": 81,
          "time": 918.5,
          "velocity": 1,
          "duration": 0.5
        },
        {
          "name": "A5",
          "midi": 81,
          "time": 919,
          "velocity": 1,
          "duration": 0.5
        },
        {
          "name": "A5",
          "midi": 81,
          "time": 919.5,
          "velocity": 1,
          "duration": 0.5
        },
        {
          "name": "A5",
          "midi": 81,
          "time": 920,
          "velocity": 1,
          "duration": 0.5
        },
        {
          "name": "A5",
          "midi": 81,
          "time": 920.5,
          "velocity": 1,
          "duration": 0.5
        },
        {
          "name": "A5",
          "midi": 81,
          "time": 921,
          "velocity": 1,
          "duration": 0.5
        },
        {
          "name": "A5",
          "midi": 81,
          "time": 921.5,
          "velocity": 1,
          "duration": 0.5
        },
        {
          "name": "A5",
          "midi": 81,
          "time": 922,
          "velocity": 1,
          "duration": 0.5
        },
        {
          "name": "A5",
          "midi": 81,
          "time": 922.5,
          "velocity": 1,
          "duration": 0.5
        },
        {
          "name": "A5",
          "midi": 81,
          "time": 923,
          "velocity": 1,
          "duration": 0.5
        },
        {
          "name": "A5",
          "midi": 81,
          "time": 923.5,
          "velocity": 1,
          "duration": 0.5
        },
        {
          "name": "A5",
          "midi": 81,
          "time": 924,
          "velocity": 1,
          "duration": 0.5
        },
        {
          "name": "A5",
          "midi": 81,
          "time": 924.5,
          "velocity": 1,
          "duration": 0.5
        },
        {
          "name": "A5",
          "midi": 81,
          "time": 925,
          "velocity": 1,
          "duration": 0.5
        },
        {
          "name": "A5",
          "midi": 81,
          "time": 925.5,
          "velocity": 1,
          "duration": 0.5
        },
        {
          "name": "A5",
          "midi": 81,
          "time": 926,
          "velocity": 1,
          "duration": 0.5
        },
        {
          "name": "A5",
          "midi": 81,
          "time": 926.5,
          "velocity": 1,
          "duration": 0.5
        },
        {
          "name": "A5",
          "midi": 81,
          "time": 927,
          "velocity": 1,
          "duration": 0.5
        },
        {
          "name": "A5",
          "midi": 81,
          "time": 927.5,
          "velocity": 1,
          "duration": 0.5
        },
        {
          "name": "A5",
          "midi": 81,
          "time": 928,
          "velocity": 1,
          "duration": 0.5
        },
        {
          "name": "A5",
          "midi": 81,
          "time": 928.5,
          "velocity": 1,
          "duration": 0.5
        },
        {
          "name": "A5",
          "midi": 81,
          "time": 929,
          "velocity": 1,
          "duration": 0.5
        },
        {
          "name": "A5",
          "midi": 81,
          "time": 929.5,
          "velocity": 1,
          "duration": 0.5
        },
        {
          "name": "A5",
          "midi": 81,
          "time": 930,
          "velocity": 1,
          "duration": 0.5
        },
        {
          "name": "A5",
          "midi": 81,
          "time": 930.5,
          "velocity": 1,
          "duration": 0.5
        },
        {
          "name": "A5",
          "midi": 81,
          "time": 931,
          "velocity": 1,
          "duration": 0.5
        },
        {
          "name": "A5",
          "midi": 81,
          "time": 931.5,
          "velocity": 1,
          "duration": 0.5
        },
        {
          "name": "A5",
          "midi": 81,
          "time": 932,
          "velocity": 1,
          "duration": 0.5
        },
        {
          "name": "A5",
          "midi": 81,
          "time": 932.5,
          "velocity": 1,
          "duration": 0.5
        },
        {
          "name": "A5",
          "midi": 81,
          "time": 933,
          "velocity": 1,
          "duration": 0.5
        },
        {
          "name": "A5",
          "midi": 81,
          "time": 933.5,
          "velocity": 1,
          "duration": 0.5
        },
        {
          "name": "A5",
          "midi": 81,
          "time": 934,
          "velocity": 1,
          "duration": 0.5
        },
        {
          "name": "A5",
          "midi": 81,
          "time": 934.5,
          "velocity": 1,
          "duration": 0.5
        },
        {
          "name": "A5",
          "midi": 81,
          "time": 935,
          "velocity": 1,
          "duration": 0.5
        },
        {
          "name": "A5",
          "midi": 81,
          "time": 935.5,
          "velocity": 1,
          "duration": 0.5
        },
        {
          "name": "A5",
          "midi": 81,
          "time": 936,
          "velocity": 1,
          "duration": 0.5
        },
        {
          "name": "A5",
          "midi": 81,
          "time": 936.5,
          "velocity": 1,
          "duration": 0.5
        },
        {
          "name": "A5",
          "midi": 81,
          "time": 937,
          "velocity": 1,
          "duration": 0.5
        },
        {
          "name": "A5",
          "midi": 81,
          "time": 937.5,
          "velocity": 1,
          "duration": 0.5
        },
        {
          "name": "A5",
          "midi": 81,
          "time": 938,
          "velocity": 1,
          "duration": 0.5
        },
        {
          "name": "A5",
          "midi": 81,
          "time": 938.5,
          "velocity": 1,
          "duration": 0.5
        },
        {
          "name": "A5",
          "midi": 81,
          "time": 939,
          "velocity": 1,
          "duration": 0.5
        },
        {
          "name": "A5",
          "midi": 81,
          "time": 939.5,
          "velocity": 1,
          "duration": 0.5
        },
        {
          "name": "A5",
          "midi": 81,
          "time": 940,
          "velocity": 1,
          "duration": 0.5
        },
        {
          "name": "A5",
          "midi": 81,
          "time": 940.5,
          "velocity": 1,
          "duration": 0.5
        },
        {
          "name": "A5",
          "midi": 81,
          "time": 941,
          "velocity": 1,
          "duration": 0.5
        },
        {
          "name": "A5",
          "midi": 81,
          "time": 941.5,
          "velocity": 1,
          "duration": 0.5
        },
        {
          "name": "A5",
          "midi": 81,
          "time": 942,
          "velocity": 1,
          "duration": 0.5
        },
        {
          "name": "A5",
          "midi": 81,
          "time": 942.5,
          "velocity": 1,
          "duration": 0.5
        },
        {
          "name": "A5",
          "midi": 81,
          "time": 943,
          "velocity": 1,
          "duration": 0.5
        },
        {
          "name": "A5",
          "midi": 81,
          "time": 943.5,
          "velocity": 1,
          "duration": 0.5
        },
        {
          "name": "A5",
          "midi": 81,
          "time": 944,
          "velocity": 1,
          "duration": 0.5
        },
        {
          "name": "A5",
          "midi": 81,
          "time": 944.5,
          "velocity": 1,
          "duration": 0.5
        },
        {
          "name": "A5",
          "midi": 81,
          "time": 945,
          "velocity": 1,
          "duration": 0.5
        },
        {
          "name": "A5",
          "midi": 81,
          "time": 945.5,
          "velocity": 1,
          "duration": 0.5
        },
        {
          "name": "A5",
          "midi": 81,
          "time": 946,
          "velocity": 1,
          "duration": 0.5
        },
        {
          "name": "A5",
          "midi": 81,
          "time": 946.5,
          "velocity": 1,
          "duration": 0.5
        },
        {
          "name": "A5",
          "midi": 81,
          "time": 947,
          "velocity": 1,
          "duration": 0.5
        },
        {
          "name": "A5",
          "midi": 81,
          "time": 947.5,
          "velocity": 1,
          "duration": 0.5
        },
        {
          "name": "A5",
          "midi": 81,
          "time": 948,
          "velocity": 1,
          "duration": 0.5
        },
        {
          "name": "A5",
          "midi": 81,
          "time": 948.5,
          "velocity": 1,
          "duration": 0.5
        },
        {
          "name": "A5",
          "midi": 81,
          "time": 949,
          "velocity": 1,
          "duration": 0.5
        },
        {
          "name": "A5",
          "midi": 81,
          "time": 949.5,
          "velocity": 1,
          "duration": 0.5
        },
        {
          "name": "A5",
          "midi": 81,
          "time": 950,
          "velocity": 1,
          "duration": 0.5
        },
        {
          "name": "A5",
          "midi": 81,
          "time": 950.5,
          "velocity": 1,
          "duration": 0.5
        },
        {
          "name": "A5",
          "midi": 81,
          "time": 951,
          "velocity": 1,
          "duration": 0.5
        },
        {
          "name": "A5",
          "midi": 81,
          "time": 951.5,
          "velocity": 1,
          "duration": 0.5
        },
        {
          "name": "A5",
          "midi": 81,
          "time": 952,
          "velocity": 1,
          "duration": 0.5
        },
        {
          "name": "A5",
          "midi": 81,
          "time": 952.5,
          "velocity": 1,
          "duration": 0.5
        },
        {
          "name": "A5",
          "midi": 81,
          "time": 953,
          "velocity": 1,
          "duration": 0.5
        },
        {
          "name": "A5",
          "midi": 81,
          "time": 953.5,
          "velocity": 1,
          "duration": 0.5
        },
        {
          "name": "A5",
          "midi": 81,
          "time": 954,
          "velocity": 1,
          "duration": 0.5
        },
        {
          "name": "A5",
          "midi": 81,
          "time": 954.5,
          "velocity": 1,
          "duration": 0.5
        },
        {
          "name": "A5",
          "midi": 81,
          "time": 955,
          "velocity": 1,
          "duration": 0.5
        },
        {
          "name": "A5",
          "midi": 81,
          "time": 955.5,
          "velocity": 1,
          "duration": 0.5
        },
        {
          "name": "A5",
          "midi": 81,
          "time": 956,
          "velocity": 1,
          "duration": 0.5
        },
        {
          "name": "A5",
          "midi": 81,
          "time": 956.5,
          "velocity": 1,
          "duration": 0.5
        },
        {
          "name": "A5",
          "midi": 81,
          "time": 957,
          "velocity": 1,
          "duration": 0.5
        },
        {
          "name": "A5",
          "midi": 81,
          "time": 957.5,
          "velocity": 1,
          "duration": 0.5
        },
        {
          "name": "A5",
          "midi": 81,
          "time": 958,
          "velocity": 1,
          "duration": 0.5
        },
        {
          "name": "A5",
          "midi": 81,
          "time": 958.5,
          "velocity": 1,
          "duration": 0.5
        },
        {
          "name": "A5",
          "midi": 81,
          "time": 959,
          "velocity": 1,
          "duration": 0.5
        },
        {
          "name": "A5",
          "midi": 81,
          "time": 959.5,
          "velocity": 1,
          "duration": 0.5
        },
        {
          "name": "A5",
          "midi": 81,
          "time": 960,
          "velocity": 1,
          "duration": 0.5
        },
        {
          "name": "A5",
          "midi": 81,
          "time": 960.5,
          "velocity": 1,
          "duration": 0.5
        },
        {
          "name": "A5",
          "midi": 81,
          "time": 961,
          "velocity": 1,
          "duration": 0.5
        },
        {
          "name": "A5",
          "midi": 81,
          "time": 961.5,
          "velocity": 1,
          "duration": 0.5
        },
        {
          "name": "A5",
          "midi": 81,
          "time": 962,
          "velocity": 1,
          "duration": 0.5
        },
        {
          "name": "A5",
          "midi": 81,
          "time": 962.5,
          "velocity": 1,
          "duration": 0.5
        },
        {
          "name": "A5",
          "midi": 81,
          "time": 963,
          "velocity": 1,
          "duration": 0.5
        },
        {
          "name": "A5",
          "midi": 81,
          "time": 963.5,
          "velocity": 1,
          "duration": 0.5
        },
        {
          "name": "A5",
          "midi": 81,
          "time": 964,
          "velocity": 1,
          "duration": 0.5
        },
        {
          "name": "A5",
          "midi": 81,
          "time": 964.5,
          "velocity": 1,
          "duration": 0.5
        },
        {
          "name": "A5",
          "midi": 81,
          "time": 965,
          "velocity": 1,
          "duration": 0.5
        },
        {
          "name": "A5",
          "midi": 81,
          "time": 965.5,
          "velocity": 1,
          "duration": 0.5
        },
        {
          "name": "A5",
          "midi": 81,
          "time": 966,
          "velocity": 1,
          "duration": 0.5
        },
        {
          "name": "A5",
          "midi": 81,
          "time": 966.5,
          "velocity": 1,
          "duration": 0.5
        },
        {
          "name": "A5",
          "midi": 81,
          "time": 967,
          "velocity": 1,
          "duration": 0.5
        },
        {
          "name": "A5",
          "midi": 81,
          "time": 967.5,
          "velocity": 1,
          "duration": 0.5
        },
        {
          "name": "A5",
          "midi": 81,
          "time": 968,
          "velocity": 1,
          "duration": 0.5
        },
        {
          "name": "A5",
          "midi": 81,
          "time": 968.5,
          "velocity": 1,
          "duration": 0.5
        },
        {
          "name": "A5",
          "midi": 81,
          "time": 969,
          "velocity": 1,
          "duration": 0.5
        },
        {
          "name": "A5",
          "midi": 81,
          "time": 969.5,
          "velocity": 1,
          "duration": 0.5
        },
        {
          "name": "A5",
          "midi": 81,
          "time": 970,
          "velocity": 1,
          "duration": 0.5
        },
        {
          "name": "A5",
          "midi": 81,
          "time": 970.5,
          "velocity": 1,
          "duration": 0.5
        },
        {
          "name": "A5",
          "midi": 81,
          "time": 971,
          "velocity": 1,
          "duration": 0.5
        },
        {
          "name": "A5",
          "midi": 81,
          "time": 971.5,
          "velocity": 1,
          "duration": 0.5
        },
        {
          "name": "A5",
          "midi": 81,
          "time": 972,
          "velocity": 1,
          "duration": 0.5
        },
        {
          "name": "A5",
          "midi": 81,
          "time": 972.5,
          "velocity": 1,
          "duration": 0.5
        },
        {
          "name": "A5",
          "midi": 81,
          "time": 973,
          "velocity": 1,
          "duration": 0.5
        },
        {
          "name": "A5",
          "midi": 81,
          "time": 973.5,
          "velocity": 1,
          "duration": 0.5
        },
        {
          "name": "A5",
          "midi": 81,
          "time": 974,
          "velocity": 1,
          "duration": 0.5
        },
        {
          "name": "A5",
          "midi": 81,
          "time": 974.5,
          "velocity": 1,
          "duration": 0.5
        },
        {
          "name": "A5",
          "midi": 81,
          "time": 975,
          "velocity": 1,
          "duration": 0.5
        },
        {
          "name": "A5",
          "midi": 81,
          "time": 975.5,
          "velocity": 1,
          "duration": 0.5
        },
        {
          "name": "A5",
          "midi": 81,
          "time": 976,
          "velocity": 1,
          "duration": 0.5
        },
        {
          "name": "A5",
          "midi": 81,
          "time": 976.5,
          "velocity": 1,
          "duration": 0.5
        },
        {
          "name": "A5",
          "midi": 81,
          "time": 977,
          "velocity": 1,
          "duration": 0.5
        },
        {
          "name": "A5",
          "midi": 81,
          "time": 977.5,
          "velocity": 1,
          "duration": 0.5
        },
        {
          "name": "A5",
          "midi": 81,
          "time": 978,
          "velocity": 1,
          "duration": 0.5
        },
        {
          "name": "A5",
          "midi": 81,
          "time": 978.5,
          "velocity": 1,
          "duration": 0.5
        },
        {
          "name": "A5",
          "midi": 81,
          "time": 979,
          "velocity": 1,
          "duration": 0.5
        },
        {
          "name": "A5",
          "midi": 81,
          "time": 979.5,
          "velocity": 1,
          "duration": 0.5
        },
        {
          "name": "A5",
          "midi": 81,
          "time": 980,
          "velocity": 1,
          "duration": 0.5
        },
        {
          "name": "A5",
          "midi": 81,
          "time": 980.5,
          "velocity": 1,
          "duration": 0.5
        },
        {
          "name": "A5",
          "midi": 81,
          "time": 981,
          "velocity": 1,
          "duration": 0.5
        },
        {
          "name": "A5",
          "midi": 81,
          "time": 981.5,
          "velocity": 1,
          "duration": 0.5
        },
        {
          "name": "A5",
          "midi": 81,
          "time": 982,
          "velocity": 1,
          "duration": 0.5
        },
        {
          "name": "A5",
          "midi": 81,
          "time": 982.5,
          "velocity": 1,
          "duration": 0.5
        },
        {
          "name": "A5",
          "midi": 81,
          "time": 983,
          "velocity": 1,
          "duration": 0.5
        },
        {
          "name": "A5",
          "midi": 81,
          "time": 983.5,
          "velocity": 1,
          "duration": 0.5
        },
        {
          "name": "A5",
          "midi": 81,
          "time": 984,
          "velocity": 1,
          "duration": 0.5
        },
        {
          "name": "A5",
          "midi": 81,
          "time": 984.5,
          "velocity": 1,
          "duration": 0.5
        },
        {
          "name": "A5",
          "midi": 81,
          "time": 985,
          "velocity": 1,
          "duration": 0.5
        },
        {
          "name": "A5",
          "midi": 81,
          "time": 985.5,
          "velocity": 1,
          "duration": 0.5
        },
        {
          "name": "A5",
          "midi": 81,
          "time": 986,
          "velocity": 1,
          "duration": 0.5
        },
        {
          "name": "A5",
          "midi": 81,
          "time": 986.5,
          "velocity": 1,
          "duration": 0.5
        },
        {
          "name": "A5",
          "midi": 81,
          "time": 987,
          "velocity": 1,
          "duration": 0.5
        },
        {
          "name": "A5",
          "midi": 81,
          "time": 987.5,
          "velocity": 1,
          "duration": 0.5
        },
        {
          "name": "A5",
          "midi": 81,
          "time": 988,
          "velocity": 1,
          "duration": 0.5
        },
        {
          "name": "A5",
          "midi": 81,
          "time": 988.5,
          "velocity": 1,
          "duration": 0.5
        },
        {
          "name": "A5",
          "midi": 81,
          "time": 989,
          "velocity": 1,
          "duration": 0.5
        },
        {
          "name": "A5",
          "midi": 81,
          "time": 989.5,
          "velocity": 1,
          "duration": 0.5
        },
        {
          "name": "A5",
          "midi": 81,
          "time": 990,
          "velocity": 1,
          "duration": 0.5
        },
        {
          "name": "A5",
          "midi": 81,
          "time": 990.5,
          "velocity": 1,
          "duration": 0.5
        },
        {
          "name": "A5",
          "midi": 81,
          "time": 991,
          "velocity": 1,
          "duration": 0.5
        },
        {
          "name": "A5",
          "midi": 81,
          "time": 991.5,
          "velocity": 1,
          "duration": 0.5
        },
        {
          "name": "A5",
          "midi": 81,
          "time": 992,
          "velocity": 1,
          "duration": 0.5
        },
        {
          "name": "A5",
          "midi": 81,
          "time": 992.5,
          "velocity": 1,
          "duration": 0.5
        },
        {
          "name": "A5",
          "midi": 81,
          "time": 993,
          "velocity": 1,
          "duration": 0.5
        },
        {
          "name": "A5",
          "midi": 81,
          "time": 993.5,
          "velocity": 1,
          "duration": 0.5
        },
        {
          "name": "A5",
          "midi": 81,
          "time": 994,
          "velocity": 1,
          "duration": 0.5
        },
        {
          "name": "A5",
          "midi": 81,
          "time": 994.5,
          "velocity": 1,
          "duration": 0.5
        },
        {
          "name": "A5",
          "midi": 81,
          "time": 995,
          "velocity": 1,
          "duration": 0.5
        },
        {
          "name": "A5",
          "midi": 81,
          "time": 995.5,
          "velocity": 1,
          "duration": 0.5
        },
        {
          "name": "A5",
          "midi": 81,
          "time": 996,
          "velocity": 1,
          "duration": 0.5
        },
        {
          "name": "A5",
          "midi": 81,
          "time": 996.5,
          "velocity": 1,
          "duration": 0.5
        },
        {
          "name": "A5",
          "midi": 81,
          "time": 997,
          "velocity": 1,
          "duration": 0.5
        },
        {
          "name": "A5",
          "midi": 81,
          "time": 997.5,
          "velocity": 1,
          "duration": 0.5
        },
        {
          "name": "A5",
          "midi": 81,
          "time": 998,
          "velocity": 1,
          "duration": 0.5
        },
        {
          "name": "A5",
          "midi": 81,
          "time": 998.5,
          "velocity": 1,
          "duration": 0.5
        },
        {
          "name": "A5",
          "midi": 81,
          "time": 999,
          "velocity": 1,
          "duration": 0.5
        },
        {
          "name": "A5",
          "midi": 81,
          "time": 999.5,
          "velocity": 1,
          "duration": 0.5
        },
        {
          "name": "A5",
          "midi": 81,
          "time": 1000,
          "velocity": 1,
          "duration": 0.5
        },
        {
          "name": "A5",
          "midi": 81,
          "time": 1000.5,
          "velocity": 1,
          "duration": 0.5
        },
        {
          "name": "A5",
          "midi": 81,
          "time": 1001,
          "velocity": 1,
          "duration": 0.5
        },
        {
          "name": "A5",
          "midi": 81,
          "time": 1001.5,
          "velocity": 1,
          "duration": 0.5
        },
        {
          "name": "A5",
          "midi": 81,
          "time": 1002,
          "velocity": 1,
          "duration": 0.5
        },
        {
          "name": "A5",
          "midi": 81,
          "time": 1002.5,
          "velocity": 1,
          "duration": 0.5
        },
        {
          "name": "A5",
          "midi": 81,
          "time": 1003,
          "velocity": 1,
          "duration": 0.5
        },
        {
          "name": "A5",
          "midi": 81,
          "time": 1003.5,
          "velocity": 1,
          "duration": 0.5
        },
        {
          "name": "A5",
          "midi": 81,
          "time": 1004,
          "velocity": 1,
          "duration": 0.5
        },
        {
          "name": "A5",
          "midi": 81,
          "time": 1004.5,
          "velocity": 1,
          "duration": 0.5
        },
        {
          "name": "A5",
          "midi": 81,
          "time": 1005,
          "velocity": 1,
          "duration": 0.5
        },
        {
          "name": "A5",
          "midi": 81,
          "time": 1005.5,
          "velocity": 1,
          "duration": 0.5
        },
        {
          "name": "A5",
          "midi": 81,
          "time": 1006,
          "velocity": 1,
          "duration": 0.5
        },
        {
          "name": "A5",
          "midi": 81,
          "time": 1006.5,
          "velocity": 1,
          "duration": 0.5
        },
        {
          "name": "A5",
          "midi": 81,
          "time": 1007,
          "velocity": 1,
          "duration": 0.5
        },
        {
          "name": "A5",
          "midi": 81,
          "time": 1007.5,
          "velocity": 1,
          "duration": 0.5
        },
        {
          "name": "A5",
          "midi": 81,
          "time": 1008,
          "velocity": 1,
          "duration": 0.5
        },
        {
          "name": "A5",
          "midi": 81,
          "time": 1008.5,
          "velocity": 1,
          "duration": 0.5
        },
        {
          "name": "A5",
          "midi": 81,
          "time": 1009,
          "velocity": 1,
          "duration": 0.5
        },
        {
          "name": "A5",
          "midi": 81,
          "time": 1009.5,
          "velocity": 1,
          "duration": 0.5
        },
        {
          "name": "A5",
          "midi": 81,
          "time": 1010,
          "velocity": 1,
          "duration": 0.5
        },
        {
          "name": "A5",
          "midi": 81,
          "time": 1010.5,
          "velocity": 1,
          "duration": 0.5
        },
        {
          "name": "A5",
          "midi": 81,
          "time": 1011,
          "velocity": 1,
          "duration": 0.5
        },
        {
          "name": "A5",
          "midi": 81,
          "time": 1011.5,
          "velocity": 1,
          "duration": 0.5
        },
        {
          "name": "A5",
          "midi": 81,
          "time": 1012,
          "velocity": 1,
          "duration": 0.5
        },
        {
          "name": "A5",
          "midi": 81,
          "time": 1012.5,
          "velocity": 1,
          "duration": 0.5
        },
        {
          "name": "A5",
          "midi": 81,
          "time": 1013,
          "velocity": 1,
          "duration": 0.5
        },
        {
          "name": "A5",
          "midi": 81,
          "time": 1013.5,
          "velocity": 1,
          "duration": 0.5
        },
        {
          "name": "A5",
          "midi": 81,
          "time": 1014,
          "velocity": 1,
          "duration": 0.5
        },
        {
          "name": "A5",
          "midi": 81,
          "time": 1014.5,
          "velocity": 1,
          "duration": 0.5
        },
        {
          "name": "A5",
          "midi": 81,
          "time": 1015,
          "velocity": 1,
          "duration": 0.5
        },
        {
          "name": "A5",
          "midi": 81,
          "time": 1015.5,
          "velocity": 1,
          "duration": 0.5
        },
        {
          "name": "A5",
          "midi": 81,
          "time": 1016,
          "velocity": 1,
          "duration": 0.5
        },
        {
          "name": "A5",
          "midi": 81,
          "time": 1016.5,
          "velocity": 1,
          "duration": 0.5
        },
        {
          "name": "A5",
          "midi": 81,
          "time": 1017,
          "velocity": 1,
          "duration": 0.5
        },
        {
          "name": "A5",
          "midi": 81,
          "time": 1017.5,
          "velocity": 1,
          "duration": 0.5
        },
        {
          "name": "A5",
          "midi": 81,
          "time": 1018,
          "velocity": 1,
          "duration": 0.5
        },
        {
          "name": "A5",
          "midi": 81,
          "time": 1018.5,
          "velocity": 1,
          "duration": 0.5
        },
        {
          "name": "A5",
          "midi": 81,
          "time": 1019,
          "velocity": 1,
          "duration": 0.5
        },
        {
          "name": "A5",
          "midi": 81,
          "time": 1019.5,
          "velocity": 1,
          "duration": 0.5
        },
        {
          "name": "A5",
          "midi": 81,
          "time": 1020,
          "velocity": 1,
          "duration": 0.5
        },
        {
          "name": "A5",
          "midi": 81,
          "time": 1020.5,
          "velocity": 1,
          "duration": 0.5
        },
        {
          "name": "A5",
          "midi": 81,
          "time": 1021,
          "velocity": 1,
          "duration": 0.5
        },
        {
          "name": "A5",
          "midi": 81,
          "time": 1021.5,
          "velocity": 1,
          "duration": 0.5
        },
        {
          "name": "A5",
          "midi": 81,
          "time": 1022,
          "velocity": 1,
          "duration": 0.5
        },
        {
          "name": "A5",
          "midi": 81,
          "time": 1022.5,
          "velocity": 1,
          "duration": 0.5
        },
        {
          "name": "A5",
          "midi": 81,
          "time": 1023,
          "velocity": 1,
          "duration": 0.5
        },
        {
          "name": "A5",
          "midi": 81,
          "time": 1023.5,
          "velocity": 1,
          "duration": 0.5
        },
        {
          "name": "A5",
          "midi": 81,
          "time": 1024,
          "velocity": 1,
          "duration": 0.5
        },
        {
          "name": "A5",
          "midi": 81,
          "time": 1024.5,
          "velocity": 1,
          "duration": 0.5
        },
        {
          "name": "A5",
          "midi": 81,
          "time": 1025,
          "velocity": 1,
          "duration": 0.5
        },
        {
          "name": "A5",
          "midi": 81,
          "time": 1025.5,
          "velocity": 1,
          "duration": 0.5
        },
        {
          "name": "A5",
          "midi": 81,
          "time": 1026,
          "velocity": 1,
          "duration": 0.5
        },
        {
          "name": "A5",
          "midi": 81,
          "time": 1026.5,
          "velocity": 1,
          "duration": 0.5
        },
        {
          "name": "A5",
          "midi": 81,
          "time": 1027,
          "velocity": 1,
          "duration": 0.5
        },
        {
          "name": "A5",
          "midi": 81,
          "time": 1027.5,
          "velocity": 1,
          "duration": 0.5
        },
        {
          "name": "A5",
          "midi": 81,
          "time": 1028,
          "velocity": 1,
          "duration": 0.5
        },
        {
          "name": "A5",
          "midi": 81,
          "time": 1028.5,
          "velocity": 1,
          "duration": 0.5
        },
        {
          "name": "A5",
          "midi": 81,
          "time": 1029,
          "velocity": 1,
          "duration": 0.5
        },
        {
          "name": "A5",
          "midi": 81,
          "time": 1029.5,
          "velocity": 1,
          "duration": 0.5
        },
        {
          "name": "A5",
          "midi": 81,
          "time": 1030,
          "velocity": 1,
          "duration": 0.5
        },
        {
          "name": "A5",
          "midi": 81,
          "time": 1030.5,
          "velocity": 1,
          "duration": 0.5
        },
        {
          "name": "A5",
          "midi": 81,
          "time": 1031,
          "velocity": 1,
          "duration": 0.5
        },
        {
          "name": "A5",
          "midi": 81,
          "time": 1031.5,
          "velocity": 1,
          "duration": 0.5
        },
        {
          "name": "A5",
          "midi": 81,
          "time": 1032,
          "velocity": 1,
          "duration": 0.5
        },
        {
          "name": "A5",
          "midi": 81,
          "time": 1032.5,
          "velocity": 1,
          "duration": 0.5
        },
        {
          "name": "A5",
          "midi": 81,
          "time": 1033,
          "velocity": 1,
          "duration": 0.5
        },
        {
          "name": "A5",
          "midi": 81,
          "time": 1033.5,
          "velocity": 1,
          "duration": 0.5
        },
        {
          "name": "A5",
          "midi": 81,
          "time": 1034,
          "velocity": 1,
          "duration": 0.5
        },
        {
          "name": "A5",
          "midi": 81,
          "time": 1034.5,
          "velocity": 1,
          "duration": 0.5
        },
        {
          "name": "A5",
          "midi": 81,
          "time": 1035,
          "velocity": 1,
          "duration": 0.5
        },
        {
          "name": "A5",
          "midi": 81,
          "time": 1035.5,
          "velocity": 1,
          "duration": 0.5
        },
        {
          "name": "A5",
          "midi": 81,
          "time": 1036,
          "velocity": 1,
          "duration": 0.5
        },
        {
          "name": "A5",
          "midi": 81,
          "time": 1036.5,
          "velocity": 1,
          "duration": 0.5
        },
        {
          "name": "A5",
          "midi": 81,
          "time": 1037,
          "velocity": 1,
          "duration": 0.5
        },
        {
          "name": "A5",
          "midi": 81,
          "time": 1037.5,
          "velocity": 1,
          "duration": 0.5
        },
        {
          "name": "A5",
          "midi": 81,
          "time": 1038,
          "velocity": 1,
          "duration": 0.5
        },
        {
          "name": "A5",
          "midi": 81,
          "time": 1038.5,
          "velocity": 1,
          "duration": 0.5
        },
        {
          "name": "A5",
          "midi": 81,
          "time": 1039,
          "velocity": 1,
          "duration": 0.5
        },
        {
          "name": "A5",
          "midi": 81,
          "time": 1039.5,
          "velocity": 1,
          "duration": 0.5
        },
        {
          "name": "A5",
          "midi": 81,
          "time": 1040,
          "velocity": 1,
          "duration": 0.5
        },
        {
          "name": "A5",
          "midi": 81,
          "time": 1040.5,
          "velocity": 1,
          "duration": 0.5
        },
        {
          "name": "A5",
          "midi": 81,
          "time": 1041,
          "velocity": 1,
          "duration": 0.5
        },
        {
          "name": "A5",
          "midi": 81,
          "time": 1041.5,
          "velocity": 1,
          "duration": 0.5
        },
        {
          "name": "A5",
          "midi": 81,
          "time": 1042,
          "velocity": 1,
          "duration": 0.5
        },
        {
          "name": "A5",
          "midi": 81,
          "time": 1042.5,
          "velocity": 1,
          "duration": 0.5
        },
        {
          "name": "A5",
          "midi": 81,
          "time": 1043,
          "velocity": 1,
          "duration": 0.5
        },
        {
          "name": "A5",
          "midi": 81,
          "time": 1043.5,
          "velocity": 1,
          "duration": 0.5
        },
        {
          "name": "A5",
          "midi": 81,
          "time": 1044,
          "velocity": 1,
          "duration": 0.5
        },
        {
          "name": "A5",
          "midi": 81,
          "time": 1044.5,
          "velocity": 1,
          "duration": 0.5
        },
        {
          "name": "A5",
          "midi": 81,
          "time": 1045,
          "velocity": 1,
          "duration": 0.5
        },
        {
          "name": "A5",
          "midi": 81,
          "time": 1045.5,
          "velocity": 1,
          "duration": 0.5
        },
        {
          "name": "A5",
          "midi": 81,
          "time": 1046,
          "velocity": 1,
          "duration": 0.5
        },
        {
          "name": "A5",
          "midi": 81,
          "time": 1046.5,
          "velocity": 1,
          "duration": 0.5
        },
        {
          "name": "A5",
          "midi": 81,
          "time": 1047,
          "velocity": 1,
          "duration": 0.5
        },
        {
          "name": "A5",
          "midi": 81,
          "time": 1047.5,
          "velocity": 1,
          "duration": 0.5
        },
        {
          "name": "A5",
          "midi": 81,
          "time": 1048,
          "velocity": 1,
          "duration": 0.5
        },
        {
          "name": "A5",
          "midi": 81,
          "time": 1048.5,
          "velocity": 1,
          "duration": 0.5
        },
        {
          "name": "A5",
          "midi": 81,
          "time": 1049,
          "velocity": 1,
          "duration": 0.5
        },
        {
          "name": "A5",
          "midi": 81,
          "time": 1049.5,
          "velocity": 1,
          "duration": 0.5
        },
        {
          "name": "A5",
          "midi": 81,
          "time": 1050,
          "velocity": 1,
          "duration": 0.5
        },
        {
          "name": "A5",
          "midi": 81,
          "time": 1050.5,
          "velocity": 1,
          "duration": 0.5
        },
        {
          "name": "A5",
          "midi": 81,
          "time": 1051,
          "velocity": 1,
          "duration": 0.5
        },
        {
          "name": "A5",
          "midi": 81,
          "time": 1051.5,
          "velocity": 1,
          "duration": 0.5
        },
        {
          "name": "A5",
          "midi": 81,
          "time": 1052,
          "velocity": 1,
          "duration": 0.5
        },
        {
          "name": "A5",
          "midi": 81,
          "time": 1052.5,
          "velocity": 1,
          "duration": 0.5
        },
        {
          "name": "A5",
          "midi": 81,
          "time": 1053,
          "velocity": 1,
          "duration": 0.5
        },
        {
          "name": "A5",
          "midi": 81,
          "time": 1053.5,
          "velocity": 1,
          "duration": 0.5
        },
        {
          "name": "A5",
          "midi": 81,
          "time": 1054,
          "velocity": 1,
          "duration": 0.5
        },
        {
          "name": "A5",
          "midi": 81,
          "time": 1054.5,
          "velocity": 1,
          "duration": 0.5
        },
        {
          "name": "A5",
          "midi": 81,
          "time": 1055,
          "velocity": 1,
          "duration": 0.5
        },
        {
          "name": "A5",
          "midi": 81,
          "time": 1055.5,
          "velocity": 1,
          "duration": 0.5
        },
        {
          "name": "A5",
          "midi": 81,
          "time": 1056,
          "velocity": 1,
          "duration": 0.5
        },
        {
          "name": "A5",
          "midi": 81,
          "time": 1056.5,
          "velocity": 1,
          "duration": 0.5
        },
        {
          "name": "A5",
          "midi": 81,
          "time": 1057,
          "velocity": 1,
          "duration": 0.5
        },
        {
          "name": "A5",
          "midi": 81,
          "time": 1057.5,
          "velocity": 1,
          "duration": 0.5
        },
        {
          "name": "A5",
          "midi": 81,
          "time": 1058,
          "velocity": 1,
          "duration": 0.5
        },
        {
          "name": "A5",
          "midi": 81,
          "time": 1058.5,
          "velocity": 1,
          "duration": 0.5
        },
        {
          "name": "A5",
          "midi": 81,
          "time": 1059,
          "velocity": 1,
          "duration": 0.5
        },
        {
          "name": "A5",
          "midi": 81,
          "time": 1059.5,
          "velocity": 1,
          "duration": 0.5
        },
        {
          "name": "A5",
          "midi": 81,
          "time": 1060,
          "velocity": 1,
          "duration": 0.5
        },
        {
          "name": "A5",
          "midi": 81,
          "time": 1060.5,
          "velocity": 1,
          "duration": 0.5
        },
        {
          "name": "A5",
          "midi": 81,
          "time": 1061,
          "velocity": 1,
          "duration": 0.5
        },
        {
          "name": "A5",
          "midi": 81,
          "time": 1061.5,
          "velocity": 1,
          "duration": 0.5
        },
        {
          "name": "A5",
          "midi": 81,
          "time": 1062,
          "velocity": 1,
          "duration": 0.5
        },
        {
          "name": "A5",
          "midi": 81,
          "time": 1062.5,
          "velocity": 1,
          "duration": 0.5
        },
        {
          "name": "A5",
          "midi": 81,
          "time": 1063,
          "velocity": 1,
          "duration": 0.5
        },
        {
          "name": "A5",
          "midi": 81,
          "time": 1063.5,
          "velocity": 1,
          "duration": 0.5
        },
        {
          "name": "A5",
          "midi": 81,
          "time": 1064,
          "velocity": 1,
          "duration": 0.5
        },
        {
          "name": "A5",
          "midi": 81,
          "time": 1064.5,
          "velocity": 1,
          "duration": 0.5
        },
        {
          "name": "A5",
          "midi": 81,
          "time": 1065,
          "velocity": 1,
          "duration": 0.5
        },
        {
          "name": "A5",
          "midi": 81,
          "time": 1065.5,
          "velocity": 1,
          "duration": 0.5
        },
        {
          "name": "A5",
          "midi": 81,
          "time": 1066,
          "velocity": 1,
          "duration": 0.5
        },
        {
          "name": "A5",
          "midi": 81,
          "time": 1066.5,
          "velocity": 1,
          "duration": 0.5
        },
        {
          "name": "A5",
          "midi": 81,
          "time": 1067,
          "velocity": 1,
          "duration": 0.5
        },
        {
          "name": "A5",
          "midi": 81,
          "time": 1067.5,
          "velocity": 1,
          "duration": 0.5
        },
        {
          "name": "A5",
          "midi": 81,
          "time": 1068,
          "velocity": 1,
          "duration": 0.5
        },
        {
          "name": "A5",
          "midi": 81,
          "time": 1068.5,
          "velocity": 1,
          "duration": 0.5
        },
        {
          "name": "A5",
          "midi": 81,
          "time": 1069,
          "velocity": 1,
          "duration": 0.5
        },
        {
          "name": "A5",
          "midi": 81,
          "time": 1069.5,
          "velocity": 1,
          "duration": 0.5
        },
        {
          "name": "A5",
          "midi": 81,
          "time": 1070,
          "velocity": 1,
          "duration": 0.5
        },
        {
          "name": "A5",
          "midi": 81,
          "time": 1070.5,
          "velocity": 1,
          "duration": 0.5
        },
        {
          "name": "A5",
          "midi": 81,
          "time": 1071,
          "velocity": 1,
          "duration": 0.5
        },
        {
          "name": "A5",
          "midi": 81,
          "time": 1071.5,
          "velocity": 1,
          "duration": 0.5
        },
        {
          "name": "A5",
          "midi": 81,
          "time": 1072,
          "velocity": 1,
          "duration": 0.5
        },
        {
          "name": "A5",
          "midi": 81,
          "time": 1072.5,
          "velocity": 1,
          "duration": 0.5
        },
        {
          "name": "A5",
          "midi": 81,
          "time": 1073,
          "velocity": 1,
          "duration": 0.5
        },
        {
          "name": "A5",
          "midi": 81,
          "time": 1073.5,
          "velocity": 1,
          "duration": 0.5
        },
        {
          "name": "A5",
          "midi": 81,
          "time": 1074,
          "velocity": 1,
          "duration": 0.5
        },
        {
          "name": "A5",
          "midi": 81,
          "time": 1074.5,
          "velocity": 1,
          "duration": 0.5
        },
        {
          "name": "A5",
          "midi": 81,
          "time": 1075,
          "velocity": 1,
          "duration": 0.5
        },
        {
          "name": "A5",
          "midi": 81,
          "time": 1075.5,
          "velocity": 1,
          "duration": 0.5
        },
        {
          "name": "A5",
          "midi": 81,
          "time": 1076,
          "velocity": 1,
          "duration": 0.5
        },
        {
          "name": "A5",
          "midi": 81,
          "time": 1076.5,
          "velocity": 1,
          "duration": 0.5
        },
        {
          "name": "A5",
          "midi": 81,
          "time": 1077,
          "velocity": 1,
          "duration": 0.5
        },
        {
          "name": "A5",
          "midi": 81,
          "time": 1077.5,
          "velocity": 1,
          "duration": 0.5
        },
        {
          "name": "A5",
          "midi": 81,
          "time": 1078,
          "velocity": 1,
          "duration": 0.5
        },
        {
          "name": "A5",
          "midi": 81,
          "time": 1078.5,
          "velocity": 1,
          "duration": 0.5
        },
        {
          "name": "A5",
          "midi": 81,
          "time": 1079,
          "velocity": 1,
          "duration": 0.5
        },
        {
          "name": "A5",
          "midi": 81,
          "time": 1079.5,
          "velocity": 1,
          "duration": 0.5
        },
        {
          "name": "A5",
          "midi": 81,
          "time": 1080,
          "velocity": 1,
          "duration": 0.5
        },
        {
          "name": "A5",
          "midi": 81,
          "time": 1080.5,
          "velocity": 1,
          "duration": 0.5
        },
        {
          "name": "A5",
          "midi": 81,
          "time": 1081,
          "velocity": 1,
          "duration": 0.5
        },
        {
          "name": "A5",
          "midi": 81,
          "time": 1081.5,
          "velocity": 1,
          "duration": 0.5
        },
        {
          "name": "A5",
          "midi": 81,
          "time": 1082,
          "velocity": 1,
          "duration": 0.5
        },
        {
          "name": "A5",
          "midi": 81,
          "time": 1082.5,
          "velocity": 1,
          "duration": 0.5
        },
        {
          "name": "A5",
          "midi": 81,
          "time": 1083,
          "velocity": 1,
          "duration": 0.5
        },
        {
          "name": "A5",
          "midi": 81,
          "time": 1083.5,
          "velocity": 1,
          "duration": 0.5
        },
        {
          "name": "A5",
          "midi": 81,
          "time": 1084,
          "velocity": 1,
          "duration": 0.5
        },
        {
          "name": "A5",
          "midi": 81,
          "time": 1084.5,
          "velocity": 1,
          "duration": 0.5
        },
        {
          "name": "A5",
          "midi": 81,
          "time": 1085,
          "velocity": 1,
          "duration": 0.5
        },
        {
          "name": "A5",
          "midi": 81,
          "time": 1085.5,
          "velocity": 1,
          "duration": 0.5
        },
        {
          "name": "A5",
          "midi": 81,
          "time": 1086,
          "velocity": 1,
          "duration": 0.5
        },
        {
          "name": "A5",
          "midi": 81,
          "time": 1086.5,
          "velocity": 1,
          "duration": 0.5
        },
        {
          "name": "A5",
          "midi": 81,
          "time": 1087,
          "velocity": 1,
          "duration": 0.5
        },
        {
          "name": "A5",
          "midi": 81,
          "time": 1087.5,
          "velocity": 1,
          "duration": 0.5
        },
        {
          "name": "A5",
          "midi": 81,
          "time": 1088,
          "velocity": 1,
          "duration": 0.5
        },
        {
          "name": "A5",
          "midi": 81,
          "time": 1088.5,
          "velocity": 1,
          "duration": 0.5
        },
        {
          "name": "A5",
          "midi": 81,
          "time": 1089,
          "velocity": 1,
          "duration": 0.5
        },
        {
          "name": "A5",
          "midi": 81,
          "time": 1089.5,
          "velocity": 1,
          "duration": 0.5
        },
        {
          "name": "A5",
          "midi": 81,
          "time": 1090,
          "velocity": 1,
          "duration": 0.5
        },
        {
          "name": "A5",
          "midi": 81,
          "time": 1090.5,
          "velocity": 1,
          "duration": 0.5
        },
        {
          "name": "A5",
          "midi": 81,
          "time": 1091,
          "velocity": 1,
          "duration": 0.5
        },
        {
          "name": "A5",
          "midi": 81,
          "time": 1091.5,
          "velocity": 1,
          "duration": 0.5
        },
        {
          "name": "A5",
          "midi": 81,
          "time": 1092,
          "velocity": 1,
          "duration": 0.5
        },
        {
          "name": "A5",
          "midi": 81,
          "time": 1092.5,
          "velocity": 1,
          "duration": 0.5
        },
        {
          "name": "A5",
          "midi": 81,
          "time": 1093,
          "velocity": 1,
          "duration": 0.5
        },
        {
          "name": "A5",
          "midi": 81,
          "time": 1093.5,
          "velocity": 1,
          "duration": 0.5
        },
        {
          "name": "A5",
          "midi": 81,
          "time": 1094,
          "velocity": 1,
          "duration": 0.5
        },
        {
          "name": "A5",
          "midi": 81,
          "time": 1094.5,
          "velocity": 1,
          "duration": 0.5
        },
        {
          "name": "A5",
          "midi": 81,
          "time": 1095,
          "velocity": 1,
          "duration": 0.5
        },
        {
          "name": "A5",
          "midi": 81,
          "time": 1095.5,
          "velocity": 1,
          "duration": 0.5
        },
        {
          "name": "A5",
          "midi": 81,
          "time": 1096,
          "velocity": 1,
          "duration": 0.5
        },
        {
          "name": "A5",
          "midi": 81,
          "time": 1096.5,
          "velocity": 1,
          "duration": 0.5
        },
        {
          "name": "A5",
          "midi": 81,
          "time": 1097,
          "velocity": 1,
          "duration": 0.5
        },
        {
          "name": "A5",
          "midi": 81,
          "time": 1097.5,
          "velocity": 1,
          "duration": 0.5
        },
        {
          "name": "A5",
          "midi": 81,
          "time": 1098,
          "velocity": 1,
          "duration": 0.5
        },
        {
          "name": "A5",
          "midi": 81,
          "time": 1098.5,
          "velocity": 1,
          "duration": 0.5
        },
        {
          "name": "A5",
          "midi": 81,
          "time": 1099,
          "velocity": 1,
          "duration": 0.5
        },
        {
          "name": "A5",
          "midi": 81,
          "time": 1099.5,
          "velocity": 1,
          "duration": 0.5
        },
        {
          "name": "A5",
          "midi": 81,
          "time": 1100,
          "velocity": 1,
          "duration": 0.5
        },
        {
          "name": "A5",
          "midi": 81,
          "time": 1100.5,
          "velocity": 1,
          "duration": 0.5
        },
        {
          "name": "A5",
          "midi": 81,
          "time": 1101,
          "velocity": 1,
          "duration": 0.5
        },
        {
          "name": "A5",
          "midi": 81,
          "time": 1101.5,
          "velocity": 1,
          "duration": 0.5
        },
        {
          "name": "A5",
          "midi": 81,
          "time": 1102,
          "velocity": 1,
          "duration": 0.5
        },
        {
          "name": "A5",
          "midi": 81,
          "time": 1102.5,
          "velocity": 1,
          "duration": 0.5
        },
        {
          "name": "A5",
          "midi": 81,
          "time": 1103,
          "velocity": 1,
          "duration": 0.5
        },
        {
          "name": "A5",
          "midi": 81,
          "time": 1103.5,
          "velocity": 1,
          "duration": 0.5
        },
        {
          "name": "A5",
          "midi": 81,
          "time": 1104,
          "velocity": 1,
          "duration": 0.5
        },
        {
          "name": "A5",
          "midi": 81,
          "time": 1104.5,
          "velocity": 1,
          "duration": 0.5
        },
        {
          "name": "A5",
          "midi": 81,
          "time": 1105,
          "velocity": 1,
          "duration": 0.5
        },
        {
          "name": "A5",
          "midi": 81,
          "time": 1105.5,
          "velocity": 1,
          "duration": 0.5
        },
        {
          "name": "A5",
          "midi": 81,
          "time": 1106,
          "velocity": 1,
          "duration": 0.5
        },
        {
          "name": "A5",
          "midi": 81,
          "time": 1106.5,
          "velocity": 1,
          "duration": 0.5
        },
        {
          "name": "A5",
          "midi": 81,
          "time": 1107,
          "velocity": 1,
          "duration": 0.5
        },
        {
          "name": "A5",
          "midi": 81,
          "time": 1107.5,
          "velocity": 1,
          "duration": 0.5
        },
        {
          "name": "A5",
          "midi": 81,
          "time": 1108,
          "velocity": 1,
          "duration": 0.5
        },
        {
          "name": "A5",
          "midi": 81,
          "time": 1108.5,
          "velocity": 1,
          "duration": 0.5
        },
        {
          "name": "A5",
          "midi": 81,
          "time": 1109,
          "velocity": 1,
          "duration": 0.5
        },
        {
          "name": "A5",
          "midi": 81,
          "time": 1109.5,
          "velocity": 1,
          "duration": 0.5
        },
        {
          "name": "A5",
          "midi": 81,
          "time": 1110,
          "velocity": 1,
          "duration": 0.5
        },
        {
          "name": "A5",
          "midi": 81,
          "time": 1110.5,
          "velocity": 1,
          "duration": 0.5
        },
        {
          "name": "A5",
          "midi": 81,
          "time": 1111,
          "velocity": 1,
          "duration": 0.5
        },
        {
          "name": "A5",
          "midi": 81,
          "time": 1111.5,
          "velocity": 1,
          "duration": 0.5
        },
        {
          "name": "A5",
          "midi": 81,
          "time": 1112,
          "velocity": 1,
          "duration": 0.5
        },
        {
          "name": "A5",
          "midi": 81,
          "time": 1112.5,
          "velocity": 1,
          "duration": 0.5
        },
        {
          "name": "A5",
          "midi": 81,
          "time": 1113,
          "velocity": 1,
          "duration": 0.5
        },
        {
          "name": "A5",
          "midi": 81,
          "time": 1113.5,
          "velocity": 1,
          "duration": 0.5
        },
        {
          "name": "A5",
          "midi": 81,
          "time": 1114,
          "velocity": 1,
          "duration": 0.5
        },
        {
          "name": "A5",
          "midi": 81,
          "time": 1114.5,
          "velocity": 1,
          "duration": 0.5
        },
        {
          "name": "A5",
          "midi": 81,
          "time": 1115,
          "velocity": 1,
          "duration": 0.5
        },
        {
          "name": "A5",
          "midi": 81,
          "time": 1115.5,
          "velocity": 1,
          "duration": 0.5
        },
        {
          "name": "A5",
          "midi": 81,
          "time": 1116,
          "velocity": 1,
          "duration": 0.5
        },
        {
          "name": "A5",
          "midi": 81,
          "time": 1116.5,
          "velocity": 1,
          "duration": 0.5
        },
        {
          "name": "A5",
          "midi": 81,
          "time": 1117,
          "velocity": 1,
          "duration": 0.5
        },
        {
          "name": "A5",
          "midi": 81,
          "time": 1117.5,
          "velocity": 1,
          "duration": 0.5
        },
        {
          "name": "A5",
          "midi": 81,
          "time": 1118,
          "velocity": 1,
          "duration": 0.5
        },
        {
          "name": "A5",
          "midi": 81,
          "time": 1118.5,
          "velocity": 1,
          "duration": 0.5
        },
        {
          "name": "A5",
          "midi": 81,
          "time": 1119,
          "velocity": 1,
          "duration": 0.5
        },
        {
          "name": "A5",
          "midi": 81,
          "time": 1119.5,
          "velocity": 1,
          "duration": 0.5
        },
        {
          "name": "A5",
          "midi": 81,
          "time": 1120,
          "velocity": 1,
          "duration": 0.5
        },
        {
          "name": "A5",
          "midi": 81,
          "time": 1120.5,
          "velocity": 1,
          "duration": 0.5
        },
        {
          "name": "A5",
          "midi": 81,
          "time": 1121,
          "velocity": 1,
          "duration": 0.5
        },
        {
          "name": "A5",
          "midi": 81,
          "time": 1121.5,
          "velocity": 1,
          "duration": 0.5
        },
        {
          "name": "A5",
          "midi": 81,
          "time": 1122,
          "velocity": 1,
          "duration": 0.5
        },
        {
          "name": "A5",
          "midi": 81,
          "time": 1122.5,
          "velocity": 1,
          "duration": 0.5
        },
        {
          "name": "A5",
          "midi": 81,
          "time": 1123,
          "velocity": 1,
          "duration": 0.5
        },
        {
          "name": "A5",
          "midi": 81,
          "time": 1123.5,
          "velocity": 1,
          "duration": 0.5
        },
        {
          "name": "A5",
          "midi": 81,
          "time": 1124,
          "velocity": 1,
          "duration": 0.5
        },
        {
          "name": "A5",
          "midi": 81,
          "time": 1124.5,
          "velocity": 1,
          "duration": 0.5
        },
        {
          "name": "A5",
          "midi": 81,
          "time": 1125,
          "velocity": 1,
          "duration": 0.5
        },
        {
          "name": "A5",
          "midi": 81,
          "time": 1125.5,
          "velocity": 1,
          "duration": 0.5
        },
        {
          "name": "A5",
          "midi": 81,
          "time": 1126,
          "velocity": 1,
          "duration": 0.5
        },
        {
          "name": "A5",
          "midi": 81,
          "time": 1126.5,
          "velocity": 1,
          "duration": 0.5
        },
        {
          "name": "A5",
          "midi": 81,
          "time": 1127,
          "velocity": 1,
          "duration": 0.5
        },
        {
          "name": "A5",
          "midi": 81,
          "time": 1127.5,
          "velocity": 1,
          "duration": 0.5
        },
        {
          "name": "A5",
          "midi": 81,
          "time": 1128,
          "velocity": 1,
          "duration": 0.5
        },
        {
          "name": "A5",
          "midi": 81,
          "time": 1128.5,
          "velocity": 1,
          "duration": 0.5
        },
        {
          "name": "A5",
          "midi": 81,
          "time": 1129,
          "velocity": 1,
          "duration": 0.5
        },
        {
          "name": "A5",
          "midi": 81,
          "time": 1129.5,
          "velocity": 1,
          "duration": 0.5
        },
        {
          "name": "A5",
          "midi": 81,
          "time": 1130,
          "velocity": 1,
          "duration": 0.5
        },
        {
          "name": "A5",
          "midi": 81,
          "time": 1130.5,
          "velocity": 1,
          "duration": 0.5
        },
        {
          "name": "A5",
          "midi": 81,
          "time": 1131,
          "velocity": 1,
          "duration": 0.5
        },
        {
          "name": "A5",
          "midi": 81,
          "time": 1131.5,
          "velocity": 1,
          "duration": 0.5
        },
        {
          "name": "A5",
          "midi": 81,
          "time": 1132,
          "velocity": 1,
          "duration": 0.5
        },
        {
          "name": "A5",
          "midi": 81,
          "time": 1132.5,
          "velocity": 1,
          "duration": 0.5
        },
        {
          "name": "A5",
          "midi": 81,
          "time": 1133,
          "velocity": 1,
          "duration": 0.5
        },
        {
          "name": "A5",
          "midi": 81,
          "time": 1133.5,
          "velocity": 1,
          "duration": 0.5
        },
        {
          "name": "A5",
          "midi": 81,
          "time": 1134,
          "velocity": 1,
          "duration": 0.5
        },
        {
          "name": "A5",
          "midi": 81,
          "time": 1134.5,
          "velocity": 1,
          "duration": 0.5
        },
        {
          "name": "A5",
          "midi": 81,
          "time": 1135,
          "velocity": 1,
          "duration": 0.5
        },
        {
          "name": "A5",
          "midi": 81,
          "time": 1135.5,
          "velocity": 1,
          "duration": 0.5
        },
        {
          "name": "A5",
          "midi": 81,
          "time": 1136,
          "velocity": 1,
          "duration": 0.5
        },
        {
          "name": "A5",
          "midi": 81,
          "time": 1136.5,
          "velocity": 1,
          "duration": 0.5
        },
        {
          "name": "A5",
          "midi": 81,
          "time": 1137,
          "velocity": 1,
          "duration": 0.5
        },
        {
          "name": "A5",
          "midi": 81,
          "time": 1137.5,
          "velocity": 1,
          "duration": 0.5
        },
        {
          "name": "A5",
          "midi": 81,
          "time": 1138,
          "velocity": 1,
          "duration": 0.5
        },
        {
          "name": "A5",
          "midi": 81,
          "time": 1138.5,
          "velocity": 1,
          "duration": 0.5
        },
        {
          "name": "A5",
          "midi": 81,
          "time": 1139,
          "velocity": 1,
          "duration": 0.5
        },
        {
          "name": "A5",
          "midi": 81,
          "time": 1139.5,
          "velocity": 1,
          "duration": 0.5
        },
        {
          "name": "A5",
          "midi": 81,
          "time": 1140,
          "velocity": 1,
          "duration": 0.5
        },
        {
          "name": "A5",
          "midi": 81,
          "time": 1140.5,
          "velocity": 1,
          "duration": 0.5
        },
        {
          "name": "A5",
          "midi": 81,
          "time": 1141,
          "velocity": 1,
          "duration": 0.5
        },
        {
          "name": "A5",
          "midi": 81,
          "time": 1141.5,
          "velocity": 1,
          "duration": 0.5
        },
        {
          "name": "A5",
          "midi": 81,
          "time": 1142,
          "velocity": 1,
          "duration": 0.5
        },
        {
          "name": "A5",
          "midi": 81,
          "time": 1142.5,
          "velocity": 1,
          "duration": 0.5
        },
        {
          "name": "A5",
          "midi": 81,
          "time": 1143,
          "velocity": 1,
          "duration": 0.5
        },
        {
          "name": "A5",
          "midi": 81,
          "time": 1143.5,
          "velocity": 1,
          "duration": 0.5
        },
        {
          "name": "A5",
          "midi": 81,
          "time": 1144,
          "velocity": 1,
          "duration": 0.5
        },
        {
          "name": "A5",
          "midi": 81,
          "time": 1144.5,
          "velocity": 1,
          "duration": 0.5
        },
        {
          "name": "A5",
          "midi": 81,
          "time": 1145,
          "velocity": 1,
          "duration": 0.5
        },
        {
          "name": "A5",
          "midi": 81,
          "time": 1145.5,
          "velocity": 1,
          "duration": 0.5
        },
        {
          "name": "A5",
          "midi": 81,
          "time": 1146,
          "velocity": 1,
          "duration": 0.5
        },
        {
          "name": "A5",
          "midi": 81,
          "time": 1146.5,
          "velocity": 1,
          "duration": 0.5
        },
        {
          "name": "A5",
          "midi": 81,
          "time": 1147,
          "velocity": 1,
          "duration": 0.5
        },
        {
          "name": "A5",
          "midi": 81,
          "time": 1147.5,
          "velocity": 1,
          "duration": 0.5
        },
        {
          "name": "A5",
          "midi": 81,
          "time": 1148,
          "velocity": 1,
          "duration": 0.5
        },
        {
          "name": "A5",
          "midi": 81,
          "time": 1148.5,
          "velocity": 1,
          "duration": 0.5
        },
        {
          "name": "A5",
          "midi": 81,
          "time": 1149,
          "velocity": 1,
          "duration": 0.5
        },
        {
          "name": "A5",
          "midi": 81,
          "time": 1149.5,
          "velocity": 1,
          "duration": 0.5
        },
        {
          "name": "A5",
          "midi": 81,
          "time": 1150,
          "velocity": 1,
          "duration": 0.5
        },
        {
          "name": "A5",
          "midi": 81,
          "time": 1150.5,
          "velocity": 1,
          "duration": 0.5
        },
        {
          "name": "A5",
          "midi": 81,
          "time": 1151,
          "velocity": 1,
          "duration": 0.5
        },
        {
          "name": "A5",
          "midi": 81,
          "time": 1151.5,
          "velocity": 1,
          "duration": 0.5
        },
        {
          "name": "A5",
          "midi": 81,
          "time": 1152,
          "velocity": 1,
          "duration": 0.5
        },
        {
          "name": "A5",
          "midi": 81,
          "time": 1152.5,
          "velocity": 1,
          "duration": 0.5
        },
        {
          "name": "A5",
          "midi": 81,
          "time": 1153,
          "velocity": 1,
          "duration": 0.5
        },
        {
          "name": "A5",
          "midi": 81,
          "time": 1153.5,
          "velocity": 1,
          "duration": 0.5
        },
        {
          "name": "A5",
          "midi": 81,
          "time": 1154,
          "velocity": 1,
          "duration": 0.5
        },
        {
          "name": "A5",
          "midi": 81,
          "time": 1154.5,
          "velocity": 1,
          "duration": 0.5
        },
        {
          "name": "A5",
          "midi": 81,
          "time": 1155,
          "velocity": 1,
          "duration": 0.5
        },
        {
          "name": "A5",
          "midi": 81,
          "time": 1155.5,
          "velocity": 1,
          "duration": 0.5
        },
        {
          "name": "A5",
          "midi": 81,
          "time": 1156,
          "velocity": 1,
          "duration": 0.5
        },
        {
          "name": "A5",
          "midi": 81,
          "time": 1156.5,
          "velocity": 1,
          "duration": 0.5
        },
        {
          "name": "A5",
          "midi": 81,
          "time": 1157,
          "velocity": 1,
          "duration": 0.5
        },
        {
          "name": "A5",
          "midi": 81,
          "time": 1157.5,
          "velocity": 1,
          "duration": 0.5
        },
        {
          "name": "A5",
          "midi": 81,
          "time": 1158,
          "velocity": 1,
          "duration": 0.5
        },
        {
          "name": "A5",
          "midi": 81,
          "time": 1158.5,
          "velocity": 1,
          "duration": 0.5
        },
        {
          "name": "A5",
          "midi": 81,
          "time": 1159,
          "velocity": 1,
          "duration": 0.5
        },
        {
          "name": "A5",
          "midi": 81,
          "time": 1159.5,
          "velocity": 1,
          "duration": 0.5
        },
        {
          "name": "A5",
          "midi": 81,
          "time": 1160,
          "velocity": 1,
          "duration": 0.5
        },
        {
          "name": "A5",
          "midi": 81,
          "time": 1160.5,
          "velocity": 1,
          "duration": 0.5
        },
        {
          "name": "A5",
          "midi": 81,
          "time": 1161,
          "velocity": 1,
          "duration": 0.5
        },
        {
          "name": "A5",
          "midi": 81,
          "time": 1161.5,
          "velocity": 1,
          "duration": 0.5
        },
        {
          "name": "A5",
          "midi": 81,
          "time": 1162,
          "velocity": 1,
          "duration": 0.5
        },
        {
          "name": "A5",
          "midi": 81,
          "time": 1162.5,
          "velocity": 1,
          "duration": 0.5
        },
        {
          "name": "A5",
          "midi": 81,
          "time": 1163,
          "velocity": 1,
          "duration": 0.5
        },
        {
          "name": "A5",
          "midi": 81,
          "time": 1163.5,
          "velocity": 1,
          "duration": 0.5
        },
        {
          "name": "A5",
          "midi": 81,
          "time": 1164,
          "velocity": 1,
          "duration": 0.5
        },
        {
          "name": "A5",
          "midi": 81,
          "time": 1164.5,
          "velocity": 1,
          "duration": 0.5
        },
        {
          "name": "A5",
          "midi": 81,
          "time": 1165,
          "velocity": 1,
          "duration": 0.5
        },
        {
          "name": "A5",
          "midi": 81,
          "time": 1165.5,
          "velocity": 1,
          "duration": 0.5
        },
        {
          "name": "A5",
          "midi": 81,
          "time": 1166,
          "velocity": 1,
          "duration": 0.5
        },
        {
          "name": "A5",
          "midi": 81,
          "time": 1166.5,
          "velocity": 1,
          "duration": 0.5
        },
        {
          "name": "A5",
          "midi": 81,
          "time": 1167,
          "velocity": 1,
          "duration": 0.5
        },
        {
          "name": "A5",
          "midi": 81,
          "time": 1167.5,
          "velocity": 1,
          "duration": 0.5
        },
        {
          "name": "A5",
          "midi": 81,
          "time": 1168,
          "velocity": 1,
          "duration": 0.5
        },
        {
          "name": "A5",
          "midi": 81,
          "time": 1168.5,
          "velocity": 1,
          "duration": 0.5
        },
        {
          "name": "A5",
          "midi": 81,
          "time": 1169,
          "velocity": 1,
          "duration": 0.5
        },
        {
          "name": "A5",
          "midi": 81,
          "time": 1169.5,
          "velocity": 1,
          "duration": 0.5
        },
        {
          "name": "A5",
          "midi": 81,
          "time": 1170,
          "velocity": 1,
          "duration": 0.5
        },
        {
          "name": "A5",
          "midi": 81,
          "time": 1170.5,
          "velocity": 1,
          "duration": 0.5
        },
        {
          "name": "A5",
          "midi": 81,
          "time": 1171,
          "velocity": 1,
          "duration": 0.5
        },
        {
          "name": "A5",
          "midi": 81,
          "time": 1171.5,
          "velocity": 1,
          "duration": 0.5
        },
        {
          "name": "A5",
          "midi": 81,
          "time": 1172,
          "velocity": 1,
          "duration": 0.5
        },
        {
          "name": "A5",
          "midi": 81,
          "time": 1172.5,
          "velocity": 1,
          "duration": 0.5
        },
        {
          "name": "A5",
          "midi": 81,
          "time": 1173,
          "velocity": 1,
          "duration": 0.5
        },
        {
          "name": "A5",
          "midi": 81,
          "time": 1173.5,
          "velocity": 1,
          "duration": 0.5
        },
        {
          "name": "A5",
          "midi": 81,
          "time": 1174,
          "velocity": 1,
          "duration": 0.5
        },
        {
          "name": "A5",
          "midi": 81,
          "time": 1174.5,
          "velocity": 1,
          "duration": 0.5
        },
        {
          "name": "A5",
          "midi": 81,
          "time": 1175,
          "velocity": 1,
          "duration": 0.5
        },
        {
          "name": "A5",
          "midi": 81,
          "time": 1175.5,
          "velocity": 1,
          "duration": 0.5
        },
        {
          "name": "A5",
          "midi": 81,
          "time": 1176,
          "velocity": 1,
          "duration": 0.5
        },
        {
          "name": "A5",
          "midi": 81,
          "time": 1176.5,
          "velocity": 1,
          "duration": 0.5
        },
        {
          "name": "A5",
          "midi": 81,
          "time": 1177,
          "velocity": 1,
          "duration": 0.5
        },
        {
          "name": "A5",
          "midi": 81,
          "time": 1177.5,
          "velocity": 1,
          "duration": 0.5
        },
        {
          "name": "A5",
          "midi": 81,
          "time": 1178,
          "velocity": 1,
          "duration": 0.5
        },
        {
          "name": "A5",
          "midi": 81,
          "time": 1178.5,
          "velocity": 1,
          "duration": 0.5
        },
        {
          "name": "A5",
          "midi": 81,
          "time": 1179,
          "velocity": 1,
          "duration": 0.5
        },
        {
          "name": "A5",
          "midi": 81,
          "time": 1179.5,
          "velocity": 1,
          "duration": 0.5
        },
        {
          "name": "A5",
          "midi": 81,
          "time": 1180,
          "velocity": 1,
          "duration": 0.5
        },
        {
          "name": "A5",
          "midi": 81,
          "time": 1180.5,
          "velocity": 1,
          "duration": 0.5
        },
        {
          "name": "A5",
          "midi": 81,
          "time": 1181,
          "velocity": 1,
          "duration": 0.5
        },
        {
          "name": "A5",
          "midi": 81,
          "time": 1181.5,
          "velocity": 1,
          "duration": 0.5
        },
        {
          "name": "A5",
          "midi": 81,
          "time": 1182,
          "velocity": 1,
          "duration": 0.5
        },
        {
          "name": "A5",
          "midi": 81,
          "time": 1182.5,
          "velocity": 1,
          "duration": 0.5
        },
        {
          "name": "A5",
          "midi": 81,
          "time": 1183,
          "velocity": 1,
          "duration": 0.5
        },
        {
          "name": "A5",
          "midi": 81,
          "time": 1183.5,
          "velocity": 1,
          "duration": 0.5
        },
        {
          "name": "A5",
          "midi": 81,
          "time": 1184,
          "velocity": 1,
          "duration": 0.5
        },
        {
          "name": "A5",
          "midi": 81,
          "time": 1184.5,
          "velocity": 1,
          "duration": 0.5
        },
        {
          "name": "A5",
          "midi": 81,
          "time": 1185,
          "velocity": 1,
          "duration": 0.5
        },
        {
          "name": "A5",
          "midi": 81,
          "time": 1185.5,
          "velocity": 1,
          "duration": 0.5
        },
        {
          "name": "A5",
          "midi": 81,
          "time": 1186,
          "velocity": 1,
          "duration": 0.5
        },
        {
          "name": "A5",
          "midi": 81,
          "time": 1186.5,
          "velocity": 1,
          "duration": 0.5
        },
        {
          "name": "A5",
          "midi": 81,
          "time": 1187,
          "velocity": 1,
          "duration": 0.5
        },
        {
          "name": "A5",
          "midi": 81,
          "time": 1187.5,
          "velocity": 1,
          "duration": 0.5
        },
        {
          "name": "A5",
          "midi": 81,
          "time": 1188,
          "velocity": 1,
          "duration": 0.5
        },
        {
          "name": "A5",
          "midi": 81,
          "time": 1188.5,
          "velocity": 1,
          "duration": 0.5
        },
        {
          "name": "A5",
          "midi": 81,
          "time": 1189,
          "velocity": 1,
          "duration": 0.5
        },
        {
          "name": "A5",
          "midi": 81,
          "time": 1189.5,
          "velocity": 1,
          "duration": 0.5
        },
        {
          "name": "A5",
          "midi": 81,
          "time": 1190,
          "velocity": 1,
          "duration": 0.5
        },
        {
          "name": "A5",
          "midi": 81,
          "time": 1190.5,
          "velocity": 1,
          "duration": 0.5
        },
        {
          "name": "A5",
          "midi": 81,
          "time": 1191,
          "velocity": 1,
          "duration": 0.5
        },
        {
          "name": "A5",
          "midi": 81,
          "time": 1191.5,
          "velocity": 1,
          "duration": 0.5
        },
        {
          "name": "A5",
          "midi": 81,
          "time": 1192,
          "velocity": 1,
          "duration": 0.5
        },
        {
          "name": "A5",
          "midi": 81,
          "time": 1192.5,
          "velocity": 1,
          "duration": 0.5
        },
        {
          "name": "A5",
          "midi": 81,
          "time": 1193,
          "velocity": 1,
          "duration": 0.5
        },
        {
          "name": "A5",
          "midi": 81,
          "time": 1193.5,
          "velocity": 1,
          "duration": 0.5
        },
        {
          "name": "A5",
          "midi": 81,
          "time": 1194,
          "velocity": 1,
          "duration": 0.5
        },
        {
          "name": "A5",
          "midi": 81,
          "time": 1194.5,
          "velocity": 1,
          "duration": 0.5
        },
        {
          "name": "A5",
          "midi": 81,
          "time": 1195,
          "velocity": 1,
          "duration": 0.5
        },
        {
          "name": "A5",
          "midi": 81,
          "time": 1195.5,
          "velocity": 1,
          "duration": 0.5
        },
        {
          "name": "A5",
          "midi": 81,
          "time": 1196,
          "velocity": 1,
          "duration": 0.5
        },
        {
          "name": "A5",
          "midi": 81,
          "time": 1196.5,
          "velocity": 1,
          "duration": 0.5
        },
        {
          "name": "A5",
          "midi": 81,
          "time": 1197,
          "velocity": 1,
          "duration": 0.5
        },
        {
          "name": "A5",
          "midi": 81,
          "time": 1197.5,
          "velocity": 1,
          "duration": 0.5
        },
        {
          "name": "A5",
          "midi": 81,
          "time": 1198,
          "velocity": 1,
          "duration": 0.5
        },
        {
          "name": "A5",
          "midi": 81,
          "time": 1198.5,
          "velocity": 1,
          "duration": 0.5
        },
        {
          "name": "A5",
          "midi": 81,
          "time": 1199,
          "velocity": 1,
          "duration": 0.5
        },
        {
          "name": "A5",
          "midi": 81,
          "time": 1199.5,
          "velocity": 1,
          "duration": 0.5
        },
        {
          "name": "A5",
          "midi": 81,
          "time": 1200,
          "velocity": 1,
          "duration": 0.5
        },
        {
          "name": "A5",
          "midi": 81,
          "time": 1200.5,
          "velocity": 1,
          "duration": 0.5
        },
        {
          "name": "A5",
          "midi": 81,
          "time": 1201,
          "velocity": 1,
          "duration": 0.5
        },
        {
          "name": "A5",
          "midi": 81,
          "time": 1201.5,
          "velocity": 1,
          "duration": 0.5
        },
        {
          "name": "A5",
          "midi": 81,
          "time": 1202,
          "velocity": 1,
          "duration": 0.5
        },
        {
          "name": "A5",
          "midi": 81,
          "time": 1202.5,
          "velocity": 1,
          "duration": 0.5
        },
        {
          "name": "A5",
          "midi": 81,
          "time": 1203,
          "velocity": 1,
          "duration": 0.5
        },
        {
          "name": "A5",
          "midi": 81,
          "time": 1203.5,
          "velocity": 1,
          "duration": 0.5
        },
        {
          "name": "A5",
          "midi": 81,
          "time": 1204,
          "velocity": 1,
          "duration": 0.5
        },
        {
          "name": "A5",
          "midi": 81,
          "time": 1204.5,
          "velocity": 1,
          "duration": 0.5
        },
        {
          "name": "A5",
          "midi": 81,
          "time": 1205,
          "velocity": 1,
          "duration": 0.5
        },
        {
          "name": "A5",
          "midi": 81,
          "time": 1205.5,
          "velocity": 1,
          "duration": 0.5
        },
        {
          "name": "A5",
          "midi": 81,
          "time": 1206,
          "velocity": 1,
          "duration": 0.5
        },
        {
          "name": "A5",
          "midi": 81,
          "time": 1206.5,
          "velocity": 1,
          "duration": 0.5
        },
        {
          "name": "A5",
          "midi": 81,
          "time": 1207,
          "velocity": 1,
          "duration": 0.5
        },
        {
          "name": "A5",
          "midi": 81,
          "time": 1207.5,
          "velocity": 1,
          "duration": 0.5
        },
        {
          "name": "A5",
          "midi": 81,
          "time": 1208,
          "velocity": 1,
          "duration": 0.5
        },
        {
          "name": "A5",
          "midi": 81,
          "time": 1208.5,
          "velocity": 1,
          "duration": 0.5
        },
        {
          "name": "A5",
          "midi": 81,
          "time": 1209,
          "velocity": 1,
          "duration": 0.5
        },
        {
          "name": "A5",
          "midi": 81,
          "time": 1209.5,
          "velocity": 1,
          "duration": 0.5
        },
        {
          "name": "A5",
          "midi": 81,
          "time": 1210,
          "velocity": 1,
          "duration": 0.5
        },
        {
          "name": "A5",
          "midi": 81,
          "time": 1210.5,
          "velocity": 1,
          "duration": 0.5
        },
        {
          "name": "A5",
          "midi": 81,
          "time": 1211,
          "velocity": 1,
          "duration": 0.5
        },
        {
          "name": "A5",
          "midi": 81,
          "time": 1211.5,
          "velocity": 1,
          "duration": 0.5
        },
        {
          "name": "A5",
          "midi": 81,
          "time": 1212,
          "velocity": 1,
          "duration": 0.5
        },
        {
          "name": "A5",
          "midi": 81,
          "time": 1212.5,
          "velocity": 1,
          "duration": 0.5
        },
        {
          "name": "A5",
          "midi": 81,
          "time": 1213,
          "velocity": 1,
          "duration": 0.5
        },
        {
          "name": "A5",
          "midi": 81,
          "time": 1213.5,
          "velocity": 1,
          "duration": 0.5
        },
        {
          "name": "A5",
          "midi": 81,
          "time": 1214,
          "velocity": 1,
          "duration": 0.5
        },
        {
          "name": "A5",
          "midi": 81,
          "time": 1214.5,
          "velocity": 1,
          "duration": 0.5
        },
        {
          "name": "A5",
          "midi": 81,
          "time": 1215,
          "velocity": 1,
          "duration": 0.5
        },
        {
          "name": "A5",
          "midi": 81,
          "time": 1215.5,
          "velocity": 1,
          "duration": 0.5
        },
        {
          "name": "A5",
          "midi": 81,
          "time": 1216,
          "velocity": 1,
          "duration": 0.5
        },
        {
          "name": "A5",
          "midi": 81,
          "time": 1216.5,
          "velocity": 1,
          "duration": 0.5
        },
        {
          "name": "A5",
          "midi": 81,
          "time": 1217,
          "velocity": 1,
          "duration": 0.5
        },
        {
          "name": "A5",
          "midi": 81,
          "time": 1217.5,
          "velocity": 1,
          "duration": 0.5
        },
        {
          "name": "A5",
          "midi": 81,
          "time": 1218,
          "velocity": 1,
          "duration": 0.5
        },
        {
          "name": "A5",
          "midi": 81,
          "time": 1218.5,
          "velocity": 1,
          "duration": 0.5
        },
        {
          "name": "A5",
          "midi": 81,
          "time": 1219,
          "velocity": 1,
          "duration": 0.5
        },
        {
          "name": "A5",
          "midi": 81,
          "time": 1219.5,
          "velocity": 1,
          "duration": 0.5
        },
        {
          "name": "A5",
          "midi": 81,
          "time": 1220,
          "velocity": 1,
          "duration": 0.5
        },
        {
          "name": "A5",
          "midi": 81,
          "time": 1220.5,
          "velocity": 1,
          "duration": 0.5
        },
        {
          "name": "A5",
          "midi": 81,
          "time": 1221,
          "velocity": 1,
          "duration": 0.5
        },
        {
          "name": "A5",
          "midi": 81,
          "time": 1221.5,
          "velocity": 1,
          "duration": 0.5
        },
        {
          "name": "A5",
          "midi": 81,
          "time": 1222,
          "velocity": 1,
          "duration": 0.5
        },
        {
          "name": "A5",
          "midi": 81,
          "time": 1222.5,
          "velocity": 1,
          "duration": 0.5
        },
        {
          "name": "A5",
          "midi": 81,
          "time": 1223,
          "velocity": 1,
          "duration": 0.5
        },
        {
          "name": "A5",
          "midi": 81,
          "time": 1223.5,
          "velocity": 1,
          "duration": 0.5
        },
        {
          "name": "A5",
          "midi": 81,
          "time": 1224,
          "velocity": 1,
          "duration": 0.5
        },
        {
          "name": "A5",
          "midi": 81,
          "time": 1224.5,
          "velocity": 1,
          "duration": 0.5
        },
        {
          "name": "A5",
          "midi": 81,
          "time": 1225,
          "velocity": 1,
          "duration": 0.5
        },
        {
          "name": "A5",
          "midi": 81,
          "time": 1225.5,
          "velocity": 1,
          "duration": 0.5
        },
        {
          "name": "A5",
          "midi": 81,
          "time": 1226,
          "velocity": 1,
          "duration": 0.5
        },
        {
          "name": "A5",
          "midi": 81,
          "time": 1226.5,
          "velocity": 1,
          "duration": 0.5
        },
        {
          "name": "A5",
          "midi": 81,
          "time": 1227,
          "velocity": 1,
          "duration": 0.5
        },
        {
          "name": "A5",
          "midi": 81,
          "time": 1227.5,
          "velocity": 1,
          "duration": 0.5
        },
        {
          "name": "A5",
          "midi": 81,
          "time": 1228,
          "velocity": 1,
          "duration": 0.5
        },
        {
          "name": "A5",
          "midi": 81,
          "time": 1228.5,
          "velocity": 1,
          "duration": 0.5
        },
        {
          "name": "A5",
          "midi": 81,
          "time": 1229,
          "velocity": 1,
          "duration": 0.5
        },
        {
          "name": "A5",
          "midi": 81,
          "time": 1229.5,
          "velocity": 1,
          "duration": 0.5
        },
        {
          "name": "A5",
          "midi": 81,
          "time": 1230,
          "velocity": 1,
          "duration": 0.5
        },
        {
          "name": "A5",
          "midi": 81,
          "time": 1230.5,
          "velocity": 1,
          "duration": 0.5
        },
        {
          "name": "A5",
          "midi": 81,
          "time": 1231,
          "velocity": 1,
          "duration": 0.5
        },
        {
          "name": "A5",
          "midi": 81,
          "time": 1231.5,
          "velocity": 1,
          "duration": 0.5
        },
        {
          "name": "A5",
          "midi": 81,
          "time": 1232,
          "velocity": 1,
          "duration": 0.5
        },
        {
          "name": "A5",
          "midi": 81,
          "time": 1232.5,
          "velocity": 1,
          "duration": 0.5
        },
        {
          "name": "A5",
          "midi": 81,
          "time": 1233,
          "velocity": 1,
          "duration": 0.5
        },
        {
          "name": "A5",
          "midi": 81,
          "time": 1233.5,
          "velocity": 1,
          "duration": 0.5
        },
        {
          "name": "A5",
          "midi": 81,
          "time": 1234,
          "velocity": 1,
          "duration": 0.5
        },
        {
          "name": "A5",
          "midi": 81,
          "time": 1234.5,
          "velocity": 1,
          "duration": 0.5
        },
        {
          "name": "A5",
          "midi": 81,
          "time": 1235,
          "velocity": 1,
          "duration": 0.5
        },
        {
          "name": "A5",
          "midi": 81,
          "time": 1235.5,
          "velocity": 1,
          "duration": 0.5
        },
        {
          "name": "A5",
          "midi": 81,
          "time": 1236,
          "velocity": 1,
          "duration": 0.5
        },
        {
          "name": "A5",
          "midi": 81,
          "time": 1236.5,
          "velocity": 1,
          "duration": 0.5
        },
        {
          "name": "A5",
          "midi": 81,
          "time": 1237,
          "velocity": 1,
          "duration": 0.5
        },
        {
          "name": "A5",
          "midi": 81,
          "time": 1237.5,
          "velocity": 1,
          "duration": 0.5
        },
        {
          "name": "A5",
          "midi": 81,
          "time": 1238,
          "velocity": 1,
          "duration": 0.5
        },
        {
          "name": "A5",
          "midi": 81,
          "time": 1238.5,
          "velocity": 1,
          "duration": 0.5
        },
        {
          "name": "A5",
          "midi": 81,
          "time": 1239,
          "velocity": 1,
          "duration": 0.5
        },
        {
          "name": "A5",
          "midi": 81,
          "time": 1239.5,
          "velocity": 1,
          "duration": 0.5
        },
        {
          "name": "A5",
          "midi": 81,
          "time": 1240,
          "velocity": 1,
          "duration": 0.5
        },
        {
          "name": "A5",
          "midi": 81,
          "time": 1240.5,
          "velocity": 1,
          "duration": 0.5
        },
        {
          "name": "A5",
          "midi": 81,
          "time": 1241,
          "velocity": 1,
          "duration": 0.5
        },
        {
          "name": "A5",
          "midi": 81,
          "time": 1241.5,
          "velocity": 1,
          "duration": 0.5
        },
        {
          "name": "A5",
          "midi": 81,
          "time": 1242,
          "velocity": 1,
          "duration": 0.5
        },
        {
          "name": "A5",
          "midi": 81,
          "time": 1242.5,
          "velocity": 1,
          "duration": 0.5
        },
        {
          "name": "A5",
          "midi": 81,
          "time": 1243,
          "velocity": 1,
          "duration": 0.5
        },
        {
          "name": "A5",
          "midi": 81,
          "time": 1243.5,
          "velocity": 1,
          "duration": 0.5
        },
        {
          "name": "A5",
          "midi": 81,
          "time": 1244,
          "velocity": 1,
          "duration": 0.5
        },
        {
          "name": "A5",
          "midi": 81,
          "time": 1244.5,
          "velocity": 1,
          "duration": 0.5
        },
        {
          "name": "A5",
          "midi": 81,
          "time": 1245,
          "velocity": 1,
          "duration": 0.5
        },
        {
          "name": "A5",
          "midi": 81,
          "time": 1245.5,
          "velocity": 1,
          "duration": 0.5
        },
        {
          "name": "A5",
          "midi": 81,
          "time": 1246,
          "velocity": 1,
          "duration": 0.5
        },
        {
          "name": "A5",
          "midi": 81,
          "time": 1246.5,
          "velocity": 1,
          "duration": 0.5
        },
        {
          "name": "A5",
          "midi": 81,
          "time": 1247,
          "velocity": 1,
          "duration": 0.5
        },
        {
          "name": "A5",
          "midi": 81,
          "time": 1247.5,
          "velocity": 1,
          "duration": 0.5
        },
        {
          "name": "A5",
          "midi": 81,
          "time": 1248,
          "velocity": 1,
          "duration": 0.5
        },
        {
          "name": "A5",
          "midi": 81,
          "time": 1248.5,
          "velocity": 1,
          "duration": 0.5
        },
        {
          "name": "A5",
          "midi": 81,
          "time": 1249,
          "velocity": 1,
          "duration": 0.5
        },
        {
          "name": "A5",
          "midi": 81,
          "time": 1249.5,
          "velocity": 1,
          "duration": 0.5
        },
        {
          "name": "A5",
          "midi": 81,
          "time": 1250,
          "velocity": 1,
          "duration": 0.5
        },
        {
          "name": "A5",
          "midi": 81,
          "time": 1250.5,
          "velocity": 1,
          "duration": 0.5
        },
        {
          "name": "A5",
          "midi": 81,
          "time": 1251,
          "velocity": 1,
          "duration": 0.5
        },
        {
          "name": "A5",
          "midi": 81,
          "time": 1251.5,
          "velocity": 1,
          "duration": 0.5
        },
        {
          "name": "A5",
          "midi": 81,
          "time": 1252,
          "velocity": 1,
          "duration": 0.5
        },
        {
          "name": "A5",
          "midi": 81,
          "time": 1252.5,
          "velocity": 1,
          "duration": 0.5
        },
        {
          "name": "A5",
          "midi": 81,
          "time": 1253,
          "velocity": 1,
          "duration": 0.5
        },
        {
          "name": "A5",
          "midi": 81,
          "time": 1253.5,
          "velocity": 1,
          "duration": 0.5
        },
        {
          "name": "A5",
          "midi": 81,
          "time": 1254,
          "velocity": 1,
          "duration": 0.5
        },
        {
          "name": "A5",
          "midi": 81,
          "time": 1254.5,
          "velocity": 1,
          "duration": 0.5
        },
        {
          "name": "A5",
          "midi": 81,
          "time": 1255,
          "velocity": 1,
          "duration": 0.5
        },
        {
          "name": "A5",
          "midi": 81,
          "time": 1255.5,
          "velocity": 1,
          "duration": 0.5
        },
        {
          "name": "A5",
          "midi": 81,
          "time": 1256,
          "velocity": 1,
          "duration": 0.5
        },
        {
          "name": "A5",
          "midi": 81,
          "time": 1256.5,
          "velocity": 1,
          "duration": 0.5
        },
        {
          "name": "A5",
          "midi": 81,
          "time": 1257,
          "velocity": 1,
          "duration": 0.5
        },
        {
          "name": "A5",
          "midi": 81,
          "time": 1257.5,
          "velocity": 1,
          "duration": 0.5
        },
        {
          "name": "A5",
          "midi": 81,
          "time": 1258,
          "velocity": 1,
          "duration": 0.5
        },
        {
          "name": "A5",
          "midi": 81,
          "time": 1258.5,
          "velocity": 1,
          "duration": 0.5
        },
        {
          "name": "A5",
          "midi": 81,
          "time": 1259,
          "velocity": 1,
          "duration": 0.5
        },
        {
          "name": "A5",
          "midi": 81,
          "time": 1259.5,
          "velocity": 1,
          "duration": 0.5
        },
        {
          "name": "A5",
          "midi": 81,
          "time": 1260,
          "velocity": 1,
          "duration": 0.5
        },
        {
          "name": "A5",
          "midi": 81,
          "time": 1260.5,
          "velocity": 1,
          "duration": 0.5
        },
        {
          "name": "A5",
          "midi": 81,
          "time": 1261,
          "velocity": 1,
          "duration": 0.5
        },
        {
          "name": "A5",
          "midi": 81,
          "time": 1261.5,
          "velocity": 1,
          "duration": 0.5
        },
        {
          "name": "A5",
          "midi": 81,
          "time": 1262,
          "velocity": 1,
          "duration": 0.5
        },
        {
          "name": "A5",
          "midi": 81,
          "time": 1262.5,
          "velocity": 1,
          "duration": 0.5
        },
        {
          "name": "A5",
          "midi": 81,
          "time": 1263,
          "velocity": 1,
          "duration": 0.5
        },
        {
          "name": "A5",
          "midi": 81,
          "time": 1263.5,
          "velocity": 1,
          "duration": 0.5
        },
        {
          "name": "A5",
          "midi": 81,
          "time": 1264,
          "velocity": 1,
          "duration": 0.5
        },
        {
          "name": "A5",
          "midi": 81,
          "time": 1264.5,
          "velocity": 1,
          "duration": 0.5
        },
        {
          "name": "A5",
          "midi": 81,
          "time": 1265,
          "velocity": 1,
          "duration": 0.5
        },
        {
          "name": "A5",
          "midi": 81,
          "time": 1265.5,
          "velocity": 1,
          "duration": 0.5
        },
        {
          "name": "A5",
          "midi": 81,
          "time": 1266,
          "velocity": 1,
          "duration": 0.5
        },
        {
          "name": "A5",
          "midi": 81,
          "time": 1266.5,
          "velocity": 1,
          "duration": 0.5
        },
        {
          "name": "A5",
          "midi": 81,
          "time": 1267,
          "velocity": 1,
          "duration": 0.5
        },
        {
          "name": "A5",
          "midi": 81,
          "time": 1267.5,
          "velocity": 1,
          "duration": 0.5
        },
        {
          "name": "A5",
          "midi": 81,
          "time": 1268,
          "velocity": 1,
          "duration": 0.5
        },
        {
          "name": "A5",
          "midi": 81,
          "time": 1268.5,
          "velocity": 1,
          "duration": 0.5
        },
        {
          "name": "A5",
          "midi": 81,
          "time": 1269,
          "velocity": 1,
          "duration": 0.5
        },
        {
          "name": "A5",
          "midi": 81,
          "time": 1269.5,
          "velocity": 1,
          "duration": 0.5
        },
        {
          "name": "A5",
          "midi": 81,
          "time": 1270,
          "velocity": 1,
          "duration": 0.5
        },
        {
          "name": "A5",
          "midi": 81,
          "time": 1270.5,
          "velocity": 1,
          "duration": 0.5
        },
        {
          "name": "A5",
          "midi": 81,
          "time": 1271,
          "velocity": 1,
          "duration": 0.5
        },
        {
          "name": "A5",
          "midi": 81,
          "time": 1271.5,
          "velocity": 1,
          "duration": 0.5
        },
        {
          "name": "A5",
          "midi": 81,
          "time": 1272,
          "velocity": 1,
          "duration": 0.5
        },
        {
          "name": "A5",
          "midi": 81,
          "time": 1272.5,
          "velocity": 1,
          "duration": 0.5
        },
        {
          "name": "A5",
          "midi": 81,
          "time": 1273,
          "velocity": 1,
          "duration": 0.5
        },
        {
          "name": "A5",
          "midi": 81,
          "time": 1273.5,
          "velocity": 1,
          "duration": 0.5
        },
        {
          "name": "A5",
          "midi": 81,
          "time": 1274,
          "velocity": 1,
          "duration": 0.5
        },
        {
          "name": "A5",
          "midi": 81,
          "time": 1274.5,
          "velocity": 1,
          "duration": 0.5
        },
        {
          "name": "A5",
          "midi": 81,
          "time": 1275,
          "velocity": 1,
          "duration": 0.5
        },
        {
          "name": "A5",
          "midi": 81,
          "time": 1275.5,
          "velocity": 1,
          "duration": 0.5
        },
        {
          "name": "A5",
          "midi": 81,
          "time": 1276,
          "velocity": 1,
          "duration": 0.5
        },
        {
          "name": "A5",
          "midi": 81,
          "time": 1276.5,
          "velocity": 1,
          "duration": 0.5
        },
        {
          "name": "A5",
          "midi": 81,
          "time": 1277,
          "velocity": 1,
          "duration": 0.5
        },
        {
          "name": "A5",
          "midi": 81,
          "time": 1277.5,
          "velocity": 1,
          "duration": 0.5
        },
        {
          "name": "A5",
          "midi": 81,
          "time": 1278,
          "velocity": 1,
          "duration": 0.5
        },
        {
          "name": "A5",
          "midi": 81,
          "time": 1278.5,
          "velocity": 1,
          "duration": 0.5
        },
        {
          "name": "A5",
          "midi": 81,
          "time": 1279,
          "velocity": 1,
          "duration": 0.5
        },
        {
          "name": "A5",
          "midi": 81,
          "time": 1279.5,
          "velocity": 1,
          "duration": 0.5
        },
        {
          "name": "A5",
          "midi": 81,
          "time": 1280,
          "velocity": 1,
          "duration": 0.5
        },
        {
          "name": "A5",
          "midi": 81,
          "time": 1280.5,
          "velocity": 1,
          "duration": 0.5
        },
        {
          "name": "A5",
          "midi": 81,
          "time": 1281,
          "velocity": 1,
          "duration": 0.5
        },
        {
          "name": "A5",
          "midi": 81,
          "time": 1281.5,
          "velocity": 1,
          "duration": 0.5
        },
        {
          "name": "A5",
          "midi": 81,
          "time": 1282,
          "velocity": 1,
          "duration": 0.5
        },
        {
          "name": "A5",
          "midi": 81,
          "time": 1282.5,
          "velocity": 1,
          "duration": 0.5
        },
        {
          "name": "A5",
          "midi": 81,
          "time": 1283,
          "velocity": 1,
          "duration": 0.5
        },
        {
          "name": "A5",
          "midi": 81,
          "time": 1283.5,
          "velocity": 1,
          "duration": 0.5
        },
        {
          "name": "A5",
          "midi": 81,
          "time": 1284,
          "velocity": 1,
          "duration": 0.5
        },
        {
          "name": "A5",
          "midi": 81,
          "time": 1284.5,
          "velocity": 1,
          "duration": 0.5
        },
        {
          "name": "A5",
          "midi": 81,
          "time": 1285,
          "velocity": 1,
          "duration": 0.5
        },
        {
          "name": "A5",
          "midi": 81,
          "time": 1285.5,
          "velocity": 1,
          "duration": 0.5
        },
        {
          "name": "A5",
          "midi": 81,
          "time": 1286,
          "velocity": 1,
          "duration": 0.5
        },
        {
          "name": "A5",
          "midi": 81,
          "time": 1286.5,
          "velocity": 1,
          "duration": 0.5
        },
        {
          "name": "A5",
          "midi": 81,
          "time": 1287,
          "velocity": 1,
          "duration": 0.5
        },
        {
          "name": "A5",
          "midi": 81,
          "time": 1287.5,
          "velocity": 1,
          "duration": 0.5
        },
        {
          "name": "A5",
          "midi": 81,
          "time": 1288,
          "velocity": 1,
          "duration": 0.5
        },
        {
          "name": "A5",
          "midi": 81,
          "time": 1288.5,
          "velocity": 1,
          "duration": 0.5
        },
        {
          "name": "A5",
          "midi": 81,
          "time": 1289,
          "velocity": 1,
          "duration": 0.5
        },
        {
          "name": "A5",
          "midi": 81,
          "time": 1289.5,
          "velocity": 1,
          "duration": 0.5
        },
        {
          "name": "A5",
          "midi": 81,
          "time": 1290,
          "velocity": 1,
          "duration": 0.5
        },
        {
          "name": "A5",
          "midi": 81,
          "time": 1290.5,
          "velocity": 1,
          "duration": 0.5
        },
        {
          "name": "A5",
          "midi": 81,
          "time": 1291,
          "velocity": 1,
          "duration": 0.5
        },
        {
          "name": "A5",
          "midi": 81,
          "time": 1291.5,
          "velocity": 1,
          "duration": 0.5
        },
        {
          "name": "A5",
          "midi": 81,
          "time": 1292,
          "velocity": 1,
          "duration": 0.5
        },
        {
          "name": "A5",
          "midi": 81,
          "time": 1292.5,
          "velocity": 1,
          "duration": 0.5
        },
        {
          "name": "A5",
          "midi": 81,
          "time": 1293,
          "velocity": 1,
          "duration": 0.5
        },
        {
          "name": "A5",
          "midi": 81,
          "time": 1293.5,
          "velocity": 1,
          "duration": 0.5
        },
        {
          "name": "A5",
          "midi": 81,
          "time": 1294,
          "velocity": 1,
          "duration": 0.5
        },
        {
          "name": "A5",
          "midi": 81,
          "time": 1294.5,
          "velocity": 1,
          "duration": 0.5
        },
        {
          "name": "A5",
          "midi": 81,
          "time": 1295,
          "velocity": 1,
          "duration": 0.5
        },
        {
          "name": "A5",
          "midi": 81,
          "time": 1295.5,
          "velocity": 1,
          "duration": 0.5
        },
        {
          "name": "A5",
          "midi": 81,
          "time": 1296,
          "velocity": 1,
          "duration": 0.5
        },
        {
          "name": "A5",
          "midi": 81,
          "time": 1296.5,
          "velocity": 1,
          "duration": 0.5
        },
        {
          "name": "A5",
          "midi": 81,
          "time": 1297,
          "velocity": 1,
          "duration": 0.5
        },
        {
          "name": "A5",
          "midi": 81,
          "time": 1297.5,
          "velocity": 1,
          "duration": 0.5
        },
        {
          "name": "A5",
          "midi": 81,
          "time": 1298,
          "velocity": 1,
          "duration": 0.5
        },
        {
          "name": "A5",
          "midi": 81,
          "time": 1298.5,
          "velocity": 1,
          "duration": 0.5
        },
        {
          "name": "A5",
          "midi": 81,
          "time": 1299,
          "velocity": 1,
          "duration": 0.5
        },
        {
          "name": "A5",
          "midi": 81,
          "time": 1299.5,
          "velocity": 1,
          "duration": 0.5
        },
        {
          "name": "A5",
          "midi": 81,
          "time": 1300,
          "velocity": 1,
          "duration": 0.5
        },
        {
          "name": "A5",
          "midi": 81,
          "time": 1300.5,
          "velocity": 1,
          "duration": 0.5
        },
        {
          "name": "A5",
          "midi": 81,
          "time": 1301,
          "velocity": 1,
          "duration": 0.5
        },
        {
          "name": "A5",
          "midi": 81,
          "time": 1301.5,
          "velocity": 1,
          "duration": 0.5
        },
        {
          "name": "A5",
          "midi": 81,
          "time": 1302,
          "velocity": 1,
          "duration": 0.5
        },
        {
          "name": "A5",
          "midi": 81,
          "time": 1302.5,
          "velocity": 1,
          "duration": 0.5
        },
        {
          "name": "A5",
          "midi": 81,
          "time": 1303,
          "velocity": 1,
          "duration": 0.5
        },
        {
          "name": "A5",
          "midi": 81,
          "time": 1303.5,
          "velocity": 1,
          "duration": 0.5
        },
        {
          "name": "A5",
          "midi": 81,
          "time": 1304,
          "velocity": 1,
          "duration": 0.5
        },
        {
          "name": "A5",
          "midi": 81,
          "time": 1304.5,
          "velocity": 1,
          "duration": 0.5
        },
        {
          "name": "A5",
          "midi": 81,
          "time": 1305,
          "velocity": 1,
          "duration": 0.5
        },
        {
          "name": "A5",
          "midi": 81,
          "time": 1305.5,
          "velocity": 1,
          "duration": 0.5
        },
        {
          "name": "A5",
          "midi": 81,
          "time": 1306,
          "velocity": 1,
          "duration": 0.5
        },
        {
          "name": "A5",
          "midi": 81,
          "time": 1306.5,
          "velocity": 1,
          "duration": 0.5
        },
        {
          "name": "A5",
          "midi": 81,
          "time": 1307,
          "velocity": 1,
          "duration": 0.5
        },
        {
          "name": "A5",
          "midi": 81,
          "time": 1307.5,
          "velocity": 1,
          "duration": 0.5
        },
        {
          "name": "A5",
          "midi": 81,
          "time": 1308,
          "velocity": 1,
          "duration": 0.5
        },
        {
          "name": "A5",
          "midi": 81,
          "time": 1308.5,
          "velocity": 1,
          "duration": 0.5
        },
        {
          "name": "A5",
          "midi": 81,
          "time": 1309,
          "velocity": 1,
          "duration": 0.5
        },
        {
          "name": "A5",
          "midi": 81,
          "time": 1309.5,
          "velocity": 1,
          "duration": 0.5
        },
        {
          "name": "A5",
          "midi": 81,
          "time": 1310,
          "velocity": 1,
          "duration": 0.5
        },
        {
          "name": "A5",
          "midi": 81,
          "time": 1310.5,
          "velocity": 1,
          "duration": 0.5
        },
        {
          "name": "A5",
          "midi": 81,
          "time": 1311,
          "velocity": 1,
          "duration": 0.5
        },
        {
          "name": "A5",
          "midi": 81,
          "time": 1311.5,
          "velocity": 1,
          "duration": 0.5
        },
        {
          "name": "A5",
          "midi": 81,
          "time": 1312,
          "velocity": 1,
          "duration": 0.5
        },
        {
          "name": "A5",
          "midi": 81,
          "time": 1312.5,
          "velocity": 1,
          "duration": 0.5
        },
        {
          "name": "A5",
          "midi": 81,
          "time": 1313,
          "velocity": 1,
          "duration": 0.5
        },
        {
          "name": "A5",
          "midi": 81,
          "time": 1313.5,
          "velocity": 1,
          "duration": 0.5
        },
        {
          "name": "A5",
          "midi": 81,
          "time": 1314,
          "velocity": 1,
          "duration": 0.5
        },
        {
          "name": "A5",
          "midi": 81,
          "time": 1314.5,
          "velocity": 1,
          "duration": 0.5
        },
        {
          "name": "A5",
          "midi": 81,
          "time": 1315,
          "velocity": 1,
          "duration": 0.5
        },
        {
          "name": "A5",
          "midi": 81,
          "time": 1315.5,
          "velocity": 1,
          "duration": 0.5
        },
        {
          "name": "A5",
          "midi": 81,
          "time": 1316,
          "velocity": 1,
          "duration": 0.5
        },
        {
          "name": "A5",
          "midi": 81,
          "time": 1316.5,
          "velocity": 1,
          "duration": 0.5
        },
        {
          "name": "A5",
          "midi": 81,
          "time": 1317,
          "velocity": 1,
          "duration": 0.5
        },
        {
          "name": "A5",
          "midi": 81,
          "time": 1317.5,
          "velocity": 1,
          "duration": 0.5
        },
        {
          "name": "A5",
          "midi": 81,
          "time": 1318,
          "velocity": 1,
          "duration": 0.5
        },
        {
          "name": "A5",
          "midi": 81,
          "time": 1318.5,
          "velocity": 1,
          "duration": 0.5
        },
        {
          "name": "A5",
          "midi": 81,
          "time": 1319,
          "velocity": 1,
          "duration": 0.5
        },
        {
          "name": "A5",
          "midi": 81,
          "time": 1319.5,
          "velocity": 1,
          "duration": 0.5
        },
        {
          "name": "A5",
          "midi": 81,
          "time": 1320,
          "velocity": 1,
          "duration": 0.5
        },
        {
          "name": "A5",
          "midi": 81,
          "time": 1320.5,
          "velocity": 1,
          "duration": 0.5
        },
        {
          "name": "A5",
          "midi": 81,
          "time": 1321,
          "velocity": 1,
          "duration": 0.5
        },
        {
          "name": "A5",
          "midi": 81,
          "time": 1321.5,
          "velocity": 1,
          "duration": 0.5
        },
        {
          "name": "A5",
          "midi": 81,
          "time": 1322,
          "velocity": 1,
          "duration": 0.5
        },
        {
          "name": "A5",
          "midi": 81,
          "time": 1322.5,
          "velocity": 1,
          "duration": 0.5
        },
        {
          "name": "A5",
          "midi": 81,
          "time": 1323,
          "velocity": 1,
          "duration": 0.5
        },
        {
          "name": "A5",
          "midi": 81,
          "time": 1323.5,
          "velocity": 1,
          "duration": 0.5
        },
        {
          "name": "A5",
          "midi": 81,
          "time": 1324,
          "velocity": 1,
          "duration": 0.5
        },
        {
          "name": "A5",
          "midi": 81,
          "time": 1324.5,
          "velocity": 1,
          "duration": 0.5
        },
        {
          "name": "A5",
          "midi": 81,
          "time": 1325,
          "velocity": 1,
          "duration": 0.5
        },
        {
          "name": "A5",
          "midi": 81,
          "time": 1325.5,
          "velocity": 1,
          "duration": 0.5
        },
        {
          "name": "A5",
          "midi": 81,
          "time": 1326,
          "velocity": 1,
          "duration": 0.5
        },
        {
          "name": "A5",
          "midi": 81,
          "time": 1326.5,
          "velocity": 1,
          "duration": 0.5
        },
        {
          "name": "A5",
          "midi": 81,
          "time": 1327,
          "velocity": 1,
          "duration": 0.5
        },
        {
          "name": "A5",
          "midi": 81,
          "time": 1327.5,
          "velocity": 1,
          "duration": 0.5
        },
        {
          "name": "A5",
          "midi": 81,
          "time": 1328,
          "velocity": 1,
          "duration": 0.5
        },
        {
          "name": "A5",
          "midi": 81,
          "time": 1328.5,
          "velocity": 1,
          "duration": 0.5
        },
        {
          "name": "A5",
          "midi": 81,
          "time": 1329,
          "velocity": 1,
          "duration": 0.5
        },
        {
          "name": "A5",
          "midi": 81,
          "time": 1329.5,
          "velocity": 1,
          "duration": 0.5
        },
        {
          "name": "A5",
          "midi": 81,
          "time": 1330,
          "velocity": 1,
          "duration": 0.5
        },
        {
          "name": "A5",
          "midi": 81,
          "time": 1330.5,
          "velocity": 1,
          "duration": 0.5
        },
        {
          "name": "A5",
          "midi": 81,
          "time": 1331,
          "velocity": 1,
          "duration": 0.5
        },
        {
          "name": "A5",
          "midi": 81,
          "time": 1331.5,
          "velocity": 1,
          "duration": 0.5
        },
        {
          "name": "A5",
          "midi": 81,
          "time": 1332,
          "velocity": 1,
          "duration": 0.5
        },
        {
          "name": "A5",
          "midi": 81,
          "time": 1332.5,
          "velocity": 1,
          "duration": 0.5
        },
        {
          "name": "A5",
          "midi": 81,
          "time": 1333,
          "velocity": 1,
          "duration": 0.5
        },
        {
          "name": "A5",
          "midi": 81,
          "time": 1333.5,
          "velocity": 1,
          "duration": 0.5
        },
        {
          "name": "A5",
          "midi": 81,
          "time": 1334,
          "velocity": 1,
          "duration": 0.5
        },
        {
          "name": "A5",
          "midi": 81,
          "time": 1334.5,
          "velocity": 1,
          "duration": 0.5
        },
        {
          "name": "A5",
          "midi": 81,
          "time": 1335,
          "velocity": 1,
          "duration": 0.5
        },
        {
          "name": "A5",
          "midi": 81,
          "time": 1335.5,
          "velocity": 1,
          "duration": 0.5
        },
        {
          "name": "A5",
          "midi": 81,
          "time": 1336,
          "velocity": 1,
          "duration": 0.5
        },
        {
          "name": "A5",
          "midi": 81,
          "time": 1336.5,
          "velocity": 1,
          "duration": 0.5
        },
        {
          "name": "A5",
          "midi": 81,
          "time": 1337,
          "velocity": 1,
          "duration": 0.5
        },
        {
          "name": "A5",
          "midi": 81,
          "time": 1337.5,
          "velocity": 1,
          "duration": 0.5
        },
        {
          "name": "A5",
          "midi": 81,
          "time": 1338,
          "velocity": 1,
          "duration": 0.5
        },
        {
          "name": "A5",
          "midi": 81,
          "time": 1338.5,
          "velocity": 1,
          "duration": 0.5
        },
        {
          "name": "A5",
          "midi": 81,
          "time": 1339,
          "velocity": 1,
          "duration": 0.5
        },
        {
          "name": "A5",
          "midi": 81,
          "time": 1339.5,
          "velocity": 1,
          "duration": 0.5
        },
        {
          "name": "A5",
          "midi": 81,
          "time": 1340,
          "velocity": 1,
          "duration": 0.5
        },
        {
          "name": "A5",
          "midi": 81,
          "time": 1340.5,
          "velocity": 1,
          "duration": 0.5
        },
        {
          "name": "A5",
          "midi": 81,
          "time": 1341,
          "velocity": 1,
          "duration": 0.5
        },
        {
          "name": "A5",
          "midi": 81,
          "time": 1341.5,
          "velocity": 1,
          "duration": 0.5
        },
        {
          "name": "A5",
          "midi": 81,
          "time": 1342,
          "velocity": 1,
          "duration": 0.5
        },
        {
          "name": "A5",
          "midi": 81,
          "time": 1342.5,
          "velocity": 1,
          "duration": 0.5
        },
        {
          "name": "A5",
          "midi": 81,
          "time": 1343,
          "velocity": 1,
          "duration": 0.5
        },
        {
          "name": "A5",
          "midi": 81,
          "time": 1343.5,
          "velocity": 1,
          "duration": 0.5
        },
        {
          "name": "A5",
          "midi": 81,
          "time": 1344,
          "velocity": 1,
          "duration": 0.5
        },
        {
          "name": "A5",
          "midi": 81,
          "time": 1344.5,
          "velocity": 1,
          "duration": 0.5
        },
        {
          "name": "A5",
          "midi": 81,
          "time": 1345,
          "velocity": 1,
          "duration": 0.5
        },
        {
          "name": "A5",
          "midi": 81,
          "time": 1345.5,
          "velocity": 1,
          "duration": 0.5
        },
        {
          "name": "A5",
          "midi": 81,
          "time": 1346,
          "velocity": 1,
          "duration": 0.5
        },
        {
          "name": "A5",
          "midi": 81,
          "time": 1346.5,
          "velocity": 1,
          "duration": 0.5
        },
        {
          "name": "A5",
          "midi": 81,
          "time": 1347,
          "velocity": 1,
          "duration": 0.5
        },
        {
          "name": "A5",
          "midi": 81,
          "time": 1347.5,
          "velocity": 1,
          "duration": 0.5
        },
        {
          "name": "A5",
          "midi": 81,
          "time": 1348,
          "velocity": 1,
          "duration": 0.5
        },
        {
          "name": "A5",
          "midi": 81,
          "time": 1348.5,
          "velocity": 1,
          "duration": 0.5
        },
        {
          "name": "A5",
          "midi": 81,
          "time": 1349,
          "velocity": 1,
          "duration": 0.5
        },
        {
          "name": "A5",
          "midi": 81,
          "time": 1349.5,
          "velocity": 1,
          "duration": 0.5
        },
        {
          "name": "A5",
          "midi": 81,
          "time": 1350,
          "velocity": 1,
          "duration": 0.5
        },
        {
          "name": "A5",
          "midi": 81,
          "time": 1350.5,
          "velocity": 1,
          "duration": 0.5
        },
        {
          "name": "A5",
          "midi": 81,
          "time": 1351,
          "velocity": 1,
          "duration": 0.5
        },
        {
          "name": "A5",
          "midi": 81,
          "time": 1351.5,
          "velocity": 1,
          "duration": 0.5
        },
        {
          "name": "A5",
          "midi": 81,
          "time": 1352,
          "velocity": 1,
          "duration": 0.5
        },
        {
          "name": "A5",
          "midi": 81,
          "time": 1352.5,
          "velocity": 1,
          "duration": 0.5
        },
        {
          "name": "A5",
          "midi": 81,
          "time": 1353,
          "velocity": 1,
          "duration": 0.5
        },
        {
          "name": "A5",
          "midi": 81,
          "time": 1353.5,
          "velocity": 1,
          "duration": 0.5
        },
        {
          "name": "A5",
          "midi": 81,
          "time": 1354,
          "velocity": 1,
          "duration": 0.5
        },
        {
          "name": "A5",
          "midi": 81,
          "time": 1354.5,
          "velocity": 1,
          "duration": 0.5
        },
        {
          "name": "A5",
          "midi": 81,
          "time": 1355,
          "velocity": 1,
          "duration": 0.5
        },
        {
          "name": "A5",
          "midi": 81,
          "time": 1355.5,
          "velocity": 1,
          "duration": 0.5
        },
        {
          "name": "A5",
          "midi": 81,
          "time": 1356,
          "velocity": 1,
          "duration": 0.5
        },
        {
          "name": "A5",
          "midi": 81,
          "time": 1356.5,
          "velocity": 1,
          "duration": 0.5
        },
        {
          "name": "A5",
          "midi": 81,
          "time": 1357,
          "velocity": 1,
          "duration": 0.5
        },
        {
          "name": "A5",
          "midi": 81,
          "time": 1357.5,
          "velocity": 1,
          "duration": 0.5
        },
        {
          "name": "A5",
          "midi": 81,
          "time": 1358,
          "velocity": 1,
          "duration": 0.5
        },
        {
          "name": "A5",
          "midi": 81,
          "time": 1358.5,
          "velocity": 1,
          "duration": 0.5
        },
        {
          "name": "A5",
          "midi": 81,
          "time": 1359,
          "velocity": 1,
          "duration": 0.5
        },
        {
          "name": "A5",
          "midi": 81,
          "time": 1359.5,
          "velocity": 1,
          "duration": 0.5
        },
        {
          "name": "A5",
          "midi": 81,
          "time": 1360,
          "velocity": 1,
          "duration": 0.5
        },
        {
          "name": "A5",
          "midi": 81,
          "time": 1360.5,
          "velocity": 1,
          "duration": 0.5
        },
        {
          "name": "A5",
          "midi": 81,
          "time": 1361,
          "velocity": 1,
          "duration": 0.5
        },
        {
          "name": "A5",
          "midi": 81,
          "time": 1361.5,
          "velocity": 1,
          "duration": 0.5
        },
        {
          "name": "A5",
          "midi": 81,
          "time": 1362,
          "velocity": 1,
          "duration": 0.5
        },
        {
          "name": "A5",
          "midi": 81,
          "time": 1362.5,
          "velocity": 1,
          "duration": 0.5
        },
        {
          "name": "A5",
          "midi": 81,
          "time": 1363,
          "velocity": 1,
          "duration": 0.5
        },
        {
          "name": "A5",
          "midi": 81,
          "time": 1363.5,
          "velocity": 1,
          "duration": 0.5
        },
        {
          "name": "A5",
          "midi": 81,
          "time": 1364,
          "velocity": 1,
          "duration": 0.5
        },
        {
          "name": "A5",
          "midi": 81,
          "time": 1364.5,
          "velocity": 1,
          "duration": 0.5
        },
        {
          "name": "A5",
          "midi": 81,
          "time": 1365,
          "velocity": 1,
          "duration": 0.5
        },
        {
          "name": "A5",
          "midi": 81,
          "time": 1365.5,
          "velocity": 1,
          "duration": 0.5
        },
        {
          "name": "A5",
          "midi": 81,
          "time": 1366,
          "velocity": 1,
          "duration": 0.5
        },
        {
          "name": "A5",
          "midi": 81,
          "time": 1366.5,
          "velocity": 1,
          "duration": 0.5
        },
        {
          "name": "A5",
          "midi": 81,
          "time": 1367,
          "velocity": 1,
          "duration": 0.5
        },
        {
          "name": "A5",
          "midi": 81,
          "time": 1367.5,
          "velocity": 1,
          "duration": 0.5
        },
        {
          "name": "A5",
          "midi": 81,
          "time": 1368,
          "velocity": 1,
          "duration": 0.5
        },
        {
          "name": "A5",
          "midi": 81,
          "time": 1368.5,
          "velocity": 1,
          "duration": 0.5
        },
        {
          "name": "A5",
          "midi": 81,
          "time": 1369,
          "velocity": 1,
          "duration": 0.5
        },
        {
          "name": "A5",
          "midi": 81,
          "time": 1369.5,
          "velocity": 1,
          "duration": 0.5
        },
        {
          "name": "A5",
          "midi": 81,
          "time": 1370,
          "velocity": 1,
          "duration": 0.5
        },
        {
          "name": "A5",
          "midi": 81,
          "time": 1370.5,
          "velocity": 1,
          "duration": 0.5
        },
        {
          "name": "A5",
          "midi": 81,
          "time": 1371,
          "velocity": 1,
          "duration": 0.5
        },
        {
          "name": "A5",
          "midi": 81,
          "time": 1371.5,
          "velocity": 1,
          "duration": 0.5
        },
        {
          "name": "A5",
          "midi": 81,
          "time": 1372,
          "velocity": 1,
          "duration": 0.5
        },
        {
          "name": "A5",
          "midi": 81,
          "time": 1372.5,
          "velocity": 1,
          "duration": 0.5
        },
        {
          "name": "A5",
          "midi": 81,
          "time": 1373,
          "velocity": 1,
          "duration": 0.5
        },
        {
          "name": "A5",
          "midi": 81,
          "time": 1373.5,
          "velocity": 1,
          "duration": 0.5
        },
        {
          "name": "A5",
          "midi": 81,
          "time": 1374,
          "velocity": 1,
          "duration": 0.5
        },
        {
          "name": "A5",
          "midi": 81,
          "time": 1374.5,
          "velocity": 1,
          "duration": 0.5
        },
        {
          "name": "A5",
          "midi": 81,
          "time": 1375,
          "velocity": 1,
          "duration": 0.5
        },
        {
          "name": "A5",
          "midi": 81,
          "time": 1375.5,
          "velocity": 1,
          "duration": 0.5
        },
        {
          "name": "A5",
          "midi": 81,
          "time": 1376,
          "velocity": 1,
          "duration": 0.5
        },
        {
          "name": "A5",
          "midi": 81,
          "time": 1376.5,
          "velocity": 1,
          "duration": 0.5
        },
        {
          "name": "A5",
          "midi": 81,
          "time": 1377,
          "velocity": 1,
          "duration": 0.5
        },
        {
          "name": "A5",
          "midi": 81,
          "time": 1377.5,
          "velocity": 1,
          "duration": 0.5
        },
        {
          "name": "A5",
          "midi": 81,
          "time": 1378,
          "velocity": 1,
          "duration": 0.5
        },
        {
          "name": "A5",
          "midi": 81,
          "time": 1378.5,
          "velocity": 1,
          "duration": 0.5
        },
        {
          "name": "A5",
          "midi": 81,
          "time": 1379,
          "velocity": 1,
          "duration": 0.5
        },
        {
          "name": "A5",
          "midi": 81,
          "time": 1379.5,
          "velocity": 1,
          "duration": 0.5
        },
        {
          "name": "A5",
          "midi": 81,
          "time": 1380,
          "velocity": 1,
          "duration": 0.5
        },
        {
          "name": "A5",
          "midi": 81,
          "time": 1380.5,
          "velocity": 1,
          "duration": 0.5
        },
        {
          "name": "A5",
          "midi": 81,
          "time": 1381,
          "velocity": 1,
          "duration": 0.5
        },
        {
          "name": "A5",
          "midi": 81,
          "time": 1381.5,
          "velocity": 1,
          "duration": 0.5
        },
        {
          "name": "A5",
          "midi": 81,
          "time": 1382,
          "velocity": 1,
          "duration": 0.5
        },
        {
          "name": "A5",
          "midi": 81,
          "time": 1382.5,
          "velocity": 1,
          "duration": 0.5
        },
        {
          "name": "A5",
          "midi": 81,
          "time": 1383,
          "velocity": 1,
          "duration": 0.5
        },
        {
          "name": "A5",
          "midi": 81,
          "time": 1383.5,
          "velocity": 1,
          "duration": 0.5
        },
        {
          "name": "A5",
          "midi": 81,
          "time": 1384,
          "velocity": 1,
          "duration": 0.5
        },
        {
          "name": "A5",
          "midi": 81,
          "time": 1384.5,
          "velocity": 1,
          "duration": 0.5
        },
        {
          "name": "A5",
          "midi": 81,
          "time": 1385,
          "velocity": 1,
          "duration": 0.5
        },
        {
          "name": "A5",
          "midi": 81,
          "time": 1385.5,
          "velocity": 1,
          "duration": 0.5
        },
        {
          "name": "A5",
          "midi": 81,
          "time": 1386,
          "velocity": 1,
          "duration": 0.5
        },
        {
          "name": "A5",
          "midi": 81,
          "time": 1386.5,
          "velocity": 1,
          "duration": 0.5
        },
        {
          "name": "A5",
          "midi": 81,
          "time": 1387,
          "velocity": 1,
          "duration": 0.5
        },
        {
          "name": "A5",
          "midi": 81,
          "time": 1387.5,
          "velocity": 1,
          "duration": 0.5
        },
        {
          "name": "A5",
          "midi": 81,
          "time": 1388,
          "velocity": 1,
          "duration": 0.5
        },
        {
          "name": "A5",
          "midi": 81,
          "time": 1388.5,
          "velocity": 1,
          "duration": 0.5
        },
        {
          "name": "A5",
          "midi": 81,
          "time": 1389,
          "velocity": 1,
          "duration": 0.5
        },
        {
          "name": "A5",
          "midi": 81,
          "time": 1389.5,
          "velocity": 1,
          "duration": 0.5
        },
        {
          "name": "A5",
          "midi": 81,
          "time": 1390,
          "velocity": 1,
          "duration": 0.5
        },
        {
          "name": "A5",
          "midi": 81,
          "time": 1390.5,
          "velocity": 1,
          "duration": 0.5
        },
        {
          "name": "A5",
          "midi": 81,
          "time": 1391,
          "velocity": 1,
          "duration": 0.5
        },
        {
          "name": "A5",
          "midi": 81,
          "time": 1391.5,
          "velocity": 1,
          "duration": 0.5
        },
        {
          "name": "A5",
          "midi": 81,
          "time": 1392,
          "velocity": 1,
          "duration": 0.5
        },
        {
          "name": "A5",
          "midi": 81,
          "time": 1392.5,
          "velocity": 1,
          "duration": 0.5
        },
        {
          "name": "A5",
          "midi": 81,
          "time": 1393,
          "velocity": 1,
          "duration": 0.5
        },
        {
          "name": "A5",
          "midi": 81,
          "time": 1393.5,
          "velocity": 1,
          "duration": 0.5
        },
        {
          "name": "A5",
          "midi": 81,
          "time": 1394,
          "velocity": 1,
          "duration": 0.5
        },
        {
          "name": "A5",
          "midi": 81,
          "time": 1394.5,
          "velocity": 1,
          "duration": 0.5
        },
        {
          "name": "A5",
          "midi": 81,
          "time": 1395,
          "velocity": 1,
          "duration": 0.5
        },
        {
          "name": "A5",
          "midi": 81,
          "time": 1395.5,
          "velocity": 1,
          "duration": 0.5
        },
        {
          "name": "A5",
          "midi": 81,
          "time": 1396,
          "velocity": 1,
          "duration": 0.5
        },
        {
          "name": "A5",
          "midi": 81,
          "time": 1396.5,
          "velocity": 1,
          "duration": 0.5
        },
        {
          "name": "A5",
          "midi": 81,
          "time": 1397,
          "velocity": 1,
          "duration": 0.5
        },
        {
          "name": "A5",
          "midi": 81,
          "time": 1397.5,
          "velocity": 1,
          "duration": 0.5
        },
        {
          "name": "A5",
          "midi": 81,
          "time": 1398,
          "velocity": 1,
          "duration": 0.5
        },
        {
          "name": "A5",
          "midi": 81,
          "time": 1398.5,
          "velocity": 1,
          "duration": 0.5
        },
        {
          "name": "A5",
          "midi": 81,
          "time": 1399,
          "velocity": 1,
          "duration": 0.5
        },
        {
          "name": "A5",
          "midi": 81,
          "time": 1399.5,
          "velocity": 1,
          "duration": 0.5
        },
        {
          "name": "A5",
          "midi": 81,
          "time": 1400,
          "velocity": 1,
          "duration": 0.5
        },
        {
          "name": "A5",
          "midi": 81,
          "time": 1400.5,
          "velocity": 1,
          "duration": 0.5
        },
        {
          "name": "A5",
          "midi": 81,
          "time": 1401,
          "velocity": 1,
          "duration": 0.5
        },
        {
          "name": "A5",
          "midi": 81,
          "time": 1401.5,
          "velocity": 1,
          "duration": 0.5
        },
        {
          "name": "A5",
          "midi": 81,
          "time": 1402,
          "velocity": 1,
          "duration": 0.5
        },
        {
          "name": "A5",
          "midi": 81,
          "time": 1402.5,
          "velocity": 1,
          "duration": 0.5
        },
        {
          "name": "A5",
          "midi": 81,
          "time": 1403,
          "velocity": 1,
          "duration": 0.5
        },
        {
          "name": "A5",
          "midi": 81,
          "time": 1403.5,
          "velocity": 1,
          "duration": 0.5
        },
        {
          "name": "A5",
          "midi": 81,
          "time": 1404,
          "velocity": 1,
          "duration": 0.5
        },
        {
          "name": "A5",
          "midi": 81,
          "time": 1404.5,
          "velocity": 1,
          "duration": 0.5
        },
        {
          "name": "A5",
          "midi": 81,
          "time": 1405,
          "velocity": 1,
          "duration": 0.5
        },
        {
          "name": "A5",
          "midi": 81,
          "time": 1405.5,
          "velocity": 1,
          "duration": 0.5
        },
        {
          "name": "A5",
          "midi": 81,
          "time": 1406,
          "velocity": 1,
          "duration": 0.5
        },
        {
          "name": "A5",
          "midi": 81,
          "time": 1406.5,
          "velocity": 1,
          "duration": 0.5
        },
        {
          "name": "A5",
          "midi": 81,
          "time": 1407,
          "velocity": 1,
          "duration": 0.5
        },
        {
          "name": "A5",
          "midi": 81,
          "time": 1407.5,
          "velocity": 1,
          "duration": 0.5
        },
        {
          "name": "A5",
          "midi": 81,
          "time": 1408,
          "velocity": 1,
          "duration": 0.5
        },
        {
          "name": "A5",
          "midi": 81,
          "time": 1408.5,
          "velocity": 1,
          "duration": 0.5
        },
        {
          "name": "A5",
          "midi": 81,
          "time": 1409,
          "velocity": 1,
          "duration": 0.5
        },
        {
          "name": "A5",
          "midi": 81,
          "time": 1409.5,
          "velocity": 1,
          "duration": 0.5
        },
        {
          "name": "A5",
          "midi": 81,
          "time": 1410,
          "velocity": 1,
          "duration": 0.5
        },
        {
          "name": "A5",
          "midi": 81,
          "time": 1410.5,
          "velocity": 1,
          "duration": 0.5
        },
        {
          "name": "A5",
          "midi": 81,
          "time": 1411,
          "velocity": 1,
          "duration": 0.5
        },
        {
          "name": "A5",
          "midi": 81,
          "time": 1411.5,
          "velocity": 1,
          "duration": 0.5
        },
        {
          "name": "A5",
          "midi": 81,
          "time": 1412,
          "velocity": 1,
          "duration": 0.5
        },
        {
          "name": "A5",
          "midi": 81,
          "time": 1412.5,
          "velocity": 1,
          "duration": 0.5
        },
        {
          "name": "A5",
          "midi": 81,
          "time": 1413,
          "velocity": 1,
          "duration": 0.5
        },
        {
          "name": "A5",
          "midi": 81,
          "time": 1413.5,
          "velocity": 1,
          "duration": 0.5
        },
        {
          "name": "A5",
          "midi": 81,
          "time": 1414,
          "velocity": 1,
          "duration": 0.5
        },
        {
          "name": "A5",
          "midi": 81,
          "time": 1414.5,
          "velocity": 1,
          "duration": 0.5
        },
        {
          "name": "A5",
          "midi": 81,
          "time": 1415,
          "velocity": 1,
          "duration": 0.5
        },
        {
          "name": "A5",
          "midi": 81,
          "time": 1415.5,
          "velocity": 1,
          "duration": 0.5
        },
        {
          "name": "A5",
          "midi": 81,
          "time": 1416,
          "velocity": 1,
          "duration": 0.5
        },
        {
          "name": "A5",
          "midi": 81,
          "time": 1416.5,
          "velocity": 1,
          "duration": 0.5
        },
        {
          "name": "A5",
          "midi": 81,
          "time": 1417,
          "velocity": 1,
          "duration": 0.5
        },
        {
          "name": "A5",
          "midi": 81,
          "time": 1417.5,
          "velocity": 1,
          "duration": 0.5
        },
        {
          "name": "A5",
          "midi": 81,
          "time": 1418,
          "velocity": 1,
          "duration": 0.5
        },
        {
          "name": "A5",
          "midi": 81,
          "time": 1418.5,
          "velocity": 1,
          "duration": 0.5
        },
        {
          "name": "A5",
          "midi": 81,
          "time": 1419,
          "velocity": 1,
          "duration": 0.5
        },
        {
          "name": "A5",
          "midi": 81,
          "time": 1419.5,
          "velocity": 1,
          "duration": 0.5
        },
        {
          "name": "A5",
          "midi": 81,
          "time": 1420,
          "velocity": 1,
          "duration": 0.5
        },
        {
          "name": "A5",
          "midi": 81,
          "time": 1420.5,
          "velocity": 1,
          "duration": 0.5
        },
        {
          "name": "A5",
          "midi": 81,
          "time": 1421,
          "velocity": 1,
          "duration": 0.5
        },
        {
          "name": "A5",
          "midi": 81,
          "time": 1421.5,
          "velocity": 1,
          "duration": 0.5
        },
        {
          "name": "A5",
          "midi": 81,
          "time": 1422,
          "velocity": 1,
          "duration": 0.5
        },
        {
          "name": "A5",
          "midi": 81,
          "time": 1422.5,
          "velocity": 1,
          "duration": 0.5
        },
        {
          "name": "A5",
          "midi": 81,
          "time": 1423,
          "velocity": 1,
          "duration": 0.5
        },
        {
          "name": "A5",
          "midi": 81,
          "time": 1423.5,
          "velocity": 1,
          "duration": 0.5
        },
        {
          "name": "A5",
          "midi": 81,
          "time": 1424,
          "velocity": 1,
          "duration": 0.5
        },
        {
          "name": "A5",
          "midi": 81,
          "time": 1424.5,
          "velocity": 1,
          "duration": 0.5
        },
        {
          "name": "A5",
          "midi": 81,
          "time": 1425,
          "velocity": 1,
          "duration": 0.5
        },
        {
          "name": "A5",
          "midi": 81,
          "time": 1425.5,
          "velocity": 1,
          "duration": 0.5
        },
        {
          "name": "A5",
          "midi": 81,
          "time": 1426,
          "velocity": 1,
          "duration": 0.5
        },
        {
          "name": "A5",
          "midi": 81,
          "time": 1426.5,
          "velocity": 1,
          "duration": 0.5
        },
        {
          "name": "A5",
          "midi": 81,
          "time": 1427,
          "velocity": 1,
          "duration": 0.5
        },
        {
          "name": "A5",
          "midi": 81,
          "time": 1427.5,
          "velocity": 1,
          "duration": 0.5
        },
        {
          "name": "A5",
          "midi": 81,
          "time": 1428,
          "velocity": 1,
          "duration": 0.5
        },
        {
          "name": "A5",
          "midi": 81,
          "time": 1428.5,
          "velocity": 1,
          "duration": 0.5
        },
        {
          "name": "A5",
          "midi": 81,
          "time": 1429,
          "velocity": 1,
          "duration": 0.5
        },
        {
          "name": "A5",
          "midi": 81,
          "time": 1429.5,
          "velocity": 1,
          "duration": 0.5
        },
        {
          "name": "A5",
          "midi": 81,
          "time": 1430,
          "velocity": 1,
          "duration": 0.5
        },
        {
          "name": "A5",
          "midi": 81,
          "time": 1430.5,
          "velocity": 1,
          "duration": 0.5
        },
        {
          "name": "A5",
          "midi": 81,
          "time": 1431,
          "velocity": 1,
          "duration": 0.5
        },
        {
          "name": "A5",
          "midi": 81,
          "time": 1431.5,
          "velocity": 1,
          "duration": 0.5
        },
        {
          "name": "A5",
          "midi": 81,
          "time": 1432,
          "velocity": 1,
          "duration": 0.5
        },
        {
          "name": "A5",
          "midi": 81,
          "time": 1432.5,
          "velocity": 1,
          "duration": 0.5
        },
        {
          "name": "A5",
          "midi": 81,
          "time": 1433,
          "velocity": 1,
          "duration": 0.5
        },
        {
          "name": "A5",
          "midi": 81,
          "time": 1433.5,
          "velocity": 1,
          "duration": 0.5
        },
        {
          "name": "A5",
          "midi": 81,
          "time": 1434,
          "velocity": 1,
          "duration": 0.5
        },
        {
          "name": "A5",
          "midi": 81,
          "time": 1434.5,
          "velocity": 1,
          "duration": 0.5
        },
        {
          "name": "A5",
          "midi": 81,
          "time": 1435,
          "velocity": 1,
          "duration": 0.5
        },
        {
          "name": "A5",
          "midi": 81,
          "time": 1435.5,
          "velocity": 1,
          "duration": 0.5
        },
        {
          "name": "A5",
          "midi": 81,
          "time": 1436,
          "velocity": 1,
          "duration": 0.5
        },
        {
          "name": "A5",
          "midi": 81,
          "time": 1436.5,
          "velocity": 1,
          "duration": 0.5
        },
        {
          "name": "A5",
          "midi": 81,
          "time": 1437,
          "velocity": 1,
          "duration": 0.5
        },
        {
          "name": "A5",
          "midi": 81,
          "time": 1437.5,
          "velocity": 1,
          "duration": 0.5
        },
        {
          "name": "A5",
          "midi": 81,
          "time": 1438,
          "velocity": 1,
          "duration": 0.5
        },
        {
          "name": "A5",
          "midi": 81,
          "time": 1438.5,
          "velocity": 1,
          "duration": 0.5
        },
        {
          "name": "A5",
          "midi": 81,
          "time": 1439,
          "velocity": 1,
          "duration": 0.5
        },
        {
          "name": "A5",
          "midi": 81,
          "time": 1439.5,
          "velocity": 1,
          "duration": 0.5
        },
        {
          "name": "A5",
          "midi": 81,
          "time": 1440,
          "velocity": 1,
          "duration": 0.5
        },
        {
          "name": "A5",
          "midi": 81,
          "time": 1440.5,
          "velocity": 1,
          "duration": 0.5
        },
        {
          "name": "A5",
          "midi": 81,
          "time": 1441,
          "velocity": 1,
          "duration": 0.5
        },
        {
          "name": "A5",
          "midi": 81,
          "time": 1441.5,
          "velocity": 1,
          "duration": 0.5
        },
        {
          "name": "A5",
          "midi": 81,
          "time": 1442,
          "velocity": 1,
          "duration": 0.5
        },
        {
          "name": "A5",
          "midi": 81,
          "time": 1442.5,
          "velocity": 1,
          "duration": 0.5
        },
        {
          "name": "A5",
          "midi": 81,
          "time": 1443,
          "velocity": 1,
          "duration": 0.5
        },
        {
          "name": "A5",
          "midi": 81,
          "time": 1443.5,
          "velocity": 1,
          "duration": 0.5
        },
        {
          "name": "A5",
          "midi": 81,
          "time": 1444,
          "velocity": 1,
          "duration": 0.5
        },
        {
          "name": "A5",
          "midi": 81,
          "time": 1444.5,
          "velocity": 1,
          "duration": 0.5
        },
        {
          "name": "A5",
          "midi": 81,
          "time": 1445,
          "velocity": 1,
          "duration": 0.5
        },
        {
          "name": "A5",
          "midi": 81,
          "time": 1445.5,
          "velocity": 1,
          "duration": 0.5
        },
        {
          "name": "A5",
          "midi": 81,
          "time": 1446,
          "velocity": 1,
          "duration": 0.5
        },
        {
          "name": "A5",
          "midi": 81,
          "time": 1446.5,
          "velocity": 1,
          "duration": 0.5
        },
        {
          "name": "A5",
          "midi": 81,
          "time": 1447,
          "velocity": 1,
          "duration": 0.5
        },
        {
          "name": "A5",
          "midi": 81,
          "time": 1447.5,
          "velocity": 1,
          "duration": 0.5
        },
        {
          "name": "A5",
          "midi": 81,
          "time": 1448,
          "velocity": 1,
          "duration": 0.5
        },
        {
          "name": "A5",
          "midi": 81,
          "time": 1448.5,
          "velocity": 1,
          "duration": 0.5
        },
        {
          "name": "A5",
          "midi": 81,
          "time": 1449,
          "velocity": 1,
          "duration": 0.5
        },
        {
          "name": "A5",
          "midi": 81,
          "time": 1449.5,
          "velocity": 1,
          "duration": 0.5
        },
        {
          "name": "A5",
          "midi": 81,
          "time": 1450,
          "velocity": 1,
          "duration": 0.5
        },
        {
          "name": "A5",
          "midi": 81,
          "time": 1450.5,
          "velocity": 1,
          "duration": 0.5
        },
        {
          "name": "A5",
          "midi": 81,
          "time": 1451,
          "velocity": 1,
          "duration": 0.5
        },
        {
          "name": "A5",
          "midi": 81,
          "time": 1451.5,
          "velocity": 1,
          "duration": 0.5
        },
        {
          "name": "A5",
          "midi": 81,
          "time": 1452,
          "velocity": 1,
          "duration": 0.5
        },
        {
          "name": "A5",
          "midi": 81,
          "time": 1452.5,
          "velocity": 1,
          "duration": 0.5
        },
        {
          "name": "A5",
          "midi": 81,
          "time": 1453,
          "velocity": 1,
          "duration": 0.5
        },
        {
          "name": "A5",
          "midi": 81,
          "time": 1453.5,
          "velocity": 1,
          "duration": 0.5
        },
        {
          "name": "A5",
          "midi": 81,
          "time": 1454,
          "velocity": 1,
          "duration": 0.5
        },
        {
          "name": "A5",
          "midi": 81,
          "time": 1454.5,
          "velocity": 1,
          "duration": 0.5
        },
        {
          "name": "A5",
          "midi": 81,
          "time": 1455,
          "velocity": 1,
          "duration": 0.5
        },
        {
          "name": "A5",
          "midi": 81,
          "time": 1455.5,
          "velocity": 1,
          "duration": 0.5
        },
        {
          "name": "A5",
          "midi": 81,
          "time": 1456,
          "velocity": 1,
          "duration": 0.5
        },
        {
          "name": "A5",
          "midi": 81,
          "time": 1456.5,
          "velocity": 1,
          "duration": 0.5
        },
        {
          "name": "A5",
          "midi": 81,
          "time": 1457,
          "velocity": 1,
          "duration": 0.5
        },
        {
          "name": "A5",
          "midi": 81,
          "time": 1457.5,
          "velocity": 1,
          "duration": 0.5
        },
        {
          "name": "A5",
          "midi": 81,
          "time": 1458,
          "velocity": 1,
          "duration": 0.5
        },
        {
          "name": "A5",
          "midi": 81,
          "time": 1458.5,
          "velocity": 1,
          "duration": 0.5
        },
        {
          "name": "A5",
          "midi": 81,
          "time": 1459,
          "velocity": 1,
          "duration": 0.5
        },
        {
          "name": "A5",
          "midi": 81,
          "time": 1459.5,
          "velocity": 1,
          "duration": 0.5
        },
        {
          "name": "A5",
          "midi": 81,
          "time": 1460,
          "velocity": 1,
          "duration": 0.5
        },
        {
          "name": "A5",
          "midi": 81,
          "time": 1460.5,
          "velocity": 1,
          "duration": 0.5
        },
        {
          "name": "A5",
          "midi": 81,
          "time": 1461,
          "velocity": 1,
          "duration": 0.5
        },
        {
          "name": "A5",
          "midi": 81,
          "time": 1461.5,
          "velocity": 1,
          "duration": 0.5
        },
        {
          "name": "A5",
          "midi": 81,
          "time": 1462,
          "velocity": 1,
          "duration": 0.5
        },
        {
          "name": "A5",
          "midi": 81,
          "time": 1462.5,
          "velocity": 1,
          "duration": 0.5
        },
        {
          "name": "A5",
          "midi": 81,
          "time": 1463,
          "velocity": 1,
          "duration": 0.5
        },
        {
          "name": "A5",
          "midi": 81,
          "time": 1463.5,
          "velocity": 1,
          "duration": 0.5
        },
        {
          "name": "A5",
          "midi": 81,
          "time": 1464,
          "velocity": 1,
          "duration": 0.5
        },
        {
          "name": "A5",
          "midi": 81,
          "time": 1464.5,
          "velocity": 1,
          "duration": 0.5
        },
        {
          "name": "A5",
          "midi": 81,
          "time": 1465,
          "velocity": 1,
          "duration": 0.5
        },
        {
          "name": "A5",
          "midi": 81,
          "time": 1465.5,
          "velocity": 1,
          "duration": 0.5
        },
        {
          "name": "A5",
          "midi": 81,
          "time": 1466,
          "velocity": 1,
          "duration": 0.5
        },
        {
          "name": "A5",
          "midi": 81,
          "time": 1466.5,
          "velocity": 1,
          "duration": 0.5
        },
        {
          "name": "A5",
          "midi": 81,
          "time": 1467,
          "velocity": 1,
          "duration": 0.5
        },
        {
          "name": "A5",
          "midi": 81,
          "time": 1467.5,
          "velocity": 1,
          "duration": 0.5
        },
        {
          "name": "A5",
          "midi": 81,
          "time": 1468,
          "velocity": 1,
          "duration": 0.5
        },
        {
          "name": "A5",
          "midi": 81,
          "time": 1468.5,
          "velocity": 1,
          "duration": 0.5
        },
        {
          "name": "A5",
          "midi": 81,
          "time": 1469,
          "velocity": 1,
          "duration": 0.5
        },
        {
          "name": "A5",
          "midi": 81,
          "time": 1469.5,
          "velocity": 1,
          "duration": 0.5
        },
        {
          "name": "A5",
          "midi": 81,
          "time": 1470,
          "velocity": 1,
          "duration": 0.5
        },
        {
          "name": "A5",
          "midi": 81,
          "time": 1470.5,
          "velocity": 1,
          "duration": 0.5
        },
        {
          "name": "A5",
          "midi": 81,
          "time": 1471,
          "velocity": 1,
          "duration": 0.5
        },
        {
          "name": "A5",
          "midi": 81,
          "time": 1471.5,
          "velocity": 1,
          "duration": 0.5
        },
        {
          "name": "A5",
          "midi": 81,
          "time": 1472,
          "velocity": 1,
          "duration": 0.5
        },
        {
          "name": "A5",
          "midi": 81,
          "time": 1472.5,
          "velocity": 1,
          "duration": 0.5
        },
        {
          "name": "A5",
          "midi": 81,
          "time": 1473,
          "velocity": 1,
          "duration": 0.5
        },
        {
          "name": "A5",
          "midi": 81,
          "time": 1473.5,
          "velocity": 1,
          "duration": 0.5
        },
        {
          "name": "A5",
          "midi": 81,
          "time": 1474,
          "velocity": 1,
          "duration": 0.5
        },
        {
          "name": "A5",
          "midi": 81,
          "time": 1474.5,
          "velocity": 1,
          "duration": 0.5
        },
        {
          "name": "A5",
          "midi": 81,
          "time": 1475,
          "velocity": 1,
          "duration": 0.5
        },
        {
          "name": "A5",
          "midi": 81,
          "time": 1475.5,
          "velocity": 1,
          "duration": 0.5
        },
        {
          "name": "A5",
          "midi": 81,
          "time": 1476,
          "velocity": 1,
          "duration": 0.5
        },
        {
          "name": "A5",
          "midi": 81,
          "time": 1476.5,
          "velocity": 1,
          "duration": 0.5
        },
        {
          "name": "A5",
          "midi": 81,
          "time": 1477,
          "velocity": 1,
          "duration": 0.5
        },
        {
          "name": "A5",
          "midi": 81,
          "time": 1477.5,
          "velocity": 1,
          "duration": 0.5
        },
        {
          "name": "A5",
          "midi": 81,
          "time": 1478,
          "velocity": 1,
          "duration": 0.5
        },
        {
          "name": "A5",
          "midi": 81,
          "time": 1478.5,
          "velocity": 1,
          "duration": 0.5
        },
        {
          "name": "A5",
          "midi": 81,
          "time": 1479,
          "velocity": 1,
          "duration": 0.5
        },
        {
          "name": "A5",
          "midi": 81,
          "time": 1479.5,
          "velocity": 1,
          "duration": 0.5
        },
        {
          "name": "A5",
          "midi": 81,
          "time": 1480,
          "velocity": 1,
          "duration": 0.5
        },
        {
          "name": "A5",
          "midi": 81,
          "time": 1480.5,
          "velocity": 1,
          "duration": 0.5
        },
        {
          "name": "A5",
          "midi": 81,
          "time": 1481,
          "velocity": 1,
          "duration": 0.5
        },
        {
          "name": "A5",
          "midi": 81,
          "time": 1481.5,
          "velocity": 1,
          "duration": 0.5
        },
        {
          "name": "A5",
          "midi": 81,
          "time": 1482,
          "velocity": 1,
          "duration": 0.5
        },
        {
          "name": "A5",
          "midi": 81,
          "time": 1482.5,
          "velocity": 1,
          "duration": 0.5
        },
        {
          "name": "A5",
          "midi": 81,
          "time": 1483,
          "velocity": 1,
          "duration": 0.5
        },
        {
          "name": "A5",
          "midi": 81,
          "time": 1483.5,
          "velocity": 1,
          "duration": 0.5
        },
        {
          "name": "A5",
          "midi": 81,
          "time": 1484,
          "velocity": 1,
          "duration": 0.5
        },
        {
          "name": "A5",
          "midi": 81,
          "time": 1484.5,
          "velocity": 1,
          "duration": 0.5
        },
        {
          "name": "A5",
          "midi": 81,
          "time": 1485,
          "velocity": 1,
          "duration": 0.5
        },
        {
          "name": "A5",
          "midi": 81,
          "time": 1485.5,
          "velocity": 1,
          "duration": 0.5
        },
        {
          "name": "A5",
          "midi": 81,
          "time": 1486,
          "velocity": 1,
          "duration": 0.5
        },
        {
          "name": "A5",
          "midi": 81,
          "time": 1486.5,
          "velocity": 1,
          "duration": 0.5
        },
        {
          "name": "A5",
          "midi": 81,
          "time": 1487,
          "velocity": 1,
          "duration": 0.5
        },
        {
          "name": "A5",
          "midi": 81,
          "time": 1487.5,
          "velocity": 1,
          "duration": 0.5
        },
        {
          "name": "A5",
          "midi": 81,
          "time": 1488,
          "velocity": 1,
          "duration": 0.5
        },
        {
          "name": "A5",
          "midi": 81,
          "time": 1488.5,
          "velocity": 1,
          "duration": 0.5
        },
        {
          "name": "A5",
          "midi": 81,
          "time": 1489,
          "velocity": 1,
          "duration": 0.5
        },
        {
          "name": "A5",
          "midi": 81,
          "time": 1489.5,
          "velocity": 1,
          "duration": 0.5
        },
        {
          "name": "A5",
          "midi": 81,
          "time": 1490,
          "velocity": 1,
          "duration": 0.5
        },
        {
          "name": "A5",
          "midi": 81,
          "time": 1490.5,
          "velocity": 1,
          "duration": 0.5
        },
        {
          "name": "A5",
          "midi": 81,
          "time": 1491,
          "velocity": 1,
          "duration": 0.5
        },
        {
          "name": "A5",
          "midi": 81,
          "time": 1491.5,
          "velocity": 1,
          "duration": 0.5
        },
        {
          "name": "A5",
          "midi": 81,
          "time": 1492,
          "velocity": 1,
          "duration": 0.5
        },
        {
          "name": "A5",
          "midi": 81,
          "time": 1492.5,
          "velocity": 1,
          "duration": 0.5
        },
        {
          "name": "A5",
          "midi": 81,
          "time": 1493,
          "velocity": 1,
          "duration": 0.5
        },
        {
          "name": "A5",
          "midi": 81,
          "time": 1493.5,
          "velocity": 1,
          "duration": 0.5
        },
        {
          "name": "A5",
          "midi": 81,
          "time": 1494,
          "velocity": 1,
          "duration": 0.5
        },
        {
          "name": "A5",
          "midi": 81,
          "time": 1494.5,
          "velocity": 1,
          "duration": 0.5
        },
        {
          "name": "A5",
          "midi": 81,
          "time": 1495,
          "velocity": 1,
          "duration": 0.5
        },
        {
          "name": "A5",
          "midi": 81,
          "time": 1495.5,
          "velocity": 1,
          "duration": 0.5
        },
        {
          "name": "A5",
          "midi": 81,
          "time": 1496,
          "velocity": 1,
          "duration": 0.5
        },
        {
          "name": "A5",
          "midi": 81,
          "time": 1496.5,
          "velocity": 1,
          "duration": 0.5
        },
        {
          "name": "A5",
          "midi": 81,
          "time": 1497,
          "velocity": 1,
          "duration": 0.5
        },
        {
          "name": "A5",
          "midi": 81,
          "time": 1497.5,
          "velocity": 1,
          "duration": 0.5
        },
        {
          "name": "A5",
          "midi": 81,
          "time": 1498,
          "velocity": 1,
          "duration": 0.5
        },
        {
          "name": "A5",
          "midi": 81,
          "time": 1498.5,
          "velocity": 1,
          "duration": 0.5
        },
        {
          "name": "A5",
          "midi": 81,
          "time": 1499,
          "velocity": 1,
          "duration": 0.5
        },
        {
          "name": "A5",
          "midi": 81,
          "time": 1499.5,
          "velocity": 1,
          "duration": 0.5
        },
        {
          "name": "A5",
          "midi": 81,
          "time": 1500,
          "velocity": 1,
          "duration": 0.5
        },
        {
          "name": "A5",
          "midi": 81,
          "time": 1500.5,
          "velocity": 1,
          "duration": 0.5
        },
        {
          "name": "A5",
          "midi": 81,
          "time": 1501,
          "velocity": 1,
          "duration": 0.5
        },
        {
          "name": "A5",
          "midi": 81,
          "time": 1501.5,
          "velocity": 1,
          "duration": 0.5
        },
        {
          "name": "A5",
          "midi": 81,
          "time": 1502,
          "velocity": 1,
          "duration": 0.5
        },
        {
          "name": "A5",
          "midi": 81,
          "time": 1502.5,
          "velocity": 1,
          "duration": 0.5
        },
        {
          "name": "A5",
          "midi": 81,
          "time": 1503,
          "velocity": 1,
          "duration": 0.5
        },
        {
          "name": "A5",
          "midi": 81,
          "time": 1503.5,
          "velocity": 1,
          "duration": 0.5
        },
        {
          "name": "A5",
          "midi": 81,
          "time": 1504,
          "velocity": 1,
          "duration": 0.5
        },
        {
          "name": "A5",
          "midi": 81,
          "time": 1504.5,
          "velocity": 1,
          "duration": 0.5
        },
        {
          "name": "A5",
          "midi": 81,
          "time": 1505,
          "velocity": 1,
          "duration": 0.5
        },
        {
          "name": "A5",
          "midi": 81,
          "time": 1505.5,
          "velocity": 1,
          "duration": 0.5
        },
        {
          "name": "A5",
          "midi": 81,
          "time": 1506,
          "velocity": 1,
          "duration": 0.5
        },
        {
          "name": "A5",
          "midi": 81,
          "time": 1506.5,
          "velocity": 1,
          "duration": 0.5
        },
        {
          "name": "A5",
          "midi": 81,
          "time": 1507,
          "velocity": 1,
          "duration": 0.5
        },
        {
          "name": "A5",
          "midi": 81,
          "time": 1507.5,
          "velocity": 1,
          "duration": 0.5
        },
        {
          "name": "A5",
          "midi": 81,
          "time": 1508,
          "velocity": 1,
          "duration": 0.5
        },
        {
          "name": "A5",
          "midi": 81,
          "time": 1508.5,
          "velocity": 1,
          "duration": 0.5
        },
        {
          "name": "A5",
          "midi": 81,
          "time": 1509,
          "velocity": 1,
          "duration": 0.5
        },
        {
          "name": "A5",
          "midi": 81,
          "time": 1509.5,
          "velocity": 1,
          "duration": 0.5
        },
        {
          "name": "A5",
          "midi": 81,
          "time": 1510,
          "velocity": 1,
          "duration": 0.5
        },
        {
          "name": "A5",
          "midi": 81,
          "time": 1510.5,
          "velocity": 1,
          "duration": 0.5
        },
        {
          "name": "A5",
          "midi": 81,
          "time": 1511,
          "velocity": 1,
          "duration": 0.5
        },
        {
          "name": "A5",
          "midi": 81,
          "time": 1511.5,
          "velocity": 1,
          "duration": 0.5
        },
        {
          "name": "A5",
          "midi": 81,
          "time": 1512,
          "velocity": 1,
          "duration": 0.5
        },
        {
          "name": "A5",
          "midi": 81,
          "time": 1512.5,
          "velocity": 1,
          "duration": 0.5
        },
        {
          "name": "A5",
          "midi": 81,
          "time": 1513,
          "velocity": 1,
          "duration": 0.5
        },
        {
          "name": "A5",
          "midi": 81,
          "time": 1513.5,
          "velocity": 1,
          "duration": 0.5
        },
        {
          "name": "A5",
          "midi": 81,
          "time": 1514,
          "velocity": 1,
          "duration": 0.5
        },
        {
          "name": "A5",
          "midi": 81,
          "time": 1514.5,
          "velocity": 1,
          "duration": 0.5
        },
        {
          "name": "A5",
          "midi": 81,
          "time": 1515,
          "velocity": 1,
          "duration": 0.5
        },
        {
          "name": "A5",
          "midi": 81,
          "time": 1515.5,
          "velocity": 1,
          "duration": 0.5
        },
        {
          "name": "A5",
          "midi": 81,
          "time": 1516,
          "velocity": 1,
          "duration": 0.5
        },
        {
          "name": "A5",
          "midi": 81,
          "time": 1516.5,
          "velocity": 1,
          "duration": 0.5
        },
        {
          "name": "A5",
          "midi": 81,
          "time": 1517,
          "velocity": 1,
          "duration": 0.5
        },
        {
          "name": "A5",
          "midi": 81,
          "time": 1517.5,
          "velocity": 1,
          "duration": 0.5
        },
        {
          "name": "A5",
          "midi": 81,
          "time": 1518,
          "velocity": 1,
          "duration": 0.5
        },
        {
          "name": "A5",
          "midi": 81,
          "time": 1518.5,
          "velocity": 1,
          "duration": 0.5
        },
        {
          "name": "A5",
          "midi": 81,
          "time": 1519,
          "velocity": 1,
          "duration": 0.5
        },
        {
          "name": "A5",
          "midi": 81,
          "time": 1519.5,
          "velocity": 1,
          "duration": 0.5
        },
        {
          "name": "A5",
          "midi": 81,
          "time": 1520,
          "velocity": 1,
          "duration": 0.5
        },
        {
          "name": "A5",
          "midi": 81,
          "time": 1520.5,
          "velocity": 1,
          "duration": 0.5
        },
        {
          "name": "A5",
          "midi": 81,
          "time": 1521,
          "velocity": 1,
          "duration": 0.5
        },
        {
          "name": "A5",
          "midi": 81,
          "time": 1521.5,
          "velocity": 1,
          "duration": 0.5
        },
        {
          "name": "A5",
          "midi": 81,
          "time": 1522,
          "velocity": 1,
          "duration": 0.5
        },
        {
          "name": "A5",
          "midi": 81,
          "time": 1522.5,
          "velocity": 1,
          "duration": 0.5
        },
        {
          "name": "A5",
          "midi": 81,
          "time": 1523,
          "velocity": 1,
          "duration": 0.5
        },
        {
          "name": "A5",
          "midi": 81,
          "time": 1523.5,
          "velocity": 1,
          "duration": 0.5
        },
        {
          "name": "A5",
          "midi": 81,
          "time": 1524,
          "velocity": 1,
          "duration": 0.5
        },
        {
          "name": "A5",
          "midi": 81,
          "time": 1524.5,
          "velocity": 1,
          "duration": 0.5
        },
        {
          "name": "A5",
          "midi": 81,
          "time": 1525,
          "velocity": 1,
          "duration": 0.5
        },
        {
          "name": "A5",
          "midi": 81,
          "time": 1525.5,
          "velocity": 1,
          "duration": 0.5
        },
        {
          "name": "A5",
          "midi": 81,
          "time": 1526,
          "velocity": 1,
          "duration": 0.5
        },
        {
          "name": "A5",
          "midi": 81,
          "time": 1526.5,
          "velocity": 1,
          "duration": 0.5
        },
        {
          "name": "A5",
          "midi": 81,
          "time": 1527,
          "velocity": 1,
          "duration": 0.5
        },
        {
          "name": "A5",
          "midi": 81,
          "time": 1527.5,
          "velocity": 1,
          "duration": 0.5
        },
        {
          "name": "A5",
          "midi": 81,
          "time": 1528,
          "velocity": 1,
          "duration": 0.5
        },
        {
          "name": "A5",
          "midi": 81,
          "time": 1528.5,
          "velocity": 1,
          "duration": 0.5
        },
        {
          "name": "A5",
          "midi": 81,
          "time": 1529,
          "velocity": 1,
          "duration": 0.5
        },
        {
          "name": "A5",
          "midi": 81,
          "time": 1529.5,
          "velocity": 1,
          "duration": 0.5
        },
        {
          "name": "A5",
          "midi": 81,
          "time": 1530,
          "velocity": 1,
          "duration": 0.5
        },
        {
          "name": "A5",
          "midi": 81,
          "time": 1530.5,
          "velocity": 1,
          "duration": 0.5
        },
        {
          "name": "A5",
          "midi": 81,
          "time": 1531,
          "velocity": 1,
          "duration": 0.5
        },
        {
          "name": "A5",
          "midi": 81,
          "time": 1531.5,
          "velocity": 1,
          "duration": 0.5
        },
        {
          "name": "A5",
          "midi": 81,
          "time": 1532,
          "velocity": 1,
          "duration": 0.5
        },
        {
          "name": "A5",
          "midi": 81,
          "time": 1532.5,
          "velocity": 1,
          "duration": 0.5
        },
        {
          "name": "A5",
          "midi": 81,
          "time": 1533,
          "velocity": 1,
          "duration": 0.5
        },
        {
          "name": "A5",
          "midi": 81,
          "time": 1533.5,
          "velocity": 1,
          "duration": 0.5
        },
        {
          "name": "A5",
          "midi": 81,
          "time": 1534,
          "velocity": 1,
          "duration": 0.5
        },
        {
          "name": "A5",
          "midi": 81,
          "time": 1534.5,
          "velocity": 1,
          "duration": 0.5
        },
        {
          "name": "A5",
          "midi": 81,
          "time": 1535,
          "velocity": 1,
          "duration": 0.5
        },
        {
          "name": "A5",
          "midi": 81,
          "time": 1535.5,
          "velocity": 1,
          "duration": 0.5
        },
        {
          "name": "A5",
          "midi": 81,
          "time": 1536,
          "velocity": 1,
          "duration": 0.5
        },
        {
          "name": "A5",
          "midi": 81,
          "time": 1536.5,
          "velocity": 1,
          "duration": 0.5
        },
        {
          "name": "A5",
          "midi": 81,
          "time": 1537,
          "velocity": 1,
          "duration": 0.5
        },
        {
          "name": "A5",
          "midi": 81,
          "time": 1537.5,
          "velocity": 1,
          "duration": 0.5
        },
        {
          "name": "A5",
          "midi": 81,
          "time": 1538,
          "velocity": 1,
          "duration": 0.5
        },
        {
          "name": "A5",
          "midi": 81,
          "time": 1538.5,
          "velocity": 1,
          "duration": 0.5
        },
        {
          "name": "A5",
          "midi": 81,
          "time": 1539,
          "velocity": 1,
          "duration": 0.5
        },
        {
          "name": "A5",
          "midi": 81,
          "time": 1539.5,
          "velocity": 1,
          "duration": 0.5
        },
        {
          "name": "A5",
          "midi": 81,
          "time": 1540,
          "velocity": 1,
          "duration": 0.5
        },
        {
          "name": "A5",
          "midi": 81,
          "time": 1540.5,
          "velocity": 1,
          "duration": 0.5
        },
        {
          "name": "A5",
          "midi": 81,
          "time": 1541,
          "velocity": 1,
          "duration": 0.5
        },
        {
          "name": "A5",
          "midi": 81,
          "time": 1541.5,
          "velocity": 1,
          "duration": 0.5
        },
        {
          "name": "A5",
          "midi": 81,
          "time": 1542,
          "velocity": 1,
          "duration": 0.5
        },
        {
          "name": "A5",
          "midi": 81,
          "time": 1542.5,
          "velocity": 1,
          "duration": 0.5
        },
        {
          "name": "A5",
          "midi": 81,
          "time": 1543,
          "velocity": 1,
          "duration": 0.5
        },
        {
          "name": "A5",
          "midi": 81,
          "time": 1543.5,
          "velocity": 1,
          "duration": 0.5
        },
        {
          "name": "A5",
          "midi": 81,
          "time": 1544,
          "velocity": 1,
          "duration": 0.5
        },
        {
          "name": "A5",
          "midi": 81,
          "time": 1544.5,
          "velocity": 1,
          "duration": 0.5
        },
        {
          "name": "A5",
          "midi": 81,
          "time": 1545,
          "velocity": 1,
          "duration": 0.5
        },
        {
          "name": "A5",
          "midi": 81,
          "time": 1545.5,
          "velocity": 1,
          "duration": 0.5
        },
        {
          "name": "A5",
          "midi": 81,
          "time": 1546,
          "velocity": 1,
          "duration": 0.5
        },
        {
          "name": "A5",
          "midi": 81,
          "time": 1546.5,
          "velocity": 1,
          "duration": 0.5
        },
        {
          "name": "A5",
          "midi": 81,
          "time": 1547,
          "velocity": 1,
          "duration": 0.5
        },
        {
          "name": "A5",
          "midi": 81,
          "time": 1547.5,
          "velocity": 1,
          "duration": 0.5
        },
        {
          "name": "A5",
          "midi": 81,
          "time": 1548,
          "velocity": 1,
          "duration": 0.5
        },
        {
          "name": "A5",
          "midi": 81,
          "time": 1548.5,
          "velocity": 1,
          "duration": 0.5
        },
        {
          "name": "A5",
          "midi": 81,
          "time": 1549,
          "velocity": 1,
          "duration": 0.5
        },
        {
          "name": "A5",
          "midi": 81,
          "time": 1549.5,
          "velocity": 1,
          "duration": 0.5
        },
        {
          "name": "A5",
          "midi": 81,
          "time": 1550,
          "velocity": 1,
          "duration": 0.5
        },
        {
          "name": "A5",
          "midi": 81,
          "time": 1550.5,
          "velocity": 1,
          "duration": 0.5
        },
        {
          "name": "A5",
          "midi": 81,
          "time": 1551,
          "velocity": 1,
          "duration": 0.5
        },
        {
          "name": "A5",
          "midi": 81,
          "time": 1551.5,
          "velocity": 1,
          "duration": 0.5
        },
        {
          "name": "A5",
          "midi": 81,
          "time": 1552,
          "velocity": 1,
          "duration": 0.5
        },
        {
          "name": "A5",
          "midi": 81,
          "time": 1552.5,
          "velocity": 1,
          "duration": 0.5
        },
        {
          "name": "A5",
          "midi": 81,
          "time": 1553,
          "velocity": 1,
          "duration": 0.5
        },
        {
          "name": "A5",
          "midi": 81,
          "time": 1553.5,
          "velocity": 1,
          "duration": 0.5
        },
        {
          "name": "A5",
          "midi": 81,
          "time": 1554,
          "velocity": 1,
          "duration": 0.5
        },
        {
          "name": "A5",
          "midi": 81,
          "time": 1554.5,
          "velocity": 1,
          "duration": 0.5
        },
        {
          "name": "A5",
          "midi": 81,
          "time": 1555,
          "velocity": 1,
          "duration": 0.5
        },
        {
          "name": "A5",
          "midi": 81,
          "time": 1555.5,
          "velocity": 1,
          "duration": 0.5
        },
        {
          "name": "A5",
          "midi": 81,
          "time": 1556,
          "velocity": 1,
          "duration": 0.5
        },
        {
          "name": "A5",
          "midi": 81,
          "time": 1556.5,
          "velocity": 1,
          "duration": 0.5
        },
        {
          "name": "A5",
          "midi": 81,
          "time": 1557,
          "velocity": 1,
          "duration": 0.5
        },
        {
          "name": "A5",
          "midi": 81,
          "time": 1557.5,
          "velocity": 1,
          "duration": 0.5
        },
        {
          "name": "A5",
          "midi": 81,
          "time": 1558,
          "velocity": 1,
          "duration": 0.5
        },
        {
          "name": "A5",
          "midi": 81,
          "time": 1558.5,
          "velocity": 1,
          "duration": 0.5
        },
        {
          "name": "A5",
          "midi": 81,
          "time": 1559,
          "velocity": 1,
          "duration": 0.5
        },
        {
          "name": "A5",
          "midi": 81,
          "time": 1559.5,
          "velocity": 1,
          "duration": 0.5
        },
        {
          "name": "A5",
          "midi": 81,
          "time": 1560,
          "velocity": 1,
          "duration": 0.5
        },
        {
          "name": "A5",
          "midi": 81,
          "time": 1560.5,
          "velocity": 1,
          "duration": 0.5
        },
        {
          "name": "A5",
          "midi": 81,
          "time": 1561,
          "velocity": 1,
          "duration": 0.5
        },
        {
          "name": "A5",
          "midi": 81,
          "time": 1561.5,
          "velocity": 1,
          "duration": 0.5
        },
        {
          "name": "A5",
          "midi": 81,
          "time": 1562,
          "velocity": 1,
          "duration": 0.5
        },
        {
          "name": "A5",
          "midi": 81,
          "time": 1562.5,
          "velocity": 1,
          "duration": 0.5
        },
        {
          "name": "A5",
          "midi": 81,
          "time": 1563,
          "velocity": 1,
          "duration": 0.5
        },
        {
          "name": "A5",
          "midi": 81,
          "time": 1563.5,
          "velocity": 1,
          "duration": 0.5
        },
        {
          "name": "A5",
          "midi": 81,
          "time": 1564,
          "velocity": 1,
          "duration": 0.5
        },
        {
          "name": "A5",
          "midi": 81,
          "time": 1564.5,
          "velocity": 1,
          "duration": 0.5
        },
        {
          "name": "A5",
          "midi": 81,
          "time": 1565,
          "velocity": 1,
          "duration": 0.5
        },
        {
          "name": "A5",
          "midi": 81,
          "time": 1565.5,
          "velocity": 1,
          "duration": 0.5
        },
        {
          "name": "A5",
          "midi": 81,
          "time": 1566,
          "velocity": 1,
          "duration": 0.5
        },
        {
          "name": "A5",
          "midi": 81,
          "time": 1566.5,
          "velocity": 1,
          "duration": 0.5
        },
        {
          "name": "A5",
          "midi": 81,
          "time": 1567,
          "velocity": 1,
          "duration": 0.5
        },
        {
          "name": "A5",
          "midi": 81,
          "time": 1567.5,
          "velocity": 1,
          "duration": 0.5
        },
        {
          "name": "A5",
          "midi": 81,
          "time": 1568,
          "velocity": 1,
          "duration": 0.5
        },
        {
          "name": "A5",
          "midi": 81,
          "time": 1568.5,
          "velocity": 1,
          "duration": 0.5
        },
        {
          "name": "A5",
          "midi": 81,
          "time": 1569,
          "velocity": 1,
          "duration": 0.5
        },
        {
          "name": "A5",
          "midi": 81,
          "time": 1569.5,
          "velocity": 1,
          "duration": 0.5
        },
        {
          "name": "A5",
          "midi": 81,
          "time": 1570,
          "velocity": 1,
          "duration": 0.5
        },
        {
          "name": "A5",
          "midi": 81,
          "time": 1570.5,
          "velocity": 1,
          "duration": 0.5
        },
        {
          "name": "A5",
          "midi": 81,
          "time": 1571,
          "velocity": 1,
          "duration": 0.5
        },
        {
          "name": "A5",
          "midi": 81,
          "time": 1571.5,
          "velocity": 1,
          "duration": 0.5
        },
        {
          "name": "A5",
          "midi": 81,
          "time": 1572,
          "velocity": 1,
          "duration": 0.5
        },
        {
          "name": "A5",
          "midi": 81,
          "time": 1572.5,
          "velocity": 1,
          "duration": 0.5
        },
        {
          "name": "A5",
          "midi": 81,
          "time": 1573,
          "velocity": 1,
          "duration": 0.5
        },
        {
          "name": "A5",
          "midi": 81,
          "time": 1573.5,
          "velocity": 1,
          "duration": 0.5
        },
        {
          "name": "A5",
          "midi": 81,
          "time": 1574,
          "velocity": 1,
          "duration": 0.5
        },
        {
          "name": "A5",
          "midi": 81,
          "time": 1574.5,
          "velocity": 1,
          "duration": 0.5
        },
        {
          "name": "A5",
          "midi": 81,
          "time": 1575,
          "velocity": 1,
          "duration": 0.5
        },
        {
          "name": "A5",
          "midi": 81,
          "time": 1575.5,
          "velocity": 1,
          "duration": 0.5
        },
        {
          "name": "A5",
          "midi": 81,
          "time": 1576,
          "velocity": 1,
          "duration": 0.5
        },
        {
          "name": "A5",
          "midi": 81,
          "time": 1576.5,
          "velocity": 1,
          "duration": 0.5
        },
        {
          "name": "A5",
          "midi": 81,
          "time": 1577,
          "velocity": 1,
          "duration": 0.5
        },
        {
          "name": "A5",
          "midi": 81,
          "time": 1577.5,
          "velocity": 1,
          "duration": 0.5
        },
        {
          "name": "A5",
          "midi": 81,
          "time": 1578,
          "velocity": 1,
          "duration": 0.5
        },
        {
          "name": "A5",
          "midi": 81,
          "time": 1578.5,
          "velocity": 1,
          "duration": 0.5
        },
        {
          "name": "A5",
          "midi": 81,
          "time": 1579,
          "velocity": 1,
          "duration": 0.5
        },
        {
          "name": "A5",
          "midi": 81,
          "time": 1579.5,
          "velocity": 1,
          "duration": 0.5
        },
        {
          "name": "A5",
          "midi": 81,
          "time": 1580,
          "velocity": 1,
          "duration": 0.5
        },
        {
          "name": "A5",
          "midi": 81,
          "time": 1580.5,
          "velocity": 1,
          "duration": 0.5
        },
        {
          "name": "A5",
          "midi": 81,
          "time": 1581,
          "velocity": 1,
          "duration": 0.5
        },
        {
          "name": "A5",
          "midi": 81,
          "time": 1581.5,
          "velocity": 1,
          "duration": 0.5
        },
        {
          "name": "A5",
          "midi": 81,
          "time": 1582,
          "velocity": 1,
          "duration": 0.5
        },
        {
          "name": "A5",
          "midi": 81,
          "time": 1582.5,
          "velocity": 1,
          "duration": 0.5
        },
        {
          "name": "A5",
          "midi": 81,
          "time": 1583,
          "velocity": 1,
          "duration": 0.5
        },
        {
          "name": "A5",
          "midi": 81,
          "time": 1583.5,
          "velocity": 1,
          "duration": 0.5
        },
        {
          "name": "A5",
          "midi": 81,
          "time": 1584,
          "velocity": 1,
          "duration": 0.5
        },
        {
          "name": "A5",
          "midi": 81,
          "time": 1584.5,
          "velocity": 1,
          "duration": 0.5
        },
        {
          "name": "A5",
          "midi": 81,
          "time": 1585,
          "velocity": 1,
          "duration": 0.5
        },
        {
          "name": "A5",
          "midi": 81,
          "time": 1585.5,
          "velocity": 1,
          "duration": 0.5
        },
        {
          "name": "A5",
          "midi": 81,
          "time": 1586,
          "velocity": 1,
          "duration": 0.5
        },
        {
          "name": "A5",
          "midi": 81,
          "time": 1586.5,
          "velocity": 1,
          "duration": 0.5
        },
        {
          "name": "A5",
          "midi": 81,
          "time": 1587,
          "velocity": 1,
          "duration": 0.5
        },
        {
          "name": "A5",
          "midi": 81,
          "time": 1587.5,
          "velocity": 1,
          "duration": 0.5
        },
        {
          "name": "A5",
          "midi": 81,
          "time": 1588,
          "velocity": 1,
          "duration": 0.5
        },
        {
          "name": "A5",
          "midi": 81,
          "time": 1588.5,
          "velocity": 1,
          "duration": 0.5
        },
        {
          "name": "A5",
          "midi": 81,
          "time": 1589,
          "velocity": 1,
          "duration": 0.5
        },
        {
          "name": "A5",
          "midi": 81,
          "time": 1589.5,
          "velocity": 1,
          "duration": 0.5
        },
        {
          "name": "A5",
          "midi": 81,
          "time": 1590,
          "velocity": 1,
          "duration": 0.5
        },
        {
          "name": "A5",
          "midi": 81,
          "time": 1590.5,
          "velocity": 1,
          "duration": 0.5
        },
        {
          "name": "A5",
          "midi": 81,
          "time": 1591,
          "velocity": 1,
          "duration": 0.5
        },
        {
          "name": "A5",
          "midi": 81,
          "time": 1591.5,
          "velocity": 1,
          "duration": 0.5
        },
        {
          "name": "A5",
          "midi": 81,
          "time": 1592,
          "velocity": 1,
          "duration": 0.5
        },
        {
          "name": "A5",
          "midi": 81,
          "time": 1592.5,
          "velocity": 1,
          "duration": 0.5
        },
        {
          "name": "A5",
          "midi": 81,
          "time": 1593,
          "velocity": 1,
          "duration": 0.5
        },
        {
          "name": "A5",
          "midi": 81,
          "time": 1593.5,
          "velocity": 1,
          "duration": 0.5
        },
        {
          "name": "A5",
          "midi": 81,
          "time": 1594,
          "velocity": 1,
          "duration": 0.5
        },
        {
          "name": "A5",
          "midi": 81,
          "time": 1594.5,
          "velocity": 1,
          "duration": 0.5
        },
        {
          "name": "A5",
          "midi": 81,
          "time": 1595,
          "velocity": 1,
          "duration": 0.5
        },
        {
          "name": "A5",
          "midi": 81,
          "time": 1595.5,
          "velocity": 1,
          "duration": 0.5
        },
        {
          "name": "A5",
          "midi": 81,
          "time": 1596,
          "velocity": 1,
          "duration": 0.5
        },
        {
          "name": "A5",
          "midi": 81,
          "time": 1596.5,
          "velocity": 1,
          "duration": 0.5
        },
        {
          "name": "A5",
          "midi": 81,
          "time": 1597,
          "velocity": 1,
          "duration": 0.5
        },
        {
          "name": "A5",
          "midi": 81,
          "time": 1597.5,
          "velocity": 1,
          "duration": 0.5
        },
        {
          "name": "A5",
          "midi": 81,
          "time": 1598,
          "velocity": 1,
          "duration": 0.5
        },
        {
          "name": "A5",
          "midi": 81,
          "time": 1598.5,
          "velocity": 1,
          "duration": 0.5
        },
        {
          "name": "A5",
          "midi": 81,
          "time": 1599,
          "velocity": 1,
          "duration": 0.5
        },
        {
          "name": "A5",
          "midi": 81,
          "time": 1599.5,
          "velocity": 1,
          "duration": 0.5
        },
        {
          "name": "A5",
          "midi": 81,
          "time": 1600,
          "velocity": 1,
          "duration": 0.5
        },
        {
          "name": "A5",
          "midi": 81,
          "time": 1600.5,
          "velocity": 1,
          "duration": 0.5
        },
        {
          "name": "A5",
          "midi": 81,
          "time": 1601,
          "velocity": 1,
          "duration": 0.5
        },
        {
          "name": "A5",
          "midi": 81,
          "time": 1601.5,
          "velocity": 1,
          "duration": 0.5
        },
        {
          "name": "A5",
          "midi": 81,
          "time": 1602,
          "velocity": 1,
          "duration": 0.5
        },
        {
          "name": "A5",
          "midi": 81,
          "time": 1602.5,
          "velocity": 1,
          "duration": 0.5
        },
        {
          "name": "A5",
          "midi": 81,
          "time": 1603,
          "velocity": 1,
          "duration": 0.5
        },
        {
          "name": "A5",
          "midi": 81,
          "time": 1603.5,
          "velocity": 1,
          "duration": 0.5
        },
        {
          "name": "A5",
          "midi": 81,
          "time": 1604,
          "velocity": 1,
          "duration": 0.5
        },
        {
          "name": "A5",
          "midi": 81,
          "time": 1604.5,
          "velocity": 1,
          "duration": 0.5
        },
        {
          "name": "A5",
          "midi": 81,
          "time": 1605,
          "velocity": 1,
          "duration": 0.5
        },
        {
          "name": "A5",
          "midi": 81,
          "time": 1605.5,
          "velocity": 1,
          "duration": 0.5
        },
        {
          "name": "A5",
          "midi": 81,
          "time": 1606,
          "velocity": 1,
          "duration": 0.5
        },
        {
          "name": "A5",
          "midi": 81,
          "time": 1606.5,
          "velocity": 1,
          "duration": 0.5
        },
        {
          "name": "A5",
          "midi": 81,
          "time": 1607,
          "velocity": 1,
          "duration": 0.5
        },
        {
          "name": "A5",
          "midi": 81,
          "time": 1607.5,
          "velocity": 1,
          "duration": 0.5
        },
        {
          "name": "A5",
          "midi": 81,
          "time": 1608,
          "velocity": 1,
          "duration": 0.5
        },
        {
          "name": "A5",
          "midi": 81,
          "time": 1608.5,
          "velocity": 1,
          "duration": 0.5
        },
        {
          "name": "A5",
          "midi": 81,
          "time": 1609,
          "velocity": 1,
          "duration": 0.5
        },
        {
          "name": "A5",
          "midi": 81,
          "time": 1609.5,
          "velocity": 1,
          "duration": 0.5
        },
        {
          "name": "A5",
          "midi": 81,
          "time": 1610,
          "velocity": 1,
          "duration": 0.5
        },
        {
          "name": "A5",
          "midi": 81,
          "time": 1610.5,
          "velocity": 1,
          "duration": 0.5
        },
        {
          "name": "A5",
          "midi": 81,
          "time": 1611,
          "velocity": 1,
          "duration": 0.5
        },
        {
          "name": "A5",
          "midi": 81,
          "time": 1611.5,
          "velocity": 1,
          "duration": 0.5
        },
        {
          "name": "A5",
          "midi": 81,
          "time": 1612,
          "velocity": 1,
          "duration": 0.5
        },
        {
          "name": "A5",
          "midi": 81,
          "time": 1612.5,
          "velocity": 1,
          "duration": 0.5
        },
        {
          "name": "A5",
          "midi": 81,
          "time": 1613,
          "velocity": 1,
          "duration": 0.5
        },
        {
          "name": "A5",
          "midi": 81,
          "time": 1613.5,
          "velocity": 1,
          "duration": 0.5
        },
        {
          "name": "A5",
          "midi": 81,
          "time": 1614,
          "velocity": 1,
          "duration": 0.5
        },
        {
          "name": "A5",
          "midi": 81,
          "time": 1614.5,
          "velocity": 1,
          "duration": 0.5
        },
        {
          "name": "A5",
          "midi": 81,
          "time": 1615,
          "velocity": 1,
          "duration": 0.5
        },
        {
          "name": "A5",
          "midi": 81,
          "time": 1615.5,
          "velocity": 1,
          "duration": 0.5
        },
        {
          "name": "A5",
          "midi": 81,
          "time": 1616,
          "velocity": 1,
          "duration": 0.5
        },
        {
          "name": "A5",
          "midi": 81,
          "time": 1616.5,
          "velocity": 1,
          "duration": 0.5
        },
        {
          "name": "A5",
          "midi": 81,
          "time": 1617,
          "velocity": 1,
          "duration": 0.5
        },
        {
          "name": "A5",
          "midi": 81,
          "time": 1617.5,
          "velocity": 1,
          "duration": 0.5
        },
        {
          "name": "A5",
          "midi": 81,
          "time": 1618,
          "velocity": 1,
          "duration": 0.5
        },
        {
          "name": "A5",
          "midi": 81,
          "time": 1618.5,
          "velocity": 1,
          "duration": 0.5
        },
        {
          "name": "A5",
          "midi": 81,
          "time": 1619,
          "velocity": 1,
          "duration": 0.5
        },
        {
          "name": "A5",
          "midi": 81,
          "time": 1619.5,
          "velocity": 1,
          "duration": 0.5
        },
        {
          "name": "A5",
          "midi": 81,
          "time": 1620,
          "velocity": 1,
          "duration": 0.5
        },
        {
          "name": "A5",
          "midi": 81,
          "time": 1620.5,
          "velocity": 1,
          "duration": 0.5
        },
        {
          "name": "A5",
          "midi": 81,
          "time": 1621,
          "velocity": 1,
          "duration": 0.5
        },
        {
          "name": "A5",
          "midi": 81,
          "time": 1621.5,
          "velocity": 1,
          "duration": 0.5
        },
        {
          "name": "A5",
          "midi": 81,
          "time": 1622,
          "velocity": 1,
          "duration": 0.5
        },
        {
          "name": "A5",
          "midi": 81,
          "time": 1622.5,
          "velocity": 1,
          "duration": 0.5
        },
        {
          "name": "A5",
          "midi": 81,
          "time": 1623,
          "velocity": 1,
          "duration": 0.5
        },
        {
          "name": "A5",
          "midi": 81,
          "time": 1623.5,
          "velocity": 1,
          "duration": 0.5
        },
        {
          "name": "A5",
          "midi": 81,
          "time": 1624,
          "velocity": 1,
          "duration": 0.5
        },
        {
          "name": "A5",
          "midi": 81,
          "time": 1624.5,
          "velocity": 1,
          "duration": 0.5
        },
        {
          "name": "A5",
          "midi": 81,
          "time": 1625,
          "velocity": 1,
          "duration": 0.5
        },
        {
          "name": "A5",
          "midi": 81,
          "time": 1625.5,
          "velocity": 1,
          "duration": 0.5
        },
        {
          "name": "A5",
          "midi": 81,
          "time": 1626,
          "velocity": 1,
          "duration": 0.5
        },
        {
          "name": "A5",
          "midi": 81,
          "time": 1626.5,
          "velocity": 1,
          "duration": 0.5
        },
        {
          "name": "A5",
          "midi": 81,
          "time": 1627,
          "velocity": 1,
          "duration": 0.5
        },
        {
          "name": "A5",
          "midi": 81,
          "time": 1627.5,
          "velocity": 1,
          "duration": 0.5
        },
        {
          "name": "A5",
          "midi": 81,
          "time": 1628,
          "velocity": 1,
          "duration": 0.5
        },
        {
          "name": "A5",
          "midi": 81,
          "time": 1628.5,
          "velocity": 1,
          "duration": 0.5
        },
        {
          "name": "A5",
          "midi": 81,
          "time": 1629,
          "velocity": 1,
          "duration": 0.5
        },
        {
          "name": "A5",
          "midi": 81,
          "time": 1629.5,
          "velocity": 1,
          "duration": 0.5
        },
        {
          "name": "A5",
          "midi": 81,
          "time": 1630,
          "velocity": 1,
          "duration": 0.5
        },
        {
          "name": "A5",
          "midi": 81,
          "time": 1630.5,
          "velocity": 1,
          "duration": 0.5
        },
        {
          "name": "A5",
          "midi": 81,
          "time": 1631,
          "velocity": 1,
          "duration": 0.5
        },
        {
          "name": "A5",
          "midi": 81,
          "time": 1631.5,
          "velocity": 1,
          "duration": 0.5
        },
        {
          "name": "A5",
          "midi": 81,
          "time": 1632,
          "velocity": 1,
          "duration": 0.5
        },
        {
          "name": "A5",
          "midi": 81,
          "time": 1632.5,
          "velocity": 1,
          "duration": 0.5
        },
        {
          "name": "A5",
          "midi": 81,
          "time": 1633,
          "velocity": 1,
          "duration": 0.5
        },
        {
          "name": "A5",
          "midi": 81,
          "time": 1633.5,
          "velocity": 1,
          "duration": 0.5
        },
        {
          "name": "A5",
          "midi": 81,
          "time": 1634,
          "velocity": 1,
          "duration": 0.5
        },
        {
          "name": "A5",
          "midi": 81,
          "time": 1634.5,
          "velocity": 1,
          "duration": 0.5
        },
        {
          "name": "A5",
          "midi": 81,
          "time": 1635,
          "velocity": 1,
          "duration": 0.5
        },
        {
          "name": "A5",
          "midi": 81,
          "time": 1635.5,
          "velocity": 1,
          "duration": 0.5
        },
        {
          "name": "A5",
          "midi": 81,
          "time": 1636,
          "velocity": 1,
          "duration": 0.5
        },
        {
          "name": "A5",
          "midi": 81,
          "time": 1636.5,
          "velocity": 1,
          "duration": 0.5
        },
        {
          "name": "A5",
          "midi": 81,
          "time": 1637,
          "velocity": 1,
          "duration": 0.5
        },
        {
          "name": "A5",
          "midi": 81,
          "time": 1637.5,
          "velocity": 1,
          "duration": 0.5
        },
        {
          "name": "A5",
          "midi": 81,
          "time": 1638,
          "velocity": 1,
          "duration": 0.5
        },
        {
          "name": "A5",
          "midi": 81,
          "time": 1638.5,
          "velocity": 1,
          "duration": 0.5
        },
        {
          "name": "A5",
          "midi": 81,
          "time": 1639,
          "velocity": 1,
          "duration": 0.5
        },
        {
          "name": "A5",
          "midi": 81,
          "time": 1639.5,
          "velocity": 1,
          "duration": 0.5
        },
        {
          "name": "A5",
          "midi": 81,
          "time": 1640,
          "velocity": 1,
          "duration": 0.5
        },
        {
          "name": "A5",
          "midi": 81,
          "time": 1640.5,
          "velocity": 1,
          "duration": 0.5
        },
        {
          "name": "A5",
          "midi": 81,
          "time": 1641,
          "velocity": 1,
          "duration": 0.5
        },
        {
          "name": "A5",
          "midi": 81,
          "time": 1641.5,
          "velocity": 1,
          "duration": 0.5
        },
        {
          "name": "A5",
          "midi": 81,
          "time": 1642,
          "velocity": 1,
          "duration": 0.5
        },
        {
          "name": "A5",
          "midi": 81,
          "time": 1642.5,
          "velocity": 1,
          "duration": 0.5
        },
        {
          "name": "A5",
          "midi": 81,
          "time": 1643,
          "velocity": 1,
          "duration": 0.5
        },
        {
          "name": "A5",
          "midi": 81,
          "time": 1643.5,
          "velocity": 1,
          "duration": 0.5
        },
        {
          "name": "A5",
          "midi": 81,
          "time": 1644,
          "velocity": 1,
          "duration": 0.5
        },
        {
          "name": "A5",
          "midi": 81,
          "time": 1644.5,
          "velocity": 1,
          "duration": 0.5
        },
        {
          "name": "A5",
          "midi": 81,
          "time": 1645,
          "velocity": 1,
          "duration": 0.5
        },
        {
          "name": "A5",
          "midi": 81,
          "time": 1645.5,
          "velocity": 1,
          "duration": 0.5
        },
        {
          "name": "A5",
          "midi": 81,
          "time": 1646,
          "velocity": 1,
          "duration": 0.5
        },
        {
          "name": "A5",
          "midi": 81,
          "time": 1646.5,
          "velocity": 1,
          "duration": 0.5
        },
        {
          "name": "A5",
          "midi": 81,
          "time": 1647,
          "velocity": 1,
          "duration": 0.5
        },
        {
          "name": "A5",
          "midi": 81,
          "time": 1647.5,
          "velocity": 1,
          "duration": 0.5
        },
        {
          "name": "A5",
          "midi": 81,
          "time": 1648,
          "velocity": 1,
          "duration": 0.5
        },
        {
          "name": "A5",
          "midi": 81,
          "time": 1648.5,
          "velocity": 1,
          "duration": 0.5
        },
        {
          "name": "A5",
          "midi": 81,
          "time": 1649,
          "velocity": 1,
          "duration": 0.5
        },
        {
          "name": "A5",
          "midi": 81,
          "time": 1649.5,
          "velocity": 1,
          "duration": 0.5
        },
        {
          "name": "A5",
          "midi": 81,
          "time": 1650,
          "velocity": 1,
          "duration": 0.5
        },
        {
          "name": "A5",
          "midi": 81,
          "time": 1650.5,
          "velocity": 1,
          "duration": 0.5
        },
        {
          "name": "A5",
          "midi": 81,
          "time": 1651,
          "velocity": 1,
          "duration": 0.5
        },
        {
          "name": "A5",
          "midi": 81,
          "time": 1651.5,
          "velocity": 1,
          "duration": 0.5
        },
        {
          "name": "A5",
          "midi": 81,
          "time": 1652,
          "velocity": 1,
          "duration": 0.5
        },
        {
          "name": "A5",
          "midi": 81,
          "time": 1652.5,
          "velocity": 1,
          "duration": 0.5
        },
        {
          "name": "A5",
          "midi": 81,
          "time": 1653,
          "velocity": 1,
          "duration": 0.5
        },
        {
          "name": "A5",
          "midi": 81,
          "time": 1653.5,
          "velocity": 1,
          "duration": 0.5
        },
        {
          "name": "A5",
          "midi": 81,
          "time": 1654,
          "velocity": 1,
          "duration": 0.5
        },
        {
          "name": "A5",
          "midi": 81,
          "time": 1654.5,
          "velocity": 1,
          "duration": 0.5
        },
        {
          "name": "A5",
          "midi": 81,
          "time": 1655,
          "velocity": 1,
          "duration": 0.5
        },
        {
          "name": "A5",
          "midi": 81,
          "time": 1655.5,
          "velocity": 1,
          "duration": 0.5
        },
        {
          "name": "A5",
          "midi": 81,
          "time": 1656,
          "velocity": 1,
          "duration": 0.5
        },
        {
          "name": "A5",
          "midi": 81,
          "time": 1656.5,
          "velocity": 1,
          "duration": 0.5
        },
        {
          "name": "A5",
          "midi": 81,
          "time": 1657,
          "velocity": 1,
          "duration": 0.5
        },
        {
          "name": "A5",
          "midi": 81,
          "time": 1657.5,
          "velocity": 1,
          "duration": 0.5
        },
        {
          "name": "A5",
          "midi": 81,
          "time": 1658,
          "velocity": 1,
          "duration": 0.5
        },
        {
          "name": "A5",
          "midi": 81,
          "time": 1658.5,
          "velocity": 1,
          "duration": 0.5
        },
        {
          "name": "A5",
          "midi": 81,
          "time": 1659,
          "velocity": 1,
          "duration": 0.5
        },
        {
          "name": "A5",
          "midi": 81,
          "time": 1659.5,
          "velocity": 1,
          "duration": 0.5
        },
        {
          "name": "A5",
          "midi": 81,
          "time": 1660,
          "velocity": 1,
          "duration": 0.5
        },
        {
          "name": "A5",
          "midi": 81,
          "time": 1660.5,
          "velocity": 1,
          "duration": 0.5
        },
        {
          "name": "A5",
          "midi": 81,
          "time": 1661,
          "velocity": 1,
          "duration": 0.5
        },
        {
          "name": "A5",
          "midi": 81,
          "time": 1661.5,
          "velocity": 1,
          "duration": 0.5
        },
        {
          "name": "A5",
          "midi": 81,
          "time": 1662,
          "velocity": 1,
          "duration": 0.5
        },
        {
          "name": "A5",
          "midi": 81,
          "time": 1662.5,
          "velocity": 1,
          "duration": 0.5
        },
        {
          "name": "A5",
          "midi": 81,
          "time": 1663,
          "velocity": 1,
          "duration": 0.5
        },
        {
          "name": "A5",
          "midi": 81,
          "time": 1663.5,
          "velocity": 1,
          "duration": 0.5
        },
        {
          "name": "A5",
          "midi": 81,
          "time": 1664,
          "velocity": 1,
          "duration": 0.5
        },
        {
          "name": "A5",
          "midi": 81,
          "time": 1664.5,
          "velocity": 1,
          "duration": 0.5
        },
        {
          "name": "A5",
          "midi": 81,
          "time": 1665,
          "velocity": 1,
          "duration": 0.5
        },
        {
          "name": "A5",
          "midi": 81,
          "time": 1665.5,
          "velocity": 1,
          "duration": 0.5
        },
        {
          "name": "A5",
          "midi": 81,
          "time": 1666,
          "velocity": 1,
          "duration": 0.5
        },
        {
          "name": "A5",
          "midi": 81,
          "time": 1666.5,
          "velocity": 1,
          "duration": 0.5
        },
        {
          "name": "A5",
          "midi": 81,
          "time": 1667,
          "velocity": 1,
          "duration": 0.5
        },
        {
          "name": "A5",
          "midi": 81,
          "time": 1667.5,
          "velocity": 1,
          "duration": 0.5
        },
        {
          "name": "A5",
          "midi": 81,
          "time": 1668,
          "velocity": 1,
          "duration": 0.5
        },
        {
          "name": "A5",
          "midi": 81,
          "time": 1668.5,
          "velocity": 1,
          "duration": 0.5
        },
        {
          "name": "A5",
          "midi": 81,
          "time": 1669,
          "velocity": 1,
          "duration": 0.5
        },
        {
          "name": "A5",
          "midi": 81,
          "time": 1669.5,
          "velocity": 1,
          "duration": 0.5
        },
        {
          "name": "A5",
          "midi": 81,
          "time": 1670,
          "velocity": 1,
          "duration": 0.5
        },
        {
          "name": "A5",
          "midi": 81,
          "time": 1670.5,
          "velocity": 1,
          "duration": 0.5
        },
        {
          "name": "A5",
          "midi": 81,
          "time": 1671,
          "velocity": 1,
          "duration": 0.5
        },
        {
          "name": "A5",
          "midi": 81,
          "time": 1671.5,
          "velocity": 1,
          "duration": 0.5
        },
        {
          "name": "A5",
          "midi": 81,
          "time": 1672,
          "velocity": 1,
          "duration": 0.5
        },
        {
          "name": "A5",
          "midi": 81,
          "time": 1672.5,
          "velocity": 1,
          "duration": 0.5
        },
        {
          "name": "A5",
          "midi": 81,
          "time": 1673,
          "velocity": 1,
          "duration": 0.5
        },
        {
          "name": "A5",
          "midi": 81,
          "time": 1673.5,
          "velocity": 1,
          "duration": 0.5
        },
        {
          "name": "A5",
          "midi": 81,
          "time": 1674,
          "velocity": 1,
          "duration": 0.5
        },
        {
          "name": "A5",
          "midi": 81,
          "time": 1674.5,
          "velocity": 1,
          "duration": 0.5
        },
        {
          "name": "A5",
          "midi": 81,
          "time": 1675,
          "velocity": 1,
          "duration": 0.5
        },
        {
          "name": "A5",
          "midi": 81,
          "time": 1675.5,
          "velocity": 1,
          "duration": 0.5
        },
        {
          "name": "A5",
          "midi": 81,
          "time": 1676,
          "velocity": 1,
          "duration": 0.5
        },
        {
          "name": "A5",
          "midi": 81,
          "time": 1676.5,
          "velocity": 1,
          "duration": 0.5
        },
        {
          "name": "A5",
          "midi": 81,
          "time": 1677,
          "velocity": 1,
          "duration": 0.5
        },
        {
          "name": "A5",
          "midi": 81,
          "time": 1677.5,
          "velocity": 1,
          "duration": 0.5
        },
        {
          "name": "A5",
          "midi": 81,
          "time": 1678,
          "velocity": 1,
          "duration": 0.5
        },
        {
          "name": "A5",
          "midi": 81,
          "time": 1678.5,
          "velocity": 1,
          "duration": 0.5
        },
        {
          "name": "A5",
          "midi": 81,
          "time": 1679,
          "velocity": 1,
          "duration": 0.5
        },
        {
          "name": "A5",
          "midi": 81,
          "time": 1679.5,
          "velocity": 1,
          "duration": 0.5
        },
        {
          "name": "A5",
          "midi": 81,
          "time": 1680,
          "velocity": 1,
          "duration": 0.5
        },
        {
          "name": "A5",
          "midi": 81,
          "time": 1680.5,
          "velocity": 1,
          "duration": 0.5
        },
        {
          "name": "A5",
          "midi": 81,
          "time": 1681,
          "velocity": 1,
          "duration": 0.5
        },
        {
          "name": "A5",
          "midi": 81,
          "time": 1681.5,
          "velocity": 1,
          "duration": 0.5
        },
        {
          "name": "A5",
          "midi": 81,
          "time": 1682,
          "velocity": 1,
          "duration": 0.5
        },
        {
          "name": "A5",
          "midi": 81,
          "time": 1682.5,
          "velocity": 1,
          "duration": 0.5
        },
        {
          "name": "A5",
          "midi": 81,
          "time": 1683,
          "velocity": 1,
          "duration": 0.5
        },
        {
          "name": "A5",
          "midi": 81,
          "time": 1683.5,
          "velocity": 1,
          "duration": 0.5
        },
        {
          "name": "A5",
          "midi": 81,
          "time": 1684,
          "velocity": 1,
          "duration": 0.5
        },
        {
          "name": "A5",
          "midi": 81,
          "time": 1684.5,
          "velocity": 1,
          "duration": 0.5
        },
        {
          "name": "A5",
          "midi": 81,
          "time": 1685,
          "velocity": 1,
          "duration": 0.5
        },
        {
          "name": "A5",
          "midi": 81,
          "time": 1685.5,
          "velocity": 1,
          "duration": 0.5
        },
        {
          "name": "A5",
          "midi": 81,
          "time": 1686,
          "velocity": 1,
          "duration": 0.5
        },
        {
          "name": "A5",
          "midi": 81,
          "time": 1686.5,
          "velocity": 1,
          "duration": 0.5
        },
        {
          "name": "A5",
          "midi": 81,
          "time": 1687,
          "velocity": 1,
          "duration": 0.5
        },
        {
          "name": "A5",
          "midi": 81,
          "time": 1687.5,
          "velocity": 1,
          "duration": 0.5
        },
        {
          "name": "A5",
          "midi": 81,
          "time": 1688,
          "velocity": 1,
          "duration": 0.5
        },
        {
          "name": "A5",
          "midi": 81,
          "time": 1688.5,
          "velocity": 1,
          "duration": 0.5
        },
        {
          "name": "A5",
          "midi": 81,
          "time": 1689,
          "velocity": 1,
          "duration": 0.5
        },
        {
          "name": "A5",
          "midi": 81,
          "time": 1689.5,
          "velocity": 1,
          "duration": 0.5
        },
        {
          "name": "A5",
          "midi": 81,
          "time": 1690,
          "velocity": 1,
          "duration": 0.5
        },
        {
          "name": "A5",
          "midi": 81,
          "time": 1690.5,
          "velocity": 1,
          "duration": 0.5
        },
        {
          "name": "A5",
          "midi": 81,
          "time": 1691,
          "velocity": 1,
          "duration": 0.5
        },
        {
          "name": "A5",
          "midi": 81,
          "time": 1691.5,
          "velocity": 1,
          "duration": 0.5
        },
        {
          "name": "A5",
          "midi": 81,
          "time": 1692,
          "velocity": 1,
          "duration": 0.5
        },
        {
          "name": "A5",
          "midi": 81,
          "time": 1692.5,
          "velocity": 1,
          "duration": 0.5
        },
        {
          "name": "A5",
          "midi": 81,
          "time": 1693,
          "velocity": 1,
          "duration": 0.5
        },
        {
          "name": "A5",
          "midi": 81,
          "time": 1693.5,
          "velocity": 1,
          "duration": 0.5
        },
        {
          "name": "A5",
          "midi": 81,
          "time": 1694,
          "velocity": 1,
          "duration": 0.5
        },
        {
          "name": "A5",
          "midi": 81,
          "time": 1694.5,
          "velocity": 1,
          "duration": 0.5
        },
        {
          "name": "A5",
          "midi": 81,
          "time": 1695,
          "velocity": 1,
          "duration": 0.5
        },
        {
          "name": "A5",
          "midi": 81,
          "time": 1695.5,
          "velocity": 1,
          "duration": 0.5
        },
        {
          "name": "A5",
          "midi": 81,
          "time": 1696,
          "velocity": 1,
          "duration": 0.5
        },
        {
          "name": "A5",
          "midi": 81,
          "time": 1696.5,
          "velocity": 1,
          "duration": 0.5
        },
        {
          "name": "A5",
          "midi": 81,
          "time": 1697,
          "velocity": 1,
          "duration": 0.5
        },
        {
          "name": "A5",
          "midi": 81,
          "time": 1697.5,
          "velocity": 1,
          "duration": 0.5
        },
        {
          "name": "A5",
          "midi": 81,
          "time": 1698,
          "velocity": 1,
          "duration": 0.5
        },
        {
          "name": "A5",
          "midi": 81,
          "time": 1698.5,
          "velocity": 1,
          "duration": 0.5
        },
        {
          "name": "A5",
          "midi": 81,
          "time": 1699,
          "velocity": 1,
          "duration": 0.5
        },
        {
          "name": "A5",
          "midi": 81,
          "time": 1699.5,
          "velocity": 1,
          "duration": 0.5
        },
        {
          "name": "A5",
          "midi": 81,
          "time": 1700,
          "velocity": 1,
          "duration": 0.5
        },
        {
          "name": "A5",
          "midi": 81,
          "time": 1700.5,
          "velocity": 1,
          "duration": 0.5
        },
        {
          "name": "A5",
          "midi": 81,
          "time": 1701,
          "velocity": 1,
          "duration": 0.5
        },
        {
          "name": "A5",
          "midi": 81,
          "time": 1701.5,
          "velocity": 1,
          "duration": 0.5
        },
        {
          "name": "A5",
          "midi": 81,
          "time": 1702,
          "velocity": 1,
          "duration": 0.5
        },
        {
          "name": "A5",
          "midi": 81,
          "time": 1702.5,
          "velocity": 1,
          "duration": 0.5
        },
        {
          "name": "A5",
          "midi": 81,
          "time": 1703,
          "velocity": 1,
          "duration": 0.5
        },
        {
          "name": "A5",
          "midi": 81,
          "time": 1703.5,
          "velocity": 1,
          "duration": 0.5
        },
        {
          "name": "A5",
          "midi": 81,
          "time": 1704,
          "velocity": 1,
          "duration": 0.5
        },
        {
          "name": "A5",
          "midi": 81,
          "time": 1704.5,
          "velocity": 1,
          "duration": 0.5
        },
        {
          "name": "A5",
          "midi": 81,
          "time": 1705,
          "velocity": 1,
          "duration": 0.5
        },
        {
          "name": "A5",
          "midi": 81,
          "time": 1705.5,
          "velocity": 1,
          "duration": 0.5
        },
        {
          "name": "A5",
          "midi": 81,
          "time": 1706,
          "velocity": 1,
          "duration": 0.5
        },
        {
          "name": "A5",
          "midi": 81,
          "time": 1706.5,
          "velocity": 1,
          "duration": 0.5
        },
        {
          "name": "A5",
          "midi": 81,
          "time": 1707,
          "velocity": 1,
          "duration": 0.5
        },
        {
          "name": "A5",
          "midi": 81,
          "time": 1707.5,
          "velocity": 1,
          "duration": 0.5
        },
        {
          "name": "A5",
          "midi": 81,
          "time": 1708,
          "velocity": 1,
          "duration": 0.5
        },
        {
          "name": "A5",
          "midi": 81,
          "time": 1708.5,
          "velocity": 1,
          "duration": 0.5
        },
        {
          "name": "A5",
          "midi": 81,
          "time": 1709,
          "velocity": 1,
          "duration": 0.5
        },
        {
          "name": "A5",
          "midi": 81,
          "time": 1709.5,
          "velocity": 1,
          "duration": 0.5
        },
        {
          "name": "A5",
          "midi": 81,
          "time": 1710,
          "velocity": 1,
          "duration": 0.5
        },
        {
          "name": "A5",
          "midi": 81,
          "time": 1710.5,
          "velocity": 1,
          "duration": 0.5
        },
        {
          "name": "A5",
          "midi": 81,
          "time": 1711,
          "velocity": 1,
          "duration": 0.5
        },
        {
          "name": "A5",
          "midi": 81,
          "time": 1711.5,
          "velocity": 1,
          "duration": 0.5
        },
        {
          "name": "A5",
          "midi": 81,
          "time": 1712,
          "velocity": 1,
          "duration": 0.5
        },
        {
          "name": "A5",
          "midi": 81,
          "time": 1712.5,
          "velocity": 1,
          "duration": 0.5
        },
        {
          "name": "A5",
          "midi": 81,
          "time": 1713,
          "velocity": 1,
          "duration": 0.5
        },
        {
          "name": "A5",
          "midi": 81,
          "time": 1713.5,
          "velocity": 1,
          "duration": 0.5
        },
        {
          "name": "A5",
          "midi": 81,
          "time": 1714,
          "velocity": 1,
          "duration": 0.5
        },
        {
          "name": "A5",
          "midi": 81,
          "time": 1714.5,
          "velocity": 1,
          "duration": 0.5
        },
        {
          "name": "A5",
          "midi": 81,
          "time": 1715,
          "velocity": 1,
          "duration": 0.5
        },
        {
          "name": "A5",
          "midi": 81,
          "time": 1715.5,
          "velocity": 1,
          "duration": 0.5
        },
        {
          "name": "A5",
          "midi": 81,
          "time": 1716,
          "velocity": 1,
          "duration": 0.5
        },
        {
          "name": "A5",
          "midi": 81,
          "time": 1716.5,
          "velocity": 1,
          "duration": 0.5
        },
        {
          "name": "A5",
          "midi": 81,
          "time": 1717,
          "velocity": 1,
          "duration": 0.5
        },
        {
          "name": "A5",
          "midi": 81,
          "time": 1717.5,
          "velocity": 1,
          "duration": 0.5
        },
        {
          "name": "A5",
          "midi": 81,
          "time": 1718,
          "velocity": 1,
          "duration": 0.5
        },
        {
          "name": "A5",
          "midi": 81,
          "time": 1718.5,
          "velocity": 1,
          "duration": 0.5
        },
        {
          "name": "A5",
          "midi": 81,
          "time": 1719,
          "velocity": 1,
          "duration": 0.5
        },
        {
          "name": "A5",
          "midi": 81,
          "time": 1719.5,
          "velocity": 1,
          "duration": 0.5
        },
        {
          "name": "A5",
          "midi": 81,
          "time": 1720,
          "velocity": 1,
          "duration": 0.5
        },
        {
          "name": "A5",
          "midi": 81,
          "time": 1720.5,
          "velocity": 1,
          "duration": 0.5
        },
        {
          "name": "A5",
          "midi": 81,
          "time": 1721,
          "velocity": 1,
          "duration": 0.5
        },
        {
          "name": "A5",
          "midi": 81,
          "time": 1721.5,
          "velocity": 1,
          "duration": 0.5
        },
        {
          "name": "A5",
          "midi": 81,
          "time": 1722,
          "velocity": 1,
          "duration": 0.5
        },
        {
          "name": "A5",
          "midi": 81,
          "time": 1722.5,
          "velocity": 1,
          "duration": 0.5
        },
        {
          "name": "A5",
          "midi": 81,
          "time": 1723,
          "velocity": 1,
          "duration": 0.5
        },
        {
          "name": "A5",
          "midi": 81,
          "time": 1723.5,
          "velocity": 1,
          "duration": 0.5
        },
        {
          "name": "A5",
          "midi": 81,
          "time": 1724,
          "velocity": 1,
          "duration": 0.5
        },
        {
          "name": "A5",
          "midi": 81,
          "time": 1724.5,
          "velocity": 1,
          "duration": 0.5
        },
        {
          "name": "A5",
          "midi": 81,
          "time": 1725,
          "velocity": 1,
          "duration": 0.5
        },
        {
          "name": "A5",
          "midi": 81,
          "time": 1725.5,
          "velocity": 1,
          "duration": 0.5
        },
        {
          "name": "A5",
          "midi": 81,
          "time": 1726,
          "velocity": 1,
          "duration": 0.5
        },
        {
          "name": "A5",
          "midi": 81,
          "time": 1726.5,
          "velocity": 1,
          "duration": 0.5
        },
        {
          "name": "A5",
          "midi": 81,
          "time": 1727,
          "velocity": 1,
          "duration": 0.5
        },
        {
          "name": "A5",
          "midi": 81,
          "time": 1727.5,
          "velocity": 1,
          "duration": 0.5
        },
        {
          "name": "A5",
          "midi": 81,
          "time": 1728,
          "velocity": 1,
          "duration": 0.5
        },
        {
          "name": "A5",
          "midi": 81,
          "time": 1728.5,
          "velocity": 1,
          "duration": 0.5
        },
        {
          "name": "A5",
          "midi": 81,
          "time": 1729,
          "velocity": 1,
          "duration": 0.5
        },
        {
          "name": "A5",
          "midi": 81,
          "time": 1729.5,
          "velocity": 1,
          "duration": 0.5
        },
        {
          "name": "A5",
          "midi": 81,
          "time": 1730,
          "velocity": 1,
          "duration": 0.5
        },
        {
          "name": "A5",
          "midi": 81,
          "time": 1730.5,
          "velocity": 1,
          "duration": 0.5
        },
        {
          "name": "A5",
          "midi": 81,
          "time": 1731,
          "velocity": 1,
          "duration": 0.5
        },
        {
          "name": "A5",
          "midi": 81,
          "time": 1731.5,
          "velocity": 1,
          "duration": 0.5
        },
        {
          "name": "A5",
          "midi": 81,
          "time": 1732,
          "velocity": 1,
          "duration": 0.5
        },
        {
          "name": "A5",
          "midi": 81,
          "time": 1732.5,
          "velocity": 1,
          "duration": 0.5
        },
        {
          "name": "A5",
          "midi": 81,
          "time": 1733,
          "velocity": 1,
          "duration": 0.5
        },
        {
          "name": "A5",
          "midi": 81,
          "time": 1733.5,
          "velocity": 1,
          "duration": 0.5
        },
        {
          "name": "A5",
          "midi": 81,
          "time": 1734,
          "velocity": 1,
          "duration": 0.5
        },
        {
          "name": "A5",
          "midi": 81,
          "time": 1734.5,
          "velocity": 1,
          "duration": 0.5
        },
        {
          "name": "A5",
          "midi": 81,
          "time": 1735,
          "velocity": 1,
          "duration": 0.5
        },
        {
          "name": "A5",
          "midi": 81,
          "time": 1735.5,
          "velocity": 1,
          "duration": 0.5
        },
        {
          "name": "A5",
          "midi": 81,
          "time": 1736,
          "velocity": 1,
          "duration": 0.5
        },
        {
          "name": "A5",
          "midi": 81,
          "time": 1736.5,
          "velocity": 1,
          "duration": 0.5
        },
        {
          "name": "A5",
          "midi": 81,
          "time": 1737,
          "velocity": 1,
          "duration": 0.5
        },
        {
          "name": "A5",
          "midi": 81,
          "time": 1737.5,
          "velocity": 1,
          "duration": 0.5
        },
        {
          "name": "A5",
          "midi": 81,
          "time": 1738,
          "velocity": 1,
          "duration": 0.5
        },
        {
          "name": "A5",
          "midi": 81,
          "time": 1738.5,
          "velocity": 1,
          "duration": 0.5
        },
        {
          "name": "A5",
          "midi": 81,
          "time": 1739,
          "velocity": 1,
          "duration": 0.5
        },
        {
          "name": "A5",
          "midi": 81,
          "time": 1739.5,
          "velocity": 1,
          "duration": 0.5
        },
        {
          "name": "A5",
          "midi": 81,
          "time": 1740,
          "velocity": 1,
          "duration": 0.5
        },
        {
          "name": "A5",
          "midi": 81,
          "time": 1740.5,
          "velocity": 1,
          "duration": 0.5
        },
        {
          "name": "A5",
          "midi": 81,
          "time": 1741,
          "velocity": 1,
          "duration": 0.5
        },
        {
          "name": "A5",
          "midi": 81,
          "time": 1741.5,
          "velocity": 1,
          "duration": 0.5
        },
        {
          "name": "A5",
          "midi": 81,
          "time": 1742,
          "velocity": 1,
          "duration": 0.5
        },
        {
          "name": "A5",
          "midi": 81,
          "time": 1742.5,
          "velocity": 1,
          "duration": 0.5
        },
        {
          "name": "A5",
          "midi": 81,
          "time": 1743,
          "velocity": 1,
          "duration": 0.5
        },
        {
          "name": "A5",
          "midi": 81,
          "time": 1743.5,
          "velocity": 1,
          "duration": 0.5
        },
        {
          "name": "A5",
          "midi": 81,
          "time": 1744,
          "velocity": 1,
          "duration": 0.5
        },
        {
          "name": "A5",
          "midi": 81,
          "time": 1744.5,
          "velocity": 1,
          "duration": 0.5
        },
        {
          "name": "A5",
          "midi": 81,
          "time": 1745,
          "velocity": 1,
          "duration": 0.5
        },
        {
          "name": "A5",
          "midi": 81,
          "time": 1745.5,
          "velocity": 1,
          "duration": 0.5
        },
        {
          "name": "A5",
          "midi": 81,
          "time": 1746,
          "velocity": 1,
          "duration": 0.5
        },
        {
          "name": "A5",
          "midi": 81,
          "time": 1746.5,
          "velocity": 1,
          "duration": 0.5
        },
        {
          "name": "A5",
          "midi": 81,
          "time": 1747,
          "velocity": 1,
          "duration": 0.5
        },
        {
          "name": "A5",
          "midi": 81,
          "time": 1747.5,
          "velocity": 1,
          "duration": 0.5
        },
        {
          "name": "A5",
          "midi": 81,
          "time": 1748,
          "velocity": 1,
          "duration": 0.5
        },
        {
          "name": "A5",
          "midi": 81,
          "time": 1748.5,
          "velocity": 1,
          "duration": 0.5
        },
        {
          "name": "A5",
          "midi": 81,
          "time": 1749,
          "velocity": 1,
          "duration": 0.5
        },
        {
          "name": "A5",
          "midi": 81,
          "time": 1749.5,
          "velocity": 1,
          "duration": 0.5
        },
        {
          "name": "A5",
          "midi": 81,
          "time": 1750,
          "velocity": 1,
          "duration": 0.5
        },
        {
          "name": "A5",
          "midi": 81,
          "time": 1750.5,
          "velocity": 1,
          "duration": 0.5
        },
        {
          "name": "A5",
          "midi": 81,
          "time": 1751,
          "velocity": 1,
          "duration": 0.5
        },
        {
          "name": "A5",
          "midi": 81,
          "time": 1751.5,
          "velocity": 1,
          "duration": 0.5
        },
        {
          "name": "A5",
          "midi": 81,
          "time": 1752,
          "velocity": 1,
          "duration": 0.5
        },
        {
          "name": "A5",
          "midi": 81,
          "time": 1752.5,
          "velocity": 1,
          "duration": 0.5
        },
        {
          "name": "A5",
          "midi": 81,
          "time": 1753,
          "velocity": 1,
          "duration": 0.5
        },
        {
          "name": "A5",
          "midi": 81,
          "time": 1753.5,
          "velocity": 1,
          "duration": 0.5
        },
        {
          "name": "A5",
          "midi": 81,
          "time": 1754,
          "velocity": 1,
          "duration": 0.5
        },
        {
          "name": "A5",
          "midi": 81,
          "time": 1754.5,
          "velocity": 1,
          "duration": 0.5
        },
        {
          "name": "A5",
          "midi": 81,
          "time": 1755,
          "velocity": 1,
          "duration": 0.5
        },
        {
          "name": "A5",
          "midi": 81,
          "time": 1755.5,
          "velocity": 1,
          "duration": 0.5
        },
        {
          "name": "A5",
          "midi": 81,
          "time": 1756,
          "velocity": 1,
          "duration": 0.5
        },
        {
          "name": "A5",
          "midi": 81,
          "time": 1756.5,
          "velocity": 1,
          "duration": 0.5
        },
        {
          "name": "A5",
          "midi": 81,
          "time": 1757,
          "velocity": 1,
          "duration": 0.5
        },
        {
          "name": "A5",
          "midi": 81,
          "time": 1757.5,
          "velocity": 1,
          "duration": 0.5
        },
        {
          "name": "A5",
          "midi": 81,
          "time": 1758,
          "velocity": 1,
          "duration": 0.5
        },
        {
          "name": "A5",
          "midi": 81,
          "time": 1758.5,
          "velocity": 1,
          "duration": 0.5
        },
        {
          "name": "A5",
          "midi": 81,
          "time": 1759,
          "velocity": 1,
          "duration": 0.5
        },
        {
          "name": "A5",
          "midi": 81,
          "time": 1759.5,
          "velocity": 1,
          "duration": 0.5
        },
        {
          "name": "A5",
          "midi": 81,
          "time": 1760,
          "velocity": 1,
          "duration": 0.5
        },
        {
          "name": "A5",
          "midi": 81,
          "time": 1760.5,
          "velocity": 1,
          "duration": 0.5
        },
        {
          "name": "A5",
          "midi": 81,
          "time": 1761,
          "velocity": 1,
          "duration": 0.5
        },
        {
          "name": "A5",
          "midi": 81,
          "time": 1761.5,
          "velocity": 1,
          "duration": 0.5
        },
        {
          "name": "A5",
          "midi": 81,
          "time": 1762,
          "velocity": 1,
          "duration": 0.5
        },
        {
          "name": "A5",
          "midi": 81,
          "time": 1762.5,
          "velocity": 1,
          "duration": 0.5
        },
        {
          "name": "A5",
          "midi": 81,
          "time": 1763,
          "velocity": 1,
          "duration": 0.5
        },
        {
          "name": "A5",
          "midi": 81,
          "time": 1763.5,
          "velocity": 1,
          "duration": 0.5
        },
        {
          "name": "A5",
          "midi": 81,
          "time": 1764,
          "velocity": 1,
          "duration": 0.5
        },
        {
          "name": "A5",
          "midi": 81,
          "time": 1764.5,
          "velocity": 1,
          "duration": 0.5
        },
        {
          "name": "A5",
          "midi": 81,
          "time": 1765,
          "velocity": 1,
          "duration": 0.5
        },
        {
          "name": "A5",
          "midi": 81,
          "time": 1765.5,
          "velocity": 1,
          "duration": 0.5
        },
        {
          "name": "A5",
          "midi": 81,
          "time": 1766,
          "velocity": 1,
          "duration": 0.5
        },
        {
          "name": "A5",
          "midi": 81,
          "time": 1766.5,
          "velocity": 1,
          "duration": 0.5
        },
        {
          "name": "A5",
          "midi": 81,
          "time": 1767,
          "velocity": 1,
          "duration": 0.5
        },
        {
          "name": "A5",
          "midi": 81,
          "time": 1767.5,
          "velocity": 1,
          "duration": 0.5
        },
        {
          "name": "A5",
          "midi": 81,
          "time": 1768,
          "velocity": 1,
          "duration": 0.5
        },
        {
          "name": "A5",
          "midi": 81,
          "time": 1768.5,
          "velocity": 1,
          "duration": 0.5
        },
        {
          "name": "A5",
          "midi": 81,
          "time": 1769,
          "velocity": 1,
          "duration": 0.5
        },
        {
          "name": "A5",
          "midi": 81,
          "time": 1769.5,
          "velocity": 1,
          "duration": 0.5
        },
        {
          "name": "A5",
          "midi": 81,
          "time": 1770,
          "velocity": 1,
          "duration": 0.5
        },
        {
          "name": "A5",
          "midi": 81,
          "time": 1770.5,
          "velocity": 1,
          "duration": 0.5
        },
        {
          "name": "A5",
          "midi": 81,
          "time": 1771,
          "velocity": 1,
          "duration": 0.5
        },
        {
          "name": "A5",
          "midi": 81,
          "time": 1771.5,
          "velocity": 1,
          "duration": 0.5
        },
        {
          "name": "A5",
          "midi": 81,
          "time": 1772,
          "velocity": 1,
          "duration": 0.5
        },
        {
          "name": "A5",
          "midi": 81,
          "time": 1772.5,
          "velocity": 1,
          "duration": 0.5
        },
        {
          "name": "A5",
          "midi": 81,
          "time": 1773,
          "velocity": 1,
          "duration": 0.5
        },
        {
          "name": "A5",
          "midi": 81,
          "time": 1773.5,
          "velocity": 1,
          "duration": 0.5
        },
        {
          "name": "A5",
          "midi": 81,
          "time": 1774,
          "velocity": 1,
          "duration": 0.5
        },
        {
          "name": "A5",
          "midi": 81,
          "time": 1774.5,
          "velocity": 1,
          "duration": 0.5
        },
        {
          "name": "A5",
          "midi": 81,
          "time": 1775,
          "velocity": 1,
          "duration": 0.5
        },
        {
          "name": "A5",
          "midi": 81,
          "time": 1775.5,
          "velocity": 1,
          "duration": 0.5
        },
        {
          "name": "A5",
          "midi": 81,
          "time": 1776,
          "velocity": 1,
          "duration": 0.5
        },
        {
          "name": "A5",
          "midi": 81,
          "time": 1776.5,
          "velocity": 1,
          "duration": 0.5
        },
        {
          "name": "A5",
          "midi": 81,
          "time": 1777,
          "velocity": 1,
          "duration": 0.5
        },
        {
          "name": "A5",
          "midi": 81,
          "time": 1777.5,
          "velocity": 1,
          "duration": 0.5
        },
        {
          "name": "A5",
          "midi": 81,
          "time": 1778,
          "velocity": 1,
          "duration": 0.5
        },
        {
          "name": "A5",
          "midi": 81,
          "time": 1778.5,
          "velocity": 1,
          "duration": 0.5
        },
        {
          "name": "A5",
          "midi": 81,
          "time": 1779,
          "velocity": 1,
          "duration": 0.5
        },
        {
          "name": "A5",
          "midi": 81,
          "time": 1779.5,
          "velocity": 1,
          "duration": 0.5
        },
        {
          "name": "A5",
          "midi": 81,
          "time": 1780,
          "velocity": 1,
          "duration": 0.5
        },
        {
          "name": "A5",
          "midi": 81,
          "time": 1780.5,
          "velocity": 1,
          "duration": 0.5
        },
        {
          "name": "A5",
          "midi": 81,
          "time": 1781,
          "velocity": 1,
          "duration": 0.5
        },
        {
          "name": "A5",
          "midi": 81,
          "time": 1781.5,
          "velocity": 1,
          "duration": 0.5
        },
        {
          "name": "A5",
          "midi": 81,
          "time": 1782,
          "velocity": 1,
          "duration": 0.5
        },
        {
          "name": "A5",
          "midi": 81,
          "time": 1782.5,
          "velocity": 1,
          "duration": 0.5
        },
        {
          "name": "A5",
          "midi": 81,
          "time": 1783,
          "velocity": 1,
          "duration": 0.5
        },
        {
          "name": "A5",
          "midi": 81,
          "time": 1783.5,
          "velocity": 1,
          "duration": 0.5
        },
        {
          "name": "A5",
          "midi": 81,
          "time": 1784,
          "velocity": 1,
          "duration": 0.5
        },
        {
          "name": "A5",
          "midi": 81,
          "time": 1784.5,
          "velocity": 1,
          "duration": 0.5
        },
        {
          "name": "A5",
          "midi": 81,
          "time": 1785,
          "velocity": 1,
          "duration": 0.5
        },
        {
          "name": "A5",
          "midi": 81,
          "time": 1785.5,
          "velocity": 1,
          "duration": 0.5
        },
        {
          "name": "A5",
          "midi": 81,
          "time": 1786,
          "velocity": 1,
          "duration": 0.5
        },
        {
          "name": "A5",
          "midi": 81,
          "time": 1786.5,
          "velocity": 1,
          "duration": 0.5
        },
        {
          "name": "A5",
          "midi": 81,
          "time": 1787,
          "velocity": 1,
          "duration": 0.5
        },
        {
          "name": "A5",
          "midi": 81,
          "time": 1787.5,
          "velocity": 1,
          "duration": 0.5
        },
        {
          "name": "A5",
          "midi": 81,
          "time": 1788,
          "velocity": 1,
          "duration": 0.5
        },
        {
          "name": "A5",
          "midi": 81,
          "time": 1788.5,
          "velocity": 1,
          "duration": 0.5
        },
        {
          "name": "A5",
          "midi": 81,
          "time": 1789,
          "velocity": 1,
          "duration": 0.5
        },
        {
          "name": "A5",
          "midi": 81,
          "time": 1789.5,
          "velocity": 1,
          "duration": 0.5
        },
        {
          "name": "A5",
          "midi": 81,
          "time": 1790,
          "velocity": 1,
          "duration": 0.5
        },
        {
          "name": "A5",
          "midi": 81,
          "time": 1790.5,
          "velocity": 1,
          "duration": 0.5
        },
        {
          "name": "A5",
          "midi": 81,
          "time": 1791,
          "velocity": 1,
          "duration": 0.5
        },
        {
          "name": "A5",
          "midi": 81,
          "time": 1791.5,
          "velocity": 1,
          "duration": 0.5
        },
        {
          "name": "A5",
          "midi": 81,
          "time": 1792,
          "velocity": 1,
          "duration": 0.5
        },
        {
          "name": "A5",
          "midi": 81,
          "time": 1792.5,
          "velocity": 1,
          "duration": 0.5
        },
        {
          "name": "A5",
          "midi": 81,
          "time": 1793,
          "velocity": 1,
          "duration": 0.5
        },
        {
          "name": "A5",
          "midi": 81,
          "time": 1793.5,
          "velocity": 1,
          "duration": 0.5
        },
        {
          "name": "A5",
          "midi": 81,
          "time": 1794,
          "velocity": 1,
          "duration": 0.5
        },
        {
          "name": "A5",
          "midi": 81,
          "time": 1794.5,
          "velocity": 1,
          "duration": 0.5
        },
        {
          "name": "A5",
          "midi": 81,
          "time": 1795,
          "velocity": 1,
          "duration": 0.5
        },
        {
          "name": "A5",
          "midi": 81,
          "time": 1795.5,
          "velocity": 1,
          "duration": 0.5
        },
        {
          "name": "A5",
          "midi": 81,
          "time": 1796,
          "velocity": 1,
          "duration": 0.5
        },
        {
          "name": "A5",
          "midi": 81,
          "time": 1796.5,
          "velocity": 1,
          "duration": 0.5
        },
        {
          "name": "A5",
          "midi": 81,
          "time": 1797,
          "velocity": 1,
          "duration": 0.5
        },
        {
          "name": "A5",
          "midi": 81,
          "time": 1797.5,
          "velocity": 1,
          "duration": 0.5
        },
        {
          "name": "A5",
          "midi": 81,
          "time": 1798,
          "velocity": 1,
          "duration": 0.5
        },
        {
          "name": "A5",
          "midi": 81,
          "time": 1798.5,
          "velocity": 1,
          "duration": 0.5
        },
        {
          "name": "A5",
          "midi": 81,
          "time": 1799,
          "velocity": 1,
          "duration": 0.5
        },
        {
          "name": "A5",
          "midi": 81,
          "time": 1799.5,
          "velocity": 1,
          "duration": 0.5
        },
        {
          "name": "A5",
          "midi": 81,
          "time": 1800,
          "velocity": 1,
          "duration": 0.5
        },
        {
          "name": "A5",
          "midi": 81,
          "time": 1800.5,
          "velocity": 1,
          "duration": 0.5
        },
        {
          "name": "A5",
          "midi": 81,
          "time": 1801,
          "velocity": 1,
          "duration": 0.5
        },
        {
          "name": "A5",
          "midi": 81,
          "time": 1801.5,
          "velocity": 1,
          "duration": 0.5
        },
        {
          "name": "A5",
          "midi": 81,
          "time": 1802,
          "velocity": 1,
          "duration": 0.5
        },
        {
          "name": "A5",
          "midi": 81,
          "time": 1802.5,
          "velocity": 1,
          "duration": 0.5
        },
        {
          "name": "A5",
          "midi": 81,
          "time": 1803,
          "velocity": 1,
          "duration": 0.5
        },
        {
          "name": "A5",
          "midi": 81,
          "time": 1803.5,
          "velocity": 1,
          "duration": 0.5
        },
        {
          "name": "A5",
          "midi": 81,
          "time": 1804,
          "velocity": 1,
          "duration": 0.5
        },
        {
          "name": "A5",
          "midi": 81,
          "time": 1804.5,
          "velocity": 1,
          "duration": 0.5
        },
        {
          "name": "A5",
          "midi": 81,
          "time": 1805,
          "velocity": 1,
          "duration": 0.5
        },
        {
          "name": "A5",
          "midi": 81,
          "time": 1805.5,
          "velocity": 1,
          "duration": 0.5
        },
        {
          "name": "A5",
          "midi": 81,
          "time": 1806,
          "velocity": 1,
          "duration": 0.5
        },
        {
          "name": "A5",
          "midi": 81,
          "time": 1806.5,
          "velocity": 1,
          "duration": 0.5
        },
        {
          "name": "A5",
          "midi": 81,
          "time": 1807,
          "velocity": 1,
          "duration": 0.5
        },
        {
          "name": "A5",
          "midi": 81,
          "time": 1807.5,
          "velocity": 1,
          "duration": 0.5
        },
        {
          "name": "A5",
          "midi": 81,
          "time": 1808,
          "velocity": 1,
          "duration": 0.5
        },
        {
          "name": "A5",
          "midi": 81,
          "time": 1808.5,
          "velocity": 1,
          "duration": 0.5
        },
        {
          "name": "A5",
          "midi": 81,
          "time": 1809,
          "velocity": 1,
          "duration": 0.5
        },
        {
          "name": "A5",
          "midi": 81,
          "time": 1809.5,
          "velocity": 1,
          "duration": 0.5
        },
        {
          "name": "A5",
          "midi": 81,
          "time": 1810,
          "velocity": 1,
          "duration": 0.5
        },
        {
          "name": "A5",
          "midi": 81,
          "time": 1810.5,
          "velocity": 1,
          "duration": 0.5
        },
        {
          "name": "A5",
          "midi": 81,
          "time": 1811,
          "velocity": 1,
          "duration": 0.5
        },
        {
          "name": "A5",
          "midi": 81,
          "time": 1811.5,
          "velocity": 1,
          "duration": 0.5
        },
        {
          "name": "A5",
          "midi": 81,
          "time": 1812,
          "velocity": 1,
          "duration": 0.5
        },
        {
          "name": "A5",
          "midi": 81,
          "time": 1812.5,
          "velocity": 1,
          "duration": 0.5
        },
        {
          "name": "A5",
          "midi": 81,
          "time": 1813,
          "velocity": 1,
          "duration": 0.5
        },
        {
          "name": "A5",
          "midi": 81,
          "time": 1813.5,
          "velocity": 1,
          "duration": 0.5
        },
        {
          "name": "A5",
          "midi": 81,
          "time": 1814,
          "velocity": 1,
          "duration": 0.5
        },
        {
          "name": "A5",
          "midi": 81,
          "time": 1814.5,
          "velocity": 1,
          "duration": 0.5
        },
        {
          "name": "A5",
          "midi": 81,
          "time": 1815,
          "velocity": 1,
          "duration": 0.5
        },
        {
          "name": "A5",
          "midi": 81,
          "time": 1815.5,
          "velocity": 1,
          "duration": 0.5
        },
        {
          "name": "A5",
          "midi": 81,
          "time": 1816,
          "velocity": 1,
          "duration": 0.5
        },
        {
          "name": "A5",
          "midi": 81,
          "time": 1816.5,
          "velocity": 1,
          "duration": 0.5
        },
        {
          "name": "A5",
          "midi": 81,
          "time": 1817,
          "velocity": 1,
          "duration": 0.5
        },
        {
          "name": "A5",
          "midi": 81,
          "time": 1817.5,
          "velocity": 1,
          "duration": 0.5
        },
        {
          "name": "A5",
          "midi": 81,
          "time": 1818,
          "velocity": 1,
          "duration": 0.5
        },
        {
          "name": "A5",
          "midi": 81,
          "time": 1818.5,
          "velocity": 1,
          "duration": 0.5
        },
        {
          "name": "A5",
          "midi": 81,
          "time": 1819,
          "velocity": 1,
          "duration": 0.5
        },
        {
          "name": "A5",
          "midi": 81,
          "time": 1819.5,
          "velocity": 1,
          "duration": 0.5
        },
        {
          "name": "A5",
          "midi": 81,
          "time": 1820,
          "velocity": 1,
          "duration": 0.5
        },
        {
          "name": "A5",
          "midi": 81,
          "time": 1820.5,
          "velocity": 1,
          "duration": 0.5
        },
        {
          "name": "A5",
          "midi": 81,
          "time": 1821,
          "velocity": 1,
          "duration": 0.5
        },
        {
          "name": "A5",
          "midi": 81,
          "time": 1821.5,
          "velocity": 1,
          "duration": 0.5
        },
        {
          "name": "A5",
          "midi": 81,
          "time": 1822,
          "velocity": 1,
          "duration": 0.5
        },
        {
          "name": "A5",
          "midi": 81,
          "time": 1822.5,
          "velocity": 1,
          "duration": 0.5
        },
        {
          "name": "A5",
          "midi": 81,
          "time": 1823,
          "velocity": 1,
          "duration": 0.5
        },
        {
          "name": "A5",
          "midi": 81,
          "time": 1823.5,
          "velocity": 1,
          "duration": 0.5
        },
        {
          "name": "A5",
          "midi": 81,
          "time": 1824,
          "velocity": 1,
          "duration": 0.5
        },
        {
          "name": "A5",
          "midi": 81,
          "time": 1824.5,
          "velocity": 1,
          "duration": 0.5
        },
        {
          "name": "A5",
          "midi": 81,
          "time": 1825,
          "velocity": 1,
          "duration": 0.5
        },
        {
          "name": "A5",
          "midi": 81,
          "time": 1825.5,
          "velocity": 1,
          "duration": 0.5
        },
        {
          "name": "A5",
          "midi": 81,
          "time": 1826,
          "velocity": 1,
          "duration": 0.5
        },
        {
          "name": "A5",
          "midi": 81,
          "time": 1826.5,
          "velocity": 1,
          "duration": 0.5
        },
        {
          "name": "A5",
          "midi": 81,
          "time": 1827,
          "velocity": 1,
          "duration": 0.5
        },
        {
          "name": "A5",
          "midi": 81,
          "time": 1827.5,
          "velocity": 1,
          "duration": 0.5
        },
        {
          "name": "A5",
          "midi": 81,
          "time": 1828,
          "velocity": 1,
          "duration": 0.5
        },
        {
          "name": "A5",
          "midi": 81,
          "time": 1828.5,
          "velocity": 1,
          "duration": 0.5
        },
        {
          "name": "A5",
          "midi": 81,
          "time": 1829,
          "velocity": 1,
          "duration": 0.5
        },
        {
          "name": "A5",
          "midi": 81,
          "time": 1829.5,
          "velocity": 1,
          "duration": 0.5
        },
        {
          "name": "A5",
          "midi": 81,
          "time": 1830,
          "velocity": 1,
          "duration": 0.5
        },
        {
          "name": "A5",
          "midi": 81,
          "time": 1830.5,
          "velocity": 1,
          "duration": 0.5
        },
        {
          "name": "A5",
          "midi": 81,
          "time": 1831,
          "velocity": 1,
          "duration": 0.5
        },
        {
          "name": "A5",
          "midi": 81,
          "time": 1831.5,
          "velocity": 1,
          "duration": 0.5
        },
        {
          "name": "A5",
          "midi": 81,
          "time": 1832,
          "velocity": 1,
          "duration": 0.5
        },
        {
          "name": "A5",
          "midi": 81,
          "time": 1832.5,
          "velocity": 1,
          "duration": 0.5
        },
        {
          "name": "A5",
          "midi": 81,
          "time": 1833,
          "velocity": 1,
          "duration": 0.5
        },
        {
          "name": "A5",
          "midi": 81,
          "time": 1833.5,
          "velocity": 1,
          "duration": 0.5
        },
        {
          "name": "A5",
          "midi": 81,
          "time": 1834,
          "velocity": 1,
          "duration": 0.5
        },
        {
          "name": "A5",
          "midi": 81,
          "time": 1834.5,
          "velocity": 1,
          "duration": 0.5
        },
        {
          "name": "A5",
          "midi": 81,
          "time": 1835,
          "velocity": 1,
          "duration": 0.5
        },
        {
          "name": "A5",
          "midi": 81,
          "time": 1835.5,
          "velocity": 1,
          "duration": 0.5
        },
        {
          "name": "A5",
          "midi": 81,
          "time": 1836,
          "velocity": 1,
          "duration": 0.5
        },
        {
          "name": "A5",
          "midi": 81,
          "time": 1836.5,
          "velocity": 1,
          "duration": 0.5
        },
        {
          "name": "A5",
          "midi": 81,
          "time": 1837,
          "velocity": 1,
          "duration": 0.5
        },
        {
          "name": "A5",
          "midi": 81,
          "time": 1837.5,
          "velocity": 1,
          "duration": 0.5
        },
        {
          "name": "A5",
          "midi": 81,
          "time": 1838,
          "velocity": 1,
          "duration": 0.5
        },
        {
          "name": "A5",
          "midi": 81,
          "time": 1838.5,
          "velocity": 1,
          "duration": 0.5
        },
        {
          "name": "A5",
          "midi": 81,
          "time": 1839,
          "velocity": 1,
          "duration": 0.5
        },
        {
          "name": "A5",
          "midi": 81,
          "time": 1839.5,
          "velocity": 1,
          "duration": 0.5
        },
        {
          "name": "A5",
          "midi": 81,
          "time": 1840,
          "velocity": 1,
          "duration": 0.5
        },
        {
          "name": "A5",
          "midi": 81,
          "time": 1840.5,
          "velocity": 1,
          "duration": 0.5
        },
        {
          "name": "A5",
          "midi": 81,
          "time": 1841,
          "velocity": 1,
          "duration": 0.5
        },
        {
          "name": "A5",
          "midi": 81,
          "time": 1841.5,
          "velocity": 1,
          "duration": 0.5
        },
        {
          "name": "A5",
          "midi": 81,
          "time": 1842,
          "velocity": 1,
          "duration": 0.5
        },
        {
          "name": "A5",
          "midi": 81,
          "time": 1842.5,
          "velocity": 1,
          "duration": 0.5
        },
        {
          "name": "A5",
          "midi": 81,
          "time": 1843,
          "velocity": 1,
          "duration": 0.5
        },
        {
          "name": "A5",
          "midi": 81,
          "time": 1843.5,
          "velocity": 1,
          "duration": 0.5
        },
        {
          "name": "A5",
          "midi": 81,
          "time": 1844,
          "velocity": 1,
          "duration": 0.5
        },
        {
          "name": "A5",
          "midi": 81,
          "time": 1844.5,
          "velocity": 1,
          "duration": 0.5
        },
        {
          "name": "A5",
          "midi": 81,
          "time": 1845,
          "velocity": 1,
          "duration": 0.5
        },
        {
          "name": "A5",
          "midi": 81,
          "time": 1845.5,
          "velocity": 1,
          "duration": 0.5
        },
        {
          "name": "A5",
          "midi": 81,
          "time": 1846,
          "velocity": 1,
          "duration": 0.5
        },
        {
          "name": "A5",
          "midi": 81,
          "time": 1846.5,
          "velocity": 1,
          "duration": 0.5
        },
        {
          "name": "A5",
          "midi": 81,
          "time": 1847,
          "velocity": 1,
          "duration": 0.5
        },
        {
          "name": "A5",
          "midi": 81,
          "time": 1847.5,
          "velocity": 1,
          "duration": 0.5
        },
        {
          "name": "A5",
          "midi": 81,
          "time": 1848,
          "velocity": 1,
          "duration": 0.5
        },
        {
          "name": "A5",
          "midi": 81,
          "time": 1848.5,
          "velocity": 1,
          "duration": 0.5
        },
        {
          "name": "A5",
          "midi": 81,
          "time": 1849,
          "velocity": 1,
          "duration": 0.5
        },
        {
          "name": "A5",
          "midi": 81,
          "time": 1849.5,
          "velocity": 1,
          "duration": 0.5
        },
        {
          "name": "A5",
          "midi": 81,
          "time": 1850,
          "velocity": 1,
          "duration": 0.5
        },
        {
          "name": "A5",
          "midi": 81,
          "time": 1850.5,
          "velocity": 1,
          "duration": 0.5
        },
        {
          "name": "A5",
          "midi": 81,
          "time": 1851,
          "velocity": 1,
          "duration": 0.5
        },
        {
          "name": "A5",
          "midi": 81,
          "time": 1851.5,
          "velocity": 1,
          "duration": 0.5
        },
        {
          "name": "A5",
          "midi": 81,
          "time": 1852,
          "velocity": 1,
          "duration": 0.5
        },
        {
          "name": "A5",
          "midi": 81,
          "time": 1852.5,
          "velocity": 1,
          "duration": 0.5
        },
        {
          "name": "A5",
          "midi": 81,
          "time": 1853,
          "velocity": 1,
          "duration": 0.5
        },
        {
          "name": "A5",
          "midi": 81,
          "time": 1853.5,
          "velocity": 1,
          "duration": 0.5
        },
        {
          "name": "A5",
          "midi": 81,
          "time": 1854,
          "velocity": 1,
          "duration": 0.5
        },
        {
          "name": "A5",
          "midi": 81,
          "time": 1854.5,
          "velocity": 1,
          "duration": 0.5
        },
        {
          "name": "A5",
          "midi": 81,
          "time": 1855,
          "velocity": 1,
          "duration": 0.5
        },
        {
          "name": "A5",
          "midi": 81,
          "time": 1855.5,
          "velocity": 1,
          "duration": 0.5
        },
        {
          "name": "A5",
          "midi": 81,
          "time": 1856,
          "velocity": 1,
          "duration": 0.5
        },
        {
          "name": "A5",
          "midi": 81,
          "time": 1856.5,
          "velocity": 1,
          "duration": 0.5
        },
        {
          "name": "A5",
          "midi": 81,
          "time": 1857,
          "velocity": 1,
          "duration": 0.5
        },
        {
          "name": "A5",
          "midi": 81,
          "time": 1857.5,
          "velocity": 1,
          "duration": 0.5
        },
        {
          "name": "A5",
          "midi": 81,
          "time": 1858,
          "velocity": 1,
          "duration": 0.5
        },
        {
          "name": "A5",
          "midi": 81,
          "time": 1858.5,
          "velocity": 1,
          "duration": 0.5
        },
        {
          "name": "A5",
          "midi": 81,
          "time": 1859,
          "velocity": 1,
          "duration": 0.5
        },
        {
          "name": "A5",
          "midi": 81,
          "time": 1859.5,
          "velocity": 1,
          "duration": 0.5
        },
        {
          "name": "A5",
          "midi": 81,
          "time": 1860,
          "velocity": 1,
          "duration": 0.5
        },
        {
          "name": "A5",
          "midi": 81,
          "time": 1860.5,
          "velocity": 1,
          "duration": 0.5
        },
        {
          "name": "A5",
          "midi": 81,
          "time": 1861,
          "velocity": 1,
          "duration": 0.5
        },
        {
          "name": "A5",
          "midi": 81,
          "time": 1861.5,
          "velocity": 1,
          "duration": 0.5
        },
        {
          "name": "A5",
          "midi": 81,
          "time": 1862,
          "velocity": 1,
          "duration": 0.5
        },
        {
          "name": "A5",
          "midi": 81,
          "time": 1862.5,
          "velocity": 1,
          "duration": 0.5
        },
        {
          "name": "A5",
          "midi": 81,
          "time": 1863,
          "velocity": 1,
          "duration": 0.5
        },
        {
          "name": "A5",
          "midi": 81,
          "time": 1863.5,
          "velocity": 1,
          "duration": 0.5
        },
        {
          "name": "A5",
          "midi": 81,
          "time": 1864,
          "velocity": 1,
          "duration": 0.5
        },
        {
          "name": "A5",
          "midi": 81,
          "time": 1864.5,
          "velocity": 1,
          "duration": 0.5
        },
        {
          "name": "A5",
          "midi": 81,
          "time": 1865,
          "velocity": 1,
          "duration": 0.5
        },
        {
          "name": "A5",
          "midi": 81,
          "time": 1865.5,
          "velocity": 1,
          "duration": 0.5
        },
        {
          "name": "A5",
          "midi": 81,
          "time": 1866,
          "velocity": 1,
          "duration": 0.5
        },
        {
          "name": "A5",
          "midi": 81,
          "time": 1866.5,
          "velocity": 1,
          "duration": 0.5
        },
        {
          "name": "A5",
          "midi": 81,
          "time": 1867,
          "velocity": 1,
          "duration": 0.5
        },
        {
          "name": "A5",
          "midi": 81,
          "time": 1867.5,
          "velocity": 1,
          "duration": 0.5
        },
        {
          "name": "A5",
          "midi": 81,
          "time": 1868,
          "velocity": 1,
          "duration": 0.5
        },
        {
          "name": "A5",
          "midi": 81,
          "time": 1868.5,
          "velocity": 1,
          "duration": 0.5
        },
        {
          "name": "A5",
          "midi": 81,
          "time": 1869,
          "velocity": 1,
          "duration": 0.5
        },
        {
          "name": "A5",
          "midi": 81,
          "time": 1869.5,
          "velocity": 1,
          "duration": 0.5
        },
        {
          "name": "A5",
          "midi": 81,
          "time": 1870,
          "velocity": 1,
          "duration": 0.5
        },
        {
          "name": "A5",
          "midi": 81,
          "time": 1870.5,
          "velocity": 1,
          "duration": 0.5
        },
        {
          "name": "A5",
          "midi": 81,
          "time": 1871,
          "velocity": 1,
          "duration": 0.5
        },
        {
          "name": "A5",
          "midi": 81,
          "time": 1871.5,
          "velocity": 1,
          "duration": 0.5
        },
        {
          "name": "A5",
          "midi": 81,
          "time": 1872,
          "velocity": 1,
          "duration": 0.5
        },
        {
          "name": "A5",
          "midi": 81,
          "time": 1872.5,
          "velocity": 1,
          "duration": 0.5
        },
        {
          "name": "A5",
          "midi": 81,
          "time": 1873,
          "velocity": 1,
          "duration": 0.5
        },
        {
          "name": "A5",
          "midi": 81,
          "time": 1873.5,
          "velocity": 1,
          "duration": 0.5
        },
        {
          "name": "A5",
          "midi": 81,
          "time": 1874,
          "velocity": 1,
          "duration": 0.5
        },
        {
          "name": "A5",
          "midi": 81,
          "time": 1874.5,
          "velocity": 1,
          "duration": 0.5
        },
        {
          "name": "A5",
          "midi": 81,
          "time": 1875,
          "velocity": 1,
          "duration": 0.5
        },
        {
          "name": "A5",
          "midi": 81,
          "time": 1875.5,
          "velocity": 1,
          "duration": 0.5
        },
        {
          "name": "A5",
          "midi": 81,
          "time": 1876,
          "velocity": 1,
          "duration": 0.5
        },
        {
          "name": "A5",
          "midi": 81,
          "time": 1876.5,
          "velocity": 1,
          "duration": 0.5
        },
        {
          "name": "A5",
          "midi": 81,
          "time": 1877,
          "velocity": 1,
          "duration": 0.5
        },
        {
          "name": "A5",
          "midi": 81,
          "time": 1877.5,
          "velocity": 1,
          "duration": 0.5
        },
        {
          "name": "A5",
          "midi": 81,
          "time": 1878,
          "velocity": 1,
          "duration": 0.5
        },
        {
          "name": "A5",
          "midi": 81,
          "time": 1878.5,
          "velocity": 1,
          "duration": 0.5
        },
        {
          "name": "A5",
          "midi": 81,
          "time": 1879,
          "velocity": 1,
          "duration": 0.5
        },
        {
          "name": "A5",
          "midi": 81,
          "time": 1879.5,
          "velocity": 1,
          "duration": 0.5
        },
        {
          "name": "A5",
          "midi": 81,
          "time": 1880,
          "velocity": 1,
          "duration": 0.5
        },
        {
          "name": "A5",
          "midi": 81,
          "time": 1880.5,
          "velocity": 1,
          "duration": 0.5
        },
        {
          "name": "A5",
          "midi": 81,
          "time": 1881,
          "velocity": 1,
          "duration": 0.5
        },
        {
          "name": "A5",
          "midi": 81,
          "time": 1881.5,
          "velocity": 1,
          "duration": 0.5
        },
        {
          "name": "A5",
          "midi": 81,
          "time": 1882,
          "velocity": 1,
          "duration": 0.5
        },
        {
          "name": "A5",
          "midi": 81,
          "time": 1882.5,
          "velocity": 1,
          "duration": 0.5
        },
        {
          "name": "A5",
          "midi": 81,
          "time": 1883,
          "velocity": 1,
          "duration": 0.5
        },
        {
          "name": "A5",
          "midi": 81,
          "time": 1883.5,
          "velocity": 1,
          "duration": 0.5
        },
        {
          "name": "A5",
          "midi": 81,
          "time": 1884,
          "velocity": 1,
          "duration": 0.5
        },
        {
          "name": "A5",
          "midi": 81,
          "time": 1884.5,
          "velocity": 1,
          "duration": 0.5
        },
        {
          "name": "A5",
          "midi": 81,
          "time": 1885,
          "velocity": 1,
          "duration": 0.5
        },
        {
          "name": "A5",
          "midi": 81,
          "time": 1885.5,
          "velocity": 1,
          "duration": 0.5
        },
        {
          "name": "A5",
          "midi": 81,
          "time": 1886,
          "velocity": 1,
          "duration": 0.5
        },
        {
          "name": "A5",
          "midi": 81,
          "time": 1886.5,
          "velocity": 1,
          "duration": 0.5
        },
        {
          "name": "A5",
          "midi": 81,
          "time": 1887,
          "velocity": 1,
          "duration": 0.5
        },
        {
          "name": "A5",
          "midi": 81,
          "time": 1887.5,
          "velocity": 1,
          "duration": 0.5
        },
        {
          "name": "A5",
          "midi": 81,
          "time": 1888,
          "velocity": 1,
          "duration": 0.5
        },
        {
          "name": "A5",
          "midi": 81,
          "time": 1888.5,
          "velocity": 1,
          "duration": 0.5
        },
        {
          "name": "A5",
          "midi": 81,
          "time": 1889,
          "velocity": 1,
          "duration": 0.5
        },
        {
          "name": "A5",
          "midi": 81,
          "time": 1889.5,
          "velocity": 1,
          "duration": 0.5
        },
        {
          "name": "A5",
          "midi": 81,
          "time": 1890,
          "velocity": 1,
          "duration": 0.5
        },
        {
          "name": "A5",
          "midi": 81,
          "time": 1890.5,
          "velocity": 1,
          "duration": 0.5
        },
        {
          "name": "A5",
          "midi": 81,
          "time": 1891,
          "velocity": 1,
          "duration": 0.5
        },
        {
          "name": "A5",
          "midi": 81,
          "time": 1891.5,
          "velocity": 1,
          "duration": 0.5
        },
        {
          "name": "A5",
          "midi": 81,
          "time": 1892,
          "velocity": 1,
          "duration": 0.5
        },
        {
          "name": "A5",
          "midi": 81,
          "time": 1892.5,
          "velocity": 1,
          "duration": 0.5
        },
        {
          "name": "A5",
          "midi": 81,
          "time": 1893,
          "velocity": 1,
          "duration": 0.5
        },
        {
          "name": "A5",
          "midi": 81,
          "time": 1893.5,
          "velocity": 1,
          "duration": 0.5
        },
        {
          "name": "A5",
          "midi": 81,
          "time": 1894,
          "velocity": 1,
          "duration": 0.5
        },
        {
          "name": "A5",
          "midi": 81,
          "time": 1894.5,
          "velocity": 1,
          "duration": 0.5
        },
        {
          "name": "A5",
          "midi": 81,
          "time": 1895,
          "velocity": 1,
          "duration": 0.5
        },
        {
          "name": "A5",
          "midi": 81,
          "time": 1895.5,
          "velocity": 1,
          "duration": 0.5
        },
        {
          "name": "A5",
          "midi": 81,
          "time": 1896,
          "velocity": 1,
          "duration": 0.5
        },
        {
          "name": "A5",
          "midi": 81,
          "time": 1896.5,
          "velocity": 1,
          "duration": 0.5
        },
        {
          "name": "A5",
          "midi": 81,
          "time": 1897,
          "velocity": 1,
          "duration": 0.5
        },
        {
          "name": "A5",
          "midi": 81,
          "time": 1897.5,
          "velocity": 1,
          "duration": 0.5
        },
        {
          "name": "A5",
          "midi": 81,
          "time": 1898,
          "velocity": 1,
          "duration": 0.5
        },
        {
          "name": "A5",
          "midi": 81,
          "time": 1898.5,
          "velocity": 1,
          "duration": 0.5
        },
        {
          "name": "A5",
          "midi": 81,
          "time": 1899,
          "velocity": 1,
          "duration": 0.5
        },
        {
          "name": "A5",
          "midi": 81,
          "time": 1899.5,
          "velocity": 1,
          "duration": 0.5
        },
        {
          "name": "A5",
          "midi": 81,
          "time": 1900,
          "velocity": 1,
          "duration": 0.5
        },
        {
          "name": "A5",
          "midi": 81,
          "time": 1900.5,
          "velocity": 1,
          "duration": 0.5
        },
        {
          "name": "A5",
          "midi": 81,
          "time": 1901,
          "velocity": 1,
          "duration": 0.5
        },
        {
          "name": "A5",
          "midi": 81,
          "time": 1901.5,
          "velocity": 1,
          "duration": 0.5
        },
        {
          "name": "A5",
          "midi": 81,
          "time": 1902,
          "velocity": 1,
          "duration": 0.5
        },
        {
          "name": "A5",
          "midi": 81,
          "time": 1902.5,
          "velocity": 1,
          "duration": 0.5
        },
        {
          "name": "A5",
          "midi": 81,
          "time": 1903,
          "velocity": 1,
          "duration": 0.5
        },
        {
          "name": "A5",
          "midi": 81,
          "time": 1903.5,
          "velocity": 1,
          "duration": 0.5
        },
        {
          "name": "A5",
          "midi": 81,
          "time": 1904,
          "velocity": 1,
          "duration": 0.5
        },
        {
          "name": "A5",
          "midi": 81,
          "time": 1904.5,
          "velocity": 1,
          "duration": 0.5
        },
        {
          "name": "A5",
          "midi": 81,
          "time": 1905,
          "velocity": 1,
          "duration": 0.5
        },
        {
          "name": "A5",
          "midi": 81,
          "time": 1905.5,
          "velocity": 1,
          "duration": 0.5
        },
        {
          "name": "A5",
          "midi": 81,
          "time": 1906,
          "velocity": 1,
          "duration": 0.5
        },
        {
          "name": "A5",
          "midi": 81,
          "time": 1906.5,
          "velocity": 1,
          "duration": 0.5
        },
        {
          "name": "A5",
          "midi": 81,
          "time": 1907,
          "velocity": 1,
          "duration": 0.5
        },
        {
          "name": "A5",
          "midi": 81,
          "time": 1907.5,
          "velocity": 1,
          "duration": 0.5
        },
        {
          "name": "A5",
          "midi": 81,
          "time": 1908,
          "velocity": 1,
          "duration": 0.5
        },
        {
          "name": "A5",
          "midi": 81,
          "time": 1908.5,
          "velocity": 1,
          "duration": 0.5
        },
        {
          "name": "A5",
          "midi": 81,
          "time": 1909,
          "velocity": 1,
          "duration": 0.5
        },
        {
          "name": "A5",
          "midi": 81,
          "time": 1909.5,
          "velocity": 1,
          "duration": 0.5
        },
        {
          "name": "A5",
          "midi": 81,
          "time": 1910,
          "velocity": 1,
          "duration": 0.5
        },
        {
          "name": "A5",
          "midi": 81,
          "time": 1910.5,
          "velocity": 1,
          "duration": 0.5
        },
        {
          "name": "A5",
          "midi": 81,
          "time": 1911,
          "velocity": 1,
          "duration": 0.5
        },
        {
          "name": "A5",
          "midi": 81,
          "time": 1911.5,
          "velocity": 1,
          "duration": 0.5
        },
        {
          "name": "A5",
          "midi": 81,
          "time": 1912,
          "velocity": 1,
          "duration": 0.5
        },
        {
          "name": "A5",
          "midi": 81,
          "time": 1912.5,
          "velocity": 1,
          "duration": 0.5
        },
        {
          "name": "A5",
          "midi": 81,
          "time": 1913,
          "velocity": 1,
          "duration": 0.5
        },
        {
          "name": "A5",
          "midi": 81,
          "time": 1913.5,
          "velocity": 1,
          "duration": 0.5
        },
        {
          "name": "A5",
          "midi": 81,
          "time": 1914,
          "velocity": 1,
          "duration": 0.5
        },
        {
          "name": "A5",
          "midi": 81,
          "time": 1914.5,
          "velocity": 1,
          "duration": 0.5
        },
        {
          "name": "A5",
          "midi": 81,
          "time": 1915,
          "velocity": 1,
          "duration": 0.5
        },
        {
          "name": "A5",
          "midi": 81,
          "time": 1915.5,
          "velocity": 1,
          "duration": 0.5
        },
        {
          "name": "A5",
          "midi": 81,
          "time": 1916,
          "velocity": 1,
          "duration": 0.5
        },
        {
          "name": "A5",
          "midi": 81,
          "time": 1916.5,
          "velocity": 1,
          "duration": 0.5
        },
        {
          "name": "A5",
          "midi": 81,
          "time": 1917,
          "velocity": 1,
          "duration": 0.5
        },
        {
          "name": "A5",
          "midi": 81,
          "time": 1917.5,
          "velocity": 1,
          "duration": 0.5
        },
        {
          "name": "A5",
          "midi": 81,
          "time": 1918,
          "velocity": 1,
          "duration": 0.5
        },
        {
          "name": "A5",
          "midi": 81,
          "time": 1918.5,
          "velocity": 1,
          "duration": 0.5
        },
        {
          "name": "A5",
          "midi": 81,
          "time": 1919,
          "velocity": 1,
          "duration": 0.5
        },
        {
          "name": "A5",
          "midi": 81,
          "time": 1919.5,
          "velocity": 1,
          "duration": 0.5
        },
        {
          "name": "A5",
          "midi": 81,
          "time": 1920,
          "velocity": 1,
          "duration": 0.5
        },
        {
          "name": "A5",
          "midi": 81,
          "time": 1920.5,
          "velocity": 1,
          "duration": 0.5
        },
        {
          "name": "A5",
          "midi": 81,
          "time": 1921,
          "velocity": 1,
          "duration": 0.5
        },
        {
          "name": "A5",
          "midi": 81,
          "time": 1921.5,
          "velocity": 1,
          "duration": 0.5
        },
        {
          "name": "A5",
          "midi": 81,
          "time": 1922,
          "velocity": 1,
          "duration": 0.5
        },
        {
          "name": "A5",
          "midi": 81,
          "time": 1922.5,
          "velocity": 1,
          "duration": 0.5
        },
        {
          "name": "A5",
          "midi": 81,
          "time": 1923,
          "velocity": 1,
          "duration": 0.5
        },
        {
          "name": "A5",
          "midi": 81,
          "time": 1923.5,
          "velocity": 1,
          "duration": 0.5
        },
        {
          "name": "A5",
          "midi": 81,
          "time": 1924,
          "velocity": 1,
          "duration": 0.5
        },
        {
          "name": "A5",
          "midi": 81,
          "time": 1924.5,
          "velocity": 1,
          "duration": 0.5
        },
        {
          "name": "A5",
          "midi": 81,
          "time": 1925,
          "velocity": 1,
          "duration": 0.5
        },
        {
          "name": "A5",
          "midi": 81,
          "time": 1925.5,
          "velocity": 1,
          "duration": 0.5
        },
        {
          "name": "A5",
          "midi": 81,
          "time": 1926,
          "velocity": 1,
          "duration": 0.5
        },
        {
          "name": "A5",
          "midi": 81,
          "time": 1926.5,
          "velocity": 1,
          "duration": 0.5
        },
        {
          "name": "A5",
          "midi": 81,
          "time": 1927,
          "velocity": 1,
          "duration": 0.5
        },
        {
          "name": "A5",
          "midi": 81,
          "time": 1927.5,
          "velocity": 1,
          "duration": 0.5
        },
        {
          "name": "A5",
          "midi": 81,
          "time": 1928,
          "velocity": 1,
          "duration": 0.5
        },
        {
          "name": "A5",
          "midi": 81,
          "time": 1928.5,
          "velocity": 1,
          "duration": 0.5
        },
        {
          "name": "A5",
          "midi": 81,
          "time": 1929,
          "velocity": 1,
          "duration": 0.5
        },
        {
          "name": "A5",
          "midi": 81,
          "time": 1929.5,
          "velocity": 1,
          "duration": 0.5
        },
        {
          "name": "A5",
          "midi": 81,
          "time": 1930,
          "velocity": 1,
          "duration": 0.5
        },
        {
          "name": "A5",
          "midi": 81,
          "time": 1930.5,
          "velocity": 1,
          "duration": 0.5
        },
        {
          "name": "A5",
          "midi": 81,
          "time": 1931,
          "velocity": 1,
          "duration": 0.5
        },
        {
          "name": "A5",
          "midi": 81,
          "time": 1931.5,
          "velocity": 1,
          "duration": 0.5
        },
        {
          "name": "A5",
          "midi": 81,
          "time": 1932,
          "velocity": 1,
          "duration": 0.5
        },
        {
          "name": "A5",
          "midi": 81,
          "time": 1932.5,
          "velocity": 1,
          "duration": 0.5
        },
        {
          "name": "A5",
          "midi": 81,
          "time": 1933,
          "velocity": 1,
          "duration": 0.5
        },
        {
          "name": "A5",
          "midi": 81,
          "time": 1933.5,
          "velocity": 1,
          "duration": 0.5
        },
        {
          "name": "A5",
          "midi": 81,
          "time": 1934,
          "velocity": 1,
          "duration": 0.5
        },
        {
          "name": "A5",
          "midi": 81,
          "time": 1934.5,
          "velocity": 1,
          "duration": 0.5
        },
        {
          "name": "A5",
          "midi": 81,
          "time": 1935,
          "velocity": 1,
          "duration": 0.5
        },
        {
          "name": "A5",
          "midi": 81,
          "time": 1935.5,
          "velocity": 1,
          "duration": 0.5
        },
        {
          "name": "A5",
          "midi": 81,
          "time": 1936,
          "velocity": 1,
          "duration": 0.5
        },
        {
          "name": "A5",
          "midi": 81,
          "time": 1936.5,
          "velocity": 1,
          "duration": 0.5
        },
        {
          "name": "A5",
          "midi": 81,
          "time": 1937,
          "velocity": 1,
          "duration": 0.5
        },
        {
          "name": "A5",
          "midi": 81,
          "time": 1937.5,
          "velocity": 1,
          "duration": 0.5
        },
        {
          "name": "A5",
          "midi": 81,
          "time": 1938,
          "velocity": 1,
          "duration": 0.5
        },
        {
          "name": "A5",
          "midi": 81,
          "time": 1938.5,
          "velocity": 1,
          "duration": 0.5
        },
        {
          "name": "A5",
          "midi": 81,
          "time": 1939,
          "velocity": 1,
          "duration": 0.5
        },
        {
          "name": "A5",
          "midi": 81,
          "time": 1939.5,
          "velocity": 1,
          "duration": 0.5
        },
        {
          "name": "A5",
          "midi": 81,
          "time": 1940,
          "velocity": 1,
          "duration": 0.5
        },
        {
          "name": "A5",
          "midi": 81,
          "time": 1940.5,
          "velocity": 1,
          "duration": 0.5
        },
        {
          "name": "A5",
          "midi": 81,
          "time": 1941,
          "velocity": 1,
          "duration": 0.5
        },
        {
          "name": "A5",
          "midi": 81,
          "time": 1941.5,
          "velocity": 1,
          "duration": 0.5
        },
        {
          "name": "A5",
          "midi": 81,
          "time": 1942,
          "velocity": 1,
          "duration": 0.5
        },
        {
          "name": "A5",
          "midi": 81,
          "time": 1942.5,
          "velocity": 1,
          "duration": 0.5
        },
        {
          "name": "A5",
          "midi": 81,
          "time": 1943,
          "velocity": 1,
          "duration": 0.5
        },
        {
          "name": "A5",
          "midi": 81,
          "time": 1943.5,
          "velocity": 1,
          "duration": 0.5
        },
        {
          "name": "A5",
          "midi": 81,
          "time": 1944,
          "velocity": 1,
          "duration": 0.5
        },
        {
          "name": "A5",
          "midi": 81,
          "time": 1944.5,
          "velocity": 1,
          "duration": 0.5
        },
        {
          "name": "A5",
          "midi": 81,
          "time": 1945,
          "velocity": 1,
          "duration": 0.5
        },
        {
          "name": "A5",
          "midi": 81,
          "time": 1945.5,
          "velocity": 1,
          "duration": 0.5
        },
        {
          "name": "A5",
          "midi": 81,
          "time": 1946,
          "velocity": 1,
          "duration": 0.5
        },
        {
          "name": "A5",
          "midi": 81,
          "time": 1946.5,
          "velocity": 1,
          "duration": 0.5
        },
        {
          "name": "A5",
          "midi": 81,
          "time": 1947,
          "velocity": 1,
          "duration": 0.5
        },
        {
          "name": "A5",
          "midi": 81,
          "time": 1947.5,
          "velocity": 1,
          "duration": 0.5
        },
        {
          "name": "A5",
          "midi": 81,
          "time": 1948,
          "velocity": 1,
          "duration": 0.5
        },
        {
          "name": "A5",
          "midi": 81,
          "time": 1948.5,
          "velocity": 1,
          "duration": 0.5
        },
        {
          "name": "A5",
          "midi": 81,
          "time": 1949,
          "velocity": 1,
          "duration": 0.5
        },
        {
          "name": "A5",
          "midi": 81,
          "time": 1949.5,
          "velocity": 1,
          "duration": 0.5
        },
        {
          "name": "A5",
          "midi": 81,
          "time": 1950,
          "velocity": 1,
          "duration": 0.5
        },
        {
          "name": "A5",
          "midi": 81,
          "time": 1950.5,
          "velocity": 1,
          "duration": 0.5
        },
        {
          "name": "A5",
          "midi": 81,
          "time": 1951,
          "velocity": 1,
          "duration": 0.5
        },
        {
          "name": "A5",
          "midi": 81,
          "time": 1951.5,
          "velocity": 1,
          "duration": 0.5
        },
        {
          "name": "A5",
          "midi": 81,
          "time": 1952,
          "velocity": 1,
          "duration": 0.5
        },
        {
          "name": "A5",
          "midi": 81,
          "time": 1952.5,
          "velocity": 1,
          "duration": 0.5
        },
        {
          "name": "A5",
          "midi": 81,
          "time": 1953,
          "velocity": 1,
          "duration": 0.5
        },
        {
          "name": "A5",
          "midi": 81,
          "time": 1953.5,
          "velocity": 1,
          "duration": 0.5
        },
        {
          "name": "A5",
          "midi": 81,
          "time": 1954,
          "velocity": 1,
          "duration": 0.5
        },
        {
          "name": "A5",
          "midi": 81,
          "time": 1954.5,
          "velocity": 1,
          "duration": 0.5
        },
        {
          "name": "A5",
          "midi": 81,
          "time": 1955,
          "velocity": 1,
          "duration": 0.5
        },
        {
          "name": "A5",
          "midi": 81,
          "time": 1955.5,
          "velocity": 1,
          "duration": 0.5
        },
        {
          "name": "A5",
          "midi": 81,
          "time": 1956,
          "velocity": 1,
          "duration": 0.5
        },
        {
          "name": "A5",
          "midi": 81,
          "time": 1956.5,
          "velocity": 1,
          "duration": 0.5
        },
        {
          "name": "A5",
          "midi": 81,
          "time": 1957,
          "velocity": 1,
          "duration": 0.5
        },
        {
          "name": "A5",
          "midi": 81,
          "time": 1957.5,
          "velocity": 1,
          "duration": 0.5
        },
        {
          "name": "A5",
          "midi": 81,
          "time": 1958,
          "velocity": 1,
          "duration": 0.5
        },
        {
          "name": "A5",
          "midi": 81,
          "time": 1958.5,
          "velocity": 1,
          "duration": 0.5
        },
        {
          "name": "A5",
          "midi": 81,
          "time": 1959,
          "velocity": 1,
          "duration": 0.5
        },
        {
          "name": "A5",
          "midi": 81,
          "time": 1959.5,
          "velocity": 1,
          "duration": 0.5
        },
        {
          "name": "A5",
          "midi": 81,
          "time": 1960,
          "velocity": 1,
          "duration": 0.5
        },
        {
          "name": "A5",
          "midi": 81,
          "time": 1960.5,
          "velocity": 1,
          "duration": 0.5
        },
        {
          "name": "A5",
          "midi": 81,
          "time": 1961,
          "velocity": 1,
          "duration": 0.5
        },
        {
          "name": "A5",
          "midi": 81,
          "time": 1961.5,
          "velocity": 1,
          "duration": 0.5
        },
        {
          "name": "A5",
          "midi": 81,
          "time": 1962,
          "velocity": 1,
          "duration": 0.5
        },
        {
          "name": "A5",
          "midi": 81,
          "time": 1962.5,
          "velocity": 1,
          "duration": 0.5
        },
        {
          "name": "A5",
          "midi": 81,
          "time": 1963,
          "velocity": 1,
          "duration": 0.5
        },
        {
          "name": "A5",
          "midi": 81,
          "time": 1963.5,
          "velocity": 1,
          "duration": 0.5
        },
        {
          "name": "A5",
          "midi": 81,
          "time": 1964,
          "velocity": 1,
          "duration": 0.5
        },
        {
          "name": "A5",
          "midi": 81,
          "time": 1964.5,
          "velocity": 1,
          "duration": 0.5
        },
        {
          "name": "A5",
          "midi": 81,
          "time": 1965,
          "velocity": 1,
          "duration": 0.5
        },
        {
          "name": "A5",
          "midi": 81,
          "time": 1965.5,
          "velocity": 1,
          "duration": 0.5
        },
        {
          "name": "A5",
          "midi": 81,
          "time": 1966,
          "velocity": 1,
          "duration": 0.5
        },
        {
          "name": "A5",
          "midi": 81,
          "time": 1966.5,
          "velocity": 1,
          "duration": 0.5
        },
        {
          "name": "A5",
          "midi": 81,
          "time": 1967,
          "velocity": 1,
          "duration": 0.5
        },
        {
          "name": "A5",
          "midi": 81,
          "time": 1967.5,
          "velocity": 1,
          "duration": 0.5
        },
        {
          "name": "A5",
          "midi": 81,
          "time": 1968,
          "velocity": 1,
          "duration": 0.5
        },
        {
          "name": "A5",
          "midi": 81,
          "time": 1968.5,
          "velocity": 1,
          "duration": 0.5
        },
        {
          "name": "A5",
          "midi": 81,
          "time": 1969,
          "velocity": 1,
          "duration": 0.5
        },
        {
          "name": "A5",
          "midi": 81,
          "time": 1969.5,
          "velocity": 1,
          "duration": 0.5
        },
        {
          "name": "A5",
          "midi": 81,
          "time": 1970,
          "velocity": 1,
          "duration": 0.5
        },
        {
          "name": "A5",
          "midi": 81,
          "time": 1970.5,
          "velocity": 1,
          "duration": 0.5
        },
        {
          "name": "A5",
          "midi": 81,
          "time": 1971,
          "velocity": 1,
          "duration": 0.5
        },
        {
          "name": "A5",
          "midi": 81,
          "time": 1971.5,
          "velocity": 1,
          "duration": 0.5
        },
        {
          "name": "A5",
          "midi": 81,
          "time": 1972,
          "velocity": 1,
          "duration": 0.5
        },
        {
          "name": "A5",
          "midi": 81,
          "time": 1972.5,
          "velocity": 1,
          "duration": 0.5
        },
        {
          "name": "A5",
          "midi": 81,
          "time": 1973,
          "velocity": 1,
          "duration": 0.5
        },
        {
          "name": "A5",
          "midi": 81,
          "time": 1973.5,
          "velocity": 1,
          "duration": 0.5
        },
        {
          "name": "A5",
          "midi": 81,
          "time": 1974,
          "velocity": 1,
          "duration": 0.5
        },
        {
          "name": "A5",
          "midi": 81,
          "time": 1974.5,
          "velocity": 1,
          "duration": 0.5
        },
        {
          "name": "A5",
          "midi": 81,
          "time": 1975,
          "velocity": 1,
          "duration": 0.5
        },
        {
          "name": "A5",
          "midi": 81,
          "time": 1975.5,
          "velocity": 1,
          "duration": 0.5
        },
        {
          "name": "A5",
          "midi": 81,
          "time": 1976,
          "velocity": 1,
          "duration": 0.5
        },
        {
          "name": "A5",
          "midi": 81,
          "time": 1976.5,
          "velocity": 1,
          "duration": 0.5
        },
        {
          "name": "A5",
          "midi": 81,
          "time": 1977,
          "velocity": 1,
          "duration": 0.5
        },
        {
          "name": "A5",
          "midi": 81,
          "time": 1977.5,
          "velocity": 1,
          "duration": 0.5
        },
        {
          "name": "A5",
          "midi": 81,
          "time": 1978,
          "velocity": 1,
          "duration": 0.5
        },
        {
          "name": "A5",
          "midi": 81,
          "time": 1978.5,
          "velocity": 1,
          "duration": 0.5
        },
        {
          "name": "A5",
          "midi": 81,
          "time": 1979,
          "velocity": 1,
          "duration": 0.5
        },
        {
          "name": "A5",
          "midi": 81,
          "time": 1979.5,
          "velocity": 1,
          "duration": 0.5
        },
        {
          "name": "A5",
          "midi": 81,
          "time": 1980,
          "velocity": 1,
          "duration": 0.5
        },
        {
          "name": "A5",
          "midi": 81,
          "time": 1980.5,
          "velocity": 1,
          "duration": 0.5
        },
        {
          "name": "A5",
          "midi": 81,
          "time": 1981,
          "velocity": 1,
          "duration": 0.5
        },
        {
          "name": "A5",
          "midi": 81,
          "time": 1981.5,
          "velocity": 1,
          "duration": 0.5
        },
        {
          "name": "A5",
          "midi": 81,
          "time": 1982,
          "velocity": 1,
          "duration": 0.5
        },
        {
          "name": "A5",
          "midi": 81,
          "time": 1982.5,
          "velocity": 1,
          "duration": 0.5
        },
        {
          "name": "A5",
          "midi": 81,
          "time": 1983,
          "velocity": 1,
          "duration": 0.5
        },
        {
          "name": "A5",
          "midi": 81,
          "time": 1983.5,
          "velocity": 1,
          "duration": 0.5
        },
        {
          "name": "A5",
          "midi": 81,
          "time": 1984,
          "velocity": 1,
          "duration": 0.5
        },
        {
          "name": "A5",
          "midi": 81,
          "time": 1984.5,
          "velocity": 1,
          "duration": 0.5
        },
        {
          "name": "A5",
          "midi": 81,
          "time": 1985,
          "velocity": 1,
          "duration": 0.5
        },
        {
          "name": "A5",
          "midi": 81,
          "time": 1985.5,
          "velocity": 1,
          "duration": 0.5
        },
        {
          "name": "A5",
          "midi": 81,
          "time": 1986,
          "velocity": 1,
          "duration": 0.5
        },
        {
          "name": "A5",
          "midi": 81,
          "time": 1986.5,
          "velocity": 1,
          "duration": 0.5
        },
        {
          "name": "A5",
          "midi": 81,
          "time": 1987,
          "velocity": 1,
          "duration": 0.5
        },
        {
          "name": "A5",
          "midi": 81,
          "time": 1987.5,
          "velocity": 1,
          "duration": 0.5
        },
        {
          "name": "A5",
          "midi": 81,
          "time": 1988,
          "velocity": 1,
          "duration": 0.5
        },
        {
          "name": "A5",
          "midi": 81,
          "time": 1988.5,
          "velocity": 1,
          "duration": 0.5
        },
        {
          "name": "A5",
          "midi": 81,
          "time": 1989,
          "velocity": 1,
          "duration": 0.5
        },
        {
          "name": "A5",
          "midi": 81,
          "time": 1989.5,
          "velocity": 1,
          "duration": 0.5
        },
        {
          "name": "A5",
          "midi": 81,
          "time": 1990,
          "velocity": 1,
          "duration": 0.5
        },
        {
          "name": "A5",
          "midi": 81,
          "time": 1990.5,
          "velocity": 1,
          "duration": 0.5
        },
        {
          "name": "A5",
          "midi": 81,
          "time": 1991,
          "velocity": 1,
          "duration": 0.5
        },
        {
          "name": "A5",
          "midi": 81,
          "time": 1991.5,
          "velocity": 1,
          "duration": 0.5
        },
        {
          "name": "A5",
          "midi": 81,
          "time": 1992,
          "velocity": 1,
          "duration": 0.5
        },
        {
          "name": "A5",
          "midi": 81,
          "time": 1992.5,
          "velocity": 1,
          "duration": 0.5
        },
        {
          "name": "A5",
          "midi": 81,
          "time": 1993,
          "velocity": 1,
          "duration": 0.5
        },
        {
          "name": "A5",
          "midi": 81,
          "time": 1993.5,
          "velocity": 1,
          "duration": 0.5
        },
        {
          "name": "A5",
          "midi": 81,
          "time": 1994,
          "velocity": 1,
          "duration": 0.5
        },
        {
          "name": "A5",
          "midi": 81,
          "time": 1994.5,
          "velocity": 1,
          "duration": 0.5
        },
        {
          "name": "A5",
          "midi": 81,
          "time": 1995,
          "velocity": 1,
          "duration": 0.5
        },
        {
          "name": "A5",
          "midi": 81,
          "time": 1995.5,
          "velocity": 1,
          "duration": 0.5
        },
        {
          "name": "A5",
          "midi": 81,
          "time": 1996,
          "velocity": 1,
          "duration": 0.5
        },
        {
          "name": "A5",
          "midi": 81,
          "time": 1996.5,
          "velocity": 1,
          "duration": 0.5
        },
        {
          "name": "A5",
          "midi": 81,
          "time": 1997,
          "velocity": 1,
          "duration": 0.5
        },
        {
          "name": "A5",
          "midi": 81,
          "time": 1997.5,
          "velocity": 1,
          "duration": 0.5
        },
        {
          "name": "A5",
          "midi": 81,
          "time": 1998,
          "velocity": 1,
          "duration": 0.5
        },
        {
          "name": "A5",
          "midi": 81,
          "time": 1998.5,
          "velocity": 1,
          "duration": 0.5
        },
        {
          "name": "A5",
          "midi": 81,
          "time": 1999,
          "velocity": 1,
          "duration": 0.5
        },
        {
          "name": "A5",
          "midi": 81,
          "time": 1999.5,
          "velocity": 1,
          "duration": 0.5
        },
        {
          "name": "A5",
          "midi": 81,
          "time": 2000,
          "velocity": 1,
          "duration": 0.5
        },
        {
          "name": "A5",
          "midi": 81,
          "time": 2000.5,
          "velocity": 1,
          "duration": 0.5
        },
        {
          "name": "A5",
          "midi": 81,
          "time": 2001,
          "velocity": 1,
          "duration": 0.5
        },
        {
          "name": "A5",
          "midi": 81,
          "time": 2001.5,
          "velocity": 1,
          "duration": 0.5
        },
        {
          "name": "A5",
          "midi": 81,
          "time": 2002,
          "velocity": 1,
          "duration": 0.5
        },
        {
          "name": "A5",
          "midi": 81,
          "time": 2002.5,
          "velocity": 1,
          "duration": 0.5
        },
        {
          "name": "A5",
          "midi": 81,
          "time": 2003,
          "velocity": 1,
          "duration": 0.5
        },
        {
          "name": "A5",
          "midi": 81,
          "time": 2003.5,
          "velocity": 1,
          "duration": 0.5
        },
        {
          "name": "A5",
          "midi": 81,
          "time": 2004,
          "velocity": 1,
          "duration": 0.5
        },
        {
          "name": "A5",
          "midi": 81,
          "time": 2004.5,
          "velocity": 1,
          "duration": 0.5
        },
        {
          "name": "A5",
          "midi": 81,
          "time": 2005,
          "velocity": 1,
          "duration": 0.5
        },
        {
          "name": "A5",
          "midi": 81,
          "time": 2005.5,
          "velocity": 1,
          "duration": 0.5
        },
        {
          "name": "A5",
          "midi": 81,
          "time": 2006,
          "velocity": 1,
          "duration": 0.5
        },
        {
          "name": "A5",
          "midi": 81,
          "time": 2006.5,
          "velocity": 1,
          "duration": 0.5
        },
        {
          "name": "A5",
          "midi": 81,
          "time": 2007,
          "velocity": 1,
          "duration": 0.5
        },
        {
          "name": "A5",
          "midi": 81,
          "time": 2007.5,
          "velocity": 1,
          "duration": 0.5
        },
        {
          "name": "A5",
          "midi": 81,
          "time": 2008,
          "velocity": 1,
          "duration": 0.5
        },
        {
          "name": "A5",
          "midi": 81,
          "time": 2008.5,
          "velocity": 1,
          "duration": 0.5
        },
        {
          "name": "A5",
          "midi": 81,
          "time": 2009,
          "velocity": 1,
          "duration": 0.5
        },
        {
          "name": "A5",
          "midi": 81,
          "time": 2009.5,
          "velocity": 1,
          "duration": 0.5
        },
        {
          "name": "A5",
          "midi": 81,
          "time": 2010,
          "velocity": 1,
          "duration": 0.5
        },
        {
          "name": "A5",
          "midi": 81,
          "time": 2010.5,
          "velocity": 1,
          "duration": 0.5
        },
        {
          "name": "A5",
          "midi": 81,
          "time": 2011,
          "velocity": 1,
          "duration": 0.5
        },
        {
          "name": "A5",
          "midi": 81,
          "time": 2011.5,
          "velocity": 1,
          "duration": 0.5
        },
        {
          "name": "A5",
          "midi": 81,
          "time": 2012,
          "velocity": 1,
          "duration": 0.5
        },
        {
          "name": "A5",
          "midi": 81,
          "time": 2012.5,
          "velocity": 1,
          "duration": 0.5
        },
        {
          "name": "A5",
          "midi": 81,
          "time": 2013,
          "velocity": 1,
          "duration": 0.5
        },
        {
          "name": "A5",
          "midi": 81,
          "time": 2013.5,
          "velocity": 1,
          "duration": 0.5
        },
        {
          "name": "A5",
          "midi": 81,
          "time": 2014,
          "velocity": 1,
          "duration": 0.5
        },
        {
          "name": "A5",
          "midi": 81,
          "time": 2014.5,
          "velocity": 1,
          "duration": 0.5
        },
        {
          "name": "A5",
          "midi": 81,
          "time": 2015,
          "velocity": 1,
          "duration": 0.5
        },
        {
          "name": "A5",
          "midi": 81,
          "time": 2015.5,
          "velocity": 1,
          "duration": 0.5
        },
        {
          "name": "A5",
          "midi": 81,
          "time": 2016,
          "velocity": 1,
          "duration": 0.5
        },
        {
          "name": "A5",
          "midi": 81,
          "time": 2016.5,
          "velocity": 1,
          "duration": 0.5
        },
        {
          "name": "A5",
          "midi": 81,
          "time": 2017,
          "velocity": 1,
          "duration": 0.5
        },
        {
          "name": "A5",
          "midi": 81,
          "time": 2017.5,
          "velocity": 1,
          "duration": 0.5
        },
        {
          "name": "A5",
          "midi": 81,
          "time": 2018,
          "velocity": 1,
          "duration": 0.5
        },
        {
          "name": "A5",
          "midi": 81,
          "time": 2018.5,
          "velocity": 1,
          "duration": 0.5
        },
        {
          "name": "A5",
          "midi": 81,
          "time": 2019,
          "velocity": 1,
          "duration": 0.5
        },
        {
          "name": "A5",
          "midi": 81,
          "time": 2019.5,
          "velocity": 1,
          "duration": 0.5
        },
        {
          "name": "A5",
          "midi": 81,
          "time": 2020,
          "velocity": 1,
          "duration": 0.5
        },
        {
          "name": "A5",
          "midi": 81,
          "time": 2020.5,
          "velocity": 1,
          "duration": 0.5
        },
        {
          "name": "A5",
          "midi": 81,
          "time": 2021,
          "velocity": 1,
          "duration": 0.5
        },
        {
          "name": "A5",
          "midi": 81,
          "time": 2021.5,
          "velocity": 1,
          "duration": 0.5
        },
        {
          "name": "A5",
          "midi": 81,
          "time": 2022,
          "velocity": 1,
          "duration": 0.5
        },
        {
          "name": "A5",
          "midi": 81,
          "time": 2022.5,
          "velocity": 1,
          "duration": 0.5
        },
        {
          "name": "A5",
          "midi": 81,
          "time": 2023,
          "velocity": 1,
          "duration": 0.5
        },
        {
          "name": "A5",
          "midi": 81,
          "time": 2023.5,
          "velocity": 1,
          "duration": 0.5
        },
        {
          "name": "A5",
          "midi": 81,
          "time": 2024,
          "velocity": 1,
          "duration": 0.5
        },
        {
          "name": "A5",
          "midi": 81,
          "time": 2024.5,
          "velocity": 1,
          "duration": 0.5
        },
        {
          "name": "A5",
          "midi": 81,
          "time": 2025,
          "velocity": 1,
          "duration": 0.5
        },
        {
          "name": "A5",
          "midi": 81,
          "time": 2025.5,
          "velocity": 1,
          "duration": 0.5
        },
        {
          "name": "A5",
          "midi": 81,
          "time": 2026,
          "velocity": 1,
          "duration": 0.5
        },
        {
          "name": "A5",
          "midi": 81,
          "time": 2026.5,
          "velocity": 1,
          "duration": 0.5
        },
        {
          "name": "A5",
          "midi": 81,
          "time": 2027,
          "velocity": 1,
          "duration": 0.5
        },
        {
          "name": "A5",
          "midi": 81,
          "time": 2027.5,
          "velocity": 1,
          "duration": 0.5
        },
        {
          "name": "A5",
          "midi": 81,
          "time": 2028,
          "velocity": 1,
          "duration": 0.5
        },
        {
          "name": "A5",
          "midi": 81,
          "time": 2028.5,
          "velocity": 1,
          "duration": 0.5
        },
        {
          "name": "A5",
          "midi": 81,
          "time": 2029,
          "velocity": 1,
          "duration": 0.5
        },
        {
          "name": "A5",
          "midi": 81,
          "time": 2029.5,
          "velocity": 1,
          "duration": 0.5
        },
        {
          "name": "A5",
          "midi": 81,
          "time": 2030,
          "velocity": 1,
          "duration": 0.5
        },
        {
          "name": "A5",
          "midi": 81,
          "time": 2030.5,
          "velocity": 1,
          "duration": 0.5
        },
        {
          "name": "A5",
          "midi": 81,
          "time": 2031,
          "velocity": 1,
          "duration": 0.5
        },
        {
          "name": "A5",
          "midi": 81,
          "time": 2031.5,
          "velocity": 1,
          "duration": 0.5
        },
        {
          "name": "A5",
          "midi": 81,
          "time": 2032,
          "velocity": 1,
          "duration": 0.5
        },
        {
          "name": "A5",
          "midi": 81,
          "time": 2032.5,
          "velocity": 1,
          "duration": 0.5
        },
        {
          "name": "A5",
          "midi": 81,
          "time": 2033,
          "velocity": 1,
          "duration": 0.5
        },
        {
          "name": "A5",
          "midi": 81,
          "time": 2033.5,
          "velocity": 1,
          "duration": 0.5
        },
        {
          "name": "A5",
          "midi": 81,
          "time": 2034,
          "velocity": 1,
          "duration": 0.5
        },
        {
          "name": "A5",
          "midi": 81,
          "time": 2034.5,
          "velocity": 1,
          "duration": 0.5
        },
        {
          "name": "A5",
          "midi": 81,
          "time": 2035,
          "velocity": 1,
          "duration": 0.5
        },
        {
          "name": "A5",
          "midi": 81,
          "time": 2035.5,
          "velocity": 1,
          "duration": 0.5
        },
        {
          "name": "A5",
          "midi": 81,
          "time": 2036,
          "velocity": 1,
          "duration": 0.5
        },
        {
          "name": "A5",
          "midi": 81,
          "time": 2036.5,
          "velocity": 1,
          "duration": 0.5
        },
        {
          "name": "A5",
          "midi": 81,
          "time": 2037,
          "velocity": 1,
          "duration": 0.5
        },
        {
          "name": "A5",
          "midi": 81,
          "time": 2037.5,
          "velocity": 1,
          "duration": 0.5
        },
        {
          "name": "A5",
          "midi": 81,
          "time": 2038,
          "velocity": 1,
          "duration": 0.5
        },
        {
          "name": "A5",
          "midi": 81,
          "time": 2038.5,
          "velocity": 1,
          "duration": 0.5
        },
        {
          "name": "A5",
          "midi": 81,
          "time": 2039,
          "velocity": 1,
          "duration": 0.5
        },
        {
          "name": "A5",
          "midi": 81,
          "time": 2039.5,
          "velocity": 1,
          "duration": 0.5
        },
        {
          "name": "A5",
          "midi": 81,
          "time": 2040,
          "velocity": 1,
          "duration": 0.5
        },
        {
          "name": "A5",
          "midi": 81,
          "time": 2040.5,
          "velocity": 1,
          "duration": 0.5
        },
        {
          "name": "A5",
          "midi": 81,
          "time": 2041,
          "velocity": 1,
          "duration": 0.5
        },
        {
          "name": "A5",
          "midi": 81,
          "time": 2041.5,
          "velocity": 1,
          "duration": 0.5
        },
        {
          "name": "A5",
          "midi": 81,
          "time": 2042,
          "velocity": 1,
          "duration": 0.5
        },
        {
          "name": "A5",
          "midi": 81,
          "time": 2042.5,
          "velocity": 1,
          "duration": 0.5
        },
        {
          "name": "A5",
          "midi": 81,
          "time": 2043,
          "velocity": 1,
          "duration": 0.5
        },
        {
          "name": "A5",
          "midi": 81,
          "time": 2043.5,
          "velocity": 1,
          "duration": 0.5
        },
        {
          "name": "A5",
          "midi": 81,
          "time": 2044,
          "velocity": 1,
          "duration": 0.5
        },
        {
          "name": "A5",
          "midi": 81,
          "time": 2044.5,
          "velocity": 1,
          "duration": 0.5
        },
        {
          "name": "A5",
          "midi": 81,
          "time": 2045,
          "velocity": 1,
          "duration": 0.5
        },
        {
          "name": "A5",
          "midi": 81,
          "time": 2045.5,
          "velocity": 1,
          "duration": 0.5
        },
        {
          "name": "A5",
          "midi": 81,
          "time": 2046,
          "velocity": 1,
          "duration": 0.5
        },
        {
          "name": "A5",
          "midi": 81,
          "time": 2046.5,
          "velocity": 1,
          "duration": 0.5
        },
        {
          "name": "A5",
          "midi": 81,
          "time": 2047,
          "velocity": 1,
          "duration": 0.5
        },
        {
          "name": "A5",
          "midi": 81,
          "time": 2047.5,
          "velocity": 1,
          "duration": 0.5
        },
        {
          "name": "A5",
          "midi": 81,
          "time": 2048,
          "velocity": 1,
          "duration": 0.5
        },
        {
          "name": "A5",
          "midi": 81,
          "time": 2048.5,
          "velocity": 1,
          "duration": 0.5
        },
        {
          "name": "A5",
          "midi": 81,
          "time": 2049,
          "velocity": 1,
          "duration": 0.5
        },
        {
          "name": "A5",
          "midi": 81,
          "time": 2049.5,
          "velocity": 1,
          "duration": 0.5
        },
        {
          "name": "A5",
          "midi": 81,
          "time": 2050,
          "velocity": 1,
          "duration": 0.5
        },
        {
          "name": "A5",
          "midi": 81,
          "time": 2050.5,
          "velocity": 1,
          "duration": 0.5
        },
        {
          "name": "A5",
          "midi": 81,
          "time": 2051,
          "velocity": 1,
          "duration": 0.5
        },
        {
          "name": "A5",
          "midi": 81,
          "time": 2051.5,
          "velocity": 1,
          "duration": 0.5
        },
        {
          "name": "A5",
          "midi": 81,
          "time": 2052,
          "velocity": 1,
          "duration": 0.5
        },
        {
          "name": "A5",
          "midi": 81,
          "time": 2052.5,
          "velocity": 1,
          "duration": 0.5
        },
        {
          "name": "A5",
          "midi": 81,
          "time": 2053,
          "velocity": 1,
          "duration": 0.5
        },
        {
          "name": "A5",
          "midi": 81,
          "time": 2053.5,
          "velocity": 1,
          "duration": 0.5
        },
        {
          "name": "A5",
          "midi": 81,
          "time": 2054,
          "velocity": 1,
          "duration": 0.5
        },
        {
          "name": "A5",
          "midi": 81,
          "time": 2054.5,
          "velocity": 1,
          "duration": 0.5
        },
        {
          "name": "A5",
          "midi": 81,
          "time": 2055,
          "velocity": 1,
          "duration": 0.5
        },
        {
          "name": "A5",
          "midi": 81,
          "time": 2055.5,
          "velocity": 1,
          "duration": 0.5
        },
        {
          "name": "A5",
          "midi": 81,
          "time": 2056,
          "velocity": 1,
          "duration": 0.5
        },
        {
          "name": "A5",
          "midi": 81,
          "time": 2056.5,
          "velocity": 1,
          "duration": 0.5
        },
        {
          "name": "A5",
          "midi": 81,
          "time": 2057,
          "velocity": 1,
          "duration": 0.5
        },
        {
          "name": "A5",
          "midi": 81,
          "time": 2057.5,
          "velocity": 1,
          "duration": 0.5
        },
        {
          "name": "A5",
          "midi": 81,
          "time": 2058,
          "velocity": 1,
          "duration": 0.5
        },
        {
          "name": "A5",
          "midi": 81,
          "time": 2058.5,
          "velocity": 1,
          "duration": 0.5
        },
        {
          "name": "A5",
          "midi": 81,
          "time": 2059,
          "velocity": 1,
          "duration": 0.5
        },
        {
          "name": "A5",
          "midi": 81,
          "time": 2059.5,
          "velocity": 1,
          "duration": 0.5
        },
        {
          "name": "A5",
          "midi": 81,
          "time": 2060,
          "velocity": 1,
          "duration": 0.5
        },
        {
          "name": "A5",
          "midi": 81,
          "time": 2060.5,
          "velocity": 1,
          "duration": 0.5
        },
        {
          "name": "A5",
          "midi": 81,
          "time": 2061,
          "velocity": 1,
          "duration": 0.5
        },
        {
          "name": "A5",
          "midi": 81,
          "time": 2061.5,
          "velocity": 1,
          "duration": 0.5
        },
        {
          "name": "A5",
          "midi": 81,
          "time": 2062,
          "velocity": 1,
          "duration": 0.5
        },
        {
          "name": "A5",
          "midi": 81,
          "time": 2062.5,
          "velocity": 1,
          "duration": 0.5
        },
        {
          "name": "A5",
          "midi": 81,
          "time": 2063,
          "velocity": 1,
          "duration": 0.5
        },
        {
          "name": "A5",
          "midi": 81,
          "time": 2063.5,
          "velocity": 1,
          "duration": 0.5
        },
        {
          "name": "A5",
          "midi": 81,
          "time": 2064,
          "velocity": 1,
          "duration": 0.5
        },
        {
          "name": "A5",
          "midi": 81,
          "time": 2064.5,
          "velocity": 1,
          "duration": 0.5
        },
        {
          "name": "A5",
          "midi": 81,
          "time": 2065,
          "velocity": 1,
          "duration": 0.5
        },
        {
          "name": "A5",
          "midi": 81,
          "time": 2065.5,
          "velocity": 1,
          "duration": 0.5
        },
        {
          "name": "A5",
          "midi": 81,
          "time": 2066,
          "velocity": 1,
          "duration": 0.5
        },
        {
          "name": "A5",
          "midi": 81,
          "time": 2066.5,
          "velocity": 1,
          "duration": 0.5
        },
        {
          "name": "A5",
          "midi": 81,
          "time": 2067,
          "velocity": 1,
          "duration": 0.5
        },
        {
          "name": "A5",
          "midi": 81,
          "time": 2067.5,
          "velocity": 1,
          "duration": 0.5
        },
        {
          "name": "A5",
          "midi": 81,
          "time": 2068,
          "velocity": 1,
          "duration": 0.5
        },
        {
          "name": "A5",
          "midi": 81,
          "time": 2068.5,
          "velocity": 1,
          "duration": 0.5
        },
        {
          "name": "A5",
          "midi": 81,
          "time": 2069,
          "velocity": 1,
          "duration": 0.5
        },
        {
          "name": "A5",
          "midi": 81,
          "time": 2069.5,
          "velocity": 1,
          "duration": 0.5
        },
        {
          "name": "A5",
          "midi": 81,
          "time": 2070,
          "velocity": 1,
          "duration": 0.5
        },
        {
          "name": "A5",
          "midi": 81,
          "time": 2070.5,
          "velocity": 1,
          "duration": 0.5
        },
        {
          "name": "A5",
          "midi": 81,
          "time": 2071,
          "velocity": 1,
          "duration": 0.5
        },
        {
          "name": "A5",
          "midi": 81,
          "time": 2071.5,
          "velocity": 1,
          "duration": 0.5
        },
        {
          "name": "A5",
          "midi": 81,
          "time": 2072,
          "velocity": 1,
          "duration": 0.5
        },
        {
          "name": "A5",
          "midi": 81,
          "time": 2072.5,
          "velocity": 1,
          "duration": 0.5
        },
        {
          "name": "A5",
          "midi": 81,
          "time": 2073,
          "velocity": 1,
          "duration": 0.5
        },
        {
          "name": "A5",
          "midi": 81,
          "time": 2073.5,
          "velocity": 1,
          "duration": 0.5
        },
        {
          "name": "A5",
          "midi": 81,
          "time": 2074,
          "velocity": 1,
          "duration": 0.5
        },
        {
          "name": "A5",
          "midi": 81,
          "time": 2074.5,
          "velocity": 1,
          "duration": 0.5
        },
        {
          "name": "A5",
          "midi": 81,
          "time": 2075,
          "velocity": 1,
          "duration": 0.5
        },
        {
          "name": "A5",
          "midi": 81,
          "time": 2075.5,
          "velocity": 1,
          "duration": 0.5
        },
        {
          "name": "A5",
          "midi": 81,
          "time": 2076,
          "velocity": 1,
          "duration": 0.5
        },
        {
          "name": "A5",
          "midi": 81,
          "time": 2076.5,
          "velocity": 1,
          "duration": 0.5
        },
        {
          "name": "A5",
          "midi": 81,
          "time": 2077,
          "velocity": 1,
          "duration": 0.5
        },
        {
          "name": "A5",
          "midi": 81,
          "time": 2077.5,
          "velocity": 1,
          "duration": 0.5
        },
        {
          "name": "A5",
          "midi": 81,
          "time": 2078,
          "velocity": 1,
          "duration": 0.5
        },
        {
          "name": "A5",
          "midi": 81,
          "time": 2078.5,
          "velocity": 1,
          "duration": 0.5
        },
        {
          "name": "A5",
          "midi": 81,
          "time": 2079,
          "velocity": 1,
          "duration": 0.5
        },
        {
          "name": "A5",
          "midi": 81,
          "time": 2079.5,
          "velocity": 1,
          "duration": 0.5
        },
        {
          "name": "A5",
          "midi": 81,
          "time": 2080,
          "velocity": 1,
          "duration": 0.5
        },
        {
          "name": "A5",
          "midi": 81,
          "time": 2080.5,
          "velocity": 1,
          "duration": 0.5
        },
        {
          "name": "A5",
          "midi": 81,
          "time": 2081,
          "velocity": 1,
          "duration": 0.5
        },
        {
          "name": "A5",
          "midi": 81,
          "time": 2081.5,
          "velocity": 1,
          "duration": 0.5
        },
        {
          "name": "A5",
          "midi": 81,
          "time": 2082,
          "velocity": 1,
          "duration": 0.5
        },
        {
          "name": "A5",
          "midi": 81,
          "time": 2082.5,
          "velocity": 1,
          "duration": 0.5
        },
        {
          "name": "A5",
          "midi": 81,
          "time": 2083,
          "velocity": 1,
          "duration": 0.5
        },
        {
          "name": "A5",
          "midi": 81,
          "time": 2083.5,
          "velocity": 1,
          "duration": 0.5
        },
        {
          "name": "A5",
          "midi": 81,
          "time": 2084,
          "velocity": 1,
          "duration": 0.5
        },
        {
          "name": "A5",
          "midi": 81,
          "time": 2084.5,
          "velocity": 1,
          "duration": 0.5
        },
        {
          "name": "A5",
          "midi": 81,
          "time": 2085,
          "velocity": 1,
          "duration": 0.5
        },
        {
          "name": "A5",
          "midi": 81,
          "time": 2085.5,
          "velocity": 1,
          "duration": 0.5
        },
        {
          "name": "A5",
          "midi": 81,
          "time": 2086,
          "velocity": 1,
          "duration": 0.5
        },
        {
          "name": "A5",
          "midi": 81,
          "time": 2086.5,
          "velocity": 1,
          "duration": 0.5
        },
        {
          "name": "A5",
          "midi": 81,
          "time": 2087,
          "velocity": 1,
          "duration": 0.5
        },
        {
          "name": "A5",
          "midi": 81,
          "time": 2087.5,
          "velocity": 1,
          "duration": 0.5
        },
        {
          "name": "A5",
          "midi": 81,
          "time": 2088,
          "velocity": 1,
          "duration": 0.5
        },
        {
          "name": "A5",
          "midi": 81,
          "time": 2088.5,
          "velocity": 1,
          "duration": 0.5
        },
        {
          "name": "A5",
          "midi": 81,
          "time": 2089,
          "velocity": 1,
          "duration": 0.5
        },
        {
          "name": "A5",
          "midi": 81,
          "time": 2089.5,
          "velocity": 1,
          "duration": 0.5
        },
        {
          "name": "A5",
          "midi": 81,
          "time": 2090,
          "velocity": 1,
          "duration": 0.5
        },
        {
          "name": "A5",
          "midi": 81,
          "time": 2090.5,
          "velocity": 1,
          "duration": 0.5
        },
        {
          "name": "A5",
          "midi": 81,
          "time": 2091,
          "velocity": 1,
          "duration": 0.5
        },
        {
          "name": "A5",
          "midi": 81,
          "time": 2091.5,
          "velocity": 1,
          "duration": 0.5
        },
        {
          "name": "A5",
          "midi": 81,
          "time": 2092,
          "velocity": 1,
          "duration": 0.5
        },
        {
          "name": "A5",
          "midi": 81,
          "time": 2092.5,
          "velocity": 1,
          "duration": 0.5
        },
        {
          "name": "A5",
          "midi": 81,
          "time": 2093,
          "velocity": 1,
          "duration": 0.5
        },
        {
          "name": "A5",
          "midi": 81,
          "time": 2093.5,
          "velocity": 1,
          "duration": 0.5
        },
        {
          "name": "A5",
          "midi": 81,
          "time": 2094,
          "velocity": 1,
          "duration": 0.5
        },
        {
          "name": "A5",
          "midi": 81,
          "time": 2094.5,
          "velocity": 1,
          "duration": 0.5
        },
        {
          "name": "A5",
          "midi": 81,
          "time": 2095,
          "velocity": 1,
          "duration": 0.5
        },
        {
          "name": "A5",
          "midi": 81,
          "time": 2095.5,
          "velocity": 1,
          "duration": 0.5
        },
        {
          "name": "A5",
          "midi": 81,
          "time": 2096,
          "velocity": 1,
          "duration": 0.5
        },
        {
          "name": "A5",
          "midi": 81,
          "time": 2096.5,
          "velocity": 1,
          "duration": 0.5
        },
        {
          "name": "A5",
          "midi": 81,
          "time": 2097,
          "velocity": 1,
          "duration": 0.5
        },
        {
          "name": "A5",
          "midi": 81,
          "time": 2097.5,
          "velocity": 1,
          "duration": 0.5
        },
        {
          "name": "A5",
          "midi": 81,
          "time": 2098,
          "velocity": 1,
          "duration": 0.5
        },
        {
          "name": "A5",
          "midi": 81,
          "time": 2098.5,
          "velocity": 1,
          "duration": 0.5
        },
        {
          "name": "A5",
          "midi": 81,
          "time": 2099,
          "velocity": 1,
          "duration": 0.5
        },
        {
          "name": "A5",
          "midi": 81,
          "time": 2099.5,
          "velocity": 1,
          "duration": 0.5
        },
        {
          "name": "A5",
          "midi": 81,
          "time": 2100,
          "velocity": 1,
          "duration": 0.5
        },
        {
          "name": "A5",
          "midi": 81,
          "time": 2100.5,
          "velocity": 1,
          "duration": 0.5
        },
        {
          "name": "A5",
          "midi": 81,
          "time": 2101,
          "velocity": 1,
          "duration": 0.5
        },
        {
          "name": "A5",
          "midi": 81,
          "time": 2101.5,
          "velocity": 1,
          "duration": 0.5
        },
        {
          "name": "A5",
          "midi": 81,
          "time": 2102,
          "velocity": 1,
          "duration": 0.5
        },
        {
          "name": "A5",
          "midi": 81,
          "time": 2102.5,
          "velocity": 1,
          "duration": 0.5
        },
        {
          "name": "A5",
          "midi": 81,
          "time": 2103,
          "velocity": 1,
          "duration": 0.5
        },
        {
          "name": "A5",
          "midi": 81,
          "time": 2103.5,
          "velocity": 1,
          "duration": 0.5
        },
        {
          "name": "A5",
          "midi": 81,
          "time": 2104,
          "velocity": 1,
          "duration": 0.5
        },
        {
          "name": "A5",
          "midi": 81,
          "time": 2104.5,
          "velocity": 1,
          "duration": 0.5
        },
        {
          "name": "A5",
          "midi": 81,
          "time": 2105,
          "velocity": 1,
          "duration": 0.5
        },
        {
          "name": "A5",
          "midi": 81,
          "time": 2105.5,
          "velocity": 1,
          "duration": 0.5
        },
        {
          "name": "A5",
          "midi": 81,
          "time": 2106,
          "velocity": 1,
          "duration": 0.5
        },
        {
          "name": "A5",
          "midi": 81,
          "time": 2106.5,
          "velocity": 1,
          "duration": 0.5
        },
        {
          "name": "A5",
          "midi": 81,
          "time": 2107,
          "velocity": 1,
          "duration": 0.5
        },
        {
          "name": "A5",
          "midi": 81,
          "time": 2107.5,
          "velocity": 1,
          "duration": 0.5
        },
        {
          "name": "A5",
          "midi": 81,
          "time": 2108,
          "velocity": 1,
          "duration": 0.5
        },
        {
          "name": "A5",
          "midi": 81,
          "time": 2108.5,
          "velocity": 1,
          "duration": 0.5
        },
        {
          "name": "A5",
          "midi": 81,
          "time": 2109,
          "velocity": 1,
          "duration": 0.5
        },
        {
          "name": "A5",
          "midi": 81,
          "time": 2109.5,
          "velocity": 1,
          "duration": 0.5
        },
        {
          "name": "A5",
          "midi": 81,
          "time": 2110,
          "velocity": 1,
          "duration": 0.5
        },
        {
          "name": "A5",
          "midi": 81,
          "time": 2110.5,
          "velocity": 1,
          "duration": 0.5
        },
        {
          "name": "A5",
          "midi": 81,
          "time": 2111,
          "velocity": 1,
          "duration": 0.5
        },
        {
          "name": "A5",
          "midi": 81,
          "time": 2111.5,
          "velocity": 1,
          "duration": 0.5
        },
        {
          "name": "A5",
          "midi": 81,
          "time": 2112,
          "velocity": 1,
          "duration": 0.5
        },
        {
          "name": "A5",
          "midi": 81,
          "time": 2112.5,
          "velocity": 1,
          "duration": 0.5
        },
        {
          "name": "A5",
          "midi": 81,
          "time": 2113,
          "velocity": 1,
          "duration": 0.5
        },
        {
          "name": "A5",
          "midi": 81,
          "time": 2113.5,
          "velocity": 1,
          "duration": 0.5
        },
        {
          "name": "A5",
          "midi": 81,
          "time": 2114,
          "velocity": 1,
          "duration": 0.5
        },
        {
          "name": "A5",
          "midi": 81,
          "time": 2114.5,
          "velocity": 1,
          "duration": 0.5
        },
        {
          "name": "A5",
          "midi": 81,
          "time": 2115,
          "velocity": 1,
          "duration": 0.5
        },
        {
          "name": "A5",
          "midi": 81,
          "time": 2115.5,
          "velocity": 1,
          "duration": 0.5
        },
        {
          "name": "A5",
          "midi": 81,
          "time": 2116,
          "velocity": 1,
          "duration": 0.5
        },
        {
          "name": "A5",
          "midi": 81,
          "time": 2116.5,
          "velocity": 1,
          "duration": 0.5
        },
        {
          "name": "A5",
          "midi": 81,
          "time": 2117,
          "velocity": 1,
          "duration": 0.5
        },
        {
          "name": "A5",
          "midi": 81,
          "time": 2117.5,
          "velocity": 1,
          "duration": 0.5
        },
        {
          "name": "A5",
          "midi": 81,
          "time": 2118,
          "velocity": 1,
          "duration": 0.5
        },
        {
          "name": "A5",
          "midi": 81,
          "time": 2118.5,
          "velocity": 1,
          "duration": 0.5
        },
        {
          "name": "A5",
          "midi": 81,
          "time": 2119,
          "velocity": 1,
          "duration": 0.5
        },
        {
          "name": "A5",
          "midi": 81,
          "time": 2119.5,
          "velocity": 1,
          "duration": 0.5
        },
        {
          "name": "A5",
          "midi": 81,
          "time": 2120,
          "velocity": 1,
          "duration": 0.5
        },
        {
          "name": "A5",
          "midi": 81,
          "time": 2120.5,
          "velocity": 1,
          "duration": 0.5
        },
        {
          "name": "A5",
          "midi": 81,
          "time": 2121,
          "velocity": 1,
          "duration": 0.5
        },
        {
          "name": "A5",
          "midi": 81,
          "time": 2121.5,
          "velocity": 1,
          "duration": 0.5
        },
        {
          "name": "A5",
          "midi": 81,
          "time": 2122,
          "velocity": 1,
          "duration": 0.5
        },
        {
          "name": "A5",
          "midi": 81,
          "time": 2122.5,
          "velocity": 1,
          "duration": 0.5
        },
        {
          "name": "A5",
          "midi": 81,
          "time": 2123,
          "velocity": 1,
          "duration": 0.5
        },
        {
          "name": "A5",
          "midi": 81,
          "time": 2123.5,
          "velocity": 1,
          "duration": 0.5
        },
        {
          "name": "A5",
          "midi": 81,
          "time": 2124,
          "velocity": 1,
          "duration": 0.5
        },
        {
          "name": "A5",
          "midi": 81,
          "time": 2124.5,
          "velocity": 1,
          "duration": 0.5
        },
        {
          "name": "A5",
          "midi": 81,
          "time": 2125,
          "velocity": 1,
          "duration": 0.5
        },
        {
          "name": "A5",
          "midi": 81,
          "time": 2125.5,
          "velocity": 1,
          "duration": 0.5
        },
        {
          "name": "A5",
          "midi": 81,
          "time": 2126,
          "velocity": 1,
          "duration": 0.5
        },
        {
          "name": "A5",
          "midi": 81,
          "time": 2126.5,
          "velocity": 1,
          "duration": 0.5
        },
        {
          "name": "A5",
          "midi": 81,
          "time": 2127,
          "velocity": 1,
          "duration": 0.5
        },
        {
          "name": "A5",
          "midi": 81,
          "time": 2127.5,
          "velocity": 1,
          "duration": 0.5
        },
        {
          "name": "A5",
          "midi": 81,
          "time": 2128,
          "velocity": 1,
          "duration": 0.5
        },
        {
          "name": "A5",
          "midi": 81,
          "time": 2128.5,
          "velocity": 1,
          "duration": 0.5
        },
        {
          "name": "A5",
          "midi": 81,
          "time": 2129,
          "velocity": 1,
          "duration": 0.5
        },
        {
          "name": "A5",
          "midi": 81,
          "time": 2129.5,
          "velocity": 1,
          "duration": 0.5
        },
        {
          "name": "A5",
          "midi": 81,
          "time": 2130,
          "velocity": 1,
          "duration": 0.5
        },
        {
          "name": "A5",
          "midi": 81,
          "time": 2130.5,
          "velocity": 1,
          "duration": 0.5
        },
        {
          "name": "A5",
          "midi": 81,
          "time": 2131,
          "velocity": 1,
          "duration": 0.5
        },
        {
          "name": "A5",
          "midi": 81,
          "time": 2131.5,
          "velocity": 1,
          "duration": 0.5
        },
        {
          "name": "A5",
          "midi": 81,
          "time": 2132,
          "velocity": 1,
          "duration": 0.5
        },
        {
          "name": "A5",
          "midi": 81,
          "time": 2132.5,
          "velocity": 1,
          "duration": 0.5
        },
        {
          "name": "A5",
          "midi": 81,
          "time": 2133,
          "velocity": 1,
          "duration": 0.5
        },
        {
          "name": "A5",
          "midi": 81,
          "time": 2133.5,
          "velocity": 1,
          "duration": 0.5
        },
        {
          "name": "A5",
          "midi": 81,
          "time": 2134,
          "velocity": 1,
          "duration": 0.5
        },
        {
          "name": "A5",
          "midi": 81,
          "time": 2134.5,
          "velocity": 1,
          "duration": 0.5
        },
        {
          "name": "A5",
          "midi": 81,
          "time": 2135,
          "velocity": 1,
          "duration": 0.5
        },
        {
          "name": "A5",
          "midi": 81,
          "time": 2135.5,
          "velocity": 1,
          "duration": 0.5
        },
        {
          "name": "A5",
          "midi": 81,
          "time": 2136,
          "velocity": 1,
          "duration": 0.5
        },
        {
          "name": "A5",
          "midi": 81,
          "time": 2136.5,
          "velocity": 1,
          "duration": 0.5
        },
        {
          "name": "A5",
          "midi": 81,
          "time": 2137,
          "velocity": 1,
          "duration": 0.5
        },
        {
          "name": "A5",
          "midi": 81,
          "time": 2137.5,
          "velocity": 1,
          "duration": 0.5
        },
        {
          "name": "A5",
          "midi": 81,
          "time": 2138,
          "velocity": 1,
          "duration": 0.5
        },
        {
          "name": "A5",
          "midi": 81,
          "time": 2138.5,
          "velocity": 1,
          "duration": 0.5
        },
        {
          "name": "A5",
          "midi": 81,
          "time": 2139,
          "velocity": 1,
          "duration": 0.5
        },
        {
          "name": "A5",
          "midi": 81,
          "time": 2139.5,
          "velocity": 1,
          "duration": 0.5
        },
        {
          "name": "A5",
          "midi": 81,
          "time": 2140,
          "velocity": 1,
          "duration": 0.5
        },
        {
          "name": "A5",
          "midi": 81,
          "time": 2140.5,
          "velocity": 1,
          "duration": 0.5
        },
        {
          "name": "A5",
          "midi": 81,
          "time": 2141,
          "velocity": 1,
          "duration": 0.5
        },
        {
          "name": "A5",
          "midi": 81,
          "time": 2141.5,
          "velocity": 1,
          "duration": 0.5
        },
        {
          "name": "A5",
          "midi": 81,
          "time": 2142,
          "velocity": 1,
          "duration": 0.5
        },
        {
          "name": "A5",
          "midi": 81,
          "time": 2142.5,
          "velocity": 1,
          "duration": 0.5
        },
        {
          "name": "A5",
          "midi": 81,
          "time": 2143,
          "velocity": 1,
          "duration": 0.5
        },
        {
          "name": "A5",
          "midi": 81,
          "time": 2143.5,
          "velocity": 1,
          "duration": 0.5
        },
        {
          "name": "A5",
          "midi": 81,
          "time": 2144,
          "velocity": 1,
          "duration": 0.5
        },
        {
          "name": "A5",
          "midi": 81,
          "time": 2144.5,
          "velocity": 1,
          "duration": 0.5
        },
        {
          "name": "A5",
          "midi": 81,
          "time": 2145,
          "velocity": 1,
          "duration": 0.5
        },
        {
          "name": "A5",
          "midi": 81,
          "time": 2145.5,
          "velocity": 1,
          "duration": 0.5
        },
        {
          "name": "A5",
          "midi": 81,
          "time": 2146,
          "velocity": 1,
          "duration": 0.5
        },
        {
          "name": "A5",
          "midi": 81,
          "time": 2146.5,
          "velocity": 1,
          "duration": 0.5
        },
        {
          "name": "A5",
          "midi": 81,
          "time": 2147,
          "velocity": 1,
          "duration": 0.5
        },
        {
          "name": "A5",
          "midi": 81,
          "time": 2147.5,
          "velocity": 1,
          "duration": 0.5
        },
        {
          "name": "A5",
          "midi": 81,
          "time": 2148,
          "velocity": 1,
          "duration": 0.5
        },
        {
          "name": "A5",
          "midi": 81,
          "time": 2148.5,
          "velocity": 1,
          "duration": 0.5
        },
        {
          "name": "A5",
          "midi": 81,
          "time": 2149,
          "velocity": 1,
          "duration": 0.5
        },
        {
          "name": "A5",
          "midi": 81,
          "time": 2149.5,
          "velocity": 1,
          "duration": 0.5
        },
        {
          "name": "A5",
          "midi": 81,
          "time": 2150,
          "velocity": 1,
          "duration": 0.5
        },
        {
          "name": "A5",
          "midi": 81,
          "time": 2150.5,
          "velocity": 1,
          "duration": 0.5
        },
        {
          "name": "A5",
          "midi": 81,
          "time": 2151,
          "velocity": 1,
          "duration": 0.5
        },
        {
          "name": "A5",
          "midi": 81,
          "time": 2151.5,
          "velocity": 1,
          "duration": 0.5
        },
        {
          "name": "A5",
          "midi": 81,
          "time": 2152,
          "velocity": 1,
          "duration": 0.5
        },
        {
          "name": "A5",
          "midi": 81,
          "time": 2152.5,
          "velocity": 1,
          "duration": 0.5
        },
        {
          "name": "A5",
          "midi": 81,
          "time": 2153,
          "velocity": 1,
          "duration": 0.5
        },
        {
          "name": "A5",
          "midi": 81,
          "time": 2153.5,
          "velocity": 1,
          "duration": 0.5
        },
        {
          "name": "A5",
          "midi": 81,
          "time": 2154,
          "velocity": 1,
          "duration": 0.5
        },
        {
          "name": "A5",
          "midi": 81,
          "time": 2154.5,
          "velocity": 1,
          "duration": 0.5
        },
        {
          "name": "A5",
          "midi": 81,
          "time": 2155,
          "velocity": 1,
          "duration": 0.5
        },
        {
          "name": "A5",
          "midi": 81,
          "time": 2155.5,
          "velocity": 1,
          "duration": 0.5
        },
        {
          "name": "A5",
          "midi": 81,
          "time": 2156,
          "velocity": 1,
          "duration": 0.5
        },
        {
          "name": "A5",
          "midi": 81,
          "time": 2156.5,
          "velocity": 1,
          "duration": 0.5
        },
        {
          "name": "A5",
          "midi": 81,
          "time": 2157,
          "velocity": 1,
          "duration": 0.5
        },
        {
          "name": "A5",
          "midi": 81,
          "time": 2157.5,
          "velocity": 1,
          "duration": 0.5
        },
        {
          "name": "A5",
          "midi": 81,
          "time": 2158,
          "velocity": 1,
          "duration": 0.5
        },
        {
          "name": "A5",
          "midi": 81,
          "time": 2158.5,
          "velocity": 1,
          "duration": 0.5
        },
        {
          "name": "A5",
          "midi": 81,
          "time": 2159,
          "velocity": 1,
          "duration": 0.5
        },
        {
          "name": "A5",
          "midi": 81,
          "time": 2159.5,
          "velocity": 1,
          "duration": 0.5
        },
        {
          "name": "A5",
          "midi": 81,
          "time": 2160,
          "velocity": 1,
          "duration": 0.5
        },
        {
          "name": "A5",
          "midi": 81,
          "time": 2160.5,
          "velocity": 1,
          "duration": 0.5
        },
        {
          "name": "A5",
          "midi": 81,
          "time": 2161,
          "velocity": 1,
          "duration": 0.5
        },
        {
          "name": "A5",
          "midi": 81,
          "time": 2161.5,
          "velocity": 1,
          "duration": 0.5
        },
        {
          "name": "A5",
          "midi": 81,
          "time": 2162,
          "velocity": 1,
          "duration": 0.5
        },
        {
          "name": "A5",
          "midi": 81,
          "time": 2162.5,
          "velocity": 1,
          "duration": 0.5
        },
        {
          "name": "A5",
          "midi": 81,
          "time": 2163,
          "velocity": 1,
          "duration": 0.5
        },
        {
          "name": "A5",
          "midi": 81,
          "time": 2163.5,
          "velocity": 1,
          "duration": 0.5
        },
        {
          "name": "A5",
          "midi": 81,
          "time": 2164,
          "velocity": 1,
          "duration": 0.5
        },
        {
          "name": "A5",
          "midi": 81,
          "time": 2164.5,
          "velocity": 1,
          "duration": 0.5
        },
        {
          "name": "A5",
          "midi": 81,
          "time": 2165,
          "velocity": 1,
          "duration": 0.5
        },
        {
          "name": "A5",
          "midi": 81,
          "time": 2165.5,
          "velocity": 1,
          "duration": 0.5
        },
        {
          "name": "A5",
          "midi": 81,
          "time": 2166,
          "velocity": 1,
          "duration": 0.5
        },
        {
          "name": "A5",
          "midi": 81,
          "time": 2166.5,
          "velocity": 1,
          "duration": 0.5
        },
        {
          "name": "A5",
          "midi": 81,
          "time": 2167,
          "velocity": 1,
          "duration": 0.5
        },
        {
          "name": "A5",
          "midi": 81,
          "time": 2167.5,
          "velocity": 1,
          "duration": 0.5
        },
        {
          "name": "A5",
          "midi": 81,
          "time": 2168,
          "velocity": 1,
          "duration": 0.5
        },
        {
          "name": "A5",
          "midi": 81,
          "time": 2168.5,
          "velocity": 1,
          "duration": 0.5
        },
        {
          "name": "A5",
          "midi": 81,
          "time": 2169,
          "velocity": 1,
          "duration": 0.5
        },
        {
          "name": "A5",
          "midi": 81,
          "time": 2169.5,
          "velocity": 1,
          "duration": 0.5
        },
        {
          "name": "A5",
          "midi": 81,
          "time": 2170,
          "velocity": 1,
          "duration": 0.5
        },
        {
          "name": "A5",
          "midi": 81,
          "time": 2170.5,
          "velocity": 1,
          "duration": 0.5
        },
        {
          "name": "A5",
          "midi": 81,
          "time": 2171,
          "velocity": 1,
          "duration": 0.5
        },
        {
          "name": "A5",
          "midi": 81,
          "time": 2171.5,
          "velocity": 1,
          "duration": 0.5
        },
        {
          "name": "A5",
          "midi": 81,
          "time": 2172,
          "velocity": 1,
          "duration": 0.5
        },
        {
          "name": "A5",
          "midi": 81,
          "time": 2172.5,
          "velocity": 1,
          "duration": 0.5
        },
        {
          "name": "A5",
          "midi": 81,
          "time": 2173,
          "velocity": 1,
          "duration": 0.5
        },
        {
          "name": "A5",
          "midi": 81,
          "time": 2173.5,
          "velocity": 1,
          "duration": 0.5
        },
        {
          "name": "A5",
          "midi": 81,
          "time": 2174,
          "velocity": 1,
          "duration": 0.5
        },
        {
          "name": "A5",
          "midi": 81,
          "time": 2174.5,
          "velocity": 1,
          "duration": 0.5
        },
        {
          "name": "A5",
          "midi": 81,
          "time": 2175,
          "velocity": 1,
          "duration": 0.5
        },
        {
          "name": "A5",
          "midi": 81,
          "time": 2175.5,
          "velocity": 1,
          "duration": 0.5
        },
        {
          "name": "A5",
          "midi": 81,
          "time": 2176,
          "velocity": 1,
          "duration": 0.5
        },
        {
          "name": "A5",
          "midi": 81,
          "time": 2176.5,
          "velocity": 1,
          "duration": 0.5
        },
        {
          "name": "A5",
          "midi": 81,
          "time": 2177,
          "velocity": 1,
          "duration": 0.5
        },
        {
          "name": "A5",
          "midi": 81,
          "time": 2177.5,
          "velocity": 1,
          "duration": 0.5
        },
        {
          "name": "A5",
          "midi": 81,
          "time": 2178,
          "velocity": 1,
          "duration": 0.5
        },
        {
          "name": "A5",
          "midi": 81,
          "time": 2178.5,
          "velocity": 1,
          "duration": 0.5
        },
        {
          "name": "A5",
          "midi": 81,
          "time": 2179,
          "velocity": 1,
          "duration": 0.5
        },
        {
          "name": "A5",
          "midi": 81,
          "time": 2179.5,
          "velocity": 1,
          "duration": 0.5
        },
        {
          "name": "A5",
          "midi": 81,
          "time": 2180,
          "velocity": 1,
          "duration": 0.5
        },
        {
          "name": "A5",
          "midi": 81,
          "time": 2180.5,
          "velocity": 1,
          "duration": 0.5
        },
        {
          "name": "A5",
          "midi": 81,
          "time": 2181,
          "velocity": 1,
          "duration": 0.5
        },
        {
          "name": "A5",
          "midi": 81,
          "time": 2181.5,
          "velocity": 1,
          "duration": 0.5
        },
        {
          "name": "A5",
          "midi": 81,
          "time": 2182,
          "velocity": 1,
          "duration": 0.5
        },
        {
          "name": "A5",
          "midi": 81,
          "time": 2182.5,
          "velocity": 1,
          "duration": 0.5
        },
        {
          "name": "A5",
          "midi": 81,
          "time": 2183,
          "velocity": 1,
          "duration": 0.5
        },
        {
          "name": "A5",
          "midi": 81,
          "time": 2183.5,
          "velocity": 1,
          "duration": 0.5
        },
        {
          "name": "A5",
          "midi": 81,
          "time": 2184,
          "velocity": 1,
          "duration": 0.5
        },
        {
          "name": "A5",
          "midi": 81,
          "time": 2184.5,
          "velocity": 1,
          "duration": 0.5
        },
        {
          "name": "A5",
          "midi": 81,
          "time": 2185,
          "velocity": 1,
          "duration": 0.5
        },
        {
          "name": "A5",
          "midi": 81,
          "time": 2185.5,
          "velocity": 1,
          "duration": 0.5
        },
        {
          "name": "A5",
          "midi": 81,
          "time": 2186,
          "velocity": 1,
          "duration": 0.5
        },
        {
          "name": "A5",
          "midi": 81,
          "time": 2186.5,
          "velocity": 1,
          "duration": 0.5
        },
        {
          "name": "A5",
          "midi": 81,
          "time": 2187,
          "velocity": 1,
          "duration": 0.5
        },
        {
          "name": "A5",
          "midi": 81,
          "time": 2187.5,
          "velocity": 1,
          "duration": 0.5
        },
        {
          "name": "A5",
          "midi": 81,
          "time": 2188,
          "velocity": 1,
          "duration": 0.5
        },
        {
          "name": "A5",
          "midi": 81,
          "time": 2188.5,
          "velocity": 1,
          "duration": 0.5
        },
        {
          "name": "A5",
          "midi": 81,
          "time": 2189,
          "velocity": 1,
          "duration": 0.5
        },
        {
          "name": "A5",
          "midi": 81,
          "time": 2189.5,
          "velocity": 1,
          "duration": 0.5
        },
        {
          "name": "A5",
          "midi": 81,
          "time": 2190,
          "velocity": 1,
          "duration": 0.5
        },
        {
          "name": "A5",
          "midi": 81,
          "time": 2190.5,
          "velocity": 1,
          "duration": 0.5
        },
        {
          "name": "A5",
          "midi": 81,
          "time": 2191,
          "velocity": 1,
          "duration": 0.5
        },
        {
          "name": "A5",
          "midi": 81,
          "time": 2191.5,
          "velocity": 1,
          "duration": 0.5
        },
        {
          "name": "A5",
          "midi": 81,
          "time": 2192,
          "velocity": 1,
          "duration": 0.5
        },
        {
          "name": "A5",
          "midi": 81,
          "time": 2192.5,
          "velocity": 1,
          "duration": 0.5
        },
        {
          "name": "A5",
          "midi": 81,
          "time": 2193,
          "velocity": 1,
          "duration": 0.5
        },
        {
          "name": "A5",
          "midi": 81,
          "time": 2193.5,
          "velocity": 1,
          "duration": 0.5
        },
        {
          "name": "A5",
          "midi": 81,
          "time": 2194,
          "velocity": 1,
          "duration": 0.5
        },
        {
          "name": "A5",
          "midi": 81,
          "time": 2194.5,
          "velocity": 1,
          "duration": 0.5
        },
        {
          "name": "A5",
          "midi": 81,
          "time": 2195,
          "velocity": 1,
          "duration": 0.5
        },
        {
          "name": "A5",
          "midi": 81,
          "time": 2195.5,
          "velocity": 1,
          "duration": 0.5
        },
        {
          "name": "A5",
          "midi": 81,
          "time": 2196,
          "velocity": 1,
          "duration": 0.5
        },
        {
          "name": "A5",
          "midi": 81,
          "time": 2196.5,
          "velocity": 1,
          "duration": 0.5
        },
        {
          "name": "A5",
          "midi": 81,
          "time": 2197,
          "velocity": 1,
          "duration": 0.5
        },
        {
          "name": "A5",
          "midi": 81,
          "time": 2197.5,
          "velocity": 1,
          "duration": 0.5
        },
        {
          "name": "A5",
          "midi": 81,
          "time": 2198,
          "velocity": 1,
          "duration": 0.5
        },
        {
          "name": "A5",
          "midi": 81,
          "time": 2198.5,
          "velocity": 1,
          "duration": 0.5
        },
        {
          "name": "A5",
          "midi": 81,
          "time": 2199,
          "velocity": 1,
          "duration": 0.5
        },
        {
          "name": "A5",
          "midi": 81,
          "time": 2199.5,
          "velocity": 1,
          "duration": 0.5
        },
        {
          "name": "A5",
          "midi": 81,
          "time": 2200,
          "velocity": 1,
          "duration": 0.5
        },
        {
          "name": "A5",
          "midi": 81,
          "time": 2200.5,
          "velocity": 1,
          "duration": 0.5
        },
        {
          "name": "A5",
          "midi": 81,
          "time": 2201,
          "velocity": 1,
          "duration": 0.5
        },
        {
          "name": "A5",
          "midi": 81,
          "time": 2201.5,
          "velocity": 1,
          "duration": 0.5
        },
        {
          "name": "A5",
          "midi": 81,
          "time": 2202,
          "velocity": 1,
          "duration": 0.5
        },
        {
          "name": "A5",
          "midi": 81,
          "time": 2202.5,
          "velocity": 1,
          "duration": 0.5
        },
        {
          "name": "A5",
          "midi": 81,
          "time": 2203,
          "velocity": 1,
          "duration": 0.5
        },
        {
          "name": "A5",
          "midi": 81,
          "time": 2203.5,
          "velocity": 1,
          "duration": 0.5
        },
        {
          "name": "A5",
          "midi": 81,
          "time": 2204,
          "velocity": 1,
          "duration": 0.5
        },
        {
          "name": "A5",
          "midi": 81,
          "time": 2204.5,
          "velocity": 1,
          "duration": 0.5
        },
        {
          "name": "A5",
          "midi": 81,
          "time": 2205,
          "velocity": 1,
          "duration": 0.5
        },
        {
          "name": "A5",
          "midi": 81,
          "time": 2205.5,
          "velocity": 1,
          "duration": 0.5
        },
        {
          "name": "A5",
          "midi": 81,
          "time": 2206,
          "velocity": 1,
          "duration": 0.5
        },
        {
          "name": "A5",
          "midi": 81,
          "time": 2206.5,
          "velocity": 1,
          "duration": 0.5
        },
        {
          "name": "A5",
          "midi": 81,
          "time": 2207,
          "velocity": 1,
          "duration": 0.5
        },
        {
          "name": "A5",
          "midi": 81,
          "time": 2207.5,
          "velocity": 1,
          "duration": 0.5
        },
        {
          "name": "A5",
          "midi": 81,
          "time": 2208,
          "velocity": 1,
          "duration": 0.5
        },
        {
          "name": "A5",
          "midi": 81,
          "time": 2208.5,
          "velocity": 1,
          "duration": 0.5
        },
        {
          "name": "A5",
          "midi": 81,
          "time": 2209,
          "velocity": 1,
          "duration": 0.5
        },
        {
          "name": "A5",
          "midi": 81,
          "time": 2209.5,
          "velocity": 1,
          "duration": 0.5
        },
        {
          "name": "A5",
          "midi": 81,
          "time": 2210,
          "velocity": 1,
          "duration": 0.5
        },
        {
          "name": "A5",
          "midi": 81,
          "time": 2210.5,
          "velocity": 1,
          "duration": 0.5
        },
        {
          "name": "A5",
          "midi": 81,
          "time": 2211,
          "velocity": 1,
          "duration": 0.5
        },
        {
          "name": "A5",
          "midi": 81,
          "time": 2211.5,
          "velocity": 1,
          "duration": 0.5
        },
        {
          "name": "A5",
          "midi": 81,
          "time": 2212,
          "velocity": 1,
          "duration": 0.5
        },
        {
          "name": "A5",
          "midi": 81,
          "time": 2212.5,
          "velocity": 1,
          "duration": 0.5
        },
        {
          "name": "A5",
          "midi": 81,
          "time": 2213,
          "velocity": 1,
          "duration": 0.5
        },
        {
          "name": "A5",
          "midi": 81,
          "time": 2213.5,
          "velocity": 1,
          "duration": 0.5
        },
        {
          "name": "A5",
          "midi": 81,
          "time": 2214,
          "velocity": 1,
          "duration": 0.5
        },
        {
          "name": "A5",
          "midi": 81,
          "time": 2214.5,
          "velocity": 1,
          "duration": 0.5
        },
        {
          "name": "A5",
          "midi": 81,
          "time": 2215,
          "velocity": 1,
          "duration": 0.5
        },
        {
          "name": "A5",
          "midi": 81,
          "time": 2215.5,
          "velocity": 1,
          "duration": 0.5
        },
        {
          "name": "A5",
          "midi": 81,
          "time": 2216,
          "velocity": 1,
          "duration": 0.5
        },
        {
          "name": "A5",
          "midi": 81,
          "time": 2216.5,
          "velocity": 1,
          "duration": 0.5
        },
        {
          "name": "A5",
          "midi": 81,
          "time": 2217,
          "velocity": 1,
          "duration": 0.5
        },
        {
          "name": "A5",
          "midi": 81,
          "time": 2217.5,
          "velocity": 1,
          "duration": 0.5
        },
        {
          "name": "A5",
          "midi": 81,
          "time": 2218,
          "velocity": 1,
          "duration": 0.5
        },
        {
          "name": "A5",
          "midi": 81,
          "time": 2218.5,
          "velocity": 1,
          "duration": 0.5
        },
        {
          "name": "A5",
          "midi": 81,
          "time": 2219,
          "velocity": 1,
          "duration": 0.5
        },
        {
          "name": "A5",
          "midi": 81,
          "time": 2219.5,
          "velocity": 1,
          "duration": 0.5
        },
        {
          "name": "A5",
          "midi": 81,
          "time": 2220,
          "velocity": 1,
          "duration": 0.5
        },
        {
          "name": "A5",
          "midi": 81,
          "time": 2220.5,
          "velocity": 1,
          "duration": 0.5
        },
        {
          "name": "A5",
          "midi": 81,
          "time": 2221,
          "velocity": 1,
          "duration": 0.5
        },
        {
          "name": "A5",
          "midi": 81,
          "time": 2221.5,
          "velocity": 1,
          "duration": 0.5
        },
        {
          "name": "A5",
          "midi": 81,
          "time": 2222,
          "velocity": 1,
          "duration": 0.5
        },
        {
          "name": "A5",
          "midi": 81,
          "time": 2222.5,
          "velocity": 1,
          "duration": 0.5
        },
        {
          "name": "A5",
          "midi": 81,
          "time": 2223,
          "velocity": 1,
          "duration": 0.5
        },
        {
          "name": "A5",
          "midi": 81,
          "time": 2223.5,
          "velocity": 1,
          "duration": 0.5
        },
        {
          "name": "A5",
          "midi": 81,
          "time": 2224,
          "velocity": 1,
          "duration": 0.5
        },
        {
          "name": "A5",
          "midi": 81,
          "time": 2224.5,
          "velocity": 1,
          "duration": 0.5
        },
        {
          "name": "A5",
          "midi": 81,
          "time": 2225,
          "velocity": 1,
          "duration": 0.5
        },
        {
          "name": "A5",
          "midi": 81,
          "time": 2225.5,
          "velocity": 1,
          "duration": 0.5
        },
        {
          "name": "A5",
          "midi": 81,
          "time": 2226,
          "velocity": 1,
          "duration": 0.5
        },
        {
          "name": "A5",
          "midi": 81,
          "time": 2226.5,
          "velocity": 1,
          "duration": 0.5
        },
        {
          "name": "A5",
          "midi": 81,
          "time": 2227,
          "velocity": 1,
          "duration": 0.5
        },
        {
          "name": "A5",
          "midi": 81,
          "time": 2227.5,
          "velocity": 1,
          "duration": 0.5
        },
        {
          "name": "A5",
          "midi": 81,
          "time": 2228,
          "velocity": 1,
          "duration": 0.5
        },
        {
          "name": "A5",
          "midi": 81,
          "time": 2228.5,
          "velocity": 1,
          "duration": 0.5
        },
        {
          "name": "A5",
          "midi": 81,
          "time": 2229,
          "velocity": 1,
          "duration": 0.5
        },
        {
          "name": "A5",
          "midi": 81,
          "time": 2229.5,
          "velocity": 1,
          "duration": 0.5
        },
        {
          "name": "A5",
          "midi": 81,
          "time": 2230,
          "velocity": 1,
          "duration": 0.5
        },
        {
          "name": "A5",
          "midi": 81,
          "time": 2230.5,
          "velocity": 1,
          "duration": 0.5
        },
        {
          "name": "A5",
          "midi": 81,
          "time": 2231,
          "velocity": 1,
          "duration": 0.5
        },
        {
          "name": "A5",
          "midi": 81,
          "time": 2231.5,
          "velocity": 1,
          "duration": 0.5
        },
        {
          "name": "A5",
          "midi": 81,
          "time": 2232,
          "velocity": 1,
          "duration": 0.5
        },
        {
          "name": "A5",
          "midi": 81,
          "time": 2232.5,
          "velocity": 1,
          "duration": 0.5
        },
        {
          "name": "A5",
          "midi": 81,
          "time": 2233,
          "velocity": 1,
          "duration": 0.5
        },
        {
          "name": "A5",
          "midi": 81,
          "time": 2233.5,
          "velocity": 1,
          "duration": 0.5
        },
        {
          "name": "A5",
          "midi": 81,
          "time": 2234,
          "velocity": 1,
          "duration": 0.5
        },
        {
          "name": "A5",
          "midi": 81,
          "time": 2234.5,
          "velocity": 1,
          "duration": 0.5
        },
        {
          "name": "A5",
          "midi": 81,
          "time": 2235,
          "velocity": 1,
          "duration": 0.5
        },
        {
          "name": "A5",
          "midi": 81,
          "time": 2235.5,
          "velocity": 1,
          "duration": 0.5
        },
        {
          "name": "A5",
          "midi": 81,
          "time": 2236,
          "velocity": 1,
          "duration": 0.5
        },
        {
          "name": "A5",
          "midi": 81,
          "time": 2236.5,
          "velocity": 1,
          "duration": 0.5
        },
        {
          "name": "A5",
          "midi": 81,
          "time": 2237,
          "velocity": 1,
          "duration": 0.5
        },
        {
          "name": "A5",
          "midi": 81,
          "time": 2237.5,
          "velocity": 1,
          "duration": 0.5
        },
        {
          "name": "A5",
          "midi": 81,
          "time": 2238,
          "velocity": 1,
          "duration": 0.5
        },
        {
          "name": "A5",
          "midi": 81,
          "time": 2238.5,
          "velocity": 1,
          "duration": 0.5
        },
        {
          "name": "A5",
          "midi": 81,
          "time": 2239,
          "velocity": 1,
          "duration": 0.5
        },
        {
          "name": "A5",
          "midi": 81,
          "time": 2239.5,
          "velocity": 1,
          "duration": 0.5
        },
        {
          "name": "A5",
          "midi": 81,
          "time": 2240,
          "velocity": 1,
          "duration": 0.5
        },
        {
          "name": "A5",
          "midi": 81,
          "time": 2240.5,
          "velocity": 1,
          "duration": 0.5
        },
        {
          "name": "A5",
          "midi": 81,
          "time": 2241,
          "velocity": 1,
          "duration": 0.5
        },
        {
          "name": "A5",
          "midi": 81,
          "time": 2241.5,
          "velocity": 1,
          "duration": 0.5
        },
        {
          "name": "A5",
          "midi": 81,
          "time": 2242,
          "velocity": 1,
          "duration": 0.5
        },
        {
          "name": "A5",
          "midi": 81,
          "time": 2242.5,
          "velocity": 1,
          "duration": 0.5
        },
        {
          "name": "A5",
          "midi": 81,
          "time": 2243,
          "velocity": 1,
          "duration": 0.5
        },
        {
          "name": "A5",
          "midi": 81,
          "time": 2243.5,
          "velocity": 1,
          "duration": 0.5
        },
        {
          "name": "A5",
          "midi": 81,
          "time": 2244,
          "velocity": 1,
          "duration": 0.5
        },
        {
          "name": "A5",
          "midi": 81,
          "time": 2244.5,
          "velocity": 1,
          "duration": 0.5
        },
        {
          "name": "A5",
          "midi": 81,
          "time": 2245,
          "velocity": 1,
          "duration": 0.5
        },
        {
          "name": "A5",
          "midi": 81,
          "time": 2245.5,
          "velocity": 1,
          "duration": 0.5
        },
        {
          "name": "A5",
          "midi": 81,
          "time": 2246,
          "velocity": 1,
          "duration": 0.5
        },
        {
          "name": "A5",
          "midi": 81,
          "time": 2246.5,
          "velocity": 1,
          "duration": 0.5
        },
        {
          "name": "A5",
          "midi": 81,
          "time": 2247,
          "velocity": 1,
          "duration": 0.5
        },
        {
          "name": "A5",
          "midi": 81,
          "time": 2247.5,
          "velocity": 1,
          "duration": 0.5
        },
        {
          "name": "A5",
          "midi": 81,
          "time": 2248,
          "velocity": 1,
          "duration": 0.5
        },
        {
          "name": "A5",
          "midi": 81,
          "time": 2248.5,
          "velocity": 1,
          "duration": 0.5
        },
        {
          "name": "A5",
          "midi": 81,
          "time": 2249,
          "velocity": 1,
          "duration": 0.5
        },
        {
          "name": "A5",
          "midi": 81,
          "time": 2249.5,
          "velocity": 1,
          "duration": 0.5
        },
        {
          "name": "A5",
          "midi": 81,
          "time": 2250,
          "velocity": 1,
          "duration": 0.5
        },
        {
          "name": "A5",
          "midi": 81,
          "time": 2250.5,
          "velocity": 1,
          "duration": 0.5
        },
        {
          "name": "A5",
          "midi": 81,
          "time": 2251,
          "velocity": 1,
          "duration": 0.5
        },
        {
          "name": "A5",
          "midi": 81,
          "time": 2251.5,
          "velocity": 1,
          "duration": 0.5
        },
        {
          "name": "A5",
          "midi": 81,
          "time": 2252,
          "velocity": 1,
          "duration": 0.5
        },
        {
          "name": "A5",
          "midi": 81,
          "time": 2252.5,
          "velocity": 1,
          "duration": 0.5
        },
        {
          "name": "A5",
          "midi": 81,
          "time": 2253,
          "velocity": 1,
          "duration": 0.5
        },
        {
          "name": "A5",
          "midi": 81,
          "time": 2253.5,
          "velocity": 1,
          "duration": 0.5
        },
        {
          "name": "A5",
          "midi": 81,
          "time": 2254,
          "velocity": 1,
          "duration": 0.5
        },
        {
          "name": "A5",
          "midi": 81,
          "time": 2254.5,
          "velocity": 1,
          "duration": 0.5
        },
        {
          "name": "A5",
          "midi": 81,
          "time": 2255,
          "velocity": 1,
          "duration": 0.5
        },
        {
          "name": "A5",
          "midi": 81,
          "time": 2255.5,
          "velocity": 1,
          "duration": 0.5
        },
        {
          "name": "A5",
          "midi": 81,
          "time": 2256,
          "velocity": 1,
          "duration": 0.5
        },
        {
          "name": "A5",
          "midi": 81,
          "time": 2256.5,
          "velocity": 1,
          "duration": 0.5
        },
        {
          "name": "A5",
          "midi": 81,
          "time": 2257,
          "velocity": 1,
          "duration": 0.5
        },
        {
          "name": "A5",
          "midi": 81,
          "time": 2257.5,
          "velocity": 1,
          "duration": 0.5
        },
        {
          "name": "A5",
          "midi": 81,
          "time": 2258,
          "velocity": 1,
          "duration": 0.5
        },
        {
          "name": "A5",
          "midi": 81,
          "time": 2258.5,
          "velocity": 1,
          "duration": 0.5
        },
        {
          "name": "A5",
          "midi": 81,
          "time": 2259,
          "velocity": 1,
          "duration": 0.5
        },
        {
          "name": "A5",
          "midi": 81,
          "time": 2259.5,
          "velocity": 1,
          "duration": 0.5
        },
        {
          "name": "A5",
          "midi": 81,
          "time": 2260,
          "velocity": 1,
          "duration": 0.5
        },
        {
          "name": "A5",
          "midi": 81,
          "time": 2260.5,
          "velocity": 1,
          "duration": 0.5
        },
        {
          "name": "A5",
          "midi": 81,
          "time": 2261,
          "velocity": 1,
          "duration": 0.5
        },
        {
          "name": "A5",
          "midi": 81,
          "time": 2261.5,
          "velocity": 1,
          "duration": 0.5
        },
        {
          "name": "A5",
          "midi": 81,
          "time": 2262,
          "velocity": 1,
          "duration": 0.5
        },
        {
          "name": "A5",
          "midi": 81,
          "time": 2262.5,
          "velocity": 1,
          "duration": 0.5
        },
        {
          "name": "A5",
          "midi": 81,
          "time": 2263,
          "velocity": 1,
          "duration": 0.5
        },
        {
          "name": "A5",
          "midi": 81,
          "time": 2263.5,
          "velocity": 1,
          "duration": 0.5
        },
        {
          "name": "A5",
          "midi": 81,
          "time": 2264,
          "velocity": 1,
          "duration": 0.5
        },
        {
          "name": "A5",
          "midi": 81,
          "time": 2264.5,
          "velocity": 1,
          "duration": 0.5
        },
        {
          "name": "A5",
          "midi": 81,
          "time": 2265,
          "velocity": 1,
          "duration": 0.5
        },
        {
          "name": "A5",
          "midi": 81,
          "time": 2265.5,
          "velocity": 1,
          "duration": 0.5
        },
        {
          "name": "A5",
          "midi": 81,
          "time": 2266,
          "velocity": 1,
          "duration": 0.5
        },
        {
          "name": "A5",
          "midi": 81,
          "time": 2266.5,
          "velocity": 1,
          "duration": 0.5
        },
        {
          "name": "A5",
          "midi": 81,
          "time": 2267,
          "velocity": 1,
          "duration": 0.5
        },
        {
          "name": "A5",
          "midi": 81,
          "time": 2267.5,
          "velocity": 1,
          "duration": 0.5
        },
        {
          "name": "A5",
          "midi": 81,
          "time": 2268,
          "velocity": 1,
          "duration": 0.5
        },
        {
          "name": "A5",
          "midi": 81,
          "time": 2268.5,
          "velocity": 1,
          "duration": 0.5
        },
        {
          "name": "A5",
          "midi": 81,
          "time": 2269,
          "velocity": 1,
          "duration": 0.5
        },
        {
          "name": "A5",
          "midi": 81,
          "time": 2269.5,
          "velocity": 1,
          "duration": 0.5
        },
        {
          "name": "A5",
          "midi": 81,
          "time": 2270,
          "velocity": 1,
          "duration": 0.5
        },
        {
          "name": "A5",
          "midi": 81,
          "time": 2270.5,
          "velocity": 1,
          "duration": 0.5
        },
        {
          "name": "A5",
          "midi": 81,
          "time": 2271,
          "velocity": 1,
          "duration": 0.5
        },
        {
          "name": "A5",
          "midi": 81,
          "time": 2271.5,
          "velocity": 1,
          "duration": 0.5
        },
        {
          "name": "A5",
          "midi": 81,
          "time": 2272,
          "velocity": 1,
          "duration": 0.5
        },
        {
          "name": "A5",
          "midi": 81,
          "time": 2272.5,
          "velocity": 1,
          "duration": 0.5
        },
        {
          "name": "A5",
          "midi": 81,
          "time": 2273,
          "velocity": 1,
          "duration": 0.5
        },
        {
          "name": "A5",
          "midi": 81,
          "time": 2273.5,
          "velocity": 1,
          "duration": 0.5
        },
        {
          "name": "A5",
          "midi": 81,
          "time": 2274,
          "velocity": 1,
          "duration": 0.5
        },
        {
          "name": "A5",
          "midi": 81,
          "time": 2274.5,
          "velocity": 1,
          "duration": 0.5
        },
        {
          "name": "A5",
          "midi": 81,
          "time": 2275,
          "velocity": 1,
          "duration": 0.5
        },
        {
          "name": "A5",
          "midi": 81,
          "time": 2275.5,
          "velocity": 1,
          "duration": 0.5
        },
        {
          "name": "A5",
          "midi": 81,
          "time": 2276,
          "velocity": 1,
          "duration": 0.5
        },
        {
          "name": "A5",
          "midi": 81,
          "time": 2276.5,
          "velocity": 1,
          "duration": 0.5
        },
        {
          "name": "A5",
          "midi": 81,
          "time": 2277,
          "velocity": 1,
          "duration": 0.5
        },
        {
          "name": "A5",
          "midi": 81,
          "time": 2277.5,
          "velocity": 1,
          "duration": 0.5
        },
        {
          "name": "A5",
          "midi": 81,
          "time": 2278,
          "velocity": 1,
          "duration": 0.5
        },
        {
          "name": "A5",
          "midi": 81,
          "time": 2278.5,
          "velocity": 1,
          "duration": 0.5
        },
        {
          "name": "A5",
          "midi": 81,
          "time": 2279,
          "velocity": 1,
          "duration": 0.5
        },
        {
          "name": "A5",
          "midi": 81,
          "time": 2279.5,
          "velocity": 1,
          "duration": 0.5
        },
        {
          "name": "A5",
          "midi": 81,
          "time": 2280,
          "velocity": 1,
          "duration": 0.5
        },
        {
          "name": "A5",
          "midi": 81,
          "time": 2280.5,
          "velocity": 1,
          "duration": 0.5
        },
        {
          "name": "A5",
          "midi": 81,
          "time": 2281,
          "velocity": 1,
          "duration": 0.5
        },
        {
          "name": "A5",
          "midi": 81,
          "time": 2281.5,
          "velocity": 1,
          "duration": 0.5
        },
        {
          "name": "A5",
          "midi": 81,
          "time": 2282,
          "velocity": 1,
          "duration": 0.5
        },
        {
          "name": "A5",
          "midi": 81,
          "time": 2282.5,
          "velocity": 1,
          "duration": 0.5
        },
        {
          "name": "A5",
          "midi": 81,
          "time": 2283,
          "velocity": 1,
          "duration": 0.5
        },
        {
          "name": "A5",
          "midi": 81,
          "time": 2283.5,
          "velocity": 1,
          "duration": 0.5
        },
        {
          "name": "A5",
          "midi": 81,
          "time": 2284,
          "velocity": 1,
          "duration": 0.5
        },
        {
          "name": "A5",
          "midi": 81,
          "time": 2284.5,
          "velocity": 1,
          "duration": 0.5
        },
        {
          "name": "A5",
          "midi": 81,
          "time": 2285,
          "velocity": 1,
          "duration": 0.5
        },
        {
          "name": "A5",
          "midi": 81,
          "time": 2285.5,
          "velocity": 1,
          "duration": 0.5
        },
        {
          "name": "A5",
          "midi": 81,
          "time": 2286,
          "velocity": 1,
          "duration": 0.5
        },
        {
          "name": "A5",
          "midi": 81,
          "time": 2286.5,
          "velocity": 1,
          "duration": 0.5
        },
        {
          "name": "A5",
          "midi": 81,
          "time": 2287,
          "velocity": 1,
          "duration": 0.5
        },
        {
          "name": "A5",
          "midi": 81,
          "time": 2287.5,
          "velocity": 1,
          "duration": 0.5
        },
        {
          "name": "A5",
          "midi": 81,
          "time": 2288,
          "velocity": 1,
          "duration": 0.5
        },
        {
          "name": "A5",
          "midi": 81,
          "time": 2288.5,
          "velocity": 1,
          "duration": 0.5
        },
        {
          "name": "A5",
          "midi": 81,
          "time": 2289,
          "velocity": 1,
          "duration": 0.5
        },
        {
          "name": "A5",
          "midi": 81,
          "time": 2289.5,
          "velocity": 1,
          "duration": 0.5
        },
        {
          "name": "A5",
          "midi": 81,
          "time": 2290,
          "velocity": 1,
          "duration": 0.5
        },
        {
          "name": "A5",
          "midi": 81,
          "time": 2290.5,
          "velocity": 1,
          "duration": 0.5
        },
        {
          "name": "A5",
          "midi": 81,
          "time": 2291,
          "velocity": 1,
          "duration": 0.5
        },
        {
          "name": "A5",
          "midi": 81,
          "time": 2291.5,
          "velocity": 1,
          "duration": 0.5
        },
        {
          "name": "A5",
          "midi": 81,
          "time": 2292,
          "velocity": 1,
          "duration": 0.5
        },
        {
          "name": "A5",
          "midi": 81,
          "time": 2292.5,
          "velocity": 1,
          "duration": 0.5
        },
        {
          "name": "A5",
          "midi": 81,
          "time": 2293,
          "velocity": 1,
          "duration": 0.5
        },
        {
          "name": "A5",
          "midi": 81,
          "time": 2293.5,
          "velocity": 1,
          "duration": 0.5
        },
        {
          "name": "A5",
          "midi": 81,
          "time": 2294,
          "velocity": 1,
          "duration": 0.5
        },
        {
          "name": "A5",
          "midi": 81,
          "time": 2294.5,
          "velocity": 1,
          "duration": 0.5
        },
        {
          "name": "A5",
          "midi": 81,
          "time": 2295,
          "velocity": 1,
          "duration": 0.5
        },
        {
          "name": "A5",
          "midi": 81,
          "time": 2295.5,
          "velocity": 1,
          "duration": 0.5
        },
        {
          "name": "A5",
          "midi": 81,
          "time": 2296,
          "velocity": 1,
          "duration": 0.5
        },
        {
          "name": "A5",
          "midi": 81,
          "time": 2296.5,
          "velocity": 1,
          "duration": 0.5
        },
        {
          "name": "A5",
          "midi": 81,
          "time": 2297,
          "velocity": 1,
          "duration": 0.5
        },
        {
          "name": "A5",
          "midi": 81,
          "time": 2297.5,
          "velocity": 1,
          "duration": 0.5
        },
        {
          "name": "A5",
          "midi": 81,
          "time": 2298,
          "velocity": 1,
          "duration": 0.5
        },
        {
          "name": "A5",
          "midi": 81,
          "time": 2298.5,
          "velocity": 1,
          "duration": 0.5
        },
        {
          "name": "A5",
          "midi": 81,
          "time": 2299,
          "velocity": 1,
          "duration": 0.5
        },
        {
          "name": "A5",
          "midi": 81,
          "time": 2299.5,
          "velocity": 1,
          "duration": 0.5
        },
        {
          "name": "A5",
          "midi": 81,
          "time": 2300,
          "velocity": 1,
          "duration": 0.5
        },
        {
          "name": "A5",
          "midi": 81,
          "time": 2300.5,
          "velocity": 1,
          "duration": 0.5
        },
        {
          "name": "A5",
          "midi": 81,
          "time": 2301,
          "velocity": 1,
          "duration": 0.5
        },
        {
          "name": "A5",
          "midi": 81,
          "time": 2301.5,
          "velocity": 1,
          "duration": 0.5
        },
        {
          "name": "A5",
          "midi": 81,
          "time": 2302,
          "velocity": 1,
          "duration": 0.5
        },
        {
          "name": "A5",
          "midi": 81,
          "time": 2302.5,
          "velocity": 1,
          "duration": 0.5
        },
        {
          "name": "A5",
          "midi": 81,
          "time": 2303,
          "velocity": 1,
          "duration": 0.5
        },
        {
          "name": "A5",
          "midi": 81,
          "time": 2303.5,
          "velocity": 1,
          "duration": 0.5
        },
        {
          "name": "A5",
          "midi": 81,
          "time": 2304,
          "velocity": 1,
          "duration": 0.5
        },
        {
          "name": "A5",
          "midi": 81,
          "time": 2304.5,
          "velocity": 1,
          "duration": 0.5
        },
        {
          "name": "A5",
          "midi": 81,
          "time": 2305,
          "velocity": 1,
          "duration": 0.5
        },
        {
          "name": "A5",
          "midi": 81,
          "time": 2305.5,
          "velocity": 1,
          "duration": 0.5
        },
        {
          "name": "A5",
          "midi": 81,
          "time": 2306,
          "velocity": 1,
          "duration": 0.5
        },
        {
          "name": "A5",
          "midi": 81,
          "time": 2306.5,
          "velocity": 1,
          "duration": 0.5
        },
        {
          "name": "A5",
          "midi": 81,
          "time": 2307,
          "velocity": 1,
          "duration": 0.5
        },
        {
          "name": "A5",
          "midi": 81,
          "time": 2307.5,
          "velocity": 1,
          "duration": 0.5
        },
        {
          "name": "A5",
          "midi": 81,
          "time": 2308,
          "velocity": 1,
          "duration": 0.5
        },
        {
          "name": "A5",
          "midi": 81,
          "time": 2308.5,
          "velocity": 1,
          "duration": 0.5
        },
        {
          "name": "A5",
          "midi": 81,
          "time": 2309,
          "velocity": 1,
          "duration": 0.5
        },
        {
          "name": "A5",
          "midi": 81,
          "time": 2309.5,
          "velocity": 1,
          "duration": 0.5
        },
        {
          "name": "A5",
          "midi": 81,
          "time": 2310,
          "velocity": 1,
          "duration": 0.5
        },
        {
          "name": "A5",
          "midi": 81,
          "time": 2310.5,
          "velocity": 1,
          "duration": 0.5
        },
        {
          "name": "A5",
          "midi": 81,
          "time": 2311,
          "velocity": 1,
          "duration": 0.5
        },
        {
          "name": "A5",
          "midi": 81,
          "time": 2311.5,
          "velocity": 1,
          "duration": 0.5
        },
        {
          "name": "A5",
          "midi": 81,
          "time": 2312,
          "velocity": 1,
          "duration": 0.5
        },
        {
          "name": "A5",
          "midi": 81,
          "time": 2312.5,
          "velocity": 1,
          "duration": 0.5
        },
        {
          "name": "A5",
          "midi": 81,
          "time": 2313,
          "velocity": 1,
          "duration": 0.5
        },
        {
          "name": "A5",
          "midi": 81,
          "time": 2313.5,
          "velocity": 1,
          "duration": 0.5
        },
        {
          "name": "A5",
          "midi": 81,
          "time": 2314,
          "velocity": 1,
          "duration": 0.5
        },
        {
          "name": "A5",
          "midi": 81,
          "time": 2314.5,
          "velocity": 1,
          "duration": 0.5
        },
        {
          "name": "A5",
          "midi": 81,
          "time": 2315,
          "velocity": 1,
          "duration": 0.5
        },
        {
          "name": "A5",
          "midi": 81,
          "time": 2315.5,
          "velocity": 1,
          "duration": 0.5
        },
        {
          "name": "A5",
          "midi": 81,
          "time": 2316,
          "velocity": 1,
          "duration": 0.5
        },
        {
          "name": "A5",
          "midi": 81,
          "time": 2316.5,
          "velocity": 1,
          "duration": 0.5
        },
        {
          "name": "A5",
          "midi": 81,
          "time": 2317,
          "velocity": 1,
          "duration": 0.5
        },
        {
          "name": "A5",
          "midi": 81,
          "time": 2317.5,
          "velocity": 1,
          "duration": 0.5
        },
        {
          "name": "A5",
          "midi": 81,
          "time": 2318,
          "velocity": 1,
          "duration": 0.5
        },
        {
          "name": "A5",
          "midi": 81,
          "time": 2318.5,
          "velocity": 1,
          "duration": 0.5
        },
        {
          "name": "A5",
          "midi": 81,
          "time": 2319,
          "velocity": 1,
          "duration": 0.5
        },
        {
          "name": "A5",
          "midi": 81,
          "time": 2319.5,
          "velocity": 1,
          "duration": 0.5
        },
        {
          "name": "A5",
          "midi": 81,
          "time": 2320,
          "velocity": 1,
          "duration": 0.5
        },
        {
          "name": "A5",
          "midi": 81,
          "time": 2320.5,
          "velocity": 1,
          "duration": 0.5
        },
        {
          "name": "A5",
          "midi": 81,
          "time": 2321,
          "velocity": 1,
          "duration": 0.5
        },
        {
          "name": "A5",
          "midi": 81,
          "time": 2321.5,
          "velocity": 1,
          "duration": 0.5
        },
        {
          "name": "A5",
          "midi": 81,
          "time": 2322,
          "velocity": 1,
          "duration": 0.5
        },
        {
          "name": "A5",
          "midi": 81,
          "time": 2322.5,
          "velocity": 1,
          "duration": 0.5
        },
        {
          "name": "A5",
          "midi": 81,
          "time": 2323,
          "velocity": 1,
          "duration": 0.5
        },
        {
          "name": "A5",
          "midi": 81,
          "time": 2323.5,
          "velocity": 1,
          "duration": 0.5
        },
        {
          "name": "A5",
          "midi": 81,
          "time": 2324,
          "velocity": 1,
          "duration": 0.5
        },
        {
          "name": "A5",
          "midi": 81,
          "time": 2324.5,
          "velocity": 1,
          "duration": 0.5
        },
        {
          "name": "A5",
          "midi": 81,
          "time": 2325,
          "velocity": 1,
          "duration": 0.5
        },
        {
          "name": "A5",
          "midi": 81,
          "time": 2325.5,
          "velocity": 1,
          "duration": 0.5
        },
        {
          "name": "A5",
          "midi": 81,
          "time": 2326,
          "velocity": 1,
          "duration": 0.5
        },
        {
          "name": "A5",
          "midi": 81,
          "time": 2326.5,
          "velocity": 1,
          "duration": 0.5
        },
        {
          "name": "A5",
          "midi": 81,
          "time": 2327,
          "velocity": 1,
          "duration": 0.5
        },
        {
          "name": "A5",
          "midi": 81,
          "time": 2327.5,
          "velocity": 1,
          "duration": 0.5
        },
        {
          "name": "A5",
          "midi": 81,
          "time": 2328,
          "velocity": 1,
          "duration": 0.5
        },
        {
          "name": "A5",
          "midi": 81,
          "time": 2328.5,
          "velocity": 1,
          "duration": 0.5
        },
        {
          "name": "A5",
          "midi": 81,
          "time": 2329,
          "velocity": 1,
          "duration": 0.5
        },
        {
          "name": "A5",
          "midi": 81,
          "time": 2329.5,
          "velocity": 1,
          "duration": 0.5
        },
        {
          "name": "A5",
          "midi": 81,
          "time": 2330,
          "velocity": 1,
          "duration": 0.5
        },
        {
          "name": "A5",
          "midi": 81,
          "time": 2330.5,
          "velocity": 1,
          "duration": 0.5
        },
        {
          "name": "A5",
          "midi": 81,
          "time": 2331,
          "velocity": 1,
          "duration": 0.5
        },
        {
          "name": "A5",
          "midi": 81,
          "time": 2331.5,
          "velocity": 1,
          "duration": 0.5
        },
        {
          "name": "A5",
          "midi": 81,
          "time": 2332,
          "velocity": 1,
          "duration": 0.5
        },
        {
          "name": "A5",
          "midi": 81,
          "time": 2332.5,
          "velocity": 1,
          "duration": 0.5
        },
        {
          "name": "A5",
          "midi": 81,
          "time": 2333,
          "velocity": 1,
          "duration": 0.5
        },
        {
          "name": "A5",
          "midi": 81,
          "time": 2333.5,
          "velocity": 1,
          "duration": 0.5
        },
        {
          "name": "A5",
          "midi": 81,
          "time": 2334,
          "velocity": 1,
          "duration": 0.5
        },
        {
          "name": "A5",
          "midi": 81,
          "time": 2334.5,
          "velocity": 1,
          "duration": 0.5
        },
        {
          "name": "A5",
          "midi": 81,
          "time": 2335,
          "velocity": 1,
          "duration": 0.5
        },
        {
          "name": "A5",
          "midi": 81,
          "time": 2335.5,
          "velocity": 1,
          "duration": 0.5
        },
        {
          "name": "A5",
          "midi": 81,
          "time": 2336,
          "velocity": 1,
          "duration": 0.5
        },
        {
          "name": "A5",
          "midi": 81,
          "time": 2336.5,
          "velocity": 1,
          "duration": 0.5
        },
        {
          "name": "A5",
          "midi": 81,
          "time": 2337,
          "velocity": 1,
          "duration": 0.5
        },
        {
          "name": "A5",
          "midi": 81,
          "time": 2337.5,
          "velocity": 1,
          "duration": 0.5
        },
        {
          "name": "A5",
          "midi": 81,
          "time": 2338,
          "velocity": 1,
          "duration": 0.5
        },
        {
          "name": "A5",
          "midi": 81,
          "time": 2338.5,
          "velocity": 1,
          "duration": 0.5
        },
        {
          "name": "A5",
          "midi": 81,
          "time": 2339,
          "velocity": 1,
          "duration": 0.5
        },
        {
          "name": "A5",
          "midi": 81,
          "time": 2339.5,
          "velocity": 1,
          "duration": 0.5
        },
        {
          "name": "A5",
          "midi": 81,
          "time": 2340,
          "velocity": 1,
          "duration": 0.5
        },
        {
          "name": "A5",
          "midi": 81,
          "time": 2340.5,
          "velocity": 1,
          "duration": 0.5
        },
        {
          "name": "A5",
          "midi": 81,
          "time": 2341,
          "velocity": 1,
          "duration": 0.5
        },
        {
          "name": "A5",
          "midi": 81,
          "time": 2341.5,
          "velocity": 1,
          "duration": 0.5
        },
        {
          "name": "A5",
          "midi": 81,
          "time": 2342,
          "velocity": 1,
          "duration": 0.5
        },
        {
          "name": "A5",
          "midi": 81,
          "time": 2342.5,
          "velocity": 1,
          "duration": 0.5
        },
        {
          "name": "A5",
          "midi": 81,
          "time": 2343,
          "velocity": 1,
          "duration": 0.5
        },
        {
          "name": "A5",
          "midi": 81,
          "time": 2343.5,
          "velocity": 1,
          "duration": 0.5
        },
        {
          "name": "A5",
          "midi": 81,
          "time": 2344,
          "velocity": 1,
          "duration": 0.5
        },
        {
          "name": "A5",
          "midi": 81,
          "time": 2344.5,
          "velocity": 1,
          "duration": 0.5
        },
        {
          "name": "A5",
          "midi": 81,
          "time": 2345,
          "velocity": 1,
          "duration": 0.5
        },
        {
          "name": "A5",
          "midi": 81,
          "time": 2345.5,
          "velocity": 1,
          "duration": 0.5
        },
        {
          "name": "A5",
          "midi": 81,
          "time": 2346,
          "velocity": 1,
          "duration": 0.5
        },
        {
          "name": "A5",
          "midi": 81,
          "time": 2346.5,
          "velocity": 1,
          "duration": 0.5
        },
        {
          "name": "A5",
          "midi": 81,
          "time": 2347,
          "velocity": 1,
          "duration": 0.5
        },
        {
          "name": "A5",
          "midi": 81,
          "time": 2347.5,
          "velocity": 1,
          "duration": 0.5
        },
        {
          "name": "A5",
          "midi": 81,
          "time": 2348,
          "velocity": 1,
          "duration": 0.5
        },
        {
          "name": "A5",
          "midi": 81,
          "time": 2348.5,
          "velocity": 1,
          "duration": 0.5
        },
        {
          "name": "A5",
          "midi": 81,
          "time": 2349,
          "velocity": 1,
          "duration": 0.5
        },
        {
          "name": "A5",
          "midi": 81,
          "time": 2349.5,
          "velocity": 1,
          "duration": 0.5
        },
        {
          "name": "A5",
          "midi": 81,
          "time": 2350,
          "velocity": 1,
          "duration": 0.5
        },
        {
          "name": "A5",
          "midi": 81,
          "time": 2350.5,
          "velocity": 1,
          "duration": 0.5
        },
        {
          "name": "A5",
          "midi": 81,
          "time": 2351,
          "velocity": 1,
          "duration": 0.5
        },
        {
          "name": "A5",
          "midi": 81,
          "time": 2351.5,
          "velocity": 1,
          "duration": 0.5
        },
        {
          "name": "A5",
          "midi": 81,
          "time": 2352,
          "velocity": 1,
          "duration": 0.5
        },
        {
          "name": "A5",
          "midi": 81,
          "time": 2352.5,
          "velocity": 1,
          "duration": 0.5
        },
        {
          "name": "A5",
          "midi": 81,
          "time": 2353,
          "velocity": 1,
          "duration": 0.5
        },
        {
          "name": "A5",
          "midi": 81,
          "time": 2353.5,
          "velocity": 1,
          "duration": 0.5
        },
        {
          "name": "A5",
          "midi": 81,
          "time": 2354,
          "velocity": 1,
          "duration": 0.5
        },
        {
          "name": "A5",
          "midi": 81,
          "time": 2354.5,
          "velocity": 1,
          "duration": 0.5
        },
        {
          "name": "A5",
          "midi": 81,
          "time": 2355,
          "velocity": 1,
          "duration": 0.5
        },
        {
          "name": "A5",
          "midi": 81,
          "time": 2355.5,
          "velocity": 1,
          "duration": 0.5
        },
        {
          "name": "A5",
          "midi": 81,
          "time": 2356,
          "velocity": 1,
          "duration": 0.5
        },
        {
          "name": "A5",
          "midi": 81,
          "time": 2356.5,
          "velocity": 1,
          "duration": 0.5
        },
        {
          "name": "A5",
          "midi": 81,
          "time": 2357,
          "velocity": 1,
          "duration": 0.5
        },
        {
          "name": "A5",
          "midi": 81,
          "time": 2357.5,
          "velocity": 1,
          "duration": 0.5
        },
        {
          "name": "A5",
          "midi": 81,
          "time": 2358,
          "velocity": 1,
          "duration": 0.5
        },
        {
          "name": "A5",
          "midi": 81,
          "time": 2358.5,
          "velocity": 1,
          "duration": 0.5
        },
        {
          "name": "A5",
          "midi": 81,
          "time": 2359,
          "velocity": 1,
          "duration": 0.5
        },
        {
          "name": "A5",
          "midi": 81,
          "time": 2359.5,
          "velocity": 1,
          "duration": 0.5
        },
        {
          "name": "A5",
          "midi": 81,
          "time": 2360,
          "velocity": 1,
          "duration": 0.5
        },
        {
          "name": "A5",
          "midi": 81,
          "time": 2360.5,
          "velocity": 1,
          "duration": 0.5
        },
        {
          "name": "A5",
          "midi": 81,
          "time": 2361,
          "velocity": 1,
          "duration": 0.5
        },
        {
          "name": "A5",
          "midi": 81,
          "time": 2361.5,
          "velocity": 1,
          "duration": 0.5
        },
        {
          "name": "A5",
          "midi": 81,
          "time": 2362,
          "velocity": 1,
          "duration": 0.5
        },
        {
          "name": "A5",
          "midi": 81,
          "time": 2362.5,
          "velocity": 1,
          "duration": 0.5
        },
        {
          "name": "A5",
          "midi": 81,
          "time": 2363,
          "velocity": 1,
          "duration": 0.5
        },
        {
          "name": "A5",
          "midi": 81,
          "time": 2363.5,
          "velocity": 1,
          "duration": 0.5
        },
        {
          "name": "A5",
          "midi": 81,
          "time": 2364,
          "velocity": 1,
          "duration": 0.5
        },
        {
          "name": "A5",
          "midi": 81,
          "time": 2364.5,
          "velocity": 1,
          "duration": 0.5
        },
        {
          "name": "A5",
          "midi": 81,
          "time": 2365,
          "velocity": 1,
          "duration": 0.5
        },
        {
          "name": "A5",
          "midi": 81,
          "time": 2365.5,
          "velocity": 1,
          "duration": 0.5
        },
        {
          "name": "A5",
          "midi": 81,
          "time": 2366,
          "velocity": 1,
          "duration": 0.5
        },
        {
          "name": "A5",
          "midi": 81,
          "time": 2366.5,
          "velocity": 1,
          "duration": 0.5
        },
        {
          "name": "A5",
          "midi": 81,
          "time": 2367,
          "velocity": 1,
          "duration": 0.5
        },
        {
          "name": "A5",
          "midi": 81,
          "time": 2367.5,
          "velocity": 1,
          "duration": 0.5
        },
        {
          "name": "A5",
          "midi": 81,
          "time": 2368,
          "velocity": 1,
          "duration": 0.5
        },
        {
          "name": "A5",
          "midi": 81,
          "time": 2368.5,
          "velocity": 1,
          "duration": 0.5
        },
        {
          "name": "A5",
          "midi": 81,
          "time": 2369,
          "velocity": 1,
          "duration": 0.5
        },
        {
          "name": "A5",
          "midi": 81,
          "time": 2369.5,
          "velocity": 1,
          "duration": 0.5
        },
        {
          "name": "A5",
          "midi": 81,
          "time": 2370,
          "velocity": 1,
          "duration": 0.5
        },
        {
          "name": "A5",
          "midi": 81,
          "time": 2370.5,
          "velocity": 1,
          "duration": 0.5
        },
        {
          "name": "A5",
          "midi": 81,
          "time": 2371,
          "velocity": 1,
          "duration": 0.5
        },
        {
          "name": "A5",
          "midi": 81,
          "time": 2371.5,
          "velocity": 1,
          "duration": 0.5
        },
        {
          "name": "A5",
          "midi": 81,
          "time": 2372,
          "velocity": 1,
          "duration": 0.5
        },
        {
          "name": "A5",
          "midi": 81,
          "time": 2372.5,
          "velocity": 1,
          "duration": 0.5
        },
        {
          "name": "A5",
          "midi": 81,
          "time": 2373,
          "velocity": 1,
          "duration": 0.5
        },
        {
          "name": "A5",
          "midi": 81,
          "time": 2373.5,
          "velocity": 1,
          "duration": 0.5
        },
        {
          "name": "A5",
          "midi": 81,
          "time": 2374,
          "velocity": 1,
          "duration": 0.5
        },
        {
          "name": "A5",
          "midi": 81,
          "time": 2374.5,
          "velocity": 1,
          "duration": 0.5
        },
        {
          "name": "A5",
          "midi": 81,
          "time": 2375,
          "velocity": 1,
          "duration": 0.5
        },
        {
          "name": "A5",
          "midi": 81,
          "time": 2375.5,
          "velocity": 1,
          "duration": 0.5
        },
        {
          "name": "A5",
          "midi": 81,
          "time": 2376,
          "velocity": 1,
          "duration": 0.5
        },
        {
          "name": "A5",
          "midi": 81,
          "time": 2376.5,
          "velocity": 1,
          "duration": 0.5
        },
        {
          "name": "A5",
          "midi": 81,
          "time": 2377,
          "velocity": 1,
          "duration": 0.5
        },
        {
          "name": "A5",
          "midi": 81,
          "time": 2377.5,
          "velocity": 1,
          "duration": 0.5
        },
        {
          "name": "A5",
          "midi": 81,
          "time": 2378,
          "velocity": 1,
          "duration": 0.5
        },
        {
          "name": "A5",
          "midi": 81,
          "time": 2378.5,
          "velocity": 1,
          "duration": 0.5
        },
        {
          "name": "A5",
          "midi": 81,
          "time": 2379,
          "velocity": 1,
          "duration": 0.5
        },
        {
          "name": "A5",
          "midi": 81,
          "time": 2379.5,
          "velocity": 1,
          "duration": 0.5
        },
        {
          "name": "A5",
          "midi": 81,
          "time": 2380,
          "velocity": 1,
          "duration": 0.5
        },
        {
          "name": "A5",
          "midi": 81,
          "time": 2380.5,
          "velocity": 1,
          "duration": 0.5
        },
        {
          "name": "A5",
          "midi": 81,
          "time": 2381,
          "velocity": 1,
          "duration": 0.5
        },
        {
          "name": "A5",
          "midi": 81,
          "time": 2381.5,
          "velocity": 1,
          "duration": 0.5
        },
        {
          "name": "A5",
          "midi": 81,
          "time": 2382,
          "velocity": 1,
          "duration": 0.5
        },
        {
          "name": "A5",
          "midi": 81,
          "time": 2382.5,
          "velocity": 1,
          "duration": 0.5
        },
        {
          "name": "A5",
          "midi": 81,
          "time": 2383,
          "velocity": 1,
          "duration": 0.5
        },
        {
          "name": "A5",
          "midi": 81,
          "time": 2383.5,
          "velocity": 1,
          "duration": 0.5
        },
        {
          "name": "A5",
          "midi": 81,
          "time": 2384,
          "velocity": 1,
          "duration": 0.5
        },
        {
          "name": "A5",
          "midi": 81,
          "time": 2384.5,
          "velocity": 1,
          "duration": 0.5
        },
        {
          "name": "A5",
          "midi": 81,
          "time": 2385,
          "velocity": 1,
          "duration": 0.5
        },
        {
          "name": "A5",
          "midi": 81,
          "time": 2385.5,
          "velocity": 1,
          "duration": 0.5
        },
        {
          "name": "A5",
          "midi": 81,
          "time": 2386,
          "velocity": 1,
          "duration": 0.5
        },
        {
          "name": "A5",
          "midi": 81,
          "time": 2386.5,
          "velocity": 1,
          "duration": 0.5
        },
        {
          "name": "A5",
          "midi": 81,
          "time": 2387,
          "velocity": 1,
          "duration": 0.5
        },
        {
          "name": "A5",
          "midi": 81,
          "time": 2387.5,
          "velocity": 1,
          "duration": 0.5
        },
        {
          "name": "A5",
          "midi": 81,
          "time": 2388,
          "velocity": 1,
          "duration": 0.5
        },
        {
          "name": "A5",
          "midi": 81,
          "time": 2388.5,
          "velocity": 1,
          "duration": 0.5
        },
        {
          "name": "A5",
          "midi": 81,
          "time": 2389,
          "velocity": 1,
          "duration": 0.5
        },
        {
          "name": "A5",
          "midi": 81,
          "time": 2389.5,
          "velocity": 1,
          "duration": 0.5
        },
        {
          "name": "A5",
          "midi": 81,
          "time": 2390,
          "velocity": 1,
          "duration": 0.5
        },
        {
          "name": "A5",
          "midi": 81,
          "time": 2390.5,
          "velocity": 1,
          "duration": 0.5
        },
        {
          "name": "A5",
          "midi": 81,
          "time": 2391,
          "velocity": 1,
          "duration": 0.5
        },
        {
          "name": "A5",
          "midi": 81,
          "time": 2391.5,
          "velocity": 1,
          "duration": 0.5
        },
        {
          "name": "A5",
          "midi": 81,
          "time": 2392,
          "velocity": 1,
          "duration": 0.5
        },
        {
          "name": "A5",
          "midi": 81,
          "time": 2392.5,
          "velocity": 1,
          "duration": 0.5
        },
        {
          "name": "A5",
          "midi": 81,
          "time": 2393,
          "velocity": 1,
          "duration": 0.5
        },
        {
          "name": "A5",
          "midi": 81,
          "time": 2393.5,
          "velocity": 1,
          "duration": 0.5
        },
        {
          "name": "A5",
          "midi": 81,
          "time": 2394,
          "velocity": 1,
          "duration": 0.5
        },
        {
          "name": "A5",
          "midi": 81,
          "time": 2394.5,
          "velocity": 1,
          "duration": 0.5
        },
        {
          "name": "A5",
          "midi": 81,
          "time": 2395,
          "velocity": 1,
          "duration": 0.5
        },
        {
          "name": "A5",
          "midi": 81,
          "time": 2395.5,
          "velocity": 1,
          "duration": 0.5
        },
        {
          "name": "A5",
          "midi": 81,
          "time": 2396,
          "velocity": 1,
          "duration": 0.5
        },
        {
          "name": "A5",
          "midi": 81,
          "time": 2396.5,
          "velocity": 1,
          "duration": 0.5
        },
        {
          "name": "A5",
          "midi": 81,
          "time": 2397,
          "velocity": 1,
          "duration": 0.5
        },
        {
          "name": "A5",
          "midi": 81,
          "time": 2397.5,
          "velocity": 1,
          "duration": 0.5
        },
        {
          "name": "A5",
          "midi": 81,
          "time": 2398,
          "velocity": 1,
          "duration": 0.5
        },
        {
          "name": "A5",
          "midi": 81,
          "time": 2398.5,
          "velocity": 1,
          "duration": 0.5
        },
        {
          "name": "A5",
          "midi": 81,
          "time": 2399,
          "velocity": 1,
          "duration": 0.5
        },
        {
          "name": "A5",
          "midi": 81,
          "time": 2399.5,
          "velocity": 1,
          "duration": 0.5
        },
        {
          "name": "A5",
          "midi": 81,
          "time": 2400,
          "velocity": 1,
          "duration": 0.5
        },
        {
          "name": "A5",
          "midi": 81,
          "time": 2400.5,
          "velocity": 1,
          "duration": 0.5
        },
        {
          "name": "A5",
          "midi": 81,
          "time": 2401,
          "velocity": 1,
          "duration": 0.5
        },
        {
          "name": "A5",
          "midi": 81,
          "time": 2401.5,
          "velocity": 1,
          "duration": 0.5
        },
        {
          "name": "A5",
          "midi": 81,
          "time": 2402,
          "velocity": 1,
          "duration": 0.5
        },
        {
          "name": "A5",
          "midi": 81,
          "time": 2402.5,
          "velocity": 1,
          "duration": 0.5
        },
        {
          "name": "A5",
          "midi": 81,
          "time": 2403,
          "velocity": 1,
          "duration": 0.5
        },
        {
          "name": "A5",
          "midi": 81,
          "time": 2403.5,
          "velocity": 1,
          "duration": 0.5
        },
        {
          "name": "A5",
          "midi": 81,
          "time": 2404,
          "velocity": 1,
          "duration": 0.5
        },
        {
          "name": "A5",
          "midi": 81,
          "time": 2404.5,
          "velocity": 1,
          "duration": 0.5
        },
        {
          "name": "A5",
          "midi": 81,
          "time": 2405,
          "velocity": 1,
          "duration": 0.5
        },
        {
          "name": "A5",
          "midi": 81,
          "time": 2405.5,
          "velocity": 1,
          "duration": 0.5
        },
        {
          "name": "A5",
          "midi": 81,
          "time": 2406,
          "velocity": 1,
          "duration": 0.5
        },
        {
          "name": "A5",
          "midi": 81,
          "time": 2406.5,
          "velocity": 1,
          "duration": 0.5
        },
        {
          "name": "A5",
          "midi": 81,
          "time": 2407,
          "velocity": 1,
          "duration": 0.5
        },
        {
          "name": "A5",
          "midi": 81,
          "time": 2407.5,
          "velocity": 1,
          "duration": 0.5
        },
        {
          "name": "A5",
          "midi": 81,
          "time": 2408,
          "velocity": 1,
          "duration": 0.5
        },
        {
          "name": "A5",
          "midi": 81,
          "time": 2408.5,
          "velocity": 1,
          "duration": 0.5
        },
        {
          "name": "A5",
          "midi": 81,
          "time": 2409,
          "velocity": 1,
          "duration": 0.5
        },
        {
          "name": "A5",
          "midi": 81,
          "time": 2409.5,
          "velocity": 1,
          "duration": 0.5
        },
        {
          "name": "A5",
          "midi": 81,
          "time": 2410,
          "velocity": 1,
          "duration": 0.5
        },
        {
          "name": "A5",
          "midi": 81,
          "time": 2410.5,
          "velocity": 1,
          "duration": 0.5
        },
        {
          "name": "A5",
          "midi": 81,
          "time": 2411,
          "velocity": 1,
          "duration": 0.5
        },
        {
          "name": "A5",
          "midi": 81,
          "time": 2411.5,
          "velocity": 1,
          "duration": 0.5
        },
        {
          "name": "A5",
          "midi": 81,
          "time": 2412,
          "velocity": 1,
          "duration": 0.5
        },
        {
          "name": "A5",
          "midi": 81,
          "time": 2412.5,
          "velocity": 1,
          "duration": 0.5
        },
        {
          "name": "A5",
          "midi": 81,
          "time": 2413,
          "velocity": 1,
          "duration": 0.5
        },
        {
          "name": "A5",
          "midi": 81,
          "time": 2413.5,
          "velocity": 1,
          "duration": 0.5
        },
        {
          "name": "A5",
          "midi": 81,
          "time": 2414,
          "velocity": 1,
          "duration": 0.5
        },
        {
          "name": "A5",
          "midi": 81,
          "time": 2414.5,
          "velocity": 1,
          "duration": 0.5
        },
        {
          "name": "A5",
          "midi": 81,
          "time": 2415,
          "velocity": 1,
          "duration": 0.5
        },
        {
          "name": "A5",
          "midi": 81,
          "time": 2415.5,
          "velocity": 1,
          "duration": 0.5
        },
        {
          "name": "A5",
          "midi": 81,
          "time": 2416,
          "velocity": 1,
          "duration": 0.5
        },
        {
          "name": "A5",
          "midi": 81,
          "time": 2416.5,
          "velocity": 1,
          "duration": 0.5
        },
        {
          "name": "A5",
          "midi": 81,
          "time": 2417,
          "velocity": 1,
          "duration": 0.5
        },
        {
          "name": "A5",
          "midi": 81,
          "time": 2417.5,
          "velocity": 1,
          "duration": 0.5
        },
        {
          "name": "A5",
          "midi": 81,
          "time": 2418,
          "velocity": 1,
          "duration": 0.5
        },
        {
          "name": "A5",
          "midi": 81,
          "time": 2418.5,
          "velocity": 1,
          "duration": 0.5
        },
        {
          "name": "A5",
          "midi": 81,
          "time": 2419,
          "velocity": 1,
          "duration": 0.5
        },
        {
          "name": "A5",
          "midi": 81,
          "time": 2419.5,
          "velocity": 1,
          "duration": 0.5
        },
        {
          "name": "A5",
          "midi": 81,
          "time": 2420,
          "velocity": 1,
          "duration": 0.5
        },
        {
          "name": "A5",
          "midi": 81,
          "time": 2420.5,
          "velocity": 1,
          "duration": 0.5
        },
        {
          "name": "A5",
          "midi": 81,
          "time": 2421,
          "velocity": 1,
          "duration": 0.5
        },
        {
          "name": "A5",
          "midi": 81,
          "time": 2421.5,
          "velocity": 1,
          "duration": 0.5
        },
        {
          "name": "A5",
          "midi": 81,
          "time": 2422,
          "velocity": 1,
          "duration": 0.5
        },
        {
          "name": "A5",
          "midi": 81,
          "time": 2422.5,
          "velocity": 1,
          "duration": 0.5
        },
        {
          "name": "A5",
          "midi": 81,
          "time": 2423,
          "velocity": 1,
          "duration": 0.5
        },
        {
          "name": "A5",
          "midi": 81,
          "time": 2423.5,
          "velocity": 1,
          "duration": 0.5
        },
        {
          "name": "A5",
          "midi": 81,
          "time": 2424,
          "velocity": 1,
          "duration": 0.5
        },
        {
          "name": "A5",
          "midi": 81,
          "time": 2424.5,
          "velocity": 1,
          "duration": 0.5
        },
        {
          "name": "A5",
          "midi": 81,
          "time": 2425,
          "velocity": 1,
          "duration": 0.5
        },
        {
          "name": "A5",
          "midi": 81,
          "time": 2425.5,
          "velocity": 1,
          "duration": 0.5
        },
        {
          "name": "A5",
          "midi": 81,
          "time": 2426,
          "velocity": 1,
          "duration": 0.5
        },
        {
          "name": "A5",
          "midi": 81,
          "time": 2426.5,
          "velocity": 1,
          "duration": 0.5
        },
        {
          "name": "A5",
          "midi": 81,
          "time": 2427,
          "velocity": 1,
          "duration": 0.5
        },
        {
          "name": "A5",
          "midi": 81,
          "time": 2427.5,
          "velocity": 1,
          "duration": 0.5
        },
        {
          "name": "A5",
          "midi": 81,
          "time": 2428,
          "velocity": 1,
          "duration": 0.5
        },
        {
          "name": "A5",
          "midi": 81,
          "time": 2428.5,
          "velocity": 1,
          "duration": 0.5
        },
        {
          "name": "A5",
          "midi": 81,
          "time": 2429,
          "velocity": 1,
          "duration": 0.5
        },
        {
          "name": "A5",
          "midi": 81,
          "time": 2429.5,
          "velocity": 1,
          "duration": 0.5
        },
        {
          "name": "A5",
          "midi": 81,
          "time": 2430,
          "velocity": 1,
          "duration": 0.5
        },
        {
          "name": "A5",
          "midi": 81,
          "time": 2430.5,
          "velocity": 1,
          "duration": 0.5
        },
        {
          "name": "A5",
          "midi": 81,
          "time": 2431,
          "velocity": 1,
          "duration": 0.5
        },
        {
          "name": "A5",
          "midi": 81,
          "time": 2431.5,
          "velocity": 1,
          "duration": 0.5
        },
        {
          "name": "A5",
          "midi": 81,
          "time": 2432,
          "velocity": 1,
          "duration": 0.5
        },
        {
          "name": "A5",
          "midi": 81,
          "time": 2432.5,
          "velocity": 1,
          "duration": 0.5
        },
        {
          "name": "A5",
          "midi": 81,
          "time": 2433,
          "velocity": 1,
          "duration": 0.5
        },
        {
          "name": "A5",
          "midi": 81,
          "time": 2433.5,
          "velocity": 1,
          "duration": 0.5
        },
        {
          "name": "A5",
          "midi": 81,
          "time": 2434,
          "velocity": 1,
          "duration": 0.5
        },
        {
          "name": "A5",
          "midi": 81,
          "time": 2434.5,
          "velocity": 1,
          "duration": 0.5
        },
        {
          "name": "A5",
          "midi": 81,
          "time": 2435,
          "velocity": 1,
          "duration": 0.5
        },
        {
          "name": "A5",
          "midi": 81,
          "time": 2435.5,
          "velocity": 1,
          "duration": 0.5
        },
        {
          "name": "A5",
          "midi": 81,
          "time": 2436,
          "velocity": 1,
          "duration": 0.5
        },
        {
          "name": "A5",
          "midi": 81,
          "time": 2436.5,
          "velocity": 1,
          "duration": 0.5
        },
        {
          "name": "A5",
          "midi": 81,
          "time": 2437,
          "velocity": 1,
          "duration": 0.5
        },
        {
          "name": "A5",
          "midi": 81,
          "time": 2437.5,
          "velocity": 1,
          "duration": 0.5
        },
        {
          "name": "A5",
          "midi": 81,
          "time": 2438,
          "velocity": 1,
          "duration": 0.5
        },
        {
          "name": "A5",
          "midi": 81,
          "time": 2438.5,
          "velocity": 1,
          "duration": 0.5
        },
        {
          "name": "A5",
          "midi": 81,
          "time": 2439,
          "velocity": 1,
          "duration": 0.5
        },
        {
          "name": "A5",
          "midi": 81,
          "time": 2439.5,
          "velocity": 1,
          "duration": 0.5
        },
        {
          "name": "A5",
          "midi": 81,
          "time": 2440,
          "velocity": 1,
          "duration": 0.5
        },
        {
          "name": "A5",
          "midi": 81,
          "time": 2440.5,
          "velocity": 1,
          "duration": 0.5
        },
        {
          "name": "A5",
          "midi": 81,
          "time": 2441,
          "velocity": 1,
          "duration": 0.5
        },
        {
          "name": "A5",
          "midi": 81,
          "time": 2441.5,
          "velocity": 1,
          "duration": 0.5
        },
        {
          "name": "A5",
          "midi": 81,
          "time": 2442,
          "velocity": 1,
          "duration": 0.5
        },
        {
          "name": "A5",
          "midi": 81,
          "time": 2442.5,
          "velocity": 1,
          "duration": 0.5
        },
        {
          "name": "A5",
          "midi": 81,
          "time": 2443,
          "velocity": 1,
          "duration": 0.5
        },
        {
          "name": "A5",
          "midi": 81,
          "time": 2443.5,
          "velocity": 1,
          "duration": 0.5
        },
        {
          "name": "A5",
          "midi": 81,
          "time": 2444,
          "velocity": 1,
          "duration": 0.5
        },
        {
          "name": "A5",
          "midi": 81,
          "time": 2444.5,
          "velocity": 1,
          "duration": 0.5
        },
        {
          "name": "A5",
          "midi": 81,
          "time": 2445,
          "velocity": 1,
          "duration": 0.5
        },
        {
          "name": "A5",
          "midi": 81,
          "time": 2445.5,
          "velocity": 1,
          "duration": 0.5
        },
        {
          "name": "A5",
          "midi": 81,
          "time": 2446,
          "velocity": 1,
          "duration": 0.5
        },
        {
          "name": "A5",
          "midi": 81,
          "time": 2446.5,
          "velocity": 1,
          "duration": 0.5
        },
        {
          "name": "A5",
          "midi": 81,
          "time": 2447,
          "velocity": 1,
          "duration": 0.5
        },
        {
          "name": "A5",
          "midi": 81,
          "time": 2447.5,
          "velocity": 1,
          "duration": 0.5
        },
        {
          "name": "A5",
          "midi": 81,
          "time": 2448,
          "velocity": 1,
          "duration": 0.5
        },
        {
          "name": "A5",
          "midi": 81,
          "time": 2448.5,
          "velocity": 1,
          "duration": 0.5
        },
        {
          "name": "A5",
          "midi": 81,
          "time": 2449,
          "velocity": 1,
          "duration": 0.5
        },
        {
          "name": "A5",
          "midi": 81,
          "time": 2449.5,
          "velocity": 1,
          "duration": 0.5
        },
        {
          "name": "A5",
          "midi": 81,
          "time": 2450,
          "velocity": 1,
          "duration": 0.5
        },
        {
          "name": "A5",
          "midi": 81,
          "time": 2450.5,
          "velocity": 1,
          "duration": 0.5
        },
        {
          "name": "A5",
          "midi": 81,
          "time": 2451,
          "velocity": 1,
          "duration": 0.5
        },
        {
          "name": "A5",
          "midi": 81,
          "time": 2451.5,
          "velocity": 1,
          "duration": 0.5
        },
        {
          "name": "A5",
          "midi": 81,
          "time": 2452,
          "velocity": 1,
          "duration": 0.5
        },
        {
          "name": "A5",
          "midi": 81,
          "time": 2452.5,
          "velocity": 1,
          "duration": 0.5
        },
        {
          "name": "A5",
          "midi": 81,
          "time": 2453,
          "velocity": 1,
          "duration": 0.5
        },
        {
          "name": "A5",
          "midi": 81,
          "time": 2453.5,
          "velocity": 1,
          "duration": 0.5
        },
        {
          "name": "A5",
          "midi": 81,
          "time": 2454,
          "velocity": 1,
          "duration": 0.5
        },
        {
          "name": "A5",
          "midi": 81,
          "time": 2454.5,
          "velocity": 1,
          "duration": 0.5
        },
        {
          "name": "A5",
          "midi": 81,
          "time": 2455,
          "velocity": 1,
          "duration": 0.5
        },
        {
          "name": "A5",
          "midi": 81,
          "time": 2455.5,
          "velocity": 1,
          "duration": 0.5
        },
        {
          "name": "A5",
          "midi": 81,
          "time": 2456,
          "velocity": 1,
          "duration": 0.5
        },
        {
          "name": "A5",
          "midi": 81,
          "time": 2456.5,
          "velocity": 1,
          "duration": 0.5
        },
        {
          "name": "A5",
          "midi": 81,
          "time": 2457,
          "velocity": 1,
          "duration": 0.5
        },
        {
          "name": "A5",
          "midi": 81,
          "time": 2457.5,
          "velocity": 1,
          "duration": 0.5
        },
        {
          "name": "A5",
          "midi": 81,
          "time": 2458,
          "velocity": 1,
          "duration": 0.5
        },
        {
          "name": "A5",
          "midi": 81,
          "time": 2458.5,
          "velocity": 1,
          "duration": 0.5
        },
        {
          "name": "A5",
          "midi": 81,
          "time": 2459,
          "velocity": 1,
          "duration": 0.5
        },
        {
          "name": "A5",
          "midi": 81,
          "time": 2459.5,
          "velocity": 1,
          "duration": 0.5
        },
        {
          "name": "A5",
          "midi": 81,
          "time": 2460,
          "velocity": 1,
          "duration": 0.5
        },
        {
          "name": "A5",
          "midi": 81,
          "time": 2460.5,
          "velocity": 1,
          "duration": 0.5
        },
        {
          "name": "A5",
          "midi": 81,
          "time": 2461,
          "velocity": 1,
          "duration": 0.5
        },
        {
          "name": "A5",
          "midi": 81,
          "time": 2461.5,
          "velocity": 1,
          "duration": 0.5
        },
        {
          "name": "A5",
          "midi": 81,
          "time": 2462,
          "velocity": 1,
          "duration": 0.5
        },
        {
          "name": "A5",
          "midi": 81,
          "time": 2462.5,
          "velocity": 1,
          "duration": 0.5
        },
        {
          "name": "A5",
          "midi": 81,
          "time": 2463,
          "velocity": 1,
          "duration": 0.5
        },
        {
          "name": "A5",
          "midi": 81,
          "time": 2463.5,
          "velocity": 1,
          "duration": 0.5
        },
        {
          "name": "A5",
          "midi": 81,
          "time": 2464,
          "velocity": 1,
          "duration": 0.5
        },
        {
          "name": "A5",
          "midi": 81,
          "time": 2464.5,
          "velocity": 1,
          "duration": 0.5
        },
        {
          "name": "A5",
          "midi": 81,
          "time": 2465,
          "velocity": 1,
          "duration": 0.5
        },
        {
          "name": "A5",
          "midi": 81,
          "time": 2465.5,
          "velocity": 1,
          "duration": 0.5
        },
        {
          "name": "A5",
          "midi": 81,
          "time": 2466,
          "velocity": 1,
          "duration": 0.5
        },
        {
          "name": "A5",
          "midi": 81,
          "time": 2466.5,
          "velocity": 1,
          "duration": 0.5
        },
        {
          "name": "A5",
          "midi": 81,
          "time": 2467,
          "velocity": 1,
          "duration": 0.5
        },
        {
          "name": "A5",
          "midi": 81,
          "time": 2467.5,
          "velocity": 1,
          "duration": 0.5
        },
        {
          "name": "A5",
          "midi": 81,
          "time": 2468,
          "velocity": 1,
          "duration": 0.5
        },
        {
          "name": "A5",
          "midi": 81,
          "time": 2468.5,
          "velocity": 1,
          "duration": 0.5
        },
        {
          "name": "A5",
          "midi": 81,
          "time": 2469,
          "velocity": 1,
          "duration": 0.5
        },
        {
          "name": "A5",
          "midi": 81,
          "time": 2469.5,
          "velocity": 1,
          "duration": 0.5
        },
        {
          "name": "A5",
          "midi": 81,
          "time": 2470,
          "velocity": 1,
          "duration": 0.5
        },
        {
          "name": "A5",
          "midi": 81,
          "time": 2470.5,
          "velocity": 1,
          "duration": 0.5
        },
        {
          "name": "A5",
          "midi": 81,
          "time": 2471,
          "velocity": 1,
          "duration": 0.5
        },
        {
          "name": "A5",
          "midi": 81,
          "time": 2471.5,
          "velocity": 1,
          "duration": 0.5
        },
        {
          "name": "A5",
          "midi": 81,
          "time": 2472,
          "velocity": 1,
          "duration": 0.5
        },
        {
          "name": "A5",
          "midi": 81,
          "time": 2472.5,
          "velocity": 1,
          "duration": 0.5
        },
        {
          "name": "A5",
          "midi": 81,
          "time": 2473,
          "velocity": 1,
          "duration": 0.5
        },
        {
          "name": "A5",
          "midi": 81,
          "time": 2473.5,
          "velocity": 1,
          "duration": 0.5
        },
        {
          "name": "A5",
          "midi": 81,
          "time": 2474,
          "velocity": 1,
          "duration": 0.5
        },
        {
          "name": "A5",
          "midi": 81,
          "time": 2474.5,
          "velocity": 1,
          "duration": 0.5
        },
        {
          "name": "A5",
          "midi": 81,
          "time": 2475,
          "velocity": 1,
          "duration": 0.5
        },
        {
          "name": "A5",
          "midi": 81,
          "time": 2475.5,
          "velocity": 1,
          "duration": 0.5
        },
        {
          "name": "A5",
          "midi": 81,
          "time": 2476,
          "velocity": 1,
          "duration": 0.5
        },
        {
          "name": "A5",
          "midi": 81,
          "time": 2476.5,
          "velocity": 1,
          "duration": 0.5
        },
        {
          "name": "A5",
          "midi": 81,
          "time": 2477,
          "velocity": 1,
          "duration": 0.5
        },
        {
          "name": "A5",
          "midi": 81,
          "time": 2477.5,
          "velocity": 1,
          "duration": 0.5
        },
        {
          "name": "A5",
          "midi": 81,
          "time": 2478,
          "velocity": 1,
          "duration": 0.5
        },
        {
          "name": "A5",
          "midi": 81,
          "time": 2478.5,
          "velocity": 1,
          "duration": 0.5
        },
        {
          "name": "A5",
          "midi": 81,
          "time": 2479,
          "velocity": 1,
          "duration": 0.5
        },
        {
          "name": "A5",
          "midi": 81,
          "time": 2479.5,
          "velocity": 1,
          "duration": 0.5
        },
        {
          "name": "A5",
          "midi": 81,
          "time": 2480,
          "velocity": 1,
          "duration": 0.5
        },
        {
          "name": "A5",
          "midi": 81,
          "time": 2480.5,
          "velocity": 1,
          "duration": 0.5
        },
        {
          "name": "A5",
          "midi": 81,
          "time": 2481,
          "velocity": 1,
          "duration": 0.5
        },
        {
          "name": "A5",
          "midi": 81,
          "time": 2481.5,
          "velocity": 1,
          "duration": 0.5
        },
        {
          "name": "A5",
          "midi": 81,
          "time": 2482,
          "velocity": 1,
          "duration": 0.5
        },
        {
          "name": "A5",
          "midi": 81,
          "time": 2482.5,
          "velocity": 1,
          "duration": 0.5
        },
        {
          "name": "A5",
          "midi": 81,
          "time": 2483,
          "velocity": 1,
          "duration": 0.5
        },
        {
          "name": "A5",
          "midi": 81,
          "time": 2483.5,
          "velocity": 1,
          "duration": 0.5
        },
        {
          "name": "A5",
          "midi": 81,
          "time": 2484,
          "velocity": 1,
          "duration": 0.5
        },
        {
          "name": "A5",
          "midi": 81,
          "time": 2484.5,
          "velocity": 1,
          "duration": 0.5
        },
        {
          "name": "A5",
          "midi": 81,
          "time": 2485,
          "velocity": 1,
          "duration": 0.5
        },
        {
          "name": "A5",
          "midi": 81,
          "time": 2485.5,
          "velocity": 1,
          "duration": 0.5
        },
        {
          "name": "A5",
          "midi": 81,
          "time": 2486,
          "velocity": 1,
          "duration": 0.5
        },
        {
          "name": "A5",
          "midi": 81,
          "time": 2486.5,
          "velocity": 1,
          "duration": 0.5
        },
        {
          "name": "A5",
          "midi": 81,
          "time": 2487,
          "velocity": 1,
          "duration": 0.5
        },
        {
          "name": "A5",
          "midi": 81,
          "time": 2487.5,
          "velocity": 1,
          "duration": 0.5
        },
        {
          "name": "A5",
          "midi": 81,
          "time": 2488,
          "velocity": 1,
          "duration": 0.5
        },
        {
          "name": "A5",
          "midi": 81,
          "time": 2488.5,
          "velocity": 1,
          "duration": 0.5
        },
        {
          "name": "A5",
          "midi": 81,
          "time": 2489,
          "velocity": 1,
          "duration": 0.5
        },
        {
          "name": "A5",
          "midi": 81,
          "time": 2489.5,
          "velocity": 1,
          "duration": 0.5
        },
        {
          "name": "A5",
          "midi": 81,
          "time": 2490,
          "velocity": 1,
          "duration": 0.5
        },
        {
          "name": "A5",
          "midi": 81,
          "time": 2490.5,
          "velocity": 1,
          "duration": 0.5
        },
        {
          "name": "A5",
          "midi": 81,
          "time": 2491,
          "velocity": 1,
          "duration": 0.5
        },
        {
          "name": "A5",
          "midi": 81,
          "time": 2491.5,
          "velocity": 1,
          "duration": 0.5
        },
        {
          "name": "A5",
          "midi": 81,
          "time": 2492,
          "velocity": 1,
          "duration": 0.5
        },
        {
          "name": "A5",
          "midi": 81,
          "time": 2492.5,
          "velocity": 1,
          "duration": 0.5
        },
        {
          "name": "A5",
          "midi": 81,
          "time": 2493,
          "velocity": 1,
          "duration": 0.5
        },
        {
          "name": "A5",
          "midi": 81,
          "time": 2493.5,
          "velocity": 1,
          "duration": 0.5
        },
        {
          "name": "A5",
          "midi": 81,
          "time": 2494,
          "velocity": 1,
          "duration": 0.5
        },
        {
          "name": "A5",
          "midi": 81,
          "time": 2494.5,
          "velocity": 1,
          "duration": 0.5
        },
        {
          "name": "A5",
          "midi": 81,
          "time": 2495,
          "velocity": 1,
          "duration": 0.5
        },
        {
          "name": "A5",
          "midi": 81,
          "time": 2495.5,
          "velocity": 1,
          "duration": 0.5
        },
        {
          "name": "A5",
          "midi": 81,
          "time": 2496,
          "velocity": 1,
          "duration": 0.5
        },
        {
          "name": "A5",
          "midi": 81,
          "time": 2496.5,
          "velocity": 1,
          "duration": 0.5
        },
        {
          "name": "A5",
          "midi": 81,
          "time": 2497,
          "velocity": 1,
          "duration": 0.5
        },
        {
          "name": "A5",
          "midi": 81,
          "time": 2497.5,
          "velocity": 1,
          "duration": 0.5
        },
        {
          "name": "A5",
          "midi": 81,
          "time": 2498,
          "velocity": 1,
          "duration": 0.5
        },
        {
          "name": "A5",
          "midi": 81,
          "time": 2498.5,
          "velocity": 1,
          "duration": 0.5
        },
        {
          "name": "A5",
          "midi": 81,
          "time": 2499,
          "velocity": 1,
          "duration": 0.5
        },
        {
          "name": "A5",
          "midi": 81,
          "time": 2499.5,
          "velocity": 1,
          "duration": 0.5
        }
      ],
      "controlChanges": {},
      "instrumentNumber": 62,
      "instrument": "synthbrass 1",
      "instrumentFamily": "brass"
    }
  ]
}