{
  "header": {
    "PPQ": 192,
    "timeSignature": [
      4,
      4
    ],
    "bpm": 144.00023040036865,
    "name": ""
  },
  "startTime": 0,
  "duration": 226.1801936666665,
  "tracks": [
    {
      "startTime": 0,
      "duration": 0,
      "length": 0,
      "notes": [],
      "controlChanges": {},
      "id": 0
    },
    {
      "startTime": 33.124947,
      "duration": 124.4789675000003,
      "length": 145,
      "notes": [
        {
          "name": "F#5",
          "midi": 78,
          "time": 33.124947,
          "velocity": 0.8661417322834646,
          "duration": 0.20399272916666433
        },
        {
          "name": "F#5",
          "midi": 78,
          "time": 33.333279999999995,
          "velocity": 0.8661417322834646,
          "duration": 0.20399272916666433
        },
        {
          "name": "F#5",
          "midi": 78,
          "time": 33.54161299999999,
          "velocity": 0.8661417322834646,
          "duration": 0.20399272916666433
        },
        {
          "name": "F#5",
          "midi": 78,
          "time": 33.74994599999999,
          "velocity": 0.8661417322834646,
          "duration": 0.09982622916666628
        },
        {
          "name": "D5",
          "midi": 74,
          "time": 33.854112499999985,
          "velocity": 0.8661417322834646,
          "duration": 0.6597211666666638
        },
        {
          "name": "A5",
          "midi": 81,
          "time": 34.687444499999984,
          "velocity": 0.8661417322834646,
          "duration": 0.09982622916666628
        },
        {
          "name": "A5",
          "midi": 81,
          "time": 34.79161099999998,
          "velocity": 0.8661417322834646,
          "duration": 0.09982622916666628
        },
        {
          "name": "A5",
          "midi": 81,
          "time": 34.89577749999998,
          "velocity": 0.8661417322834646,
          "duration": 0.09982622916666628
        },
        {
          "name": "A5",
          "midi": 81,
          "time": 34.99994399999998,
          "velocity": 0.8661417322834646,
          "duration": 0.20399272916666433
        },
        {
          "name": "A5",
          "midi": 81,
          "time": 35.208276999999974,
          "velocity": 0.8661417322834646,
          "duration": 0.09982622916666628
        },
        {
          "name": "A5",
          "midi": 81,
          "time": 35.31244349999997,
          "velocity": 0.8661417322834646,
          "duration": 0.3081592291666695
        },
        {
          "name": "A5",
          "midi": 81,
          "time": 35.62494299999997,
          "velocity": 0.8661417322834646,
          "duration": 0.20399272916666433
        },
        {
          "name": "A5",
          "midi": 81,
          "time": 35.83327599999997,
          "velocity": 0.8661417322834646,
          "duration": 0.7291655000000006
        },
        {
          "name": "G5",
          "midi": 79,
          "time": 43.12493099999997,
          "velocity": 0.8661417322834646,
          "duration": 0.09982622916666628
        },
        {
          "name": "G5",
          "midi": 79,
          "time": 43.229097499999966,
          "velocity": 0.8661417322834646,
          "duration": 0.09982622916666628
        },
        {
          "name": "G5",
          "midi": 79,
          "time": 43.333263999999964,
          "velocity": 0.8661417322834646,
          "duration": 0.20399272916666433
        },
        {
          "name": "G5",
          "midi": 79,
          "time": 43.54159699999996,
          "velocity": 0.8661417322834646,
          "duration": 0.09982622916666628
        },
        {
          "name": "G5",
          "midi": 79,
          "time": 43.64576349999996,
          "velocity": 0.8661417322834646,
          "duration": 0.20399272916666433
        },
        {
          "name": "D5",
          "midi": 74,
          "time": 43.854096499999955,
          "velocity": 0.8661417322834646,
          "duration": 0.3081592291666695
        },
        {
          "name": "A5",
          "midi": 81,
          "time": 44.68742849999996,
          "velocity": 0.8661417322834646,
          "duration": 0.09982622916666628
        },
        {
          "name": "A5",
          "midi": 81,
          "time": 44.79159499999996,
          "velocity": 0.8661417322834646,
          "duration": 0.09982622916666628
        },
        {
          "name": "A5",
          "midi": 81,
          "time": 44.999927999999954,
          "velocity": 0.8661417322834646,
          "duration": 0.20399272916666433
        },
        {
          "name": "A5",
          "midi": 81,
          "time": 45.20826099999995,
          "velocity": 0.8661417322834646,
          "duration": 0.20399272916666433
        },
        {
          "name": "A5",
          "midi": 81,
          "time": 45.41659399999995,
          "velocity": 0.8661417322834646,
          "duration": 0.09982622916666628
        },
        {
          "name": "A5",
          "midi": 81,
          "time": 45.520760499999945,
          "velocity": 0.8661417322834646,
          "duration": 0.09982622916666628
        },
        {
          "name": "A5",
          "midi": 81,
          "time": 45.62492699999994,
          "velocity": 0.8661417322834646,
          "duration": 0.20399272916666433
        },
        {
          "name": "C6",
          "midi": 84,
          "time": 45.83325999999994,
          "velocity": 0.8661417322834646,
          "duration": 0.34722166666666965
        },
        {
          "name": "G5",
          "midi": 79,
          "time": 47.18742449999994,
          "velocity": 0.8661417322834646,
          "duration": 0.09982622916666628
        },
        {
          "name": "G5",
          "midi": 79,
          "time": 47.29159099999994,
          "velocity": 0.8661417322834646,
          "duration": 0.20399272916666433
        },
        {
          "name": "G5",
          "midi": 79,
          "time": 47.499923999999936,
          "velocity": 0.8661417322834646,
          "duration": 0.3081592291666695
        },
        {
          "name": "A5",
          "midi": 81,
          "time": 47.81242349999994,
          "velocity": 0.8661417322834646,
          "duration": 0.4513881666666677
        },
        {
          "name": "D#5",
          "midi": 75,
          "time": 48.33325599999994,
          "velocity": 0.8661417322834646,
          "duration": 0.09982622916666628
        },
        {
          "name": "E5",
          "midi": 76,
          "time": 48.43742249999994,
          "velocity": 0.8661417322834646,
          "duration": 0.09982622916666628
        },
        {
          "name": "G5",
          "midi": 79,
          "time": 48.54158899999994,
          "velocity": 0.8661417322834646,
          "duration": 0.09982622916666628
        },
        {
          "name": "A5",
          "midi": 81,
          "time": 48.645755499999936,
          "velocity": 0.8661417322834646,
          "duration": 0.4513881666666677
        },
        {
          "name": "E5",
          "midi": 76,
          "time": 49.68742049999994,
          "velocity": 0.8661417322834646,
          "duration": 0.09982622916666628
        },
        {
          "name": "E5",
          "midi": 76,
          "time": 49.791586999999936,
          "velocity": 0.8661417322834646,
          "duration": 0.20399272916666433
        },
        {
          "name": "E5",
          "midi": 76,
          "time": 49.99991999999993,
          "velocity": 0.8661417322834646,
          "duration": 0.20399272916666433
        },
        {
          "name": "E5",
          "midi": 76,
          "time": 50.20825299999993,
          "velocity": 0.8661417322834646,
          "duration": 0.09982622916666628
        },
        {
          "name": "E5",
          "midi": 76,
          "time": 50.312419499999926,
          "velocity": 0.8661417322834646,
          "duration": 0.20399272916666433
        },
        {
          "name": "E5",
          "midi": 76,
          "time": 50.62491899999992,
          "velocity": 0.8661417322834646,
          "duration": 0.20399272916666433
        },
        {
          "name": "G5",
          "midi": 79,
          "time": 50.833251999999916,
          "velocity": 0.8661417322834646,
          "duration": 0.3081592291666695
        },
        {
          "name": "E5",
          "midi": 76,
          "time": 51.14575149999992,
          "velocity": 0.8661417322834646,
          "duration": 0.4513881666666677
        },
        {
          "name": "G5",
          "midi": 79,
          "time": 51.979083499999916,
          "velocity": 0.8661417322834646,
          "duration": 0.09982622916666628
        },
        {
          "name": "C6",
          "midi": 84,
          "time": 52.083249999999914,
          "velocity": 0.8661417322834646,
          "duration": 0.20399272916666433
        },
        {
          "name": "G5",
          "midi": 79,
          "time": 52.29158299999991,
          "velocity": 0.8661417322834646,
          "duration": 0.09982622916666628
        },
        {
          "name": "A5",
          "midi": 81,
          "time": 52.39574949999991,
          "velocity": 0.8661417322834646,
          "duration": 0.4513881666666677
        },
        {
          "name": "C6",
          "midi": 84,
          "time": 54.99991199999991,
          "velocity": 0.8661417322834646,
          "duration": 0.3081592291666695
        },
        {
          "name": "A5",
          "midi": 81,
          "time": 55.31241149999991,
          "velocity": 0.8661417322834646,
          "duration": 0.3081592291666695
        },
        {
          "name": "A5",
          "midi": 81,
          "time": 55.62491099999991,
          "velocity": 0.8661417322834646,
          "duration": 0.34722166666666965
        },
        {
          "name": "G5",
          "midi": 79,
          "time": 58.124906999999915,
          "velocity": 0.8661417322834646,
          "duration": 0.3081592291666695
        },
        {
          "name": "G5",
          "midi": 79,
          "time": 58.437406499999916,
          "velocity": 0.8661417322834646,
          "duration": 0.3081592291666695
        },
        {
          "name": "C6",
          "midi": 84,
          "time": 58.74990599999992,
          "velocity": 0.8661417322834646,
          "duration": 1.03732472916667
        },
        {
          "name": "C6",
          "midi": 84,
          "time": 61.24990199999992,
          "velocity": 0.8661417322834646,
          "duration": 0.3081592291666695
        },
        {
          "name": "B5",
          "midi": 83,
          "time": 61.56240149999992,
          "velocity": 0.8661417322834646,
          "duration": 0.3081592291666695
        },
        {
          "name": "A5",
          "midi": 81,
          "time": 61.87490099999992,
          "velocity": 0.8661417322834646,
          "duration": 0.34722166666666965
        },
        {
          "name": "G5",
          "midi": 79,
          "time": 72.49988399999992,
          "velocity": 0.8661417322834646,
          "duration": 0.09982622916666628
        },
        {
          "name": "G5",
          "midi": 79,
          "time": 72.60405049999993,
          "velocity": 0.8661417322834646,
          "duration": 0.09982622916666628
        },
        {
          "name": "G5",
          "midi": 79,
          "time": 72.70821699999993,
          "velocity": 0.8661417322834646,
          "duration": 0.20399272916667144
        },
        {
          "name": "G5",
          "midi": 79,
          "time": 72.91654999999994,
          "velocity": 0.8661417322834646,
          "duration": 0.09982622916666628
        },
        {
          "name": "G5",
          "midi": 79,
          "time": 73.02071649999995,
          "velocity": 0.8661417322834646,
          "duration": 0.20399272916667144
        },
        {
          "name": "D5",
          "midi": 74,
          "time": 73.22904949999996,
          "velocity": 0.8661417322834646,
          "duration": 0.3081592291666624
        },
        {
          "name": "A5",
          "midi": 81,
          "time": 74.06238149999996,
          "velocity": 0.8661417322834646,
          "duration": 0.09982622916666628
        },
        {
          "name": "A5",
          "midi": 81,
          "time": 74.16654799999996,
          "velocity": 0.8661417322834646,
          "duration": 0.09982622916666628
        },
        {
          "name": "A5",
          "midi": 81,
          "time": 74.37488099999996,
          "velocity": 0.8661417322834646,
          "duration": 0.20399272916667144
        },
        {
          "name": "A5",
          "midi": 81,
          "time": 74.58321399999997,
          "velocity": 0.8661417322834646,
          "duration": 0.20399272916667144
        },
        {
          "name": "A5",
          "midi": 81,
          "time": 74.79154699999998,
          "velocity": 0.8661417322834646,
          "duration": 0.09982622916666628
        },
        {
          "name": "A5",
          "midi": 81,
          "time": 74.89571349999999,
          "velocity": 0.8661417322834646,
          "duration": 0.09982622916666628
        },
        {
          "name": "A5",
          "midi": 81,
          "time": 74.99987999999999,
          "velocity": 0.8661417322834646,
          "duration": 0.20399272916667144
        },
        {
          "name": "C6",
          "midi": 84,
          "time": 75.208213,
          "velocity": 0.8661417322834646,
          "duration": 0.34722166666666965
        },
        {
          "name": "G5",
          "midi": 79,
          "time": 76.5623775,
          "velocity": 0.8661417322834646,
          "duration": 0.09982622916666628
        },
        {
          "name": "G5",
          "midi": 79,
          "time": 76.666544,
          "velocity": 0.8661417322834646,
          "duration": 0.20399272916667144
        },
        {
          "name": "G5",
          "midi": 79,
          "time": 76.87487700000001,
          "velocity": 0.8661417322834646,
          "duration": 0.3081592291666624
        },
        {
          "name": "A5",
          "midi": 81,
          "time": 77.18737650000001,
          "velocity": 0.8661417322834646,
          "duration": 0.4513881666666606
        },
        {
          "name": "D#5",
          "midi": 75,
          "time": 77.70820900000001,
          "velocity": 0.8661417322834646,
          "duration": 0.09982622916666628
        },
        {
          "name": "E5",
          "midi": 76,
          "time": 77.81237550000002,
          "velocity": 0.8661417322834646,
          "duration": 0.09982622916666628
        },
        {
          "name": "G5",
          "midi": 79,
          "time": 77.91654200000002,
          "velocity": 0.8661417322834646,
          "duration": 0.09982622916666628
        },
        {
          "name": "A5",
          "midi": 81,
          "time": 78.02070850000003,
          "velocity": 0.8661417322834646,
          "duration": 0.4513881666666606
        },
        {
          "name": "E5",
          "midi": 76,
          "time": 79.06237350000002,
          "velocity": 0.8661417322834646,
          "duration": 0.09982622916666628
        },
        {
          "name": "E5",
          "midi": 76,
          "time": 79.16654000000003,
          "velocity": 0.8661417322834646,
          "duration": 0.20399272916667144
        },
        {
          "name": "E5",
          "midi": 76,
          "time": 79.37487300000004,
          "velocity": 0.8661417322834646,
          "duration": 0.20399272916667144
        },
        {
          "name": "E5",
          "midi": 76,
          "time": 79.58320600000005,
          "velocity": 0.8661417322834646,
          "duration": 0.09982622916666628
        },
        {
          "name": "E5",
          "midi": 76,
          "time": 79.68737250000005,
          "velocity": 0.8661417322834646,
          "duration": 0.20399272916667144
        },
        {
          "name": "E5",
          "midi": 76,
          "time": 79.99987200000005,
          "velocity": 0.8661417322834646,
          "duration": 0.20399272916667144
        },
        {
          "name": "G5",
          "midi": 79,
          "time": 80.20820500000006,
          "velocity": 0.8661417322834646,
          "duration": 0.3081592291666624
        },
        {
          "name": "E5",
          "midi": 76,
          "time": 80.52070450000006,
          "velocity": 0.8661417322834646,
          "duration": 0.4513881666666606
        },
        {
          "name": "G5",
          "midi": 79,
          "time": 81.35403650000006,
          "velocity": 0.8661417322834646,
          "duration": 0.09982622916666628
        },
        {
          "name": "C6",
          "midi": 84,
          "time": 81.45820300000007,
          "velocity": 0.8661417322834646,
          "duration": 0.20399272916667144
        },
        {
          "name": "G5",
          "midi": 79,
          "time": 81.66653600000008,
          "velocity": 0.8661417322834646,
          "duration": 0.09982622916666628
        },
        {
          "name": "A5",
          "midi": 81,
          "time": 81.77070250000008,
          "velocity": 0.8661417322834646,
          "duration": 0.4513881666666606
        },
        {
          "name": "C6",
          "midi": 84,
          "time": 84.37486500000009,
          "velocity": 0.8661417322834646,
          "duration": 0.3081592291666624
        },
        {
          "name": "A5",
          "midi": 81,
          "time": 84.68736450000009,
          "velocity": 0.8661417322834646,
          "duration": 0.3081592291666624
        },
        {
          "name": "A5",
          "midi": 81,
          "time": 84.99986400000009,
          "velocity": 0.8661417322834646,
          "duration": 0.34722166666666965
        },
        {
          "name": "G5",
          "midi": 79,
          "time": 87.4998600000001,
          "velocity": 0.8661417322834646,
          "duration": 0.3081592291666624
        },
        {
          "name": "G5",
          "midi": 79,
          "time": 87.8123595000001,
          "velocity": 0.8661417322834646,
          "duration": 0.3081592291666624
        },
        {
          "name": "C6",
          "midi": 84,
          "time": 88.1248590000001,
          "velocity": 0.8661417322834646,
          "duration": 1.03732472916667
        },
        {
          "name": "C6",
          "midi": 84,
          "time": 90.62485500000011,
          "velocity": 0.8661417322834646,
          "duration": 0.3081592291666624
        },
        {
          "name": "B5",
          "midi": 83,
          "time": 90.93735450000011,
          "velocity": 0.8661417322834646,
          "duration": 0.3081592291666624
        },
        {
          "name": "A5",
          "midi": 81,
          "time": 91.24985400000011,
          "velocity": 0.8661417322834646,
          "duration": 0.34722166666666965
        },
        {
          "name": "G5",
          "midi": 79,
          "time": 101.87483700000011,
          "velocity": 0.8661417322834646,
          "duration": 0.09982622916666628
        },
        {
          "name": "G5",
          "midi": 79,
          "time": 101.97900350000012,
          "velocity": 0.8661417322834646,
          "duration": 0.09982622916666628
        },
        {
          "name": "G5",
          "midi": 79,
          "time": 102.08317000000012,
          "velocity": 0.8661417322834646,
          "duration": 0.20399272916667144
        },
        {
          "name": "G5",
          "midi": 79,
          "time": 102.29150300000013,
          "velocity": 0.8661417322834646,
          "duration": 0.09982622916666628
        },
        {
          "name": "G5",
          "midi": 79,
          "time": 102.39566950000014,
          "velocity": 0.8661417322834646,
          "duration": 0.20399272916667144
        },
        {
          "name": "D5",
          "midi": 74,
          "time": 102.60400250000015,
          "velocity": 0.8661417322834646,
          "duration": 0.3081592291666624
        },
        {
          "name": "A5",
          "midi": 81,
          "time": 103.43733450000015,
          "velocity": 0.8661417322834646,
          "duration": 0.09982622916666628
        },
        {
          "name": "A5",
          "midi": 81,
          "time": 103.54150100000015,
          "velocity": 0.8661417322834646,
          "duration": 0.09982622916666628
        },
        {
          "name": "A5",
          "midi": 81,
          "time": 103.74983400000015,
          "velocity": 0.8661417322834646,
          "duration": 0.20399272916667144
        },
        {
          "name": "A5",
          "midi": 81,
          "time": 103.95816700000016,
          "velocity": 0.8661417322834646,
          "duration": 0.20399272916667144
        },
        {
          "name": "A5",
          "midi": 81,
          "time": 104.16650000000017,
          "velocity": 0.8661417322834646,
          "duration": 0.09982622916666628
        },
        {
          "name": "A5",
          "midi": 81,
          "time": 104.27066650000017,
          "velocity": 0.8661417322834646,
          "duration": 0.09982622916666628
        },
        {
          "name": "A5",
          "midi": 81,
          "time": 104.37483300000018,
          "velocity": 0.8661417322834646,
          "duration": 0.20399272916667144
        },
        {
          "name": "C6",
          "midi": 84,
          "time": 104.58316600000019,
          "velocity": 0.8661417322834646,
          "duration": 0.34722166666666965
        },
        {
          "name": "G5",
          "midi": 79,
          "time": 105.93733050000019,
          "velocity": 0.8661417322834646,
          "duration": 0.09982622916666628
        },
        {
          "name": "G5",
          "midi": 79,
          "time": 106.04149700000019,
          "velocity": 0.8661417322834646,
          "duration": 0.20399272916667144
        },
        {
          "name": "G5",
          "midi": 79,
          "time": 106.2498300000002,
          "velocity": 0.8661417322834646,
          "duration": 0.3081592291666624
        },
        {
          "name": "A5",
          "midi": 81,
          "time": 106.5623295000002,
          "velocity": 0.8661417322834646,
          "duration": 0.4513881666666606
        },
        {
          "name": "D#5",
          "midi": 75,
          "time": 107.0831620000002,
          "velocity": 0.8661417322834646,
          "duration": 0.09982622916666628
        },
        {
          "name": "E5",
          "midi": 76,
          "time": 107.1873285000002,
          "velocity": 0.8661417322834646,
          "duration": 0.09982622916666628
        },
        {
          "name": "G5",
          "midi": 79,
          "time": 107.29149500000021,
          "velocity": 0.8661417322834646,
          "duration": 0.09982622916666628
        },
        {
          "name": "A5",
          "midi": 81,
          "time": 107.39566150000022,
          "velocity": 0.8661417322834646,
          "duration": 0.4513881666666606
        },
        {
          "name": "E5",
          "midi": 76,
          "time": 108.43732650000021,
          "velocity": 0.8661417322834646,
          "duration": 0.09982622916666628
        },
        {
          "name": "E5",
          "midi": 76,
          "time": 108.54149300000022,
          "velocity": 0.8661417322834646,
          "duration": 0.20399272916667144
        },
        {
          "name": "E5",
          "midi": 76,
          "time": 108.74982600000023,
          "velocity": 0.8661417322834646,
          "duration": 0.20399272916667144
        },
        {
          "name": "E5",
          "midi": 76,
          "time": 108.95815900000024,
          "velocity": 0.8661417322834646,
          "duration": 0.09982622916666628
        },
        {
          "name": "E5",
          "midi": 76,
          "time": 109.06232550000024,
          "velocity": 0.8661417322834646,
          "duration": 0.20399272916667144
        },
        {
          "name": "E5",
          "midi": 76,
          "time": 109.37482500000024,
          "velocity": 0.8661417322834646,
          "duration": 0.20399272916667144
        },
        {
          "name": "G5",
          "midi": 79,
          "time": 109.58315800000025,
          "velocity": 0.8661417322834646,
          "duration": 0.3081592291666624
        },
        {
          "name": "E5",
          "midi": 76,
          "time": 109.89565750000025,
          "velocity": 0.8661417322834646,
          "duration": 0.4513881666666606
        },
        {
          "name": "G5",
          "midi": 79,
          "time": 110.72898950000025,
          "velocity": 0.8661417322834646,
          "duration": 0.09982622916666628
        },
        {
          "name": "C6",
          "midi": 84,
          "time": 110.83315600000026,
          "velocity": 0.8661417322834646,
          "duration": 0.20399272916667144
        },
        {
          "name": "G5",
          "midi": 79,
          "time": 111.04148900000027,
          "velocity": 0.8661417322834646,
          "duration": 0.09982622916666628
        },
        {
          "name": "A5",
          "midi": 81,
          "time": 111.14565550000027,
          "velocity": 0.8661417322834646,
          "duration": 0.4513881666666606
        },
        {
          "name": "C6",
          "midi": 84,
          "time": 113.74981800000026,
          "velocity": 0.8661417322834646,
          "duration": 0.3081592291666624
        },
        {
          "name": "A5",
          "midi": 81,
          "time": 114.06231750000026,
          "velocity": 0.8661417322834646,
          "duration": 0.3081592291666624
        },
        {
          "name": "A5",
          "midi": 81,
          "time": 114.37481700000026,
          "velocity": 0.8661417322834646,
          "duration": 0.34722166666666965
        },
        {
          "name": "G5",
          "midi": 79,
          "time": 116.87481300000027,
          "velocity": 0.8661417322834646,
          "duration": 0.3081592291666624
        },
        {
          "name": "G5",
          "midi": 79,
          "time": 117.18731250000027,
          "velocity": 0.8661417322834646,
          "duration": 0.3081592291666624
        },
        {
          "name": "C6",
          "midi": 84,
          "time": 117.49981200000028,
          "velocity": 0.8661417322834646,
          "duration": 1.03732472916667
        },
        {
          "name": "C6",
          "midi": 84,
          "time": 119.99980800000029,
          "velocity": 0.8661417322834646,
          "duration": 0.3081592291666624
        },
        {
          "name": "B5",
          "midi": 83,
          "time": 120.31230750000029,
          "velocity": 0.8661417322834646,
          "duration": 0.3081592291666624
        },
        {
          "name": "A5",
          "midi": 81,
          "time": 120.62480700000029,
          "velocity": 0.8661417322834646,
          "duration": 0.34722166666666965
        },
        {
          "name": "C6",
          "midi": 84,
          "time": 123.0206365000003,
          "velocity": 0.8661417322834646,
          "duration": 0.41232572916666754
        },
        {
          "name": "G5",
          "midi": 79,
          "time": 123.4373025000003,
          "velocity": 0.8661417322834646,
          "duration": 0.3081592291666624
        },
        {
          "name": "A5",
          "midi": 81,
          "time": 123.7498020000003,
          "velocity": 0.8661417322834646,
          "duration": 0.7291654999999935
        }
      ],
      "controlChanges": {
        "7": [
          {
            "number": 7,
            "time": 0,
            "value": 1
          }
        ],
        "10": [
          {
            "number": 10,
            "time": 0,
            "value": 0.5039370078740157
          }
        ]
      },
      "id": 1,
      "name": "Vocals",
      "instrumentNumber": 52,
      "instrument": "choir aahs",
      "instrumentFamily": "ensemble",
      "channelNumber": 0,
      "isPercussion": false
    },
    {
      "startTime": 0,
      "duration": 226.18019366664316,
      "length": 1451,
      "notes": [
        {
          "name": "E2",
          "midi": 40,
          "time": 0,
          "velocity": 0.8661417322834646,
          "duration": 2.3958295
        },
        {
          "name": "B2",
          "midi": 47,
          "time": 0,
          "velocity": 0.8661417322834646,
          "duration": 2.3958295
        },
        {
          "name": "E3",
          "midi": 52,
          "time": 0,
          "velocity": 0.8661417322834646,
          "duration": 2.3958295
        },
        {
          "name": "E2",
          "midi": 40,
          "time": 2.499996,
          "velocity": 0.8661417322834646,
          "duration": 0.34722166666666654
        },
        {
          "name": "B2",
          "midi": 47,
          "time": 2.499996,
          "velocity": 0.8661417322834646,
          "duration": 0.34722166666666654
        },
        {
          "name": "E3",
          "midi": 52,
          "time": 2.499996,
          "velocity": 0.8661417322834646,
          "duration": 0.34722166666666654
        },
        {
          "name": "E2",
          "midi": 40,
          "time": 2.9166619999999996,
          "velocity": 0.8661417322834646,
          "duration": 0.34722166666666654
        },
        {
          "name": "B2",
          "midi": 47,
          "time": 2.9166619999999996,
          "velocity": 0.8661417322834646,
          "duration": 0.34722166666666654
        },
        {
          "name": "E3",
          "midi": 52,
          "time": 2.9166619999999996,
          "velocity": 0.8661417322834646,
          "duration": 0.34722166666666654
        },
        {
          "name": "E2",
          "midi": 40,
          "time": 3.3333279999999994,
          "velocity": 0.8661417322834646,
          "duration": 0.34722166666666654
        },
        {
          "name": "B2",
          "midi": 47,
          "time": 3.3333279999999994,
          "velocity": 0.8661417322834646,
          "duration": 0.34722166666666654
        },
        {
          "name": "E3",
          "midi": 52,
          "time": 3.3333279999999994,
          "velocity": 0.8661417322834646,
          "duration": 0.34722166666666654
        },
        {
          "name": "E2",
          "midi": 40,
          "time": 3.749993999999999,
          "velocity": 0.8661417322834646,
          "duration": 0.347221666666667
        },
        {
          "name": "B2",
          "midi": 47,
          "time": 3.749993999999999,
          "velocity": 0.8661417322834646,
          "duration": 0.347221666666667
        },
        {
          "name": "E3",
          "midi": 52,
          "time": 3.749993999999999,
          "velocity": 0.8661417322834646,
          "duration": 0.347221666666667
        },
        {
          "name": "E2",
          "midi": 40,
          "time": 4.166659999999999,
          "velocity": 0.8661417322834646,
          "duration": 0.347221666666667
        },
        {
          "name": "B2",
          "midi": 47,
          "time": 4.166659999999999,
          "velocity": 0.8661417322834646,
          "duration": 0.347221666666667
        },
        {
          "name": "E3",
          "midi": 52,
          "time": 4.166659999999999,
          "velocity": 0.8661417322834646,
          "duration": 0.347221666666667
        },
        {
          "name": "E2",
          "midi": 40,
          "time": 4.583326,
          "velocity": 0.8661417322834646,
          "duration": 0.347221666666667
        },
        {
          "name": "B2",
          "midi": 47,
          "time": 4.583326,
          "velocity": 0.8661417322834646,
          "duration": 0.347221666666667
        },
        {
          "name": "E3",
          "midi": 52,
          "time": 4.583326,
          "velocity": 0.8661417322834646,
          "duration": 0.347221666666667
        },
        {
          "name": "E2",
          "midi": 40,
          "time": 4.999992,
          "velocity": 0.8661417322834646,
          "duration": 2.3958295000000005
        },
        {
          "name": "B2",
          "midi": 47,
          "time": 4.999992,
          "velocity": 0.8661417322834646,
          "duration": 2.3958295000000005
        },
        {
          "name": "E3",
          "midi": 52,
          "time": 4.999992,
          "velocity": 0.8661417322834646,
          "duration": 2.3958295000000005
        },
        {
          "name": "F#2",
          "midi": 42,
          "time": 7.499988,
          "velocity": 0.8661417322834646,
          "duration": 4.895825499999999
        },
        {
          "name": "C#3",
          "midi": 49,
          "time": 7.499988,
          "velocity": 0.8661417322834646,
          "duration": 4.895825499999999
        },
        {
          "name": "A2",
          "midi": 45,
          "time": 12.499979999999999,
          "velocity": 0.8661417322834646,
          "duration": 0.2039927291666661
        },
        {
          "name": "G3",
          "midi": 55,
          "time": 12.499979999999999,
          "velocity": 0.8661417322834646,
          "duration": 0.2039927291666661
        },
        {
          "name": "A2",
          "midi": 45,
          "time": 12.708312999999999,
          "velocity": 0.8661417322834646,
          "duration": 0.09982622916666628
        },
        {
          "name": "A2",
          "midi": 45,
          "time": 12.812479499999998,
          "velocity": 0.8661417322834646,
          "duration": 0.09982622916666628
        },
        {
          "name": "A2",
          "midi": 45,
          "time": 12.916645999999998,
          "velocity": 0.8661417322834646,
          "duration": 0.09982622916666628
        },
        {
          "name": "A2",
          "midi": 45,
          "time": 13.020812499999998,
          "velocity": 0.8661417322834646,
          "duration": 0.09982622916666628
        },
        {
          "name": "A2",
          "midi": 45,
          "time": 13.124978999999998,
          "velocity": 0.8661417322834646,
          "duration": 0.09982622916666628
        },
        {
          "name": "A2",
          "midi": 45,
          "time": 13.229145499999998,
          "velocity": 0.8661417322834646,
          "duration": 0.09982622916666628
        },
        {
          "name": "G3",
          "midi": 55,
          "time": 13.333311999999998,
          "velocity": 0.8661417322834646,
          "duration": 0.2039927291666661
        },
        {
          "name": "C4",
          "midi": 60,
          "time": 13.333311999999998,
          "velocity": 0.8661417322834646,
          "duration": 0.2039927291666661
        },
        {
          "name": "A3",
          "midi": 57,
          "time": 13.541644999999997,
          "velocity": 0.8661417322834646,
          "duration": 0.09982622916666628
        },
        {
          "name": "D4",
          "midi": 62,
          "time": 13.541644999999997,
          "velocity": 0.8661417322834646,
          "duration": 0.09982622916666628
        },
        {
          "name": "A3",
          "midi": 57,
          "time": 13.645811499999997,
          "velocity": 0.8661417322834646,
          "duration": 0.30815922916666594
        },
        {
          "name": "D4",
          "midi": 62,
          "time": 13.645811499999997,
          "velocity": 0.8661417322834646,
          "duration": 0.30815922916666594
        },
        {
          "name": "D3",
          "midi": 50,
          "time": 13.958310999999997,
          "velocity": 0.8661417322834646,
          "duration": 0.2039927291666661
        },
        {
          "name": "G3",
          "midi": 55,
          "time": 13.958310999999997,
          "velocity": 0.8661417322834646,
          "duration": 0.2039927291666661
        },
        {
          "name": "A2",
          "midi": 45,
          "time": 14.166643999999996,
          "velocity": 0.8661417322834646,
          "duration": 0.2039927291666661
        },
        {
          "name": "G3",
          "midi": 55,
          "time": 14.166643999999996,
          "velocity": 0.8661417322834646,
          "duration": 0.2039927291666661
        },
        {
          "name": "A2",
          "midi": 45,
          "time": 14.374976999999996,
          "velocity": 0.8661417322834646,
          "duration": 0.09982622916666628
        },
        {
          "name": "A2",
          "midi": 45,
          "time": 14.479143499999996,
          "velocity": 0.8661417322834646,
          "duration": 0.09982622916666628
        },
        {
          "name": "A2",
          "midi": 45,
          "time": 14.583309999999996,
          "velocity": 0.8661417322834646,
          "duration": 0.09982622916666628
        },
        {
          "name": "A2",
          "midi": 45,
          "time": 14.687476499999995,
          "velocity": 0.8661417322834646,
          "duration": 0.09982622916666628
        },
        {
          "name": "A2",
          "midi": 45,
          "time": 14.791642999999995,
          "velocity": 0.8661417322834646,
          "duration": 0.09982622916666628
        },
        {
          "name": "A2",
          "midi": 45,
          "time": 14.895809499999995,
          "velocity": 0.8661417322834646,
          "duration": 0.09982622916666628
        },
        {
          "name": "A3",
          "midi": 57,
          "time": 14.999975999999995,
          "velocity": 0.8661417322834646,
          "duration": 0.09982622916666628
        },
        {
          "name": "G3",
          "midi": 55,
          "time": 15.104142499999995,
          "velocity": 0.8661417322834646,
          "duration": 0.09982622916666628
        },
        {
          "name": "E3",
          "midi": 52,
          "time": 15.208308999999995,
          "velocity": 0.8661417322834646,
          "duration": 0.09982622916666628
        },
        {
          "name": "G3",
          "midi": 55,
          "time": 15.312475499999994,
          "velocity": 0.8661417322834646,
          "duration": 0.2039927291666661
        },
        {
          "name": "D#3",
          "midi": 51,
          "time": 15.520808499999994,
          "velocity": 0.8661417322834646,
          "duration": 0.09982622916666628
        },
        {
          "name": "E3",
          "midi": 52,
          "time": 15.624974999999994,
          "velocity": 0.8661417322834646,
          "duration": 0.2039927291666661
        },
        {
          "name": "A2",
          "midi": 45,
          "time": 15.833307999999993,
          "velocity": 0.8661417322834646,
          "duration": 0.2039927291666661
        },
        {
          "name": "G3",
          "midi": 55,
          "time": 15.833307999999993,
          "velocity": 0.8661417322834646,
          "duration": 0.2039927291666661
        },
        {
          "name": "A2",
          "midi": 45,
          "time": 16.04164099999999,
          "velocity": 0.8661417322834646,
          "duration": 0.09982622916666628
        },
        {
          "name": "A2",
          "midi": 45,
          "time": 16.14580749999999,
          "velocity": 0.8661417322834646,
          "duration": 0.09982622916666628
        },
        {
          "name": "A2",
          "midi": 45,
          "time": 16.249973999999987,
          "velocity": 0.8661417322834646,
          "duration": 0.09982622916666628
        },
        {
          "name": "A2",
          "midi": 45,
          "time": 16.354140499999986,
          "velocity": 0.8661417322834646,
          "duration": 0.09982622916666628
        },
        {
          "name": "A2",
          "midi": 45,
          "time": 16.458306999999984,
          "velocity": 0.8661417322834646,
          "duration": 0.09982622916666628
        },
        {
          "name": "A2",
          "midi": 45,
          "time": 16.56247349999998,
          "velocity": 0.8661417322834646,
          "duration": 0.09982622916666628
        },
        {
          "name": "G3",
          "midi": 55,
          "time": 16.66663999999998,
          "velocity": 0.8661417322834646,
          "duration": 0.20399272916666789
        },
        {
          "name": "C4",
          "midi": 60,
          "time": 16.66663999999998,
          "velocity": 0.8661417322834646,
          "duration": 0.20399272916666789
        },
        {
          "name": "A3",
          "midi": 57,
          "time": 16.87497299999998,
          "velocity": 0.8661417322834646,
          "duration": 0.09982622916666628
        },
        {
          "name": "D4",
          "midi": 62,
          "time": 16.87497299999998,
          "velocity": 0.8661417322834646,
          "duration": 0.09982622916666628
        },
        {
          "name": "A3",
          "midi": 57,
          "time": 16.979139499999977,
          "velocity": 0.8661417322834646,
          "duration": 0.30815922916666594
        },
        {
          "name": "D4",
          "midi": 62,
          "time": 16.979139499999977,
          "velocity": 0.8661417322834646,
          "duration": 0.30815922916666594
        },
        {
          "name": "D3",
          "midi": 50,
          "time": 17.291638999999975,
          "velocity": 0.8661417322834646,
          "duration": 0.20399272916666789
        },
        {
          "name": "G3",
          "midi": 55,
          "time": 17.291638999999975,
          "velocity": 0.8661417322834646,
          "duration": 0.20399272916666789
        },
        {
          "name": "A2",
          "midi": 45,
          "time": 17.499971999999975,
          "velocity": 0.8661417322834646,
          "duration": 0.20399272916666789
        },
        {
          "name": "G3",
          "midi": 55,
          "time": 17.499971999999975,
          "velocity": 0.8661417322834646,
          "duration": 0.20399272916666789
        },
        {
          "name": "A2",
          "midi": 45,
          "time": 17.708304999999974,
          "velocity": 0.8661417322834646,
          "duration": 0.09982622916666628
        },
        {
          "name": "A2",
          "midi": 45,
          "time": 17.812471499999972,
          "velocity": 0.8661417322834646,
          "duration": 0.09982622916666628
        },
        {
          "name": "A2",
          "midi": 45,
          "time": 17.91663799999997,
          "velocity": 0.8661417322834646,
          "duration": 0.09982622916666628
        },
        {
          "name": "A2",
          "midi": 45,
          "time": 18.02080449999997,
          "velocity": 0.8661417322834646,
          "duration": 0.09982622916666628
        },
        {
          "name": "A2",
          "midi": 45,
          "time": 18.124970999999967,
          "velocity": 0.8661417322834646,
          "duration": 0.09982622916666628
        },
        {
          "name": "A2",
          "midi": 45,
          "time": 18.229137499999965,
          "velocity": 0.8661417322834646,
          "duration": 0.09982622916666628
        },
        {
          "name": "D#3",
          "midi": 51,
          "time": 18.333303999999963,
          "velocity": 0.8661417322834646,
          "duration": 0.09982622916666628
        },
        {
          "name": "E3",
          "midi": 52,
          "time": 18.43747049999996,
          "velocity": 0.8661417322834646,
          "duration": 0.09982622916666628
        },
        {
          "name": "D#4",
          "midi": 63,
          "time": 18.64580349999996,
          "velocity": 0.8661417322834646,
          "duration": 0.4513881666665931
        },
        {
          "name": "A2",
          "midi": 45,
          "time": 19.166635999999887,
          "velocity": 0.8661417322834646,
          "duration": 0.3472216666666661
        },
        {
          "name": "E3",
          "midi": 52,
          "time": 19.166635999999887,
          "velocity": 0.8661417322834646,
          "duration": 0.3472216666666661
        },
        {
          "name": "A3",
          "midi": 57,
          "time": 19.166635999999887,
          "velocity": 0.8661417322834646,
          "duration": 0.3472216666666661
        },
        {
          "name": "A2",
          "midi": 45,
          "time": 20.833299999999888,
          "velocity": 0.8661417322834646,
          "duration": 0.3472216666666661
        },
        {
          "name": "E3",
          "midi": 52,
          "time": 20.833299999999888,
          "velocity": 0.8661417322834646,
          "duration": 0.3472216666666661
        },
        {
          "name": "A3",
          "midi": 57,
          "time": 20.833299999999888,
          "velocity": 0.8661417322834646,
          "duration": 0.3472216666666661
        },
        {
          "name": "A2",
          "midi": 45,
          "time": 22.49996399999989,
          "velocity": 0.8661417322834646,
          "duration": 0.3472216666666661
        },
        {
          "name": "E3",
          "midi": 52,
          "time": 22.49996399999989,
          "velocity": 0.8661417322834646,
          "duration": 0.3472216666666661
        },
        {
          "name": "A3",
          "midi": 57,
          "time": 22.49996399999989,
          "velocity": 0.8661417322834646,
          "duration": 0.3472216666666661
        },
        {
          "name": "A2",
          "midi": 45,
          "time": 24.16662799999989,
          "velocity": 0.8661417322834646,
          "duration": 0.3472216666666661
        },
        {
          "name": "E3",
          "midi": 52,
          "time": 24.16662799999989,
          "velocity": 0.8661417322834646,
          "duration": 0.3472216666666661
        },
        {
          "name": "A3",
          "midi": 57,
          "time": 24.16662799999989,
          "velocity": 0.8661417322834646,
          "duration": 0.3472216666666661
        },
        {
          "name": "A2",
          "midi": 45,
          "time": 25.83329199999989,
          "velocity": 0.8661417322834646,
          "duration": 0.20399272916666789
        },
        {
          "name": "G3",
          "midi": 55,
          "time": 25.83329199999989,
          "velocity": 0.8661417322834646,
          "duration": 0.20399272916666789
        },
        {
          "name": "A2",
          "midi": 45,
          "time": 26.04162499999989,
          "velocity": 0.8661417322834646,
          "duration": 0.09982622916666628
        },
        {
          "name": "A2",
          "midi": 45,
          "time": 26.145791499999888,
          "velocity": 0.8661417322834646,
          "duration": 0.09982622916666628
        },
        {
          "name": "A2",
          "midi": 45,
          "time": 26.249957999999886,
          "velocity": 0.8661417322834646,
          "duration": 0.09982622916666628
        },
        {
          "name": "A2",
          "midi": 45,
          "time": 26.354124499999884,
          "velocity": 0.8661417322834646,
          "duration": 0.09982622916666628
        },
        {
          "name": "A2",
          "midi": 45,
          "time": 26.458290999999882,
          "velocity": 0.8661417322834646,
          "duration": 0.09982622916666628
        },
        {
          "name": "A2",
          "midi": 45,
          "time": 26.56245749999988,
          "velocity": 0.8661417322834646,
          "duration": 0.09982622916666628
        },
        {
          "name": "G3",
          "midi": 55,
          "time": 26.666623999999878,
          "velocity": 0.8661417322834646,
          "duration": 0.20399272916666789
        },
        {
          "name": "C4",
          "midi": 60,
          "time": 26.666623999999878,
          "velocity": 0.8661417322834646,
          "duration": 0.20399272916666789
        },
        {
          "name": "A3",
          "midi": 57,
          "time": 26.874956999999878,
          "velocity": 0.8661417322834646,
          "duration": 0.09982622916666628
        },
        {
          "name": "D4",
          "midi": 62,
          "time": 26.874956999999878,
          "velocity": 0.8661417322834646,
          "duration": 0.09982622916666628
        },
        {
          "name": "A3",
          "midi": 57,
          "time": 26.979123499999876,
          "velocity": 0.8661417322834646,
          "duration": 0.30815922916666594
        },
        {
          "name": "D4",
          "midi": 62,
          "time": 26.979123499999876,
          "velocity": 0.8661417322834646,
          "duration": 0.30815922916666594
        },
        {
          "name": "D3",
          "midi": 50,
          "time": 27.291622999999873,
          "velocity": 0.8661417322834646,
          "duration": 0.20399272916666789
        },
        {
          "name": "G3",
          "midi": 55,
          "time": 27.291622999999873,
          "velocity": 0.8661417322834646,
          "duration": 0.20399272916666789
        },
        {
          "name": "A2",
          "midi": 45,
          "time": 27.499955999999873,
          "velocity": 0.8661417322834646,
          "duration": 0.20399272916666789
        },
        {
          "name": "G3",
          "midi": 55,
          "time": 27.499955999999873,
          "velocity": 0.8661417322834646,
          "duration": 0.20399272916666789
        },
        {
          "name": "A2",
          "midi": 45,
          "time": 27.708288999999873,
          "velocity": 0.8661417322834646,
          "duration": 0.09982622916666628
        },
        {
          "name": "A2",
          "midi": 45,
          "time": 27.81245549999987,
          "velocity": 0.8661417322834646,
          "duration": 0.09982622916666628
        },
        {
          "name": "A2",
          "midi": 45,
          "time": 27.91662199999987,
          "velocity": 0.8661417322834646,
          "duration": 0.09982622916666628
        },
        {
          "name": "A2",
          "midi": 45,
          "time": 28.020788499999867,
          "velocity": 0.8661417322834646,
          "duration": 0.09982622916666628
        },
        {
          "name": "A2",
          "midi": 45,
          "time": 28.124954999999865,
          "velocity": 0.8661417322834646,
          "duration": 0.09982622916666628
        },
        {
          "name": "A2",
          "midi": 45,
          "time": 28.229121499999863,
          "velocity": 0.8661417322834646,
          "duration": 0.09982622916666628
        },
        {
          "name": "A3",
          "midi": 57,
          "time": 28.33328799999986,
          "velocity": 0.8661417322834646,
          "duration": 0.09982622916666628
        },
        {
          "name": "G3",
          "midi": 55,
          "time": 28.43745449999986,
          "velocity": 0.8661417322834646,
          "duration": 0.09982622916666628
        },
        {
          "name": "E3",
          "midi": 52,
          "time": 28.541620999999857,
          "velocity": 0.8661417322834646,
          "duration": 0.09982622916666628
        },
        {
          "name": "G3",
          "midi": 55,
          "time": 28.645787499999855,
          "velocity": 0.8661417322834646,
          "duration": 0.20399272916666789
        },
        {
          "name": "D#3",
          "midi": 51,
          "time": 28.854120499999855,
          "velocity": 0.8661417322834646,
          "duration": 0.09982622916666628
        },
        {
          "name": "E3",
          "midi": 52,
          "time": 28.958286999999853,
          "velocity": 0.8661417322834646,
          "duration": 0.20399272916666789
        },
        {
          "name": "A2",
          "midi": 45,
          "time": 29.166619999999853,
          "velocity": 0.8661417322834646,
          "duration": 0.20399272916666789
        },
        {
          "name": "G3",
          "midi": 55,
          "time": 29.166619999999853,
          "velocity": 0.8661417322834646,
          "duration": 0.20399272916666789
        },
        {
          "name": "A2",
          "midi": 45,
          "time": 29.374952999999852,
          "velocity": 0.8661417322834646,
          "duration": 0.09982622916666628
        },
        {
          "name": "A2",
          "midi": 45,
          "time": 29.47911949999985,
          "velocity": 0.8661417322834646,
          "duration": 0.09982622916666628
        },
        {
          "name": "A2",
          "midi": 45,
          "time": 29.58328599999985,
          "velocity": 0.8661417322834646,
          "duration": 0.09982622916666628
        },
        {
          "name": "A2",
          "midi": 45,
          "time": 29.687452499999846,
          "velocity": 0.8661417322834646,
          "duration": 0.09982622916666628
        },
        {
          "name": "A2",
          "midi": 45,
          "time": 29.791618999999844,
          "velocity": 0.8661417322834646,
          "duration": 0.09982622916666628
        },
        {
          "name": "A2",
          "midi": 45,
          "time": 29.895785499999842,
          "velocity": 0.8661417322834646,
          "duration": 0.09982622916666628
        },
        {
          "name": "G3",
          "midi": 55,
          "time": 29.99995199999984,
          "velocity": 0.8661417322834646,
          "duration": 0.20399272916666789
        },
        {
          "name": "C4",
          "midi": 60,
          "time": 29.99995199999984,
          "velocity": 0.8661417322834646,
          "duration": 0.20399272916666789
        },
        {
          "name": "A3",
          "midi": 57,
          "time": 30.20828499999984,
          "velocity": 0.8661417322834646,
          "duration": 0.09982622916666628
        },
        {
          "name": "D4",
          "midi": 62,
          "time": 30.20828499999984,
          "velocity": 0.8661417322834646,
          "duration": 0.09982622916666628
        },
        {
          "name": "A3",
          "midi": 57,
          "time": 30.31245149999984,
          "velocity": 0.8661417322834646,
          "duration": 0.30815922916666594
        },
        {
          "name": "D4",
          "midi": 62,
          "time": 30.31245149999984,
          "velocity": 0.8661417322834646,
          "duration": 0.30815922916666594
        },
        {
          "name": "D3",
          "midi": 50,
          "time": 30.624950999999836,
          "velocity": 0.8661417322834646,
          "duration": 0.20399272916666789
        },
        {
          "name": "G3",
          "midi": 55,
          "time": 30.624950999999836,
          "velocity": 0.8661417322834646,
          "duration": 0.20399272916666789
        },
        {
          "name": "A2",
          "midi": 45,
          "time": 30.833283999999836,
          "velocity": 0.8661417322834646,
          "duration": 0.20399272916666789
        },
        {
          "name": "G3",
          "midi": 55,
          "time": 30.833283999999836,
          "velocity": 0.8661417322834646,
          "duration": 0.20399272916666789
        },
        {
          "name": "A2",
          "midi": 45,
          "time": 31.041616999999835,
          "velocity": 0.8661417322834646,
          "duration": 0.09982622916666628
        },
        {
          "name": "A2",
          "midi": 45,
          "time": 31.145783499999833,
          "velocity": 0.8661417322834646,
          "duration": 0.09982622916666628
        },
        {
          "name": "A2",
          "midi": 45,
          "time": 31.24994999999983,
          "velocity": 0.8661417322834646,
          "duration": 0.09982622916666628
        },
        {
          "name": "A2",
          "midi": 45,
          "time": 31.35411649999983,
          "velocity": 0.8661417322834646,
          "duration": 0.09982622916666628
        },
        {
          "name": "A2",
          "midi": 45,
          "time": 31.458282999999827,
          "velocity": 0.8661417322834646,
          "duration": 0.09982622916666628
        },
        {
          "name": "A2",
          "midi": 45,
          "time": 31.562449499999826,
          "velocity": 0.8661417322834646,
          "duration": 0.09982622916666628
        },
        {
          "name": "A3",
          "midi": 57,
          "time": 31.666615999999824,
          "velocity": 0.8661417322834646,
          "duration": 0.09982622916666628
        },
        {
          "name": "G3",
          "midi": 55,
          "time": 31.77078249999982,
          "velocity": 0.8661417322834646,
          "duration": 0.09982622916666628
        },
        {
          "name": "E3",
          "midi": 52,
          "time": 31.87494899999982,
          "velocity": 0.8661417322834646,
          "duration": 0.09982622916666628
        },
        {
          "name": "G3",
          "midi": 55,
          "time": 31.979115499999818,
          "velocity": 0.8661417322834646,
          "duration": 0.20399272916666789
        },
        {
          "name": "D#3",
          "midi": 51,
          "time": 32.18744849999982,
          "velocity": 0.8661417322834646,
          "duration": 0.09982622916666628
        },
        {
          "name": "E3",
          "midi": 52,
          "time": 32.291614999999815,
          "velocity": 0.8661417322834646,
          "duration": 0.20399272916666433
        },
        {
          "name": "D3",
          "midi": 50,
          "time": 32.49994799999981,
          "velocity": 0.8661417322834646,
          "duration": 0.20399272916666433
        },
        {
          "name": "A3",
          "midi": 57,
          "time": 32.49994799999981,
          "velocity": 0.8661417322834646,
          "duration": 0.20399272916666433
        },
        {
          "name": "D4",
          "midi": 62,
          "time": 32.49994799999981,
          "velocity": 0.8661417322834646,
          "duration": 0.20399272916666433
        },
        {
          "name": "D3",
          "midi": 50,
          "time": 32.70828099999981,
          "velocity": 0.8661417322834646,
          "duration": 0.5555546666666658
        },
        {
          "name": "A3",
          "midi": 57,
          "time": 32.70828099999981,
          "velocity": 0.8661417322834646,
          "duration": 0.5555546666666658
        },
        {
          "name": "D4",
          "midi": 62,
          "time": 32.70828099999981,
          "velocity": 0.8661417322834646,
          "duration": 0.5555546666666658
        },
        {
          "name": "G2",
          "midi": 43,
          "time": 33.33327999999981,
          "velocity": 0.8661417322834646,
          "duration": 0.20399272916666433
        },
        {
          "name": "D3",
          "midi": 50,
          "time": 33.33327999999981,
          "velocity": 0.8661417322834646,
          "duration": 0.20399272916666433
        },
        {
          "name": "G3",
          "midi": 55,
          "time": 33.33327999999981,
          "velocity": 0.8661417322834646,
          "duration": 0.20399272916666433
        },
        {
          "name": "G2",
          "midi": 43,
          "time": 33.541612999999806,
          "velocity": 0.8661417322834646,
          "duration": 0.5555546666666658
        },
        {
          "name": "D3",
          "midi": 50,
          "time": 33.541612999999806,
          "velocity": 0.8661417322834646,
          "duration": 0.5555546666666658
        },
        {
          "name": "G3",
          "midi": 55,
          "time": 33.541612999999806,
          "velocity": 0.8661417322834646,
          "duration": 0.5555546666666658
        },
        {
          "name": "D3",
          "midi": 50,
          "time": 34.16661199999981,
          "velocity": 0.8661417322834646,
          "duration": 0.20399272916666433
        },
        {
          "name": "A3",
          "midi": 57,
          "time": 34.16661199999981,
          "velocity": 0.8661417322834646,
          "duration": 0.20399272916666433
        },
        {
          "name": "D4",
          "midi": 62,
          "time": 34.16661199999981,
          "velocity": 0.8661417322834646,
          "duration": 0.20399272916666433
        },
        {
          "name": "D3",
          "midi": 50,
          "time": 34.374944999999805,
          "velocity": 0.8661417322834646,
          "duration": 0.5555546666666658
        },
        {
          "name": "A3",
          "midi": 57,
          "time": 34.374944999999805,
          "velocity": 0.8661417322834646,
          "duration": 0.5555546666666658
        },
        {
          "name": "D4",
          "midi": 62,
          "time": 34.374944999999805,
          "velocity": 0.8661417322834646,
          "duration": 0.5555546666666658
        },
        {
          "name": "C3",
          "midi": 48,
          "time": 34.99994399999981,
          "velocity": 0.8661417322834646,
          "duration": 0.3081592291666695
        },
        {
          "name": "B2",
          "midi": 47,
          "time": 35.31244349999981,
          "velocity": 0.8661417322834646,
          "duration": 0.3081592291666695
        },
        {
          "name": "G2",
          "midi": 43,
          "time": 35.62494299999981,
          "velocity": 0.8661417322834646,
          "duration": 0.20399272916666433
        },
        {
          "name": "A2",
          "midi": 45,
          "time": 35.833275999999806,
          "velocity": 0.8661417322834646,
          "duration": 0.20399272916666433
        },
        {
          "name": "G3",
          "midi": 55,
          "time": 35.833275999999806,
          "velocity": 0.8661417322834646,
          "duration": 0.20399272916666433
        },
        {
          "name": "A2",
          "midi": 45,
          "time": 36.0416089999998,
          "velocity": 0.8661417322834646,
          "duration": 0.09982622916666628
        },
        {
          "name": "A2",
          "midi": 45,
          "time": 36.1457754999998,
          "velocity": 0.8661417322834646,
          "duration": 0.09982622916666628
        },
        {
          "name": "A2",
          "midi": 45,
          "time": 36.2499419999998,
          "velocity": 0.8661417322834646,
          "duration": 0.09982622916666628
        },
        {
          "name": "A2",
          "midi": 45,
          "time": 36.354108499999796,
          "velocity": 0.8661417322834646,
          "duration": 0.09982622916666628
        },
        {
          "name": "A2",
          "midi": 45,
          "time": 36.458274999999794,
          "velocity": 0.8661417322834646,
          "duration": 0.09982622916666628
        },
        {
          "name": "A2",
          "midi": 45,
          "time": 36.56244149999979,
          "velocity": 0.8661417322834646,
          "duration": 0.09982622916666628
        },
        {
          "name": "G3",
          "midi": 55,
          "time": 36.66660799999979,
          "velocity": 0.8661417322834646,
          "duration": 0.20399272916666433
        },
        {
          "name": "C4",
          "midi": 60,
          "time": 36.66660799999979,
          "velocity": 0.8661417322834646,
          "duration": 0.20399272916666433
        },
        {
          "name": "A3",
          "midi": 57,
          "time": 36.87494099999979,
          "velocity": 0.8661417322834646,
          "duration": 0.09982622916666628
        },
        {
          "name": "D4",
          "midi": 62,
          "time": 36.87494099999979,
          "velocity": 0.8661417322834646,
          "duration": 0.09982622916666628
        },
        {
          "name": "A3",
          "midi": 57,
          "time": 36.979107499999785,
          "velocity": 0.8661417322834646,
          "duration": 0.3081592291666695
        },
        {
          "name": "D4",
          "midi": 62,
          "time": 36.979107499999785,
          "velocity": 0.8661417322834646,
          "duration": 0.3081592291666695
        },
        {
          "name": "D3",
          "midi": 50,
          "time": 37.291606999999786,
          "velocity": 0.8661417322834646,
          "duration": 0.20399272916666433
        },
        {
          "name": "G3",
          "midi": 55,
          "time": 37.291606999999786,
          "velocity": 0.8661417322834646,
          "duration": 0.20399272916666433
        },
        {
          "name": "A2",
          "midi": 45,
          "time": 37.49993999999978,
          "velocity": 0.8661417322834646,
          "duration": 0.20399272916666433
        },
        {
          "name": "G3",
          "midi": 55,
          "time": 37.49993999999978,
          "velocity": 0.8661417322834646,
          "duration": 0.20399272916666433
        },
        {
          "name": "A2",
          "midi": 45,
          "time": 37.70827299999978,
          "velocity": 0.8661417322834646,
          "duration": 0.09982622916666628
        },
        {
          "name": "A2",
          "midi": 45,
          "time": 37.812439499999776,
          "velocity": 0.8661417322834646,
          "duration": 0.09982622916666628
        },
        {
          "name": "A2",
          "midi": 45,
          "time": 37.916605999999774,
          "velocity": 0.8661417322834646,
          "duration": 0.09982622916666628
        },
        {
          "name": "A2",
          "midi": 45,
          "time": 38.02077249999977,
          "velocity": 0.8661417322834646,
          "duration": 0.09982622916666628
        },
        {
          "name": "A2",
          "midi": 45,
          "time": 38.12493899999977,
          "velocity": 0.8661417322834646,
          "duration": 0.09982622916666628
        },
        {
          "name": "A2",
          "midi": 45,
          "time": 38.22910549999977,
          "velocity": 0.8661417322834646,
          "duration": 0.09982622916666628
        },
        {
          "name": "A3",
          "midi": 57,
          "time": 38.333271999999766,
          "velocity": 0.8661417322834646,
          "duration": 0.09982622916666628
        },
        {
          "name": "G3",
          "midi": 55,
          "time": 38.437438499999764,
          "velocity": 0.8661417322834646,
          "duration": 0.09982622916666628
        },
        {
          "name": "E3",
          "midi": 52,
          "time": 38.54160499999976,
          "velocity": 0.8661417322834646,
          "duration": 0.09982622916666628
        },
        {
          "name": "G3",
          "midi": 55,
          "time": 38.64577149999976,
          "velocity": 0.8661417322834646,
          "duration": 0.20399272916666433
        },
        {
          "name": "D#3",
          "midi": 51,
          "time": 38.85410449999976,
          "velocity": 0.8661417322834646,
          "duration": 0.09982622916666628
        },
        {
          "name": "E3",
          "midi": 52,
          "time": 38.958270999999755,
          "velocity": 0.8661417322834646,
          "duration": 0.20399272916666433
        },
        {
          "name": "A2",
          "midi": 45,
          "time": 39.16660399999975,
          "velocity": 0.8661417322834646,
          "duration": 0.20399272916666433
        },
        {
          "name": "G3",
          "midi": 55,
          "time": 39.16660399999975,
          "velocity": 0.8661417322834646,
          "duration": 0.20399272916666433
        },
        {
          "name": "A2",
          "midi": 45,
          "time": 39.37493699999975,
          "velocity": 0.8661417322834646,
          "duration": 0.09982622916666628
        },
        {
          "name": "A2",
          "midi": 45,
          "time": 39.479103499999745,
          "velocity": 0.8661417322834646,
          "duration": 0.09982622916666628
        },
        {
          "name": "A2",
          "midi": 45,
          "time": 39.58326999999974,
          "velocity": 0.8661417322834646,
          "duration": 0.09982622916666628
        },
        {
          "name": "A2",
          "midi": 45,
          "time": 39.68743649999974,
          "velocity": 0.8661417322834646,
          "duration": 0.09982622916666628
        },
        {
          "name": "A2",
          "midi": 45,
          "time": 39.79160299999974,
          "velocity": 0.8661417322834646,
          "duration": 0.09982622916666628
        },
        {
          "name": "A2",
          "midi": 45,
          "time": 39.89576949999974,
          "velocity": 0.8661417322834646,
          "duration": 0.09982622916666628
        },
        {
          "name": "G3",
          "midi": 55,
          "time": 39.999935999999735,
          "velocity": 0.8661417322834646,
          "duration": 0.20399272916666433
        },
        {
          "name": "C4",
          "midi": 60,
          "time": 39.999935999999735,
          "velocity": 0.8661417322834646,
          "duration": 0.20399272916666433
        },
        {
          "name": "A3",
          "midi": 57,
          "time": 40.20826899999973,
          "velocity": 0.8661417322834646,
          "duration": 0.09982622916666628
        },
        {
          "name": "D4",
          "midi": 62,
          "time": 40.20826899999973,
          "velocity": 0.8661417322834646,
          "duration": 0.09982622916666628
        },
        {
          "name": "A3",
          "midi": 57,
          "time": 40.31243549999973,
          "velocity": 0.8661417322834646,
          "duration": 0.3081592291666695
        },
        {
          "name": "D4",
          "midi": 62,
          "time": 40.31243549999973,
          "velocity": 0.8661417322834646,
          "duration": 0.3081592291666695
        },
        {
          "name": "D3",
          "midi": 50,
          "time": 40.62493499999973,
          "velocity": 0.8661417322834646,
          "duration": 0.20399272916666433
        },
        {
          "name": "G3",
          "midi": 55,
          "time": 40.62493499999973,
          "velocity": 0.8661417322834646,
          "duration": 0.20399272916666433
        },
        {
          "name": "A2",
          "midi": 45,
          "time": 40.83326799999973,
          "velocity": 0.8661417322834646,
          "duration": 0.20399272916666433
        },
        {
          "name": "G3",
          "midi": 55,
          "time": 40.83326799999973,
          "velocity": 0.8661417322834646,
          "duration": 0.20399272916666433
        },
        {
          "name": "A2",
          "midi": 45,
          "time": 41.04160099999972,
          "velocity": 0.8661417322834646,
          "duration": 0.09982622916666628
        },
        {
          "name": "A2",
          "midi": 45,
          "time": 41.14576749999972,
          "velocity": 0.8661417322834646,
          "duration": 0.09982622916666628
        },
        {
          "name": "A2",
          "midi": 45,
          "time": 41.24993399999972,
          "velocity": 0.8661417322834646,
          "duration": 0.09982622916666628
        },
        {
          "name": "A2",
          "midi": 45,
          "time": 41.35410049999972,
          "velocity": 0.8661417322834646,
          "duration": 0.09982622916666628
        },
        {
          "name": "A2",
          "midi": 45,
          "time": 41.458266999999715,
          "velocity": 0.8661417322834646,
          "duration": 0.09982622916666628
        },
        {
          "name": "A2",
          "midi": 45,
          "time": 41.56243349999971,
          "velocity": 0.8661417322834646,
          "duration": 0.09982622916666628
        },
        {
          "name": "A3",
          "midi": 57,
          "time": 41.66659999999971,
          "velocity": 0.8661417322834646,
          "duration": 0.09982622916666628
        },
        {
          "name": "G3",
          "midi": 55,
          "time": 41.77076649999971,
          "velocity": 0.8661417322834646,
          "duration": 0.09982622916666628
        },
        {
          "name": "E3",
          "midi": 52,
          "time": 41.87493299999971,
          "velocity": 0.8661417322834646,
          "duration": 0.09982622916666628
        },
        {
          "name": "G3",
          "midi": 55,
          "time": 41.979099499999705,
          "velocity": 0.8661417322834646,
          "duration": 0.20399272916666433
        },
        {
          "name": "D#3",
          "midi": 51,
          "time": 42.1874324999997,
          "velocity": 0.8661417322834646,
          "duration": 0.09982622916666628
        },
        {
          "name": "E3",
          "midi": 52,
          "time": 42.2915989999997,
          "velocity": 0.8661417322834646,
          "duration": 0.20399272916666433
        },
        {
          "name": "D3",
          "midi": 50,
          "time": 42.499931999999696,
          "velocity": 0.8661417322834646,
          "duration": 0.20399272916666433
        },
        {
          "name": "A3",
          "midi": 57,
          "time": 42.499931999999696,
          "velocity": 0.8661417322834646,
          "duration": 0.20399272916666433
        },
        {
          "name": "D4",
          "midi": 62,
          "time": 42.499931999999696,
          "velocity": 0.8661417322834646,
          "duration": 0.20399272916666433
        },
        {
          "name": "D3",
          "midi": 50,
          "time": 42.70826499999969,
          "velocity": 0.8661417322834646,
          "duration": 0.5555546666666658
        },
        {
          "name": "A3",
          "midi": 57,
          "time": 42.70826499999969,
          "velocity": 0.8661417322834646,
          "duration": 0.5555546666666658
        },
        {
          "name": "D4",
          "midi": 62,
          "time": 42.70826499999969,
          "velocity": 0.8661417322834646,
          "duration": 0.5555546666666658
        },
        {
          "name": "G2",
          "midi": 43,
          "time": 43.333263999999694,
          "velocity": 0.8661417322834646,
          "duration": 0.20399272916666433
        },
        {
          "name": "D3",
          "midi": 50,
          "time": 43.333263999999694,
          "velocity": 0.8661417322834646,
          "duration": 0.20399272916666433
        },
        {
          "name": "G3",
          "midi": 55,
          "time": 43.333263999999694,
          "velocity": 0.8661417322834646,
          "duration": 0.20399272916666433
        },
        {
          "name": "G2",
          "midi": 43,
          "time": 43.54159699999969,
          "velocity": 0.8661417322834646,
          "duration": 0.5555546666666658
        },
        {
          "name": "D3",
          "midi": 50,
          "time": 43.54159699999969,
          "velocity": 0.8661417322834646,
          "duration": 0.5555546666666658
        },
        {
          "name": "G3",
          "midi": 55,
          "time": 43.54159699999969,
          "velocity": 0.8661417322834646,
          "duration": 0.5555546666666658
        },
        {
          "name": "D3",
          "midi": 50,
          "time": 44.16659599999969,
          "velocity": 0.8661417322834646,
          "duration": 0.20399272916666433
        },
        {
          "name": "A3",
          "midi": 57,
          "time": 44.16659599999969,
          "velocity": 0.8661417322834646,
          "duration": 0.20399272916666433
        },
        {
          "name": "D4",
          "midi": 62,
          "time": 44.16659599999969,
          "velocity": 0.8661417322834646,
          "duration": 0.20399272916666433
        },
        {
          "name": "D3",
          "midi": 50,
          "time": 44.37492899999969,
          "velocity": 0.8661417322834646,
          "duration": 0.5555546666666658
        },
        {
          "name": "A3",
          "midi": 57,
          "time": 44.37492899999969,
          "velocity": 0.8661417322834646,
          "duration": 0.5555546666666658
        },
        {
          "name": "D4",
          "midi": 62,
          "time": 44.37492899999969,
          "velocity": 0.8661417322834646,
          "duration": 0.5555546666666658
        },
        {
          "name": "C3",
          "midi": 48,
          "time": 44.99992799999969,
          "velocity": 0.8661417322834646,
          "duration": 0.3081592291666695
        },
        {
          "name": "B2",
          "midi": 47,
          "time": 45.31242749999969,
          "velocity": 0.8661417322834646,
          "duration": 0.3081592291666695
        },
        {
          "name": "G2",
          "midi": 43,
          "time": 45.624926999999694,
          "velocity": 0.8661417322834646,
          "duration": 0.20399272916666433
        },
        {
          "name": "A2",
          "midi": 45,
          "time": 45.83325999999969,
          "velocity": 0.8661417322834646,
          "duration": 0.20399272916666433
        },
        {
          "name": "G3",
          "midi": 55,
          "time": 45.83325999999969,
          "velocity": 0.8661417322834646,
          "duration": 0.20399272916666433
        },
        {
          "name": "A2",
          "midi": 45,
          "time": 46.041592999999686,
          "velocity": 0.8661417322834646,
          "duration": 0.09982622916666628
        },
        {
          "name": "A2",
          "midi": 45,
          "time": 46.145759499999684,
          "velocity": 0.8661417322834646,
          "duration": 0.09982622916666628
        },
        {
          "name": "A2",
          "midi": 45,
          "time": 46.24992599999968,
          "velocity": 0.8661417322834646,
          "duration": 0.09982622916666628
        },
        {
          "name": "A2",
          "midi": 45,
          "time": 46.35409249999968,
          "velocity": 0.8661417322834646,
          "duration": 0.09982622916666628
        },
        {
          "name": "A2",
          "midi": 45,
          "time": 46.45825899999968,
          "velocity": 0.8661417322834646,
          "duration": 0.09982622916666628
        },
        {
          "name": "A2",
          "midi": 45,
          "time": 46.56242549999968,
          "velocity": 0.8661417322834646,
          "duration": 0.09982622916666628
        },
        {
          "name": "G3",
          "midi": 55,
          "time": 46.666591999999675,
          "velocity": 0.8661417322834646,
          "duration": 0.20399272916666433
        },
        {
          "name": "C4",
          "midi": 60,
          "time": 46.666591999999675,
          "velocity": 0.8661417322834646,
          "duration": 0.20399272916666433
        },
        {
          "name": "A3",
          "midi": 57,
          "time": 46.87492499999967,
          "velocity": 0.8661417322834646,
          "duration": 0.09982622916666628
        },
        {
          "name": "D4",
          "midi": 62,
          "time": 46.87492499999967,
          "velocity": 0.8661417322834646,
          "duration": 0.09982622916666628
        },
        {
          "name": "A3",
          "midi": 57,
          "time": 46.97909149999967,
          "velocity": 0.8661417322834646,
          "duration": 0.3081592291666695
        },
        {
          "name": "D4",
          "midi": 62,
          "time": 46.97909149999967,
          "velocity": 0.8661417322834646,
          "duration": 0.3081592291666695
        },
        {
          "name": "D3",
          "midi": 50,
          "time": 47.29159099999967,
          "velocity": 0.8661417322834646,
          "duration": 0.20399272916666433
        },
        {
          "name": "G3",
          "midi": 55,
          "time": 47.29159099999967,
          "velocity": 0.8661417322834646,
          "duration": 0.20399272916666433
        },
        {
          "name": "A2",
          "midi": 45,
          "time": 47.499923999999666,
          "velocity": 0.8661417322834646,
          "duration": 0.20399272916666433
        },
        {
          "name": "G3",
          "midi": 55,
          "time": 47.499923999999666,
          "velocity": 0.8661417322834646,
          "duration": 0.20399272916666433
        },
        {
          "name": "A2",
          "midi": 45,
          "time": 47.70825699999966,
          "velocity": 0.8661417322834646,
          "duration": 0.09982622916666628
        },
        {
          "name": "A2",
          "midi": 45,
          "time": 47.81242349999966,
          "velocity": 0.8661417322834646,
          "duration": 0.09982622916666628
        },
        {
          "name": "A2",
          "midi": 45,
          "time": 47.91658999999966,
          "velocity": 0.8661417322834646,
          "duration": 0.09982622916666628
        },
        {
          "name": "A2",
          "midi": 45,
          "time": 48.020756499999656,
          "velocity": 0.8661417322834646,
          "duration": 0.09982622916666628
        },
        {
          "name": "A2",
          "midi": 45,
          "time": 48.124922999999654,
          "velocity": 0.8661417322834646,
          "duration": 0.09982622916666628
        },
        {
          "name": "A2",
          "midi": 45,
          "time": 48.22908949999965,
          "velocity": 0.8661417322834646,
          "duration": 0.09982622916666628
        },
        {
          "name": "A3",
          "midi": 57,
          "time": 48.33325599999965,
          "velocity": 0.8661417322834646,
          "duration": 0.09982622916666628
        },
        {
          "name": "G3",
          "midi": 55,
          "time": 48.43742249999965,
          "velocity": 0.8661417322834646,
          "duration": 0.09982622916666628
        },
        {
          "name": "E3",
          "midi": 52,
          "time": 48.54158899999965,
          "velocity": 0.8661417322834646,
          "duration": 0.09982622916666628
        },
        {
          "name": "G3",
          "midi": 55,
          "time": 48.645755499999645,
          "velocity": 0.8661417322834646,
          "duration": 0.20399272916666433
        },
        {
          "name": "D#3",
          "midi": 51,
          "time": 48.85408849999964,
          "velocity": 0.8661417322834646,
          "duration": 0.09982622916666628
        },
        {
          "name": "E3",
          "midi": 52,
          "time": 48.95825499999964,
          "velocity": 0.8661417322834646,
          "duration": 0.20399272916666433
        },
        {
          "name": "E2",
          "midi": 40,
          "time": 49.166587999999635,
          "velocity": 0.8661417322834646,
          "duration": 0.20399272916666433
        },
        {
          "name": "B2",
          "midi": 47,
          "time": 49.166587999999635,
          "velocity": 0.8661417322834646,
          "duration": 0.20399272916666433
        },
        {
          "name": "E3",
          "midi": 52,
          "time": 49.166587999999635,
          "velocity": 0.8661417322834646,
          "duration": 0.20399272916666433
        },
        {
          "name": "E2",
          "midi": 40,
          "time": 49.37492099999963,
          "velocity": 0.8661417322834646,
          "duration": 1.354164500000003
        },
        {
          "name": "B2",
          "midi": 47,
          "time": 49.37492099999963,
          "velocity": 0.8661417322834646,
          "duration": 1.354164500000003
        },
        {
          "name": "E3",
          "midi": 52,
          "time": 49.37492099999963,
          "velocity": 0.8661417322834646,
          "duration": 1.354164500000003
        },
        {
          "name": "G2",
          "midi": 43,
          "time": 50.83325199999963,
          "velocity": 0.8661417322834646,
          "duration": 0.2734370625000011
        },
        {
          "name": "F#2",
          "midi": 42,
          "time": 51.111029333332965,
          "velocity": 0.8661417322834646,
          "duration": 0.2734370625000011
        },
        {
          "name": "G2",
          "midi": 43,
          "time": 51.3888066666663,
          "velocity": 0.8661417322834646,
          "duration": 0.2734370625000011
        },
        {
          "name": "C3",
          "midi": 48,
          "time": 51.66658399999963,
          "velocity": 0.8661417322834646,
          "duration": 0.2734370625000011
        },
        {
          "name": "B2",
          "midi": 47,
          "time": 51.944361333332964,
          "velocity": 0.8661417322834646,
          "duration": 0.2734370625000011
        },
        {
          "name": "G2",
          "midi": 43,
          "time": 52.2221386666663,
          "velocity": 0.8661417322834646,
          "duration": 0.2734370625000011
        },
        {
          "name": "A2",
          "midi": 45,
          "time": 52.49991599999963,
          "velocity": 0.8661417322834646,
          "duration": 0.20399272916666433
        },
        {
          "name": "E3",
          "midi": 52,
          "time": 52.49991599999963,
          "velocity": 0.8661417322834646,
          "duration": 0.20399272916666433
        },
        {
          "name": "A2",
          "midi": 45,
          "time": 52.91658199999963,
          "velocity": 0.8661417322834646,
          "duration": 0.34722166666666965
        },
        {
          "name": "E3",
          "midi": 52,
          "time": 52.91658199999963,
          "velocity": 0.8661417322834646,
          "duration": 0.34722166666666965
        },
        {
          "name": "G2",
          "midi": 43,
          "time": 53.333247999999635,
          "velocity": 0.8661417322834646,
          "duration": 0.09982622916666628
        },
        {
          "name": "A2",
          "midi": 45,
          "time": 53.43741449999963,
          "velocity": 0.8661417322834646,
          "duration": 0.09982622916666628
        },
        {
          "name": "E3",
          "midi": 52,
          "time": 53.43741449999963,
          "velocity": 0.8661417322834646,
          "duration": 0.09982622916666628
        },
        {
          "name": "A2",
          "midi": 45,
          "time": 53.749913999999634,
          "velocity": 0.8661417322834646,
          "duration": 0.34722166666666965
        },
        {
          "name": "E3",
          "midi": 52,
          "time": 53.749913999999634,
          "velocity": 0.8661417322834646,
          "duration": 0.34722166666666965
        },
        {
          "name": "G2",
          "midi": 43,
          "time": 54.16657999999964,
          "velocity": 0.8661417322834646,
          "duration": 0.09982622916666628
        },
        {
          "name": "A2",
          "midi": 45,
          "time": 54.27074649999964,
          "velocity": 0.8661417322834646,
          "duration": 0.09982622916666628
        },
        {
          "name": "E3",
          "midi": 52,
          "time": 54.27074649999964,
          "velocity": 0.8661417322834646,
          "duration": 0.09982622916666628
        },
        {
          "name": "A2",
          "midi": 45,
          "time": 54.58324599999964,
          "velocity": 0.8661417322834646,
          "duration": 0.34722166666666965
        },
        {
          "name": "E3",
          "midi": 52,
          "time": 54.58324599999964,
          "velocity": 0.8661417322834646,
          "duration": 0.34722166666666965
        },
        {
          "name": "C3",
          "midi": 48,
          "time": 54.99991199999965,
          "velocity": 0.8661417322834646,
          "duration": 0.3081592291666695
        },
        {
          "name": "G3",
          "midi": 55,
          "time": 54.99991199999965,
          "velocity": 0.8661417322834646,
          "duration": 0.3081592291666695
        },
        {
          "name": "G2",
          "midi": 43,
          "time": 55.31241149999965,
          "velocity": 0.8661417322834646,
          "duration": 0.3081592291666695
        },
        {
          "name": "D3",
          "midi": 50,
          "time": 55.31241149999965,
          "velocity": 0.8661417322834646,
          "duration": 0.3081592291666695
        },
        {
          "name": "A2",
          "midi": 45,
          "time": 55.62491099999965,
          "velocity": 0.8661417322834646,
          "duration": 0.20399272916666433
        },
        {
          "name": "E3",
          "midi": 52,
          "time": 55.62491099999965,
          "velocity": 0.8661417322834646,
          "duration": 0.20399272916666433
        },
        {
          "name": "A2",
          "midi": 45,
          "time": 56.04157699999965,
          "velocity": 0.8661417322834646,
          "duration": 0.34722166666666965
        },
        {
          "name": "E3",
          "midi": 52,
          "time": 56.04157699999965,
          "velocity": 0.8661417322834646,
          "duration": 0.34722166666666965
        },
        {
          "name": "G2",
          "midi": 43,
          "time": 56.458242999999655,
          "velocity": 0.8661417322834646,
          "duration": 0.09982622916666628
        },
        {
          "name": "A2",
          "midi": 45,
          "time": 56.56240949999965,
          "velocity": 0.8661417322834646,
          "duration": 0.09982622916666628
        },
        {
          "name": "E3",
          "midi": 52,
          "time": 56.56240949999965,
          "velocity": 0.8661417322834646,
          "duration": 0.09982622916666628
        },
        {
          "name": "A2",
          "midi": 45,
          "time": 56.874908999999654,
          "velocity": 0.8661417322834646,
          "duration": 0.34722166666666965
        },
        {
          "name": "E3",
          "midi": 52,
          "time": 56.874908999999654,
          "velocity": 0.8661417322834646,
          "duration": 0.34722166666666965
        },
        {
          "name": "G2",
          "midi": 43,
          "time": 57.29157499999966,
          "velocity": 0.8661417322834646,
          "duration": 0.09982622916666628
        },
        {
          "name": "A2",
          "midi": 45,
          "time": 57.39574149999966,
          "velocity": 0.8661417322834646,
          "duration": 0.09982622916666628
        },
        {
          "name": "E3",
          "midi": 52,
          "time": 57.39574149999966,
          "velocity": 0.8661417322834646,
          "duration": 0.09982622916666628
        },
        {
          "name": "A2",
          "midi": 45,
          "time": 57.70824099999966,
          "velocity": 0.8661417322834646,
          "duration": 0.34722166666666965
        },
        {
          "name": "E3",
          "midi": 52,
          "time": 57.70824099999966,
          "velocity": 0.8661417322834646,
          "duration": 0.34722166666666965
        },
        {
          "name": "C3",
          "midi": 48,
          "time": 58.124906999999666,
          "velocity": 0.8661417322834646,
          "duration": 0.3081592291666695
        },
        {
          "name": "G3",
          "midi": 55,
          "time": 58.124906999999666,
          "velocity": 0.8661417322834646,
          "duration": 0.3081592291666695
        },
        {
          "name": "G2",
          "midi": 43,
          "time": 58.43740649999967,
          "velocity": 0.8661417322834646,
          "duration": 0.3081592291666695
        },
        {
          "name": "D3",
          "midi": 50,
          "time": 58.43740649999967,
          "velocity": 0.8661417322834646,
          "duration": 0.3081592291666695
        },
        {
          "name": "A2",
          "midi": 45,
          "time": 58.74990599999967,
          "velocity": 0.8661417322834646,
          "duration": 0.20399272916666433
        },
        {
          "name": "E3",
          "midi": 52,
          "time": 58.74990599999967,
          "velocity": 0.8661417322834646,
          "duration": 0.20399272916666433
        },
        {
          "name": "A2",
          "midi": 45,
          "time": 59.16657199999967,
          "velocity": 0.8661417322834646,
          "duration": 0.34722166666666965
        },
        {
          "name": "E3",
          "midi": 52,
          "time": 59.16657199999967,
          "velocity": 0.8661417322834646,
          "duration": 0.34722166666666965
        },
        {
          "name": "G2",
          "midi": 43,
          "time": 59.583237999999675,
          "velocity": 0.8661417322834646,
          "duration": 0.09982622916666628
        },
        {
          "name": "A2",
          "midi": 45,
          "time": 59.68740449999967,
          "velocity": 0.8661417322834646,
          "duration": 0.09982622916666628
        },
        {
          "name": "E3",
          "midi": 52,
          "time": 59.68740449999967,
          "velocity": 0.8661417322834646,
          "duration": 0.09982622916666628
        },
        {
          "name": "A2",
          "midi": 45,
          "time": 59.999903999999674,
          "velocity": 0.8661417322834646,
          "duration": 0.34722166666666965
        },
        {
          "name": "E3",
          "midi": 52,
          "time": 59.999903999999674,
          "velocity": 0.8661417322834646,
          "duration": 0.34722166666666965
        },
        {
          "name": "G2",
          "midi": 43,
          "time": 60.41656999999968,
          "velocity": 0.8661417322834646,
          "duration": 0.09982622916666628
        },
        {
          "name": "A2",
          "midi": 45,
          "time": 60.52073649999968,
          "velocity": 0.8661417322834646,
          "duration": 0.09982622916666628
        },
        {
          "name": "E3",
          "midi": 52,
          "time": 60.52073649999968,
          "velocity": 0.8661417322834646,
          "duration": 0.09982622916666628
        },
        {
          "name": "A2",
          "midi": 45,
          "time": 60.83323599999968,
          "velocity": 0.8661417322834646,
          "duration": 0.34722166666666965
        },
        {
          "name": "E3",
          "midi": 52,
          "time": 60.83323599999968,
          "velocity": 0.8661417322834646,
          "duration": 0.34722166666666965
        },
        {
          "name": "C3",
          "midi": 48,
          "time": 61.249901999999686,
          "velocity": 0.8661417322834646,
          "duration": 0.3081592291666695
        },
        {
          "name": "G3",
          "midi": 55,
          "time": 61.249901999999686,
          "velocity": 0.8661417322834646,
          "duration": 0.3081592291666695
        },
        {
          "name": "G2",
          "midi": 43,
          "time": 61.56240149999969,
          "velocity": 0.8661417322834646,
          "duration": 0.3081592291666695
        },
        {
          "name": "D3",
          "midi": 50,
          "time": 61.56240149999969,
          "velocity": 0.8661417322834646,
          "duration": 0.3081592291666695
        },
        {
          "name": "A2",
          "midi": 45,
          "time": 61.87490099999969,
          "velocity": 0.8661417322834646,
          "duration": 0.20399272916666433
        },
        {
          "name": "E3",
          "midi": 52,
          "time": 61.87490099999969,
          "velocity": 0.8661417322834646,
          "duration": 0.20399272916666433
        },
        {
          "name": "A2",
          "midi": 45,
          "time": 62.29156699999969,
          "velocity": 0.8661417322834646,
          "duration": 0.34722166666666965
        },
        {
          "name": "E3",
          "midi": 52,
          "time": 62.29156699999969,
          "velocity": 0.8661417322834646,
          "duration": 0.34722166666666965
        },
        {
          "name": "G2",
          "midi": 43,
          "time": 62.708232999999694,
          "velocity": 0.8661417322834646,
          "duration": 0.09982622916666628
        },
        {
          "name": "A2",
          "midi": 45,
          "time": 62.81239949999969,
          "velocity": 0.8661417322834646,
          "duration": 0.09982622916666628
        },
        {
          "name": "E3",
          "midi": 52,
          "time": 62.81239949999969,
          "velocity": 0.8661417322834646,
          "duration": 0.09982622916666628
        },
        {
          "name": "A2",
          "midi": 45,
          "time": 63.124898999999694,
          "velocity": 0.8661417322834646,
          "duration": 0.34722166666666965
        },
        {
          "name": "E3",
          "midi": 52,
          "time": 63.124898999999694,
          "velocity": 0.8661417322834646,
          "duration": 0.34722166666666965
        },
        {
          "name": "D6",
          "midi": 86,
          "time": 65.20822899999969,
          "velocity": 0.8661417322834646,
          "duration": 0.09982622916666628
        },
        {
          "name": "A6",
          "midi": 93,
          "time": 65.3123954999997,
          "velocity": 0.8661417322834646,
          "duration": 0.09982622916666628
        },
        {
          "name": "G6",
          "midi": 91,
          "time": 65.4165619999997,
          "velocity": 0.8661417322834646,
          "duration": 0.09982622916666628
        },
        {
          "name": "E6",
          "midi": 88,
          "time": 65.5207284999997,
          "velocity": 0.8661417322834646,
          "duration": 0.09982622916666628
        },
        {
          "name": "D6",
          "midi": 86,
          "time": 65.62489499999971,
          "velocity": 0.8661417322834646,
          "duration": 0.09982622916666628
        },
        {
          "name": "E6",
          "midi": 88,
          "time": 65.72906149999972,
          "velocity": 0.8661417322834646,
          "duration": 0.09982622916666628
        },
        {
          "name": "G6",
          "midi": 91,
          "time": 65.83322799999972,
          "velocity": 0.8661417322834646,
          "duration": 0.09982622916666628
        },
        {
          "name": "E6",
          "midi": 88,
          "time": 65.93739449999973,
          "velocity": 0.8661417322834646,
          "duration": 0.09982622916666628
        },
        {
          "name": "D6",
          "midi": 86,
          "time": 66.04156099999973,
          "velocity": 0.8661417322834646,
          "duration": 0.09982622916666628
        },
        {
          "name": "A6",
          "midi": 93,
          "time": 66.14572749999974,
          "velocity": 0.8661417322834646,
          "duration": 0.09982622916666628
        },
        {
          "name": "G6",
          "midi": 91,
          "time": 66.24989399999974,
          "velocity": 0.8661417322834646,
          "duration": 0.09982622916666628
        },
        {
          "name": "E6",
          "midi": 88,
          "time": 66.35406049999975,
          "velocity": 0.8661417322834646,
          "duration": 0.09982622916666628
        },
        {
          "name": "C7",
          "midi": 96,
          "time": 66.45822699999975,
          "velocity": 0.8661417322834646,
          "duration": 0.09982622916666628
        },
        {
          "name": "A6",
          "midi": 93,
          "time": 66.56239349999976,
          "velocity": 0.8661417322834646,
          "duration": 0.09982622916666628
        },
        {
          "name": "G6",
          "midi": 91,
          "time": 66.66655999999976,
          "velocity": 0.8661417322834646,
          "duration": 0.09982622916666628
        },
        {
          "name": "E6",
          "midi": 88,
          "time": 66.77072649999977,
          "velocity": 0.8661417322834646,
          "duration": 0.09982622916666628
        },
        {
          "name": "D6",
          "midi": 86,
          "time": 66.87489299999977,
          "velocity": 0.8661417322834646,
          "duration": 0.09982622916666628
        },
        {
          "name": "A6",
          "midi": 93,
          "time": 66.97905949999978,
          "velocity": 0.8661417322834646,
          "duration": 0.09982622916666628
        },
        {
          "name": "G6",
          "midi": 91,
          "time": 67.08322599999978,
          "velocity": 0.8661417322834646,
          "duration": 0.09982622916666628
        },
        {
          "name": "E6",
          "midi": 88,
          "time": 67.18739249999979,
          "velocity": 0.8661417322834646,
          "duration": 0.09982622916666628
        },
        {
          "name": "C7",
          "midi": 96,
          "time": 67.2915589999998,
          "velocity": 0.8661417322834646,
          "duration": 0.09982622916666628
        },
        {
          "name": "A6",
          "midi": 93,
          "time": 67.3957254999998,
          "velocity": 0.8661417322834646,
          "duration": 0.09982622916666628
        },
        {
          "name": "G6",
          "midi": 91,
          "time": 67.4998919999998,
          "velocity": 0.8661417322834646,
          "duration": 0.09982622916666628
        },
        {
          "name": "E6",
          "midi": 88,
          "time": 67.60405849999981,
          "velocity": 0.8661417322834646,
          "duration": 0.09982622916666628
        },
        {
          "name": "D#6",
          "midi": 87,
          "time": 67.70822499999981,
          "velocity": 0.8661417322834646,
          "duration": 0.09982622916666628
        },
        {
          "name": "E6",
          "midi": 88,
          "time": 67.81239149999982,
          "velocity": 0.8661417322834646,
          "duration": 0.09982622916666628
        },
        {
          "name": "G6",
          "midi": 91,
          "time": 67.91655799999982,
          "velocity": 0.8661417322834646,
          "duration": 0.09982622916666628
        },
        {
          "name": "E6",
          "midi": 88,
          "time": 68.02072449999983,
          "velocity": 0.8661417322834646,
          "duration": 0.09982622916666628
        },
        {
          "name": "D6",
          "midi": 86,
          "time": 68.12489099999983,
          "velocity": 0.8661417322834646,
          "duration": 0.09982622916666628
        },
        {
          "name": "C6",
          "midi": 84,
          "time": 68.22905749999984,
          "velocity": 0.8661417322834646,
          "duration": 0.09982622916666628
        },
        {
          "name": "A5",
          "midi": 81,
          "time": 68.33322399999984,
          "velocity": 0.8661417322834646,
          "duration": 0.09982622916666628
        },
        {
          "name": "C6",
          "midi": 84,
          "time": 68.43739049999985,
          "velocity": 0.8661417322834646,
          "duration": 0.09982622916666628
        },
        {
          "name": "D6",
          "midi": 86,
          "time": 68.54155699999986,
          "velocity": 0.8661417322834646,
          "duration": 0.09982622916666628
        },
        {
          "name": "E6",
          "midi": 88,
          "time": 68.64572349999986,
          "velocity": 0.8661417322834646,
          "duration": 0.09982622916666628
        },
        {
          "name": "G6",
          "midi": 91,
          "time": 68.74988999999987,
          "velocity": 0.8661417322834646,
          "duration": 0.09982622916666628
        },
        {
          "name": "E6",
          "midi": 88,
          "time": 68.85405649999987,
          "velocity": 0.8661417322834646,
          "duration": 0.09982622916666628
        },
        {
          "name": "D6",
          "midi": 86,
          "time": 68.95822299999988,
          "velocity": 0.8661417322834646,
          "duration": 0.09982622916666628
        },
        {
          "name": "E6",
          "midi": 88,
          "time": 69.06238949999988,
          "velocity": 0.8661417322834646,
          "duration": 0.09982622916666628
        },
        {
          "name": "G6",
          "midi": 91,
          "time": 69.16655599999989,
          "velocity": 0.8661417322834646,
          "duration": 0.09982622916666628
        },
        {
          "name": "E6",
          "midi": 88,
          "time": 69.27072249999989,
          "velocity": 0.8661417322834646,
          "duration": 0.09982622916666628
        },
        {
          "name": "D6",
          "midi": 86,
          "time": 69.3748889999999,
          "velocity": 0.8661417322834646,
          "duration": 0.09982622916666628
        },
        {
          "name": "E6",
          "midi": 88,
          "time": 69.4790554999999,
          "velocity": 0.8661417322834646,
          "duration": 0.09982622916666628
        },
        {
          "name": "G6",
          "midi": 91,
          "time": 69.5832219999999,
          "velocity": 0.8661417322834646,
          "duration": 0.09982622916666628
        },
        {
          "name": "E6",
          "midi": 88,
          "time": 69.68738849999991,
          "velocity": 0.8661417322834646,
          "duration": 0.09982622916666628
        },
        {
          "name": "C7",
          "midi": 96,
          "time": 69.79155499999992,
          "velocity": 0.8661417322834646,
          "duration": 0.34722166666625753
        },
        {
          "name": "C7",
          "midi": 96,
          "time": 70.20822099999951,
          "velocity": 0.8661417322834646,
          "duration": 0.09982622916666628
        },
        {
          "name": "A6",
          "midi": 93,
          "time": 70.31238749999952,
          "velocity": 0.8661417322834646,
          "duration": 0.09982622916666628
        },
        {
          "name": "A6",
          "midi": 93,
          "time": 70.41655399999952,
          "velocity": 0.8661417322834646,
          "duration": 0.09982622916666628
        },
        {
          "name": "A6",
          "midi": 93,
          "time": 70.52072049999953,
          "velocity": 0.8661417322834646,
          "duration": 0.09982622916666628
        },
        {
          "name": "C7",
          "midi": 96,
          "time": 70.62488699999953,
          "velocity": 0.8661417322834646,
          "duration": 0.09982622916666628
        },
        {
          "name": "A6",
          "midi": 93,
          "time": 70.72905349999954,
          "velocity": 0.8661417322834646,
          "duration": 0.09982622916666628
        },
        {
          "name": "G6",
          "midi": 91,
          "time": 70.83321999999954,
          "velocity": 0.8661417322834646,
          "duration": 0.09982622916666628
        },
        {
          "name": "E6",
          "midi": 88,
          "time": 70.93738649999955,
          "velocity": 0.8661417322834646,
          "duration": 0.09982622916666628
        },
        {
          "name": "D6",
          "midi": 86,
          "time": 71.04155299999955,
          "velocity": 0.8661417322834646,
          "duration": 0.09982622916666628
        },
        {
          "name": "E6",
          "midi": 88,
          "time": 71.14571949999956,
          "velocity": 0.8661417322834646,
          "duration": 0.09982622916666628
        },
        {
          "name": "G6",
          "midi": 91,
          "time": 71.24988599999956,
          "velocity": 0.8661417322834646,
          "duration": 0.09982622916666628
        },
        {
          "name": "E6",
          "midi": 88,
          "time": 71.35405249999957,
          "velocity": 0.8661417322834646,
          "duration": 0.09982622916666628
        },
        {
          "name": "D#6",
          "midi": 87,
          "time": 71.45821899999957,
          "velocity": 0.8661417322834646,
          "duration": 0.34722166666625753
        },
        {
          "name": "D6",
          "midi": 86,
          "time": 71.87488499999917,
          "velocity": 0.8661417322834646,
          "duration": 0.20399272916667144
        },
        {
          "name": "D3",
          "midi": 50,
          "time": 72.08321799999918,
          "velocity": 0.8661417322834646,
          "duration": 0.5555546666666658
        },
        {
          "name": "A3",
          "midi": 57,
          "time": 72.08321799999918,
          "velocity": 0.8661417322834646,
          "duration": 0.5555546666666658
        },
        {
          "name": "D4",
          "midi": 62,
          "time": 72.08321799999918,
          "velocity": 0.8661417322834646,
          "duration": 0.5555546666666658
        },
        {
          "name": "G2",
          "midi": 43,
          "time": 72.70821699999918,
          "velocity": 0.8661417322834646,
          "duration": 0.20399272916667144
        },
        {
          "name": "D3",
          "midi": 50,
          "time": 72.70821699999918,
          "velocity": 0.8661417322834646,
          "duration": 0.20399272916667144
        },
        {
          "name": "G3",
          "midi": 55,
          "time": 72.70821699999918,
          "velocity": 0.8661417322834646,
          "duration": 0.20399272916667144
        },
        {
          "name": "G2",
          "midi": 43,
          "time": 72.91654999999919,
          "velocity": 0.8661417322834646,
          "duration": 0.5555546666666658
        },
        {
          "name": "D3",
          "midi": 50,
          "time": 72.91654999999919,
          "velocity": 0.8661417322834646,
          "duration": 0.5555546666666658
        },
        {
          "name": "G3",
          "midi": 55,
          "time": 72.91654999999919,
          "velocity": 0.8661417322834646,
          "duration": 0.5555546666666658
        },
        {
          "name": "D3",
          "midi": 50,
          "time": 73.5415489999992,
          "velocity": 0.8661417322834646,
          "duration": 0.20399272916667144
        },
        {
          "name": "A3",
          "midi": 57,
          "time": 73.5415489999992,
          "velocity": 0.8661417322834646,
          "duration": 0.20399272916667144
        },
        {
          "name": "D4",
          "midi": 62,
          "time": 73.5415489999992,
          "velocity": 0.8661417322834646,
          "duration": 0.20399272916667144
        },
        {
          "name": "D3",
          "midi": 50,
          "time": 73.7498819999992,
          "velocity": 0.8661417322834646,
          "duration": 0.5555546666666658
        },
        {
          "name": "A3",
          "midi": 57,
          "time": 73.7498819999992,
          "velocity": 0.8661417322834646,
          "duration": 0.5555546666666658
        },
        {
          "name": "D4",
          "midi": 62,
          "time": 73.7498819999992,
          "velocity": 0.8661417322834646,
          "duration": 0.5555546666666658
        },
        {
          "name": "C3",
          "midi": 48,
          "time": 74.3748809999992,
          "velocity": 0.8661417322834646,
          "duration": 0.3081592291666624
        },
        {
          "name": "B2",
          "midi": 47,
          "time": 74.68738049999921,
          "velocity": 0.8661417322834646,
          "duration": 0.3081592291666624
        },
        {
          "name": "G2",
          "midi": 43,
          "time": 74.99987999999921,
          "velocity": 0.8661417322834646,
          "duration": 0.20399272916667144
        },
        {
          "name": "A2",
          "midi": 45,
          "time": 75.20821299999922,
          "velocity": 0.8661417322834646,
          "duration": 0.20399272916667144
        },
        {
          "name": "G3",
          "midi": 55,
          "time": 75.20821299999922,
          "velocity": 0.8661417322834646,
          "duration": 0.20399272916667144
        },
        {
          "name": "A2",
          "midi": 45,
          "time": 75.41654599999923,
          "velocity": 0.8661417322834646,
          "duration": 0.09982622916666628
        },
        {
          "name": "A2",
          "midi": 45,
          "time": 75.52071249999923,
          "velocity": 0.8661417322834646,
          "duration": 0.09982622916666628
        },
        {
          "name": "A2",
          "midi": 45,
          "time": 75.62487899999924,
          "velocity": 0.8661417322834646,
          "duration": 0.09982622916666628
        },
        {
          "name": "A2",
          "midi": 45,
          "time": 75.72904549999924,
          "velocity": 0.8661417322834646,
          "duration": 0.09982622916666628
        },
        {
          "name": "A2",
          "midi": 45,
          "time": 75.83321199999925,
          "velocity": 0.8661417322834646,
          "duration": 0.09982622916666628
        },
        {
          "name": "A2",
          "midi": 45,
          "time": 75.93737849999926,
          "velocity": 0.8661417322834646,
          "duration": 0.09982622916666628
        },
        {
          "name": "G3",
          "midi": 55,
          "time": 76.04154499999926,
          "velocity": 0.8661417322834646,
          "duration": 0.20399272916667144
        },
        {
          "name": "C4",
          "midi": 60,
          "time": 76.04154499999926,
          "velocity": 0.8661417322834646,
          "duration": 0.20399272916667144
        },
        {
          "name": "A3",
          "midi": 57,
          "time": 76.24987799999927,
          "velocity": 0.8661417322834646,
          "duration": 0.09982622916666628
        },
        {
          "name": "D4",
          "midi": 62,
          "time": 76.24987799999927,
          "velocity": 0.8661417322834646,
          "duration": 0.09982622916666628
        },
        {
          "name": "A3",
          "midi": 57,
          "time": 76.35404449999928,
          "velocity": 0.8661417322834646,
          "duration": 0.3081592291666624
        },
        {
          "name": "D4",
          "midi": 62,
          "time": 76.35404449999928,
          "velocity": 0.8661417322834646,
          "duration": 0.3081592291666624
        },
        {
          "name": "D3",
          "midi": 50,
          "time": 76.66654399999928,
          "velocity": 0.8661417322834646,
          "duration": 0.20399272916667144
        },
        {
          "name": "G3",
          "midi": 55,
          "time": 76.66654399999928,
          "velocity": 0.8661417322834646,
          "duration": 0.20399272916667144
        },
        {
          "name": "A2",
          "midi": 45,
          "time": 76.87487699999929,
          "velocity": 0.8661417322834646,
          "duration": 0.20399272916667144
        },
        {
          "name": "G3",
          "midi": 55,
          "time": 76.87487699999929,
          "velocity": 0.8661417322834646,
          "duration": 0.20399272916667144
        },
        {
          "name": "A2",
          "midi": 45,
          "time": 77.0832099999993,
          "velocity": 0.8661417322834646,
          "duration": 0.09982622916666628
        },
        {
          "name": "A2",
          "midi": 45,
          "time": 77.1873764999993,
          "velocity": 0.8661417322834646,
          "duration": 0.09982622916666628
        },
        {
          "name": "A2",
          "midi": 45,
          "time": 77.29154299999931,
          "velocity": 0.8661417322834646,
          "duration": 0.09982622916666628
        },
        {
          "name": "A2",
          "midi": 45,
          "time": 77.39570949999931,
          "velocity": 0.8661417322834646,
          "duration": 0.09982622916666628
        },
        {
          "name": "A2",
          "midi": 45,
          "time": 77.49987599999932,
          "velocity": 0.8661417322834646,
          "duration": 0.09982622916666628
        },
        {
          "name": "A2",
          "midi": 45,
          "time": 77.60404249999932,
          "velocity": 0.8661417322834646,
          "duration": 0.09982622916666628
        },
        {
          "name": "A3",
          "midi": 57,
          "time": 77.70820899999933,
          "velocity": 0.8661417322834646,
          "duration": 0.09982622916666628
        },
        {
          "name": "G3",
          "midi": 55,
          "time": 77.81237549999933,
          "velocity": 0.8661417322834646,
          "duration": 0.09982622916666628
        },
        {
          "name": "E3",
          "midi": 52,
          "time": 77.91654199999934,
          "velocity": 0.8661417322834646,
          "duration": 0.09982622916666628
        },
        {
          "name": "G3",
          "midi": 55,
          "time": 78.02070849999934,
          "velocity": 0.8661417322834646,
          "duration": 0.20399272916667144
        },
        {
          "name": "D#3",
          "midi": 51,
          "time": 78.22904149999935,
          "velocity": 0.8661417322834646,
          "duration": 0.09982622916666628
        },
        {
          "name": "E3",
          "midi": 52,
          "time": 78.33320799999936,
          "velocity": 0.8661417322834646,
          "duration": 0.20399272916667144
        },
        {
          "name": "E2",
          "midi": 40,
          "time": 78.54154099999937,
          "velocity": 0.8661417322834646,
          "duration": 0.20399272916667144
        },
        {
          "name": "B2",
          "midi": 47,
          "time": 78.54154099999937,
          "velocity": 0.8661417322834646,
          "duration": 0.20399272916667144
        },
        {
          "name": "E3",
          "midi": 52,
          "time": 78.54154099999937,
          "velocity": 0.8661417322834646,
          "duration": 0.20399272916667144
        },
        {
          "name": "E2",
          "midi": 40,
          "time": 78.74987399999938,
          "velocity": 0.8661417322834646,
          "duration": 1.354164499999996
        },
        {
          "name": "B2",
          "midi": 47,
          "time": 78.74987399999938,
          "velocity": 0.8661417322834646,
          "duration": 1.354164499999996
        },
        {
          "name": "E3",
          "midi": 52,
          "time": 78.74987399999938,
          "velocity": 0.8661417322834646,
          "duration": 1.354164499999996
        },
        {
          "name": "G2",
          "midi": 43,
          "time": 80.20820499999938,
          "velocity": 0.8661417322834646,
          "duration": 0.273437062499994
        },
        {
          "name": "F#2",
          "midi": 42,
          "time": 80.48598233333271,
          "velocity": 0.8661417322834646,
          "duration": 0.273437062499994
        },
        {
          "name": "G2",
          "midi": 43,
          "time": 80.76375966666605,
          "velocity": 0.8661417322834646,
          "duration": 0.273437062499994
        },
        {
          "name": "C3",
          "midi": 48,
          "time": 81.04153699999938,
          "velocity": 0.8661417322834646,
          "duration": 0.273437062499994
        },
        {
          "name": "B2",
          "midi": 47,
          "time": 81.31931433333271,
          "velocity": 0.8661417322834646,
          "duration": 0.273437062499994
        },
        {
          "name": "G2",
          "midi": 43,
          "time": 81.59709166666605,
          "velocity": 0.8661417322834646,
          "duration": 0.273437062499994
        },
        {
          "name": "A2",
          "midi": 45,
          "time": 81.87486899999938,
          "velocity": 0.8661417322834646,
          "duration": 0.20399272916667144
        },
        {
          "name": "E3",
          "midi": 52,
          "time": 81.87486899999938,
          "velocity": 0.8661417322834646,
          "duration": 0.20399272916667144
        },
        {
          "name": "A2",
          "midi": 45,
          "time": 82.29153499999939,
          "velocity": 0.8661417322834646,
          "duration": 0.34722166666666965
        },
        {
          "name": "E3",
          "midi": 52,
          "time": 82.29153499999939,
          "velocity": 0.8661417322834646,
          "duration": 0.34722166666666965
        },
        {
          "name": "G2",
          "midi": 43,
          "time": 82.70820099999939,
          "velocity": 0.8661417322834646,
          "duration": 0.09982622916666628
        },
        {
          "name": "A2",
          "midi": 45,
          "time": 82.8123674999994,
          "velocity": 0.8661417322834646,
          "duration": 0.09982622916666628
        },
        {
          "name": "E3",
          "midi": 52,
          "time": 82.8123674999994,
          "velocity": 0.8661417322834646,
          "duration": 0.09982622916666628
        },
        {
          "name": "A2",
          "midi": 45,
          "time": 83.1248669999994,
          "velocity": 0.8661417322834646,
          "duration": 0.34722166666666965
        },
        {
          "name": "E3",
          "midi": 52,
          "time": 83.1248669999994,
          "velocity": 0.8661417322834646,
          "duration": 0.34722166666666965
        },
        {
          "name": "G2",
          "midi": 43,
          "time": 83.5415329999994,
          "velocity": 0.8661417322834646,
          "duration": 0.09982622916666628
        },
        {
          "name": "A2",
          "midi": 45,
          "time": 83.64569949999941,
          "velocity": 0.8661417322834646,
          "duration": 0.09982622916666628
        },
        {
          "name": "E3",
          "midi": 52,
          "time": 83.64569949999941,
          "velocity": 0.8661417322834646,
          "duration": 0.09982622916666628
        },
        {
          "name": "A2",
          "midi": 45,
          "time": 83.95819899999941,
          "velocity": 0.8661417322834646,
          "duration": 0.34722166666666965
        },
        {
          "name": "E3",
          "midi": 52,
          "time": 83.95819899999941,
          "velocity": 0.8661417322834646,
          "duration": 0.34722166666666965
        },
        {
          "name": "C3",
          "midi": 48,
          "time": 84.37486499999942,
          "velocity": 0.8661417322834646,
          "duration": 0.3081592291666624
        },
        {
          "name": "G3",
          "midi": 55,
          "time": 84.37486499999942,
          "velocity": 0.8661417322834646,
          "duration": 0.3081592291666624
        },
        {
          "name": "G2",
          "midi": 43,
          "time": 84.68736449999942,
          "velocity": 0.8661417322834646,
          "duration": 0.3081592291666624
        },
        {
          "name": "D3",
          "midi": 50,
          "time": 84.68736449999942,
          "velocity": 0.8661417322834646,
          "duration": 0.3081592291666624
        },
        {
          "name": "A2",
          "midi": 45,
          "time": 84.99986399999942,
          "velocity": 0.8661417322834646,
          "duration": 0.20399272916667144
        },
        {
          "name": "E3",
          "midi": 52,
          "time": 84.99986399999942,
          "velocity": 0.8661417322834646,
          "duration": 0.20399272916667144
        },
        {
          "name": "A2",
          "midi": 45,
          "time": 85.41652999999943,
          "velocity": 0.8661417322834646,
          "duration": 0.34722166666666965
        },
        {
          "name": "E3",
          "midi": 52,
          "time": 85.41652999999943,
          "velocity": 0.8661417322834646,
          "duration": 0.34722166666666965
        },
        {
          "name": "G2",
          "midi": 43,
          "time": 85.83319599999943,
          "velocity": 0.8661417322834646,
          "duration": 0.09982622916666628
        },
        {
          "name": "A2",
          "midi": 45,
          "time": 85.93736249999944,
          "velocity": 0.8661417322834646,
          "duration": 0.09982622916666628
        },
        {
          "name": "E3",
          "midi": 52,
          "time": 85.93736249999944,
          "velocity": 0.8661417322834646,
          "duration": 0.09982622916666628
        },
        {
          "name": "A2",
          "midi": 45,
          "time": 86.24986199999944,
          "velocity": 0.8661417322834646,
          "duration": 0.34722166666666965
        },
        {
          "name": "E3",
          "midi": 52,
          "time": 86.24986199999944,
          "velocity": 0.8661417322834646,
          "duration": 0.34722166666666965
        },
        {
          "name": "G2",
          "midi": 43,
          "time": 86.66652799999945,
          "velocity": 0.8661417322834646,
          "duration": 0.09982622916666628
        },
        {
          "name": "A2",
          "midi": 45,
          "time": 86.77069449999945,
          "velocity": 0.8661417322834646,
          "duration": 0.09982622916666628
        },
        {
          "name": "E3",
          "midi": 52,
          "time": 86.77069449999945,
          "velocity": 0.8661417322834646,
          "duration": 0.09982622916666628
        },
        {
          "name": "A2",
          "midi": 45,
          "time": 87.08319399999945,
          "velocity": 0.8661417322834646,
          "duration": 0.34722166666666965
        },
        {
          "name": "E3",
          "midi": 52,
          "time": 87.08319399999945,
          "velocity": 0.8661417322834646,
          "duration": 0.34722166666666965
        },
        {
          "name": "C3",
          "midi": 48,
          "time": 87.49985999999946,
          "velocity": 0.8661417322834646,
          "duration": 0.3081592291666624
        },
        {
          "name": "G3",
          "midi": 55,
          "time": 87.49985999999946,
          "velocity": 0.8661417322834646,
          "duration": 0.3081592291666624
        },
        {
          "name": "G2",
          "midi": 43,
          "time": 87.81235949999946,
          "velocity": 0.8661417322834646,
          "duration": 0.3081592291666624
        },
        {
          "name": "D3",
          "midi": 50,
          "time": 87.81235949999946,
          "velocity": 0.8661417322834646,
          "duration": 0.3081592291666624
        },
        {
          "name": "A2",
          "midi": 45,
          "time": 88.12485899999946,
          "velocity": 0.8661417322834646,
          "duration": 0.20399272916667144
        },
        {
          "name": "E3",
          "midi": 52,
          "time": 88.12485899999946,
          "velocity": 0.8661417322834646,
          "duration": 0.20399272916667144
        },
        {
          "name": "A2",
          "midi": 45,
          "time": 88.54152499999947,
          "velocity": 0.8661417322834646,
          "duration": 0.34722166666666965
        },
        {
          "name": "E3",
          "midi": 52,
          "time": 88.54152499999947,
          "velocity": 0.8661417322834646,
          "duration": 0.34722166666666965
        },
        {
          "name": "G2",
          "midi": 43,
          "time": 88.95819099999947,
          "velocity": 0.8661417322834646,
          "duration": 0.09982622916666628
        },
        {
          "name": "A2",
          "midi": 45,
          "time": 89.06235749999948,
          "velocity": 0.8661417322834646,
          "duration": 0.09982622916666628
        },
        {
          "name": "E3",
          "midi": 52,
          "time": 89.06235749999948,
          "velocity": 0.8661417322834646,
          "duration": 0.09982622916666628
        },
        {
          "name": "A2",
          "midi": 45,
          "time": 89.37485699999948,
          "velocity": 0.8661417322834646,
          "duration": 0.34722166666666965
        },
        {
          "name": "E3",
          "midi": 52,
          "time": 89.37485699999948,
          "velocity": 0.8661417322834646,
          "duration": 0.34722166666666965
        },
        {
          "name": "G2",
          "midi": 43,
          "time": 89.79152299999949,
          "velocity": 0.8661417322834646,
          "duration": 0.09982622916666628
        },
        {
          "name": "A2",
          "midi": 45,
          "time": 89.89568949999949,
          "velocity": 0.8661417322834646,
          "duration": 0.09982622916666628
        },
        {
          "name": "E3",
          "midi": 52,
          "time": 89.89568949999949,
          "velocity": 0.8661417322834646,
          "duration": 0.09982622916666628
        },
        {
          "name": "A2",
          "midi": 45,
          "time": 90.20818899999949,
          "velocity": 0.8661417322834646,
          "duration": 0.34722166666666965
        },
        {
          "name": "E3",
          "midi": 52,
          "time": 90.20818899999949,
          "velocity": 0.8661417322834646,
          "duration": 0.34722166666666965
        },
        {
          "name": "C3",
          "midi": 48,
          "time": 90.6248549999995,
          "velocity": 0.8661417322834646,
          "duration": 0.3081592291666624
        },
        {
          "name": "G3",
          "midi": 55,
          "time": 90.6248549999995,
          "velocity": 0.8661417322834646,
          "duration": 0.3081592291666624
        },
        {
          "name": "G2",
          "midi": 43,
          "time": 90.9373544999995,
          "velocity": 0.8661417322834646,
          "duration": 0.3081592291666624
        },
        {
          "name": "D3",
          "midi": 50,
          "time": 90.9373544999995,
          "velocity": 0.8661417322834646,
          "duration": 0.3081592291666624
        },
        {
          "name": "A2",
          "midi": 45,
          "time": 91.2498539999995,
          "velocity": 0.8661417322834646,
          "duration": 0.20399272916667144
        },
        {
          "name": "E3",
          "midi": 52,
          "time": 91.2498539999995,
          "velocity": 0.8661417322834646,
          "duration": 0.20399272916667144
        },
        {
          "name": "A2",
          "midi": 45,
          "time": 91.66651999999951,
          "velocity": 0.8661417322834646,
          "duration": 0.34722166666666965
        },
        {
          "name": "E3",
          "midi": 52,
          "time": 91.66651999999951,
          "velocity": 0.8661417322834646,
          "duration": 0.34722166666666965
        },
        {
          "name": "G2",
          "midi": 43,
          "time": 92.08318599999951,
          "velocity": 0.8661417322834646,
          "duration": 0.09982622916666628
        },
        {
          "name": "A2",
          "midi": 45,
          "time": 92.18735249999952,
          "velocity": 0.8661417322834646,
          "duration": 0.09982622916666628
        },
        {
          "name": "E3",
          "midi": 52,
          "time": 92.18735249999952,
          "velocity": 0.8661417322834646,
          "duration": 0.09982622916666628
        },
        {
          "name": "A2",
          "midi": 45,
          "time": 92.49985199999952,
          "velocity": 0.8661417322834646,
          "duration": 0.34722166666666965
        },
        {
          "name": "E3",
          "midi": 52,
          "time": 92.49985199999952,
          "velocity": 0.8661417322834646,
          "duration": 0.34722166666666965
        },
        {
          "name": "G6",
          "midi": 91,
          "time": 94.58318199999952,
          "velocity": 0.8661417322834646,
          "duration": 0.20399272916645828
        },
        {
          "name": "A6",
          "midi": 93,
          "time": 94.79151499999932,
          "velocity": 0.8661417322834646,
          "duration": 0.09982622916666628
        },
        {
          "name": "G6",
          "midi": 91,
          "time": 94.89568149999933,
          "velocity": 0.8661417322834646,
          "duration": 0.20399272916645828
        },
        {
          "name": "A6",
          "midi": 93,
          "time": 95.10401449999912,
          "velocity": 0.8661417322834646,
          "duration": 0.09982622916666628
        },
        {
          "name": "G6",
          "midi": 91,
          "time": 95.20818099999913,
          "velocity": 0.8661417322834646,
          "duration": 0.20399272916645828
        },
        {
          "name": "A6",
          "midi": 93,
          "time": 95.41651399999893,
          "velocity": 0.8661417322834646,
          "duration": 0.20399272916667144
        },
        {
          "name": "G6",
          "midi": 91,
          "time": 95.62484699999894,
          "velocity": 0.8661417322834646,
          "duration": 0.09982622916646733
        },
        {
          "name": "A6",
          "midi": 93,
          "time": 95.72901349999873,
          "velocity": 0.8661417322834646,
          "duration": 0.09982622916666628
        },
        {
          "name": "G6",
          "midi": 91,
          "time": 95.83317999999873,
          "velocity": 0.8661417322834646,
          "duration": 0.20399272916645828
        },
        {
          "name": "A6",
          "midi": 93,
          "time": 96.04151299999853,
          "velocity": 0.8661417322834646,
          "duration": 0.20399272916667144
        },
        {
          "name": "D6",
          "midi": 86,
          "time": 96.24984599999854,
          "velocity": 0.8661417322834646,
          "duration": 0.09982622916646733
        },
        {
          "name": "A6",
          "midi": 93,
          "time": 96.35401249999833,
          "velocity": 0.8661417322834646,
          "duration": 0.09982622916666628
        },
        {
          "name": "G6",
          "midi": 91,
          "time": 96.45817899999834,
          "velocity": 0.8661417322834646,
          "duration": 0.20399272916645828
        },
        {
          "name": "A6",
          "midi": 93,
          "time": 96.66651199999814,
          "velocity": 0.8661417322834646,
          "duration": 0.20399272916667144
        },
        {
          "name": "G6",
          "midi": 91,
          "time": 96.87484499999815,
          "velocity": 0.8661417322834646,
          "duration": 0.09982622916646733
        },
        {
          "name": "A6",
          "midi": 93,
          "time": 96.97901149999794,
          "velocity": 0.8661417322834646,
          "duration": 0.09982622916666628
        },
        {
          "name": "G6",
          "midi": 91,
          "time": 97.08317799999794,
          "velocity": 0.8661417322834646,
          "duration": 0.20399272916645828
        },
        {
          "name": "A6",
          "midi": 93,
          "time": 97.29151099999774,
          "velocity": 0.8661417322834646,
          "duration": 0.09982622916666628
        },
        {
          "name": "D6",
          "midi": 86,
          "time": 97.39567749999775,
          "velocity": 0.8661417322834646,
          "duration": 0.20399272916645828
        },
        {
          "name": "A6",
          "midi": 93,
          "time": 97.60401049999754,
          "velocity": 0.8661417322834646,
          "duration": 0.09982622916666628
        },
        {
          "name": "G6",
          "midi": 91,
          "time": 97.70817699999755,
          "velocity": 0.8661417322834646,
          "duration": 0.09982622916646733
        },
        {
          "name": "A6",
          "midi": 93,
          "time": 97.81234349999734,
          "velocity": 0.8661417322834646,
          "duration": 0.09982622916666628
        },
        {
          "name": "C7",
          "midi": 96,
          "time": 97.91650999999734,
          "velocity": 0.8661417322834646,
          "duration": 0.09982622916666628
        },
        {
          "name": "A6",
          "midi": 93,
          "time": 98.02067649999735,
          "velocity": 0.8661417322834646,
          "duration": 0.09982622916666628
        },
        {
          "name": "G6",
          "midi": 91,
          "time": 98.12484299999736,
          "velocity": 0.8661417322834646,
          "duration": 0.09982622916666628
        },
        {
          "name": "A6",
          "midi": 93,
          "time": 98.22900949999736,
          "velocity": 0.8661417322834646,
          "duration": 0.09982622916666628
        },
        {
          "name": "C7",
          "midi": 96,
          "time": 98.33317599999737,
          "velocity": 0.8661417322834646,
          "duration": 0.09982622916666628
        },
        {
          "name": "A6",
          "midi": 93,
          "time": 98.43734249999737,
          "velocity": 0.8661417322834646,
          "duration": 0.09982622916666628
        },
        {
          "name": "G6",
          "midi": 91,
          "time": 98.54150899999738,
          "velocity": 0.8661417322834646,
          "duration": 0.09982622916666628
        },
        {
          "name": "E6",
          "midi": 88,
          "time": 98.64567549999738,
          "velocity": 0.8661417322834646,
          "duration": 0.09982622916666628
        },
        {
          "name": "E6",
          "midi": 88,
          "time": 98.74984199999739,
          "velocity": 0.8661417322834646,
          "duration": 0.09982622916666628
        },
        {
          "name": "E6",
          "midi": 88,
          "time": 98.85400849999739,
          "velocity": 0.8661417322834646,
          "duration": 0.09982622916666628
        },
        {
          "name": "G6",
          "midi": 91,
          "time": 98.9581749999974,
          "velocity": 0.8661417322834646,
          "duration": 0.09982622916666628
        },
        {
          "name": "E6",
          "midi": 88,
          "time": 99.0623414999974,
          "velocity": 0.8661417322834646,
          "duration": 0.09982622916666628
        },
        {
          "name": "D6",
          "midi": 86,
          "time": 99.1665079999974,
          "velocity": 0.8661417322834646,
          "duration": 0.09982622916666628
        },
        {
          "name": "F#6",
          "midi": 90,
          "time": 99.1665079999974,
          "velocity": 0.8661417322834646,
          "duration": 0.09982622916666628
        },
        {
          "name": "C6",
          "midi": 84,
          "time": 99.27067449999741,
          "velocity": 0.8661417322834646,
          "duration": 0.09982622916666628
        },
        {
          "name": "A5",
          "midi": 81,
          "time": 99.37484099999742,
          "velocity": 0.8661417322834646,
          "duration": 0.09982622916666628
        },
        {
          "name": "C6",
          "midi": 84,
          "time": 99.47900749999742,
          "velocity": 0.8661417322834646,
          "duration": 0.09982622916666628
        },
        {
          "name": "D6",
          "midi": 86,
          "time": 99.58317399999743,
          "velocity": 0.8661417322834646,
          "duration": 0.09982622916666628
        },
        {
          "name": "C6",
          "midi": 84,
          "time": 99.68734049999743,
          "velocity": 0.8661417322834646,
          "duration": 0.09982622916666628
        },
        {
          "name": "A5",
          "midi": 81,
          "time": 99.79150699999744,
          "velocity": 0.8661417322834646,
          "duration": 0.09982622916666628
        },
        {
          "name": "G5",
          "midi": 79,
          "time": 99.89567349999744,
          "velocity": 0.8661417322834646,
          "duration": 0.09982622916666628
        },
        {
          "name": "E5",
          "midi": 76,
          "time": 99.99983999999745,
          "velocity": 0.8661417322834646,
          "duration": 0.09982622916666628
        },
        {
          "name": "G5",
          "midi": 79,
          "time": 100.10400649999745,
          "velocity": 0.8661417322834646,
          "duration": 0.09982622916666628
        },
        {
          "name": "A5",
          "midi": 81,
          "time": 100.20817299999746,
          "velocity": 0.8661417322834646,
          "duration": 0.09982622916666628
        },
        {
          "name": "G5",
          "midi": 79,
          "time": 100.31233949999746,
          "velocity": 0.8661417322834646,
          "duration": 0.09982622916666628
        },
        {
          "name": "E5",
          "midi": 76,
          "time": 100.41650599999747,
          "velocity": 0.8661417322834646,
          "duration": 0.20399272916667144
        },
        {
          "name": "D5",
          "midi": 74,
          "time": 100.62483899999748,
          "velocity": 0.8661417322834646,
          "duration": 0.20399272916667144
        },
        {
          "name": "C5",
          "midi": 72,
          "time": 100.83317199999749,
          "velocity": 0.8661417322834646,
          "duration": 0.34722166666666965
        },
        {
          "name": "C5",
          "midi": 72,
          "time": 101.2498379999975,
          "velocity": 0.8661417322834646,
          "duration": 0.09982622916666628
        },
        {
          "name": "D5",
          "midi": 74,
          "time": 101.3540044999975,
          "velocity": 0.8661417322834646,
          "duration": 0.6597211666666709
        },
        {
          "name": "G2",
          "midi": 43,
          "time": 102.08316999999751,
          "velocity": 0.8661417322834646,
          "duration": 0.20399272916667144
        },
        {
          "name": "D3",
          "midi": 50,
          "time": 102.08316999999751,
          "velocity": 0.8661417322834646,
          "duration": 0.20399272916667144
        },
        {
          "name": "G3",
          "midi": 55,
          "time": 102.08316999999751,
          "velocity": 0.8661417322834646,
          "duration": 0.20399272916667144
        },
        {
          "name": "G2",
          "midi": 43,
          "time": 102.29150299999752,
          "velocity": 0.8661417322834646,
          "duration": 0.5555546666666658
        },
        {
          "name": "D3",
          "midi": 50,
          "time": 102.29150299999752,
          "velocity": 0.8661417322834646,
          "duration": 0.5555546666666658
        },
        {
          "name": "G3",
          "midi": 55,
          "time": 102.29150299999752,
          "velocity": 0.8661417322834646,
          "duration": 0.5555546666666658
        },
        {
          "name": "D3",
          "midi": 50,
          "time": 102.91650199999752,
          "velocity": 0.8661417322834646,
          "duration": 0.20399272916667144
        },
        {
          "name": "A3",
          "midi": 57,
          "time": 102.91650199999752,
          "velocity": 0.8661417322834646,
          "duration": 0.20399272916667144
        },
        {
          "name": "D4",
          "midi": 62,
          "time": 102.91650199999752,
          "velocity": 0.8661417322834646,
          "duration": 0.20399272916667144
        },
        {
          "name": "D3",
          "midi": 50,
          "time": 103.12483499999753,
          "velocity": 0.8661417322834646,
          "duration": 0.5555546666666658
        },
        {
          "name": "A3",
          "midi": 57,
          "time": 103.12483499999753,
          "velocity": 0.8661417322834646,
          "duration": 0.5555546666666658
        },
        {
          "name": "D4",
          "midi": 62,
          "time": 103.12483499999753,
          "velocity": 0.8661417322834646,
          "duration": 0.5555546666666658
        },
        {
          "name": "C3",
          "midi": 48,
          "time": 103.74983399999753,
          "velocity": 0.8661417322834646,
          "duration": 0.3081592291666624
        },
        {
          "name": "B2",
          "midi": 47,
          "time": 104.06233349999754,
          "velocity": 0.8661417322834646,
          "duration": 0.3081592291666624
        },
        {
          "name": "G2",
          "midi": 43,
          "time": 104.37483299999754,
          "velocity": 0.8661417322834646,
          "duration": 0.20399272916667144
        },
        {
          "name": "A2",
          "midi": 45,
          "time": 104.58316599999755,
          "velocity": 0.8661417322834646,
          "duration": 0.20399272916667144
        },
        {
          "name": "G3",
          "midi": 55,
          "time": 104.58316599999755,
          "velocity": 0.8661417322834646,
          "duration": 0.20399272916667144
        },
        {
          "name": "A2",
          "midi": 45,
          "time": 104.79149899999756,
          "velocity": 0.8661417322834646,
          "duration": 0.09982622916666628
        },
        {
          "name": "A2",
          "midi": 45,
          "time": 104.89566549999756,
          "velocity": 0.8661417322834646,
          "duration": 0.09982622916666628
        },
        {
          "name": "A2",
          "midi": 45,
          "time": 104.99983199999757,
          "velocity": 0.8661417322834646,
          "duration": 0.09982622916666628
        },
        {
          "name": "A2",
          "midi": 45,
          "time": 105.10399849999757,
          "velocity": 0.8661417322834646,
          "duration": 0.09982622916666628
        },
        {
          "name": "A2",
          "midi": 45,
          "time": 105.20816499999758,
          "velocity": 0.8661417322834646,
          "duration": 0.09982622916666628
        },
        {
          "name": "A2",
          "midi": 45,
          "time": 105.31233149999758,
          "velocity": 0.8661417322834646,
          "duration": 0.09982622916666628
        },
        {
          "name": "G3",
          "midi": 55,
          "time": 105.41649799999759,
          "velocity": 0.8661417322834646,
          "duration": 0.20399272916667144
        },
        {
          "name": "C4",
          "midi": 60,
          "time": 105.41649799999759,
          "velocity": 0.8661417322834646,
          "duration": 0.20399272916667144
        },
        {
          "name": "A3",
          "midi": 57,
          "time": 105.6248309999976,
          "velocity": 0.8661417322834646,
          "duration": 0.09982622916666628
        },
        {
          "name": "D4",
          "midi": 62,
          "time": 105.6248309999976,
          "velocity": 0.8661417322834646,
          "duration": 0.09982622916666628
        },
        {
          "name": "A3",
          "midi": 57,
          "time": 105.7289974999976,
          "velocity": 0.8661417322834646,
          "duration": 0.3081592291666624
        },
        {
          "name": "D4",
          "midi": 62,
          "time": 105.7289974999976,
          "velocity": 0.8661417322834646,
          "duration": 0.3081592291666624
        },
        {
          "name": "D3",
          "midi": 50,
          "time": 106.0414969999976,
          "velocity": 0.8661417322834646,
          "duration": 0.20399272916667144
        },
        {
          "name": "G3",
          "midi": 55,
          "time": 106.0414969999976,
          "velocity": 0.8661417322834646,
          "duration": 0.20399272916667144
        },
        {
          "name": "A2",
          "midi": 45,
          "time": 106.24982999999762,
          "velocity": 0.8661417322834646,
          "duration": 0.20399272916667144
        },
        {
          "name": "G3",
          "midi": 55,
          "time": 106.24982999999762,
          "velocity": 0.8661417322834646,
          "duration": 0.20399272916667144
        },
        {
          "name": "A2",
          "midi": 45,
          "time": 106.45816299999763,
          "velocity": 0.8661417322834646,
          "duration": 0.09982622916666628
        },
        {
          "name": "A2",
          "midi": 45,
          "time": 106.56232949999763,
          "velocity": 0.8661417322834646,
          "duration": 0.09982622916666628
        },
        {
          "name": "A2",
          "midi": 45,
          "time": 106.66649599999764,
          "velocity": 0.8661417322834646,
          "duration": 0.09982622916666628
        },
        {
          "name": "A2",
          "midi": 45,
          "time": 106.77066249999764,
          "velocity": 0.8661417322834646,
          "duration": 0.09982622916666628
        },
        {
          "name": "A2",
          "midi": 45,
          "time": 106.87482899999765,
          "velocity": 0.8661417322834646,
          "duration": 0.09982622916666628
        },
        {
          "name": "A2",
          "midi": 45,
          "time": 106.97899549999765,
          "velocity": 0.8661417322834646,
          "duration": 0.09982622916666628
        },
        {
          "name": "A3",
          "midi": 57,
          "time": 107.08316199999766,
          "velocity": 0.8661417322834646,
          "duration": 0.09982622916666628
        },
        {
          "name": "G3",
          "midi": 55,
          "time": 107.18732849999766,
          "velocity": 0.8661417322834646,
          "duration": 0.09982622916666628
        },
        {
          "name": "E3",
          "midi": 52,
          "time": 107.29149499999767,
          "velocity": 0.8661417322834646,
          "duration": 0.09982622916666628
        },
        {
          "name": "G3",
          "midi": 55,
          "time": 107.39566149999767,
          "velocity": 0.8661417322834646,
          "duration": 0.20399272916667144
        },
        {
          "name": "D#3",
          "midi": 51,
          "time": 107.60399449999768,
          "velocity": 0.8661417322834646,
          "duration": 0.09982622916666628
        },
        {
          "name": "E3",
          "midi": 52,
          "time": 107.70816099999769,
          "velocity": 0.8661417322834646,
          "duration": 0.20399272916667144
        },
        {
          "name": "E2",
          "midi": 40,
          "time": 107.9164939999977,
          "velocity": 0.8661417322834646,
          "duration": 0.20399272916667144
        },
        {
          "name": "B2",
          "midi": 47,
          "time": 107.9164939999977,
          "velocity": 0.8661417322834646,
          "duration": 0.20399272916667144
        },
        {
          "name": "E3",
          "midi": 52,
          "time": 107.9164939999977,
          "velocity": 0.8661417322834646,
          "duration": 0.20399272916667144
        },
        {
          "name": "E2",
          "midi": 40,
          "time": 108.12482699999771,
          "velocity": 0.8661417322834646,
          "duration": 1.354164499999996
        },
        {
          "name": "B2",
          "midi": 47,
          "time": 108.12482699999771,
          "velocity": 0.8661417322834646,
          "duration": 1.354164499999996
        },
        {
          "name": "E3",
          "midi": 52,
          "time": 108.12482699999771,
          "velocity": 0.8661417322834646,
          "duration": 1.354164499999996
        },
        {
          "name": "G2",
          "midi": 43,
          "time": 109.58315799999771,
          "velocity": 0.8661417322834646,
          "duration": 0.273437062499994
        },
        {
          "name": "F#2",
          "midi": 42,
          "time": 109.86093533333104,
          "velocity": 0.8661417322834646,
          "duration": 0.273437062499994
        },
        {
          "name": "G2",
          "midi": 43,
          "time": 110.13871266666438,
          "velocity": 0.8661417322834646,
          "duration": 0.273437062499994
        },
        {
          "name": "C3",
          "midi": 48,
          "time": 110.41648999999771,
          "velocity": 0.8661417322834646,
          "duration": 0.273437062499994
        },
        {
          "name": "B2",
          "midi": 47,
          "time": 110.69426733333104,
          "velocity": 0.8661417322834646,
          "duration": 0.273437062499994
        },
        {
          "name": "G2",
          "midi": 43,
          "time": 110.97204466666437,
          "velocity": 0.8661417322834646,
          "duration": 0.273437062499994
        },
        {
          "name": "A2",
          "midi": 45,
          "time": 111.2498219999977,
          "velocity": 0.8661417322834646,
          "duration": 0.20399272916667144
        },
        {
          "name": "E3",
          "midi": 52,
          "time": 111.2498219999977,
          "velocity": 0.8661417322834646,
          "duration": 0.20399272916667144
        },
        {
          "name": "A2",
          "midi": 45,
          "time": 111.66648799999771,
          "velocity": 0.8661417322834646,
          "duration": 0.34722166666666965
        },
        {
          "name": "E3",
          "midi": 52,
          "time": 111.66648799999771,
          "velocity": 0.8661417322834646,
          "duration": 0.34722166666666965
        },
        {
          "name": "G2",
          "midi": 43,
          "time": 112.08315399999772,
          "velocity": 0.8661417322834646,
          "duration": 0.09982622916666628
        },
        {
          "name": "A2",
          "midi": 45,
          "time": 112.18732049999772,
          "velocity": 0.8661417322834646,
          "duration": 0.09982622916666628
        },
        {
          "name": "E3",
          "midi": 52,
          "time": 112.18732049999772,
          "velocity": 0.8661417322834646,
          "duration": 0.09982622916666628
        },
        {
          "name": "A2",
          "midi": 45,
          "time": 112.49981999999773,
          "velocity": 0.8661417322834646,
          "duration": 0.34722166666666965
        },
        {
          "name": "E3",
          "midi": 52,
          "time": 112.49981999999773,
          "velocity": 0.8661417322834646,
          "duration": 0.34722166666666965
        },
        {
          "name": "G2",
          "midi": 43,
          "time": 112.91648599999773,
          "velocity": 0.8661417322834646,
          "duration": 0.09982622916666628
        },
        {
          "name": "A2",
          "midi": 45,
          "time": 113.02065249999774,
          "velocity": 0.8661417322834646,
          "duration": 0.09982622916666628
        },
        {
          "name": "E3",
          "midi": 52,
          "time": 113.02065249999774,
          "velocity": 0.8661417322834646,
          "duration": 0.09982622916666628
        },
        {
          "name": "A2",
          "midi": 45,
          "time": 113.33315199999774,
          "velocity": 0.8661417322834646,
          "duration": 0.34722166666666965
        },
        {
          "name": "E3",
          "midi": 52,
          "time": 113.33315199999774,
          "velocity": 0.8661417322834646,
          "duration": 0.34722166666666965
        },
        {
          "name": "C3",
          "midi": 48,
          "time": 113.74981799999775,
          "velocity": 0.8661417322834646,
          "duration": 0.3081592291666624
        },
        {
          "name": "G3",
          "midi": 55,
          "time": 113.74981799999775,
          "velocity": 0.8661417322834646,
          "duration": 0.3081592291666624
        },
        {
          "name": "G2",
          "midi": 43,
          "time": 114.06231749999775,
          "velocity": 0.8661417322834646,
          "duration": 0.3081592291666624
        },
        {
          "name": "D3",
          "midi": 50,
          "time": 114.06231749999775,
          "velocity": 0.8661417322834646,
          "duration": 0.3081592291666624
        },
        {
          "name": "A2",
          "midi": 45,
          "time": 114.37481699999775,
          "velocity": 0.8661417322834646,
          "duration": 0.20399272916667144
        },
        {
          "name": "E3",
          "midi": 52,
          "time": 114.37481699999775,
          "velocity": 0.8661417322834646,
          "duration": 0.20399272916667144
        },
        {
          "name": "A2",
          "midi": 45,
          "time": 114.79148299999775,
          "velocity": 0.8661417322834646,
          "duration": 0.34722166666666965
        },
        {
          "name": "E3",
          "midi": 52,
          "time": 114.79148299999775,
          "velocity": 0.8661417322834646,
          "duration": 0.34722166666666965
        },
        {
          "name": "G2",
          "midi": 43,
          "time": 115.20814899999776,
          "velocity": 0.8661417322834646,
          "duration": 0.09982622916666628
        },
        {
          "name": "A2",
          "midi": 45,
          "time": 115.31231549999777,
          "velocity": 0.8661417322834646,
          "duration": 0.09982622916666628
        },
        {
          "name": "E3",
          "midi": 52,
          "time": 115.31231549999777,
          "velocity": 0.8661417322834646,
          "duration": 0.09982622916666628
        },
        {
          "name": "A2",
          "midi": 45,
          "time": 115.62481499999777,
          "velocity": 0.8661417322834646,
          "duration": 0.34722166666666965
        },
        {
          "name": "E3",
          "midi": 52,
          "time": 115.62481499999777,
          "velocity": 0.8661417322834646,
          "duration": 0.34722166666666965
        },
        {
          "name": "G2",
          "midi": 43,
          "time": 116.04148099999777,
          "velocity": 0.8661417322834646,
          "duration": 0.09982622916666628
        },
        {
          "name": "A2",
          "midi": 45,
          "time": 116.14564749999778,
          "velocity": 0.8661417322834646,
          "duration": 0.09982622916666628
        },
        {
          "name": "E3",
          "midi": 52,
          "time": 116.14564749999778,
          "velocity": 0.8661417322834646,
          "duration": 0.09982622916666628
        },
        {
          "name": "A2",
          "midi": 45,
          "time": 116.45814699999778,
          "velocity": 0.8661417322834646,
          "duration": 0.34722166666666965
        },
        {
          "name": "E3",
          "midi": 52,
          "time": 116.45814699999778,
          "velocity": 0.8661417322834646,
          "duration": 0.34722166666666965
        },
        {
          "name": "C3",
          "midi": 48,
          "time": 116.87481299999779,
          "velocity": 0.8661417322834646,
          "duration": 0.3081592291666624
        },
        {
          "name": "G3",
          "midi": 55,
          "time": 116.87481299999779,
          "velocity": 0.8661417322834646,
          "duration": 0.3081592291666624
        },
        {
          "name": "G2",
          "midi": 43,
          "time": 117.18731249999779,
          "velocity": 0.8661417322834646,
          "duration": 0.3081592291666624
        },
        {
          "name": "D3",
          "midi": 50,
          "time": 117.18731249999779,
          "velocity": 0.8661417322834646,
          "duration": 0.3081592291666624
        },
        {
          "name": "A2",
          "midi": 45,
          "time": 117.49981199999779,
          "velocity": 0.8661417322834646,
          "duration": 0.20399272916667144
        },
        {
          "name": "E3",
          "midi": 52,
          "time": 117.49981199999779,
          "velocity": 0.8661417322834646,
          "duration": 0.20399272916667144
        },
        {
          "name": "A2",
          "midi": 45,
          "time": 117.9164779999978,
          "velocity": 0.8661417322834646,
          "duration": 0.34722166666666965
        },
        {
          "name": "E3",
          "midi": 52,
          "time": 117.9164779999978,
          "velocity": 0.8661417322834646,
          "duration": 0.34722166666666965
        },
        {
          "name": "G2",
          "midi": 43,
          "time": 118.3331439999978,
          "velocity": 0.8661417322834646,
          "duration": 0.09982622916666628
        },
        {
          "name": "A2",
          "midi": 45,
          "time": 118.4373104999978,
          "velocity": 0.8661417322834646,
          "duration": 0.09982622916666628
        },
        {
          "name": "E3",
          "midi": 52,
          "time": 118.4373104999978,
          "velocity": 0.8661417322834646,
          "duration": 0.09982622916666628
        },
        {
          "name": "A2",
          "midi": 45,
          "time": 118.74980999999781,
          "velocity": 0.8661417322834646,
          "duration": 0.34722166666666965
        },
        {
          "name": "E3",
          "midi": 52,
          "time": 118.74980999999781,
          "velocity": 0.8661417322834646,
          "duration": 0.34722166666666965
        },
        {
          "name": "G2",
          "midi": 43,
          "time": 119.16647599999781,
          "velocity": 0.8661417322834646,
          "duration": 0.09982622916666628
        },
        {
          "name": "A2",
          "midi": 45,
          "time": 119.27064249999782,
          "velocity": 0.8661417322834646,
          "duration": 0.09982622916666628
        },
        {
          "name": "E3",
          "midi": 52,
          "time": 119.27064249999782,
          "velocity": 0.8661417322834646,
          "duration": 0.09982622916666628
        },
        {
          "name": "A2",
          "midi": 45,
          "time": 119.58314199999782,
          "velocity": 0.8661417322834646,
          "duration": 0.34722166666666965
        },
        {
          "name": "E3",
          "midi": 52,
          "time": 119.58314199999782,
          "velocity": 0.8661417322834646,
          "duration": 0.34722166666666965
        },
        {
          "name": "C3",
          "midi": 48,
          "time": 119.99980799999783,
          "velocity": 0.8661417322834646,
          "duration": 0.3081592291666624
        },
        {
          "name": "G3",
          "midi": 55,
          "time": 119.99980799999783,
          "velocity": 0.8661417322834646,
          "duration": 0.3081592291666624
        },
        {
          "name": "G2",
          "midi": 43,
          "time": 120.31230749999783,
          "velocity": 0.8661417322834646,
          "duration": 0.3081592291666624
        },
        {
          "name": "D3",
          "midi": 50,
          "time": 120.31230749999783,
          "velocity": 0.8661417322834646,
          "duration": 0.3081592291666624
        },
        {
          "name": "A2",
          "midi": 45,
          "time": 120.62480699999783,
          "velocity": 0.8661417322834646,
          "duration": 0.20399272916667144
        },
        {
          "name": "E3",
          "midi": 52,
          "time": 120.62480699999783,
          "velocity": 0.8661417322834646,
          "duration": 0.20399272916667144
        },
        {
          "name": "A2",
          "midi": 45,
          "time": 121.04147299999784,
          "velocity": 0.8661417322834646,
          "duration": 0.34722166666666965
        },
        {
          "name": "E3",
          "midi": 52,
          "time": 121.04147299999784,
          "velocity": 0.8661417322834646,
          "duration": 0.34722166666666965
        },
        {
          "name": "G2",
          "midi": 43,
          "time": 121.45813899999784,
          "velocity": 0.8661417322834646,
          "duration": 0.09982622916666628
        },
        {
          "name": "A2",
          "midi": 45,
          "time": 121.56230549999785,
          "velocity": 0.8661417322834646,
          "duration": 0.09982622916666628
        },
        {
          "name": "E3",
          "midi": 52,
          "time": 121.56230549999785,
          "velocity": 0.8661417322834646,
          "duration": 0.09982622916666628
        },
        {
          "name": "A2",
          "midi": 45,
          "time": 121.87480499999785,
          "velocity": 0.8661417322834646,
          "duration": 0.34722166666666965
        },
        {
          "name": "E3",
          "midi": 52,
          "time": 121.87480499999785,
          "velocity": 0.8661417322834646,
          "duration": 0.34722166666666965
        },
        {
          "name": "G2",
          "midi": 43,
          "time": 122.29147099999786,
          "velocity": 0.8661417322834646,
          "duration": 0.09982622916666628
        },
        {
          "name": "A2",
          "midi": 45,
          "time": 122.39563749999786,
          "velocity": 0.8661417322834646,
          "duration": 0.09982622916666628
        },
        {
          "name": "E3",
          "midi": 52,
          "time": 122.39563749999786,
          "velocity": 0.8661417322834646,
          "duration": 0.09982622916666628
        },
        {
          "name": "A2",
          "midi": 45,
          "time": 122.70813699999786,
          "velocity": 0.8661417322834646,
          "duration": 0.34722166666666965
        },
        {
          "name": "E3",
          "midi": 52,
          "time": 122.70813699999786,
          "velocity": 0.8661417322834646,
          "duration": 0.34722166666666965
        },
        {
          "name": "C3",
          "midi": 48,
          "time": 123.12480299999787,
          "velocity": 0.8661417322834646,
          "duration": 0.3081592291666624
        },
        {
          "name": "G3",
          "midi": 55,
          "time": 123.12480299999787,
          "velocity": 0.8661417322834646,
          "duration": 0.3081592291666624
        },
        {
          "name": "G2",
          "midi": 43,
          "time": 123.43730249999787,
          "velocity": 0.8661417322834646,
          "duration": 0.3081592291666624
        },
        {
          "name": "D3",
          "midi": 50,
          "time": 123.43730249999787,
          "velocity": 0.8661417322834646,
          "duration": 0.3081592291666624
        },
        {
          "name": "A2",
          "midi": 45,
          "time": 123.74980199999787,
          "velocity": 0.8661417322834646,
          "duration": 0.7291654999999935
        },
        {
          "name": "E3",
          "midi": 52,
          "time": 123.74980199999787,
          "velocity": 0.8661417322834646,
          "duration": 0.7291654999999935
        },
        {
          "name": "G2",
          "midi": 43,
          "time": 124.58313399999787,
          "velocity": 0.8661417322834646,
          "duration": 0.7291654999999935
        },
        {
          "name": "D3",
          "midi": 50,
          "time": 124.58313399999787,
          "velocity": 0.8661417322834646,
          "duration": 0.7291654999999935
        },
        {
          "name": "G3",
          "midi": 55,
          "time": 124.58313399999787,
          "velocity": 0.8661417322834646,
          "duration": 0.7291654999999935
        },
        {
          "name": "B3",
          "midi": 59,
          "time": 124.58313399999787,
          "velocity": 0.8661417322834646,
          "duration": 0.7291654999999935
        },
        {
          "name": "A2",
          "midi": 45,
          "time": 125.41646599999787,
          "velocity": 0.8661417322834646,
          "duration": 0.20399272916667144
        },
        {
          "name": "A3",
          "midi": 57,
          "time": 125.41646599999787,
          "velocity": 0.8661417322834646,
          "duration": 0.20399272916667144
        },
        {
          "name": "A2",
          "midi": 45,
          "time": 125.72896549999787,
          "velocity": 0.8661417322834646,
          "duration": 0.20399272916667144
        },
        {
          "name": "A3",
          "midi": 57,
          "time": 125.72896549999787,
          "velocity": 0.8661417322834646,
          "duration": 0.20399272916667144
        },
        {
          "name": "A2",
          "midi": 45,
          "time": 126.04146499999787,
          "velocity": 0.8661417322834646,
          "duration": 0.20399272916667144
        },
        {
          "name": "A3",
          "midi": 57,
          "time": 126.04146499999787,
          "velocity": 0.8661417322834646,
          "duration": 0.20399272916667144
        },
        {
          "name": "A2",
          "midi": 45,
          "time": 126.35396449999787,
          "velocity": 0.8661417322834646,
          "duration": 0.20399272916667144
        },
        {
          "name": "A3",
          "midi": 57,
          "time": 126.35396449999787,
          "velocity": 0.8661417322834646,
          "duration": 0.20399272916667144
        },
        {
          "name": "G3",
          "midi": 55,
          "time": 126.66646399999787,
          "velocity": 0.8661417322834646,
          "duration": 0.34722166666666965
        },
        {
          "name": "C4",
          "midi": 60,
          "time": 126.66646399999787,
          "velocity": 0.8661417322834646,
          "duration": 0.34722166666666965
        },
        {
          "name": "A2",
          "midi": 45,
          "time": 127.08312999999788,
          "velocity": 0.8661417322834646,
          "duration": 0.20399272916667144
        },
        {
          "name": "A3",
          "midi": 57,
          "time": 127.08312999999788,
          "velocity": 0.8661417322834646,
          "duration": 0.20399272916667144
        },
        {
          "name": "A2",
          "midi": 45,
          "time": 127.39562949999788,
          "velocity": 0.8661417322834646,
          "duration": 0.20399272916667144
        },
        {
          "name": "A3",
          "midi": 57,
          "time": 127.39562949999788,
          "velocity": 0.8661417322834646,
          "duration": 0.20399272916667144
        },
        {
          "name": "A2",
          "midi": 45,
          "time": 127.70812899999788,
          "velocity": 0.8661417322834646,
          "duration": 0.20399272916667144
        },
        {
          "name": "A3",
          "midi": 57,
          "time": 127.70812899999788,
          "velocity": 0.8661417322834646,
          "duration": 0.20399272916667144
        },
        {
          "name": "A2",
          "midi": 45,
          "time": 128.02062849999788,
          "velocity": 0.8661417322834646,
          "duration": 0.20399272916665723
        },
        {
          "name": "A3",
          "midi": 57,
          "time": 128.02062849999788,
          "velocity": 0.8661417322834646,
          "duration": 0.20399272916665723
        },
        {
          "name": "A3",
          "midi": 57,
          "time": 128.33312799999788,
          "velocity": 0.8661417322834646,
          "duration": 0.34722166666665544
        },
        {
          "name": "D4",
          "midi": 62,
          "time": 128.33312799999788,
          "velocity": 0.8661417322834646,
          "duration": 0.34722166666665544
        },
        {
          "name": "A2",
          "midi": 45,
          "time": 128.74979399999788,
          "velocity": 0.8661417322834646,
          "duration": 0.20399272916665723
        },
        {
          "name": "A3",
          "midi": 57,
          "time": 128.74979399999788,
          "velocity": 0.8661417322834646,
          "duration": 0.20399272916665723
        },
        {
          "name": "A2",
          "midi": 45,
          "time": 129.06229349999788,
          "velocity": 0.8661417322834646,
          "duration": 0.20399272916665723
        },
        {
          "name": "A3",
          "midi": 57,
          "time": 129.06229349999788,
          "velocity": 0.8661417322834646,
          "duration": 0.20399272916665723
        },
        {
          "name": "A2",
          "midi": 45,
          "time": 129.37479299999788,
          "velocity": 0.8661417322834646,
          "duration": 0.20399272916665723
        },
        {
          "name": "A3",
          "midi": 57,
          "time": 129.37479299999788,
          "velocity": 0.8661417322834646,
          "duration": 0.20399272916665723
        },
        {
          "name": "A2",
          "midi": 45,
          "time": 129.68729249999788,
          "velocity": 0.8661417322834646,
          "duration": 0.20399272916665723
        },
        {
          "name": "A3",
          "midi": 57,
          "time": 129.68729249999788,
          "velocity": 0.8661417322834646,
          "duration": 0.20399272916665723
        },
        {
          "name": "G3",
          "midi": 55,
          "time": 129.99979199999788,
          "velocity": 0.8661417322834646,
          "duration": 0.34722166666665544
        },
        {
          "name": "C4",
          "midi": 60,
          "time": 129.99979199999788,
          "velocity": 0.8661417322834646,
          "duration": 0.34722166666665544
        },
        {
          "name": "A3",
          "midi": 57,
          "time": 130.41645799999787,
          "velocity": 0.8661417322834646,
          "duration": 0.3081592291666766
        },
        {
          "name": "G3",
          "midi": 55,
          "time": 130.72895749999788,
          "velocity": 0.8661417322834646,
          "duration": 0.3081592291666766
        },
        {
          "name": "E3",
          "midi": 52,
          "time": 131.04145699999788,
          "velocity": 0.8661417322834646,
          "duration": 0.20399272916665723
        },
        {
          "name": "D#3",
          "midi": 51,
          "time": 131.24978999999786,
          "velocity": 0.8661417322834646,
          "duration": 0.20399272916665723
        },
        {
          "name": "D3",
          "midi": 50,
          "time": 131.45812299999784,
          "velocity": 0.8661417322834646,
          "duration": 0.20399272916665723
        },
        {
          "name": "C3",
          "midi": 48,
          "time": 131.66645599999782,
          "velocity": 0.8661417322834646,
          "duration": 0.20399272916665723
        },
        {
          "name": "A2",
          "midi": 45,
          "time": 131.8747889999978,
          "velocity": 0.8661417322834646,
          "duration": 0.20399272916665723
        },
        {
          "name": "A3",
          "midi": 57,
          "time": 131.8747889999978,
          "velocity": 0.8661417322834646,
          "duration": 0.20399272916665723
        },
        {
          "name": "A2",
          "midi": 45,
          "time": 132.1872884999978,
          "velocity": 0.8661417322834646,
          "duration": 0.20399272916665723
        },
        {
          "name": "A3",
          "midi": 57,
          "time": 132.1872884999978,
          "velocity": 0.8661417322834646,
          "duration": 0.20399272916665723
        },
        {
          "name": "A2",
          "midi": 45,
          "time": 132.4997879999978,
          "velocity": 0.8661417322834646,
          "duration": 0.20399272916665723
        },
        {
          "name": "A3",
          "midi": 57,
          "time": 132.4997879999978,
          "velocity": 0.8661417322834646,
          "duration": 0.20399272916665723
        },
        {
          "name": "A2",
          "midi": 45,
          "time": 132.8122874999978,
          "velocity": 0.8661417322834646,
          "duration": 0.20399272916665723
        },
        {
          "name": "A3",
          "midi": 57,
          "time": 132.8122874999978,
          "velocity": 0.8661417322834646,
          "duration": 0.20399272916665723
        },
        {
          "name": "G3",
          "midi": 55,
          "time": 133.1247869999978,
          "velocity": 0.8661417322834646,
          "duration": 0.34722166666665544
        },
        {
          "name": "C4",
          "midi": 60,
          "time": 133.1247869999978,
          "velocity": 0.8661417322834646,
          "duration": 0.34722166666665544
        },
        {
          "name": "A2",
          "midi": 45,
          "time": 133.5414529999978,
          "velocity": 0.8661417322834646,
          "duration": 0.20399272916665723
        },
        {
          "name": "A3",
          "midi": 57,
          "time": 133.5414529999978,
          "velocity": 0.8661417322834646,
          "duration": 0.20399272916665723
        },
        {
          "name": "A2",
          "midi": 45,
          "time": 133.8539524999978,
          "velocity": 0.8661417322834646,
          "duration": 0.20399272916665723
        },
        {
          "name": "A3",
          "midi": 57,
          "time": 133.8539524999978,
          "velocity": 0.8661417322834646,
          "duration": 0.20399272916665723
        },
        {
          "name": "A2",
          "midi": 45,
          "time": 134.1664519999978,
          "velocity": 0.8661417322834646,
          "duration": 0.20399272916665723
        },
        {
          "name": "A3",
          "midi": 57,
          "time": 134.1664519999978,
          "velocity": 0.8661417322834646,
          "duration": 0.20399272916665723
        },
        {
          "name": "A2",
          "midi": 45,
          "time": 134.4789514999978,
          "velocity": 0.8661417322834646,
          "duration": 0.20399272916665723
        },
        {
          "name": "A3",
          "midi": 57,
          "time": 134.4789514999978,
          "velocity": 0.8661417322834646,
          "duration": 0.20399272916665723
        },
        {
          "name": "A3",
          "midi": 57,
          "time": 134.7914509999978,
          "velocity": 0.8661417322834646,
          "duration": 0.34722166666665544
        },
        {
          "name": "D4",
          "midi": 62,
          "time": 134.7914509999978,
          "velocity": 0.8661417322834646,
          "duration": 0.34722166666665544
        },
        {
          "name": "A2",
          "midi": 45,
          "time": 135.2081169999978,
          "velocity": 0.8661417322834646,
          "duration": 0.20399272916665723
        },
        {
          "name": "A3",
          "midi": 57,
          "time": 135.2081169999978,
          "velocity": 0.8661417322834646,
          "duration": 0.20399272916665723
        },
        {
          "name": "A2",
          "midi": 45,
          "time": 135.5206164999978,
          "velocity": 0.8661417322834646,
          "duration": 0.20399272916665723
        },
        {
          "name": "A3",
          "midi": 57,
          "time": 135.5206164999978,
          "velocity": 0.8661417322834646,
          "duration": 0.20399272916665723
        },
        {
          "name": "A2",
          "midi": 45,
          "time": 135.8331159999978,
          "velocity": 0.8661417322834646,
          "duration": 0.20399272916665723
        },
        {
          "name": "A3",
          "midi": 57,
          "time": 135.8331159999978,
          "velocity": 0.8661417322834646,
          "duration": 0.20399272916665723
        },
        {
          "name": "A2",
          "midi": 45,
          "time": 136.1456154999978,
          "velocity": 0.8661417322834646,
          "duration": 0.20399272916665723
        },
        {
          "name": "A3",
          "midi": 57,
          "time": 136.1456154999978,
          "velocity": 0.8661417322834646,
          "duration": 0.20399272916665723
        },
        {
          "name": "G3",
          "midi": 55,
          "time": 136.4581149999978,
          "velocity": 0.8661417322834646,
          "duration": 0.34722166666665544
        },
        {
          "name": "C4",
          "midi": 60,
          "time": 136.4581149999978,
          "velocity": 0.8661417322834646,
          "duration": 0.34722166666665544
        },
        {
          "name": "A3",
          "midi": 57,
          "time": 136.8747809999978,
          "velocity": 0.8661417322834646,
          "duration": 0.3081592291666766
        },
        {
          "name": "G3",
          "midi": 55,
          "time": 137.1872804999978,
          "velocity": 0.8661417322834646,
          "duration": 0.3081592291666766
        },
        {
          "name": "E3",
          "midi": 52,
          "time": 137.4997799999978,
          "velocity": 0.8661417322834646,
          "duration": 0.20399272916665723
        },
        {
          "name": "D#3",
          "midi": 51,
          "time": 137.70811299999778,
          "velocity": 0.8661417322834646,
          "duration": 0.20399272916665723
        },
        {
          "name": "D3",
          "midi": 50,
          "time": 137.91644599999776,
          "velocity": 0.8661417322834646,
          "duration": 0.20399272916665723
        },
        {
          "name": "C3",
          "midi": 48,
          "time": 138.12477899999774,
          "velocity": 0.8661417322834646,
          "duration": 0.20399272916665723
        },
        {
          "name": "A2",
          "midi": 45,
          "time": 138.33311199999773,
          "velocity": 0.8661417322834646,
          "duration": 0.20399272916665723
        },
        {
          "name": "A3",
          "midi": 57,
          "time": 138.33311199999773,
          "velocity": 0.8661417322834646,
          "duration": 0.20399272916665723
        },
        {
          "name": "A2",
          "midi": 45,
          "time": 138.64561149999773,
          "velocity": 0.8661417322834646,
          "duration": 0.20399272916665723
        },
        {
          "name": "A3",
          "midi": 57,
          "time": 138.64561149999773,
          "velocity": 0.8661417322834646,
          "duration": 0.20399272916665723
        },
        {
          "name": "A2",
          "midi": 45,
          "time": 138.95811099999773,
          "velocity": 0.8661417322834646,
          "duration": 0.20399272916665723
        },
        {
          "name": "A3",
          "midi": 57,
          "time": 138.95811099999773,
          "velocity": 0.8661417322834646,
          "duration": 0.20399272916665723
        },
        {
          "name": "A2",
          "midi": 45,
          "time": 139.27061049999773,
          "velocity": 0.8661417322834646,
          "duration": 0.20399272916665723
        },
        {
          "name": "A3",
          "midi": 57,
          "time": 139.27061049999773,
          "velocity": 0.8661417322834646,
          "duration": 0.20399272916665723
        },
        {
          "name": "G3",
          "midi": 55,
          "time": 139.58310999999773,
          "velocity": 0.8661417322834646,
          "duration": 0.34722166666665544
        },
        {
          "name": "C4",
          "midi": 60,
          "time": 139.58310999999773,
          "velocity": 0.8661417322834646,
          "duration": 0.34722166666665544
        },
        {
          "name": "A2",
          "midi": 45,
          "time": 139.99977599999772,
          "velocity": 0.8661417322834646,
          "duration": 0.20399272916665723
        },
        {
          "name": "A3",
          "midi": 57,
          "time": 139.99977599999772,
          "velocity": 0.8661417322834646,
          "duration": 0.20399272916665723
        },
        {
          "name": "A2",
          "midi": 45,
          "time": 140.31227549999772,
          "velocity": 0.8661417322834646,
          "duration": 0.20399272916665723
        },
        {
          "name": "A3",
          "midi": 57,
          "time": 140.31227549999772,
          "velocity": 0.8661417322834646,
          "duration": 0.20399272916665723
        },
        {
          "name": "A2",
          "midi": 45,
          "time": 140.62477499999773,
          "velocity": 0.8661417322834646,
          "duration": 0.20399272916665723
        },
        {
          "name": "A3",
          "midi": 57,
          "time": 140.62477499999773,
          "velocity": 0.8661417322834646,
          "duration": 0.20399272916665723
        },
        {
          "name": "A2",
          "midi": 45,
          "time": 140.93727449999773,
          "velocity": 0.8661417322834646,
          "duration": 0.20399272916665723
        },
        {
          "name": "A3",
          "midi": 57,
          "time": 140.93727449999773,
          "velocity": 0.8661417322834646,
          "duration": 0.20399272916665723
        },
        {
          "name": "A3",
          "midi": 57,
          "time": 141.24977399999773,
          "velocity": 0.8661417322834646,
          "duration": 0.34722166666665544
        },
        {
          "name": "D4",
          "midi": 62,
          "time": 141.24977399999773,
          "velocity": 0.8661417322834646,
          "duration": 0.34722166666665544
        },
        {
          "name": "A2",
          "midi": 45,
          "time": 141.66643999999772,
          "velocity": 0.8661417322834646,
          "duration": 0.20399272916665723
        },
        {
          "name": "A3",
          "midi": 57,
          "time": 141.66643999999772,
          "velocity": 0.8661417322834646,
          "duration": 0.20399272916665723
        },
        {
          "name": "A2",
          "midi": 45,
          "time": 141.97893949999772,
          "velocity": 0.8661417322834646,
          "duration": 0.20399272916665723
        },
        {
          "name": "A3",
          "midi": 57,
          "time": 141.97893949999772,
          "velocity": 0.8661417322834646,
          "duration": 0.20399272916665723
        },
        {
          "name": "A2",
          "midi": 45,
          "time": 142.29143899999772,
          "velocity": 0.8661417322834646,
          "duration": 0.20399272916665723
        },
        {
          "name": "A3",
          "midi": 57,
          "time": 142.29143899999772,
          "velocity": 0.8661417322834646,
          "duration": 0.20399272916665723
        },
        {
          "name": "A2",
          "midi": 45,
          "time": 142.60393849999772,
          "velocity": 0.8661417322834646,
          "duration": 0.20399272916665723
        },
        {
          "name": "A3",
          "midi": 57,
          "time": 142.60393849999772,
          "velocity": 0.8661417322834646,
          "duration": 0.20399272916665723
        },
        {
          "name": "G3",
          "midi": 55,
          "time": 142.91643799999773,
          "velocity": 0.8661417322834646,
          "duration": 0.34722166666665544
        },
        {
          "name": "C4",
          "midi": 60,
          "time": 142.91643799999773,
          "velocity": 0.8661417322834646,
          "duration": 0.34722166666665544
        },
        {
          "name": "A3",
          "midi": 57,
          "time": 143.33310399999772,
          "velocity": 0.8661417322834646,
          "duration": 0.3081592291666766
        },
        {
          "name": "G3",
          "midi": 55,
          "time": 143.64560349999772,
          "velocity": 0.8661417322834646,
          "duration": 0.3081592291666766
        },
        {
          "name": "E3",
          "midi": 52,
          "time": 143.95810299999772,
          "velocity": 0.8661417322834646,
          "duration": 0.20399272916665723
        },
        {
          "name": "D#3",
          "midi": 51,
          "time": 144.1664359999977,
          "velocity": 0.8661417322834646,
          "duration": 0.20399272916665723
        },
        {
          "name": "D3",
          "midi": 50,
          "time": 144.37476899999768,
          "velocity": 0.8661417322834646,
          "duration": 0.20399272916665723
        },
        {
          "name": "C3",
          "midi": 48,
          "time": 144.58310199999767,
          "velocity": 0.8661417322834646,
          "duration": 0.20399272916665723
        },
        {
          "name": "A2",
          "midi": 45,
          "time": 144.79143499999765,
          "velocity": 0.8661417322834646,
          "duration": 0.20399272916665723
        },
        {
          "name": "A3",
          "midi": 57,
          "time": 144.79143499999765,
          "velocity": 0.8661417322834646,
          "duration": 0.20399272916665723
        },
        {
          "name": "A2",
          "midi": 45,
          "time": 145.10393449999765,
          "velocity": 0.8661417322834646,
          "duration": 0.20399272916665723
        },
        {
          "name": "A3",
          "midi": 57,
          "time": 145.10393449999765,
          "velocity": 0.8661417322834646,
          "duration": 0.20399272916665723
        },
        {
          "name": "A2",
          "midi": 45,
          "time": 145.41643399999765,
          "velocity": 0.8661417322834646,
          "duration": 0.20399272916665723
        },
        {
          "name": "A3",
          "midi": 57,
          "time": 145.41643399999765,
          "velocity": 0.8661417322834646,
          "duration": 0.20399272916665723
        },
        {
          "name": "A2",
          "midi": 45,
          "time": 145.72893349999765,
          "velocity": 0.8661417322834646,
          "duration": 0.20399272916665723
        },
        {
          "name": "A3",
          "midi": 57,
          "time": 145.72893349999765,
          "velocity": 0.8661417322834646,
          "duration": 0.20399272916665723
        },
        {
          "name": "G3",
          "midi": 55,
          "time": 146.04143299999765,
          "velocity": 0.8661417322834646,
          "duration": 0.34722166666665544
        },
        {
          "name": "C4",
          "midi": 60,
          "time": 146.04143299999765,
          "velocity": 0.8661417322834646,
          "duration": 0.34722166666665544
        },
        {
          "name": "A2",
          "midi": 45,
          "time": 146.45809899999765,
          "velocity": 0.8661417322834646,
          "duration": 0.20399272916665723
        },
        {
          "name": "A3",
          "midi": 57,
          "time": 146.45809899999765,
          "velocity": 0.8661417322834646,
          "duration": 0.20399272916665723
        },
        {
          "name": "A2",
          "midi": 45,
          "time": 146.77059849999765,
          "velocity": 0.8661417322834646,
          "duration": 0.20399272916665723
        },
        {
          "name": "A3",
          "midi": 57,
          "time": 146.77059849999765,
          "velocity": 0.8661417322834646,
          "duration": 0.20399272916665723
        },
        {
          "name": "A2",
          "midi": 45,
          "time": 147.08309799999765,
          "velocity": 0.8661417322834646,
          "duration": 0.20399272916665723
        },
        {
          "name": "A3",
          "midi": 57,
          "time": 147.08309799999765,
          "velocity": 0.8661417322834646,
          "duration": 0.20399272916665723
        },
        {
          "name": "A2",
          "midi": 45,
          "time": 147.39559749999765,
          "velocity": 0.8661417322834646,
          "duration": 0.20399272916665723
        },
        {
          "name": "A3",
          "midi": 57,
          "time": 147.39559749999765,
          "velocity": 0.8661417322834646,
          "duration": 0.20399272916665723
        },
        {
          "name": "A3",
          "midi": 57,
          "time": 147.70809699999765,
          "velocity": 0.8661417322834646,
          "duration": 0.34722166666665544
        },
        {
          "name": "D4",
          "midi": 62,
          "time": 147.70809699999765,
          "velocity": 0.8661417322834646,
          "duration": 0.34722166666665544
        },
        {
          "name": "A2",
          "midi": 45,
          "time": 148.12476299999764,
          "velocity": 0.8661417322834646,
          "duration": 0.20399272916665723
        },
        {
          "name": "A3",
          "midi": 57,
          "time": 148.12476299999764,
          "velocity": 0.8661417322834646,
          "duration": 0.20399272916665723
        },
        {
          "name": "A2",
          "midi": 45,
          "time": 148.43726249999764,
          "velocity": 0.8661417322834646,
          "duration": 0.20399272916665723
        },
        {
          "name": "A3",
          "midi": 57,
          "time": 148.43726249999764,
          "velocity": 0.8661417322834646,
          "duration": 0.20399272916665723
        },
        {
          "name": "A2",
          "midi": 45,
          "time": 148.74976199999765,
          "velocity": 0.8661417322834646,
          "duration": 0.20399272916665723
        },
        {
          "name": "A3",
          "midi": 57,
          "time": 148.74976199999765,
          "velocity": 0.8661417322834646,
          "duration": 0.20399272916665723
        },
        {
          "name": "A2",
          "midi": 45,
          "time": 149.06226149999765,
          "velocity": 0.8661417322834646,
          "duration": 0.20399272916665723
        },
        {
          "name": "A3",
          "midi": 57,
          "time": 149.06226149999765,
          "velocity": 0.8661417322834646,
          "duration": 0.20399272916665723
        },
        {
          "name": "G3",
          "midi": 55,
          "time": 149.37476099999765,
          "velocity": 0.8661417322834646,
          "duration": 0.34722166666665544
        },
        {
          "name": "C4",
          "midi": 60,
          "time": 149.37476099999765,
          "velocity": 0.8661417322834646,
          "duration": 0.34722166666665544
        },
        {
          "name": "A3",
          "midi": 57,
          "time": 149.79142699999764,
          "velocity": 0.8661417322834646,
          "duration": 0.3081592291666766
        },
        {
          "name": "G3",
          "midi": 55,
          "time": 150.10392649999764,
          "velocity": 0.8661417322834646,
          "duration": 0.3081592291666766
        },
        {
          "name": "E3",
          "midi": 52,
          "time": 150.41642599999764,
          "velocity": 0.8661417322834646,
          "duration": 0.20399272916665723
        },
        {
          "name": "D#3",
          "midi": 51,
          "time": 150.62475899999762,
          "velocity": 0.8661417322834646,
          "duration": 0.20399272916665723
        },
        {
          "name": "D3",
          "midi": 50,
          "time": 150.8330919999976,
          "velocity": 0.8661417322834646,
          "duration": 0.20399272916665723
        },
        {
          "name": "C3",
          "midi": 48,
          "time": 151.0414249999976,
          "velocity": 0.8661417322834646,
          "duration": 0.20399272916665723
        },
        {
          "name": "E6",
          "midi": 88,
          "time": 151.24975799999757,
          "velocity": 0.8661417322834646,
          "duration": 0.09982622916646733
        },
        {
          "name": "B6",
          "midi": 95,
          "time": 151.35392449999736,
          "velocity": 0.8661417322834646,
          "duration": 0.09982622916666628
        },
        {
          "name": "A6",
          "midi": 93,
          "time": 151.45809099999735,
          "velocity": 0.8661417322834646,
          "duration": 0.09982622916666628
        },
        {
          "name": "F#6",
          "midi": 90,
          "time": 151.56225749999734,
          "velocity": 0.8661417322834646,
          "duration": 0.09982622916666628
        },
        {
          "name": "E6",
          "midi": 88,
          "time": 151.66642399999733,
          "velocity": 0.8661417322834646,
          "duration": 0.09982622916646733
        },
        {
          "name": "B6",
          "midi": 95,
          "time": 151.77059049999713,
          "velocity": 0.8661417322834646,
          "duration": 0.09982622916666628
        },
        {
          "name": "A6",
          "midi": 93,
          "time": 151.87475699999712,
          "velocity": 0.8661417322834646,
          "duration": 0.09982622916666628
        },
        {
          "name": "F#6",
          "midi": 90,
          "time": 151.9789234999971,
          "velocity": 0.8661417322834646,
          "duration": 0.09982622916666628
        },
        {
          "name": "E6",
          "midi": 88,
          "time": 152.0830899999971,
          "velocity": 0.8661417322834646,
          "duration": 0.09982622916646733
        },
        {
          "name": "F#6",
          "midi": 90,
          "time": 152.1872564999969,
          "velocity": 0.8661417322834646,
          "duration": 0.09982622916666628
        },
        {
          "name": "A6",
          "midi": 93,
          "time": 152.29142299999688,
          "velocity": 0.8661417322834646,
          "duration": 0.09982622916666628
        },
        {
          "name": "F#6",
          "midi": 90,
          "time": 152.39558949999687,
          "velocity": 0.8661417322834646,
          "duration": 0.09982622916666628
        },
        {
          "name": "E6",
          "midi": 88,
          "time": 152.49975599999686,
          "velocity": 0.8661417322834646,
          "duration": 0.09982622916646733
        },
        {
          "name": "F#6",
          "midi": 90,
          "time": 152.60392249999666,
          "velocity": 0.8661417322834646,
          "duration": 0.09982622916666628
        },
        {
          "name": "A6",
          "midi": 93,
          "time": 152.70808899999665,
          "velocity": 0.8661417322834646,
          "duration": 0.09982622916666628
        },
        {
          "name": "F#6",
          "midi": 90,
          "time": 152.81225549999664,
          "velocity": 0.8661417322834646,
          "duration": 0.09982622916666628
        },
        {
          "name": "E6",
          "midi": 88,
          "time": 152.91642199999663,
          "velocity": 0.8661417322834646,
          "duration": 0.09982622916646733
        },
        {
          "name": "F#6",
          "midi": 90,
          "time": 153.02058849999642,
          "velocity": 0.8661417322834646,
          "duration": 0.09982622916666628
        },
        {
          "name": "A6",
          "midi": 93,
          "time": 153.1247549999964,
          "velocity": 0.8661417322834646,
          "duration": 0.09982622916666628
        },
        {
          "name": "F#6",
          "midi": 90,
          "time": 153.2289214999964,
          "velocity": 0.8661417322834646,
          "duration": 0.09982622916666628
        },
        {
          "name": "E6",
          "midi": 88,
          "time": 153.3330879999964,
          "velocity": 0.8661417322834646,
          "duration": 0.09982622916646733
        },
        {
          "name": "F#6",
          "midi": 90,
          "time": 153.4372544999962,
          "velocity": 0.8661417322834646,
          "duration": 0.09982622916666628
        },
        {
          "name": "A6",
          "midi": 93,
          "time": 153.54142099999618,
          "velocity": 0.8661417322834646,
          "duration": 0.09982622916666628
        },
        {
          "name": "F#6",
          "midi": 90,
          "time": 153.64558749999617,
          "velocity": 0.8661417322834646,
          "duration": 0.09982622916666628
        },
        {
          "name": "E6",
          "midi": 88,
          "time": 153.74975399999616,
          "velocity": 0.8661417322834646,
          "duration": 0.09982622916646733
        },
        {
          "name": "F#6",
          "midi": 90,
          "time": 153.85392049999595,
          "velocity": 0.8661417322834646,
          "duration": 0.09982622916666628
        },
        {
          "name": "A6",
          "midi": 93,
          "time": 153.95808699999594,
          "velocity": 0.8661417322834646,
          "duration": 0.09982622916666628
        },
        {
          "name": "F#6",
          "midi": 90,
          "time": 154.06225349999593,
          "velocity": 0.8661417322834646,
          "duration": 0.09982622916666628
        },
        {
          "name": "E6",
          "midi": 88,
          "time": 154.16641999999592,
          "velocity": 0.8661417322834646,
          "duration": 0.09982622916646733
        },
        {
          "name": "F#6",
          "midi": 90,
          "time": 154.27058649999572,
          "velocity": 0.8661417322834646,
          "duration": 0.09982622916666628
        },
        {
          "name": "A6",
          "midi": 93,
          "time": 154.3747529999957,
          "velocity": 0.8661417322834646,
          "duration": 0.09982622916666628
        },
        {
          "name": "F#6",
          "midi": 90,
          "time": 154.4789194999957,
          "velocity": 0.8661417322834646,
          "duration": 0.09982622916666628
        },
        {
          "name": "D7",
          "midi": 98,
          "time": 154.5830859999957,
          "velocity": 0.8661417322834646,
          "duration": 0.09982622916666628
        },
        {
          "name": "B6",
          "midi": 95,
          "time": 154.68725249999568,
          "velocity": 0.8661417322834646,
          "duration": 0.09982622916666628
        },
        {
          "name": "C#7",
          "midi": 97,
          "time": 154.79141899999567,
          "velocity": 0.8661417322834646,
          "duration": 0.09982622916666628
        },
        {
          "name": "B6",
          "midi": 95,
          "time": 154.89558549999566,
          "velocity": 0.8661417322834646,
          "duration": 0.09982622916666628
        },
        {
          "name": "G#6",
          "midi": 92,
          "time": 154.99975199999565,
          "velocity": 0.8661417322834646,
          "duration": 0.09982622916666628
        },
        {
          "name": "B6",
          "midi": 95,
          "time": 155.10391849999564,
          "velocity": 0.8661417322834646,
          "duration": 0.09982622916666628
        },
        {
          "name": "C#7",
          "midi": 97,
          "time": 155.20808499999563,
          "velocity": 0.8661417322834646,
          "duration": 0.09982622916666628
        },
        {
          "name": "B6",
          "midi": 95,
          "time": 155.31225149999563,
          "velocity": 0.8661417322834646,
          "duration": 0.09982622916666628
        },
        {
          "name": "D7",
          "midi": 98,
          "time": 155.41641799999562,
          "velocity": 0.8661417322834646,
          "duration": 0.09982622916666628
        },
        {
          "name": "B6",
          "midi": 95,
          "time": 155.5205844999956,
          "velocity": 0.8661417322834646,
          "duration": 0.09982622916666628
        },
        {
          "name": "C#7",
          "midi": 97,
          "time": 155.6247509999956,
          "velocity": 0.8661417322834646,
          "duration": 0.09982622916666628
        },
        {
          "name": "B6",
          "midi": 95,
          "time": 155.7289174999956,
          "velocity": 0.8661417322834646,
          "duration": 0.09982622916666628
        },
        {
          "name": "G#6",
          "midi": 92,
          "time": 155.83308399999558,
          "velocity": 0.8661417322834646,
          "duration": 0.09982622916666628
        },
        {
          "name": "B6",
          "midi": 95,
          "time": 155.93725049999557,
          "velocity": 0.8661417322834646,
          "duration": 0.09982622916666628
        },
        {
          "name": "D7",
          "midi": 98,
          "time": 156.04141699999556,
          "velocity": 0.8661417322834646,
          "duration": 0.09982622916666628
        },
        {
          "name": "B6",
          "midi": 95,
          "time": 156.14558349999555,
          "velocity": 0.8661417322834646,
          "duration": 0.09982622916666628
        },
        {
          "name": "A6",
          "midi": 93,
          "time": 156.24974999999554,
          "velocity": 0.8661417322834646,
          "duration": 0.8289917291658355
        },
        {
          "name": "B6",
          "midi": 95,
          "time": 157.0830819999947,
          "velocity": 0.8661417322834646,
          "duration": 0.20399272916665723
        },
        {
          "name": "B6",
          "midi": 95,
          "time": 157.29141499999469,
          "velocity": 0.8661417322834646,
          "duration": 0.20399272916665723
        },
        {
          "name": "B6",
          "midi": 95,
          "time": 157.49974799999467,
          "velocity": 0.8661417322834646,
          "duration": 0.20399272916665723
        },
        {
          "name": "B6",
          "midi": 95,
          "time": 157.70808099999465,
          "velocity": 0.8661417322834646,
          "duration": 0.09982622916666628
        },
        {
          "name": "D7",
          "midi": 98,
          "time": 157.81224749999464,
          "velocity": 0.8661417322834646,
          "duration": 0.09982622916666628
        },
        {
          "name": "B6",
          "midi": 95,
          "time": 157.91641399999463,
          "velocity": 0.8661417322834646,
          "duration": 0.09982622916666628
        },
        {
          "name": "A6",
          "midi": 93,
          "time": 158.02058049999462,
          "velocity": 0.8661417322834646,
          "duration": 0.09982622916666628
        },
        {
          "name": "B6",
          "midi": 95,
          "time": 158.1247469999946,
          "velocity": 0.8661417322834646,
          "duration": 0.0651040625000121
        },
        {
          "name": "D7",
          "midi": 98,
          "time": 158.19419133332795,
          "velocity": 0.8661417322834646,
          "duration": 0.0651040625000121
        },
        {
          "name": "B6",
          "midi": 95,
          "time": 158.2636356666613,
          "velocity": 0.8661417322834646,
          "duration": 0.0651040625000121
        },
        {
          "name": "A6",
          "midi": 93,
          "time": 158.33307999999462,
          "velocity": 0.8661417322834646,
          "duration": 0.0651040625000121
        },
        {
          "name": "F#6",
          "midi": 90,
          "time": 158.40252433332796,
          "velocity": 0.8661417322834646,
          "duration": 0.0651040625000121
        },
        {
          "name": "A6",
          "midi": 93,
          "time": 158.4719686666613,
          "velocity": 0.8661417322834646,
          "duration": 0.0651040625000121
        },
        {
          "name": "F#6",
          "midi": 90,
          "time": 158.54141299999463,
          "velocity": 0.8661417322834646,
          "duration": 0.09982622916666628
        },
        {
          "name": "F#6",
          "midi": 90,
          "time": 158.64557949999462,
          "velocity": 0.8661417322834646,
          "duration": 0.09982622916666628
        },
        {
          "name": "A6",
          "midi": 93,
          "time": 158.74974599999462,
          "velocity": 0.8661417322834646,
          "duration": 0.09982622916666628
        },
        {
          "name": "F#6",
          "midi": 90,
          "time": 158.8539124999946,
          "velocity": 0.8661417322834646,
          "duration": 0.09982622916666628
        },
        {
          "name": "E6",
          "midi": 88,
          "time": 158.9580789999946,
          "velocity": 0.8661417322834646,
          "duration": 0.09982622916666628
        },
        {
          "name": "D6",
          "midi": 86,
          "time": 159.0622454999946,
          "velocity": 0.8661417322834646,
          "duration": 0.09982622916666628
        },
        {
          "name": "D6",
          "midi": 86,
          "time": 159.16641199999458,
          "velocity": 0.8661417322834646,
          "duration": 0.09982622916666628
        },
        {
          "name": "D6",
          "midi": 86,
          "time": 159.27057849999457,
          "velocity": 0.8661417322834646,
          "duration": 0.09982622916666628
        },
        {
          "name": "E6",
          "midi": 88,
          "time": 159.37474499999456,
          "velocity": 0.8661417322834646,
          "duration": 0.09982622916666628
        },
        {
          "name": "D6",
          "midi": 86,
          "time": 159.47891149999455,
          "velocity": 0.8661417322834646,
          "duration": 0.09982622916666628
        },
        {
          "name": "B5",
          "midi": 83,
          "time": 159.58307799999454,
          "velocity": 0.8661417322834646,
          "duration": 0.09982622916666628
        },
        {
          "name": "A5",
          "midi": 81,
          "time": 159.68724449999453,
          "velocity": 0.8661417322834646,
          "duration": 0.09982622916666628
        },
        {
          "name": "F#5",
          "midi": 78,
          "time": 159.79141099999453,
          "velocity": 0.8661417322834646,
          "duration": 0.09982622916666628
        },
        {
          "name": "A5",
          "midi": 81,
          "time": 159.89557749999452,
          "velocity": 0.8661417322834646,
          "duration": 0.09982622916666628
        },
        {
          "name": "B5",
          "midi": 83,
          "time": 159.9997439999945,
          "velocity": 0.8661417322834646,
          "duration": 0.09982622916666628
        },
        {
          "name": "A5",
          "midi": 81,
          "time": 160.1039104999945,
          "velocity": 0.8661417322834646,
          "duration": 0.09982622916666628
        },
        {
          "name": "F#5",
          "midi": 78,
          "time": 160.2080769999945,
          "velocity": 0.8661417322834646,
          "duration": 0.09982622916666628
        },
        {
          "name": "E5",
          "midi": 76,
          "time": 160.31224349999448,
          "velocity": 0.8661417322834646,
          "duration": 0.09982622916666628
        },
        {
          "name": "D5",
          "midi": 74,
          "time": 160.41640999999447,
          "velocity": 0.8661417322834646,
          "duration": 0.20399272916665723
        },
        {
          "name": "D5",
          "midi": 74,
          "time": 160.62474299999445,
          "velocity": 0.8661417322834646,
          "duration": 0.20399272916665723
        },
        {
          "name": "B4",
          "midi": 71,
          "time": 160.83307599999443,
          "velocity": 0.8661417322834646,
          "duration": 0.20399272916665723
        },
        {
          "name": "A4",
          "midi": 69,
          "time": 161.04140899999442,
          "velocity": 0.8661417322834646,
          "duration": 0.09982622916666628
        },
        {
          "name": "B4",
          "midi": 71,
          "time": 161.1455754999944,
          "velocity": 0.8661417322834646,
          "duration": 0.09982622916666628
        },
        {
          "name": "D5",
          "midi": 74,
          "time": 161.2497419999944,
          "velocity": 0.8661417322834646,
          "duration": 0.20399272916665723
        },
        {
          "name": "E5",
          "midi": 76,
          "time": 161.45807499999438,
          "velocity": 0.8661417322834646,
          "duration": 0.09982622916666628
        },
        {
          "name": "F#5",
          "midi": 78,
          "time": 161.56224149999437,
          "velocity": 0.8661417322834646,
          "duration": 0.09982622916666628
        },
        {
          "name": "A5",
          "midi": 81,
          "time": 161.66640799999436,
          "velocity": 0.8661417322834646,
          "duration": 0.09982622916666628
        },
        {
          "name": "A5",
          "midi": 81,
          "time": 161.77057449999435,
          "velocity": 0.8661417322834646,
          "duration": 0.09982622916666628
        },
        {
          "name": "B5",
          "midi": 83,
          "time": 161.87474099999434,
          "velocity": 0.8661417322834646,
          "duration": 0.09982622916666628
        },
        {
          "name": "A5",
          "midi": 81,
          "time": 161.97890749999434,
          "velocity": 0.8661417322834646,
          "duration": 0.09982622916666628
        },
        {
          "name": "A5",
          "midi": 81,
          "time": 162.08307399999433,
          "velocity": 0.8661417322834646,
          "duration": 0.09982622916666628
        },
        {
          "name": "A5",
          "midi": 81,
          "time": 162.18724049999432,
          "velocity": 0.8661417322834646,
          "duration": 0.09982622916666628
        },
        {
          "name": "A5",
          "midi": 81,
          "time": 162.2914069999943,
          "velocity": 0.8661417322834646,
          "duration": 0.09982622916666628
        },
        {
          "name": "B5",
          "midi": 83,
          "time": 162.3955734999943,
          "velocity": 0.8661417322834646,
          "duration": 0.09982622916666628
        },
        {
          "name": "D6",
          "midi": 86,
          "time": 162.4997399999943,
          "velocity": 0.8661417322834646,
          "duration": 0.09982622916666628
        },
        {
          "name": "B5",
          "midi": 83,
          "time": 162.60390649999428,
          "velocity": 0.8661417322834646,
          "duration": 0.09982622916666628
        },
        {
          "name": "E6",
          "midi": 88,
          "time": 162.70807299999427,
          "velocity": 0.8661417322834646,
          "duration": 0.3081592291664492
        },
        {
          "name": "E6",
          "midi": 88,
          "time": 163.02057249999405,
          "velocity": 0.8661417322834646,
          "duration": 0.3081592291664492
        },
        {
          "name": "E6",
          "midi": 88,
          "time": 163.33307199999382,
          "velocity": 0.8661417322834646,
          "duration": 0.20399272916645828
        },
        {
          "name": "E6",
          "midi": 88,
          "time": 163.5414049999936,
          "velocity": 0.8661417322834646,
          "duration": 0.20399272916645828
        },
        {
          "name": "E6",
          "midi": 88,
          "time": 163.74973799999339,
          "velocity": 0.8661417322834646,
          "duration": 0.20399272916645828
        },
        {
          "name": "F#6",
          "midi": 90,
          "time": 163.95807099999317,
          "velocity": 0.8661417322834646,
          "duration": 0.3081592291666766
        },
        {
          "name": "E6",
          "midi": 88,
          "time": 164.27057049999317,
          "velocity": 0.8661417322834646,
          "duration": 0.20399272916645828
        },
        {
          "name": "F#6",
          "midi": 90,
          "time": 164.47890349999295,
          "velocity": 0.8661417322834646,
          "duration": 0.09982622916666628
        },
        {
          "name": "E6",
          "midi": 88,
          "time": 164.58306999999294,
          "velocity": 0.8661417322834646,
          "duration": 0.09982622916646733
        },
        {
          "name": "F#6",
          "midi": 90,
          "time": 164.68723649999274,
          "velocity": 0.8661417322834646,
          "duration": 0.09982622916666628
        },
        {
          "name": "E6",
          "midi": 88,
          "time": 164.79140299999273,
          "velocity": 0.8661417322834646,
          "duration": 0.09982622916646733
        },
        {
          "name": "F#6",
          "midi": 90,
          "time": 164.89556949999252,
          "velocity": 0.8661417322834646,
          "duration": 0.09982622916666628
        },
        {
          "name": "A6",
          "midi": 93,
          "time": 164.9997359999925,
          "velocity": 0.8661417322834646,
          "duration": 0.09982622916666628
        },
        {
          "name": "F#6",
          "midi": 90,
          "time": 165.1039024999925,
          "velocity": 0.8661417322834646,
          "duration": 0.09982622916666628
        },
        {
          "name": "E6",
          "midi": 88,
          "time": 165.2080689999925,
          "velocity": 0.8661417322834646,
          "duration": 0.09982622916666628
        },
        {
          "name": "F#6",
          "midi": 90,
          "time": 165.31223549999248,
          "velocity": 0.8661417322834646,
          "duration": 0.09982622916666628
        },
        {
          "name": "A6",
          "midi": 93,
          "time": 165.41640199999247,
          "velocity": 0.8661417322834646,
          "duration": 0.09982622916666628
        },
        {
          "name": "F#6",
          "midi": 90,
          "time": 165.52056849999246,
          "velocity": 0.8661417322834646,
          "duration": 0.09982622916666628
        },
        {
          "name": "B6",
          "midi": 95,
          "time": 165.62473499999246,
          "velocity": 0.8661417322834646,
          "duration": 0.09982622916666628
        },
        {
          "name": "F#6",
          "midi": 90,
          "time": 165.72890149999245,
          "velocity": 0.8661417322834646,
          "duration": 0.09982622916666628
        },
        {
          "name": "A6",
          "midi": 93,
          "time": 165.83306799999244,
          "velocity": 0.8661417322834646,
          "duration": 0.09982622916666628
        },
        {
          "name": "F#6",
          "midi": 90,
          "time": 165.93723449999243,
          "velocity": 0.8661417322834646,
          "duration": 0.09982622916666628
        },
        {
          "name": "E6",
          "midi": 88,
          "time": 166.04140099999242,
          "velocity": 0.8661417322834646,
          "duration": 0.09982622916666628
        },
        {
          "name": "F#6",
          "midi": 90,
          "time": 166.1455674999924,
          "velocity": 0.8661417322834646,
          "duration": 0.09982622916666628
        },
        {
          "name": "A6",
          "midi": 93,
          "time": 166.2497339999924,
          "velocity": 0.8661417322834646,
          "duration": 0.09982622916666628
        },
        {
          "name": "F#6",
          "midi": 90,
          "time": 166.3539004999924,
          "velocity": 0.8661417322834646,
          "duration": 0.09982622916666628
        },
        {
          "name": "B6",
          "midi": 95,
          "time": 166.45806699999238,
          "velocity": 0.8661417322834646,
          "duration": 0.09982622916666628
        },
        {
          "name": "F#6",
          "midi": 90,
          "time": 166.56223349999237,
          "velocity": 0.8661417322834646,
          "duration": 0.09982622916666628
        },
        {
          "name": "A6",
          "midi": 93,
          "time": 166.66639999999236,
          "velocity": 0.8661417322834646,
          "duration": 0.09982622916666628
        },
        {
          "name": "F#6",
          "midi": 90,
          "time": 166.77056649999236,
          "velocity": 0.8661417322834646,
          "duration": 0.09982622916666628
        },
        {
          "name": "E6",
          "midi": 88,
          "time": 166.87473299999235,
          "velocity": 0.8661417322834646,
          "duration": 0.09982622916666628
        },
        {
          "name": "F#6",
          "midi": 90,
          "time": 166.97889949999234,
          "velocity": 0.8661417322834646,
          "duration": 0.09982622916666628
        },
        {
          "name": "A6",
          "midi": 93,
          "time": 167.08306599999233,
          "velocity": 0.8661417322834646,
          "duration": 0.09982622916666628
        },
        {
          "name": "F#6",
          "midi": 90,
          "time": 167.18723249999232,
          "velocity": 0.8661417322834646,
          "duration": 0.09982622916666628
        },
        {
          "name": "B6",
          "midi": 95,
          "time": 167.2913989999923,
          "velocity": 0.8661417322834646,
          "duration": 0.09982622916666628
        },
        {
          "name": "F#6",
          "midi": 90,
          "time": 167.3955654999923,
          "velocity": 0.8661417322834646,
          "duration": 0.09982622916666628
        },
        {
          "name": "A6",
          "midi": 93,
          "time": 167.4997319999923,
          "velocity": 0.8661417322834646,
          "duration": 0.09982622916666628
        },
        {
          "name": "F#6",
          "midi": 90,
          "time": 167.60389849999228,
          "velocity": 0.8661417322834646,
          "duration": 0.09982622916666628
        },
        {
          "name": "E6",
          "midi": 88,
          "time": 167.70806499999227,
          "velocity": 0.8661417322834646,
          "duration": 0.09982622916666628
        },
        {
          "name": "F#6",
          "midi": 90,
          "time": 167.81223149999227,
          "velocity": 0.8661417322834646,
          "duration": 0.09982622916666628
        },
        {
          "name": "A6",
          "midi": 93,
          "time": 167.91639799999226,
          "velocity": 0.8661417322834646,
          "duration": 0.09982622916666628
        },
        {
          "name": "F#6",
          "midi": 90,
          "time": 168.02056449999225,
          "velocity": 0.8661417322834646,
          "duration": 0.09982622916666628
        },
        {
          "name": "E6",
          "midi": 88,
          "time": 168.12473099999224,
          "velocity": 0.8661417322834646,
          "duration": 0.09982622916666628
        },
        {
          "name": "C#6",
          "midi": 85,
          "time": 168.22889749999223,
          "velocity": 0.8661417322834646,
          "duration": 0.09982622916666628
        },
        {
          "name": "B5",
          "midi": 83,
          "time": 168.33306399999222,
          "velocity": 0.8661417322834646,
          "duration": 0.09982622916666628
        },
        {
          "name": "C#6",
          "midi": 85,
          "time": 168.4372304999922,
          "velocity": 0.8661417322834646,
          "duration": 0.09982622916666628
        },
        {
          "name": "E6",
          "midi": 88,
          "time": 168.5413969999922,
          "velocity": 0.8661417322834646,
          "duration": 0.09982622916666628
        },
        {
          "name": "C#6",
          "midi": 85,
          "time": 168.6455634999922,
          "velocity": 0.8661417322834646,
          "duration": 0.09982622916666628
        },
        {
          "name": "B5",
          "midi": 83,
          "time": 168.74972999999218,
          "velocity": 0.8661417322834646,
          "duration": 0.09982622916666628
        },
        {
          "name": "A5",
          "midi": 81,
          "time": 168.85389649999217,
          "velocity": 0.8661417322834646,
          "duration": 0.09982622916666628
        },
        {
          "name": "A5",
          "midi": 81,
          "time": 168.95806299999217,
          "velocity": 0.8661417322834646,
          "duration": 0.09982622916666628
        },
        {
          "name": "A5",
          "midi": 81,
          "time": 169.06222949999216,
          "velocity": 0.8661417322834646,
          "duration": 0.09982622916666628
        },
        {
          "name": "B5",
          "midi": 83,
          "time": 169.16639599999215,
          "velocity": 0.8661417322834646,
          "duration": 0.3081592291664492
        },
        {
          "name": "B5",
          "midi": 83,
          "time": 169.47889549999192,
          "velocity": 0.8661417322834646,
          "duration": 0.3081592291664492
        },
        {
          "name": "B5",
          "midi": 83,
          "time": 169.7913949999917,
          "velocity": 0.8661417322834646,
          "duration": 0.20399272916645828
        },
        {
          "name": "B5",
          "midi": 83,
          "time": 169.99972799999148,
          "velocity": 0.8661417322834646,
          "duration": 0.20399272916645828
        },
        {
          "name": "B5",
          "midi": 83,
          "time": 170.20806099999126,
          "velocity": 0.8661417322834646,
          "duration": 0.20399272916645828
        },
        {
          "name": "B5",
          "midi": 83,
          "time": 170.41639399999104,
          "velocity": 0.8661417322834646,
          "duration": 0.09982622916666628
        },
        {
          "name": "A5",
          "midi": 81,
          "time": 170.52056049999103,
          "velocity": 0.8661417322834646,
          "duration": 0.09982622916666628
        },
        {
          "name": "D7",
          "midi": 98,
          "time": 170.62472699999103,
          "velocity": 0.8661417322834646,
          "duration": 0.8289917291660629
        },
        {
          "name": "D7",
          "midi": 98,
          "time": 171.4580589999904,
          "velocity": 0.8661417322834646,
          "duration": 0.34722166666625753
        },
        {
          "name": "C#7",
          "midi": 97,
          "time": 171.87472499999,
          "velocity": 0.8661417322834646,
          "duration": 0.0651040625000121
        },
        {
          "name": "D7",
          "midi": 98,
          "time": 171.94416933332334,
          "velocity": 0.8661417322834646,
          "duration": 0.0651040625000121
        },
        {
          "name": "B6",
          "midi": 95,
          "time": 172.01361366665668,
          "velocity": 0.8661417322834646,
          "duration": 0.0651040625000121
        },
        {
          "name": "A6",
          "midi": 93,
          "time": 172.08305799999002,
          "velocity": 0.8661417322834646,
          "duration": 0.09982622916666628
        },
        {
          "name": "B6",
          "midi": 95,
          "time": 172.18722449999,
          "velocity": 0.8661417322834646,
          "duration": 0.09982622916666628
        },
        {
          "name": "D7",
          "midi": 98,
          "time": 172.29139099999,
          "velocity": 0.8661417322834646,
          "duration": 0.09982622916666628
        },
        {
          "name": "B6",
          "midi": 95,
          "time": 172.39555749999,
          "velocity": 0.8661417322834646,
          "duration": 0.09982622916666628
        },
        {
          "name": "A6",
          "midi": 93,
          "time": 172.49972399998998,
          "velocity": 0.8661417322834646,
          "duration": 0.09982622916666628
        },
        {
          "name": "F#6",
          "midi": 90,
          "time": 172.60389049998997,
          "velocity": 0.8661417322834646,
          "duration": 0.09982622916666628
        },
        {
          "name": "E6",
          "midi": 88,
          "time": 172.70805699998996,
          "velocity": 0.8661417322834646,
          "duration": 0.09982622916646733
        },
        {
          "name": "F#6",
          "midi": 90,
          "time": 172.81222349998976,
          "velocity": 0.8661417322834646,
          "duration": 0.09982622916666628
        },
        {
          "name": "A6",
          "midi": 93,
          "time": 172.91638999998975,
          "velocity": 0.8661417322834646,
          "duration": 0.09982622916666628
        },
        {
          "name": "F#6",
          "midi": 90,
          "time": 173.02055649998974,
          "velocity": 0.8661417322834646,
          "duration": 0.09982622916666628
        },
        {
          "name": "E6",
          "midi": 88,
          "time": 173.12472299998973,
          "velocity": 0.8661417322834646,
          "duration": 0.09982622916666628
        },
        {
          "name": "D6",
          "midi": 86,
          "time": 173.22888949998972,
          "velocity": 0.8661417322834646,
          "duration": 0.09982622916666628
        },
        {
          "name": "B5",
          "midi": 83,
          "time": 173.3330559999897,
          "velocity": 0.8661417322834646,
          "duration": 0.09982622916666628
        },
        {
          "name": "D6",
          "midi": 86,
          "time": 173.4372224999897,
          "velocity": 0.8661417322834646,
          "duration": 0.09982622916666628
        },
        {
          "name": "E6",
          "midi": 88,
          "time": 173.5413889999897,
          "velocity": 0.8661417322834646,
          "duration": 0.09982622916666628
        },
        {
          "name": "D6",
          "midi": 86,
          "time": 173.64555549998968,
          "velocity": 0.8661417322834646,
          "duration": 0.09982622916666628
        },
        {
          "name": "B5",
          "midi": 83,
          "time": 173.74972199998967,
          "velocity": 0.8661417322834646,
          "duration": 0.09982622916666628
        },
        {
          "name": "A5",
          "midi": 81,
          "time": 173.85388849998967,
          "velocity": 0.8661417322834646,
          "duration": 0.09982622916666628
        },
        {
          "name": "F#5",
          "midi": 78,
          "time": 173.95805499998966,
          "velocity": 0.8661417322834646,
          "duration": 0.09982622916666628
        },
        {
          "name": "A5",
          "midi": 81,
          "time": 174.06222149998965,
          "velocity": 0.8661417322834646,
          "duration": 0.09982622916666628
        },
        {
          "name": "B5",
          "midi": 83,
          "time": 174.16638799998964,
          "velocity": 0.8661417322834646,
          "duration": 0.09982622916666628
        },
        {
          "name": "A5",
          "midi": 81,
          "time": 174.27055449998963,
          "velocity": 0.8661417322834646,
          "duration": 0.09982622916666628
        },
        {
          "name": "F#5",
          "midi": 78,
          "time": 174.37472099998962,
          "velocity": 0.8661417322834646,
          "duration": 0.09982622916666628
        },
        {
          "name": "E5",
          "midi": 76,
          "time": 174.4788874999896,
          "velocity": 0.8661417322834646,
          "duration": 0.09982622916666628
        },
        {
          "name": "D5",
          "midi": 74,
          "time": 174.5830539999896,
          "velocity": 0.8661417322834646,
          "duration": 0.09982622916666628
        },
        {
          "name": "D5",
          "midi": 74,
          "time": 174.6872204999896,
          "velocity": 0.8661417322834646,
          "duration": 0.09982622916666628
        },
        {
          "name": "E5",
          "midi": 76,
          "time": 174.79138699998958,
          "velocity": 0.8661417322834646,
          "duration": 0.09982622916666628
        },
        {
          "name": "D5",
          "midi": 74,
          "time": 174.89555349998957,
          "velocity": 0.8661417322834646,
          "duration": 0.09982622916666628
        },
        {
          "name": "C#5",
          "midi": 73,
          "time": 174.99971999998957,
          "velocity": 0.8661417322834646,
          "duration": 0.09982622916666628
        },
        {
          "name": "D5",
          "midi": 74,
          "time": 175.10388649998956,
          "velocity": 0.8661417322834646,
          "duration": 0.09982622916666628
        },
        {
          "name": "F#5",
          "midi": 78,
          "time": 175.20805299998955,
          "velocity": 0.8661417322834646,
          "duration": 0.13454839583332046
        },
        {
          "name": "A5",
          "midi": 81,
          "time": 175.3469416666562,
          "velocity": 0.8661417322834646,
          "duration": 0.13454839583332046
        },
        {
          "name": "B5",
          "midi": 83,
          "time": 175.48583033332284,
          "velocity": 0.8661417322834646,
          "duration": 0.13454839583332046
        },
        {
          "name": "E6",
          "midi": 88,
          "time": 175.62471899998948,
          "velocity": 0.8661417322834646,
          "duration": 0.3081592291664492
        },
        {
          "name": "E6",
          "midi": 88,
          "time": 175.93721849998926,
          "velocity": 0.8661417322834646,
          "duration": 0.3081592291664492
        },
        {
          "name": "E6",
          "midi": 88,
          "time": 176.24971799998903,
          "velocity": 0.8661417322834646,
          "duration": 0.4123257291664686
        },
        {
          "name": "B6",
          "midi": 95,
          "time": 176.66638399998882,
          "velocity": 0.8661417322834646,
          "duration": 0.20399272916665723
        },
        {
          "name": "F#6",
          "midi": 90,
          "time": 176.94416133332214,
          "velocity": 0.8661417322834646,
          "duration": 0.0651040625000121
        },
        {
          "name": "E6",
          "midi": 88,
          "time": 177.01360566665548,
          "velocity": 0.8661417322834646,
          "duration": 0.0651040625000121
        },
        {
          "name": "A6",
          "midi": 93,
          "time": 177.08304999998882,
          "velocity": 0.8661417322834646,
          "duration": 0.0651040625000121
        },
        {
          "name": "F#6",
          "midi": 90,
          "time": 177.15249433332215,
          "velocity": 0.8661417322834646,
          "duration": 0.0651040625000121
        },
        {
          "name": "A6",
          "midi": 93,
          "time": 177.29138299998883,
          "velocity": 0.8661417322834646,
          "duration": 0.0651040625000121
        },
        {
          "name": "F#6",
          "midi": 90,
          "time": 177.36082733332216,
          "velocity": 0.8661417322834646,
          "duration": 0.0651040625000121
        },
        {
          "name": "E6",
          "midi": 88,
          "time": 177.4302716666555,
          "velocity": 0.8661417322834646,
          "duration": 0.0651040625000121
        },
        {
          "name": "A6",
          "midi": 93,
          "time": 177.49971599998884,
          "velocity": 0.8661417322834646,
          "duration": 0.0651040625000121
        },
        {
          "name": "F#6",
          "midi": 90,
          "time": 177.56916033332217,
          "velocity": 0.8661417322834646,
          "duration": 0.0651040625000121
        },
        {
          "name": "E6",
          "midi": 88,
          "time": 177.6386046666555,
          "velocity": 0.8661417322834646,
          "duration": 0.0651040625000121
        },
        {
          "name": "A6",
          "midi": 93,
          "time": 177.70804899998885,
          "velocity": 0.8661417322834646,
          "duration": 0.0651040625000121
        },
        {
          "name": "F#6",
          "midi": 90,
          "time": 177.77749333332218,
          "velocity": 0.8661417322834646,
          "duration": 0.0651040625000121
        },
        {
          "name": "E6",
          "midi": 88,
          "time": 177.84693766665552,
          "velocity": 0.8661417322834646,
          "duration": 0.0651040625000121
        },
        {
          "name": "A6",
          "midi": 93,
          "time": 177.91638199998886,
          "velocity": 0.8661417322834646,
          "duration": 0.0651040625000121
        },
        {
          "name": "F#6",
          "midi": 90,
          "time": 177.9858263333222,
          "velocity": 0.8661417322834646,
          "duration": 0.0651040625000121
        },
        {
          "name": "E6",
          "midi": 88,
          "time": 178.05527066665553,
          "velocity": 0.8661417322834646,
          "duration": 0.0651040625000121
        },
        {
          "name": "A6",
          "midi": 93,
          "time": 178.12471499998887,
          "velocity": 0.8661417322834646,
          "duration": 0.0651040625000121
        },
        {
          "name": "F#6",
          "midi": 90,
          "time": 178.1941593333222,
          "velocity": 0.8661417322834646,
          "duration": 0.0651040625000121
        },
        {
          "name": "E6",
          "midi": 88,
          "time": 178.26360366665554,
          "velocity": 0.8661417322834646,
          "duration": 0.0651040625000121
        },
        {
          "name": "A6",
          "midi": 93,
          "time": 178.33304799998888,
          "velocity": 0.8661417322834646,
          "duration": 0.0651040625000121
        },
        {
          "name": "F#6",
          "midi": 90,
          "time": 178.40249233332221,
          "velocity": 0.8661417322834646,
          "duration": 0.0651040625000121
        },
        {
          "name": "E6",
          "midi": 88,
          "time": 178.47193666665555,
          "velocity": 0.8661417322834646,
          "duration": 0.0651040625000121
        },
        {
          "name": "E6",
          "midi": 88,
          "time": 178.5413809999889,
          "velocity": 0.8661417322834646,
          "duration": 0.0651040625000121
        },
        {
          "name": "C#6",
          "midi": 85,
          "time": 178.61082533332223,
          "velocity": 0.8661417322834646,
          "duration": 0.0651040625000121
        },
        {
          "name": "A6",
          "midi": 93,
          "time": 178.7497139999889,
          "velocity": 0.8661417322834646,
          "duration": 0.047742979166656596
        },
        {
          "name": "F#6",
          "midi": 90,
          "time": 178.80179724998888,
          "velocity": 0.8661417322834646,
          "duration": 0.047742979166656596
        },
        {
          "name": "F#6",
          "midi": 90,
          "time": 178.85388049998886,
          "velocity": 0.8661417322834646,
          "duration": 0.09982622916666628
        },
        {
          "name": "B4",
          "midi": 71,
          "time": 178.95804699998885,
          "velocity": 0.8661417322834646,
          "duration": 0.09982622916666628
        },
        {
          "name": "B4",
          "midi": 71,
          "time": 179.06221349998884,
          "velocity": 0.8661417322834646,
          "duration": 0.09982622916666628
        },
        {
          "name": "A6",
          "midi": 93,
          "time": 179.16637999998883,
          "velocity": 0.8661417322834646,
          "duration": 0.0651040625000121
        },
        {
          "name": "F#6",
          "midi": 90,
          "time": 179.23582433332217,
          "velocity": 0.8661417322834646,
          "duration": 0.0651040625000121
        },
        {
          "name": "E6",
          "midi": 88,
          "time": 179.3052686666555,
          "velocity": 0.8661417322834646,
          "duration": 0.0651040625000121
        },
        {
          "name": "E6",
          "midi": 88,
          "time": 179.37471299998884,
          "velocity": 0.8661417322834646,
          "duration": 0.09982622916666628
        },
        {
          "name": "B4",
          "midi": 71,
          "time": 179.47887949998884,
          "velocity": 0.8661417322834646,
          "duration": 0.09982622916666628
        },
        {
          "name": "A6",
          "midi": 93,
          "time": 179.58304599998883,
          "velocity": 0.8661417322834646,
          "duration": 0.0651040625000121
        },
        {
          "name": "F#6",
          "midi": 90,
          "time": 179.65249033332216,
          "velocity": 0.8661417322834646,
          "duration": 0.0651040625000121
        },
        {
          "name": "E6",
          "midi": 88,
          "time": 179.7219346666555,
          "velocity": 0.8661417322834646,
          "duration": 0.0651040625000121
        },
        {
          "name": "E6",
          "midi": 88,
          "time": 179.79137899998884,
          "velocity": 0.8661417322834646,
          "duration": 0.09982622916666628
        },
        {
          "name": "E5",
          "midi": 76,
          "time": 179.89554549998883,
          "velocity": 0.8661417322834646,
          "duration": 0.09982622916666628
        },
        {
          "name": "A6",
          "midi": 93,
          "time": 179.99971199998882,
          "velocity": 0.8661417322834646,
          "duration": 0.0651040625000121
        },
        {
          "name": "F#6",
          "midi": 90,
          "time": 180.06915633332216,
          "velocity": 0.8661417322834646,
          "duration": 0.0651040625000121
        },
        {
          "name": "E6",
          "midi": 88,
          "time": 180.1386006666555,
          "velocity": 0.8661417322834646,
          "duration": 0.0651040625000121
        },
        {
          "name": "E6",
          "midi": 88,
          "time": 180.20804499998883,
          "velocity": 0.8661417322834646,
          "duration": 0.09982622916666628
        },
        {
          "name": "E5",
          "midi": 76,
          "time": 180.31221149998882,
          "velocity": 0.8661417322834646,
          "duration": 0.09982622916666628
        },
        {
          "name": "A6",
          "midi": 93,
          "time": 180.4163779999888,
          "velocity": 0.8661417322834646,
          "duration": 0.0651040625000121
        },
        {
          "name": "F#6",
          "midi": 90,
          "time": 180.48582233332215,
          "velocity": 0.8661417322834646,
          "duration": 0.0651040625000121
        },
        {
          "name": "E6",
          "midi": 88,
          "time": 180.55526666665548,
          "velocity": 0.8661417322834646,
          "duration": 0.0651040625000121
        },
        {
          "name": "E6",
          "midi": 88,
          "time": 180.62471099998882,
          "velocity": 0.8661417322834646,
          "duration": 0.09982622916666628
        },
        {
          "name": "E5",
          "midi": 76,
          "time": 180.7288774999888,
          "velocity": 0.8661417322834646,
          "duration": 0.09982622916666628
        },
        {
          "name": "A6",
          "midi": 93,
          "time": 180.8330439999888,
          "velocity": 0.8661417322834646,
          "duration": 0.0651040625000121
        },
        {
          "name": "F#6",
          "midi": 90,
          "time": 180.90248833332214,
          "velocity": 0.8661417322834646,
          "duration": 0.0651040625000121
        },
        {
          "name": "E6",
          "midi": 88,
          "time": 180.97193266665548,
          "velocity": 0.8661417322834646,
          "duration": 0.0651040625000121
        },
        {
          "name": "E6",
          "midi": 88,
          "time": 181.0413769999888,
          "velocity": 0.8661417322834646,
          "duration": 0.09982622916666628
        },
        {
          "name": "E5",
          "midi": 76,
          "time": 181.1455434999888,
          "velocity": 0.8661417322834646,
          "duration": 0.09982622916666628
        },
        {
          "name": "A6",
          "midi": 93,
          "time": 181.2497099999888,
          "velocity": 0.8661417322834646,
          "duration": 0.0651040625000121
        },
        {
          "name": "F#6",
          "midi": 90,
          "time": 181.31915433332213,
          "velocity": 0.8661417322834646,
          "duration": 0.13454839583332046
        },
        {
          "name": "E6",
          "midi": 88,
          "time": 181.45804299998878,
          "velocity": 0.8661417322834646,
          "duration": 0.09982622916666628
        },
        {
          "name": "F#6",
          "midi": 90,
          "time": 181.56220949998877,
          "velocity": 0.8661417322834646,
          "duration": 0.09982622916666628
        },
        {
          "name": "A6",
          "midi": 93,
          "time": 181.66637599998876,
          "velocity": 0.8661417322834646,
          "duration": 0.09982622916666628
        },
        {
          "name": "F#6",
          "midi": 90,
          "time": 181.77054249998875,
          "velocity": 0.8661417322834646,
          "duration": 0.09982622916666628
        },
        {
          "name": "E6",
          "midi": 88,
          "time": 181.87470899998874,
          "velocity": 0.8661417322834646,
          "duration": 0.09982622916666628
        },
        {
          "name": "C#6",
          "midi": 85,
          "time": 181.97887549998873,
          "velocity": 0.8661417322834646,
          "duration": 0.09982622916666628
        },
        {
          "name": "B5",
          "midi": 83,
          "time": 182.08304199998872,
          "velocity": 0.8661417322834646,
          "duration": 0.09982622916646733
        },
        {
          "name": "C#6",
          "midi": 85,
          "time": 182.18720849998851,
          "velocity": 0.8661417322834646,
          "duration": 0.09982622916666628
        },
        {
          "name": "E6",
          "midi": 88,
          "time": 182.2913749999885,
          "velocity": 0.8661417322834646,
          "duration": 0.20399272916665723
        },
        {
          "name": "E6",
          "midi": 88,
          "time": 182.4997079999885,
          "velocity": 0.8661417322834646,
          "duration": 0.20399272916645828
        },
        {
          "name": "E6",
          "midi": 88,
          "time": 182.70804099998827,
          "velocity": 0.8661417322834646,
          "duration": 0.20399272916645828
        },
        {
          "name": "E6",
          "midi": 88,
          "time": 182.91637399998805,
          "velocity": 0.8661417322834646,
          "duration": 0.6206587291660526
        },
        {
          "name": "F#5",
          "midi": 78,
          "time": 183.74970599998744,
          "velocity": 0.8661417322834646,
          "duration": 0.5555546666666658
        },
        {
          "name": "A5",
          "midi": 81,
          "time": 183.74970599998744,
          "velocity": 0.8661417322834646,
          "duration": 0.5555546666666658
        },
        {
          "name": "D5",
          "midi": 74,
          "time": 184.37470499998744,
          "velocity": 0.8661417322834646,
          "duration": 0.09982622916666628
        },
        {
          "name": "B4",
          "midi": 71,
          "time": 184.47887149998743,
          "velocity": 0.8661417322834646,
          "duration": 0.5164922291666585
        },
        {
          "name": "D5",
          "midi": 74,
          "time": 184.99970399998742,
          "velocity": 0.8661417322834646,
          "duration": 0.09982622916666628
        },
        {
          "name": "E5",
          "midi": 76,
          "time": 185.1038704999874,
          "velocity": 0.8661417322834646,
          "duration": 0.20399272916645828
        },
        {
          "name": "F#5",
          "midi": 78,
          "time": 185.3122034999872,
          "velocity": 0.8661417322834646,
          "duration": 0.09982622916666628
        },
        {
          "name": "A5",
          "midi": 81,
          "time": 185.41636999998718,
          "velocity": 0.8661417322834646,
          "duration": 0.09982622916666628
        },
        {
          "name": "F#5",
          "midi": 78,
          "time": 185.52053649998717,
          "velocity": 0.8661417322834646,
          "duration": 0.09982622916666628
        },
        {
          "name": "E5",
          "midi": 76,
          "time": 185.62470299998716,
          "velocity": 0.8661417322834646,
          "duration": 0.09982622916666628
        },
        {
          "name": "F#5",
          "midi": 78,
          "time": 185.72886949998716,
          "velocity": 0.8661417322834646,
          "duration": 0.09982622916666628
        },
        {
          "name": "A5",
          "midi": 81,
          "time": 185.83303599998715,
          "velocity": 0.8661417322834646,
          "duration": 0.0651040625000121
        },
        {
          "name": "F#5",
          "midi": 78,
          "time": 185.90248033332048,
          "velocity": 0.8661417322834646,
          "duration": 0.0651040625000121
        },
        {
          "name": "E5",
          "midi": 76,
          "time": 185.97192466665382,
          "velocity": 0.8661417322834646,
          "duration": 0.0651040625000121
        },
        {
          "name": "D5",
          "midi": 74,
          "time": 186.04136899998716,
          "velocity": 0.8661417322834646,
          "duration": 0.09982622916666628
        },
        {
          "name": "E5",
          "midi": 76,
          "time": 186.14553549998715,
          "velocity": 0.8661417322834646,
          "duration": 0.09982622916666628
        },
        {
          "name": "D5",
          "midi": 74,
          "time": 186.24970199998714,
          "velocity": 0.8661417322834646,
          "duration": 0.09982622916666628
        },
        {
          "name": "B4",
          "midi": 71,
          "time": 186.35386849998713,
          "velocity": 0.8661417322834646,
          "duration": 0.09982622916666628
        },
        {
          "name": "D5",
          "midi": 74,
          "time": 186.45803499998712,
          "velocity": 0.8661417322834646,
          "duration": 0.20399272916665723
        },
        {
          "name": "E5",
          "midi": 76,
          "time": 186.6663679999871,
          "velocity": 0.8661417322834646,
          "duration": 0.20399272916665723
        },
        {
          "name": "B5",
          "midi": 83,
          "time": 186.87470099998708,
          "velocity": 0.8661417322834646,
          "duration": 0.09982622916666628
        },
        {
          "name": "C#6",
          "midi": 85,
          "time": 186.97886749998708,
          "velocity": 0.8661417322834646,
          "duration": 0.09982622916666628
        },
        {
          "name": "F#6",
          "midi": 90,
          "time": 187.08303399998707,
          "velocity": 0.8661417322834646,
          "duration": 0.09982622916666628
        },
        {
          "name": "E6",
          "midi": 88,
          "time": 187.18720049998706,
          "velocity": 0.8661417322834646,
          "duration": 0.09982622916666628
        },
        {
          "name": "C#6",
          "midi": 85,
          "time": 187.29136699998705,
          "velocity": 0.8661417322834646,
          "duration": 0.09982622916666628
        },
        {
          "name": "F#6",
          "midi": 90,
          "time": 187.39553349998704,
          "velocity": 0.8661417322834646,
          "duration": 0.03038189583332951
        },
        {
          "name": "A6",
          "midi": 93,
          "time": 187.4302556666537,
          "velocity": 0.8661417322834646,
          "duration": 0.03038189583332951
        },
        {
          "name": "F#6",
          "midi": 90,
          "time": 187.46497783332035,
          "velocity": 0.8661417322834646,
          "duration": 0.03038189583332951
        },
        {
          "name": "E6",
          "midi": 88,
          "time": 187.499699999987,
          "velocity": 0.8661417322834646,
          "duration": 0.09982622916666628
        },
        {
          "name": "C#6",
          "midi": 85,
          "time": 187.603866499987,
          "velocity": 0.8661417322834646,
          "duration": 0.09982622916666628
        },
        {
          "name": "B5",
          "midi": 83,
          "time": 187.70803299998698,
          "velocity": 0.8661417322834646,
          "duration": 0.09982622916646733
        },
        {
          "name": "C#6",
          "midi": 85,
          "time": 187.81219949998678,
          "velocity": 0.8661417322834646,
          "duration": 0.09982622916666628
        },
        {
          "name": "E6",
          "midi": 88,
          "time": 187.91636599998677,
          "velocity": 0.8661417322834646,
          "duration": 0.09982622916666628
        },
        {
          "name": "C#6",
          "midi": 85,
          "time": 188.02053249998676,
          "velocity": 0.8661417322834646,
          "duration": 0.09982622916666628
        },
        {
          "name": "B5",
          "midi": 83,
          "time": 188.12469899998675,
          "velocity": 0.8661417322834646,
          "duration": 0.09982622916666628
        },
        {
          "name": "A5",
          "midi": 81,
          "time": 188.22886549998674,
          "velocity": 0.8661417322834646,
          "duration": 0.09982622916666628
        },
        {
          "name": "A5",
          "midi": 81,
          "time": 188.33303199998673,
          "velocity": 0.8661417322834646,
          "duration": 0.09982622916666628
        },
        {
          "name": "A5",
          "midi": 81,
          "time": 188.43719849998672,
          "velocity": 0.8661417322834646,
          "duration": 0.09982622916666628
        },
        {
          "name": "B5",
          "midi": 83,
          "time": 188.5413649999867,
          "velocity": 0.8661417322834646,
          "duration": 0.3081592291664492
        },
        {
          "name": "B5",
          "midi": 83,
          "time": 188.85386449998649,
          "velocity": 0.8661417322834646,
          "duration": 0.3081592291664492
        },
        {
          "name": "B5",
          "midi": 83,
          "time": 189.16636399998626,
          "velocity": 0.8661417322834646,
          "duration": 0.20399272916645828
        },
        {
          "name": "B5",
          "midi": 83,
          "time": 189.37469699998604,
          "velocity": 0.8661417322834646,
          "duration": 0.20399272916645828
        },
        {
          "name": "B5",
          "midi": 83,
          "time": 189.58302999998583,
          "velocity": 0.8661417322834646,
          "duration": 0.20399272916645828
        },
        {
          "name": "B5",
          "midi": 83,
          "time": 189.7913629999856,
          "velocity": 0.8661417322834646,
          "duration": 0.09982622916666628
        },
        {
          "name": "A5",
          "midi": 81,
          "time": 189.8955294999856,
          "velocity": 0.8661417322834646,
          "duration": 0.09982622916666628
        },
        {
          "name": "D7",
          "midi": 98,
          "time": 189.9996959999856,
          "velocity": 0.8661417322834646,
          "duration": 0.8289917291660629
        },
        {
          "name": "D7",
          "midi": 98,
          "time": 190.83302799998498,
          "velocity": 0.8661417322834646,
          "duration": 0.34722166666625753
        },
        {
          "name": "C#7",
          "midi": 97,
          "time": 191.24969399998457,
          "velocity": 0.8661417322834646,
          "duration": 0.0651040625000121
        },
        {
          "name": "C#7",
          "midi": 97,
          "time": 191.3191383333179,
          "velocity": 0.8661417322834646,
          "duration": 0.0651040625000121
        },
        {
          "name": "B6",
          "midi": 95,
          "time": 191.38858266665125,
          "velocity": 0.8661417322834646,
          "duration": 0.0651040625000121
        },
        {
          "name": "B6",
          "midi": 95,
          "time": 191.45802699998458,
          "velocity": 0.8661417322834646,
          "duration": 0.09982622916666628
        },
        {
          "name": "B6",
          "midi": 95,
          "time": 191.56219349998457,
          "velocity": 0.8661417322834646,
          "duration": 0.09982622916666628
        },
        {
          "name": "D7",
          "midi": 98,
          "time": 191.66635999998456,
          "velocity": 0.8661417322834646,
          "duration": 0.09982622916666628
        },
        {
          "name": "B6",
          "midi": 95,
          "time": 191.77052649998456,
          "velocity": 0.8661417322834646,
          "duration": 0.09982622916666628
        },
        {
          "name": "A6",
          "midi": 93,
          "time": 191.87469299998455,
          "velocity": 0.8661417322834646,
          "duration": 0.09982622916666628
        },
        {
          "name": "F#6",
          "midi": 90,
          "time": 191.97885949998454,
          "velocity": 0.8661417322834646,
          "duration": 0.09982622916666628
        },
        {
          "name": "E6",
          "midi": 88,
          "time": 192.08302599998453,
          "velocity": 0.8661417322834646,
          "duration": 0.09982622916666628
        },
        {
          "name": "F#6",
          "midi": 90,
          "time": 192.18719249998452,
          "velocity": 0.8661417322834646,
          "duration": 0.09982622916666628
        },
        {
          "name": "A6",
          "midi": 93,
          "time": 192.2913589999845,
          "velocity": 0.8661417322834646,
          "duration": 0.09982622916666628
        },
        {
          "name": "F#6",
          "midi": 90,
          "time": 192.3955254999845,
          "velocity": 0.8661417322834646,
          "duration": 0.09982622916666628
        },
        {
          "name": "E6",
          "midi": 88,
          "time": 192.4996919999845,
          "velocity": 0.8661417322834646,
          "duration": 0.09982622916666628
        },
        {
          "name": "D6",
          "midi": 86,
          "time": 192.60385849998448,
          "velocity": 0.8661417322834646,
          "duration": 0.09982622916666628
        },
        {
          "name": "D6",
          "midi": 86,
          "time": 192.70802499998447,
          "velocity": 0.8661417322834646,
          "duration": 0.09982622916666628
        },
        {
          "name": "D6",
          "midi": 86,
          "time": 192.81219149998446,
          "velocity": 0.8661417322834646,
          "duration": 0.09982622916666628
        },
        {
          "name": "E6",
          "midi": 88,
          "time": 192.91635799998446,
          "velocity": 0.8661417322834646,
          "duration": 0.09982622916666628
        },
        {
          "name": "D6",
          "midi": 86,
          "time": 193.02052449998445,
          "velocity": 0.8661417322834646,
          "duration": 0.09982622916666628
        },
        {
          "name": "B5",
          "midi": 83,
          "time": 193.12469099998444,
          "velocity": 0.8661417322834646,
          "duration": 0.09982622916666628
        },
        {
          "name": "A5",
          "midi": 81,
          "time": 193.22885749998443,
          "velocity": 0.8661417322834646,
          "duration": 0.09982622916666628
        },
        {
          "name": "F#5",
          "midi": 78,
          "time": 193.33302399998442,
          "velocity": 0.8661417322834646,
          "duration": 0.09982622916666628
        },
        {
          "name": "A5",
          "midi": 81,
          "time": 193.4371904999844,
          "velocity": 0.8661417322834646,
          "duration": 0.09982622916666628
        },
        {
          "name": "B5",
          "midi": 83,
          "time": 193.5413569999844,
          "velocity": 0.8661417322834646,
          "duration": 0.09982622916666628
        },
        {
          "name": "A5",
          "midi": 81,
          "time": 193.6455234999844,
          "velocity": 0.8661417322834646,
          "duration": 0.09982622916666628
        },
        {
          "name": "F#5",
          "midi": 78,
          "time": 193.74968999998438,
          "velocity": 0.8661417322834646,
          "duration": 0.09982622916666628
        },
        {
          "name": "E5",
          "midi": 76,
          "time": 193.85385649998437,
          "velocity": 0.8661417322834646,
          "duration": 0.09982622916666628
        },
        {
          "name": "D5",
          "midi": 74,
          "time": 193.95802299998437,
          "velocity": 0.8661417322834646,
          "duration": 0.09982622916666628
        },
        {
          "name": "D5",
          "midi": 74,
          "time": 194.06218949998436,
          "velocity": 0.8661417322834646,
          "duration": 0.09982622916666628
        },
        {
          "name": "E5",
          "midi": 76,
          "time": 194.16635599998435,
          "velocity": 0.8661417322834646,
          "duration": 0.09982622916666628
        },
        {
          "name": "D5",
          "midi": 74,
          "time": 194.27052249998434,
          "velocity": 0.8661417322834646,
          "duration": 0.09982622916666628
        },
        {
          "name": "C#5",
          "midi": 73,
          "time": 194.37468899998433,
          "velocity": 0.8661417322834646,
          "duration": 0.09982622916666628
        },
        {
          "name": "D5",
          "midi": 74,
          "time": 194.47885549998432,
          "velocity": 0.8661417322834646,
          "duration": 0.09982622916666628
        },
        {
          "name": "E5",
          "midi": 76,
          "time": 194.5830219999843,
          "velocity": 0.8661417322834646,
          "duration": 0.09982622916666628
        },
        {
          "name": "F#5",
          "midi": 78,
          "time": 194.6871884999843,
          "velocity": 0.8661417322834646,
          "duration": 0.09982622916666628
        },
        {
          "name": "A5",
          "midi": 81,
          "time": 194.7913549999843,
          "velocity": 0.8661417322834646,
          "duration": 0.09982622916666628
        },
        {
          "name": "B5",
          "midi": 83,
          "time": 194.89552149998428,
          "velocity": 0.8661417322834646,
          "duration": 0.09982622916666628
        },
        {
          "name": "D6",
          "midi": 86,
          "time": 194.99968799998427,
          "velocity": 0.8661417322834646,
          "duration": 0.09982622916666628
        },
        {
          "name": "D6",
          "midi": 86,
          "time": 195.10385449998427,
          "velocity": 0.8661417322834646,
          "duration": 0.09982622916666628
        },
        {
          "name": "E6",
          "midi": 88,
          "time": 195.20802099998426,
          "velocity": 0.8661417322834646,
          "duration": 0.09982622916666628
        },
        {
          "name": "D6",
          "midi": 86,
          "time": 195.31218749998425,
          "velocity": 0.8661417322834646,
          "duration": 0.09982622916666628
        },
        {
          "name": "D6",
          "midi": 86,
          "time": 195.41635399998424,
          "velocity": 0.8661417322834646,
          "duration": 0.09982622916666628
        },
        {
          "name": "D6",
          "midi": 86,
          "time": 195.52052049998423,
          "velocity": 0.8661417322834646,
          "duration": 0.09982622916666628
        },
        {
          "name": "E6",
          "midi": 88,
          "time": 195.62468699998422,
          "velocity": 0.8661417322834646,
          "duration": 0.09982622916666628
        },
        {
          "name": "D6",
          "midi": 86,
          "time": 195.7288534999842,
          "velocity": 0.8661417322834646,
          "duration": 0.09982622916666628
        },
        {
          "name": "E6",
          "midi": 88,
          "time": 195.8330199999842,
          "velocity": 0.8661417322834646,
          "duration": 0.09982622916666628
        },
        {
          "name": "D6",
          "midi": 86,
          "time": 195.9371864999842,
          "velocity": 0.8661417322834646,
          "duration": 0.09982622916666628
        },
        {
          "name": "B5",
          "midi": 83,
          "time": 196.04135299998418,
          "velocity": 0.8661417322834646,
          "duration": 0.09982622916666628
        },
        {
          "name": "G#5",
          "midi": 80,
          "time": 196.14551949998418,
          "velocity": 0.8661417322834646,
          "duration": 0.09982622916666628
        },
        {
          "name": "D6",
          "midi": 86,
          "time": 196.14551949998418,
          "velocity": 0.8661417322834646,
          "duration": 0.09982622916666628
        },
        {
          "name": "A5",
          "midi": 81,
          "time": 196.24968599998417,
          "velocity": 0.8661417322834646,
          "duration": 0.09982622916666628
        },
        {
          "name": "D#6",
          "midi": 87,
          "time": 196.24968599998417,
          "velocity": 0.8661417322834646,
          "duration": 0.09982622916666628
        },
        {
          "name": "B5",
          "midi": 83,
          "time": 196.35385249998416,
          "velocity": 0.8661417322834646,
          "duration": 0.09982622916666628
        },
        {
          "name": "D6",
          "midi": 86,
          "time": 196.45801899998415,
          "velocity": 0.8661417322834646,
          "duration": 0.09982622916666628
        },
        {
          "name": "D6",
          "midi": 86,
          "time": 196.56218549998414,
          "velocity": 0.8661417322834646,
          "duration": 0.09982622916666628
        },
        {
          "name": "B5",
          "midi": 83,
          "time": 196.66635199998413,
          "velocity": 0.8661417322834646,
          "duration": 0.09982622916666628
        },
        {
          "name": "G#5",
          "midi": 80,
          "time": 196.77051849998412,
          "velocity": 0.8661417322834646,
          "duration": 0.09982622916666628
        },
        {
          "name": "C6",
          "midi": 84,
          "time": 196.8746849999841,
          "velocity": 0.8661417322834646,
          "duration": 0.09982622916666628
        },
        {
          "name": "D#6",
          "midi": 87,
          "time": 196.9788514999841,
          "velocity": 0.8661417322834646,
          "duration": 0.09982622916666628
        },
        {
          "name": "C6",
          "midi": 84,
          "time": 197.0830179999841,
          "velocity": 0.8661417322834646,
          "duration": 0.09982622916666628
        },
        {
          "name": "C#6",
          "midi": 85,
          "time": 197.18718449998408,
          "velocity": 0.8661417322834646,
          "duration": 0.09982622916666628
        },
        {
          "name": "E6",
          "midi": 88,
          "time": 197.29135099998408,
          "velocity": 0.8661417322834646,
          "duration": 0.09982622916666628
        },
        {
          "name": "C#6",
          "midi": 85,
          "time": 197.39551749998407,
          "velocity": 0.8661417322834646,
          "duration": 0.09982622916666628
        },
        {
          "name": "A#5",
          "midi": 82,
          "time": 197.49968399998406,
          "velocity": 0.8661417322834646,
          "duration": 0.09982622916666628
        },
        {
          "name": "D6",
          "midi": 86,
          "time": 197.60385049998405,
          "velocity": 0.8661417322834646,
          "duration": 0.09982622916666628
        },
        {
          "name": "F6",
          "midi": 89,
          "time": 197.70801699998404,
          "velocity": 0.8661417322834646,
          "duration": 0.09982622916666628
        },
        {
          "name": "D6",
          "midi": 86,
          "time": 197.81218349998403,
          "velocity": 0.8661417322834646,
          "duration": 0.09982622916666628
        },
        {
          "name": "B5",
          "midi": 83,
          "time": 197.91634999998402,
          "velocity": 0.8661417322834646,
          "duration": 0.09982622916666628
        },
        {
          "name": "D#6",
          "midi": 87,
          "time": 198.020516499984,
          "velocity": 0.8661417322834646,
          "duration": 0.09982622916666628
        },
        {
          "name": "F#6",
          "midi": 90,
          "time": 198.124682999984,
          "velocity": 0.8661417322834646,
          "duration": 0.09982622916666628
        },
        {
          "name": "D#6",
          "midi": 87,
          "time": 198.228849499984,
          "velocity": 0.8661417322834646,
          "duration": 0.09982622916666628
        },
        {
          "name": "C6",
          "midi": 84,
          "time": 198.33301599998399,
          "velocity": 0.8661417322834646,
          "duration": 0.09982622916666628
        },
        {
          "name": "E6",
          "midi": 88,
          "time": 198.43718249998398,
          "velocity": 0.8661417322834646,
          "duration": 0.09982622916666628
        },
        {
          "name": "G6",
          "midi": 91,
          "time": 198.54134899998397,
          "velocity": 0.8661417322834646,
          "duration": 0.09982622916666628
        },
        {
          "name": "E6",
          "midi": 88,
          "time": 198.64551549998396,
          "velocity": 0.8661417322834646,
          "duration": 0.09982622916666628
        },
        {
          "name": "C#6",
          "midi": 85,
          "time": 198.74968199998395,
          "velocity": 0.8661417322834646,
          "duration": 0.09982622916666628
        },
        {
          "name": "F6",
          "midi": 89,
          "time": 198.85384849998394,
          "velocity": 0.8661417322834646,
          "duration": 0.09982622916666628
        },
        {
          "name": "G#6",
          "midi": 92,
          "time": 198.95801499998393,
          "velocity": 0.8661417322834646,
          "duration": 0.09982622916666628
        },
        {
          "name": "F6",
          "midi": 89,
          "time": 199.06218149998392,
          "velocity": 0.8661417322834646,
          "duration": 0.09982622916666628
        },
        {
          "name": "C#6",
          "midi": 85,
          "time": 199.1663479999839,
          "velocity": 0.8661417322834646,
          "duration": 0.09982622916666628
        },
        {
          "name": "F6",
          "midi": 89,
          "time": 199.2705144999839,
          "velocity": 0.8661417322834646,
          "duration": 0.09982622916666628
        },
        {
          "name": "G#6",
          "midi": 92,
          "time": 199.3746809999839,
          "velocity": 0.8661417322834646,
          "duration": 0.20399272916665723
        },
        {
          "name": "D6",
          "midi": 86,
          "time": 199.58301399998388,
          "velocity": 0.8661417322834646,
          "duration": 0.09982622916666628
        },
        {
          "name": "F6",
          "midi": 89,
          "time": 199.68718049998387,
          "velocity": 0.8661417322834646,
          "duration": 0.09982622916666628
        },
        {
          "name": "A6",
          "midi": 93,
          "time": 199.79134699998386,
          "velocity": 0.8661417322834646,
          "duration": 0.09982622916666628
        },
        {
          "name": "F#6",
          "midi": 90,
          "time": 199.89551349998385,
          "velocity": 0.8661417322834646,
          "duration": 0.09982622916666628
        },
        {
          "name": "D#6",
          "midi": 87,
          "time": 199.99967999998384,
          "velocity": 0.8661417322834646,
          "duration": 0.09982622916666628
        },
        {
          "name": "G6",
          "midi": 91,
          "time": 200.10384649998383,
          "velocity": 0.8661417322834646,
          "duration": 0.09982622916666628
        },
        {
          "name": "A6",
          "midi": 93,
          "time": 200.20801299998382,
          "velocity": 0.8661417322834646,
          "duration": 0.09982622916666628
        },
        {
          "name": "G#6",
          "midi": 92,
          "time": 200.3121794999838,
          "velocity": 0.8661417322834646,
          "duration": 0.09982622916666628
        },
        {
          "name": "F6",
          "midi": 89,
          "time": 200.4163459999838,
          "velocity": 0.8661417322834646,
          "duration": 0.09982622916666628
        },
        {
          "name": "G#6",
          "midi": 92,
          "time": 200.5205124999838,
          "velocity": 0.8661417322834646,
          "duration": 0.09982622916666628
        },
        {
          "name": "C7",
          "midi": 96,
          "time": 200.6246789999838,
          "velocity": 0.8661417322834646,
          "duration": 0.09982622916666628
        },
        {
          "name": "A6",
          "midi": 93,
          "time": 200.72884549998378,
          "velocity": 0.8661417322834646,
          "duration": 0.09982622916666628
        },
        {
          "name": "G6",
          "midi": 91,
          "time": 200.83301199998377,
          "velocity": 0.8661417322834646,
          "duration": 0.09982622916666628
        },
        {
          "name": "A#6",
          "midi": 94,
          "time": 200.93717849998376,
          "velocity": 0.8661417322834646,
          "duration": 0.09982622916666628
        },
        {
          "name": "C#7",
          "midi": 97,
          "time": 201.04134499998375,
          "velocity": 0.8661417322834646,
          "duration": 0.09982622916666628
        },
        {
          "name": "A#6",
          "midi": 94,
          "time": 201.14551149998374,
          "velocity": 0.8661417322834646,
          "duration": 0.09982622916666628
        },
        {
          "name": "G6",
          "midi": 91,
          "time": 201.24967799998373,
          "velocity": 0.8661417322834646,
          "duration": 0.09982622916666628
        },
        {
          "name": "B6",
          "midi": 95,
          "time": 201.35384449998372,
          "velocity": 0.8661417322834646,
          "duration": 0.09982622916666628
        },
        {
          "name": "D7",
          "midi": 98,
          "time": 201.4580109999837,
          "velocity": 0.8661417322834646,
          "duration": 0.30815922916625027
        },
        {
          "name": "D7",
          "midi": 98,
          "time": 201.7705104999833,
          "velocity": 0.8661417322834646,
          "duration": 0.30815922916625027
        },
        {
          "name": "D7",
          "midi": 98,
          "time": 202.08300999998286,
          "velocity": 0.8661417322834646,
          "duration": 0.8289917291658355
        },
        {
          "name": "E6",
          "midi": 88,
          "time": 202.98578633331536,
          "velocity": 0.8661417322834646,
          "duration": 0.0651040625000121
        },
        {
          "name": "E6",
          "midi": 88,
          "time": 203.0552306666487,
          "velocity": 0.8661417322834646,
          "duration": 0.0651040625000121
        },
        {
          "name": "G6",
          "midi": 91,
          "time": 203.12467499998203,
          "velocity": 0.8661417322834646,
          "duration": 0.09982622916666628
        },
        {
          "name": "E6",
          "midi": 88,
          "time": 203.22884149998202,
          "velocity": 0.8661417322834646,
          "duration": 0.09982622916666628
        },
        {
          "name": "F#6",
          "midi": 90,
          "time": 203.33300799998202,
          "velocity": 0.8661417322834646,
          "duration": 0.09982622916666628
        },
        {
          "name": "E6",
          "midi": 88,
          "time": 203.437174499982,
          "velocity": 0.8661417322834646,
          "duration": 0.09982622916666628
        },
        {
          "name": "B5",
          "midi": 83,
          "time": 203.541340999982,
          "velocity": 0.8661417322834646,
          "duration": 0.09982622916666628
        },
        {
          "name": "E6",
          "midi": 88,
          "time": 203.645507499982,
          "velocity": 0.8661417322834646,
          "duration": 0.09982622916666628
        },
        {
          "name": "A6",
          "midi": 93,
          "time": 203.74967399998198,
          "velocity": 0.8661417322834646,
          "duration": 0.09982622916666628
        },
        {
          "name": "E6",
          "midi": 88,
          "time": 203.85384049998197,
          "velocity": 0.8661417322834646,
          "duration": 0.09982622916666628
        },
        {
          "name": "G6",
          "midi": 91,
          "time": 203.95800699998196,
          "velocity": 0.8661417322834646,
          "duration": 0.09982622916666628
        },
        {
          "name": "E6",
          "midi": 88,
          "time": 204.06217349998195,
          "velocity": 0.8661417322834646,
          "duration": 0.09982622916666628
        },
        {
          "name": "D#6",
          "midi": 87,
          "time": 204.16633999998194,
          "velocity": 0.8661417322834646,
          "duration": 0.09982622916666628
        },
        {
          "name": "E6",
          "midi": 88,
          "time": 204.27050649998193,
          "velocity": 0.8661417322834646,
          "duration": 0.09982622916666628
        },
        {
          "name": "D#6",
          "midi": 87,
          "time": 204.37467299998193,
          "velocity": 0.8661417322834646,
          "duration": 0.09982622916666628
        },
        {
          "name": "E6",
          "midi": 88,
          "time": 204.47883949998192,
          "velocity": 0.8661417322834646,
          "duration": 0.09982622916666628
        },
        {
          "name": "A6",
          "midi": 93,
          "time": 204.5830059999819,
          "velocity": 0.8661417322834646,
          "duration": 0.09982622916666628
        },
        {
          "name": "E6",
          "midi": 88,
          "time": 204.6871724999819,
          "velocity": 0.8661417322834646,
          "duration": 0.09982622916666628
        },
        {
          "name": "G6",
          "midi": 91,
          "time": 204.7913389999819,
          "velocity": 0.8661417322834646,
          "duration": 0.09982622916666628
        },
        {
          "name": "E6",
          "midi": 88,
          "time": 204.89550549998188,
          "velocity": 0.8661417322834646,
          "duration": 0.09982622916666628
        },
        {
          "name": "F#6",
          "midi": 90,
          "time": 204.99967199998187,
          "velocity": 0.8661417322834646,
          "duration": 0.09982622916666628
        },
        {
          "name": "E6",
          "midi": 88,
          "time": 205.10383849998186,
          "velocity": 0.8661417322834646,
          "duration": 0.09982622916666628
        },
        {
          "name": "D#6",
          "midi": 87,
          "time": 205.20800499998185,
          "velocity": 0.8661417322834646,
          "duration": 0.09982622916666628
        },
        {
          "name": "E6",
          "midi": 88,
          "time": 205.31217149998184,
          "velocity": 0.8661417322834646,
          "duration": 0.09982622916666628
        },
        {
          "name": "A6",
          "midi": 93,
          "time": 205.41633799998183,
          "velocity": 0.8661417322834646,
          "duration": 0.09982622916666628
        },
        {
          "name": "E6",
          "midi": 88,
          "time": 205.52050449998183,
          "velocity": 0.8661417322834646,
          "duration": 0.09982622916666628
        },
        {
          "name": "G6",
          "midi": 91,
          "time": 205.62467099998182,
          "velocity": 0.8661417322834646,
          "duration": 0.09982622916666628
        },
        {
          "name": "E6",
          "midi": 88,
          "time": 205.7288374999818,
          "velocity": 0.8661417322834646,
          "duration": 0.09982622916666628
        },
        {
          "name": "F#6",
          "midi": 90,
          "time": 205.8330039999818,
          "velocity": 0.8661417322834646,
          "duration": 0.09982622916666628
        },
        {
          "name": "E6",
          "midi": 88,
          "time": 205.9371704999818,
          "velocity": 0.8661417322834646,
          "duration": 0.09982622916666628
        },
        {
          "name": "E6",
          "midi": 88,
          "time": 206.04133699998178,
          "velocity": 0.8661417322834646,
          "duration": 0.09982622916666628
        },
        {
          "name": "E6",
          "midi": 88,
          "time": 206.14550349998177,
          "velocity": 0.8661417322834646,
          "duration": 0.09982622916666628
        },
        {
          "name": "A6",
          "midi": 93,
          "time": 206.24966999998176,
          "velocity": 0.8661417322834646,
          "duration": 0.09982622916666628
        },
        {
          "name": "E6",
          "midi": 88,
          "time": 206.35383649998175,
          "velocity": 0.8661417322834646,
          "duration": 0.09982622916666628
        },
        {
          "name": "G6",
          "midi": 91,
          "time": 206.45800299998174,
          "velocity": 0.8661417322834646,
          "duration": 0.09982622916666628
        },
        {
          "name": "E6",
          "midi": 88,
          "time": 206.56216949998174,
          "velocity": 0.8661417322834646,
          "duration": 0.09982622916666628
        },
        {
          "name": "F#6",
          "midi": 90,
          "time": 206.66633599998173,
          "velocity": 0.8661417322834646,
          "duration": 0.09982622916666628
        },
        {
          "name": "E6",
          "midi": 88,
          "time": 206.77050249998172,
          "velocity": 0.8661417322834646,
          "duration": 0.09982622916666628
        },
        {
          "name": "D#6",
          "midi": 87,
          "time": 206.8746689999817,
          "velocity": 0.8661417322834646,
          "duration": 0.09982622916666628
        },
        {
          "name": "E6",
          "midi": 88,
          "time": 206.9788354999817,
          "velocity": 0.8661417322834646,
          "duration": 0.09982622916666628
        },
        {
          "name": "A6",
          "midi": 93,
          "time": 207.0830019999817,
          "velocity": 0.8661417322834646,
          "duration": 0.09982622916666628
        },
        {
          "name": "E6",
          "midi": 88,
          "time": 207.18716849998168,
          "velocity": 0.8661417322834646,
          "duration": 0.09982622916666628
        },
        {
          "name": "G6",
          "midi": 91,
          "time": 207.29133499998167,
          "velocity": 0.8661417322834646,
          "duration": 0.09982622916666628
        },
        {
          "name": "E6",
          "midi": 88,
          "time": 207.39550149998166,
          "velocity": 0.8661417322834646,
          "duration": 0.09982622916666628
        },
        {
          "name": "F#6",
          "midi": 90,
          "time": 207.49966799998165,
          "velocity": 0.8661417322834646,
          "duration": 0.09982622916666628
        },
        {
          "name": "E6",
          "midi": 88,
          "time": 207.60383449998164,
          "velocity": 0.8661417322834646,
          "duration": 0.09982622916666628
        },
        {
          "name": "E6",
          "midi": 88,
          "time": 207.70800099998164,
          "velocity": 0.8661417322834646,
          "duration": 0.09982622916666628
        },
        {
          "name": "E6",
          "midi": 88,
          "time": 207.81216749998163,
          "velocity": 0.8661417322834646,
          "duration": 0.09982622916666628
        },
        {
          "name": "C7",
          "midi": 96,
          "time": 207.91633399998162,
          "velocity": 0.8661417322834646,
          "duration": 0.7291654999995956
        },
        {
          "name": "C7",
          "midi": 96,
          "time": 208.7496659999812,
          "velocity": 0.8661417322834646,
          "duration": 0.5555546666666658
        },
        {
          "name": "C7",
          "midi": 96,
          "time": 209.3746649999812,
          "velocity": 0.8661417322834646,
          "duration": 0.09982622916666628
        },
        {
          "name": "A6",
          "midi": 93,
          "time": 209.4788314999812,
          "velocity": 0.8661417322834646,
          "duration": 0.09982622916666628
        },
        {
          "name": "A6",
          "midi": 93,
          "time": 209.5829979999812,
          "velocity": 0.8661417322834646,
          "duration": 0.09982622916666628
        },
        {
          "name": "A6",
          "midi": 93,
          "time": 209.68716449998118,
          "velocity": 0.8661417322834646,
          "duration": 0.09982622916666628
        },
        {
          "name": "C7",
          "midi": 96,
          "time": 209.79133099998117,
          "velocity": 0.8661417322834646,
          "duration": 0.09982622916666628
        },
        {
          "name": "A6",
          "midi": 93,
          "time": 209.89549749998116,
          "velocity": 0.8661417322834646,
          "duration": 0.09982622916666628
        },
        {
          "name": "G6",
          "midi": 91,
          "time": 209.99966399998115,
          "velocity": 0.8661417322834646,
          "duration": 0.09982622916666628
        },
        {
          "name": "E6",
          "midi": 88,
          "time": 210.10383049998114,
          "velocity": 0.8661417322834646,
          "duration": 0.09982622916666628
        },
        {
          "name": "E6",
          "midi": 88,
          "time": 210.20799699998113,
          "velocity": 0.8661417322834646,
          "duration": 0.09982622916666628
        },
        {
          "name": "E6",
          "midi": 88,
          "time": 210.31216349998112,
          "velocity": 0.8661417322834646,
          "duration": 0.09982622916666628
        },
        {
          "name": "G6",
          "midi": 91,
          "time": 210.41632999998112,
          "velocity": 0.8661417322834646,
          "duration": 0.09982622916666628
        },
        {
          "name": "E6",
          "midi": 88,
          "time": 210.5204964999811,
          "velocity": 0.8661417322834646,
          "duration": 0.09982622916666628
        },
        {
          "name": "D6",
          "midi": 86,
          "time": 210.6246629999811,
          "velocity": 0.8661417322834646,
          "duration": 0.09982622916666628
        },
        {
          "name": "C6",
          "midi": 84,
          "time": 210.7288294999811,
          "velocity": 0.8661417322834646,
          "duration": 0.09982622916666628
        },
        {
          "name": "A5",
          "midi": 81,
          "time": 210.83299599998108,
          "velocity": 0.8661417322834646,
          "duration": 0.09982622916666628
        },
        {
          "name": "D6",
          "midi": 86,
          "time": 210.93716249998107,
          "velocity": 0.8661417322834646,
          "duration": 0.09982622916666628
        },
        {
          "name": "C6",
          "midi": 84,
          "time": 211.04132899998106,
          "velocity": 0.8661417322834646,
          "duration": 0.09982622916666628
        },
        {
          "name": "C6",
          "midi": 84,
          "time": 211.14549549998105,
          "velocity": 0.8661417322834646,
          "duration": 0.09982622916666628
        },
        {
          "name": "C6",
          "midi": 84,
          "time": 211.24966199998104,
          "velocity": 0.8661417322834646,
          "duration": 0.0651040625000121
        },
        {
          "name": "D6",
          "midi": 86,
          "time": 211.31910633331438,
          "velocity": 0.8661417322834646,
          "duration": 0.0651040625000121
        },
        {
          "name": "C6",
          "midi": 84,
          "time": 211.38855066664772,
          "velocity": 0.8661417322834646,
          "duration": 0.0651040625000121
        },
        {
          "name": "A5",
          "midi": 81,
          "time": 211.45799499998105,
          "velocity": 0.8661417322834646,
          "duration": 0.09982622916666628
        },
        {
          "name": "G5",
          "midi": 79,
          "time": 211.56216149998104,
          "velocity": 0.8661417322834646,
          "duration": 0.09982622916666628
        },
        {
          "name": "E5",
          "midi": 76,
          "time": 211.66632799998104,
          "velocity": 0.8661417322834646,
          "duration": 0.09982622916666628
        },
        {
          "name": "G5",
          "midi": 79,
          "time": 211.77049449998103,
          "velocity": 0.8661417322834646,
          "duration": 0.09982622916666628
        },
        {
          "name": "A5",
          "midi": 81,
          "time": 211.87466099998102,
          "velocity": 0.8661417322834646,
          "duration": 0.09982622916666628
        },
        {
          "name": "G5",
          "midi": 79,
          "time": 211.978827499981,
          "velocity": 0.8661417322834646,
          "duration": 0.09982622916666628
        },
        {
          "name": "E5",
          "midi": 76,
          "time": 212.082993999981,
          "velocity": 0.8661417322834646,
          "duration": 0.09982622916666628
        },
        {
          "name": "D5",
          "midi": 74,
          "time": 212.187160499981,
          "velocity": 0.8661417322834646,
          "duration": 0.09982622916666628
        },
        {
          "name": "C5",
          "midi": 72,
          "time": 212.29132699998098,
          "velocity": 0.8661417322834646,
          "duration": 0.09982622916666628
        },
        {
          "name": "A4",
          "midi": 69,
          "time": 212.39549349998097,
          "velocity": 0.8661417322834646,
          "duration": 0.09982622916666628
        },
        {
          "name": "A4",
          "midi": 69,
          "time": 212.49965999998096,
          "velocity": 0.8661417322834646,
          "duration": 0.20399272916665723
        },
        {
          "name": "G4",
          "midi": 67,
          "time": 212.70799299998095,
          "velocity": 0.8661417322834646,
          "duration": 0.09982622916666628
        },
        {
          "name": "A4",
          "midi": 69,
          "time": 212.81215949998094,
          "velocity": 0.8661417322834646,
          "duration": 0.09982622916666628
        },
        {
          "name": "C5",
          "midi": 72,
          "time": 212.91632599998093,
          "velocity": 0.8661417322834646,
          "duration": 0.09982622916666628
        },
        {
          "name": "D5",
          "midi": 74,
          "time": 213.02049249998092,
          "velocity": 0.8661417322834646,
          "duration": 0.09982622916666628
        },
        {
          "name": "E5",
          "midi": 76,
          "time": 213.1246589999809,
          "velocity": 0.8661417322834646,
          "duration": 0.20399272916665723
        },
        {
          "name": "G5",
          "midi": 79,
          "time": 213.3329919999809,
          "velocity": 0.8661417322834646,
          "duration": 0.09982622916666628
        },
        {
          "name": "G5",
          "midi": 79,
          "time": 213.43715849998088,
          "velocity": 0.8661417322834646,
          "duration": 0.09982622916666628
        },
        {
          "name": "A5",
          "midi": 81,
          "time": 213.54132499998087,
          "velocity": 0.8661417322834646,
          "duration": 0.09982622916666628
        },
        {
          "name": "G5",
          "midi": 79,
          "time": 213.64549149998086,
          "velocity": 0.8661417322834646,
          "duration": 0.09982622916666628
        },
        {
          "name": "E5",
          "midi": 76,
          "time": 213.74965799998085,
          "velocity": 0.8661417322834646,
          "duration": 0.09982622916666628
        },
        {
          "name": "G5",
          "midi": 79,
          "time": 213.85382449998085,
          "velocity": 0.8661417322834646,
          "duration": 0.09982622916666628
        },
        {
          "name": "A5",
          "midi": 81,
          "time": 213.95799099998084,
          "velocity": 0.8661417322834646,
          "duration": 0.09982622916666628
        },
        {
          "name": "C6",
          "midi": 84,
          "time": 214.06215749998083,
          "velocity": 0.8661417322834646,
          "duration": 0.09982622916666628
        },
        {
          "name": "D6",
          "midi": 86,
          "time": 214.16632399998082,
          "velocity": 0.8661417322834646,
          "duration": 0.09982622916666628
        },
        {
          "name": "E6",
          "midi": 88,
          "time": 214.2704904999808,
          "velocity": 0.8661417322834646,
          "duration": 0.09982622916666628
        },
        {
          "name": "G6",
          "midi": 91,
          "time": 214.3746569999808,
          "velocity": 0.8661417322834646,
          "duration": 0.0651040625000121
        },
        {
          "name": "E6",
          "midi": 88,
          "time": 214.44410133331414,
          "velocity": 0.8661417322834646,
          "duration": 0.0651040625000121
        },
        {
          "name": "D#6",
          "midi": 87,
          "time": 214.51354566664747,
          "velocity": 0.8661417322834646,
          "duration": 0.0651040625000121
        },
        {
          "name": "G6",
          "midi": 91,
          "time": 214.5829899999808,
          "velocity": 0.8661417322834646,
          "duration": 0.0651040625000121
        },
        {
          "name": "E6",
          "midi": 88,
          "time": 214.65243433331415,
          "velocity": 0.8661417322834646,
          "duration": 0.0651040625000121
        },
        {
          "name": "G6",
          "midi": 91,
          "time": 214.72187866664748,
          "velocity": 0.8661417322834646,
          "duration": 0.0651040625000121
        },
        {
          "name": "E6",
          "midi": 88,
          "time": 214.79132299998082,
          "velocity": 0.8661417322834646,
          "duration": 0.0651040625000121
        },
        {
          "name": "C7",
          "midi": 96,
          "time": 214.86076733331416,
          "velocity": 0.8661417322834646,
          "duration": 0.0651040625000121
        },
        {
          "name": "A6",
          "midi": 93,
          "time": 214.9302116666475,
          "velocity": 0.8661417322834646,
          "duration": 0.0651040625000121
        },
        {
          "name": "G6",
          "midi": 91,
          "time": 214.99965599998083,
          "velocity": 0.8661417322834646,
          "duration": 0.09982622916666628
        },
        {
          "name": "E6",
          "midi": 88,
          "time": 215.10382249998082,
          "velocity": 0.8661417322834646,
          "duration": 0.047742979166656596
        },
        {
          "name": "E6",
          "midi": 88,
          "time": 215.1559057499808,
          "velocity": 0.8661417322834646,
          "duration": 0.047742979166656596
        },
        {
          "name": "E6",
          "midi": 88,
          "time": 215.20798899998078,
          "velocity": 0.8661417322834646,
          "duration": 0.09982622916666628
        },
        {
          "name": "E6",
          "midi": 88,
          "time": 215.31215549998078,
          "velocity": 0.8661417322834646,
          "duration": 0.09982622916666628
        },
        {
          "name": "G6",
          "midi": 91,
          "time": 215.41632199998077,
          "velocity": 0.8661417322834646,
          "duration": 0.09982622916666628
        },
        {
          "name": "E6",
          "midi": 88,
          "time": 215.52048849998076,
          "velocity": 0.8661417322834646,
          "duration": 0.09982622916666628
        },
        {
          "name": "D#6",
          "midi": 87,
          "time": 215.62465499998075,
          "velocity": 0.8661417322834646,
          "duration": 0.09982622916666628
        },
        {
          "name": "E6",
          "midi": 88,
          "time": 215.72882149998074,
          "velocity": 0.8661417322834646,
          "duration": 0.09982622916666628
        },
        {
          "name": "G6",
          "midi": 91,
          "time": 215.83298799998073,
          "velocity": 0.8661417322834646,
          "duration": 0.0651040625000121
        },
        {
          "name": "E6",
          "midi": 88,
          "time": 215.90243233331407,
          "velocity": 0.8661417322834646,
          "duration": 0.0651040625000121
        },
        {
          "name": "D6",
          "midi": 86,
          "time": 215.9718766666474,
          "velocity": 0.8661417322834646,
          "duration": 0.0651040625000121
        },
        {
          "name": "C6",
          "midi": 84,
          "time": 216.04132099998074,
          "velocity": 0.8661417322834646,
          "duration": 0.0651040625000121
        },
        {
          "name": "C6",
          "midi": 84,
          "time": 216.11076533331408,
          "velocity": 0.8661417322834646,
          "duration": 0.0651040625000121
        },
        {
          "name": "C6",
          "midi": 84,
          "time": 216.18020966664741,
          "velocity": 0.8661417322834646,
          "duration": 0.0651040625000121
        },
        {
          "name": "D6",
          "midi": 86,
          "time": 216.24965399998075,
          "velocity": 0.8661417322834646,
          "duration": 0.09982622916666628
        },
        {
          "name": "C6",
          "midi": 84,
          "time": 216.35382049998074,
          "velocity": 0.8661417322834646,
          "duration": 0.09982622916666628
        },
        {
          "name": "A5",
          "midi": 81,
          "time": 216.45798699998073,
          "velocity": 0.8661417322834646,
          "duration": 0.09982622916666628
        },
        {
          "name": "C6",
          "midi": 84,
          "time": 216.56215349998072,
          "velocity": 0.8661417322834646,
          "duration": 0.09982622916666628
        },
        {
          "name": "D6",
          "midi": 86,
          "time": 216.66631999998071,
          "velocity": 0.8661417322834646,
          "duration": 0.09982622916666628
        },
        {
          "name": "C6",
          "midi": 84,
          "time": 216.7704864999807,
          "velocity": 0.8661417322834646,
          "duration": 0.09982622916666628
        },
        {
          "name": "D6",
          "midi": 86,
          "time": 216.8746529999807,
          "velocity": 0.8661417322834646,
          "duration": 0.09982622916666628
        },
        {
          "name": "E6",
          "midi": 88,
          "time": 216.9788194999807,
          "velocity": 0.8661417322834646,
          "duration": 0.09982622916666628
        },
        {
          "name": "G6",
          "midi": 91,
          "time": 217.08298599998068,
          "velocity": 0.8661417322834646,
          "duration": 0.09982622916666628
        },
        {
          "name": "E6",
          "midi": 88,
          "time": 217.18715249998067,
          "velocity": 0.8661417322834646,
          "duration": 0.09982622916666628
        },
        {
          "name": "C7",
          "midi": 96,
          "time": 217.29131899998066,
          "velocity": 0.8661417322834646,
          "duration": 0.0651040625000121
        },
        {
          "name": "A6",
          "midi": 93,
          "time": 217.360763333314,
          "velocity": 0.8661417322834646,
          "duration": 0.0651040625000121
        },
        {
          "name": "G6",
          "midi": 91,
          "time": 217.43020766664733,
          "velocity": 0.8661417322834646,
          "duration": 0.0651040625000121
        },
        {
          "name": "E6",
          "midi": 88,
          "time": 217.49965199998067,
          "velocity": 0.8661417322834646,
          "duration": 0.0651040625000121
        },
        {
          "name": "E6",
          "midi": 88,
          "time": 217.569096333314,
          "velocity": 0.8661417322834646,
          "duration": 0.0651040625000121
        },
        {
          "name": "E6",
          "midi": 88,
          "time": 217.63854066664734,
          "velocity": 0.8661417322834646,
          "duration": 0.0651040625000121
        },
        {
          "name": "G6",
          "midi": 91,
          "time": 217.70798499998068,
          "velocity": 0.8661417322834646,
          "duration": 0.09982622916666628
        },
        {
          "name": "E6",
          "midi": 88,
          "time": 217.81215149998067,
          "velocity": 0.8661417322834646,
          "duration": 0.047742979166656596
        },
        {
          "name": "E6",
          "midi": 88,
          "time": 217.86423474998065,
          "velocity": 0.8661417322834646,
          "duration": 0.047742979166656596
        },
        {
          "name": "D6",
          "midi": 86,
          "time": 217.91631799998063,
          "velocity": 0.8661417322834646,
          "duration": 0.09982622916666628
        },
        {
          "name": "C6",
          "midi": 84,
          "time": 218.02048449998063,
          "velocity": 0.8661417322834646,
          "duration": 0.09982622916666628
        },
        {
          "name": "C6",
          "midi": 84,
          "time": 218.12465099998062,
          "velocity": 0.8661417322834646,
          "duration": 0.09982622916666628
        },
        {
          "name": "C6",
          "midi": 84,
          "time": 218.2288174999806,
          "velocity": 0.8661417322834646,
          "duration": 0.09982622916666628
        },
        {
          "name": "D6",
          "midi": 86,
          "time": 218.3329839999806,
          "velocity": 0.8661417322834646,
          "duration": 0.09982622916666628
        },
        {
          "name": "C6",
          "midi": 84,
          "time": 218.4371504999806,
          "velocity": 0.8661417322834646,
          "duration": 0.09982622916666628
        },
        {
          "name": "C6",
          "midi": 84,
          "time": 218.54131699998058,
          "velocity": 0.8661417322834646,
          "duration": 0.09982622916666628
        },
        {
          "name": "C6",
          "midi": 84,
          "time": 218.64548349998057,
          "velocity": 0.8661417322834646,
          "duration": 0.09982622916666628
        },
        {
          "name": "D6",
          "midi": 86,
          "time": 218.74964999998056,
          "velocity": 0.8661417322834646,
          "duration": 0.34722166666625753
        },
        {
          "name": "D6",
          "midi": 86,
          "time": 219.16631599998016,
          "velocity": 0.8661417322834646,
          "duration": 0.34722166666625753
        },
        {
          "name": "D6",
          "midi": 86,
          "time": 219.58298199997975,
          "velocity": 0.8661417322834646,
          "duration": 0.34722166666625753
        },
        {
          "name": "D6",
          "midi": 86,
          "time": 219.99964799997935,
          "velocity": 0.8661417322834646,
          "duration": 0.34722166666625753
        },
        {
          "name": "D6",
          "midi": 86,
          "time": 220.41631399997894,
          "velocity": 0.8661417322834646,
          "duration": 0.34722166666625753
        },
        {
          "name": "D6",
          "midi": 86,
          "time": 220.83297999997853,
          "velocity": 0.8661417322834646,
          "duration": 0.34722166666625753
        },
        {
          "name": "D6",
          "midi": 86,
          "time": 221.24964599997813,
          "velocity": 0.8661417322834646,
          "duration": 0.34722166666625753
        },
        {
          "name": "D6",
          "midi": 86,
          "time": 221.66631199997772,
          "velocity": 0.8661417322834646,
          "duration": 0.34722166666625753
        },
        {
          "name": "D6",
          "midi": 86,
          "time": 222.08297799997732,
          "velocity": 0.8661417322834646,
          "duration": 1.5624975000000063
        },
        {
          "name": "D6",
          "midi": 86,
          "time": 225.4163059999773,
          "velocity": 0.8661417322834646,
          "duration": 0.34722166666625753
        },
        {
          "name": "D6",
          "midi": 86,
          "time": 225.8329719999769,
          "velocity": 0.8661417322834646,
          "duration": 0.34722166666625753
        }
      ],
      "controlChanges": {
        "7": [
          {
            "number": 7,
            "time": 0,
            "value": 0.3937007874015748
          }
        ],
        "10": [
          {
            "number": 10,
            "time": 0,
            "value": 0
          }
        ]
      },
      "id": 2,
      "name": "Guitar 1",
      "instrumentNumber": 30,
      "instrument": "distortion guitar",
      "instrumentFamily": "guitar",
      "channelNumber": 1,
      "isPercussion": false
    },
    {
      "startTime": 0,
      "duration": 226.18019366666593,
      "length": 1325,
      "notes": [
        {
          "name": "E2",
          "midi": 40,
          "time": 0,
          "velocity": 0.8661417322834646,
          "duration": 2.3958295
        },
        {
          "name": "B2",
          "midi": 47,
          "time": 0,
          "velocity": 0.8661417322834646,
          "duration": 2.3958295
        },
        {
          "name": "E3",
          "midi": 52,
          "time": 0,
          "velocity": 0.8661417322834646,
          "duration": 2.3958295
        },
        {
          "name": "E2",
          "midi": 40,
          "time": 2.499996,
          "velocity": 0.8661417322834646,
          "duration": 0.34722166666666654
        },
        {
          "name": "B2",
          "midi": 47,
          "time": 2.499996,
          "velocity": 0.8661417322834646,
          "duration": 0.34722166666666654
        },
        {
          "name": "E3",
          "midi": 52,
          "time": 2.499996,
          "velocity": 0.8661417322834646,
          "duration": 0.34722166666666654
        },
        {
          "name": "E2",
          "midi": 40,
          "time": 2.9166619999999996,
          "velocity": 0.8661417322834646,
          "duration": 0.34722166666666654
        },
        {
          "name": "B2",
          "midi": 47,
          "time": 2.9166619999999996,
          "velocity": 0.8661417322834646,
          "duration": 0.34722166666666654
        },
        {
          "name": "E3",
          "midi": 52,
          "time": 2.9166619999999996,
          "velocity": 0.8661417322834646,
          "duration": 0.34722166666666654
        },
        {
          "name": "E2",
          "midi": 40,
          "time": 3.3333279999999994,
          "velocity": 0.8661417322834646,
          "duration": 0.34722166666666654
        },
        {
          "name": "B2",
          "midi": 47,
          "time": 3.3333279999999994,
          "velocity": 0.8661417322834646,
          "duration": 0.34722166666666654
        },
        {
          "name": "E3",
          "midi": 52,
          "time": 3.3333279999999994,
          "velocity": 0.8661417322834646,
          "duration": 0.34722166666666654
        },
        {
          "name": "E2",
          "midi": 40,
          "time": 3.749993999999999,
          "velocity": 0.8661417322834646,
          "duration": 0.347221666666667
        },
        {
          "name": "B2",
          "midi": 47,
          "time": 3.749993999999999,
          "velocity": 0.8661417322834646,
          "duration": 0.347221666666667
        },
        {
          "name": "E3",
          "midi": 52,
          "time": 3.749993999999999,
          "velocity": 0.8661417322834646,
          "duration": 0.347221666666667
        },
        {
          "name": "E2",
          "midi": 40,
          "time": 4.166659999999999,
          "velocity": 0.8661417322834646,
          "duration": 0.347221666666667
        },
        {
          "name": "B2",
          "midi": 47,
          "time": 4.166659999999999,
          "velocity": 0.8661417322834646,
          "duration": 0.347221666666667
        },
        {
          "name": "E3",
          "midi": 52,
          "time": 4.166659999999999,
          "velocity": 0.8661417322834646,
          "duration": 0.347221666666667
        },
        {
          "name": "E2",
          "midi": 40,
          "time": 4.583326,
          "velocity": 0.8661417322834646,
          "duration": 0.347221666666667
        },
        {
          "name": "B2",
          "midi": 47,
          "time": 4.583326,
          "velocity": 0.8661417322834646,
          "duration": 0.347221666666667
        },
        {
          "name": "E3",
          "midi": 52,
          "time": 4.583326,
          "velocity": 0.8661417322834646,
          "duration": 0.347221666666667
        },
        {
          "name": "E2",
          "midi": 40,
          "time": 4.999992,
          "velocity": 0.8661417322834646,
          "duration": 2.3958295000000005
        },
        {
          "name": "B2",
          "midi": 47,
          "time": 4.999992,
          "velocity": 0.8661417322834646,
          "duration": 2.3958295000000005
        },
        {
          "name": "E3",
          "midi": 52,
          "time": 4.999992,
          "velocity": 0.8661417322834646,
          "duration": 2.3958295000000005
        },
        {
          "name": "F#2",
          "midi": 42,
          "time": 7.499988,
          "velocity": 0.8661417322834646,
          "duration": 4.895825499999999
        },
        {
          "name": "C#3",
          "midi": 49,
          "time": 7.499988,
          "velocity": 0.8661417322834646,
          "duration": 4.895825499999999
        },
        {
          "name": "A2",
          "midi": 45,
          "time": 19.166635999999997,
          "velocity": 0.8661417322834646,
          "duration": 0.20399272916666789
        },
        {
          "name": "G3",
          "midi": 55,
          "time": 19.166635999999997,
          "velocity": 0.8661417322834646,
          "duration": 0.20399272916666789
        },
        {
          "name": "A2",
          "midi": 45,
          "time": 19.374968999999997,
          "velocity": 0.8661417322834646,
          "duration": 0.09982622916666628
        },
        {
          "name": "A2",
          "midi": 45,
          "time": 19.479135499999995,
          "velocity": 0.8661417322834646,
          "duration": 0.09982622916666628
        },
        {
          "name": "A2",
          "midi": 45,
          "time": 19.583301999999993,
          "velocity": 0.8661417322834646,
          "duration": 0.09982622916666628
        },
        {
          "name": "A2",
          "midi": 45,
          "time": 19.68746849999999,
          "velocity": 0.8661417322834646,
          "duration": 0.09982622916666628
        },
        {
          "name": "A2",
          "midi": 45,
          "time": 19.79163499999999,
          "velocity": 0.8661417322834646,
          "duration": 0.09982622916666628
        },
        {
          "name": "A2",
          "midi": 45,
          "time": 19.895801499999987,
          "velocity": 0.8661417322834646,
          "duration": 0.09982622916666628
        },
        {
          "name": "G3",
          "midi": 55,
          "time": 19.999967999999985,
          "velocity": 0.8661417322834646,
          "duration": 0.20399272916666789
        },
        {
          "name": "C4",
          "midi": 60,
          "time": 19.999967999999985,
          "velocity": 0.8661417322834646,
          "duration": 0.20399272916666789
        },
        {
          "name": "A3",
          "midi": 57,
          "time": 20.208300999999985,
          "velocity": 0.8661417322834646,
          "duration": 0.09982622916666628
        },
        {
          "name": "D4",
          "midi": 62,
          "time": 20.208300999999985,
          "velocity": 0.8661417322834646,
          "duration": 0.09982622916666628
        },
        {
          "name": "A3",
          "midi": 57,
          "time": 20.312467499999983,
          "velocity": 0.8661417322834646,
          "duration": 0.30815922916666594
        },
        {
          "name": "D4",
          "midi": 62,
          "time": 20.312467499999983,
          "velocity": 0.8661417322834646,
          "duration": 0.30815922916666594
        },
        {
          "name": "D3",
          "midi": 50,
          "time": 20.62496699999998,
          "velocity": 0.8661417322834646,
          "duration": 0.20399272916666789
        },
        {
          "name": "G3",
          "midi": 55,
          "time": 20.62496699999998,
          "velocity": 0.8661417322834646,
          "duration": 0.20399272916666789
        },
        {
          "name": "A2",
          "midi": 45,
          "time": 20.83329999999998,
          "velocity": 0.8661417322834646,
          "duration": 0.20399272916666789
        },
        {
          "name": "G3",
          "midi": 55,
          "time": 20.83329999999998,
          "velocity": 0.8661417322834646,
          "duration": 0.20399272916666789
        },
        {
          "name": "A2",
          "midi": 45,
          "time": 21.04163299999998,
          "velocity": 0.8661417322834646,
          "duration": 0.09982622916666628
        },
        {
          "name": "A2",
          "midi": 45,
          "time": 21.145799499999978,
          "velocity": 0.8661417322834646,
          "duration": 0.09982622916666628
        },
        {
          "name": "A2",
          "midi": 45,
          "time": 21.249965999999976,
          "velocity": 0.8661417322834646,
          "duration": 0.09982622916666628
        },
        {
          "name": "A2",
          "midi": 45,
          "time": 21.354132499999974,
          "velocity": 0.8661417322834646,
          "duration": 0.09982622916666628
        },
        {
          "name": "A2",
          "midi": 45,
          "time": 21.458298999999972,
          "velocity": 0.8661417322834646,
          "duration": 0.09982622916666628
        },
        {
          "name": "A2",
          "midi": 45,
          "time": 21.56246549999997,
          "velocity": 0.8661417322834646,
          "duration": 0.09982622916666628
        },
        {
          "name": "A3",
          "midi": 57,
          "time": 21.666631999999968,
          "velocity": 0.8661417322834646,
          "duration": 0.09982622916666628
        },
        {
          "name": "G3",
          "midi": 55,
          "time": 21.770798499999966,
          "velocity": 0.8661417322834646,
          "duration": 0.09982622916666628
        },
        {
          "name": "E3",
          "midi": 52,
          "time": 21.874964999999964,
          "velocity": 0.8661417322834646,
          "duration": 0.09982622916666628
        },
        {
          "name": "G3",
          "midi": 55,
          "time": 21.979131499999962,
          "velocity": 0.8661417322834646,
          "duration": 0.20399272916666789
        },
        {
          "name": "D#3",
          "midi": 51,
          "time": 22.18746449999996,
          "velocity": 0.8661417322834646,
          "duration": 0.09982622916666628
        },
        {
          "name": "E3",
          "midi": 52,
          "time": 22.29163099999996,
          "velocity": 0.8661417322834646,
          "duration": 0.20399272916666789
        },
        {
          "name": "A2",
          "midi": 45,
          "time": 22.49996399999996,
          "velocity": 0.8661417322834646,
          "duration": 0.20399272916666789
        },
        {
          "name": "G3",
          "midi": 55,
          "time": 22.49996399999996,
          "velocity": 0.8661417322834646,
          "duration": 0.20399272916666789
        },
        {
          "name": "A2",
          "midi": 45,
          "time": 22.70829699999996,
          "velocity": 0.8661417322834646,
          "duration": 0.09982622916666628
        },
        {
          "name": "A2",
          "midi": 45,
          "time": 22.812463499999957,
          "velocity": 0.8661417322834646,
          "duration": 0.09982622916666628
        },
        {
          "name": "A2",
          "midi": 45,
          "time": 22.916629999999955,
          "velocity": 0.8661417322834646,
          "duration": 0.09982622916666628
        },
        {
          "name": "A2",
          "midi": 45,
          "time": 23.020796499999953,
          "velocity": 0.8661417322834646,
          "duration": 0.09982622916666628
        },
        {
          "name": "A2",
          "midi": 45,
          "time": 23.12496299999995,
          "velocity": 0.8661417322834646,
          "duration": 0.09982622916666628
        },
        {
          "name": "A2",
          "midi": 45,
          "time": 23.22912949999995,
          "velocity": 0.8661417322834646,
          "duration": 0.09982622916666628
        },
        {
          "name": "G3",
          "midi": 55,
          "time": 23.333295999999947,
          "velocity": 0.8661417322834646,
          "duration": 0.20399272916666789
        },
        {
          "name": "C4",
          "midi": 60,
          "time": 23.333295999999947,
          "velocity": 0.8661417322834646,
          "duration": 0.20399272916666789
        },
        {
          "name": "A3",
          "midi": 57,
          "time": 23.541628999999947,
          "velocity": 0.8661417322834646,
          "duration": 0.09982622916666628
        },
        {
          "name": "D4",
          "midi": 62,
          "time": 23.541628999999947,
          "velocity": 0.8661417322834646,
          "duration": 0.09982622916666628
        },
        {
          "name": "A3",
          "midi": 57,
          "time": 23.645795499999945,
          "velocity": 0.8661417322834646,
          "duration": 0.30815922916666594
        },
        {
          "name": "D4",
          "midi": 62,
          "time": 23.645795499999945,
          "velocity": 0.8661417322834646,
          "duration": 0.30815922916666594
        },
        {
          "name": "D3",
          "midi": 50,
          "time": 23.958294999999943,
          "velocity": 0.8661417322834646,
          "duration": 0.20399272916666789
        },
        {
          "name": "G3",
          "midi": 55,
          "time": 23.958294999999943,
          "velocity": 0.8661417322834646,
          "duration": 0.20399272916666789
        },
        {
          "name": "A2",
          "midi": 45,
          "time": 24.166627999999942,
          "velocity": 0.8661417322834646,
          "duration": 0.20399272916666789
        },
        {
          "name": "G3",
          "midi": 55,
          "time": 24.166627999999942,
          "velocity": 0.8661417322834646,
          "duration": 0.20399272916666789
        },
        {
          "name": "A2",
          "midi": 45,
          "time": 24.374960999999942,
          "velocity": 0.8661417322834646,
          "duration": 0.09982622916666628
        },
        {
          "name": "A2",
          "midi": 45,
          "time": 24.47912749999994,
          "velocity": 0.8661417322834646,
          "duration": 0.09982622916666628
        },
        {
          "name": "A2",
          "midi": 45,
          "time": 24.58329399999994,
          "velocity": 0.8661417322834646,
          "duration": 0.09982622916666628
        },
        {
          "name": "A2",
          "midi": 45,
          "time": 24.687460499999936,
          "velocity": 0.8661417322834646,
          "duration": 0.09982622916666628
        },
        {
          "name": "A2",
          "midi": 45,
          "time": 24.791626999999934,
          "velocity": 0.8661417322834646,
          "duration": 0.09982622916666628
        },
        {
          "name": "A4",
          "midi": 69,
          "time": 24.895793499999932,
          "velocity": 0.8661417322834646,
          "duration": 0.09982622916666628
        },
        {
          "name": "D5",
          "midi": 74,
          "time": 24.99995999999993,
          "velocity": 0.8661417322834646,
          "duration": 0.30815922916666594
        },
        {
          "name": "D5",
          "midi": 74,
          "time": 25.312459499999928,
          "velocity": 0.8661417322834646,
          "duration": 0.09982622916666628
        },
        {
          "name": "G5",
          "midi": 79,
          "time": 25.416625999999926,
          "velocity": 0.8661417322834646,
          "duration": 0.3472216666666661
        },
        {
          "name": "A2",
          "midi": 45,
          "time": 25.833291999999926,
          "velocity": 0.8661417322834646,
          "duration": 0.20399272916666789
        },
        {
          "name": "G3",
          "midi": 55,
          "time": 25.833291999999926,
          "velocity": 0.8661417322834646,
          "duration": 0.20399272916666789
        },
        {
          "name": "A2",
          "midi": 45,
          "time": 26.041624999999925,
          "velocity": 0.8661417322834646,
          "duration": 0.09982622916666628
        },
        {
          "name": "A2",
          "midi": 45,
          "time": 26.145791499999923,
          "velocity": 0.8661417322834646,
          "duration": 0.09982622916666628
        },
        {
          "name": "A2",
          "midi": 45,
          "time": 26.24995799999992,
          "velocity": 0.8661417322834646,
          "duration": 0.09982622916666628
        },
        {
          "name": "A2",
          "midi": 45,
          "time": 26.35412449999992,
          "velocity": 0.8661417322834646,
          "duration": 0.09982622916666628
        },
        {
          "name": "A2",
          "midi": 45,
          "time": 26.458290999999917,
          "velocity": 0.8661417322834646,
          "duration": 0.09982622916666628
        },
        {
          "name": "A2",
          "midi": 45,
          "time": 26.562457499999915,
          "velocity": 0.8661417322834646,
          "duration": 0.09982622916666628
        },
        {
          "name": "G3",
          "midi": 55,
          "time": 26.666623999999914,
          "velocity": 0.8661417322834646,
          "duration": 0.20399272916666789
        },
        {
          "name": "C4",
          "midi": 60,
          "time": 26.666623999999914,
          "velocity": 0.8661417322834646,
          "duration": 0.20399272916666789
        },
        {
          "name": "A3",
          "midi": 57,
          "time": 26.874956999999913,
          "velocity": 0.8661417322834646,
          "duration": 0.09982622916666628
        },
        {
          "name": "D4",
          "midi": 62,
          "time": 26.874956999999913,
          "velocity": 0.8661417322834646,
          "duration": 0.09982622916666628
        },
        {
          "name": "A3",
          "midi": 57,
          "time": 26.97912349999991,
          "velocity": 0.8661417322834646,
          "duration": 0.30815922916666594
        },
        {
          "name": "D4",
          "midi": 62,
          "time": 26.97912349999991,
          "velocity": 0.8661417322834646,
          "duration": 0.30815922916666594
        },
        {
          "name": "D3",
          "midi": 50,
          "time": 27.29162299999991,
          "velocity": 0.8661417322834646,
          "duration": 0.20399272916666789
        },
        {
          "name": "G3",
          "midi": 55,
          "time": 27.29162299999991,
          "velocity": 0.8661417322834646,
          "duration": 0.20399272916666789
        },
        {
          "name": "A2",
          "midi": 45,
          "time": 27.49995599999991,
          "velocity": 0.8661417322834646,
          "duration": 0.20399272916666789
        },
        {
          "name": "G3",
          "midi": 55,
          "time": 27.49995599999991,
          "velocity": 0.8661417322834646,
          "duration": 0.20399272916666789
        },
        {
          "name": "A2",
          "midi": 45,
          "time": 27.70828899999991,
          "velocity": 0.8661417322834646,
          "duration": 0.09982622916666628
        },
        {
          "name": "A2",
          "midi": 45,
          "time": 27.812455499999906,
          "velocity": 0.8661417322834646,
          "duration": 0.09982622916666628
        },
        {
          "name": "A2",
          "midi": 45,
          "time": 27.916621999999904,
          "velocity": 0.8661417322834646,
          "duration": 0.09982622916666628
        },
        {
          "name": "A2",
          "midi": 45,
          "time": 28.020788499999902,
          "velocity": 0.8661417322834646,
          "duration": 0.09982622916666628
        },
        {
          "name": "A2",
          "midi": 45,
          "time": 28.1249549999999,
          "velocity": 0.8661417322834646,
          "duration": 0.09982622916666628
        },
        {
          "name": "A2",
          "midi": 45,
          "time": 28.2291214999999,
          "velocity": 0.8661417322834646,
          "duration": 0.09982622916666628
        },
        {
          "name": "A3",
          "midi": 57,
          "time": 28.333287999999897,
          "velocity": 0.8661417322834646,
          "duration": 0.09982622916666628
        },
        {
          "name": "G3",
          "midi": 55,
          "time": 28.437454499999895,
          "velocity": 0.8661417322834646,
          "duration": 0.09982622916666628
        },
        {
          "name": "E3",
          "midi": 52,
          "time": 28.541620999999893,
          "velocity": 0.8661417322834646,
          "duration": 0.09982622916666628
        },
        {
          "name": "G3",
          "midi": 55,
          "time": 28.64578749999989,
          "velocity": 0.8661417322834646,
          "duration": 0.20399272916666789
        },
        {
          "name": "D#3",
          "midi": 51,
          "time": 28.85412049999989,
          "velocity": 0.8661417322834646,
          "duration": 0.09982622916666628
        },
        {
          "name": "E3",
          "midi": 52,
          "time": 28.95828699999989,
          "velocity": 0.8661417322834646,
          "duration": 0.20399272916666789
        },
        {
          "name": "A2",
          "midi": 45,
          "time": 29.166619999999888,
          "velocity": 0.8661417322834646,
          "duration": 0.20399272916666789
        },
        {
          "name": "G3",
          "midi": 55,
          "time": 29.166619999999888,
          "velocity": 0.8661417322834646,
          "duration": 0.20399272916666789
        },
        {
          "name": "A2",
          "midi": 45,
          "time": 29.374952999999888,
          "velocity": 0.8661417322834646,
          "duration": 0.09982622916666628
        },
        {
          "name": "A2",
          "midi": 45,
          "time": 29.479119499999886,
          "velocity": 0.8661417322834646,
          "duration": 0.09982622916666628
        },
        {
          "name": "A2",
          "midi": 45,
          "time": 29.583285999999884,
          "velocity": 0.8661417322834646,
          "duration": 0.09982622916666628
        },
        {
          "name": "A2",
          "midi": 45,
          "time": 29.687452499999882,
          "velocity": 0.8661417322834646,
          "duration": 0.09982622916666628
        },
        {
          "name": "A2",
          "midi": 45,
          "time": 29.79161899999988,
          "velocity": 0.8661417322834646,
          "duration": 0.09982622916666628
        },
        {
          "name": "A2",
          "midi": 45,
          "time": 29.895785499999878,
          "velocity": 0.8661417322834646,
          "duration": 0.09982622916666628
        },
        {
          "name": "G3",
          "midi": 55,
          "time": 29.999951999999876,
          "velocity": 0.8661417322834646,
          "duration": 0.20399272916666789
        },
        {
          "name": "C4",
          "midi": 60,
          "time": 29.999951999999876,
          "velocity": 0.8661417322834646,
          "duration": 0.20399272916666789
        },
        {
          "name": "A3",
          "midi": 57,
          "time": 30.208284999999876,
          "velocity": 0.8661417322834646,
          "duration": 0.09982622916666628
        },
        {
          "name": "D4",
          "midi": 62,
          "time": 30.208284999999876,
          "velocity": 0.8661417322834646,
          "duration": 0.09982622916666628
        },
        {
          "name": "A3",
          "midi": 57,
          "time": 30.312451499999874,
          "velocity": 0.8661417322834646,
          "duration": 0.30815922916666594
        },
        {
          "name": "D4",
          "midi": 62,
          "time": 30.312451499999874,
          "velocity": 0.8661417322834646,
          "duration": 0.30815922916666594
        },
        {
          "name": "D3",
          "midi": 50,
          "time": 30.62495099999987,
          "velocity": 0.8661417322834646,
          "duration": 0.20399272916666789
        },
        {
          "name": "G3",
          "midi": 55,
          "time": 30.62495099999987,
          "velocity": 0.8661417322834646,
          "duration": 0.20399272916666789
        },
        {
          "name": "A2",
          "midi": 45,
          "time": 30.83328399999987,
          "velocity": 0.8661417322834646,
          "duration": 0.20399272916666789
        },
        {
          "name": "G3",
          "midi": 55,
          "time": 30.83328399999987,
          "velocity": 0.8661417322834646,
          "duration": 0.20399272916666789
        },
        {
          "name": "A2",
          "midi": 45,
          "time": 31.04161699999987,
          "velocity": 0.8661417322834646,
          "duration": 0.09982622916666628
        },
        {
          "name": "A2",
          "midi": 45,
          "time": 31.14578349999987,
          "velocity": 0.8661417322834646,
          "duration": 0.09982622916666628
        },
        {
          "name": "A2",
          "midi": 45,
          "time": 31.249949999999867,
          "velocity": 0.8661417322834646,
          "duration": 0.09982622916666628
        },
        {
          "name": "A2",
          "midi": 45,
          "time": 31.354116499999865,
          "velocity": 0.8661417322834646,
          "duration": 0.09982622916666628
        },
        {
          "name": "A2",
          "midi": 45,
          "time": 31.458282999999863,
          "velocity": 0.8661417322834646,
          "duration": 0.09982622916666628
        },
        {
          "name": "A2",
          "midi": 45,
          "time": 31.56244949999986,
          "velocity": 0.8661417322834646,
          "duration": 0.09982622916666628
        },
        {
          "name": "A3",
          "midi": 57,
          "time": 31.66661599999986,
          "velocity": 0.8661417322834646,
          "duration": 0.09982622916666628
        },
        {
          "name": "G3",
          "midi": 55,
          "time": 31.770782499999857,
          "velocity": 0.8661417322834646,
          "duration": 0.09982622916666628
        },
        {
          "name": "E3",
          "midi": 52,
          "time": 31.874948999999855,
          "velocity": 0.8661417322834646,
          "duration": 0.09982622916666628
        },
        {
          "name": "G3",
          "midi": 55,
          "time": 31.979115499999853,
          "velocity": 0.8661417322834646,
          "duration": 0.20399272916666789
        },
        {
          "name": "D#3",
          "midi": 51,
          "time": 32.18744849999985,
          "velocity": 0.8661417322834646,
          "duration": 0.09982622916666628
        },
        {
          "name": "E3",
          "midi": 52,
          "time": 32.29161499999985,
          "velocity": 0.8661417322834646,
          "duration": 0.20399272916666433
        },
        {
          "name": "D3",
          "midi": 50,
          "time": 32.49994799999985,
          "velocity": 0.8661417322834646,
          "duration": 0.20399272916666433
        },
        {
          "name": "A3",
          "midi": 57,
          "time": 32.49994799999985,
          "velocity": 0.8661417322834646,
          "duration": 0.20399272916666433
        },
        {
          "name": "D4",
          "midi": 62,
          "time": 32.49994799999985,
          "velocity": 0.8661417322834646,
          "duration": 0.20399272916666433
        },
        {
          "name": "D3",
          "midi": 50,
          "time": 32.70828099999984,
          "velocity": 0.8661417322834646,
          "duration": 0.5555546666666658
        },
        {
          "name": "A3",
          "midi": 57,
          "time": 32.70828099999984,
          "velocity": 0.8661417322834646,
          "duration": 0.5555546666666658
        },
        {
          "name": "D4",
          "midi": 62,
          "time": 32.70828099999984,
          "velocity": 0.8661417322834646,
          "duration": 0.5555546666666658
        },
        {
          "name": "G2",
          "midi": 43,
          "time": 33.333279999999846,
          "velocity": 0.8661417322834646,
          "duration": 0.20399272916666433
        },
        {
          "name": "D3",
          "midi": 50,
          "time": 33.333279999999846,
          "velocity": 0.8661417322834646,
          "duration": 0.20399272916666433
        },
        {
          "name": "G3",
          "midi": 55,
          "time": 33.333279999999846,
          "velocity": 0.8661417322834646,
          "duration": 0.20399272916666433
        },
        {
          "name": "G2",
          "midi": 43,
          "time": 33.54161299999984,
          "velocity": 0.8661417322834646,
          "duration": 0.5555546666666658
        },
        {
          "name": "D3",
          "midi": 50,
          "time": 33.54161299999984,
          "velocity": 0.8661417322834646,
          "duration": 0.5555546666666658
        },
        {
          "name": "G3",
          "midi": 55,
          "time": 33.54161299999984,
          "velocity": 0.8661417322834646,
          "duration": 0.5555546666666658
        },
        {
          "name": "D3",
          "midi": 50,
          "time": 34.166611999999844,
          "velocity": 0.8661417322834646,
          "duration": 0.20399272916666433
        },
        {
          "name": "A3",
          "midi": 57,
          "time": 34.166611999999844,
          "velocity": 0.8661417322834646,
          "duration": 0.20399272916666433
        },
        {
          "name": "D4",
          "midi": 62,
          "time": 34.166611999999844,
          "velocity": 0.8661417322834646,
          "duration": 0.20399272916666433
        },
        {
          "name": "D3",
          "midi": 50,
          "time": 34.37494499999984,
          "velocity": 0.8661417322834646,
          "duration": 0.5555546666666658
        },
        {
          "name": "A3",
          "midi": 57,
          "time": 34.37494499999984,
          "velocity": 0.8661417322834646,
          "duration": 0.5555546666666658
        },
        {
          "name": "D4",
          "midi": 62,
          "time": 34.37494499999984,
          "velocity": 0.8661417322834646,
          "duration": 0.5555546666666658
        },
        {
          "name": "C3",
          "midi": 48,
          "time": 34.99994399999984,
          "velocity": 0.8661417322834646,
          "duration": 0.3081592291666695
        },
        {
          "name": "B2",
          "midi": 47,
          "time": 35.312443499999844,
          "velocity": 0.8661417322834646,
          "duration": 0.3081592291666695
        },
        {
          "name": "G2",
          "midi": 43,
          "time": 35.624942999999845,
          "velocity": 0.8661417322834646,
          "duration": 0.20399272916666433
        },
        {
          "name": "A2",
          "midi": 45,
          "time": 35.83327599999984,
          "velocity": 0.8661417322834646,
          "duration": 0.20399272916666433
        },
        {
          "name": "G3",
          "midi": 55,
          "time": 35.83327599999984,
          "velocity": 0.8661417322834646,
          "duration": 0.20399272916666433
        },
        {
          "name": "A2",
          "midi": 45,
          "time": 36.04160899999984,
          "velocity": 0.8661417322834646,
          "duration": 0.09982622916666628
        },
        {
          "name": "A2",
          "midi": 45,
          "time": 36.145775499999836,
          "velocity": 0.8661417322834646,
          "duration": 0.09982622916666628
        },
        {
          "name": "A2",
          "midi": 45,
          "time": 36.249941999999834,
          "velocity": 0.8661417322834646,
          "duration": 0.09982622916666628
        },
        {
          "name": "A2",
          "midi": 45,
          "time": 36.35410849999983,
          "velocity": 0.8661417322834646,
          "duration": 0.09982622916666628
        },
        {
          "name": "A2",
          "midi": 45,
          "time": 36.45827499999983,
          "velocity": 0.8661417322834646,
          "duration": 0.09982622916666628
        },
        {
          "name": "A2",
          "midi": 45,
          "time": 36.56244149999983,
          "velocity": 0.8661417322834646,
          "duration": 0.09982622916666628
        },
        {
          "name": "G3",
          "midi": 55,
          "time": 36.666607999999826,
          "velocity": 0.8661417322834646,
          "duration": 0.20399272916666433
        },
        {
          "name": "C4",
          "midi": 60,
          "time": 36.666607999999826,
          "velocity": 0.8661417322834646,
          "duration": 0.20399272916666433
        },
        {
          "name": "A3",
          "midi": 57,
          "time": 36.87494099999982,
          "velocity": 0.8661417322834646,
          "duration": 0.09982622916666628
        },
        {
          "name": "D4",
          "midi": 62,
          "time": 36.87494099999982,
          "velocity": 0.8661417322834646,
          "duration": 0.09982622916666628
        },
        {
          "name": "A3",
          "midi": 57,
          "time": 36.97910749999982,
          "velocity": 0.8661417322834646,
          "duration": 0.3081592291666695
        },
        {
          "name": "D4",
          "midi": 62,
          "time": 36.97910749999982,
          "velocity": 0.8661417322834646,
          "duration": 0.3081592291666695
        },
        {
          "name": "D3",
          "midi": 50,
          "time": 37.29160699999982,
          "velocity": 0.8661417322834646,
          "duration": 0.20399272916666433
        },
        {
          "name": "G3",
          "midi": 55,
          "time": 37.29160699999982,
          "velocity": 0.8661417322834646,
          "duration": 0.20399272916666433
        },
        {
          "name": "A2",
          "midi": 45,
          "time": 37.49993999999982,
          "velocity": 0.8661417322834646,
          "duration": 0.20399272916666433
        },
        {
          "name": "G3",
          "midi": 55,
          "time": 37.49993999999982,
          "velocity": 0.8661417322834646,
          "duration": 0.20399272916666433
        },
        {
          "name": "A2",
          "midi": 45,
          "time": 37.708272999999814,
          "velocity": 0.8661417322834646,
          "duration": 0.09982622916666628
        },
        {
          "name": "A2",
          "midi": 45,
          "time": 37.81243949999981,
          "velocity": 0.8661417322834646,
          "duration": 0.09982622916666628
        },
        {
          "name": "A2",
          "midi": 45,
          "time": 37.91660599999981,
          "velocity": 0.8661417322834646,
          "duration": 0.09982622916666628
        },
        {
          "name": "A2",
          "midi": 45,
          "time": 38.02077249999981,
          "velocity": 0.8661417322834646,
          "duration": 0.09982622916666628
        },
        {
          "name": "A2",
          "midi": 45,
          "time": 38.124938999999806,
          "velocity": 0.8661417322834646,
          "duration": 0.09982622916666628
        },
        {
          "name": "A2",
          "midi": 45,
          "time": 38.229105499999804,
          "velocity": 0.8661417322834646,
          "duration": 0.09982622916666628
        },
        {
          "name": "A3",
          "midi": 57,
          "time": 38.3332719999998,
          "velocity": 0.8661417322834646,
          "duration": 0.09982622916666628
        },
        {
          "name": "G3",
          "midi": 55,
          "time": 38.4374384999998,
          "velocity": 0.8661417322834646,
          "duration": 0.09982622916666628
        },
        {
          "name": "E3",
          "midi": 52,
          "time": 38.5416049999998,
          "velocity": 0.8661417322834646,
          "duration": 0.09982622916666628
        },
        {
          "name": "G3",
          "midi": 55,
          "time": 38.645771499999796,
          "velocity": 0.8661417322834646,
          "duration": 0.20399272916666433
        },
        {
          "name": "D#3",
          "midi": 51,
          "time": 38.85410449999979,
          "velocity": 0.8661417322834646,
          "duration": 0.09982622916666628
        },
        {
          "name": "E3",
          "midi": 52,
          "time": 38.95827099999979,
          "velocity": 0.8661417322834646,
          "duration": 0.20399272916666433
        },
        {
          "name": "A2",
          "midi": 45,
          "time": 39.166603999999786,
          "velocity": 0.8661417322834646,
          "duration": 0.20399272916666433
        },
        {
          "name": "G3",
          "midi": 55,
          "time": 39.166603999999786,
          "velocity": 0.8661417322834646,
          "duration": 0.20399272916666433
        },
        {
          "name": "A2",
          "midi": 45,
          "time": 39.37493699999978,
          "velocity": 0.8661417322834646,
          "duration": 0.09982622916666628
        },
        {
          "name": "A2",
          "midi": 45,
          "time": 39.47910349999978,
          "velocity": 0.8661417322834646,
          "duration": 0.09982622916666628
        },
        {
          "name": "A2",
          "midi": 45,
          "time": 39.58326999999978,
          "velocity": 0.8661417322834646,
          "duration": 0.09982622916666628
        },
        {
          "name": "A2",
          "midi": 45,
          "time": 39.68743649999978,
          "velocity": 0.8661417322834646,
          "duration": 0.09982622916666628
        },
        {
          "name": "A2",
          "midi": 45,
          "time": 39.791602999999775,
          "velocity": 0.8661417322834646,
          "duration": 0.09982622916666628
        },
        {
          "name": "A2",
          "midi": 45,
          "time": 39.89576949999977,
          "velocity": 0.8661417322834646,
          "duration": 0.09982622916666628
        },
        {
          "name": "G3",
          "midi": 55,
          "time": 39.99993599999977,
          "velocity": 0.8661417322834646,
          "duration": 0.20399272916666433
        },
        {
          "name": "C4",
          "midi": 60,
          "time": 39.99993599999977,
          "velocity": 0.8661417322834646,
          "duration": 0.20399272916666433
        },
        {
          "name": "A3",
          "midi": 57,
          "time": 40.20826899999977,
          "velocity": 0.8661417322834646,
          "duration": 0.09982622916666628
        },
        {
          "name": "D4",
          "midi": 62,
          "time": 40.20826899999977,
          "velocity": 0.8661417322834646,
          "duration": 0.09982622916666628
        },
        {
          "name": "A3",
          "midi": 57,
          "time": 40.312435499999765,
          "velocity": 0.8661417322834646,
          "duration": 0.3081592291666695
        },
        {
          "name": "D4",
          "midi": 62,
          "time": 40.312435499999765,
          "velocity": 0.8661417322834646,
          "duration": 0.3081592291666695
        },
        {
          "name": "D3",
          "midi": 50,
          "time": 40.624934999999766,
          "velocity": 0.8661417322834646,
          "duration": 0.20399272916666433
        },
        {
          "name": "G3",
          "midi": 55,
          "time": 40.624934999999766,
          "velocity": 0.8661417322834646,
          "duration": 0.20399272916666433
        },
        {
          "name": "A2",
          "midi": 45,
          "time": 40.83326799999976,
          "velocity": 0.8661417322834646,
          "duration": 0.20399272916666433
        },
        {
          "name": "G3",
          "midi": 55,
          "time": 40.83326799999976,
          "velocity": 0.8661417322834646,
          "duration": 0.20399272916666433
        },
        {
          "name": "A2",
          "midi": 45,
          "time": 41.04160099999976,
          "velocity": 0.8661417322834646,
          "duration": 0.09982622916666628
        },
        {
          "name": "A2",
          "midi": 45,
          "time": 41.14576749999976,
          "velocity": 0.8661417322834646,
          "duration": 0.09982622916666628
        },
        {
          "name": "A2",
          "midi": 45,
          "time": 41.249933999999755,
          "velocity": 0.8661417322834646,
          "duration": 0.09982622916666628
        },
        {
          "name": "A2",
          "midi": 45,
          "time": 41.35410049999975,
          "velocity": 0.8661417322834646,
          "duration": 0.09982622916666628
        },
        {
          "name": "A2",
          "midi": 45,
          "time": 41.45826699999975,
          "velocity": 0.8661417322834646,
          "duration": 0.09982622916666628
        },
        {
          "name": "A2",
          "midi": 45,
          "time": 41.56243349999975,
          "velocity": 0.8661417322834646,
          "duration": 0.09982622916666628
        },
        {
          "name": "A3",
          "midi": 57,
          "time": 41.66659999999975,
          "velocity": 0.8661417322834646,
          "duration": 0.09982622916666628
        },
        {
          "name": "G3",
          "midi": 55,
          "time": 41.770766499999745,
          "velocity": 0.8661417322834646,
          "duration": 0.09982622916666628
        },
        {
          "name": "E3",
          "midi": 52,
          "time": 41.87493299999974,
          "velocity": 0.8661417322834646,
          "duration": 0.09982622916666628
        },
        {
          "name": "G3",
          "midi": 55,
          "time": 41.97909949999974,
          "velocity": 0.8661417322834646,
          "duration": 0.20399272916666433
        },
        {
          "name": "D#3",
          "midi": 51,
          "time": 42.18743249999974,
          "velocity": 0.8661417322834646,
          "duration": 0.09982622916666628
        },
        {
          "name": "E3",
          "midi": 52,
          "time": 42.291598999999735,
          "velocity": 0.8661417322834646,
          "duration": 0.20399272916666433
        },
        {
          "name": "D3",
          "midi": 50,
          "time": 42.49993199999973,
          "velocity": 0.8661417322834646,
          "duration": 0.20399272916666433
        },
        {
          "name": "A3",
          "midi": 57,
          "time": 42.49993199999973,
          "velocity": 0.8661417322834646,
          "duration": 0.20399272916666433
        },
        {
          "name": "D4",
          "midi": 62,
          "time": 42.49993199999973,
          "velocity": 0.8661417322834646,
          "duration": 0.20399272916666433
        },
        {
          "name": "D3",
          "midi": 50,
          "time": 42.70826499999973,
          "velocity": 0.8661417322834646,
          "duration": 0.5555546666666658
        },
        {
          "name": "A3",
          "midi": 57,
          "time": 42.70826499999973,
          "velocity": 0.8661417322834646,
          "duration": 0.5555546666666658
        },
        {
          "name": "D4",
          "midi": 62,
          "time": 42.70826499999973,
          "velocity": 0.8661417322834646,
          "duration": 0.5555546666666658
        },
        {
          "name": "G2",
          "midi": 43,
          "time": 43.33326399999973,
          "velocity": 0.8661417322834646,
          "duration": 0.20399272916666433
        },
        {
          "name": "D3",
          "midi": 50,
          "time": 43.33326399999973,
          "velocity": 0.8661417322834646,
          "duration": 0.20399272916666433
        },
        {
          "name": "G3",
          "midi": 55,
          "time": 43.33326399999973,
          "velocity": 0.8661417322834646,
          "duration": 0.20399272916666433
        },
        {
          "name": "G2",
          "midi": 43,
          "time": 43.541596999999726,
          "velocity": 0.8661417322834646,
          "duration": 0.5555546666666658
        },
        {
          "name": "D3",
          "midi": 50,
          "time": 43.541596999999726,
          "velocity": 0.8661417322834646,
          "duration": 0.5555546666666658
        },
        {
          "name": "G3",
          "midi": 55,
          "time": 43.541596999999726,
          "velocity": 0.8661417322834646,
          "duration": 0.5555546666666658
        },
        {
          "name": "D3",
          "midi": 50,
          "time": 44.16659599999973,
          "velocity": 0.8661417322834646,
          "duration": 0.20399272916666433
        },
        {
          "name": "A3",
          "midi": 57,
          "time": 44.16659599999973,
          "velocity": 0.8661417322834646,
          "duration": 0.20399272916666433
        },
        {
          "name": "D4",
          "midi": 62,
          "time": 44.16659599999973,
          "velocity": 0.8661417322834646,
          "duration": 0.20399272916666433
        },
        {
          "name": "D3",
          "midi": 50,
          "time": 44.374928999999725,
          "velocity": 0.8661417322834646,
          "duration": 0.5555546666666658
        },
        {
          "name": "A3",
          "midi": 57,
          "time": 44.374928999999725,
          "velocity": 0.8661417322834646,
          "duration": 0.5555546666666658
        },
        {
          "name": "D4",
          "midi": 62,
          "time": 44.374928999999725,
          "velocity": 0.8661417322834646,
          "duration": 0.5555546666666658
        },
        {
          "name": "C3",
          "midi": 48,
          "time": 44.99992799999973,
          "velocity": 0.8661417322834646,
          "duration": 0.3081592291666695
        },
        {
          "name": "B2",
          "midi": 47,
          "time": 45.31242749999973,
          "velocity": 0.8661417322834646,
          "duration": 0.3081592291666695
        },
        {
          "name": "G2",
          "midi": 43,
          "time": 45.62492699999973,
          "velocity": 0.8661417322834646,
          "duration": 0.20399272916666433
        },
        {
          "name": "A2",
          "midi": 45,
          "time": 45.833259999999726,
          "velocity": 0.8661417322834646,
          "duration": 0.20399272916666433
        },
        {
          "name": "G3",
          "midi": 55,
          "time": 45.833259999999726,
          "velocity": 0.8661417322834646,
          "duration": 0.20399272916666433
        },
        {
          "name": "A2",
          "midi": 45,
          "time": 46.04159299999972,
          "velocity": 0.8661417322834646,
          "duration": 0.09982622916666628
        },
        {
          "name": "A2",
          "midi": 45,
          "time": 46.14575949999972,
          "velocity": 0.8661417322834646,
          "duration": 0.09982622916666628
        },
        {
          "name": "A2",
          "midi": 45,
          "time": 46.24992599999972,
          "velocity": 0.8661417322834646,
          "duration": 0.09982622916666628
        },
        {
          "name": "A2",
          "midi": 45,
          "time": 46.354092499999716,
          "velocity": 0.8661417322834646,
          "duration": 0.09982622916666628
        },
        {
          "name": "A2",
          "midi": 45,
          "time": 46.458258999999714,
          "velocity": 0.8661417322834646,
          "duration": 0.09982622916666628
        },
        {
          "name": "A2",
          "midi": 45,
          "time": 46.56242549999971,
          "velocity": 0.8661417322834646,
          "duration": 0.09982622916666628
        },
        {
          "name": "G3",
          "midi": 55,
          "time": 46.66659199999971,
          "velocity": 0.8661417322834646,
          "duration": 0.20399272916666433
        },
        {
          "name": "C4",
          "midi": 60,
          "time": 46.66659199999971,
          "velocity": 0.8661417322834646,
          "duration": 0.20399272916666433
        },
        {
          "name": "A3",
          "midi": 57,
          "time": 46.874924999999706,
          "velocity": 0.8661417322834646,
          "duration": 0.09982622916666628
        },
        {
          "name": "D4",
          "midi": 62,
          "time": 46.874924999999706,
          "velocity": 0.8661417322834646,
          "duration": 0.09982622916666628
        },
        {
          "name": "A3",
          "midi": 57,
          "time": 46.979091499999704,
          "velocity": 0.8661417322834646,
          "duration": 0.3081592291666695
        },
        {
          "name": "D4",
          "midi": 62,
          "time": 46.979091499999704,
          "velocity": 0.8661417322834646,
          "duration": 0.3081592291666695
        },
        {
          "name": "D3",
          "midi": 50,
          "time": 47.291590999999706,
          "velocity": 0.8661417322834646,
          "duration": 0.20399272916666433
        },
        {
          "name": "G3",
          "midi": 55,
          "time": 47.291590999999706,
          "velocity": 0.8661417322834646,
          "duration": 0.20399272916666433
        },
        {
          "name": "A2",
          "midi": 45,
          "time": 47.4999239999997,
          "velocity": 0.8661417322834646,
          "duration": 0.20399272916666433
        },
        {
          "name": "G3",
          "midi": 55,
          "time": 47.4999239999997,
          "velocity": 0.8661417322834646,
          "duration": 0.20399272916666433
        },
        {
          "name": "A2",
          "midi": 45,
          "time": 47.7082569999997,
          "velocity": 0.8661417322834646,
          "duration": 0.09982622916666628
        },
        {
          "name": "A2",
          "midi": 45,
          "time": 47.812423499999696,
          "velocity": 0.8661417322834646,
          "duration": 0.09982622916666628
        },
        {
          "name": "A2",
          "midi": 45,
          "time": 47.916589999999694,
          "velocity": 0.8661417322834646,
          "duration": 0.09982622916666628
        },
        {
          "name": "A2",
          "midi": 45,
          "time": 48.02075649999969,
          "velocity": 0.8661417322834646,
          "duration": 0.09982622916666628
        },
        {
          "name": "A2",
          "midi": 45,
          "time": 48.12492299999969,
          "velocity": 0.8661417322834646,
          "duration": 0.09982622916666628
        },
        {
          "name": "A2",
          "midi": 45,
          "time": 48.22908949999969,
          "velocity": 0.8661417322834646,
          "duration": 0.09982622916666628
        },
        {
          "name": "A3",
          "midi": 57,
          "time": 48.333255999999686,
          "velocity": 0.8661417322834646,
          "duration": 0.09982622916666628
        },
        {
          "name": "G3",
          "midi": 55,
          "time": 48.437422499999684,
          "velocity": 0.8661417322834646,
          "duration": 0.09982622916666628
        },
        {
          "name": "E3",
          "midi": 52,
          "time": 48.54158899999968,
          "velocity": 0.8661417322834646,
          "duration": 0.09982622916666628
        },
        {
          "name": "G3",
          "midi": 55,
          "time": 48.64575549999968,
          "velocity": 0.8661417322834646,
          "duration": 0.20399272916666433
        },
        {
          "name": "D#3",
          "midi": 51,
          "time": 48.854088499999676,
          "velocity": 0.8661417322834646,
          "duration": 0.09982622916666628
        },
        {
          "name": "E3",
          "midi": 52,
          "time": 48.958254999999674,
          "velocity": 0.8661417322834646,
          "duration": 0.20399272916666433
        },
        {
          "name": "E2",
          "midi": 40,
          "time": 49.16658799999967,
          "velocity": 0.8661417322834646,
          "duration": 0.20399272916666433
        },
        {
          "name": "B2",
          "midi": 47,
          "time": 49.16658799999967,
          "velocity": 0.8661417322834646,
          "duration": 0.20399272916666433
        },
        {
          "name": "E3",
          "midi": 52,
          "time": 49.16658799999967,
          "velocity": 0.8661417322834646,
          "duration": 0.20399272916666433
        },
        {
          "name": "E2",
          "midi": 40,
          "time": 49.37492099999967,
          "velocity": 0.8661417322834646,
          "duration": 1.354164500000003
        },
        {
          "name": "B2",
          "midi": 47,
          "time": 49.37492099999967,
          "velocity": 0.8661417322834646,
          "duration": 1.354164500000003
        },
        {
          "name": "E3",
          "midi": 52,
          "time": 49.37492099999967,
          "velocity": 0.8661417322834646,
          "duration": 1.354164500000003
        },
        {
          "name": "G2",
          "midi": 43,
          "time": 50.83325199999967,
          "velocity": 0.8661417322834646,
          "duration": 0.2734370625000011
        },
        {
          "name": "F#2",
          "midi": 42,
          "time": 51.111029333333,
          "velocity": 0.8661417322834646,
          "duration": 0.2734370625000011
        },
        {
          "name": "G2",
          "midi": 43,
          "time": 51.38880666666633,
          "velocity": 0.8661417322834646,
          "duration": 0.2734370625000011
        },
        {
          "name": "C3",
          "midi": 48,
          "time": 51.666583999999666,
          "velocity": 0.8661417322834646,
          "duration": 0.2734370625000011
        },
        {
          "name": "B2",
          "midi": 47,
          "time": 51.944361333333,
          "velocity": 0.8661417322834646,
          "duration": 0.2734370625000011
        },
        {
          "name": "G2",
          "midi": 43,
          "time": 52.22213866666633,
          "velocity": 0.8661417322834646,
          "duration": 0.2734370625000011
        },
        {
          "name": "A2",
          "midi": 45,
          "time": 52.499915999999665,
          "velocity": 0.8661417322834646,
          "duration": 0.20399272916666433
        },
        {
          "name": "E3",
          "midi": 52,
          "time": 52.499915999999665,
          "velocity": 0.8661417322834646,
          "duration": 0.20399272916666433
        },
        {
          "name": "A2",
          "midi": 45,
          "time": 52.916581999999664,
          "velocity": 0.8661417322834646,
          "duration": 0.34722166666666965
        },
        {
          "name": "E3",
          "midi": 52,
          "time": 52.916581999999664,
          "velocity": 0.8661417322834646,
          "duration": 0.34722166666666965
        },
        {
          "name": "G2",
          "midi": 43,
          "time": 53.33324799999967,
          "velocity": 0.8661417322834646,
          "duration": 0.09982622916666628
        },
        {
          "name": "A2",
          "midi": 45,
          "time": 53.43741449999967,
          "velocity": 0.8661417322834646,
          "duration": 0.09982622916666628
        },
        {
          "name": "E3",
          "midi": 52,
          "time": 53.43741449999967,
          "velocity": 0.8661417322834646,
          "duration": 0.09982622916666628
        },
        {
          "name": "A2",
          "midi": 45,
          "time": 53.74991399999967,
          "velocity": 0.8661417322834646,
          "duration": 0.34722166666666965
        },
        {
          "name": "E3",
          "midi": 52,
          "time": 53.74991399999967,
          "velocity": 0.8661417322834646,
          "duration": 0.34722166666666965
        },
        {
          "name": "G2",
          "midi": 43,
          "time": 54.166579999999676,
          "velocity": 0.8661417322834646,
          "duration": 0.09982622916666628
        },
        {
          "name": "A2",
          "midi": 45,
          "time": 54.270746499999674,
          "velocity": 0.8661417322834646,
          "duration": 0.09982622916666628
        },
        {
          "name": "E3",
          "midi": 52,
          "time": 54.270746499999674,
          "velocity": 0.8661417322834646,
          "duration": 0.09982622916666628
        },
        {
          "name": "A2",
          "midi": 45,
          "time": 54.583245999999676,
          "velocity": 0.8661417322834646,
          "duration": 0.34722166666666965
        },
        {
          "name": "E3",
          "midi": 52,
          "time": 54.583245999999676,
          "velocity": 0.8661417322834646,
          "duration": 0.34722166666666965
        },
        {
          "name": "C3",
          "midi": 48,
          "time": 54.99991199999968,
          "velocity": 0.8661417322834646,
          "duration": 0.3081592291666695
        },
        {
          "name": "G3",
          "midi": 55,
          "time": 54.99991199999968,
          "velocity": 0.8661417322834646,
          "duration": 0.3081592291666695
        },
        {
          "name": "G2",
          "midi": 43,
          "time": 55.31241149999968,
          "velocity": 0.8661417322834646,
          "duration": 0.3081592291666695
        },
        {
          "name": "D3",
          "midi": 50,
          "time": 55.31241149999968,
          "velocity": 0.8661417322834646,
          "duration": 0.3081592291666695
        },
        {
          "name": "A2",
          "midi": 45,
          "time": 55.624910999999685,
          "velocity": 0.8661417322834646,
          "duration": 0.20399272916666433
        },
        {
          "name": "E3",
          "midi": 52,
          "time": 55.624910999999685,
          "velocity": 0.8661417322834646,
          "duration": 0.20399272916666433
        },
        {
          "name": "A2",
          "midi": 45,
          "time": 56.041576999999684,
          "velocity": 0.8661417322834646,
          "duration": 0.34722166666666965
        },
        {
          "name": "E3",
          "midi": 52,
          "time": 56.041576999999684,
          "velocity": 0.8661417322834646,
          "duration": 0.34722166666666965
        },
        {
          "name": "G2",
          "midi": 43,
          "time": 56.45824299999969,
          "velocity": 0.8661417322834646,
          "duration": 0.09982622916666628
        },
        {
          "name": "A2",
          "midi": 45,
          "time": 56.56240949999969,
          "velocity": 0.8661417322834646,
          "duration": 0.09982622916666628
        },
        {
          "name": "E3",
          "midi": 52,
          "time": 56.56240949999969,
          "velocity": 0.8661417322834646,
          "duration": 0.09982622916666628
        },
        {
          "name": "A2",
          "midi": 45,
          "time": 56.87490899999969,
          "velocity": 0.8661417322834646,
          "duration": 0.34722166666666965
        },
        {
          "name": "E3",
          "midi": 52,
          "time": 56.87490899999969,
          "velocity": 0.8661417322834646,
          "duration": 0.34722166666666965
        },
        {
          "name": "G2",
          "midi": 43,
          "time": 57.291574999999696,
          "velocity": 0.8661417322834646,
          "duration": 0.09982622916666628
        },
        {
          "name": "A2",
          "midi": 45,
          "time": 57.395741499999694,
          "velocity": 0.8661417322834646,
          "duration": 0.09982622916666628
        },
        {
          "name": "E3",
          "midi": 52,
          "time": 57.395741499999694,
          "velocity": 0.8661417322834646,
          "duration": 0.09982622916666628
        },
        {
          "name": "A2",
          "midi": 45,
          "time": 57.708240999999695,
          "velocity": 0.8661417322834646,
          "duration": 0.34722166666666965
        },
        {
          "name": "E3",
          "midi": 52,
          "time": 57.708240999999695,
          "velocity": 0.8661417322834646,
          "duration": 0.34722166666666965
        },
        {
          "name": "C3",
          "midi": 48,
          "time": 58.1249069999997,
          "velocity": 0.8661417322834646,
          "duration": 0.3081592291666695
        },
        {
          "name": "G3",
          "midi": 55,
          "time": 58.1249069999997,
          "velocity": 0.8661417322834646,
          "duration": 0.3081592291666695
        },
        {
          "name": "G2",
          "midi": 43,
          "time": 58.4374064999997,
          "velocity": 0.8661417322834646,
          "duration": 0.3081592291666695
        },
        {
          "name": "D3",
          "midi": 50,
          "time": 58.4374064999997,
          "velocity": 0.8661417322834646,
          "duration": 0.3081592291666695
        },
        {
          "name": "A2",
          "midi": 45,
          "time": 58.749905999999704,
          "velocity": 0.8661417322834646,
          "duration": 0.20399272916666433
        },
        {
          "name": "E3",
          "midi": 52,
          "time": 58.749905999999704,
          "velocity": 0.8661417322834646,
          "duration": 0.20399272916666433
        },
        {
          "name": "A2",
          "midi": 45,
          "time": 59.166571999999704,
          "velocity": 0.8661417322834646,
          "duration": 0.34722166666666965
        },
        {
          "name": "E3",
          "midi": 52,
          "time": 59.166571999999704,
          "velocity": 0.8661417322834646,
          "duration": 0.34722166666666965
        },
        {
          "name": "G2",
          "midi": 43,
          "time": 59.58323799999971,
          "velocity": 0.8661417322834646,
          "duration": 0.09982622916666628
        },
        {
          "name": "A2",
          "midi": 45,
          "time": 59.68740449999971,
          "velocity": 0.8661417322834646,
          "duration": 0.09982622916666628
        },
        {
          "name": "E3",
          "midi": 52,
          "time": 59.68740449999971,
          "velocity": 0.8661417322834646,
          "duration": 0.09982622916666628
        },
        {
          "name": "A2",
          "midi": 45,
          "time": 59.99990399999971,
          "velocity": 0.8661417322834646,
          "duration": 0.34722166666666965
        },
        {
          "name": "E3",
          "midi": 52,
          "time": 59.99990399999971,
          "velocity": 0.8661417322834646,
          "duration": 0.34722166666666965
        },
        {
          "name": "G2",
          "midi": 43,
          "time": 60.416569999999716,
          "velocity": 0.8661417322834646,
          "duration": 0.09982622916666628
        },
        {
          "name": "A2",
          "midi": 45,
          "time": 60.520736499999714,
          "velocity": 0.8661417322834646,
          "duration": 0.09982622916666628
        },
        {
          "name": "E3",
          "midi": 52,
          "time": 60.520736499999714,
          "velocity": 0.8661417322834646,
          "duration": 0.09982622916666628
        },
        {
          "name": "A2",
          "midi": 45,
          "time": 60.833235999999715,
          "velocity": 0.8661417322834646,
          "duration": 0.34722166666666965
        },
        {
          "name": "E3",
          "midi": 52,
          "time": 60.833235999999715,
          "velocity": 0.8661417322834646,
          "duration": 0.34722166666666965
        },
        {
          "name": "C3",
          "midi": 48,
          "time": 61.24990199999972,
          "velocity": 0.8661417322834646,
          "duration": 0.3081592291666695
        },
        {
          "name": "G3",
          "midi": 55,
          "time": 61.24990199999972,
          "velocity": 0.8661417322834646,
          "duration": 0.3081592291666695
        },
        {
          "name": "G2",
          "midi": 43,
          "time": 61.56240149999972,
          "velocity": 0.8661417322834646,
          "duration": 0.3081592291666695
        },
        {
          "name": "D3",
          "midi": 50,
          "time": 61.56240149999972,
          "velocity": 0.8661417322834646,
          "duration": 0.3081592291666695
        },
        {
          "name": "A2",
          "midi": 45,
          "time": 61.874900999999724,
          "velocity": 0.8661417322834646,
          "duration": 0.20399272916666433
        },
        {
          "name": "E3",
          "midi": 52,
          "time": 61.874900999999724,
          "velocity": 0.8661417322834646,
          "duration": 0.20399272916666433
        },
        {
          "name": "A2",
          "midi": 45,
          "time": 62.29156699999972,
          "velocity": 0.8661417322834646,
          "duration": 0.34722166666666965
        },
        {
          "name": "E3",
          "midi": 52,
          "time": 62.29156699999972,
          "velocity": 0.8661417322834646,
          "duration": 0.34722166666666965
        },
        {
          "name": "G2",
          "midi": 43,
          "time": 62.70823299999973,
          "velocity": 0.8661417322834646,
          "duration": 0.09982622916666628
        },
        {
          "name": "A2",
          "midi": 45,
          "time": 62.81239949999973,
          "velocity": 0.8661417322834646,
          "duration": 0.09982622916666628
        },
        {
          "name": "E3",
          "midi": 52,
          "time": 62.81239949999973,
          "velocity": 0.8661417322834646,
          "duration": 0.09982622916666628
        },
        {
          "name": "A2",
          "midi": 45,
          "time": 63.12489899999973,
          "velocity": 0.8661417322834646,
          "duration": 0.34722166666666965
        },
        {
          "name": "E3",
          "midi": 52,
          "time": 63.12489899999973,
          "velocity": 0.8661417322834646,
          "duration": 0.34722166666666965
        },
        {
          "name": "A2",
          "midi": 45,
          "time": 65.20822899999973,
          "velocity": 0.8661417322834646,
          "duration": 0.20399272916667144
        },
        {
          "name": "G3",
          "midi": 55,
          "time": 65.20822899999973,
          "velocity": 0.8661417322834646,
          "duration": 0.20399272916667144
        },
        {
          "name": "A2",
          "midi": 45,
          "time": 65.41656199999974,
          "velocity": 0.8661417322834646,
          "duration": 0.09982622916666628
        },
        {
          "name": "A2",
          "midi": 45,
          "time": 65.52072849999975,
          "velocity": 0.8661417322834646,
          "duration": 0.09982622916666628
        },
        {
          "name": "A2",
          "midi": 45,
          "time": 65.62489499999975,
          "velocity": 0.8661417322834646,
          "duration": 0.09982622916666628
        },
        {
          "name": "A2",
          "midi": 45,
          "time": 65.72906149999976,
          "velocity": 0.8661417322834646,
          "duration": 0.09982622916666628
        },
        {
          "name": "A2",
          "midi": 45,
          "time": 65.83322799999976,
          "velocity": 0.8661417322834646,
          "duration": 0.09982622916666628
        },
        {
          "name": "A2",
          "midi": 45,
          "time": 65.93739449999977,
          "velocity": 0.8661417322834646,
          "duration": 0.09982622916666628
        },
        {
          "name": "G3",
          "midi": 55,
          "time": 66.04156099999977,
          "velocity": 0.8661417322834646,
          "duration": 0.20399272916667144
        },
        {
          "name": "C4",
          "midi": 60,
          "time": 66.04156099999977,
          "velocity": 0.8661417322834646,
          "duration": 0.20399272916667144
        },
        {
          "name": "A3",
          "midi": 57,
          "time": 66.24989399999978,
          "velocity": 0.8661417322834646,
          "duration": 0.09982622916666628
        },
        {
          "name": "D4",
          "midi": 62,
          "time": 66.24989399999978,
          "velocity": 0.8661417322834646,
          "duration": 0.09982622916666628
        },
        {
          "name": "A3",
          "midi": 57,
          "time": 66.35406049999979,
          "velocity": 0.8661417322834646,
          "duration": 0.3081592291666624
        },
        {
          "name": "D4",
          "midi": 62,
          "time": 66.35406049999979,
          "velocity": 0.8661417322834646,
          "duration": 0.3081592291666624
        },
        {
          "name": "D3",
          "midi": 50,
          "time": 66.66655999999979,
          "velocity": 0.8661417322834646,
          "duration": 0.20399272916667144
        },
        {
          "name": "G3",
          "midi": 55,
          "time": 66.66655999999979,
          "velocity": 0.8661417322834646,
          "duration": 0.20399272916667144
        },
        {
          "name": "A2",
          "midi": 45,
          "time": 66.8748929999998,
          "velocity": 0.8661417322834646,
          "duration": 0.20399272916667144
        },
        {
          "name": "G3",
          "midi": 55,
          "time": 66.8748929999998,
          "velocity": 0.8661417322834646,
          "duration": 0.20399272916667144
        },
        {
          "name": "A2",
          "midi": 45,
          "time": 67.08322599999981,
          "velocity": 0.8661417322834646,
          "duration": 0.09982622916666628
        },
        {
          "name": "A2",
          "midi": 45,
          "time": 67.18739249999982,
          "velocity": 0.8661417322834646,
          "duration": 0.09982622916666628
        },
        {
          "name": "A2",
          "midi": 45,
          "time": 67.29155899999982,
          "velocity": 0.8661417322834646,
          "duration": 0.09982622916666628
        },
        {
          "name": "A2",
          "midi": 45,
          "time": 67.39572549999983,
          "velocity": 0.8661417322834646,
          "duration": 0.09982622916666628
        },
        {
          "name": "A2",
          "midi": 45,
          "time": 67.49989199999983,
          "velocity": 0.8661417322834646,
          "duration": 0.09982622916666628
        },
        {
          "name": "A2",
          "midi": 45,
          "time": 67.60405849999984,
          "velocity": 0.8661417322834646,
          "duration": 0.09982622916666628
        },
        {
          "name": "A3",
          "midi": 57,
          "time": 67.70822499999984,
          "velocity": 0.8661417322834646,
          "duration": 0.09982622916666628
        },
        {
          "name": "G3",
          "midi": 55,
          "time": 67.81239149999985,
          "velocity": 0.8661417322834646,
          "duration": 0.09982622916666628
        },
        {
          "name": "E3",
          "midi": 52,
          "time": 67.91655799999985,
          "velocity": 0.8661417322834646,
          "duration": 0.09982622916666628
        },
        {
          "name": "G3",
          "midi": 55,
          "time": 68.02072449999986,
          "velocity": 0.8661417322834646,
          "duration": 0.20399272916667144
        },
        {
          "name": "D#3",
          "midi": 51,
          "time": 68.22905749999987,
          "velocity": 0.8661417322834646,
          "duration": 0.09982622916666628
        },
        {
          "name": "E3",
          "midi": 52,
          "time": 68.33322399999987,
          "velocity": 0.8661417322834646,
          "duration": 0.20399272916667144
        },
        {
          "name": "A2",
          "midi": 45,
          "time": 68.54155699999988,
          "velocity": 0.8661417322834646,
          "duration": 0.20399272916667144
        },
        {
          "name": "G3",
          "midi": 55,
          "time": 68.54155699999988,
          "velocity": 0.8661417322834646,
          "duration": 0.20399272916667144
        },
        {
          "name": "A2",
          "midi": 45,
          "time": 68.7498899999999,
          "velocity": 0.8661417322834646,
          "duration": 0.09982622916666628
        },
        {
          "name": "A2",
          "midi": 45,
          "time": 68.8540564999999,
          "velocity": 0.8661417322834646,
          "duration": 0.09982622916666628
        },
        {
          "name": "A2",
          "midi": 45,
          "time": 68.9582229999999,
          "velocity": 0.8661417322834646,
          "duration": 0.09982622916666628
        },
        {
          "name": "A2",
          "midi": 45,
          "time": 69.06238949999991,
          "velocity": 0.8661417322834646,
          "duration": 0.09982622916666628
        },
        {
          "name": "A2",
          "midi": 45,
          "time": 69.16655599999991,
          "velocity": 0.8661417322834646,
          "duration": 0.09982622916666628
        },
        {
          "name": "A2",
          "midi": 45,
          "time": 69.27072249999992,
          "velocity": 0.8661417322834646,
          "duration": 0.09982622916666628
        },
        {
          "name": "G3",
          "midi": 55,
          "time": 69.37488899999992,
          "velocity": 0.8661417322834646,
          "duration": 0.20399272916667144
        },
        {
          "name": "C4",
          "midi": 60,
          "time": 69.37488899999992,
          "velocity": 0.8661417322834646,
          "duration": 0.20399272916667144
        },
        {
          "name": "A3",
          "midi": 57,
          "time": 69.58322199999994,
          "velocity": 0.8661417322834646,
          "duration": 0.09982622916666628
        },
        {
          "name": "D4",
          "midi": 62,
          "time": 69.58322199999994,
          "velocity": 0.8661417322834646,
          "duration": 0.09982622916666628
        },
        {
          "name": "A3",
          "midi": 57,
          "time": 69.68738849999994,
          "velocity": 0.8661417322834646,
          "duration": 0.3081592291666624
        },
        {
          "name": "D4",
          "midi": 62,
          "time": 69.68738849999994,
          "velocity": 0.8661417322834646,
          "duration": 0.3081592291666624
        },
        {
          "name": "D3",
          "midi": 50,
          "time": 69.99988799999994,
          "velocity": 0.8661417322834646,
          "duration": 0.20399272916667144
        },
        {
          "name": "G3",
          "midi": 55,
          "time": 69.99988799999994,
          "velocity": 0.8661417322834646,
          "duration": 0.20399272916667144
        },
        {
          "name": "A2",
          "midi": 45,
          "time": 70.20822099999995,
          "velocity": 0.8661417322834646,
          "duration": 0.20399272916667144
        },
        {
          "name": "G3",
          "midi": 55,
          "time": 70.20822099999995,
          "velocity": 0.8661417322834646,
          "duration": 0.20399272916667144
        },
        {
          "name": "A2",
          "midi": 45,
          "time": 70.41655399999996,
          "velocity": 0.8661417322834646,
          "duration": 0.09982622916666628
        },
        {
          "name": "A2",
          "midi": 45,
          "time": 70.52072049999997,
          "velocity": 0.8661417322834646,
          "duration": 0.09982622916666628
        },
        {
          "name": "A2",
          "midi": 45,
          "time": 70.62488699999997,
          "velocity": 0.8661417322834646,
          "duration": 0.09982622916666628
        },
        {
          "name": "A2",
          "midi": 45,
          "time": 70.72905349999998,
          "velocity": 0.8661417322834646,
          "duration": 0.09982622916666628
        },
        {
          "name": "A2",
          "midi": 45,
          "time": 70.83321999999998,
          "velocity": 0.8661417322834646,
          "duration": 0.09982622916666628
        },
        {
          "name": "A2",
          "midi": 45,
          "time": 70.93738649999999,
          "velocity": 0.8661417322834646,
          "duration": 0.09982622916666628
        },
        {
          "name": "A3",
          "midi": 57,
          "time": 71.041553,
          "velocity": 0.8661417322834646,
          "duration": 0.09982622916666628
        },
        {
          "name": "G3",
          "midi": 55,
          "time": 71.1457195,
          "velocity": 0.8661417322834646,
          "duration": 0.09982622916666628
        },
        {
          "name": "E3",
          "midi": 52,
          "time": 71.249886,
          "velocity": 0.8661417322834646,
          "duration": 0.09982622916666628
        },
        {
          "name": "G3",
          "midi": 55,
          "time": 71.35405250000001,
          "velocity": 0.8661417322834646,
          "duration": 0.20399272916667144
        },
        {
          "name": "D#3",
          "midi": 51,
          "time": 71.56238550000002,
          "velocity": 0.8661417322834646,
          "duration": 0.09982622916666628
        },
        {
          "name": "E3",
          "midi": 52,
          "time": 71.66655200000002,
          "velocity": 0.8661417322834646,
          "duration": 0.20399272916667144
        },
        {
          "name": "D3",
          "midi": 50,
          "time": 71.87488500000003,
          "velocity": 0.8661417322834646,
          "duration": 0.20399272916667144
        },
        {
          "name": "A3",
          "midi": 57,
          "time": 71.87488500000003,
          "velocity": 0.8661417322834646,
          "duration": 0.20399272916667144
        },
        {
          "name": "D4",
          "midi": 62,
          "time": 71.87488500000003,
          "velocity": 0.8661417322834646,
          "duration": 0.20399272916667144
        },
        {
          "name": "D3",
          "midi": 50,
          "time": 72.08321800000004,
          "velocity": 0.8661417322834646,
          "duration": 0.5555546666666658
        },
        {
          "name": "A3",
          "midi": 57,
          "time": 72.08321800000004,
          "velocity": 0.8661417322834646,
          "duration": 0.5555546666666658
        },
        {
          "name": "D4",
          "midi": 62,
          "time": 72.08321800000004,
          "velocity": 0.8661417322834646,
          "duration": 0.5555546666666658
        },
        {
          "name": "G2",
          "midi": 43,
          "time": 72.70821700000005,
          "velocity": 0.8661417322834646,
          "duration": 0.20399272916667144
        },
        {
          "name": "D3",
          "midi": 50,
          "time": 72.70821700000005,
          "velocity": 0.8661417322834646,
          "duration": 0.20399272916667144
        },
        {
          "name": "G3",
          "midi": 55,
          "time": 72.70821700000005,
          "velocity": 0.8661417322834646,
          "duration": 0.20399272916667144
        },
        {
          "name": "G2",
          "midi": 43,
          "time": 72.91655000000006,
          "velocity": 0.8661417322834646,
          "duration": 0.5555546666666658
        },
        {
          "name": "D3",
          "midi": 50,
          "time": 72.91655000000006,
          "velocity": 0.8661417322834646,
          "duration": 0.5555546666666658
        },
        {
          "name": "G3",
          "midi": 55,
          "time": 72.91655000000006,
          "velocity": 0.8661417322834646,
          "duration": 0.5555546666666658
        },
        {
          "name": "D3",
          "midi": 50,
          "time": 73.54154900000006,
          "velocity": 0.8661417322834646,
          "duration": 0.20399272916667144
        },
        {
          "name": "A3",
          "midi": 57,
          "time": 73.54154900000006,
          "velocity": 0.8661417322834646,
          "duration": 0.20399272916667144
        },
        {
          "name": "D4",
          "midi": 62,
          "time": 73.54154900000006,
          "velocity": 0.8661417322834646,
          "duration": 0.20399272916667144
        },
        {
          "name": "D3",
          "midi": 50,
          "time": 73.74988200000007,
          "velocity": 0.8661417322834646,
          "duration": 0.5555546666666658
        },
        {
          "name": "A3",
          "midi": 57,
          "time": 73.74988200000007,
          "velocity": 0.8661417322834646,
          "duration": 0.5555546666666658
        },
        {
          "name": "D4",
          "midi": 62,
          "time": 73.74988200000007,
          "velocity": 0.8661417322834646,
          "duration": 0.5555546666666658
        },
        {
          "name": "C3",
          "midi": 48,
          "time": 74.37488100000007,
          "velocity": 0.8661417322834646,
          "duration": 0.3081592291666624
        },
        {
          "name": "B2",
          "midi": 47,
          "time": 74.68738050000007,
          "velocity": 0.8661417322834646,
          "duration": 0.3081592291666624
        },
        {
          "name": "G2",
          "midi": 43,
          "time": 74.99988000000008,
          "velocity": 0.8661417322834646,
          "duration": 0.20399272916667144
        },
        {
          "name": "A2",
          "midi": 45,
          "time": 75.20821300000009,
          "velocity": 0.8661417322834646,
          "duration": 0.20399272916667144
        },
        {
          "name": "G3",
          "midi": 55,
          "time": 75.20821300000009,
          "velocity": 0.8661417322834646,
          "duration": 0.20399272916667144
        },
        {
          "name": "A2",
          "midi": 45,
          "time": 75.4165460000001,
          "velocity": 0.8661417322834646,
          "duration": 0.09982622916666628
        },
        {
          "name": "A2",
          "midi": 45,
          "time": 75.5207125000001,
          "velocity": 0.8661417322834646,
          "duration": 0.09982622916666628
        },
        {
          "name": "A2",
          "midi": 45,
          "time": 75.6248790000001,
          "velocity": 0.8661417322834646,
          "duration": 0.09982622916666628
        },
        {
          "name": "A2",
          "midi": 45,
          "time": 75.72904550000011,
          "velocity": 0.8661417322834646,
          "duration": 0.09982622916666628
        },
        {
          "name": "A2",
          "midi": 45,
          "time": 75.83321200000012,
          "velocity": 0.8661417322834646,
          "duration": 0.09982622916666628
        },
        {
          "name": "A2",
          "midi": 45,
          "time": 75.93737850000012,
          "velocity": 0.8661417322834646,
          "duration": 0.09982622916666628
        },
        {
          "name": "G3",
          "midi": 55,
          "time": 76.04154500000013,
          "velocity": 0.8661417322834646,
          "duration": 0.20399272916667144
        },
        {
          "name": "C4",
          "midi": 60,
          "time": 76.04154500000013,
          "velocity": 0.8661417322834646,
          "duration": 0.20399272916667144
        },
        {
          "name": "A3",
          "midi": 57,
          "time": 76.24987800000014,
          "velocity": 0.8661417322834646,
          "duration": 0.09982622916666628
        },
        {
          "name": "D4",
          "midi": 62,
          "time": 76.24987800000014,
          "velocity": 0.8661417322834646,
          "duration": 0.09982622916666628
        },
        {
          "name": "A3",
          "midi": 57,
          "time": 76.35404450000014,
          "velocity": 0.8661417322834646,
          "duration": 0.3081592291666624
        },
        {
          "name": "D4",
          "midi": 62,
          "time": 76.35404450000014,
          "velocity": 0.8661417322834646,
          "duration": 0.3081592291666624
        },
        {
          "name": "D3",
          "midi": 50,
          "time": 76.66654400000014,
          "velocity": 0.8661417322834646,
          "duration": 0.20399272916667144
        },
        {
          "name": "G3",
          "midi": 55,
          "time": 76.66654400000014,
          "velocity": 0.8661417322834646,
          "duration": 0.20399272916667144
        },
        {
          "name": "A2",
          "midi": 45,
          "time": 76.87487700000015,
          "velocity": 0.8661417322834646,
          "duration": 0.20399272916667144
        },
        {
          "name": "G3",
          "midi": 55,
          "time": 76.87487700000015,
          "velocity": 0.8661417322834646,
          "duration": 0.20399272916667144
        },
        {
          "name": "A2",
          "midi": 45,
          "time": 77.08321000000016,
          "velocity": 0.8661417322834646,
          "duration": 0.09982622916666628
        },
        {
          "name": "A2",
          "midi": 45,
          "time": 77.18737650000017,
          "velocity": 0.8661417322834646,
          "duration": 0.09982622916666628
        },
        {
          "name": "A2",
          "midi": 45,
          "time": 77.29154300000017,
          "velocity": 0.8661417322834646,
          "duration": 0.09982622916666628
        },
        {
          "name": "A2",
          "midi": 45,
          "time": 77.39570950000018,
          "velocity": 0.8661417322834646,
          "duration": 0.09982622916666628
        },
        {
          "name": "A2",
          "midi": 45,
          "time": 77.49987600000019,
          "velocity": 0.8661417322834646,
          "duration": 0.09982622916666628
        },
        {
          "name": "A2",
          "midi": 45,
          "time": 77.60404250000019,
          "velocity": 0.8661417322834646,
          "duration": 0.09982622916666628
        },
        {
          "name": "A3",
          "midi": 57,
          "time": 77.7082090000002,
          "velocity": 0.8661417322834646,
          "duration": 0.09982622916666628
        },
        {
          "name": "G3",
          "midi": 55,
          "time": 77.8123755000002,
          "velocity": 0.8661417322834646,
          "duration": 0.09982622916666628
        },
        {
          "name": "E3",
          "midi": 52,
          "time": 77.9165420000002,
          "velocity": 0.8661417322834646,
          "duration": 0.09982622916666628
        },
        {
          "name": "G3",
          "midi": 55,
          "time": 78.02070850000021,
          "velocity": 0.8661417322834646,
          "duration": 0.20399272916667144
        },
        {
          "name": "D#3",
          "midi": 51,
          "time": 78.22904150000022,
          "velocity": 0.8661417322834646,
          "duration": 0.09982622916666628
        },
        {
          "name": "E3",
          "midi": 52,
          "time": 78.33320800000023,
          "velocity": 0.8661417322834646,
          "duration": 0.20399272916667144
        },
        {
          "name": "E2",
          "midi": 40,
          "time": 78.54154100000024,
          "velocity": 0.8661417322834646,
          "duration": 0.20399272916667144
        },
        {
          "name": "B2",
          "midi": 47,
          "time": 78.54154100000024,
          "velocity": 0.8661417322834646,
          "duration": 0.20399272916667144
        },
        {
          "name": "E3",
          "midi": 52,
          "time": 78.54154100000024,
          "velocity": 0.8661417322834646,
          "duration": 0.20399272916667144
        },
        {
          "name": "E2",
          "midi": 40,
          "time": 78.74987400000025,
          "velocity": 0.8661417322834646,
          "duration": 1.354164499999996
        },
        {
          "name": "B2",
          "midi": 47,
          "time": 78.74987400000025,
          "velocity": 0.8661417322834646,
          "duration": 1.354164499999996
        },
        {
          "name": "E3",
          "midi": 52,
          "time": 78.74987400000025,
          "velocity": 0.8661417322834646,
          "duration": 1.354164499999996
        },
        {
          "name": "G2",
          "midi": 43,
          "time": 80.20820500000025,
          "velocity": 0.8661417322834646,
          "duration": 0.273437062499994
        },
        {
          "name": "F#2",
          "midi": 42,
          "time": 80.48598233333358,
          "velocity": 0.8661417322834646,
          "duration": 0.273437062499994
        },
        {
          "name": "G2",
          "midi": 43,
          "time": 80.76375966666691,
          "velocity": 0.8661417322834646,
          "duration": 0.273437062499994
        },
        {
          "name": "C3",
          "midi": 48,
          "time": 81.04153700000025,
          "velocity": 0.8661417322834646,
          "duration": 0.273437062499994
        },
        {
          "name": "B2",
          "midi": 47,
          "time": 81.31931433333358,
          "velocity": 0.8661417322834646,
          "duration": 0.273437062499994
        },
        {
          "name": "G2",
          "midi": 43,
          "time": 81.59709166666691,
          "velocity": 0.8661417322834646,
          "duration": 0.273437062499994
        },
        {
          "name": "A2",
          "midi": 45,
          "time": 81.87486900000025,
          "velocity": 0.8661417322834646,
          "duration": 0.20399272916667144
        },
        {
          "name": "E3",
          "midi": 52,
          "time": 81.87486900000025,
          "velocity": 0.8661417322834646,
          "duration": 0.20399272916667144
        },
        {
          "name": "A2",
          "midi": 45,
          "time": 82.29153500000025,
          "velocity": 0.8661417322834646,
          "duration": 0.34722166666666965
        },
        {
          "name": "E3",
          "midi": 52,
          "time": 82.29153500000025,
          "velocity": 0.8661417322834646,
          "duration": 0.34722166666666965
        },
        {
          "name": "G2",
          "midi": 43,
          "time": 82.70820100000026,
          "velocity": 0.8661417322834646,
          "duration": 0.09982622916666628
        },
        {
          "name": "A2",
          "midi": 45,
          "time": 82.81236750000026,
          "velocity": 0.8661417322834646,
          "duration": 0.09982622916666628
        },
        {
          "name": "E3",
          "midi": 52,
          "time": 82.81236750000026,
          "velocity": 0.8661417322834646,
          "duration": 0.09982622916666628
        },
        {
          "name": "A2",
          "midi": 45,
          "time": 83.12486700000026,
          "velocity": 0.8661417322834646,
          "duration": 0.34722166666666965
        },
        {
          "name": "E3",
          "midi": 52,
          "time": 83.12486700000026,
          "velocity": 0.8661417322834646,
          "duration": 0.34722166666666965
        },
        {
          "name": "G2",
          "midi": 43,
          "time": 83.54153300000027,
          "velocity": 0.8661417322834646,
          "duration": 0.09982622916666628
        },
        {
          "name": "A2",
          "midi": 45,
          "time": 83.64569950000028,
          "velocity": 0.8661417322834646,
          "duration": 0.09982622916666628
        },
        {
          "name": "E3",
          "midi": 52,
          "time": 83.64569950000028,
          "velocity": 0.8661417322834646,
          "duration": 0.09982622916666628
        },
        {
          "name": "A2",
          "midi": 45,
          "time": 83.95819900000028,
          "velocity": 0.8661417322834646,
          "duration": 0.34722166666666965
        },
        {
          "name": "E3",
          "midi": 52,
          "time": 83.95819900000028,
          "velocity": 0.8661417322834646,
          "duration": 0.34722166666666965
        },
        {
          "name": "C3",
          "midi": 48,
          "time": 84.37486500000028,
          "velocity": 0.8661417322834646,
          "duration": 0.3081592291666624
        },
        {
          "name": "G3",
          "midi": 55,
          "time": 84.37486500000028,
          "velocity": 0.8661417322834646,
          "duration": 0.3081592291666624
        },
        {
          "name": "G2",
          "midi": 43,
          "time": 84.68736450000029,
          "velocity": 0.8661417322834646,
          "duration": 0.3081592291666624
        },
        {
          "name": "D3",
          "midi": 50,
          "time": 84.68736450000029,
          "velocity": 0.8661417322834646,
          "duration": 0.3081592291666624
        },
        {
          "name": "A2",
          "midi": 45,
          "time": 84.99986400000029,
          "velocity": 0.8661417322834646,
          "duration": 0.20399272916667144
        },
        {
          "name": "E3",
          "midi": 52,
          "time": 84.99986400000029,
          "velocity": 0.8661417322834646,
          "duration": 0.20399272916667144
        },
        {
          "name": "A2",
          "midi": 45,
          "time": 85.4165300000003,
          "velocity": 0.8661417322834646,
          "duration": 0.34722166666666965
        },
        {
          "name": "E3",
          "midi": 52,
          "time": 85.4165300000003,
          "velocity": 0.8661417322834646,
          "duration": 0.34722166666666965
        },
        {
          "name": "G2",
          "midi": 43,
          "time": 85.8331960000003,
          "velocity": 0.8661417322834646,
          "duration": 0.09982622916666628
        },
        {
          "name": "A2",
          "midi": 45,
          "time": 85.9373625000003,
          "velocity": 0.8661417322834646,
          "duration": 0.09982622916666628
        },
        {
          "name": "E3",
          "midi": 52,
          "time": 85.9373625000003,
          "velocity": 0.8661417322834646,
          "duration": 0.09982622916666628
        },
        {
          "name": "A2",
          "midi": 45,
          "time": 86.2498620000003,
          "velocity": 0.8661417322834646,
          "duration": 0.34722166666666965
        },
        {
          "name": "E3",
          "midi": 52,
          "time": 86.2498620000003,
          "velocity": 0.8661417322834646,
          "duration": 0.34722166666666965
        },
        {
          "name": "G2",
          "midi": 43,
          "time": 86.66652800000031,
          "velocity": 0.8661417322834646,
          "duration": 0.09982622916666628
        },
        {
          "name": "A2",
          "midi": 45,
          "time": 86.77069450000032,
          "velocity": 0.8661417322834646,
          "duration": 0.09982622916666628
        },
        {
          "name": "E3",
          "midi": 52,
          "time": 86.77069450000032,
          "velocity": 0.8661417322834646,
          "duration": 0.09982622916666628
        },
        {
          "name": "A2",
          "midi": 45,
          "time": 87.08319400000032,
          "velocity": 0.8661417322834646,
          "duration": 0.34722166666666965
        },
        {
          "name": "E3",
          "midi": 52,
          "time": 87.08319400000032,
          "velocity": 0.8661417322834646,
          "duration": 0.34722166666666965
        },
        {
          "name": "C3",
          "midi": 48,
          "time": 87.49986000000033,
          "velocity": 0.8661417322834646,
          "duration": 0.3081592291666624
        },
        {
          "name": "G3",
          "midi": 55,
          "time": 87.49986000000033,
          "velocity": 0.8661417322834646,
          "duration": 0.3081592291666624
        },
        {
          "name": "G2",
          "midi": 43,
          "time": 87.81235950000033,
          "velocity": 0.8661417322834646,
          "duration": 0.3081592291666624
        },
        {
          "name": "D3",
          "midi": 50,
          "time": 87.81235950000033,
          "velocity": 0.8661417322834646,
          "duration": 0.3081592291666624
        },
        {
          "name": "A2",
          "midi": 45,
          "time": 88.12485900000033,
          "velocity": 0.8661417322834646,
          "duration": 0.20399272916667144
        },
        {
          "name": "E3",
          "midi": 52,
          "time": 88.12485900000033,
          "velocity": 0.8661417322834646,
          "duration": 0.20399272916667144
        },
        {
          "name": "A2",
          "midi": 45,
          "time": 88.54152500000033,
          "velocity": 0.8661417322834646,
          "duration": 0.34722166666666965
        },
        {
          "name": "E3",
          "midi": 52,
          "time": 88.54152500000033,
          "velocity": 0.8661417322834646,
          "duration": 0.34722166666666965
        },
        {
          "name": "G2",
          "midi": 43,
          "time": 88.95819100000034,
          "velocity": 0.8661417322834646,
          "duration": 0.09982622916666628
        },
        {
          "name": "A2",
          "midi": 45,
          "time": 89.06235750000035,
          "velocity": 0.8661417322834646,
          "duration": 0.09982622916666628
        },
        {
          "name": "E3",
          "midi": 52,
          "time": 89.06235750000035,
          "velocity": 0.8661417322834646,
          "duration": 0.09982622916666628
        },
        {
          "name": "A2",
          "midi": 45,
          "time": 89.37485700000035,
          "velocity": 0.8661417322834646,
          "duration": 0.34722166666666965
        },
        {
          "name": "E3",
          "midi": 52,
          "time": 89.37485700000035,
          "velocity": 0.8661417322834646,
          "duration": 0.34722166666666965
        },
        {
          "name": "G2",
          "midi": 43,
          "time": 89.79152300000035,
          "velocity": 0.8661417322834646,
          "duration": 0.09982622916666628
        },
        {
          "name": "A2",
          "midi": 45,
          "time": 89.89568950000036,
          "velocity": 0.8661417322834646,
          "duration": 0.09982622916666628
        },
        {
          "name": "E3",
          "midi": 52,
          "time": 89.89568950000036,
          "velocity": 0.8661417322834646,
          "duration": 0.09982622916666628
        },
        {
          "name": "A2",
          "midi": 45,
          "time": 90.20818900000036,
          "velocity": 0.8661417322834646,
          "duration": 0.34722166666666965
        },
        {
          "name": "E3",
          "midi": 52,
          "time": 90.20818900000036,
          "velocity": 0.8661417322834646,
          "duration": 0.34722166666666965
        },
        {
          "name": "C3",
          "midi": 48,
          "time": 90.62485500000037,
          "velocity": 0.8661417322834646,
          "duration": 0.3081592291666624
        },
        {
          "name": "G3",
          "midi": 55,
          "time": 90.62485500000037,
          "velocity": 0.8661417322834646,
          "duration": 0.3081592291666624
        },
        {
          "name": "G2",
          "midi": 43,
          "time": 90.93735450000037,
          "velocity": 0.8661417322834646,
          "duration": 0.3081592291666624
        },
        {
          "name": "D3",
          "midi": 50,
          "time": 90.93735450000037,
          "velocity": 0.8661417322834646,
          "duration": 0.3081592291666624
        },
        {
          "name": "A2",
          "midi": 45,
          "time": 91.24985400000037,
          "velocity": 0.8661417322834646,
          "duration": 0.20399272916667144
        },
        {
          "name": "E3",
          "midi": 52,
          "time": 91.24985400000037,
          "velocity": 0.8661417322834646,
          "duration": 0.20399272916667144
        },
        {
          "name": "A2",
          "midi": 45,
          "time": 91.66652000000038,
          "velocity": 0.8661417322834646,
          "duration": 0.34722166666666965
        },
        {
          "name": "E3",
          "midi": 52,
          "time": 91.66652000000038,
          "velocity": 0.8661417322834646,
          "duration": 0.34722166666666965
        },
        {
          "name": "G2",
          "midi": 43,
          "time": 92.08318600000038,
          "velocity": 0.8661417322834646,
          "duration": 0.09982622916666628
        },
        {
          "name": "A2",
          "midi": 45,
          "time": 92.18735250000039,
          "velocity": 0.8661417322834646,
          "duration": 0.09982622916666628
        },
        {
          "name": "E3",
          "midi": 52,
          "time": 92.18735250000039,
          "velocity": 0.8661417322834646,
          "duration": 0.09982622916666628
        },
        {
          "name": "A2",
          "midi": 45,
          "time": 92.49985200000039,
          "velocity": 0.8661417322834646,
          "duration": 0.34722166666666965
        },
        {
          "name": "E3",
          "midi": 52,
          "time": 92.49985200000039,
          "velocity": 0.8661417322834646,
          "duration": 0.34722166666666965
        },
        {
          "name": "A2",
          "midi": 45,
          "time": 94.58318200000039,
          "velocity": 0.8661417322834646,
          "duration": 0.20399272916667144
        },
        {
          "name": "G3",
          "midi": 55,
          "time": 94.58318200000039,
          "velocity": 0.8661417322834646,
          "duration": 0.20399272916667144
        },
        {
          "name": "A2",
          "midi": 45,
          "time": 94.7915150000004,
          "velocity": 0.8661417322834646,
          "duration": 0.09982622916666628
        },
        {
          "name": "A2",
          "midi": 45,
          "time": 94.8956815000004,
          "velocity": 0.8661417322834646,
          "duration": 0.09982622916666628
        },
        {
          "name": "A2",
          "midi": 45,
          "time": 94.99984800000041,
          "velocity": 0.8661417322834646,
          "duration": 0.09982622916666628
        },
        {
          "name": "A2",
          "midi": 45,
          "time": 95.10401450000042,
          "velocity": 0.8661417322834646,
          "duration": 0.09982622916666628
        },
        {
          "name": "A2",
          "midi": 45,
          "time": 95.20818100000042,
          "velocity": 0.8661417322834646,
          "duration": 0.09982622916666628
        },
        {
          "name": "A2",
          "midi": 45,
          "time": 95.31234750000043,
          "velocity": 0.8661417322834646,
          "duration": 0.09982622916666628
        },
        {
          "name": "G3",
          "midi": 55,
          "time": 95.41651400000043,
          "velocity": 0.8661417322834646,
          "duration": 0.20399272916667144
        },
        {
          "name": "C4",
          "midi": 60,
          "time": 95.41651400000043,
          "velocity": 0.8661417322834646,
          "duration": 0.20399272916667144
        },
        {
          "name": "A3",
          "midi": 57,
          "time": 95.62484700000044,
          "velocity": 0.8661417322834646,
          "duration": 0.09982622916666628
        },
        {
          "name": "D4",
          "midi": 62,
          "time": 95.62484700000044,
          "velocity": 0.8661417322834646,
          "duration": 0.09982622916666628
        },
        {
          "name": "A3",
          "midi": 57,
          "time": 95.72901350000045,
          "velocity": 0.8661417322834646,
          "duration": 0.3081592291666624
        },
        {
          "name": "D4",
          "midi": 62,
          "time": 95.72901350000045,
          "velocity": 0.8661417322834646,
          "duration": 0.3081592291666624
        },
        {
          "name": "D3",
          "midi": 50,
          "time": 96.04151300000045,
          "velocity": 0.8661417322834646,
          "duration": 0.20399272916667144
        },
        {
          "name": "G3",
          "midi": 55,
          "time": 96.04151300000045,
          "velocity": 0.8661417322834646,
          "duration": 0.20399272916667144
        },
        {
          "name": "A2",
          "midi": 45,
          "time": 96.24984600000046,
          "velocity": 0.8661417322834646,
          "duration": 0.20399272916667144
        },
        {
          "name": "G3",
          "midi": 55,
          "time": 96.24984600000046,
          "velocity": 0.8661417322834646,
          "duration": 0.20399272916667144
        },
        {
          "name": "A2",
          "midi": 45,
          "time": 96.45817900000047,
          "velocity": 0.8661417322834646,
          "duration": 0.09982622916666628
        },
        {
          "name": "A2",
          "midi": 45,
          "time": 96.56234550000048,
          "velocity": 0.8661417322834646,
          "duration": 0.09982622916666628
        },
        {
          "name": "A2",
          "midi": 45,
          "time": 96.66651200000048,
          "velocity": 0.8661417322834646,
          "duration": 0.09982622916666628
        },
        {
          "name": "A2",
          "midi": 45,
          "time": 96.77067850000049,
          "velocity": 0.8661417322834646,
          "duration": 0.09982622916666628
        },
        {
          "name": "A2",
          "midi": 45,
          "time": 96.87484500000049,
          "velocity": 0.8661417322834646,
          "duration": 0.09982622916666628
        },
        {
          "name": "A2",
          "midi": 45,
          "time": 96.9790115000005,
          "velocity": 0.8661417322834646,
          "duration": 0.09982622916666628
        },
        {
          "name": "A3",
          "midi": 57,
          "time": 97.0831780000005,
          "velocity": 0.8661417322834646,
          "duration": 0.09982622916666628
        },
        {
          "name": "G3",
          "midi": 55,
          "time": 97.1873445000005,
          "velocity": 0.8661417322834646,
          "duration": 0.09982622916666628
        },
        {
          "name": "E3",
          "midi": 52,
          "time": 97.29151100000051,
          "velocity": 0.8661417322834646,
          "duration": 0.09982622916666628
        },
        {
          "name": "G3",
          "midi": 55,
          "time": 97.39567750000052,
          "velocity": 0.8661417322834646,
          "duration": 0.20399272916667144
        },
        {
          "name": "D#3",
          "midi": 51,
          "time": 97.60401050000053,
          "velocity": 0.8661417322834646,
          "duration": 0.09982622916666628
        },
        {
          "name": "E3",
          "midi": 52,
          "time": 97.70817700000053,
          "velocity": 0.8661417322834646,
          "duration": 0.20399272916667144
        },
        {
          "name": "A2",
          "midi": 45,
          "time": 97.91651000000054,
          "velocity": 0.8661417322834646,
          "duration": 0.20399272916667144
        },
        {
          "name": "G3",
          "midi": 55,
          "time": 97.91651000000054,
          "velocity": 0.8661417322834646,
          "duration": 0.20399272916667144
        },
        {
          "name": "A2",
          "midi": 45,
          "time": 98.12484300000055,
          "velocity": 0.8661417322834646,
          "duration": 0.09982622916666628
        },
        {
          "name": "A2",
          "midi": 45,
          "time": 98.22900950000056,
          "velocity": 0.8661417322834646,
          "duration": 0.09982622916666628
        },
        {
          "name": "A2",
          "midi": 45,
          "time": 98.33317600000056,
          "velocity": 0.8661417322834646,
          "duration": 0.09982622916666628
        },
        {
          "name": "A2",
          "midi": 45,
          "time": 98.43734250000057,
          "velocity": 0.8661417322834646,
          "duration": 0.09982622916666628
        },
        {
          "name": "A2",
          "midi": 45,
          "time": 98.54150900000057,
          "velocity": 0.8661417322834646,
          "duration": 0.09982622916666628
        },
        {
          "name": "A2",
          "midi": 45,
          "time": 98.64567550000058,
          "velocity": 0.8661417322834646,
          "duration": 0.09982622916666628
        },
        {
          "name": "G3",
          "midi": 55,
          "time": 98.74984200000058,
          "velocity": 0.8661417322834646,
          "duration": 0.20399272916667144
        },
        {
          "name": "C4",
          "midi": 60,
          "time": 98.74984200000058,
          "velocity": 0.8661417322834646,
          "duration": 0.20399272916667144
        },
        {
          "name": "A3",
          "midi": 57,
          "time": 98.9581750000006,
          "velocity": 0.8661417322834646,
          "duration": 0.09982622916666628
        },
        {
          "name": "D4",
          "midi": 62,
          "time": 98.9581750000006,
          "velocity": 0.8661417322834646,
          "duration": 0.09982622916666628
        },
        {
          "name": "A3",
          "midi": 57,
          "time": 99.0623415000006,
          "velocity": 0.8661417322834646,
          "duration": 0.3081592291666624
        },
        {
          "name": "D4",
          "midi": 62,
          "time": 99.0623415000006,
          "velocity": 0.8661417322834646,
          "duration": 0.3081592291666624
        },
        {
          "name": "D3",
          "midi": 50,
          "time": 99.3748410000006,
          "velocity": 0.8661417322834646,
          "duration": 0.20399272916667144
        },
        {
          "name": "G3",
          "midi": 55,
          "time": 99.3748410000006,
          "velocity": 0.8661417322834646,
          "duration": 0.20399272916667144
        },
        {
          "name": "A2",
          "midi": 45,
          "time": 99.58317400000061,
          "velocity": 0.8661417322834646,
          "duration": 0.20399272916667144
        },
        {
          "name": "G3",
          "midi": 55,
          "time": 99.58317400000061,
          "velocity": 0.8661417322834646,
          "duration": 0.20399272916667144
        },
        {
          "name": "A2",
          "midi": 45,
          "time": 99.79150700000062,
          "velocity": 0.8661417322834646,
          "duration": 0.09982622916666628
        },
        {
          "name": "A2",
          "midi": 45,
          "time": 99.89567350000063,
          "velocity": 0.8661417322834646,
          "duration": 0.09982622916666628
        },
        {
          "name": "A2",
          "midi": 45,
          "time": 99.99984000000063,
          "velocity": 0.8661417322834646,
          "duration": 0.09982622916666628
        },
        {
          "name": "A2",
          "midi": 45,
          "time": 100.10400650000064,
          "velocity": 0.8661417322834646,
          "duration": 0.09982622916666628
        },
        {
          "name": "A2",
          "midi": 45,
          "time": 100.20817300000064,
          "velocity": 0.8661417322834646,
          "duration": 0.09982622916666628
        },
        {
          "name": "A2",
          "midi": 45,
          "time": 100.31233950000065,
          "velocity": 0.8661417322834646,
          "duration": 0.09982622916666628
        },
        {
          "name": "A3",
          "midi": 57,
          "time": 100.41650600000065,
          "velocity": 0.8661417322834646,
          "duration": 0.09982622916666628
        },
        {
          "name": "G3",
          "midi": 55,
          "time": 100.52067250000066,
          "velocity": 0.8661417322834646,
          "duration": 0.09982622916666628
        },
        {
          "name": "E3",
          "midi": 52,
          "time": 100.62483900000066,
          "velocity": 0.8661417322834646,
          "duration": 0.09982622916666628
        },
        {
          "name": "G3",
          "midi": 55,
          "time": 100.72900550000067,
          "velocity": 0.8661417322834646,
          "duration": 0.20399272916667144
        },
        {
          "name": "D#3",
          "midi": 51,
          "time": 100.93733850000068,
          "velocity": 0.8661417322834646,
          "duration": 0.09982622916666628
        },
        {
          "name": "E3",
          "midi": 52,
          "time": 101.04150500000068,
          "velocity": 0.8661417322834646,
          "duration": 0.20399272916667144
        },
        {
          "name": "D3",
          "midi": 50,
          "time": 101.2498380000007,
          "velocity": 0.8661417322834646,
          "duration": 0.20399272916667144
        },
        {
          "name": "A3",
          "midi": 57,
          "time": 101.2498380000007,
          "velocity": 0.8661417322834646,
          "duration": 0.20399272916667144
        },
        {
          "name": "D4",
          "midi": 62,
          "time": 101.2498380000007,
          "velocity": 0.8661417322834646,
          "duration": 0.20399272916667144
        },
        {
          "name": "D3",
          "midi": 50,
          "time": 101.4581710000007,
          "velocity": 0.8661417322834646,
          "duration": 0.5555546666666658
        },
        {
          "name": "A3",
          "midi": 57,
          "time": 101.4581710000007,
          "velocity": 0.8661417322834646,
          "duration": 0.5555546666666658
        },
        {
          "name": "D4",
          "midi": 62,
          "time": 101.4581710000007,
          "velocity": 0.8661417322834646,
          "duration": 0.5555546666666658
        },
        {
          "name": "G2",
          "midi": 43,
          "time": 102.0831700000007,
          "velocity": 0.8661417322834646,
          "duration": 0.20399272916667144
        },
        {
          "name": "D3",
          "midi": 50,
          "time": 102.0831700000007,
          "velocity": 0.8661417322834646,
          "duration": 0.20399272916667144
        },
        {
          "name": "G3",
          "midi": 55,
          "time": 102.0831700000007,
          "velocity": 0.8661417322834646,
          "duration": 0.20399272916667144
        },
        {
          "name": "G2",
          "midi": 43,
          "time": 102.29150300000072,
          "velocity": 0.8661417322834646,
          "duration": 0.5555546666666658
        },
        {
          "name": "D3",
          "midi": 50,
          "time": 102.29150300000072,
          "velocity": 0.8661417322834646,
          "duration": 0.5555546666666658
        },
        {
          "name": "G3",
          "midi": 55,
          "time": 102.29150300000072,
          "velocity": 0.8661417322834646,
          "duration": 0.5555546666666658
        },
        {
          "name": "D3",
          "midi": 50,
          "time": 102.91650200000072,
          "velocity": 0.8661417322834646,
          "duration": 0.20399272916667144
        },
        {
          "name": "A3",
          "midi": 57,
          "time": 102.91650200000072,
          "velocity": 0.8661417322834646,
          "duration": 0.20399272916667144
        },
        {
          "name": "D4",
          "midi": 62,
          "time": 102.91650200000072,
          "velocity": 0.8661417322834646,
          "duration": 0.20399272916667144
        },
        {
          "name": "D3",
          "midi": 50,
          "time": 103.12483500000073,
          "velocity": 0.8661417322834646,
          "duration": 0.5555546666666658
        },
        {
          "name": "A3",
          "midi": 57,
          "time": 103.12483500000073,
          "velocity": 0.8661417322834646,
          "duration": 0.5555546666666658
        },
        {
          "name": "D4",
          "midi": 62,
          "time": 103.12483500000073,
          "velocity": 0.8661417322834646,
          "duration": 0.5555546666666658
        },
        {
          "name": "C3",
          "midi": 48,
          "time": 103.74983400000073,
          "velocity": 0.8661417322834646,
          "duration": 0.3081592291666624
        },
        {
          "name": "B2",
          "midi": 47,
          "time": 104.06233350000073,
          "velocity": 0.8661417322834646,
          "duration": 0.3081592291666624
        },
        {
          "name": "G2",
          "midi": 43,
          "time": 104.37483300000073,
          "velocity": 0.8661417322834646,
          "duration": 0.20399272916667144
        },
        {
          "name": "A2",
          "midi": 45,
          "time": 104.58316600000074,
          "velocity": 0.8661417322834646,
          "duration": 0.20399272916667144
        },
        {
          "name": "G3",
          "midi": 55,
          "time": 104.58316600000074,
          "velocity": 0.8661417322834646,
          "duration": 0.20399272916667144
        },
        {
          "name": "A2",
          "midi": 45,
          "time": 104.79149900000075,
          "velocity": 0.8661417322834646,
          "duration": 0.09982622916666628
        },
        {
          "name": "A2",
          "midi": 45,
          "time": 104.89566550000076,
          "velocity": 0.8661417322834646,
          "duration": 0.09982622916666628
        },
        {
          "name": "A2",
          "midi": 45,
          "time": 104.99983200000077,
          "velocity": 0.8661417322834646,
          "duration": 0.09982622916666628
        },
        {
          "name": "A2",
          "midi": 45,
          "time": 105.10399850000077,
          "velocity": 0.8661417322834646,
          "duration": 0.09982622916666628
        },
        {
          "name": "A2",
          "midi": 45,
          "time": 105.20816500000078,
          "velocity": 0.8661417322834646,
          "duration": 0.09982622916666628
        },
        {
          "name": "A2",
          "midi": 45,
          "time": 105.31233150000078,
          "velocity": 0.8661417322834646,
          "duration": 0.09982622916666628
        },
        {
          "name": "G3",
          "midi": 55,
          "time": 105.41649800000079,
          "velocity": 0.8661417322834646,
          "duration": 0.20399272916667144
        },
        {
          "name": "C4",
          "midi": 60,
          "time": 105.41649800000079,
          "velocity": 0.8661417322834646,
          "duration": 0.20399272916667144
        },
        {
          "name": "A3",
          "midi": 57,
          "time": 105.6248310000008,
          "velocity": 0.8661417322834646,
          "duration": 0.09982622916666628
        },
        {
          "name": "D4",
          "midi": 62,
          "time": 105.6248310000008,
          "velocity": 0.8661417322834646,
          "duration": 0.09982622916666628
        },
        {
          "name": "A3",
          "midi": 57,
          "time": 105.7289975000008,
          "velocity": 0.8661417322834646,
          "duration": 0.3081592291666624
        },
        {
          "name": "D4",
          "midi": 62,
          "time": 105.7289975000008,
          "velocity": 0.8661417322834646,
          "duration": 0.3081592291666624
        },
        {
          "name": "D3",
          "midi": 50,
          "time": 106.0414970000008,
          "velocity": 0.8661417322834646,
          "duration": 0.20399272916667144
        },
        {
          "name": "G3",
          "midi": 55,
          "time": 106.0414970000008,
          "velocity": 0.8661417322834646,
          "duration": 0.20399272916667144
        },
        {
          "name": "A2",
          "midi": 45,
          "time": 106.24983000000081,
          "velocity": 0.8661417322834646,
          "duration": 0.20399272916667144
        },
        {
          "name": "G3",
          "midi": 55,
          "time": 106.24983000000081,
          "velocity": 0.8661417322834646,
          "duration": 0.20399272916667144
        },
        {
          "name": "A2",
          "midi": 45,
          "time": 106.45816300000082,
          "velocity": 0.8661417322834646,
          "duration": 0.09982622916666628
        },
        {
          "name": "A2",
          "midi": 45,
          "time": 106.56232950000083,
          "velocity": 0.8661417322834646,
          "duration": 0.09982622916666628
        },
        {
          "name": "A2",
          "midi": 45,
          "time": 106.66649600000083,
          "velocity": 0.8661417322834646,
          "duration": 0.09982622916666628
        },
        {
          "name": "A2",
          "midi": 45,
          "time": 106.77066250000084,
          "velocity": 0.8661417322834646,
          "duration": 0.09982622916666628
        },
        {
          "name": "A2",
          "midi": 45,
          "time": 106.87482900000084,
          "velocity": 0.8661417322834646,
          "duration": 0.09982622916666628
        },
        {
          "name": "A2",
          "midi": 45,
          "time": 106.97899550000085,
          "velocity": 0.8661417322834646,
          "duration": 0.09982622916666628
        },
        {
          "name": "A3",
          "midi": 57,
          "time": 107.08316200000085,
          "velocity": 0.8661417322834646,
          "duration": 0.09982622916666628
        },
        {
          "name": "G3",
          "midi": 55,
          "time": 107.18732850000086,
          "velocity": 0.8661417322834646,
          "duration": 0.09982622916666628
        },
        {
          "name": "E3",
          "midi": 52,
          "time": 107.29149500000086,
          "velocity": 0.8661417322834646,
          "duration": 0.09982622916666628
        },
        {
          "name": "G3",
          "midi": 55,
          "time": 107.39566150000087,
          "velocity": 0.8661417322834646,
          "duration": 0.20399272916667144
        },
        {
          "name": "D#3",
          "midi": 51,
          "time": 107.60399450000088,
          "velocity": 0.8661417322834646,
          "duration": 0.09982622916666628
        },
        {
          "name": "E3",
          "midi": 52,
          "time": 107.70816100000089,
          "velocity": 0.8661417322834646,
          "duration": 0.20399272916667144
        },
        {
          "name": "E2",
          "midi": 40,
          "time": 107.9164940000009,
          "velocity": 0.8661417322834646,
          "duration": 0.20399272916667144
        },
        {
          "name": "B2",
          "midi": 47,
          "time": 107.9164940000009,
          "velocity": 0.8661417322834646,
          "duration": 0.20399272916667144
        },
        {
          "name": "E3",
          "midi": 52,
          "time": 107.9164940000009,
          "velocity": 0.8661417322834646,
          "duration": 0.20399272916667144
        },
        {
          "name": "E2",
          "midi": 40,
          "time": 108.1248270000009,
          "velocity": 0.8661417322834646,
          "duration": 1.354164499999996
        },
        {
          "name": "B2",
          "midi": 47,
          "time": 108.1248270000009,
          "velocity": 0.8661417322834646,
          "duration": 1.354164499999996
        },
        {
          "name": "E3",
          "midi": 52,
          "time": 108.1248270000009,
          "velocity": 0.8661417322834646,
          "duration": 1.354164499999996
        },
        {
          "name": "G2",
          "midi": 43,
          "time": 109.5831580000009,
          "velocity": 0.8661417322834646,
          "duration": 0.273437062499994
        },
        {
          "name": "F#2",
          "midi": 42,
          "time": 109.86093533333424,
          "velocity": 0.8661417322834646,
          "duration": 0.273437062499994
        },
        {
          "name": "G2",
          "midi": 43,
          "time": 110.13871266666757,
          "velocity": 0.8661417322834646,
          "duration": 0.273437062499994
        },
        {
          "name": "C3",
          "midi": 48,
          "time": 110.4164900000009,
          "velocity": 0.8661417322834646,
          "duration": 0.273437062499994
        },
        {
          "name": "B2",
          "midi": 47,
          "time": 110.69426733333424,
          "velocity": 0.8661417322834646,
          "duration": 0.273437062499994
        },
        {
          "name": "G2",
          "midi": 43,
          "time": 110.97204466666757,
          "velocity": 0.8661417322834646,
          "duration": 0.273437062499994
        },
        {
          "name": "A2",
          "midi": 45,
          "time": 111.2498220000009,
          "velocity": 0.8661417322834646,
          "duration": 0.20399272916667144
        },
        {
          "name": "E3",
          "midi": 52,
          "time": 111.2498220000009,
          "velocity": 0.8661417322834646,
          "duration": 0.20399272916667144
        },
        {
          "name": "A2",
          "midi": 45,
          "time": 111.66648800000091,
          "velocity": 0.8661417322834646,
          "duration": 0.34722166666666965
        },
        {
          "name": "E3",
          "midi": 52,
          "time": 111.66648800000091,
          "velocity": 0.8661417322834646,
          "duration": 0.34722166666666965
        },
        {
          "name": "G2",
          "midi": 43,
          "time": 112.08315400000092,
          "velocity": 0.8661417322834646,
          "duration": 0.09982622916666628
        },
        {
          "name": "A2",
          "midi": 45,
          "time": 112.18732050000092,
          "velocity": 0.8661417322834646,
          "duration": 0.09982622916666628
        },
        {
          "name": "E3",
          "midi": 52,
          "time": 112.18732050000092,
          "velocity": 0.8661417322834646,
          "duration": 0.09982622916666628
        },
        {
          "name": "A2",
          "midi": 45,
          "time": 112.49982000000092,
          "velocity": 0.8661417322834646,
          "duration": 0.34722166666666965
        },
        {
          "name": "E3",
          "midi": 52,
          "time": 112.49982000000092,
          "velocity": 0.8661417322834646,
          "duration": 0.34722166666666965
        },
        {
          "name": "G2",
          "midi": 43,
          "time": 112.91648600000093,
          "velocity": 0.8661417322834646,
          "duration": 0.09982622916666628
        },
        {
          "name": "A2",
          "midi": 45,
          "time": 113.02065250000093,
          "velocity": 0.8661417322834646,
          "duration": 0.09982622916666628
        },
        {
          "name": "E3",
          "midi": 52,
          "time": 113.02065250000093,
          "velocity": 0.8661417322834646,
          "duration": 0.09982622916666628
        },
        {
          "name": "A2",
          "midi": 45,
          "time": 113.33315200000094,
          "velocity": 0.8661417322834646,
          "duration": 0.34722166666666965
        },
        {
          "name": "E3",
          "midi": 52,
          "time": 113.33315200000094,
          "velocity": 0.8661417322834646,
          "duration": 0.34722166666666965
        },
        {
          "name": "C3",
          "midi": 48,
          "time": 113.74981800000094,
          "velocity": 0.8661417322834646,
          "duration": 0.3081592291666624
        },
        {
          "name": "G3",
          "midi": 55,
          "time": 113.74981800000094,
          "velocity": 0.8661417322834646,
          "duration": 0.3081592291666624
        },
        {
          "name": "G2",
          "midi": 43,
          "time": 114.06231750000094,
          "velocity": 0.8661417322834646,
          "duration": 0.3081592291666624
        },
        {
          "name": "D3",
          "midi": 50,
          "time": 114.06231750000094,
          "velocity": 0.8661417322834646,
          "duration": 0.3081592291666624
        },
        {
          "name": "A2",
          "midi": 45,
          "time": 114.37481700000095,
          "velocity": 0.8661417322834646,
          "duration": 0.20399272916667144
        },
        {
          "name": "E3",
          "midi": 52,
          "time": 114.37481700000095,
          "velocity": 0.8661417322834646,
          "duration": 0.20399272916667144
        },
        {
          "name": "A2",
          "midi": 45,
          "time": 114.79148300000095,
          "velocity": 0.8661417322834646,
          "duration": 0.34722166666666965
        },
        {
          "name": "E3",
          "midi": 52,
          "time": 114.79148300000095,
          "velocity": 0.8661417322834646,
          "duration": 0.34722166666666965
        },
        {
          "name": "G2",
          "midi": 43,
          "time": 115.20814900000096,
          "velocity": 0.8661417322834646,
          "duration": 0.09982622916666628
        },
        {
          "name": "A2",
          "midi": 45,
          "time": 115.31231550000096,
          "velocity": 0.8661417322834646,
          "duration": 0.09982622916666628
        },
        {
          "name": "E3",
          "midi": 52,
          "time": 115.31231550000096,
          "velocity": 0.8661417322834646,
          "duration": 0.09982622916666628
        },
        {
          "name": "A2",
          "midi": 45,
          "time": 115.62481500000096,
          "velocity": 0.8661417322834646,
          "duration": 0.34722166666666965
        },
        {
          "name": "E3",
          "midi": 52,
          "time": 115.62481500000096,
          "velocity": 0.8661417322834646,
          "duration": 0.34722166666666965
        },
        {
          "name": "G2",
          "midi": 43,
          "time": 116.04148100000097,
          "velocity": 0.8661417322834646,
          "duration": 0.09982622916666628
        },
        {
          "name": "A2",
          "midi": 45,
          "time": 116.14564750000098,
          "velocity": 0.8661417322834646,
          "duration": 0.09982622916666628
        },
        {
          "name": "E3",
          "midi": 52,
          "time": 116.14564750000098,
          "velocity": 0.8661417322834646,
          "duration": 0.09982622916666628
        },
        {
          "name": "A2",
          "midi": 45,
          "time": 116.45814700000098,
          "velocity": 0.8661417322834646,
          "duration": 0.34722166666666965
        },
        {
          "name": "E3",
          "midi": 52,
          "time": 116.45814700000098,
          "velocity": 0.8661417322834646,
          "duration": 0.34722166666666965
        },
        {
          "name": "C3",
          "midi": 48,
          "time": 116.87481300000098,
          "velocity": 0.8661417322834646,
          "duration": 0.3081592291666624
        },
        {
          "name": "G3",
          "midi": 55,
          "time": 116.87481300000098,
          "velocity": 0.8661417322834646,
          "duration": 0.3081592291666624
        },
        {
          "name": "G2",
          "midi": 43,
          "time": 117.18731250000098,
          "velocity": 0.8661417322834646,
          "duration": 0.3081592291666624
        },
        {
          "name": "D3",
          "midi": 50,
          "time": 117.18731250000098,
          "velocity": 0.8661417322834646,
          "duration": 0.3081592291666624
        },
        {
          "name": "A2",
          "midi": 45,
          "time": 117.49981200000099,
          "velocity": 0.8661417322834646,
          "duration": 0.20399272916667144
        },
        {
          "name": "E3",
          "midi": 52,
          "time": 117.49981200000099,
          "velocity": 0.8661417322834646,
          "duration": 0.20399272916667144
        },
        {
          "name": "A2",
          "midi": 45,
          "time": 117.91647800000099,
          "velocity": 0.8661417322834646,
          "duration": 0.34722166666666965
        },
        {
          "name": "E3",
          "midi": 52,
          "time": 117.91647800000099,
          "velocity": 0.8661417322834646,
          "duration": 0.34722166666666965
        },
        {
          "name": "G2",
          "midi": 43,
          "time": 118.333144000001,
          "velocity": 0.8661417322834646,
          "duration": 0.09982622916666628
        },
        {
          "name": "A2",
          "midi": 45,
          "time": 118.437310500001,
          "velocity": 0.8661417322834646,
          "duration": 0.09982622916666628
        },
        {
          "name": "E3",
          "midi": 52,
          "time": 118.437310500001,
          "velocity": 0.8661417322834646,
          "duration": 0.09982622916666628
        },
        {
          "name": "A2",
          "midi": 45,
          "time": 118.749810000001,
          "velocity": 0.8661417322834646,
          "duration": 0.34722166666666965
        },
        {
          "name": "E3",
          "midi": 52,
          "time": 118.749810000001,
          "velocity": 0.8661417322834646,
          "duration": 0.34722166666666965
        },
        {
          "name": "G2",
          "midi": 43,
          "time": 119.16647600000101,
          "velocity": 0.8661417322834646,
          "duration": 0.09982622916666628
        },
        {
          "name": "A2",
          "midi": 45,
          "time": 119.27064250000102,
          "velocity": 0.8661417322834646,
          "duration": 0.09982622916666628
        },
        {
          "name": "E3",
          "midi": 52,
          "time": 119.27064250000102,
          "velocity": 0.8661417322834646,
          "duration": 0.09982622916666628
        },
        {
          "name": "A2",
          "midi": 45,
          "time": 119.58314200000102,
          "velocity": 0.8661417322834646,
          "duration": 0.34722166666666965
        },
        {
          "name": "E3",
          "midi": 52,
          "time": 119.58314200000102,
          "velocity": 0.8661417322834646,
          "duration": 0.34722166666666965
        },
        {
          "name": "C3",
          "midi": 48,
          "time": 119.99980800000102,
          "velocity": 0.8661417322834646,
          "duration": 0.3081592291666624
        },
        {
          "name": "G3",
          "midi": 55,
          "time": 119.99980800000102,
          "velocity": 0.8661417322834646,
          "duration": 0.3081592291666624
        },
        {
          "name": "G2",
          "midi": 43,
          "time": 120.31230750000103,
          "velocity": 0.8661417322834646,
          "duration": 0.3081592291666624
        },
        {
          "name": "D3",
          "midi": 50,
          "time": 120.31230750000103,
          "velocity": 0.8661417322834646,
          "duration": 0.3081592291666624
        },
        {
          "name": "A2",
          "midi": 45,
          "time": 120.62480700000103,
          "velocity": 0.8661417322834646,
          "duration": 0.20399272916667144
        },
        {
          "name": "E3",
          "midi": 52,
          "time": 120.62480700000103,
          "velocity": 0.8661417322834646,
          "duration": 0.20399272916667144
        },
        {
          "name": "A2",
          "midi": 45,
          "time": 121.04147300000103,
          "velocity": 0.8661417322834646,
          "duration": 0.34722166666666965
        },
        {
          "name": "E3",
          "midi": 52,
          "time": 121.04147300000103,
          "velocity": 0.8661417322834646,
          "duration": 0.34722166666666965
        },
        {
          "name": "G2",
          "midi": 43,
          "time": 121.45813900000104,
          "velocity": 0.8661417322834646,
          "duration": 0.09982622916666628
        },
        {
          "name": "A2",
          "midi": 45,
          "time": 121.56230550000105,
          "velocity": 0.8661417322834646,
          "duration": 0.09982622916666628
        },
        {
          "name": "E3",
          "midi": 52,
          "time": 121.56230550000105,
          "velocity": 0.8661417322834646,
          "duration": 0.09982622916666628
        },
        {
          "name": "A2",
          "midi": 45,
          "time": 121.87480500000105,
          "velocity": 0.8661417322834646,
          "duration": 0.34722166666666965
        },
        {
          "name": "E3",
          "midi": 52,
          "time": 121.87480500000105,
          "velocity": 0.8661417322834646,
          "duration": 0.34722166666666965
        },
        {
          "name": "G2",
          "midi": 43,
          "time": 122.29147100000105,
          "velocity": 0.8661417322834646,
          "duration": 0.09982622916666628
        },
        {
          "name": "A2",
          "midi": 45,
          "time": 122.39563750000106,
          "velocity": 0.8661417322834646,
          "duration": 0.09982622916666628
        },
        {
          "name": "E3",
          "midi": 52,
          "time": 122.39563750000106,
          "velocity": 0.8661417322834646,
          "duration": 0.09982622916666628
        },
        {
          "name": "A2",
          "midi": 45,
          "time": 122.70813700000106,
          "velocity": 0.8661417322834646,
          "duration": 0.34722166666666965
        },
        {
          "name": "E3",
          "midi": 52,
          "time": 122.70813700000106,
          "velocity": 0.8661417322834646,
          "duration": 0.34722166666666965
        },
        {
          "name": "C3",
          "midi": 48,
          "time": 123.12480300000107,
          "velocity": 0.8661417322834646,
          "duration": 0.3081592291666624
        },
        {
          "name": "G3",
          "midi": 55,
          "time": 123.12480300000107,
          "velocity": 0.8661417322834646,
          "duration": 0.3081592291666624
        },
        {
          "name": "G2",
          "midi": 43,
          "time": 123.43730250000107,
          "velocity": 0.8661417322834646,
          "duration": 0.3081592291666624
        },
        {
          "name": "D3",
          "midi": 50,
          "time": 123.43730250000107,
          "velocity": 0.8661417322834646,
          "duration": 0.3081592291666624
        },
        {
          "name": "A2",
          "midi": 45,
          "time": 123.74980200000107,
          "velocity": 0.8661417322834646,
          "duration": 0.7291654999999935
        },
        {
          "name": "E3",
          "midi": 52,
          "time": 123.74980200000107,
          "velocity": 0.8661417322834646,
          "duration": 0.7291654999999935
        },
        {
          "name": "G2",
          "midi": 43,
          "time": 124.58313400000107,
          "velocity": 0.8661417322834646,
          "duration": 0.7291654999999935
        },
        {
          "name": "D3",
          "midi": 50,
          "time": 124.58313400000107,
          "velocity": 0.8661417322834646,
          "duration": 0.7291654999999935
        },
        {
          "name": "G3",
          "midi": 55,
          "time": 124.58313400000107,
          "velocity": 0.8661417322834646,
          "duration": 0.7291654999999935
        },
        {
          "name": "B3",
          "midi": 59,
          "time": 124.58313400000107,
          "velocity": 0.8661417322834646,
          "duration": 0.7291654999999935
        },
        {
          "name": "A2",
          "midi": 45,
          "time": 125.41646600000107,
          "velocity": 0.8661417322834646,
          "duration": 0.20399272916667144
        },
        {
          "name": "A3",
          "midi": 57,
          "time": 125.41646600000107,
          "velocity": 0.8661417322834646,
          "duration": 0.20399272916667144
        },
        {
          "name": "A2",
          "midi": 45,
          "time": 125.72896550000107,
          "velocity": 0.8661417322834646,
          "duration": 0.20399272916667144
        },
        {
          "name": "A3",
          "midi": 57,
          "time": 125.72896550000107,
          "velocity": 0.8661417322834646,
          "duration": 0.20399272916667144
        },
        {
          "name": "A2",
          "midi": 45,
          "time": 126.04146500000107,
          "velocity": 0.8661417322834646,
          "duration": 0.20399272916667144
        },
        {
          "name": "A3",
          "midi": 57,
          "time": 126.04146500000107,
          "velocity": 0.8661417322834646,
          "duration": 0.20399272916667144
        },
        {
          "name": "A2",
          "midi": 45,
          "time": 126.35396450000107,
          "velocity": 0.8661417322834646,
          "duration": 0.20399272916667144
        },
        {
          "name": "A3",
          "midi": 57,
          "time": 126.35396450000107,
          "velocity": 0.8661417322834646,
          "duration": 0.20399272916667144
        },
        {
          "name": "G3",
          "midi": 55,
          "time": 126.66646400000107,
          "velocity": 0.8661417322834646,
          "duration": 0.34722166666666965
        },
        {
          "name": "C4",
          "midi": 60,
          "time": 126.66646400000107,
          "velocity": 0.8661417322834646,
          "duration": 0.34722166666666965
        },
        {
          "name": "A2",
          "midi": 45,
          "time": 127.08313000000108,
          "velocity": 0.8661417322834646,
          "duration": 0.20399272916667144
        },
        {
          "name": "A3",
          "midi": 57,
          "time": 127.08313000000108,
          "velocity": 0.8661417322834646,
          "duration": 0.20399272916667144
        },
        {
          "name": "A2",
          "midi": 45,
          "time": 127.39562950000108,
          "velocity": 0.8661417322834646,
          "duration": 0.20399272916667144
        },
        {
          "name": "A3",
          "midi": 57,
          "time": 127.39562950000108,
          "velocity": 0.8661417322834646,
          "duration": 0.20399272916667144
        },
        {
          "name": "A2",
          "midi": 45,
          "time": 127.70812900000108,
          "velocity": 0.8661417322834646,
          "duration": 0.20399272916667144
        },
        {
          "name": "A3",
          "midi": 57,
          "time": 127.70812900000108,
          "velocity": 0.8661417322834646,
          "duration": 0.20399272916667144
        },
        {
          "name": "A2",
          "midi": 45,
          "time": 128.0206285000011,
          "velocity": 0.8661417322834646,
          "duration": 0.20399272916665723
        },
        {
          "name": "A3",
          "midi": 57,
          "time": 128.0206285000011,
          "velocity": 0.8661417322834646,
          "duration": 0.20399272916665723
        },
        {
          "name": "A3",
          "midi": 57,
          "time": 128.3331280000011,
          "velocity": 0.8661417322834646,
          "duration": 0.34722166666665544
        },
        {
          "name": "D4",
          "midi": 62,
          "time": 128.3331280000011,
          "velocity": 0.8661417322834646,
          "duration": 0.34722166666665544
        },
        {
          "name": "A2",
          "midi": 45,
          "time": 128.7497940000011,
          "velocity": 0.8661417322834646,
          "duration": 0.20399272916665723
        },
        {
          "name": "A3",
          "midi": 57,
          "time": 128.7497940000011,
          "velocity": 0.8661417322834646,
          "duration": 0.20399272916665723
        },
        {
          "name": "A2",
          "midi": 45,
          "time": 129.0622935000011,
          "velocity": 0.8661417322834646,
          "duration": 0.20399272916665723
        },
        {
          "name": "A3",
          "midi": 57,
          "time": 129.0622935000011,
          "velocity": 0.8661417322834646,
          "duration": 0.20399272916665723
        },
        {
          "name": "A2",
          "midi": 45,
          "time": 129.3747930000011,
          "velocity": 0.8661417322834646,
          "duration": 0.20399272916665723
        },
        {
          "name": "A3",
          "midi": 57,
          "time": 129.3747930000011,
          "velocity": 0.8661417322834646,
          "duration": 0.20399272916665723
        },
        {
          "name": "A2",
          "midi": 45,
          "time": 129.6872925000011,
          "velocity": 0.8661417322834646,
          "duration": 0.20399272916665723
        },
        {
          "name": "A3",
          "midi": 57,
          "time": 129.6872925000011,
          "velocity": 0.8661417322834646,
          "duration": 0.20399272916665723
        },
        {
          "name": "G3",
          "midi": 55,
          "time": 129.9997920000011,
          "velocity": 0.8661417322834646,
          "duration": 0.34722166666665544
        },
        {
          "name": "C4",
          "midi": 60,
          "time": 129.9997920000011,
          "velocity": 0.8661417322834646,
          "duration": 0.34722166666665544
        },
        {
          "name": "A3",
          "midi": 57,
          "time": 130.4164580000011,
          "velocity": 0.8661417322834646,
          "duration": 0.3081592291666766
        },
        {
          "name": "G3",
          "midi": 55,
          "time": 130.7289575000011,
          "velocity": 0.8661417322834646,
          "duration": 0.3081592291666766
        },
        {
          "name": "E3",
          "midi": 52,
          "time": 131.0414570000011,
          "velocity": 0.8661417322834646,
          "duration": 0.20399272916665723
        },
        {
          "name": "D#3",
          "midi": 51,
          "time": 131.24979000000107,
          "velocity": 0.8661417322834646,
          "duration": 0.20399272916665723
        },
        {
          "name": "D3",
          "midi": 50,
          "time": 131.45812300000105,
          "velocity": 0.8661417322834646,
          "duration": 0.20399272916665723
        },
        {
          "name": "C3",
          "midi": 48,
          "time": 131.66645600000103,
          "velocity": 0.8661417322834646,
          "duration": 0.20399272916665723
        },
        {
          "name": "A2",
          "midi": 45,
          "time": 131.87478900000102,
          "velocity": 0.8661417322834646,
          "duration": 0.20399272916665723
        },
        {
          "name": "A3",
          "midi": 57,
          "time": 131.87478900000102,
          "velocity": 0.8661417322834646,
          "duration": 0.20399272916665723
        },
        {
          "name": "A2",
          "midi": 45,
          "time": 132.18728850000102,
          "velocity": 0.8661417322834646,
          "duration": 0.20399272916665723
        },
        {
          "name": "A3",
          "midi": 57,
          "time": 132.18728850000102,
          "velocity": 0.8661417322834646,
          "duration": 0.20399272916665723
        },
        {
          "name": "A2",
          "midi": 45,
          "time": 132.49978800000102,
          "velocity": 0.8661417322834646,
          "duration": 0.20399272916665723
        },
        {
          "name": "A3",
          "midi": 57,
          "time": 132.49978800000102,
          "velocity": 0.8661417322834646,
          "duration": 0.20399272916665723
        },
        {
          "name": "A2",
          "midi": 45,
          "time": 132.81228750000102,
          "velocity": 0.8661417322834646,
          "duration": 0.20399272916665723
        },
        {
          "name": "A3",
          "midi": 57,
          "time": 132.81228750000102,
          "velocity": 0.8661417322834646,
          "duration": 0.20399272916665723
        },
        {
          "name": "G3",
          "midi": 55,
          "time": 133.12478700000102,
          "velocity": 0.8661417322834646,
          "duration": 0.34722166666665544
        },
        {
          "name": "C4",
          "midi": 60,
          "time": 133.12478700000102,
          "velocity": 0.8661417322834646,
          "duration": 0.34722166666665544
        },
        {
          "name": "A2",
          "midi": 45,
          "time": 133.541453000001,
          "velocity": 0.8661417322834646,
          "duration": 0.20399272916665723
        },
        {
          "name": "A3",
          "midi": 57,
          "time": 133.541453000001,
          "velocity": 0.8661417322834646,
          "duration": 0.20399272916665723
        },
        {
          "name": "A2",
          "midi": 45,
          "time": 133.85395250000101,
          "velocity": 0.8661417322834646,
          "duration": 0.20399272916665723
        },
        {
          "name": "A3",
          "midi": 57,
          "time": 133.85395250000101,
          "velocity": 0.8661417322834646,
          "duration": 0.20399272916665723
        },
        {
          "name": "A2",
          "midi": 45,
          "time": 134.16645200000102,
          "velocity": 0.8661417322834646,
          "duration": 0.20399272916665723
        },
        {
          "name": "A3",
          "midi": 57,
          "time": 134.16645200000102,
          "velocity": 0.8661417322834646,
          "duration": 0.20399272916665723
        },
        {
          "name": "A2",
          "midi": 45,
          "time": 134.47895150000102,
          "velocity": 0.8661417322834646,
          "duration": 0.20399272916665723
        },
        {
          "name": "A3",
          "midi": 57,
          "time": 134.47895150000102,
          "velocity": 0.8661417322834646,
          "duration": 0.20399272916665723
        },
        {
          "name": "A3",
          "midi": 57,
          "time": 134.79145100000102,
          "velocity": 0.8661417322834646,
          "duration": 0.34722166666665544
        },
        {
          "name": "D4",
          "midi": 62,
          "time": 134.79145100000102,
          "velocity": 0.8661417322834646,
          "duration": 0.34722166666665544
        },
        {
          "name": "A2",
          "midi": 45,
          "time": 135.208117000001,
          "velocity": 0.8661417322834646,
          "duration": 0.20399272916665723
        },
        {
          "name": "A3",
          "midi": 57,
          "time": 135.208117000001,
          "velocity": 0.8661417322834646,
          "duration": 0.20399272916665723
        },
        {
          "name": "A2",
          "midi": 45,
          "time": 135.520616500001,
          "velocity": 0.8661417322834646,
          "duration": 0.20399272916665723
        },
        {
          "name": "A3",
          "midi": 57,
          "time": 135.520616500001,
          "velocity": 0.8661417322834646,
          "duration": 0.20399272916665723
        },
        {
          "name": "A2",
          "midi": 45,
          "time": 135.833116000001,
          "velocity": 0.8661417322834646,
          "duration": 0.20399272916665723
        },
        {
          "name": "A3",
          "midi": 57,
          "time": 135.833116000001,
          "velocity": 0.8661417322834646,
          "duration": 0.20399272916665723
        },
        {
          "name": "A2",
          "midi": 45,
          "time": 136.145615500001,
          "velocity": 0.8661417322834646,
          "duration": 0.20399272916665723
        },
        {
          "name": "A3",
          "midi": 57,
          "time": 136.145615500001,
          "velocity": 0.8661417322834646,
          "duration": 0.20399272916665723
        },
        {
          "name": "G3",
          "midi": 55,
          "time": 136.45811500000102,
          "velocity": 0.8661417322834646,
          "duration": 0.34722166666665544
        },
        {
          "name": "C4",
          "midi": 60,
          "time": 136.45811500000102,
          "velocity": 0.8661417322834646,
          "duration": 0.34722166666665544
        },
        {
          "name": "A3",
          "midi": 57,
          "time": 136.874781000001,
          "velocity": 0.8661417322834646,
          "duration": 0.3081592291666766
        },
        {
          "name": "G3",
          "midi": 55,
          "time": 137.187280500001,
          "velocity": 0.8661417322834646,
          "duration": 0.3081592291666766
        },
        {
          "name": "E3",
          "midi": 52,
          "time": 137.499780000001,
          "velocity": 0.8661417322834646,
          "duration": 0.20399272916665723
        },
        {
          "name": "D#3",
          "midi": 51,
          "time": 137.708113000001,
          "velocity": 0.8661417322834646,
          "duration": 0.20399272916665723
        },
        {
          "name": "D3",
          "midi": 50,
          "time": 137.91644600000097,
          "velocity": 0.8661417322834646,
          "duration": 0.20399272916665723
        },
        {
          "name": "C3",
          "midi": 48,
          "time": 138.12477900000096,
          "velocity": 0.8661417322834646,
          "duration": 0.20399272916665723
        },
        {
          "name": "A2",
          "midi": 45,
          "time": 138.33311200000094,
          "velocity": 0.8661417322834646,
          "duration": 0.20399272916665723
        },
        {
          "name": "A3",
          "midi": 57,
          "time": 138.33311200000094,
          "velocity": 0.8661417322834646,
          "duration": 0.20399272916665723
        },
        {
          "name": "A2",
          "midi": 45,
          "time": 138.64561150000094,
          "velocity": 0.8661417322834646,
          "duration": 0.20399272916665723
        },
        {
          "name": "A3",
          "midi": 57,
          "time": 138.64561150000094,
          "velocity": 0.8661417322834646,
          "duration": 0.20399272916665723
        },
        {
          "name": "A2",
          "midi": 45,
          "time": 138.95811100000094,
          "velocity": 0.8661417322834646,
          "duration": 0.20399272916665723
        },
        {
          "name": "A3",
          "midi": 57,
          "time": 138.95811100000094,
          "velocity": 0.8661417322834646,
          "duration": 0.20399272916665723
        },
        {
          "name": "A2",
          "midi": 45,
          "time": 139.27061050000094,
          "velocity": 0.8661417322834646,
          "duration": 0.20399272916665723
        },
        {
          "name": "A3",
          "midi": 57,
          "time": 139.27061050000094,
          "velocity": 0.8661417322834646,
          "duration": 0.20399272916665723
        },
        {
          "name": "G3",
          "midi": 55,
          "time": 139.58311000000094,
          "velocity": 0.8661417322834646,
          "duration": 0.34722166666665544
        },
        {
          "name": "C4",
          "midi": 60,
          "time": 139.58311000000094,
          "velocity": 0.8661417322834646,
          "duration": 0.34722166666665544
        },
        {
          "name": "A2",
          "midi": 45,
          "time": 139.99977600000094,
          "velocity": 0.8661417322834646,
          "duration": 0.20399272916665723
        },
        {
          "name": "A3",
          "midi": 57,
          "time": 139.99977600000094,
          "velocity": 0.8661417322834646,
          "duration": 0.20399272916665723
        },
        {
          "name": "A2",
          "midi": 45,
          "time": 140.31227550000094,
          "velocity": 0.8661417322834646,
          "duration": 0.20399272916665723
        },
        {
          "name": "A3",
          "midi": 57,
          "time": 140.31227550000094,
          "velocity": 0.8661417322834646,
          "duration": 0.20399272916665723
        },
        {
          "name": "A2",
          "midi": 45,
          "time": 140.62477500000094,
          "velocity": 0.8661417322834646,
          "duration": 0.20399272916665723
        },
        {
          "name": "A3",
          "midi": 57,
          "time": 140.62477500000094,
          "velocity": 0.8661417322834646,
          "duration": 0.20399272916665723
        },
        {
          "name": "A2",
          "midi": 45,
          "time": 140.93727450000094,
          "velocity": 0.8661417322834646,
          "duration": 0.20399272916665723
        },
        {
          "name": "A3",
          "midi": 57,
          "time": 140.93727450000094,
          "velocity": 0.8661417322834646,
          "duration": 0.20399272916665723
        },
        {
          "name": "A3",
          "midi": 57,
          "time": 141.24977400000094,
          "velocity": 0.8661417322834646,
          "duration": 0.34722166666665544
        },
        {
          "name": "D4",
          "midi": 62,
          "time": 141.24977400000094,
          "velocity": 0.8661417322834646,
          "duration": 0.34722166666665544
        },
        {
          "name": "A2",
          "midi": 45,
          "time": 141.66644000000093,
          "velocity": 0.8661417322834646,
          "duration": 0.20399272916665723
        },
        {
          "name": "A3",
          "midi": 57,
          "time": 141.66644000000093,
          "velocity": 0.8661417322834646,
          "duration": 0.20399272916665723
        },
        {
          "name": "A2",
          "midi": 45,
          "time": 141.97893950000093,
          "velocity": 0.8661417322834646,
          "duration": 0.20399272916665723
        },
        {
          "name": "A3",
          "midi": 57,
          "time": 141.97893950000093,
          "velocity": 0.8661417322834646,
          "duration": 0.20399272916665723
        },
        {
          "name": "A2",
          "midi": 45,
          "time": 142.29143900000093,
          "velocity": 0.8661417322834646,
          "duration": 0.20399272916665723
        },
        {
          "name": "A3",
          "midi": 57,
          "time": 142.29143900000093,
          "velocity": 0.8661417322834646,
          "duration": 0.20399272916665723
        },
        {
          "name": "A2",
          "midi": 45,
          "time": 142.60393850000094,
          "velocity": 0.8661417322834646,
          "duration": 0.20399272916665723
        },
        {
          "name": "A3",
          "midi": 57,
          "time": 142.60393850000094,
          "velocity": 0.8661417322834646,
          "duration": 0.20399272916665723
        },
        {
          "name": "G3",
          "midi": 55,
          "time": 142.91643800000094,
          "velocity": 0.8661417322834646,
          "duration": 0.34722166666665544
        },
        {
          "name": "C4",
          "midi": 60,
          "time": 142.91643800000094,
          "velocity": 0.8661417322834646,
          "duration": 0.34722166666665544
        },
        {
          "name": "A3",
          "midi": 57,
          "time": 143.33310400000093,
          "velocity": 0.8661417322834646,
          "duration": 0.3081592291666766
        },
        {
          "name": "G3",
          "midi": 55,
          "time": 143.64560350000093,
          "velocity": 0.8661417322834646,
          "duration": 0.3081592291666766
        },
        {
          "name": "E3",
          "midi": 52,
          "time": 143.95810300000093,
          "velocity": 0.8661417322834646,
          "duration": 0.20399272916665723
        },
        {
          "name": "D#3",
          "midi": 51,
          "time": 144.1664360000009,
          "velocity": 0.8661417322834646,
          "duration": 0.20399272916665723
        },
        {
          "name": "D3",
          "midi": 50,
          "time": 144.3747690000009,
          "velocity": 0.8661417322834646,
          "duration": 0.20399272916665723
        },
        {
          "name": "C3",
          "midi": 48,
          "time": 144.58310200000088,
          "velocity": 0.8661417322834646,
          "duration": 0.20399272916665723
        },
        {
          "name": "A2",
          "midi": 45,
          "time": 144.79143500000086,
          "velocity": 0.8661417322834646,
          "duration": 0.20399272916665723
        },
        {
          "name": "A3",
          "midi": 57,
          "time": 144.79143500000086,
          "velocity": 0.8661417322834646,
          "duration": 0.20399272916665723
        },
        {
          "name": "A2",
          "midi": 45,
          "time": 145.10393450000086,
          "velocity": 0.8661417322834646,
          "duration": 0.20399272916665723
        },
        {
          "name": "A3",
          "midi": 57,
          "time": 145.10393450000086,
          "velocity": 0.8661417322834646,
          "duration": 0.20399272916665723
        },
        {
          "name": "A2",
          "midi": 45,
          "time": 145.41643400000086,
          "velocity": 0.8661417322834646,
          "duration": 0.20399272916665723
        },
        {
          "name": "A3",
          "midi": 57,
          "time": 145.41643400000086,
          "velocity": 0.8661417322834646,
          "duration": 0.20399272916665723
        },
        {
          "name": "A2",
          "midi": 45,
          "time": 145.72893350000086,
          "velocity": 0.8661417322834646,
          "duration": 0.20399272916665723
        },
        {
          "name": "A3",
          "midi": 57,
          "time": 145.72893350000086,
          "velocity": 0.8661417322834646,
          "duration": 0.20399272916665723
        },
        {
          "name": "G3",
          "midi": 55,
          "time": 146.04143300000086,
          "velocity": 0.8661417322834646,
          "duration": 0.34722166666665544
        },
        {
          "name": "C4",
          "midi": 60,
          "time": 146.04143300000086,
          "velocity": 0.8661417322834646,
          "duration": 0.34722166666665544
        },
        {
          "name": "A2",
          "midi": 45,
          "time": 146.45809900000086,
          "velocity": 0.8661417322834646,
          "duration": 0.20399272916665723
        },
        {
          "name": "A3",
          "midi": 57,
          "time": 146.45809900000086,
          "velocity": 0.8661417322834646,
          "duration": 0.20399272916665723
        },
        {
          "name": "A2",
          "midi": 45,
          "time": 146.77059850000086,
          "velocity": 0.8661417322834646,
          "duration": 0.20399272916665723
        },
        {
          "name": "A3",
          "midi": 57,
          "time": 146.77059850000086,
          "velocity": 0.8661417322834646,
          "duration": 0.20399272916665723
        },
        {
          "name": "A2",
          "midi": 45,
          "time": 147.08309800000086,
          "velocity": 0.8661417322834646,
          "duration": 0.20399272916665723
        },
        {
          "name": "A3",
          "midi": 57,
          "time": 147.08309800000086,
          "velocity": 0.8661417322834646,
          "duration": 0.20399272916665723
        },
        {
          "name": "A2",
          "midi": 45,
          "time": 147.39559750000086,
          "velocity": 0.8661417322834646,
          "duration": 0.20399272916665723
        },
        {
          "name": "A3",
          "midi": 57,
          "time": 147.39559750000086,
          "velocity": 0.8661417322834646,
          "duration": 0.20399272916665723
        },
        {
          "name": "A3",
          "midi": 57,
          "time": 147.70809700000086,
          "velocity": 0.8661417322834646,
          "duration": 0.34722166666665544
        },
        {
          "name": "D4",
          "midi": 62,
          "time": 147.70809700000086,
          "velocity": 0.8661417322834646,
          "duration": 0.34722166666665544
        },
        {
          "name": "A2",
          "midi": 45,
          "time": 148.12476300000085,
          "velocity": 0.8661417322834646,
          "duration": 0.20399272916665723
        },
        {
          "name": "A3",
          "midi": 57,
          "time": 148.12476300000085,
          "velocity": 0.8661417322834646,
          "duration": 0.20399272916665723
        },
        {
          "name": "A2",
          "midi": 45,
          "time": 148.43726250000086,
          "velocity": 0.8661417322834646,
          "duration": 0.20399272916665723
        },
        {
          "name": "A3",
          "midi": 57,
          "time": 148.43726250000086,
          "velocity": 0.8661417322834646,
          "duration": 0.20399272916665723
        },
        {
          "name": "A2",
          "midi": 45,
          "time": 148.74976200000086,
          "velocity": 0.8661417322834646,
          "duration": 0.20399272916665723
        },
        {
          "name": "A3",
          "midi": 57,
          "time": 148.74976200000086,
          "velocity": 0.8661417322834646,
          "duration": 0.20399272916665723
        },
        {
          "name": "A2",
          "midi": 45,
          "time": 149.06226150000086,
          "velocity": 0.8661417322834646,
          "duration": 0.20399272916665723
        },
        {
          "name": "A3",
          "midi": 57,
          "time": 149.06226150000086,
          "velocity": 0.8661417322834646,
          "duration": 0.20399272916665723
        },
        {
          "name": "G3",
          "midi": 55,
          "time": 149.37476100000086,
          "velocity": 0.8661417322834646,
          "duration": 0.34722166666665544
        },
        {
          "name": "C4",
          "midi": 60,
          "time": 149.37476100000086,
          "velocity": 0.8661417322834646,
          "duration": 0.34722166666665544
        },
        {
          "name": "A3",
          "midi": 57,
          "time": 149.79142700000085,
          "velocity": 0.8661417322834646,
          "duration": 0.3081592291666766
        },
        {
          "name": "G3",
          "midi": 55,
          "time": 150.10392650000085,
          "velocity": 0.8661417322834646,
          "duration": 0.3081592291666766
        },
        {
          "name": "E3",
          "midi": 52,
          "time": 150.41642600000085,
          "velocity": 0.8661417322834646,
          "duration": 0.20399272916665723
        },
        {
          "name": "D#3",
          "midi": 51,
          "time": 150.62475900000084,
          "velocity": 0.8661417322834646,
          "duration": 0.20399272916665723
        },
        {
          "name": "D3",
          "midi": 50,
          "time": 150.83309200000082,
          "velocity": 0.8661417322834646,
          "duration": 0.20399272916665723
        },
        {
          "name": "C3",
          "midi": 48,
          "time": 151.0414250000008,
          "velocity": 0.8661417322834646,
          "duration": 0.20399272916665723
        },
        {
          "name": "B2",
          "midi": 47,
          "time": 151.24975800000078,
          "velocity": 0.8661417322834646,
          "duration": 0.20399272916665723
        },
        {
          "name": "F#3",
          "midi": 54,
          "time": 151.24975800000078,
          "velocity": 0.8661417322834646,
          "duration": 0.20399272916665723
        },
        {
          "name": "B2",
          "midi": 47,
          "time": 151.56225750000078,
          "velocity": 0.8661417322834646,
          "duration": 0.20399272916665723
        },
        {
          "name": "F#3",
          "midi": 54,
          "time": 151.56225750000078,
          "velocity": 0.8661417322834646,
          "duration": 0.20399272916665723
        },
        {
          "name": "B2",
          "midi": 47,
          "time": 151.87475700000078,
          "velocity": 0.8661417322834646,
          "duration": 0.20399272916665723
        },
        {
          "name": "F#3",
          "midi": 54,
          "time": 151.87475700000078,
          "velocity": 0.8661417322834646,
          "duration": 0.20399272916665723
        },
        {
          "name": "B2",
          "midi": 47,
          "time": 152.18725650000079,
          "velocity": 0.8661417322834646,
          "duration": 0.20399272916665723
        },
        {
          "name": "F#3",
          "midi": 54,
          "time": 152.18725650000079,
          "velocity": 0.8661417322834646,
          "duration": 0.20399272916665723
        },
        {
          "name": "D3",
          "midi": 50,
          "time": 152.4997560000008,
          "velocity": 0.8661417322834646,
          "duration": 0.34722166666665544
        },
        {
          "name": "A3",
          "midi": 57,
          "time": 152.4997560000008,
          "velocity": 0.8661417322834646,
          "duration": 0.34722166666665544
        },
        {
          "name": "B2",
          "midi": 47,
          "time": 152.91642200000078,
          "velocity": 0.8661417322834646,
          "duration": 0.20399272916665723
        },
        {
          "name": "F#3",
          "midi": 54,
          "time": 152.91642200000078,
          "velocity": 0.8661417322834646,
          "duration": 0.20399272916665723
        },
        {
          "name": "B2",
          "midi": 47,
          "time": 153.22892150000078,
          "velocity": 0.8661417322834646,
          "duration": 0.20399272916665723
        },
        {
          "name": "F#3",
          "midi": 54,
          "time": 153.22892150000078,
          "velocity": 0.8661417322834646,
          "duration": 0.20399272916665723
        },
        {
          "name": "B2",
          "midi": 47,
          "time": 153.54142100000078,
          "velocity": 0.8661417322834646,
          "duration": 0.20399272916665723
        },
        {
          "name": "F#3",
          "midi": 54,
          "time": 153.54142100000078,
          "velocity": 0.8661417322834646,
          "duration": 0.20399272916665723
        },
        {
          "name": "B2",
          "midi": 47,
          "time": 153.85392050000078,
          "velocity": 0.8661417322834646,
          "duration": 0.20399272916665723
        },
        {
          "name": "F#3",
          "midi": 54,
          "time": 153.85392050000078,
          "velocity": 0.8661417322834646,
          "duration": 0.20399272916665723
        },
        {
          "name": "E3",
          "midi": 52,
          "time": 154.16642000000078,
          "velocity": 0.8661417322834646,
          "duration": 0.34722166666665544
        },
        {
          "name": "B3",
          "midi": 59,
          "time": 154.16642000000078,
          "velocity": 0.8661417322834646,
          "duration": 0.34722166666665544
        },
        {
          "name": "B2",
          "midi": 47,
          "time": 154.58308600000078,
          "velocity": 0.8661417322834646,
          "duration": 0.20399272916665723
        },
        {
          "name": "F#3",
          "midi": 54,
          "time": 154.58308600000078,
          "velocity": 0.8661417322834646,
          "duration": 0.20399272916665723
        },
        {
          "name": "B2",
          "midi": 47,
          "time": 154.89558550000078,
          "velocity": 0.8661417322834646,
          "duration": 0.20399272916665723
        },
        {
          "name": "F#3",
          "midi": 54,
          "time": 154.89558550000078,
          "velocity": 0.8661417322834646,
          "duration": 0.20399272916665723
        },
        {
          "name": "B2",
          "midi": 47,
          "time": 155.20808500000078,
          "velocity": 0.8661417322834646,
          "duration": 0.20399272916665723
        },
        {
          "name": "F#3",
          "midi": 54,
          "time": 155.20808500000078,
          "velocity": 0.8661417322834646,
          "duration": 0.20399272916665723
        },
        {
          "name": "B2",
          "midi": 47,
          "time": 155.52058450000078,
          "velocity": 0.8661417322834646,
          "duration": 0.20399272916665723
        },
        {
          "name": "F#3",
          "midi": 54,
          "time": 155.52058450000078,
          "velocity": 0.8661417322834646,
          "duration": 0.20399272916665723
        },
        {
          "name": "D3",
          "midi": 50,
          "time": 155.83308400000078,
          "velocity": 0.8661417322834646,
          "duration": 0.34722166666665544
        },
        {
          "name": "A3",
          "midi": 57,
          "time": 155.83308400000078,
          "velocity": 0.8661417322834646,
          "duration": 0.34722166666665544
        },
        {
          "name": "B3",
          "midi": 59,
          "time": 156.24975000000077,
          "velocity": 0.8661417322834646,
          "duration": 0.3081592291666766
        },
        {
          "name": "A3",
          "midi": 57,
          "time": 156.56224950000077,
          "velocity": 0.8661417322834646,
          "duration": 0.3081592291666766
        },
        {
          "name": "F#3",
          "midi": 54,
          "time": 156.87474900000078,
          "velocity": 0.8661417322834646,
          "duration": 0.20399272916665723
        },
        {
          "name": "F3",
          "midi": 53,
          "time": 157.08308200000076,
          "velocity": 0.8661417322834646,
          "duration": 0.20399272916665723
        },
        {
          "name": "E3",
          "midi": 52,
          "time": 157.29141500000074,
          "velocity": 0.8661417322834646,
          "duration": 0.20399272916665723
        },
        {
          "name": "D3",
          "midi": 50,
          "time": 157.49974800000072,
          "velocity": 0.8661417322834646,
          "duration": 0.20399272916665723
        },
        {
          "name": "B2",
          "midi": 47,
          "time": 157.7080810000007,
          "velocity": 0.8661417322834646,
          "duration": 0.20399272916665723
        },
        {
          "name": "F#3",
          "midi": 54,
          "time": 157.7080810000007,
          "velocity": 0.8661417322834646,
          "duration": 0.20399272916665723
        },
        {
          "name": "B2",
          "midi": 47,
          "time": 158.0205805000007,
          "velocity": 0.8661417322834646,
          "duration": 0.20399272916665723
        },
        {
          "name": "F#3",
          "midi": 54,
          "time": 158.0205805000007,
          "velocity": 0.8661417322834646,
          "duration": 0.20399272916665723
        },
        {
          "name": "B2",
          "midi": 47,
          "time": 158.3330800000007,
          "velocity": 0.8661417322834646,
          "duration": 0.20399272916665723
        },
        {
          "name": "F#3",
          "midi": 54,
          "time": 158.3330800000007,
          "velocity": 0.8661417322834646,
          "duration": 0.20399272916665723
        },
        {
          "name": "B2",
          "midi": 47,
          "time": 158.6455795000007,
          "velocity": 0.8661417322834646,
          "duration": 0.20399272916665723
        },
        {
          "name": "F#3",
          "midi": 54,
          "time": 158.6455795000007,
          "velocity": 0.8661417322834646,
          "duration": 0.20399272916665723
        },
        {
          "name": "D3",
          "midi": 50,
          "time": 158.9580790000007,
          "velocity": 0.8661417322834646,
          "duration": 0.34722166666665544
        },
        {
          "name": "A3",
          "midi": 57,
          "time": 158.9580790000007,
          "velocity": 0.8661417322834646,
          "duration": 0.34722166666665544
        },
        {
          "name": "B2",
          "midi": 47,
          "time": 159.3747450000007,
          "velocity": 0.8661417322834646,
          "duration": 0.20399272916665723
        },
        {
          "name": "F#3",
          "midi": 54,
          "time": 159.3747450000007,
          "velocity": 0.8661417322834646,
          "duration": 0.20399272916665723
        },
        {
          "name": "B2",
          "midi": 47,
          "time": 159.6872445000007,
          "velocity": 0.8661417322834646,
          "duration": 0.20399272916665723
        },
        {
          "name": "F#3",
          "midi": 54,
          "time": 159.6872445000007,
          "velocity": 0.8661417322834646,
          "duration": 0.20399272916665723
        },
        {
          "name": "B2",
          "midi": 47,
          "time": 159.9997440000007,
          "velocity": 0.8661417322834646,
          "duration": 0.20399272916665723
        },
        {
          "name": "F#3",
          "midi": 54,
          "time": 159.9997440000007,
          "velocity": 0.8661417322834646,
          "duration": 0.20399272916665723
        },
        {
          "name": "B2",
          "midi": 47,
          "time": 160.3122435000007,
          "velocity": 0.8661417322834646,
          "duration": 0.20399272916665723
        },
        {
          "name": "F#3",
          "midi": 54,
          "time": 160.3122435000007,
          "velocity": 0.8661417322834646,
          "duration": 0.20399272916665723
        },
        {
          "name": "E3",
          "midi": 52,
          "time": 160.6247430000007,
          "velocity": 0.8661417322834646,
          "duration": 0.34722166666665544
        },
        {
          "name": "B3",
          "midi": 59,
          "time": 160.6247430000007,
          "velocity": 0.8661417322834646,
          "duration": 0.34722166666665544
        },
        {
          "name": "B2",
          "midi": 47,
          "time": 161.0414090000007,
          "velocity": 0.8661417322834646,
          "duration": 0.20399272916665723
        },
        {
          "name": "F#3",
          "midi": 54,
          "time": 161.0414090000007,
          "velocity": 0.8661417322834646,
          "duration": 0.20399272916665723
        },
        {
          "name": "B2",
          "midi": 47,
          "time": 161.3539085000007,
          "velocity": 0.8661417322834646,
          "duration": 0.20399272916665723
        },
        {
          "name": "F#3",
          "midi": 54,
          "time": 161.3539085000007,
          "velocity": 0.8661417322834646,
          "duration": 0.20399272916665723
        },
        {
          "name": "B2",
          "midi": 47,
          "time": 161.6664080000007,
          "velocity": 0.8661417322834646,
          "duration": 0.20399272916665723
        },
        {
          "name": "F#3",
          "midi": 54,
          "time": 161.6664080000007,
          "velocity": 0.8661417322834646,
          "duration": 0.20399272916665723
        },
        {
          "name": "B2",
          "midi": 47,
          "time": 161.9789075000007,
          "velocity": 0.8661417322834646,
          "duration": 0.20399272916665723
        },
        {
          "name": "F#3",
          "midi": 54,
          "time": 161.9789075000007,
          "velocity": 0.8661417322834646,
          "duration": 0.20399272916665723
        },
        {
          "name": "D3",
          "midi": 50,
          "time": 162.2914070000007,
          "velocity": 0.8661417322834646,
          "duration": 0.34722166666665544
        },
        {
          "name": "A3",
          "midi": 57,
          "time": 162.2914070000007,
          "velocity": 0.8661417322834646,
          "duration": 0.34722166666665544
        },
        {
          "name": "B3",
          "midi": 59,
          "time": 162.7080730000007,
          "velocity": 0.8661417322834646,
          "duration": 0.3081592291666766
        },
        {
          "name": "A3",
          "midi": 57,
          "time": 163.0205725000007,
          "velocity": 0.8661417322834646,
          "duration": 0.3081592291666766
        },
        {
          "name": "F#3",
          "midi": 54,
          "time": 163.3330720000007,
          "velocity": 0.8661417322834646,
          "duration": 0.20399272916665723
        },
        {
          "name": "F3",
          "midi": 53,
          "time": 163.54140500000068,
          "velocity": 0.8661417322834646,
          "duration": 0.20399272916665723
        },
        {
          "name": "E3",
          "midi": 52,
          "time": 163.74973800000066,
          "velocity": 0.8661417322834646,
          "duration": 0.20399272916665723
        },
        {
          "name": "D3",
          "midi": 50,
          "time": 163.95807100000064,
          "velocity": 0.8661417322834646,
          "duration": 0.20399272916665723
        },
        {
          "name": "B2",
          "midi": 47,
          "time": 164.16640400000063,
          "velocity": 0.8661417322834646,
          "duration": 0.20399272916665723
        },
        {
          "name": "F#3",
          "midi": 54,
          "time": 164.16640400000063,
          "velocity": 0.8661417322834646,
          "duration": 0.20399272916665723
        },
        {
          "name": "B2",
          "midi": 47,
          "time": 164.47890350000063,
          "velocity": 0.8661417322834646,
          "duration": 0.20399272916665723
        },
        {
          "name": "F#3",
          "midi": 54,
          "time": 164.47890350000063,
          "velocity": 0.8661417322834646,
          "duration": 0.20399272916665723
        },
        {
          "name": "B2",
          "midi": 47,
          "time": 164.79140300000063,
          "velocity": 0.8661417322834646,
          "duration": 0.20399272916665723
        },
        {
          "name": "F#3",
          "midi": 54,
          "time": 164.79140300000063,
          "velocity": 0.8661417322834646,
          "duration": 0.20399272916665723
        },
        {
          "name": "B2",
          "midi": 47,
          "time": 165.10390250000063,
          "velocity": 0.8661417322834646,
          "duration": 0.20399272916665723
        },
        {
          "name": "F#3",
          "midi": 54,
          "time": 165.10390250000063,
          "velocity": 0.8661417322834646,
          "duration": 0.20399272916665723
        },
        {
          "name": "D3",
          "midi": 50,
          "time": 165.41640200000063,
          "velocity": 0.8661417322834646,
          "duration": 0.34722166666665544
        },
        {
          "name": "A3",
          "midi": 57,
          "time": 165.41640200000063,
          "velocity": 0.8661417322834646,
          "duration": 0.34722166666665544
        },
        {
          "name": "B2",
          "midi": 47,
          "time": 165.83306800000062,
          "velocity": 0.8661417322834646,
          "duration": 0.20399272916665723
        },
        {
          "name": "F#3",
          "midi": 54,
          "time": 165.83306800000062,
          "velocity": 0.8661417322834646,
          "duration": 0.20399272916665723
        },
        {
          "name": "B2",
          "midi": 47,
          "time": 166.14556750000062,
          "velocity": 0.8661417322834646,
          "duration": 0.20399272916665723
        },
        {
          "name": "F#3",
          "midi": 54,
          "time": 166.14556750000062,
          "velocity": 0.8661417322834646,
          "duration": 0.20399272916665723
        },
        {
          "name": "B2",
          "midi": 47,
          "time": 166.45806700000063,
          "velocity": 0.8661417322834646,
          "duration": 0.20399272916665723
        },
        {
          "name": "F#3",
          "midi": 54,
          "time": 166.45806700000063,
          "velocity": 0.8661417322834646,
          "duration": 0.20399272916665723
        },
        {
          "name": "B2",
          "midi": 47,
          "time": 166.77056650000063,
          "velocity": 0.8661417322834646,
          "duration": 0.20399272916665723
        },
        {
          "name": "F#3",
          "midi": 54,
          "time": 166.77056650000063,
          "velocity": 0.8661417322834646,
          "duration": 0.20399272916665723
        },
        {
          "name": "E3",
          "midi": 52,
          "time": 167.08306600000063,
          "velocity": 0.8661417322834646,
          "duration": 0.34722166666665544
        },
        {
          "name": "B3",
          "midi": 59,
          "time": 167.08306600000063,
          "velocity": 0.8661417322834646,
          "duration": 0.34722166666665544
        },
        {
          "name": "B2",
          "midi": 47,
          "time": 167.49973200000062,
          "velocity": 0.8661417322834646,
          "duration": 0.20399272916665723
        },
        {
          "name": "F#3",
          "midi": 54,
          "time": 167.49973200000062,
          "velocity": 0.8661417322834646,
          "duration": 0.20399272916665723
        },
        {
          "name": "B2",
          "midi": 47,
          "time": 167.81223150000062,
          "velocity": 0.8661417322834646,
          "duration": 0.20399272916665723
        },
        {
          "name": "F#3",
          "midi": 54,
          "time": 167.81223150000062,
          "velocity": 0.8661417322834646,
          "duration": 0.20399272916665723
        },
        {
          "name": "B2",
          "midi": 47,
          "time": 168.12473100000062,
          "velocity": 0.8661417322834646,
          "duration": 0.20399272916665723
        },
        {
          "name": "F#3",
          "midi": 54,
          "time": 168.12473100000062,
          "velocity": 0.8661417322834646,
          "duration": 0.20399272916665723
        },
        {
          "name": "B2",
          "midi": 47,
          "time": 168.43723050000062,
          "velocity": 0.8661417322834646,
          "duration": 0.20399272916665723
        },
        {
          "name": "F#3",
          "midi": 54,
          "time": 168.43723050000062,
          "velocity": 0.8661417322834646,
          "duration": 0.20399272916665723
        },
        {
          "name": "D3",
          "midi": 50,
          "time": 168.74973000000062,
          "velocity": 0.8661417322834646,
          "duration": 0.34722166666665544
        },
        {
          "name": "A3",
          "midi": 57,
          "time": 168.74973000000062,
          "velocity": 0.8661417322834646,
          "duration": 0.34722166666665544
        },
        {
          "name": "B3",
          "midi": 59,
          "time": 169.16639600000062,
          "velocity": 0.8661417322834646,
          "duration": 0.3081592291666766
        },
        {
          "name": "A3",
          "midi": 57,
          "time": 169.47889550000062,
          "velocity": 0.8661417322834646,
          "duration": 0.3081592291666766
        },
        {
          "name": "F#3",
          "midi": 54,
          "time": 169.79139500000062,
          "velocity": 0.8661417322834646,
          "duration": 0.20399272916665723
        },
        {
          "name": "F3",
          "midi": 53,
          "time": 169.9997280000006,
          "velocity": 0.8661417322834646,
          "duration": 0.20399272916665723
        },
        {
          "name": "E3",
          "midi": 52,
          "time": 170.20806100000058,
          "velocity": 0.8661417322834646,
          "duration": 0.20399272916665723
        },
        {
          "name": "D3",
          "midi": 50,
          "time": 170.41639400000057,
          "velocity": 0.8661417322834646,
          "duration": 0.20399272916665723
        },
        {
          "name": "B2",
          "midi": 47,
          "time": 170.62472700000055,
          "velocity": 0.8661417322834646,
          "duration": 0.20399272916665723
        },
        {
          "name": "F#3",
          "midi": 54,
          "time": 170.62472700000055,
          "velocity": 0.8661417322834646,
          "duration": 0.20399272916665723
        },
        {
          "name": "B2",
          "midi": 47,
          "time": 170.93722650000055,
          "velocity": 0.8661417322834646,
          "duration": 0.20399272916665723
        },
        {
          "name": "F#3",
          "midi": 54,
          "time": 170.93722650000055,
          "velocity": 0.8661417322834646,
          "duration": 0.20399272916665723
        },
        {
          "name": "B2",
          "midi": 47,
          "time": 171.24972600000055,
          "velocity": 0.8661417322834646,
          "duration": 0.20399272916665723
        },
        {
          "name": "F#3",
          "midi": 54,
          "time": 171.24972600000055,
          "velocity": 0.8661417322834646,
          "duration": 0.20399272916665723
        },
        {
          "name": "B2",
          "midi": 47,
          "time": 171.56222550000055,
          "velocity": 0.8661417322834646,
          "duration": 0.20399272916665723
        },
        {
          "name": "F#3",
          "midi": 54,
          "time": 171.56222550000055,
          "velocity": 0.8661417322834646,
          "duration": 0.20399272916665723
        },
        {
          "name": "D3",
          "midi": 50,
          "time": 171.87472500000055,
          "velocity": 0.8661417322834646,
          "duration": 0.34722166666665544
        },
        {
          "name": "A3",
          "midi": 57,
          "time": 171.87472500000055,
          "velocity": 0.8661417322834646,
          "duration": 0.34722166666665544
        },
        {
          "name": "B2",
          "midi": 47,
          "time": 172.29139100000054,
          "velocity": 0.8661417322834646,
          "duration": 0.20399272916665723
        },
        {
          "name": "F#3",
          "midi": 54,
          "time": 172.29139100000054,
          "velocity": 0.8661417322834646,
          "duration": 0.20399272916665723
        },
        {
          "name": "B2",
          "midi": 47,
          "time": 172.60389050000055,
          "velocity": 0.8661417322834646,
          "duration": 0.20399272916665723
        },
        {
          "name": "F#3",
          "midi": 54,
          "time": 172.60389050000055,
          "velocity": 0.8661417322834646,
          "duration": 0.20399272916665723
        },
        {
          "name": "B2",
          "midi": 47,
          "time": 172.91639000000055,
          "velocity": 0.8661417322834646,
          "duration": 0.20399272916665723
        },
        {
          "name": "F#3",
          "midi": 54,
          "time": 172.91639000000055,
          "velocity": 0.8661417322834646,
          "duration": 0.20399272916665723
        },
        {
          "name": "B2",
          "midi": 47,
          "time": 173.22888950000055,
          "velocity": 0.8661417322834646,
          "duration": 0.20399272916665723
        },
        {
          "name": "F#3",
          "midi": 54,
          "time": 173.22888950000055,
          "velocity": 0.8661417322834646,
          "duration": 0.20399272916665723
        },
        {
          "name": "E3",
          "midi": 52,
          "time": 173.54138900000055,
          "velocity": 0.8661417322834646,
          "duration": 0.34722166666665544
        },
        {
          "name": "B3",
          "midi": 59,
          "time": 173.54138900000055,
          "velocity": 0.8661417322834646,
          "duration": 0.34722166666665544
        },
        {
          "name": "B2",
          "midi": 47,
          "time": 173.95805500000054,
          "velocity": 0.8661417322834646,
          "duration": 0.20399272916665723
        },
        {
          "name": "F#3",
          "midi": 54,
          "time": 173.95805500000054,
          "velocity": 0.8661417322834646,
          "duration": 0.20399272916665723
        },
        {
          "name": "B2",
          "midi": 47,
          "time": 174.27055450000054,
          "velocity": 0.8661417322834646,
          "duration": 0.20399272916665723
        },
        {
          "name": "F#3",
          "midi": 54,
          "time": 174.27055450000054,
          "velocity": 0.8661417322834646,
          "duration": 0.20399272916665723
        },
        {
          "name": "B2",
          "midi": 47,
          "time": 174.58305400000054,
          "velocity": 0.8661417322834646,
          "duration": 0.20399272916665723
        },
        {
          "name": "F#3",
          "midi": 54,
          "time": 174.58305400000054,
          "velocity": 0.8661417322834646,
          "duration": 0.20399272916665723
        },
        {
          "name": "B2",
          "midi": 47,
          "time": 174.89555350000055,
          "velocity": 0.8661417322834646,
          "duration": 0.20399272916665723
        },
        {
          "name": "F#3",
          "midi": 54,
          "time": 174.89555350000055,
          "velocity": 0.8661417322834646,
          "duration": 0.20399272916665723
        },
        {
          "name": "D3",
          "midi": 50,
          "time": 175.20805300000055,
          "velocity": 0.8661417322834646,
          "duration": 0.34722166666665544
        },
        {
          "name": "A3",
          "midi": 57,
          "time": 175.20805300000055,
          "velocity": 0.8661417322834646,
          "duration": 0.34722166666665544
        },
        {
          "name": "B3",
          "midi": 59,
          "time": 175.62471900000054,
          "velocity": 0.8661417322834646,
          "duration": 0.3081592291666766
        },
        {
          "name": "A3",
          "midi": 57,
          "time": 175.93721850000054,
          "velocity": 0.8661417322834646,
          "duration": 0.3081592291666766
        },
        {
          "name": "F#3",
          "midi": 54,
          "time": 176.24971800000054,
          "velocity": 0.8661417322834646,
          "duration": 0.20399272916665723
        },
        {
          "name": "F3",
          "midi": 53,
          "time": 176.45805100000052,
          "velocity": 0.8661417322834646,
          "duration": 0.20399272916665723
        },
        {
          "name": "E3",
          "midi": 52,
          "time": 176.6663840000005,
          "velocity": 0.8661417322834646,
          "duration": 0.20399272916665723
        },
        {
          "name": "D3",
          "midi": 50,
          "time": 176.8747170000005,
          "velocity": 0.8661417322834646,
          "duration": 0.20399272916665723
        },
        {
          "name": "B2",
          "midi": 47,
          "time": 177.08305000000047,
          "velocity": 0.8661417322834646,
          "duration": 0.20399272916665723
        },
        {
          "name": "F#3",
          "midi": 54,
          "time": 177.08305000000047,
          "velocity": 0.8661417322834646,
          "duration": 0.20399272916665723
        },
        {
          "name": "B2",
          "midi": 47,
          "time": 177.39554950000047,
          "velocity": 0.8661417322834646,
          "duration": 0.20399272916665723
        },
        {
          "name": "F#3",
          "midi": 54,
          "time": 177.39554950000047,
          "velocity": 0.8661417322834646,
          "duration": 0.20399272916665723
        },
        {
          "name": "B2",
          "midi": 47,
          "time": 177.70804900000047,
          "velocity": 0.8661417322834646,
          "duration": 0.20399272916665723
        },
        {
          "name": "F#3",
          "midi": 54,
          "time": 177.70804900000047,
          "velocity": 0.8661417322834646,
          "duration": 0.20399272916665723
        },
        {
          "name": "B2",
          "midi": 47,
          "time": 178.02054850000047,
          "velocity": 0.8661417322834646,
          "duration": 0.20399272916665723
        },
        {
          "name": "F#3",
          "midi": 54,
          "time": 178.02054850000047,
          "velocity": 0.8661417322834646,
          "duration": 0.20399272916665723
        },
        {
          "name": "D3",
          "midi": 50,
          "time": 178.33304800000047,
          "velocity": 0.8661417322834646,
          "duration": 0.34722166666665544
        },
        {
          "name": "A3",
          "midi": 57,
          "time": 178.33304800000047,
          "velocity": 0.8661417322834646,
          "duration": 0.34722166666665544
        },
        {
          "name": "B2",
          "midi": 47,
          "time": 178.74971400000047,
          "velocity": 0.8661417322834646,
          "duration": 0.20399272916665723
        },
        {
          "name": "F#3",
          "midi": 54,
          "time": 178.74971400000047,
          "velocity": 0.8661417322834646,
          "duration": 0.20399272916665723
        },
        {
          "name": "B2",
          "midi": 47,
          "time": 179.06221350000047,
          "velocity": 0.8661417322834646,
          "duration": 0.20399272916665723
        },
        {
          "name": "F#3",
          "midi": 54,
          "time": 179.06221350000047,
          "velocity": 0.8661417322834646,
          "duration": 0.20399272916665723
        },
        {
          "name": "B2",
          "midi": 47,
          "time": 179.37471300000047,
          "velocity": 0.8661417322834646,
          "duration": 0.20399272916665723
        },
        {
          "name": "F#3",
          "midi": 54,
          "time": 179.37471300000047,
          "velocity": 0.8661417322834646,
          "duration": 0.20399272916665723
        },
        {
          "name": "B2",
          "midi": 47,
          "time": 179.68721250000047,
          "velocity": 0.8661417322834646,
          "duration": 0.20399272916665723
        },
        {
          "name": "F#3",
          "midi": 54,
          "time": 179.68721250000047,
          "velocity": 0.8661417322834646,
          "duration": 0.20399272916665723
        },
        {
          "name": "E3",
          "midi": 52,
          "time": 179.99971200000047,
          "velocity": 0.8661417322834646,
          "duration": 0.34722166666665544
        },
        {
          "name": "B3",
          "midi": 59,
          "time": 179.99971200000047,
          "velocity": 0.8661417322834646,
          "duration": 0.34722166666665544
        },
        {
          "name": "B2",
          "midi": 47,
          "time": 180.41637800000046,
          "velocity": 0.8661417322834646,
          "duration": 0.20399272916665723
        },
        {
          "name": "F#3",
          "midi": 54,
          "time": 180.41637800000046,
          "velocity": 0.8661417322834646,
          "duration": 0.20399272916665723
        },
        {
          "name": "B2",
          "midi": 47,
          "time": 180.72887750000046,
          "velocity": 0.8661417322834646,
          "duration": 0.20399272916665723
        },
        {
          "name": "F#3",
          "midi": 54,
          "time": 180.72887750000046,
          "velocity": 0.8661417322834646,
          "duration": 0.20399272916665723
        },
        {
          "name": "B2",
          "midi": 47,
          "time": 181.04137700000047,
          "velocity": 0.8661417322834646,
          "duration": 0.20399272916665723
        },
        {
          "name": "F#3",
          "midi": 54,
          "time": 181.04137700000047,
          "velocity": 0.8661417322834646,
          "duration": 0.20399272916665723
        },
        {
          "name": "B2",
          "midi": 47,
          "time": 181.35387650000047,
          "velocity": 0.8661417322834646,
          "duration": 0.20399272916665723
        },
        {
          "name": "F#3",
          "midi": 54,
          "time": 181.35387650000047,
          "velocity": 0.8661417322834646,
          "duration": 0.20399272916665723
        },
        {
          "name": "D3",
          "midi": 50,
          "time": 181.66637600000047,
          "velocity": 0.8661417322834646,
          "duration": 0.34722166666665544
        },
        {
          "name": "A3",
          "midi": 57,
          "time": 181.66637600000047,
          "velocity": 0.8661417322834646,
          "duration": 0.34722166666665544
        },
        {
          "name": "B3",
          "midi": 59,
          "time": 182.08304200000046,
          "velocity": 0.8661417322834646,
          "duration": 0.3081592291666766
        },
        {
          "name": "A3",
          "midi": 57,
          "time": 182.39554150000046,
          "velocity": 0.8661417322834646,
          "duration": 0.3081592291666766
        },
        {
          "name": "F#3",
          "midi": 54,
          "time": 182.70804100000046,
          "velocity": 0.8661417322834646,
          "duration": 0.20399272916665723
        },
        {
          "name": "F3",
          "midi": 53,
          "time": 182.91637400000045,
          "velocity": 0.8661417322834646,
          "duration": 0.20399272916665723
        },
        {
          "name": "E3",
          "midi": 52,
          "time": 183.12470700000043,
          "velocity": 0.8661417322834646,
          "duration": 0.20399272916665723
        },
        {
          "name": "D3",
          "midi": 50,
          "time": 183.3330400000004,
          "velocity": 0.8661417322834646,
          "duration": 0.20399272916665723
        },
        {
          "name": "B2",
          "midi": 47,
          "time": 183.5413730000004,
          "velocity": 0.8661417322834646,
          "duration": 0.20399272916665723
        },
        {
          "name": "F#3",
          "midi": 54,
          "time": 183.5413730000004,
          "velocity": 0.8661417322834646,
          "duration": 0.20399272916665723
        },
        {
          "name": "B2",
          "midi": 47,
          "time": 183.8538725000004,
          "velocity": 0.8661417322834646,
          "duration": 0.20399272916665723
        },
        {
          "name": "F#3",
          "midi": 54,
          "time": 183.8538725000004,
          "velocity": 0.8661417322834646,
          "duration": 0.20399272916665723
        },
        {
          "name": "B2",
          "midi": 47,
          "time": 184.1663720000004,
          "velocity": 0.8661417322834646,
          "duration": 0.20399272916665723
        },
        {
          "name": "F#3",
          "midi": 54,
          "time": 184.1663720000004,
          "velocity": 0.8661417322834646,
          "duration": 0.20399272916665723
        },
        {
          "name": "B2",
          "midi": 47,
          "time": 184.4788715000004,
          "velocity": 0.8661417322834646,
          "duration": 0.20399272916665723
        },
        {
          "name": "F#3",
          "midi": 54,
          "time": 184.4788715000004,
          "velocity": 0.8661417322834646,
          "duration": 0.20399272916665723
        },
        {
          "name": "D3",
          "midi": 50,
          "time": 184.7913710000004,
          "velocity": 0.8661417322834646,
          "duration": 0.34722166666665544
        },
        {
          "name": "A3",
          "midi": 57,
          "time": 184.7913710000004,
          "velocity": 0.8661417322834646,
          "duration": 0.34722166666665544
        },
        {
          "name": "B2",
          "midi": 47,
          "time": 185.2080370000004,
          "velocity": 0.8661417322834646,
          "duration": 0.20399272916665723
        },
        {
          "name": "F#3",
          "midi": 54,
          "time": 185.2080370000004,
          "velocity": 0.8661417322834646,
          "duration": 0.20399272916665723
        },
        {
          "name": "B2",
          "midi": 47,
          "time": 185.5205365000004,
          "velocity": 0.8661417322834646,
          "duration": 0.20399272916665723
        },
        {
          "name": "F#3",
          "midi": 54,
          "time": 185.5205365000004,
          "velocity": 0.8661417322834646,
          "duration": 0.20399272916665723
        },
        {
          "name": "B2",
          "midi": 47,
          "time": 185.8330360000004,
          "velocity": 0.8661417322834646,
          "duration": 0.20399272916665723
        },
        {
          "name": "F#3",
          "midi": 54,
          "time": 185.8330360000004,
          "velocity": 0.8661417322834646,
          "duration": 0.20399272916665723
        },
        {
          "name": "B2",
          "midi": 47,
          "time": 186.1455355000004,
          "velocity": 0.8661417322834646,
          "duration": 0.20399272916665723
        },
        {
          "name": "F#3",
          "midi": 54,
          "time": 186.1455355000004,
          "velocity": 0.8661417322834646,
          "duration": 0.20399272916665723
        },
        {
          "name": "E3",
          "midi": 52,
          "time": 186.4580350000004,
          "velocity": 0.8661417322834646,
          "duration": 0.34722166666665544
        },
        {
          "name": "B3",
          "midi": 59,
          "time": 186.4580350000004,
          "velocity": 0.8661417322834646,
          "duration": 0.34722166666665544
        },
        {
          "name": "B2",
          "midi": 47,
          "time": 186.87470100000039,
          "velocity": 0.8661417322834646,
          "duration": 0.20399272916665723
        },
        {
          "name": "F#3",
          "midi": 54,
          "time": 186.87470100000039,
          "velocity": 0.8661417322834646,
          "duration": 0.20399272916665723
        },
        {
          "name": "B2",
          "midi": 47,
          "time": 187.1872005000004,
          "velocity": 0.8661417322834646,
          "duration": 0.20399272916665723
        },
        {
          "name": "F#3",
          "midi": 54,
          "time": 187.1872005000004,
          "velocity": 0.8661417322834646,
          "duration": 0.20399272916665723
        },
        {
          "name": "B2",
          "midi": 47,
          "time": 187.4997000000004,
          "velocity": 0.8661417322834646,
          "duration": 0.20399272916665723
        },
        {
          "name": "F#3",
          "midi": 54,
          "time": 187.4997000000004,
          "velocity": 0.8661417322834646,
          "duration": 0.20399272916665723
        },
        {
          "name": "B2",
          "midi": 47,
          "time": 187.8121995000004,
          "velocity": 0.8661417322834646,
          "duration": 0.20399272916665723
        },
        {
          "name": "F#3",
          "midi": 54,
          "time": 187.8121995000004,
          "velocity": 0.8661417322834646,
          "duration": 0.20399272916665723
        },
        {
          "name": "D3",
          "midi": 50,
          "time": 188.1246990000004,
          "velocity": 0.8661417322834646,
          "duration": 0.34722166666665544
        },
        {
          "name": "A3",
          "midi": 57,
          "time": 188.1246990000004,
          "velocity": 0.8661417322834646,
          "duration": 0.34722166666665544
        },
        {
          "name": "B3",
          "midi": 59,
          "time": 188.54136500000038,
          "velocity": 0.8661417322834646,
          "duration": 0.3081592291666766
        },
        {
          "name": "A3",
          "midi": 57,
          "time": 188.85386450000038,
          "velocity": 0.8661417322834646,
          "duration": 0.3081592291666766
        },
        {
          "name": "F#3",
          "midi": 54,
          "time": 189.16636400000039,
          "velocity": 0.8661417322834646,
          "duration": 0.20399272916665723
        },
        {
          "name": "F3",
          "midi": 53,
          "time": 189.37469700000037,
          "velocity": 0.8661417322834646,
          "duration": 0.20399272916665723
        },
        {
          "name": "E3",
          "midi": 52,
          "time": 189.58303000000035,
          "velocity": 0.8661417322834646,
          "duration": 0.20399272916665723
        },
        {
          "name": "D3",
          "midi": 50,
          "time": 189.79136300000033,
          "velocity": 0.8661417322834646,
          "duration": 0.20399272916665723
        },
        {
          "name": "B2",
          "midi": 47,
          "time": 189.9996960000003,
          "velocity": 0.8661417322834646,
          "duration": 0.20399272916665723
        },
        {
          "name": "F#3",
          "midi": 54,
          "time": 189.9996960000003,
          "velocity": 0.8661417322834646,
          "duration": 0.20399272916665723
        },
        {
          "name": "B2",
          "midi": 47,
          "time": 190.3121955000003,
          "velocity": 0.8661417322834646,
          "duration": 0.20399272916665723
        },
        {
          "name": "F#3",
          "midi": 54,
          "time": 190.3121955000003,
          "velocity": 0.8661417322834646,
          "duration": 0.20399272916665723
        },
        {
          "name": "B2",
          "midi": 47,
          "time": 190.62469500000032,
          "velocity": 0.8661417322834646,
          "duration": 0.20399272916665723
        },
        {
          "name": "F#3",
          "midi": 54,
          "time": 190.62469500000032,
          "velocity": 0.8661417322834646,
          "duration": 0.20399272916665723
        },
        {
          "name": "B2",
          "midi": 47,
          "time": 190.93719450000032,
          "velocity": 0.8661417322834646,
          "duration": 0.20399272916665723
        },
        {
          "name": "F#3",
          "midi": 54,
          "time": 190.93719450000032,
          "velocity": 0.8661417322834646,
          "duration": 0.20399272916665723
        },
        {
          "name": "D3",
          "midi": 50,
          "time": 191.24969400000032,
          "velocity": 0.8661417322834646,
          "duration": 0.34722166666665544
        },
        {
          "name": "A3",
          "midi": 57,
          "time": 191.24969400000032,
          "velocity": 0.8661417322834646,
          "duration": 0.34722166666665544
        },
        {
          "name": "B2",
          "midi": 47,
          "time": 191.6663600000003,
          "velocity": 0.8661417322834646,
          "duration": 0.20399272916665723
        },
        {
          "name": "F#3",
          "midi": 54,
          "time": 191.6663600000003,
          "velocity": 0.8661417322834646,
          "duration": 0.20399272916665723
        },
        {
          "name": "B2",
          "midi": 47,
          "time": 191.9788595000003,
          "velocity": 0.8661417322834646,
          "duration": 0.20399272916665723
        },
        {
          "name": "F#3",
          "midi": 54,
          "time": 191.9788595000003,
          "velocity": 0.8661417322834646,
          "duration": 0.20399272916665723
        },
        {
          "name": "B2",
          "midi": 47,
          "time": 192.2913590000003,
          "velocity": 0.8661417322834646,
          "duration": 0.20399272916665723
        },
        {
          "name": "F#3",
          "midi": 54,
          "time": 192.2913590000003,
          "velocity": 0.8661417322834646,
          "duration": 0.20399272916665723
        },
        {
          "name": "B2",
          "midi": 47,
          "time": 192.6038585000003,
          "velocity": 0.8661417322834646,
          "duration": 0.20399272916665723
        },
        {
          "name": "F#3",
          "midi": 54,
          "time": 192.6038585000003,
          "velocity": 0.8661417322834646,
          "duration": 0.20399272916665723
        },
        {
          "name": "E3",
          "midi": 52,
          "time": 192.91635800000032,
          "velocity": 0.8661417322834646,
          "duration": 0.34722166666665544
        },
        {
          "name": "B3",
          "midi": 59,
          "time": 192.91635800000032,
          "velocity": 0.8661417322834646,
          "duration": 0.34722166666665544
        },
        {
          "name": "B2",
          "midi": 47,
          "time": 193.3330240000003,
          "velocity": 0.8661417322834646,
          "duration": 0.20399272916665723
        },
        {
          "name": "F#3",
          "midi": 54,
          "time": 193.3330240000003,
          "velocity": 0.8661417322834646,
          "duration": 0.20399272916665723
        },
        {
          "name": "B2",
          "midi": 47,
          "time": 193.6455235000003,
          "velocity": 0.8661417322834646,
          "duration": 0.20399272916665723
        },
        {
          "name": "F#3",
          "midi": 54,
          "time": 193.6455235000003,
          "velocity": 0.8661417322834646,
          "duration": 0.20399272916665723
        },
        {
          "name": "B2",
          "midi": 47,
          "time": 193.9580230000003,
          "velocity": 0.8661417322834646,
          "duration": 0.20399272916665723
        },
        {
          "name": "F#3",
          "midi": 54,
          "time": 193.9580230000003,
          "velocity": 0.8661417322834646,
          "duration": 0.20399272916665723
        },
        {
          "name": "B2",
          "midi": 47,
          "time": 194.2705225000003,
          "velocity": 0.8661417322834646,
          "duration": 0.20399272916665723
        },
        {
          "name": "F#3",
          "midi": 54,
          "time": 194.2705225000003,
          "velocity": 0.8661417322834646,
          "duration": 0.20399272916665723
        },
        {
          "name": "D3",
          "midi": 50,
          "time": 194.5830220000003,
          "velocity": 0.8661417322834646,
          "duration": 0.34722166666665544
        },
        {
          "name": "A3",
          "midi": 57,
          "time": 194.5830220000003,
          "velocity": 0.8661417322834646,
          "duration": 0.34722166666665544
        },
        {
          "name": "B3",
          "midi": 59,
          "time": 194.9996880000003,
          "velocity": 0.8661417322834646,
          "duration": 0.3081592291666766
        },
        {
          "name": "A3",
          "midi": 57,
          "time": 195.3121875000003,
          "velocity": 0.8661417322834646,
          "duration": 0.3081592291666766
        },
        {
          "name": "F#3",
          "midi": 54,
          "time": 195.6246870000003,
          "velocity": 0.8661417322834646,
          "duration": 0.20399272916665723
        },
        {
          "name": "F3",
          "midi": 53,
          "time": 195.8330200000003,
          "velocity": 0.8661417322834646,
          "duration": 0.20399272916665723
        },
        {
          "name": "E3",
          "midi": 52,
          "time": 196.04135300000027,
          "velocity": 0.8661417322834646,
          "duration": 0.20399272916665723
        },
        {
          "name": "D3",
          "midi": 50,
          "time": 196.24968600000025,
          "velocity": 0.8661417322834646,
          "duration": 0.20399272916665723
        },
        {
          "name": "B2",
          "midi": 47,
          "time": 196.45801900000023,
          "velocity": 0.8661417322834646,
          "duration": 0.20399272916665723
        },
        {
          "name": "F#3",
          "midi": 54,
          "time": 196.45801900000023,
          "velocity": 0.8661417322834646,
          "duration": 0.20399272916665723
        },
        {
          "name": "B2",
          "midi": 47,
          "time": 196.77051850000024,
          "velocity": 0.8661417322834646,
          "duration": 0.20399272916665723
        },
        {
          "name": "F#3",
          "midi": 54,
          "time": 196.77051850000024,
          "velocity": 0.8661417322834646,
          "duration": 0.20399272916665723
        },
        {
          "name": "B2",
          "midi": 47,
          "time": 197.08301800000024,
          "velocity": 0.8661417322834646,
          "duration": 0.20399272916665723
        },
        {
          "name": "F#3",
          "midi": 54,
          "time": 197.08301800000024,
          "velocity": 0.8661417322834646,
          "duration": 0.20399272916665723
        },
        {
          "name": "B2",
          "midi": 47,
          "time": 197.39551750000024,
          "velocity": 0.8661417322834646,
          "duration": 0.20399272916665723
        },
        {
          "name": "F#3",
          "midi": 54,
          "time": 197.39551750000024,
          "velocity": 0.8661417322834646,
          "duration": 0.20399272916665723
        },
        {
          "name": "D3",
          "midi": 50,
          "time": 197.70801700000024,
          "velocity": 0.8661417322834646,
          "duration": 0.34722166666665544
        },
        {
          "name": "A3",
          "midi": 57,
          "time": 197.70801700000024,
          "velocity": 0.8661417322834646,
          "duration": 0.34722166666665544
        },
        {
          "name": "B2",
          "midi": 47,
          "time": 198.12468300000023,
          "velocity": 0.8661417322834646,
          "duration": 0.20399272916665723
        },
        {
          "name": "F#3",
          "midi": 54,
          "time": 198.12468300000023,
          "velocity": 0.8661417322834646,
          "duration": 0.20399272916665723
        },
        {
          "name": "B2",
          "midi": 47,
          "time": 198.43718250000023,
          "velocity": 0.8661417322834646,
          "duration": 0.20399272916665723
        },
        {
          "name": "F#3",
          "midi": 54,
          "time": 198.43718250000023,
          "velocity": 0.8661417322834646,
          "duration": 0.20399272916665723
        },
        {
          "name": "B2",
          "midi": 47,
          "time": 198.74968200000023,
          "velocity": 0.8661417322834646,
          "duration": 0.20399272916665723
        },
        {
          "name": "F#3",
          "midi": 54,
          "time": 198.74968200000023,
          "velocity": 0.8661417322834646,
          "duration": 0.20399272916665723
        },
        {
          "name": "B2",
          "midi": 47,
          "time": 199.06218150000024,
          "velocity": 0.8661417322834646,
          "duration": 0.20399272916665723
        },
        {
          "name": "F#3",
          "midi": 54,
          "time": 199.06218150000024,
          "velocity": 0.8661417322834646,
          "duration": 0.20399272916665723
        },
        {
          "name": "E3",
          "midi": 52,
          "time": 199.37468100000024,
          "velocity": 0.8661417322834646,
          "duration": 0.34722166666665544
        },
        {
          "name": "B3",
          "midi": 59,
          "time": 199.37468100000024,
          "velocity": 0.8661417322834646,
          "duration": 0.34722166666665544
        },
        {
          "name": "B2",
          "midi": 47,
          "time": 199.79134700000023,
          "velocity": 0.8661417322834646,
          "duration": 0.20399272916665723
        },
        {
          "name": "F#3",
          "midi": 54,
          "time": 199.79134700000023,
          "velocity": 0.8661417322834646,
          "duration": 0.20399272916665723
        },
        {
          "name": "B2",
          "midi": 47,
          "time": 200.10384650000023,
          "velocity": 0.8661417322834646,
          "duration": 0.20399272916665723
        },
        {
          "name": "F#3",
          "midi": 54,
          "time": 200.10384650000023,
          "velocity": 0.8661417322834646,
          "duration": 0.20399272916665723
        },
        {
          "name": "B2",
          "midi": 47,
          "time": 200.41634600000023,
          "velocity": 0.8661417322834646,
          "duration": 0.20399272916665723
        },
        {
          "name": "F#3",
          "midi": 54,
          "time": 200.41634600000023,
          "velocity": 0.8661417322834646,
          "duration": 0.20399272916665723
        },
        {
          "name": "B2",
          "midi": 47,
          "time": 200.72884550000023,
          "velocity": 0.8661417322834646,
          "duration": 0.20399272916665723
        },
        {
          "name": "F#3",
          "midi": 54,
          "time": 200.72884550000023,
          "velocity": 0.8661417322834646,
          "duration": 0.20399272916665723
        },
        {
          "name": "D3",
          "midi": 50,
          "time": 201.04134500000023,
          "velocity": 0.8661417322834646,
          "duration": 0.34722166666665544
        },
        {
          "name": "A3",
          "midi": 57,
          "time": 201.04134500000023,
          "velocity": 0.8661417322834646,
          "duration": 0.34722166666665544
        },
        {
          "name": "B3",
          "midi": 59,
          "time": 201.45801100000023,
          "velocity": 0.8661417322834646,
          "duration": 0.3081592291666766
        },
        {
          "name": "A3",
          "midi": 57,
          "time": 201.77051050000023,
          "velocity": 0.8661417322834646,
          "duration": 0.3081592291666766
        },
        {
          "name": "F#3",
          "midi": 54,
          "time": 202.08301000000023,
          "velocity": 0.8661417322834646,
          "duration": 0.20399272916665723
        },
        {
          "name": "F3",
          "midi": 53,
          "time": 202.2913430000002,
          "velocity": 0.8661417322834646,
          "duration": 0.20399272916665723
        },
        {
          "name": "E3",
          "midi": 52,
          "time": 202.4996760000002,
          "velocity": 0.8661417322834646,
          "duration": 0.20399272916665723
        },
        {
          "name": "D3",
          "midi": 50,
          "time": 202.70800900000017,
          "velocity": 0.8661417322834646,
          "duration": 0.20399272916665723
        },
        {
          "name": "A2",
          "midi": 45,
          "time": 202.91634200000016,
          "velocity": 0.8661417322834646,
          "duration": 0.20399272916665723
        },
        {
          "name": "A3",
          "midi": 57,
          "time": 202.91634200000016,
          "velocity": 0.8661417322834646,
          "duration": 0.20399272916665723
        },
        {
          "name": "A2",
          "midi": 45,
          "time": 203.22884150000016,
          "velocity": 0.8661417322834646,
          "duration": 0.20399272916665723
        },
        {
          "name": "A3",
          "midi": 57,
          "time": 203.22884150000016,
          "velocity": 0.8661417322834646,
          "duration": 0.20399272916665723
        },
        {
          "name": "A2",
          "midi": 45,
          "time": 203.54134100000016,
          "velocity": 0.8661417322834646,
          "duration": 0.20399272916665723
        },
        {
          "name": "A3",
          "midi": 57,
          "time": 203.54134100000016,
          "velocity": 0.8661417322834646,
          "duration": 0.20399272916665723
        },
        {
          "name": "A2",
          "midi": 45,
          "time": 203.85384050000016,
          "velocity": 0.8661417322834646,
          "duration": 0.20399272916665723
        },
        {
          "name": "A3",
          "midi": 57,
          "time": 203.85384050000016,
          "velocity": 0.8661417322834646,
          "duration": 0.20399272916665723
        },
        {
          "name": "G3",
          "midi": 55,
          "time": 204.16634000000016,
          "velocity": 0.8661417322834646,
          "duration": 0.34722166666665544
        },
        {
          "name": "C4",
          "midi": 60,
          "time": 204.16634000000016,
          "velocity": 0.8661417322834646,
          "duration": 0.34722166666665544
        },
        {
          "name": "A2",
          "midi": 45,
          "time": 204.58300600000015,
          "velocity": 0.8661417322834646,
          "duration": 0.20399272916665723
        },
        {
          "name": "A3",
          "midi": 57,
          "time": 204.58300600000015,
          "velocity": 0.8661417322834646,
          "duration": 0.20399272916665723
        },
        {
          "name": "A2",
          "midi": 45,
          "time": 204.89550550000016,
          "velocity": 0.8661417322834646,
          "duration": 0.20399272916665723
        },
        {
          "name": "A3",
          "midi": 57,
          "time": 204.89550550000016,
          "velocity": 0.8661417322834646,
          "duration": 0.20399272916665723
        },
        {
          "name": "A2",
          "midi": 45,
          "time": 205.20800500000016,
          "velocity": 0.8661417322834646,
          "duration": 0.20399272916665723
        },
        {
          "name": "A3",
          "midi": 57,
          "time": 205.20800500000016,
          "velocity": 0.8661417322834646,
          "duration": 0.20399272916665723
        },
        {
          "name": "A2",
          "midi": 45,
          "time": 205.52050450000016,
          "velocity": 0.8661417322834646,
          "duration": 0.20399272916665723
        },
        {
          "name": "A3",
          "midi": 57,
          "time": 205.52050450000016,
          "velocity": 0.8661417322834646,
          "duration": 0.20399272916665723
        },
        {
          "name": "A3",
          "midi": 57,
          "time": 205.83300400000016,
          "velocity": 0.8661417322834646,
          "duration": 0.34722166666665544
        },
        {
          "name": "D4",
          "midi": 62,
          "time": 205.83300400000016,
          "velocity": 0.8661417322834646,
          "duration": 0.34722166666665544
        },
        {
          "name": "A2",
          "midi": 45,
          "time": 206.24967000000015,
          "velocity": 0.8661417322834646,
          "duration": 0.20399272916665723
        },
        {
          "name": "A3",
          "midi": 57,
          "time": 206.24967000000015,
          "velocity": 0.8661417322834646,
          "duration": 0.20399272916665723
        },
        {
          "name": "A2",
          "midi": 45,
          "time": 206.56216950000015,
          "velocity": 0.8661417322834646,
          "duration": 0.20399272916665723
        },
        {
          "name": "A3",
          "midi": 57,
          "time": 206.56216950000015,
          "velocity": 0.8661417322834646,
          "duration": 0.20399272916665723
        },
        {
          "name": "A2",
          "midi": 45,
          "time": 206.87466900000015,
          "velocity": 0.8661417322834646,
          "duration": 0.20399272916665723
        },
        {
          "name": "A3",
          "midi": 57,
          "time": 206.87466900000015,
          "velocity": 0.8661417322834646,
          "duration": 0.20399272916665723
        },
        {
          "name": "A2",
          "midi": 45,
          "time": 207.18716850000015,
          "velocity": 0.8661417322834646,
          "duration": 0.20399272916665723
        },
        {
          "name": "A3",
          "midi": 57,
          "time": 207.18716850000015,
          "velocity": 0.8661417322834646,
          "duration": 0.20399272916665723
        },
        {
          "name": "G3",
          "midi": 55,
          "time": 207.49966800000016,
          "velocity": 0.8661417322834646,
          "duration": 0.34722166666665544
        },
        {
          "name": "C4",
          "midi": 60,
          "time": 207.49966800000016,
          "velocity": 0.8661417322834646,
          "duration": 0.34722166666665544
        },
        {
          "name": "A3",
          "midi": 57,
          "time": 207.91633400000015,
          "velocity": 0.8661417322834646,
          "duration": 0.3081592291666766
        },
        {
          "name": "G3",
          "midi": 55,
          "time": 208.22883350000015,
          "velocity": 0.8661417322834646,
          "duration": 0.3081592291666766
        },
        {
          "name": "E3",
          "midi": 52,
          "time": 208.54133300000015,
          "velocity": 0.8661417322834646,
          "duration": 0.20399272916665723
        },
        {
          "name": "D#3",
          "midi": 51,
          "time": 208.74966600000013,
          "velocity": 0.8661417322834646,
          "duration": 0.20399272916665723
        },
        {
          "name": "D3",
          "midi": 50,
          "time": 208.95799900000011,
          "velocity": 0.8661417322834646,
          "duration": 0.20399272916665723
        },
        {
          "name": "C3",
          "midi": 48,
          "time": 209.1663320000001,
          "velocity": 0.8661417322834646,
          "duration": 0.20399272916665723
        },
        {
          "name": "A2",
          "midi": 45,
          "time": 209.37466500000008,
          "velocity": 0.8661417322834646,
          "duration": 0.20399272916665723
        },
        {
          "name": "A3",
          "midi": 57,
          "time": 209.37466500000008,
          "velocity": 0.8661417322834646,
          "duration": 0.20399272916665723
        },
        {
          "name": "A2",
          "midi": 45,
          "time": 209.68716450000008,
          "velocity": 0.8661417322834646,
          "duration": 0.20399272916665723
        },
        {
          "name": "A3",
          "midi": 57,
          "time": 209.68716450000008,
          "velocity": 0.8661417322834646,
          "duration": 0.20399272916665723
        },
        {
          "name": "A2",
          "midi": 45,
          "time": 209.99966400000008,
          "velocity": 0.8661417322834646,
          "duration": 0.20399272916665723
        },
        {
          "name": "A3",
          "midi": 57,
          "time": 209.99966400000008,
          "velocity": 0.8661417322834646,
          "duration": 0.20399272916665723
        },
        {
          "name": "A2",
          "midi": 45,
          "time": 210.31216350000008,
          "velocity": 0.8661417322834646,
          "duration": 0.20399272916665723
        },
        {
          "name": "A3",
          "midi": 57,
          "time": 210.31216350000008,
          "velocity": 0.8661417322834646,
          "duration": 0.20399272916665723
        },
        {
          "name": "G3",
          "midi": 55,
          "time": 210.62466300000008,
          "velocity": 0.8661417322834646,
          "duration": 0.34722166666665544
        },
        {
          "name": "C4",
          "midi": 60,
          "time": 210.62466300000008,
          "velocity": 0.8661417322834646,
          "duration": 0.34722166666665544
        },
        {
          "name": "A2",
          "midi": 45,
          "time": 211.04132900000008,
          "velocity": 0.8661417322834646,
          "duration": 0.20399272916665723
        },
        {
          "name": "A3",
          "midi": 57,
          "time": 211.04132900000008,
          "velocity": 0.8661417322834646,
          "duration": 0.20399272916665723
        },
        {
          "name": "A2",
          "midi": 45,
          "time": 211.35382850000008,
          "velocity": 0.8661417322834646,
          "duration": 0.20399272916665723
        },
        {
          "name": "A3",
          "midi": 57,
          "time": 211.35382850000008,
          "velocity": 0.8661417322834646,
          "duration": 0.20399272916665723
        },
        {
          "name": "A2",
          "midi": 45,
          "time": 211.66632800000008,
          "velocity": 0.8661417322834646,
          "duration": 0.20399272916665723
        },
        {
          "name": "A3",
          "midi": 57,
          "time": 211.66632800000008,
          "velocity": 0.8661417322834646,
          "duration": 0.20399272916665723
        },
        {
          "name": "A2",
          "midi": 45,
          "time": 211.97882750000008,
          "velocity": 0.8661417322834646,
          "duration": 0.20399272916665723
        },
        {
          "name": "A3",
          "midi": 57,
          "time": 211.97882750000008,
          "velocity": 0.8661417322834646,
          "duration": 0.20399272916665723
        },
        {
          "name": "A3",
          "midi": 57,
          "time": 212.29132700000008,
          "velocity": 0.8661417322834646,
          "duration": 0.34722166666665544
        },
        {
          "name": "D4",
          "midi": 62,
          "time": 212.29132700000008,
          "velocity": 0.8661417322834646,
          "duration": 0.34722166666665544
        },
        {
          "name": "A2",
          "midi": 45,
          "time": 212.70799300000007,
          "velocity": 0.8661417322834646,
          "duration": 0.20399272916665723
        },
        {
          "name": "A3",
          "midi": 57,
          "time": 212.70799300000007,
          "velocity": 0.8661417322834646,
          "duration": 0.20399272916665723
        },
        {
          "name": "A2",
          "midi": 45,
          "time": 213.02049250000007,
          "velocity": 0.8661417322834646,
          "duration": 0.20399272916665723
        },
        {
          "name": "A3",
          "midi": 57,
          "time": 213.02049250000007,
          "velocity": 0.8661417322834646,
          "duration": 0.20399272916665723
        },
        {
          "name": "A2",
          "midi": 45,
          "time": 213.33299200000008,
          "velocity": 0.8661417322834646,
          "duration": 0.20399272916665723
        },
        {
          "name": "A3",
          "midi": 57,
          "time": 213.33299200000008,
          "velocity": 0.8661417322834646,
          "duration": 0.20399272916665723
        },
        {
          "name": "A2",
          "midi": 45,
          "time": 213.64549150000008,
          "velocity": 0.8661417322834646,
          "duration": 0.20399272916665723
        },
        {
          "name": "A3",
          "midi": 57,
          "time": 213.64549150000008,
          "velocity": 0.8661417322834646,
          "duration": 0.20399272916665723
        },
        {
          "name": "G3",
          "midi": 55,
          "time": 213.95799100000008,
          "velocity": 0.8661417322834646,
          "duration": 0.34722166666665544
        },
        {
          "name": "C4",
          "midi": 60,
          "time": 213.95799100000008,
          "velocity": 0.8661417322834646,
          "duration": 0.34722166666665544
        },
        {
          "name": "A3",
          "midi": 57,
          "time": 214.37465700000007,
          "velocity": 0.8661417322834646,
          "duration": 0.3081592291666766
        },
        {
          "name": "G3",
          "midi": 55,
          "time": 214.68715650000007,
          "velocity": 0.8661417322834646,
          "duration": 0.3081592291666766
        },
        {
          "name": "E3",
          "midi": 52,
          "time": 214.99965600000007,
          "velocity": 0.8661417322834646,
          "duration": 0.20399272916665723
        },
        {
          "name": "D#3",
          "midi": 51,
          "time": 215.20798900000005,
          "velocity": 0.8661417322834646,
          "duration": 0.20399272916665723
        },
        {
          "name": "D3",
          "midi": 50,
          "time": 215.41632200000004,
          "velocity": 0.8661417322834646,
          "duration": 0.20399272916665723
        },
        {
          "name": "C3",
          "midi": 48,
          "time": 215.62465500000002,
          "velocity": 0.8661417322834646,
          "duration": 0.20399272916665723
        },
        {
          "name": "A3",
          "midi": 57,
          "time": 215.832988,
          "velocity": 0.8661417322834646,
          "duration": 0.3081592291666766
        },
        {
          "name": "G3",
          "midi": 55,
          "time": 216.1454875,
          "velocity": 0.8661417322834646,
          "duration": 0.3081592291666766
        },
        {
          "name": "E3",
          "midi": 52,
          "time": 216.457987,
          "velocity": 0.8661417322834646,
          "duration": 0.20399272916665723
        },
        {
          "name": "D#3",
          "midi": 51,
          "time": 216.66631999999998,
          "velocity": 0.8661417322834646,
          "duration": 0.20399272916665723
        },
        {
          "name": "D3",
          "midi": 50,
          "time": 216.87465299999997,
          "velocity": 0.8661417322834646,
          "duration": 0.20399272916665723
        },
        {
          "name": "C3",
          "midi": 48,
          "time": 217.08298599999995,
          "velocity": 0.8661417322834646,
          "duration": 0.20399272916665723
        },
        {
          "name": "A3",
          "midi": 57,
          "time": 217.29131899999993,
          "velocity": 0.8661417322834646,
          "duration": 0.3081592291666766
        },
        {
          "name": "G3",
          "midi": 55,
          "time": 217.60381849999993,
          "velocity": 0.8661417322834646,
          "duration": 0.3081592291666766
        },
        {
          "name": "E3",
          "midi": 52,
          "time": 217.91631799999993,
          "velocity": 0.8661417322834646,
          "duration": 0.20399272916665723
        },
        {
          "name": "D#3",
          "midi": 51,
          "time": 218.12465099999991,
          "velocity": 0.8661417322834646,
          "duration": 0.20399272916665723
        },
        {
          "name": "D3",
          "midi": 50,
          "time": 218.3329839999999,
          "velocity": 0.8661417322834646,
          "duration": 0.20399272916665723
        },
        {
          "name": "C3",
          "midi": 48,
          "time": 218.54131699999988,
          "velocity": 0.8661417322834646,
          "duration": 0.20399272916665723
        },
        {
          "name": "A2",
          "midi": 45,
          "time": 218.74964999999986,
          "velocity": 0.8661417322834646,
          "duration": 0.09982622916666628
        },
        {
          "name": "E3",
          "midi": 52,
          "time": 218.74964999999986,
          "velocity": 0.8661417322834646,
          "duration": 6.56248949999943
        },
        {
          "name": "A3",
          "midi": 57,
          "time": 218.74964999999986,
          "velocity": 0.8661417322834646,
          "duration": 6.56248949999943
        },
        {
          "name": "A2",
          "midi": 45,
          "time": 218.85381649999985,
          "velocity": 0.8661417322834646,
          "duration": 0.09982622916666628
        },
        {
          "name": "A2",
          "midi": 45,
          "time": 218.95798299999984,
          "velocity": 0.8661417322834646,
          "duration": 0.09982622916666628
        },
        {
          "name": "A2",
          "midi": 45,
          "time": 219.06214949999983,
          "velocity": 0.8661417322834646,
          "duration": 0.09982622916666628
        },
        {
          "name": "A2",
          "midi": 45,
          "time": 219.16631599999982,
          "velocity": 0.8661417322834646,
          "duration": 0.09982622916666628
        },
        {
          "name": "A2",
          "midi": 45,
          "time": 219.27048249999982,
          "velocity": 0.8661417322834646,
          "duration": 0.09982622916666628
        },
        {
          "name": "A2",
          "midi": 45,
          "time": 219.3746489999998,
          "velocity": 0.8661417322834646,
          "duration": 0.09982622916666628
        },
        {
          "name": "A2",
          "midi": 45,
          "time": 219.4788154999998,
          "velocity": 0.8661417322834646,
          "duration": 0.09982622916666628
        },
        {
          "name": "A2",
          "midi": 45,
          "time": 219.5829819999998,
          "velocity": 0.8661417322834646,
          "duration": 0.09982622916666628
        },
        {
          "name": "A2",
          "midi": 45,
          "time": 219.68714849999978,
          "velocity": 0.8661417322834646,
          "duration": 0.09982622916666628
        },
        {
          "name": "A2",
          "midi": 45,
          "time": 219.79131499999977,
          "velocity": 0.8661417322834646,
          "duration": 0.09982622916666628
        },
        {
          "name": "A2",
          "midi": 45,
          "time": 219.89548149999976,
          "velocity": 0.8661417322834646,
          "duration": 0.09982622916666628
        },
        {
          "name": "A2",
          "midi": 45,
          "time": 219.99964799999975,
          "velocity": 0.8661417322834646,
          "duration": 0.09982622916666628
        },
        {
          "name": "A2",
          "midi": 45,
          "time": 220.10381449999974,
          "velocity": 0.8661417322834646,
          "duration": 0.09982622916666628
        },
        {
          "name": "A2",
          "midi": 45,
          "time": 220.20798099999973,
          "velocity": 0.8661417322834646,
          "duration": 0.09982622916666628
        },
        {
          "name": "A2",
          "midi": 45,
          "time": 220.31214749999972,
          "velocity": 0.8661417322834646,
          "duration": 0.09982622916666628
        },
        {
          "name": "A2",
          "midi": 45,
          "time": 220.41631399999972,
          "velocity": 0.8661417322834646,
          "duration": 0.09982622916666628
        },
        {
          "name": "A2",
          "midi": 45,
          "time": 220.5204804999997,
          "velocity": 0.8661417322834646,
          "duration": 0.09982622916666628
        },
        {
          "name": "A2",
          "midi": 45,
          "time": 220.6246469999997,
          "velocity": 0.8661417322834646,
          "duration": 0.09982622916666628
        },
        {
          "name": "A2",
          "midi": 45,
          "time": 220.7288134999997,
          "velocity": 0.8661417322834646,
          "duration": 0.09982622916666628
        },
        {
          "name": "A2",
          "midi": 45,
          "time": 220.83297999999968,
          "velocity": 0.8661417322834646,
          "duration": 0.09982622916666628
        },
        {
          "name": "A2",
          "midi": 45,
          "time": 220.93714649999967,
          "velocity": 0.8661417322834646,
          "duration": 0.09982622916666628
        },
        {
          "name": "A2",
          "midi": 45,
          "time": 221.04131299999966,
          "velocity": 0.8661417322834646,
          "duration": 0.09982622916666628
        },
        {
          "name": "A2",
          "midi": 45,
          "time": 221.14547949999965,
          "velocity": 0.8661417322834646,
          "duration": 0.09982622916666628
        },
        {
          "name": "A2",
          "midi": 45,
          "time": 221.24964599999964,
          "velocity": 0.8661417322834646,
          "duration": 0.09982622916666628
        },
        {
          "name": "A2",
          "midi": 45,
          "time": 221.35381249999963,
          "velocity": 0.8661417322834646,
          "duration": 0.09982622916666628
        },
        {
          "name": "A2",
          "midi": 45,
          "time": 221.45797899999963,
          "velocity": 0.8661417322834646,
          "duration": 0.09982622916666628
        },
        {
          "name": "A2",
          "midi": 45,
          "time": 221.56214549999962,
          "velocity": 0.8661417322834646,
          "duration": 0.09982622916666628
        },
        {
          "name": "A2",
          "midi": 45,
          "time": 221.6663119999996,
          "velocity": 0.8661417322834646,
          "duration": 0.09982622916666628
        },
        {
          "name": "A2",
          "midi": 45,
          "time": 221.7704784999996,
          "velocity": 0.8661417322834646,
          "duration": 0.09982622916666628
        },
        {
          "name": "A2",
          "midi": 45,
          "time": 221.8746449999996,
          "velocity": 0.8661417322834646,
          "duration": 0.09982622916666628
        },
        {
          "name": "A2",
          "midi": 45,
          "time": 221.97881149999958,
          "velocity": 0.8661417322834646,
          "duration": 0.09982622916666628
        },
        {
          "name": "A2",
          "midi": 45,
          "time": 222.08297799999957,
          "velocity": 0.8661417322834646,
          "duration": 0.09982622916666628
        },
        {
          "name": "A2",
          "midi": 45,
          "time": 222.18714449999956,
          "velocity": 0.8661417322834646,
          "duration": 0.09982622916666628
        },
        {
          "name": "A2",
          "midi": 45,
          "time": 222.29131099999955,
          "velocity": 0.8661417322834646,
          "duration": 0.09982622916666628
        },
        {
          "name": "A2",
          "midi": 45,
          "time": 222.39547749999954,
          "velocity": 0.8661417322834646,
          "duration": 0.09982622916666628
        },
        {
          "name": "A2",
          "midi": 45,
          "time": 222.49964399999953,
          "velocity": 0.8661417322834646,
          "duration": 0.09982622916666628
        },
        {
          "name": "A2",
          "midi": 45,
          "time": 222.60381049999953,
          "velocity": 0.8661417322834646,
          "duration": 0.09982622916666628
        },
        {
          "name": "A2",
          "midi": 45,
          "time": 222.70797699999952,
          "velocity": 0.8661417322834646,
          "duration": 0.09982622916666628
        },
        {
          "name": "A2",
          "midi": 45,
          "time": 222.8121434999995,
          "velocity": 0.8661417322834646,
          "duration": 0.09982622916666628
        },
        {
          "name": "A2",
          "midi": 45,
          "time": 222.9163099999995,
          "velocity": 0.8661417322834646,
          "duration": 0.09982622916666628
        },
        {
          "name": "A2",
          "midi": 45,
          "time": 223.0204764999995,
          "velocity": 0.8661417322834646,
          "duration": 0.09982622916666628
        },
        {
          "name": "A2",
          "midi": 45,
          "time": 223.12464299999948,
          "velocity": 0.8661417322834646,
          "duration": 0.09982622916666628
        },
        {
          "name": "A2",
          "midi": 45,
          "time": 223.22880949999947,
          "velocity": 0.8661417322834646,
          "duration": 0.09982622916666628
        },
        {
          "name": "A2",
          "midi": 45,
          "time": 223.33297599999946,
          "velocity": 0.8661417322834646,
          "duration": 0.09982622916666628
        },
        {
          "name": "A2",
          "midi": 45,
          "time": 223.43714249999945,
          "velocity": 0.8661417322834646,
          "duration": 0.09982622916666628
        },
        {
          "name": "A2",
          "midi": 45,
          "time": 223.54130899999944,
          "velocity": 0.8661417322834646,
          "duration": 0.09982622916666628
        },
        {
          "name": "A2",
          "midi": 45,
          "time": 223.64547549999943,
          "velocity": 0.8661417322834646,
          "duration": 0.09982622916666628
        },
        {
          "name": "A2",
          "midi": 45,
          "time": 223.74964199999943,
          "velocity": 0.8661417322834646,
          "duration": 0.09982622916666628
        },
        {
          "name": "A2",
          "midi": 45,
          "time": 223.85380849999942,
          "velocity": 0.8661417322834646,
          "duration": 0.09982622916666628
        },
        {
          "name": "A2",
          "midi": 45,
          "time": 223.9579749999994,
          "velocity": 0.8661417322834646,
          "duration": 0.09982622916666628
        },
        {
          "name": "A2",
          "midi": 45,
          "time": 224.0621414999994,
          "velocity": 0.8661417322834646,
          "duration": 0.09982622916666628
        },
        {
          "name": "A2",
          "midi": 45,
          "time": 224.1663079999994,
          "velocity": 0.8661417322834646,
          "duration": 0.09982622916666628
        },
        {
          "name": "A2",
          "midi": 45,
          "time": 224.27047449999938,
          "velocity": 0.8661417322834646,
          "duration": 0.09982622916666628
        },
        {
          "name": "A2",
          "midi": 45,
          "time": 224.37464099999937,
          "velocity": 0.8661417322834646,
          "duration": 0.09982622916666628
        },
        {
          "name": "A2",
          "midi": 45,
          "time": 224.47880749999936,
          "velocity": 0.8661417322834646,
          "duration": 0.09982622916666628
        },
        {
          "name": "A2",
          "midi": 45,
          "time": 224.58297399999935,
          "velocity": 0.8661417322834646,
          "duration": 0.09982622916666628
        },
        {
          "name": "A2",
          "midi": 45,
          "time": 224.68714049999934,
          "velocity": 0.8661417322834646,
          "duration": 0.09982622916666628
        },
        {
          "name": "A2",
          "midi": 45,
          "time": 224.79130699999934,
          "velocity": 0.8661417322834646,
          "duration": 0.09982622916666628
        },
        {
          "name": "A2",
          "midi": 45,
          "time": 224.89547349999933,
          "velocity": 0.8661417322834646,
          "duration": 0.09982622916666628
        },
        {
          "name": "A2",
          "midi": 45,
          "time": 224.99963999999932,
          "velocity": 0.8661417322834646,
          "duration": 0.09982622916666628
        },
        {
          "name": "A2",
          "midi": 45,
          "time": 225.1038064999993,
          "velocity": 0.8661417322834646,
          "duration": 0.09982622916666628
        },
        {
          "name": "A2",
          "midi": 45,
          "time": 225.2079729999993,
          "velocity": 0.8661417322834646,
          "duration": 0.09982622916666628
        },
        {
          "name": "A2",
          "midi": 45,
          "time": 225.3121394999993,
          "velocity": 0.8661417322834646,
          "duration": 0.09982622916666628
        },
        {
          "name": "A2",
          "midi": 45,
          "time": 225.41630599999928,
          "velocity": 0.8661417322834646,
          "duration": 0.34722166666665544
        },
        {
          "name": "E3",
          "midi": 52,
          "time": 225.41630599999928,
          "velocity": 0.8661417322834646,
          "duration": 0.34722166666665544
        },
        {
          "name": "A3",
          "midi": 57,
          "time": 225.41630599999928,
          "velocity": 0.8661417322834646,
          "duration": 0.34722166666665544
        },
        {
          "name": "A2",
          "midi": 45,
          "time": 225.83297199999927,
          "velocity": 0.8661417322834646,
          "duration": 0.34722166666665544
        },
        {
          "name": "E3",
          "midi": 52,
          "time": 225.83297199999927,
          "velocity": 0.8661417322834646,
          "duration": 0.34722166666665544
        },
        {
          "name": "A3",
          "midi": 57,
          "time": 225.83297199999927,
          "velocity": 0.8661417322834646,
          "duration": 0.34722166666665544
        }
      ],
      "controlChanges": {
        "7": [
          {
            "number": 7,
            "time": 0,
            "value": 0.3937007874015748
          }
        ],
        "10": [
          {
            "number": 10,
            "time": 0,
            "value": 1
          }
        ]
      },
      "id": 3,
      "name": "Guitar 2",
      "instrumentNumber": 29,
      "instrument": "overdriven guitar",
      "instrumentFamily": "guitar",
      "channelNumber": 2,
      "isPercussion": false
    },
    {
      "startTime": 169.166396,
      "duration": 226.1801936666665,
      "length": 18,
      "notes": [
        {
          "name": "E6",
          "midi": 88,
          "time": 169.166396,
          "velocity": 0.8661417322834646,
          "duration": 0.3081592291666766
        },
        {
          "name": "E6",
          "midi": 88,
          "time": 169.4788955,
          "velocity": 0.8661417322834646,
          "duration": 0.3081592291666766
        },
        {
          "name": "E6",
          "midi": 88,
          "time": 169.791395,
          "velocity": 0.8661417322834646,
          "duration": 0.20399272916665723
        },
        {
          "name": "E6",
          "midi": 88,
          "time": 169.99972799999998,
          "velocity": 0.8661417322834646,
          "duration": 0.20399272916665723
        },
        {
          "name": "E6",
          "midi": 88,
          "time": 170.20806099999996,
          "velocity": 0.8661417322834646,
          "duration": 0.20399272916665723
        },
        {
          "name": "E6",
          "midi": 88,
          "time": 170.41639399999994,
          "velocity": 0.8661417322834646,
          "duration": 0.09982622916666628
        },
        {
          "name": "C6",
          "midi": 84,
          "time": 170.52056049999993,
          "velocity": 0.8661417322834646,
          "duration": 0.09982622916666628
        },
        {
          "name": "G6",
          "midi": 91,
          "time": 218.74964999999992,
          "velocity": 0.8661417322834646,
          "duration": 0.34722166666665544
        },
        {
          "name": "G6",
          "midi": 91,
          "time": 219.1663159999999,
          "velocity": 0.8661417322834646,
          "duration": 0.34722166666665544
        },
        {
          "name": "G6",
          "midi": 91,
          "time": 219.5829819999999,
          "velocity": 0.8661417322834646,
          "duration": 0.34722166666665544
        },
        {
          "name": "G6",
          "midi": 91,
          "time": 219.9996479999999,
          "velocity": 0.8661417322834646,
          "duration": 0.34722166666665544
        },
        {
          "name": "G6",
          "midi": 91,
          "time": 220.4163139999999,
          "velocity": 0.8661417322834646,
          "duration": 0.34722166666665544
        },
        {
          "name": "G6",
          "midi": 91,
          "time": 220.83297999999988,
          "velocity": 0.8661417322834646,
          "duration": 0.34722166666665544
        },
        {
          "name": "G6",
          "midi": 91,
          "time": 221.24964599999987,
          "velocity": 0.8661417322834646,
          "duration": 0.34722166666665544
        },
        {
          "name": "G6",
          "midi": 91,
          "time": 221.66631199999986,
          "velocity": 0.8661417322834646,
          "duration": 0.34722166666665544
        },
        {
          "name": "G6",
          "midi": 91,
          "time": 222.08297799999986,
          "velocity": 0.8661417322834646,
          "duration": 1.5624975000000063
        },
        {
          "name": "G6",
          "midi": 91,
          "time": 225.41630599999985,
          "velocity": 0.8661417322834646,
          "duration": 0.34722166666665544
        },
        {
          "name": "G6",
          "midi": 91,
          "time": 225.83297199999984,
          "velocity": 0.8661417322834646,
          "duration": 0.34722166666665544
        }
      ],
      "controlChanges": {
        "7": [
          {
            "number": 7,
            "time": 0,
            "value": 0.3937007874015748
          }
        ],
        "10": [
          {
            "number": 10,
            "time": 0,
            "value": 0
          }
        ]
      },
      "id": 4,
      "name": "Guitar 3",
      "instrumentNumber": 30,
      "instrument": "distortion guitar",
      "instrumentFamily": "guitar",
      "channelNumber": 3,
      "isPercussion": false
    },
    {
      "startTime": 0,
      "duration": 226.18019366666636,
      "length": 864,
      "notes": [
        {
          "name": "E1",
          "midi": 28,
          "time": 0,
          "velocity": 0.8661417322834646,
          "duration": 0.09982622916666667
        },
        {
          "name": "E1",
          "midi": 28,
          "time": 0.1041665,
          "velocity": 0.8661417322834646,
          "duration": 0.09982622916666667
        },
        {
          "name": "E1",
          "midi": 28,
          "time": 0.208333,
          "velocity": 0.8661417322834646,
          "duration": 0.09982622916666667
        },
        {
          "name": "E1",
          "midi": 28,
          "time": 0.3124995,
          "velocity": 0.8661417322834646,
          "duration": 0.09982622916666667
        },
        {
          "name": "E1",
          "midi": 28,
          "time": 0.416666,
          "velocity": 0.8661417322834646,
          "duration": 0.09982622916666672
        },
        {
          "name": "E1",
          "midi": 28,
          "time": 0.5208325,
          "velocity": 0.8661417322834646,
          "duration": 0.09982622916666672
        },
        {
          "name": "E1",
          "midi": 28,
          "time": 0.6249990000000001,
          "velocity": 0.8661417322834646,
          "duration": 0.09982622916666672
        },
        {
          "name": "E1",
          "midi": 28,
          "time": 0.7291655000000001,
          "velocity": 0.8661417322834646,
          "duration": 0.09982622916666672
        },
        {
          "name": "E1",
          "midi": 28,
          "time": 0.8333320000000002,
          "velocity": 0.8661417322834646,
          "duration": 0.09982622916666672
        },
        {
          "name": "E1",
          "midi": 28,
          "time": 0.9374985000000002,
          "velocity": 0.8661417322834646,
          "duration": 0.09982622916666672
        },
        {
          "name": "E1",
          "midi": 28,
          "time": 1.0416650000000003,
          "velocity": 0.8661417322834646,
          "duration": 0.09982622916666672
        },
        {
          "name": "E1",
          "midi": 28,
          "time": 1.1458315000000003,
          "velocity": 0.8661417322834646,
          "duration": 0.09982622916666672
        },
        {
          "name": "E1",
          "midi": 28,
          "time": 1.2499980000000004,
          "velocity": 0.8661417322834646,
          "duration": 0.09982622916666672
        },
        {
          "name": "E1",
          "midi": 28,
          "time": 1.3541645000000004,
          "velocity": 0.8661417322834646,
          "duration": 0.09982622916666672
        },
        {
          "name": "E1",
          "midi": 28,
          "time": 1.4583310000000005,
          "velocity": 0.8661417322834646,
          "duration": 0.09982622916666672
        },
        {
          "name": "E1",
          "midi": 28,
          "time": 1.5624975000000005,
          "velocity": 0.8661417322834646,
          "duration": 0.09982622916666672
        },
        {
          "name": "E1",
          "midi": 28,
          "time": 1.6666640000000006,
          "velocity": 0.8661417322834646,
          "duration": 0.09982622916666672
        },
        {
          "name": "E1",
          "midi": 28,
          "time": 1.7708305000000006,
          "velocity": 0.8661417322834646,
          "duration": 0.09982622916666672
        },
        {
          "name": "E1",
          "midi": 28,
          "time": 1.8749970000000007,
          "velocity": 0.8661417322834646,
          "duration": 0.09982622916666672
        },
        {
          "name": "E1",
          "midi": 28,
          "time": 1.9791635000000007,
          "velocity": 0.8661417322834646,
          "duration": 0.09982622916666672
        },
        {
          "name": "E1",
          "midi": 28,
          "time": 2.083330000000001,
          "velocity": 0.8661417322834646,
          "duration": 0.09982622916666672
        },
        {
          "name": "E1",
          "midi": 28,
          "time": 2.1874965000000013,
          "velocity": 0.8661417322834646,
          "duration": 0.09982622916666672
        },
        {
          "name": "E1",
          "midi": 28,
          "time": 2.2916630000000016,
          "velocity": 0.8661417322834646,
          "duration": 0.09982622916666672
        },
        {
          "name": "E1",
          "midi": 28,
          "time": 2.395829500000002,
          "velocity": 0.8661417322834646,
          "duration": 0.09982622916666672
        },
        {
          "name": "E1",
          "midi": 28,
          "time": 2.499996000000002,
          "velocity": 0.8661417322834646,
          "duration": 0.34722166666666654
        },
        {
          "name": "E1",
          "midi": 28,
          "time": 2.916662000000002,
          "velocity": 0.8661417322834646,
          "duration": 0.34722166666666654
        },
        {
          "name": "E1",
          "midi": 28,
          "time": 3.3333280000000016,
          "velocity": 0.8661417322834646,
          "duration": 0.34722166666666654
        },
        {
          "name": "E1",
          "midi": 28,
          "time": 3.7499940000000014,
          "velocity": 0.8661417322834646,
          "duration": 0.34722166666666654
        },
        {
          "name": "E1",
          "midi": 28,
          "time": 4.166660000000001,
          "velocity": 0.8661417322834646,
          "duration": 0.347221666666667
        },
        {
          "name": "E1",
          "midi": 28,
          "time": 4.583326000000001,
          "velocity": 0.8661417322834646,
          "duration": 0.347221666666667
        },
        {
          "name": "E1",
          "midi": 28,
          "time": 4.9999920000000015,
          "velocity": 0.8661417322834646,
          "duration": 0.09982622916666628
        },
        {
          "name": "E1",
          "midi": 28,
          "time": 5.104158500000001,
          "velocity": 0.8661417322834646,
          "duration": 0.09982622916666628
        },
        {
          "name": "E1",
          "midi": 28,
          "time": 5.208325000000001,
          "velocity": 0.8661417322834646,
          "duration": 0.09982622916666628
        },
        {
          "name": "E1",
          "midi": 28,
          "time": 5.312491500000001,
          "velocity": 0.8661417322834646,
          "duration": 0.09982622916666628
        },
        {
          "name": "E1",
          "midi": 28,
          "time": 5.416658000000001,
          "velocity": 0.8661417322834646,
          "duration": 0.09982622916666628
        },
        {
          "name": "E1",
          "midi": 28,
          "time": 5.520824500000001,
          "velocity": 0.8661417322834646,
          "duration": 0.09982622916666628
        },
        {
          "name": "E1",
          "midi": 28,
          "time": 5.6249910000000005,
          "velocity": 0.8661417322834646,
          "duration": 0.09982622916666628
        },
        {
          "name": "E1",
          "midi": 28,
          "time": 5.7291575,
          "velocity": 0.8661417322834646,
          "duration": 0.09982622916666628
        },
        {
          "name": "E1",
          "midi": 28,
          "time": 5.833324,
          "velocity": 0.8661417322834646,
          "duration": 0.09982622916666628
        },
        {
          "name": "E1",
          "midi": 28,
          "time": 5.9374905,
          "velocity": 0.8661417322834646,
          "duration": 0.09982622916666628
        },
        {
          "name": "E1",
          "midi": 28,
          "time": 6.041657,
          "velocity": 0.8661417322834646,
          "duration": 0.09982622916666628
        },
        {
          "name": "E1",
          "midi": 28,
          "time": 6.1458235,
          "velocity": 0.8661417322834646,
          "duration": 0.09982622916666628
        },
        {
          "name": "E1",
          "midi": 28,
          "time": 6.2499899999999995,
          "velocity": 0.8661417322834646,
          "duration": 0.09982622916666628
        },
        {
          "name": "E1",
          "midi": 28,
          "time": 6.354156499999999,
          "velocity": 0.8661417322834646,
          "duration": 0.09982622916666628
        },
        {
          "name": "E1",
          "midi": 28,
          "time": 6.458322999999999,
          "velocity": 0.8661417322834646,
          "duration": 0.09982622916666628
        },
        {
          "name": "E1",
          "midi": 28,
          "time": 6.562489499999999,
          "velocity": 0.8661417322834646,
          "duration": 0.09982622916666628
        },
        {
          "name": "E1",
          "midi": 28,
          "time": 6.666655999999999,
          "velocity": 0.8661417322834646,
          "duration": 0.09982622916666628
        },
        {
          "name": "E1",
          "midi": 28,
          "time": 6.770822499999999,
          "velocity": 0.8661417322834646,
          "duration": 0.09982622916666628
        },
        {
          "name": "E1",
          "midi": 28,
          "time": 6.8749889999999985,
          "velocity": 0.8661417322834646,
          "duration": 0.09982622916666628
        },
        {
          "name": "E1",
          "midi": 28,
          "time": 6.979155499999998,
          "velocity": 0.8661417322834646,
          "duration": 0.09982622916666628
        },
        {
          "name": "E1",
          "midi": 28,
          "time": 7.083321999999998,
          "velocity": 0.8661417322834646,
          "duration": 0.09982622916666628
        },
        {
          "name": "E1",
          "midi": 28,
          "time": 7.187488499999998,
          "velocity": 0.8661417322834646,
          "duration": 0.09982622916666628
        },
        {
          "name": "E1",
          "midi": 28,
          "time": 7.291654999999998,
          "velocity": 0.8661417322834646,
          "duration": 0.09982622916666628
        },
        {
          "name": "E1",
          "midi": 28,
          "time": 7.395821499999998,
          "velocity": 0.8661417322834646,
          "duration": 0.09982622916666628
        },
        {
          "name": "F#1",
          "midi": 30,
          "time": 7.499987999999997,
          "velocity": 0.8661417322834646,
          "duration": 0.09982622916666628
        },
        {
          "name": "F#1",
          "midi": 30,
          "time": 7.604154499999997,
          "velocity": 0.8661417322834646,
          "duration": 0.09982622916666628
        },
        {
          "name": "F#1",
          "midi": 30,
          "time": 7.708320999999997,
          "velocity": 0.8661417322834646,
          "duration": 0.09982622916666628
        },
        {
          "name": "F#1",
          "midi": 30,
          "time": 7.812487499999997,
          "velocity": 0.8661417322834646,
          "duration": 0.09982622916666628
        },
        {
          "name": "F#1",
          "midi": 30,
          "time": 7.916653999999997,
          "velocity": 0.8661417322834646,
          "duration": 0.09982622916666717
        },
        {
          "name": "F#1",
          "midi": 30,
          "time": 8.020820499999997,
          "velocity": 0.8661417322834646,
          "duration": 0.09982622916666628
        },
        {
          "name": "F#1",
          "midi": 30,
          "time": 8.124986999999997,
          "velocity": 0.8661417322834646,
          "duration": 0.09982622916666628
        },
        {
          "name": "F#1",
          "midi": 30,
          "time": 8.229153499999997,
          "velocity": 0.8661417322834646,
          "duration": 0.09982622916666628
        },
        {
          "name": "F#1",
          "midi": 30,
          "time": 8.333319999999997,
          "velocity": 0.8661417322834646,
          "duration": 0.09982622916666628
        },
        {
          "name": "F#1",
          "midi": 30,
          "time": 8.437486499999997,
          "velocity": 0.8661417322834646,
          "duration": 0.09982622916666628
        },
        {
          "name": "F#1",
          "midi": 30,
          "time": 8.541652999999997,
          "velocity": 0.8661417322834646,
          "duration": 0.09982622916666628
        },
        {
          "name": "F#1",
          "midi": 30,
          "time": 8.645819499999996,
          "velocity": 0.8661417322834646,
          "duration": 0.09982622916666628
        },
        {
          "name": "F#1",
          "midi": 30,
          "time": 8.749985999999996,
          "velocity": 0.8661417322834646,
          "duration": 0.09982622916666628
        },
        {
          "name": "F#1",
          "midi": 30,
          "time": 8.854152499999996,
          "velocity": 0.8661417322834646,
          "duration": 0.09982622916666628
        },
        {
          "name": "F#1",
          "midi": 30,
          "time": 8.958318999999996,
          "velocity": 0.8661417322834646,
          "duration": 0.09982622916666628
        },
        {
          "name": "F#1",
          "midi": 30,
          "time": 9.062485499999996,
          "velocity": 0.8661417322834646,
          "duration": 0.09982622916666628
        },
        {
          "name": "F#1",
          "midi": 30,
          "time": 9.166651999999996,
          "velocity": 0.8661417322834646,
          "duration": 0.09982622916666628
        },
        {
          "name": "F#1",
          "midi": 30,
          "time": 9.270818499999995,
          "velocity": 0.8661417322834646,
          "duration": 0.09982622916666628
        },
        {
          "name": "F#1",
          "midi": 30,
          "time": 9.374984999999995,
          "velocity": 0.8661417322834646,
          "duration": 0.09982622916666628
        },
        {
          "name": "F#1",
          "midi": 30,
          "time": 9.479151499999995,
          "velocity": 0.8661417322834646,
          "duration": 0.09982622916666628
        },
        {
          "name": "F#1",
          "midi": 30,
          "time": 9.583317999999995,
          "velocity": 0.8661417322834646,
          "duration": 0.09982622916666628
        },
        {
          "name": "F#1",
          "midi": 30,
          "time": 9.687484499999995,
          "velocity": 0.8661417322834646,
          "duration": 0.09982622916666628
        },
        {
          "name": "F#1",
          "midi": 30,
          "time": 9.791650999999995,
          "velocity": 0.8661417322834646,
          "duration": 0.09982622916666628
        },
        {
          "name": "F#1",
          "midi": 30,
          "time": 9.895817499999994,
          "velocity": 0.8661417322834646,
          "duration": 0.09982622916666628
        },
        {
          "name": "F#1",
          "midi": 30,
          "time": 9.999983999999994,
          "velocity": 0.8661417322834646,
          "duration": 0.09982622916666628
        },
        {
          "name": "F#1",
          "midi": 30,
          "time": 10.104150499999994,
          "velocity": 0.8661417322834646,
          "duration": 0.09982622916666628
        },
        {
          "name": "F#1",
          "midi": 30,
          "time": 10.208316999999994,
          "velocity": 0.8661417322834646,
          "duration": 0.09982622916666628
        },
        {
          "name": "F#1",
          "midi": 30,
          "time": 10.312483499999994,
          "velocity": 0.8661417322834646,
          "duration": 0.09982622916666628
        },
        {
          "name": "F#1",
          "midi": 30,
          "time": 10.416649999999994,
          "velocity": 0.8661417322834646,
          "duration": 0.09982622916666628
        },
        {
          "name": "F#1",
          "midi": 30,
          "time": 10.520816499999993,
          "velocity": 0.8661417322834646,
          "duration": 0.09982622916666628
        },
        {
          "name": "F#1",
          "midi": 30,
          "time": 10.624982999999993,
          "velocity": 0.8661417322834646,
          "duration": 0.09982622916666628
        },
        {
          "name": "F#1",
          "midi": 30,
          "time": 10.729149499999993,
          "velocity": 0.8661417322834646,
          "duration": 0.09982622916666628
        },
        {
          "name": "F#1",
          "midi": 30,
          "time": 10.833315999999993,
          "velocity": 0.8661417322834646,
          "duration": 0.09982622916666628
        },
        {
          "name": "F#1",
          "midi": 30,
          "time": 10.937482499999993,
          "velocity": 0.8661417322834646,
          "duration": 0.09982622916666628
        },
        {
          "name": "F#1",
          "midi": 30,
          "time": 11.041648999999992,
          "velocity": 0.8661417322834646,
          "duration": 0.09982622916666628
        },
        {
          "name": "F#1",
          "midi": 30,
          "time": 11.145815499999992,
          "velocity": 0.8661417322834646,
          "duration": 0.09982622916666628
        },
        {
          "name": "F#1",
          "midi": 30,
          "time": 11.249981999999992,
          "velocity": 0.8661417322834646,
          "duration": 0.09982622916666628
        },
        {
          "name": "F#1",
          "midi": 30,
          "time": 11.354148499999992,
          "velocity": 0.8661417322834646,
          "duration": 0.09982622916666628
        },
        {
          "name": "F#1",
          "midi": 30,
          "time": 11.458314999999992,
          "velocity": 0.8661417322834646,
          "duration": 0.09982622916666628
        },
        {
          "name": "F#1",
          "midi": 30,
          "time": 11.562481499999992,
          "velocity": 0.8661417322834646,
          "duration": 0.09982622916666628
        },
        {
          "name": "F#1",
          "midi": 30,
          "time": 11.666647999999991,
          "velocity": 0.8661417322834646,
          "duration": 0.09982622916666628
        },
        {
          "name": "F#1",
          "midi": 30,
          "time": 11.770814499999991,
          "velocity": 0.8661417322834646,
          "duration": 0.09982622916666628
        },
        {
          "name": "F#1",
          "midi": 30,
          "time": 11.874980999999991,
          "velocity": 0.8661417322834646,
          "duration": 0.09982622916666628
        },
        {
          "name": "F#1",
          "midi": 30,
          "time": 11.979147499999991,
          "velocity": 0.8661417322834646,
          "duration": 0.09982622916666628
        },
        {
          "name": "F#1",
          "midi": 30,
          "time": 12.08331399999999,
          "velocity": 0.8661417322834646,
          "duration": 0.09982622916666628
        },
        {
          "name": "F#1",
          "midi": 30,
          "time": 12.18748049999999,
          "velocity": 0.8661417322834646,
          "duration": 0.09982622916666628
        },
        {
          "name": "F#1",
          "midi": 30,
          "time": 12.29164699999999,
          "velocity": 0.8661417322834646,
          "duration": 0.09982622916666628
        },
        {
          "name": "F#1",
          "midi": 30,
          "time": 12.39581349999999,
          "velocity": 0.8661417322834646,
          "duration": 0.09982622916666628
        },
        {
          "name": "A1",
          "midi": 33,
          "time": 19.16663599999999,
          "velocity": 0.8661417322834646,
          "duration": 0.3472216666666661
        },
        {
          "name": "A1",
          "midi": 33,
          "time": 20.83329999999999,
          "velocity": 0.8661417322834646,
          "duration": 0.3472216666666661
        },
        {
          "name": "A1",
          "midi": 33,
          "time": 22.49996399999999,
          "velocity": 0.8661417322834646,
          "duration": 0.3472216666666661
        },
        {
          "name": "A1",
          "midi": 33,
          "time": 24.166627999999992,
          "velocity": 0.8661417322834646,
          "duration": 0.3472216666666661
        },
        {
          "name": "A1",
          "midi": 33,
          "time": 25.833291999999993,
          "velocity": 0.8661417322834646,
          "duration": 0.20399272916666789
        },
        {
          "name": "A1",
          "midi": 33,
          "time": 26.041624999999993,
          "velocity": 0.8661417322834646,
          "duration": 0.09982622916666628
        },
        {
          "name": "A1",
          "midi": 33,
          "time": 26.14579149999999,
          "velocity": 0.8661417322834646,
          "duration": 0.09982622916666628
        },
        {
          "name": "A1",
          "midi": 33,
          "time": 26.24995799999999,
          "velocity": 0.8661417322834646,
          "duration": 0.09982622916666628
        },
        {
          "name": "A1",
          "midi": 33,
          "time": 26.354124499999987,
          "velocity": 0.8661417322834646,
          "duration": 0.09982622916666628
        },
        {
          "name": "A1",
          "midi": 33,
          "time": 26.458290999999985,
          "velocity": 0.8661417322834646,
          "duration": 0.09982622916666628
        },
        {
          "name": "A1",
          "midi": 33,
          "time": 26.562457499999983,
          "velocity": 0.8661417322834646,
          "duration": 0.09982622916666628
        },
        {
          "name": "C2",
          "midi": 36,
          "time": 26.66662399999998,
          "velocity": 0.8661417322834646,
          "duration": 0.20399272916666789
        },
        {
          "name": "D2",
          "midi": 38,
          "time": 26.87495699999998,
          "velocity": 0.8661417322834646,
          "duration": 0.09982622916666628
        },
        {
          "name": "D2",
          "midi": 38,
          "time": 26.97912349999998,
          "velocity": 0.8661417322834646,
          "duration": 0.30815922916666594
        },
        {
          "name": "G1",
          "midi": 31,
          "time": 27.291622999999976,
          "velocity": 0.8661417322834646,
          "duration": 0.20399272916666789
        },
        {
          "name": "A1",
          "midi": 33,
          "time": 27.499955999999976,
          "velocity": 0.8661417322834646,
          "duration": 0.20399272916666789
        },
        {
          "name": "A1",
          "midi": 33,
          "time": 27.708288999999976,
          "velocity": 0.8661417322834646,
          "duration": 0.09982622916666628
        },
        {
          "name": "A1",
          "midi": 33,
          "time": 27.812455499999974,
          "velocity": 0.8661417322834646,
          "duration": 0.09982622916666628
        },
        {
          "name": "A1",
          "midi": 33,
          "time": 27.916621999999972,
          "velocity": 0.8661417322834646,
          "duration": 0.09982622916666628
        },
        {
          "name": "A1",
          "midi": 33,
          "time": 28.02078849999997,
          "velocity": 0.8661417322834646,
          "duration": 0.09982622916666628
        },
        {
          "name": "A1",
          "midi": 33,
          "time": 28.124954999999968,
          "velocity": 0.8661417322834646,
          "duration": 0.09982622916666628
        },
        {
          "name": "A1",
          "midi": 33,
          "time": 28.229121499999966,
          "velocity": 0.8661417322834646,
          "duration": 0.09982622916666628
        },
        {
          "name": "A2",
          "midi": 45,
          "time": 28.333287999999964,
          "velocity": 0.8661417322834646,
          "duration": 0.09982622916666628
        },
        {
          "name": "G2",
          "midi": 43,
          "time": 28.437454499999962,
          "velocity": 0.8661417322834646,
          "duration": 0.09982622916666628
        },
        {
          "name": "E2",
          "midi": 40,
          "time": 28.54162099999996,
          "velocity": 0.8661417322834646,
          "duration": 0.09982622916666628
        },
        {
          "name": "G2",
          "midi": 43,
          "time": 28.645787499999958,
          "velocity": 0.8661417322834646,
          "duration": 0.20399272916666789
        },
        {
          "name": "D#2",
          "midi": 39,
          "time": 28.854120499999958,
          "velocity": 0.8661417322834646,
          "duration": 0.09982622916666628
        },
        {
          "name": "E2",
          "midi": 40,
          "time": 28.958286999999956,
          "velocity": 0.8661417322834646,
          "duration": 0.20399272916666789
        },
        {
          "name": "A1",
          "midi": 33,
          "time": 29.166619999999956,
          "velocity": 0.8661417322834646,
          "duration": 0.20399272916666789
        },
        {
          "name": "A1",
          "midi": 33,
          "time": 29.374952999999955,
          "velocity": 0.8661417322834646,
          "duration": 0.09982622916666628
        },
        {
          "name": "A1",
          "midi": 33,
          "time": 29.479119499999953,
          "velocity": 0.8661417322834646,
          "duration": 0.09982622916666628
        },
        {
          "name": "A1",
          "midi": 33,
          "time": 29.58328599999995,
          "velocity": 0.8661417322834646,
          "duration": 0.09982622916666628
        },
        {
          "name": "A1",
          "midi": 33,
          "time": 29.68745249999995,
          "velocity": 0.8661417322834646,
          "duration": 0.09982622916666628
        },
        {
          "name": "A1",
          "midi": 33,
          "time": 29.791618999999947,
          "velocity": 0.8661417322834646,
          "duration": 0.09982622916666628
        },
        {
          "name": "A1",
          "midi": 33,
          "time": 29.895785499999946,
          "velocity": 0.8661417322834646,
          "duration": 0.09982622916666628
        },
        {
          "name": "C2",
          "midi": 36,
          "time": 29.999951999999944,
          "velocity": 0.8661417322834646,
          "duration": 0.20399272916666789
        },
        {
          "name": "D2",
          "midi": 38,
          "time": 30.208284999999943,
          "velocity": 0.8661417322834646,
          "duration": 0.09982622916666628
        },
        {
          "name": "D2",
          "midi": 38,
          "time": 30.31245149999994,
          "velocity": 0.8661417322834646,
          "duration": 0.30815922916666594
        },
        {
          "name": "G1",
          "midi": 31,
          "time": 30.62495099999994,
          "velocity": 0.8661417322834646,
          "duration": 0.20399272916666789
        },
        {
          "name": "A1",
          "midi": 33,
          "time": 30.83328399999994,
          "velocity": 0.8661417322834646,
          "duration": 0.20399272916666789
        },
        {
          "name": "A1",
          "midi": 33,
          "time": 31.04161699999994,
          "velocity": 0.8661417322834646,
          "duration": 0.09982622916666628
        },
        {
          "name": "A1",
          "midi": 33,
          "time": 31.145783499999936,
          "velocity": 0.8661417322834646,
          "duration": 0.09982622916666628
        },
        {
          "name": "A1",
          "midi": 33,
          "time": 31.249949999999934,
          "velocity": 0.8661417322834646,
          "duration": 0.09982622916666628
        },
        {
          "name": "A1",
          "midi": 33,
          "time": 31.354116499999932,
          "velocity": 0.8661417322834646,
          "duration": 0.09982622916666628
        },
        {
          "name": "A1",
          "midi": 33,
          "time": 31.45828299999993,
          "velocity": 0.8661417322834646,
          "duration": 0.09982622916666628
        },
        {
          "name": "A1",
          "midi": 33,
          "time": 31.56244949999993,
          "velocity": 0.8661417322834646,
          "duration": 0.09982622916666628
        },
        {
          "name": "A2",
          "midi": 45,
          "time": 31.666615999999927,
          "velocity": 0.8661417322834646,
          "duration": 0.09982622916666628
        },
        {
          "name": "G2",
          "midi": 43,
          "time": 31.770782499999925,
          "velocity": 0.8661417322834646,
          "duration": 0.09982622916666628
        },
        {
          "name": "E2",
          "midi": 40,
          "time": 31.874948999999923,
          "velocity": 0.8661417322834646,
          "duration": 0.09982622916666628
        },
        {
          "name": "G2",
          "midi": 43,
          "time": 31.97911549999992,
          "velocity": 0.8661417322834646,
          "duration": 0.20399272916666433
        },
        {
          "name": "D#2",
          "midi": 39,
          "time": 32.18744849999992,
          "velocity": 0.8661417322834646,
          "duration": 0.09982622916666628
        },
        {
          "name": "E2",
          "midi": 40,
          "time": 32.291614999999915,
          "velocity": 0.8661417322834646,
          "duration": 0.20399272916666433
        },
        {
          "name": "D2",
          "midi": 38,
          "time": 32.49994799999991,
          "velocity": 0.8661417322834646,
          "duration": 0.20399272916666433
        },
        {
          "name": "D2",
          "midi": 38,
          "time": 32.70828099999991,
          "velocity": 0.8661417322834646,
          "duration": 0.5555546666666658
        },
        {
          "name": "G1",
          "midi": 31,
          "time": 33.33327999999991,
          "velocity": 0.8661417322834646,
          "duration": 0.20399272916666433
        },
        {
          "name": "G1",
          "midi": 31,
          "time": 33.541612999999906,
          "velocity": 0.8661417322834646,
          "duration": 0.5555546666666658
        },
        {
          "name": "D2",
          "midi": 38,
          "time": 34.16661199999991,
          "velocity": 0.8661417322834646,
          "duration": 0.20399272916666433
        },
        {
          "name": "D2",
          "midi": 38,
          "time": 34.374944999999904,
          "velocity": 0.8661417322834646,
          "duration": 0.5555546666666658
        },
        {
          "name": "C2",
          "midi": 36,
          "time": 34.99994399999991,
          "velocity": 0.8661417322834646,
          "duration": 0.3081592291666695
        },
        {
          "name": "B1",
          "midi": 35,
          "time": 35.31244349999991,
          "velocity": 0.8661417322834646,
          "duration": 0.3081592291666695
        },
        {
          "name": "G1",
          "midi": 31,
          "time": 35.62494299999991,
          "velocity": 0.8661417322834646,
          "duration": 0.20399272916666433
        },
        {
          "name": "A1",
          "midi": 33,
          "time": 35.833275999999906,
          "velocity": 0.8661417322834646,
          "duration": 0.20399272916666433
        },
        {
          "name": "A1",
          "midi": 33,
          "time": 36.0416089999999,
          "velocity": 0.8661417322834646,
          "duration": 0.09982622916666628
        },
        {
          "name": "A1",
          "midi": 33,
          "time": 36.1457754999999,
          "velocity": 0.8661417322834646,
          "duration": 0.09982622916666628
        },
        {
          "name": "A1",
          "midi": 33,
          "time": 36.2499419999999,
          "velocity": 0.8661417322834646,
          "duration": 0.09982622916666628
        },
        {
          "name": "A1",
          "midi": 33,
          "time": 36.354108499999896,
          "velocity": 0.8661417322834646,
          "duration": 0.09982622916666628
        },
        {
          "name": "A1",
          "midi": 33,
          "time": 36.458274999999894,
          "velocity": 0.8661417322834646,
          "duration": 0.09982622916666628
        },
        {
          "name": "A1",
          "midi": 33,
          "time": 36.56244149999989,
          "velocity": 0.8661417322834646,
          "duration": 0.09982622916666628
        },
        {
          "name": "C2",
          "midi": 36,
          "time": 36.66660799999989,
          "velocity": 0.8661417322834646,
          "duration": 0.20399272916666433
        },
        {
          "name": "D2",
          "midi": 38,
          "time": 36.874940999999886,
          "velocity": 0.8661417322834646,
          "duration": 0.09982622916666628
        },
        {
          "name": "D2",
          "midi": 38,
          "time": 36.979107499999884,
          "velocity": 0.8661417322834646,
          "duration": 0.3081592291666695
        },
        {
          "name": "G1",
          "midi": 31,
          "time": 37.291606999999885,
          "velocity": 0.8661417322834646,
          "duration": 0.20399272916666433
        },
        {
          "name": "A1",
          "midi": 33,
          "time": 37.49993999999988,
          "velocity": 0.8661417322834646,
          "duration": 0.20399272916666433
        },
        {
          "name": "A1",
          "midi": 33,
          "time": 37.70827299999988,
          "velocity": 0.8661417322834646,
          "duration": 0.09982622916666628
        },
        {
          "name": "A1",
          "midi": 33,
          "time": 37.812439499999876,
          "velocity": 0.8661417322834646,
          "duration": 0.09982622916666628
        },
        {
          "name": "A1",
          "midi": 33,
          "time": 37.916605999999874,
          "velocity": 0.8661417322834646,
          "duration": 0.09982622916666628
        },
        {
          "name": "A1",
          "midi": 33,
          "time": 38.02077249999987,
          "velocity": 0.8661417322834646,
          "duration": 0.09982622916666628
        },
        {
          "name": "A1",
          "midi": 33,
          "time": 38.12493899999987,
          "velocity": 0.8661417322834646,
          "duration": 0.09982622916666628
        },
        {
          "name": "A1",
          "midi": 33,
          "time": 38.22910549999987,
          "velocity": 0.8661417322834646,
          "duration": 0.09982622916666628
        },
        {
          "name": "A2",
          "midi": 45,
          "time": 38.333271999999866,
          "velocity": 0.8661417322834646,
          "duration": 0.09982622916666628
        },
        {
          "name": "G2",
          "midi": 43,
          "time": 38.437438499999864,
          "velocity": 0.8661417322834646,
          "duration": 0.09982622916666628
        },
        {
          "name": "E2",
          "midi": 40,
          "time": 38.54160499999986,
          "velocity": 0.8661417322834646,
          "duration": 0.09982622916666628
        },
        {
          "name": "G2",
          "midi": 43,
          "time": 38.64577149999986,
          "velocity": 0.8661417322834646,
          "duration": 0.20399272916666433
        },
        {
          "name": "D#2",
          "midi": 39,
          "time": 38.854104499999856,
          "velocity": 0.8661417322834646,
          "duration": 0.09982622916666628
        },
        {
          "name": "E2",
          "midi": 40,
          "time": 38.958270999999854,
          "velocity": 0.8661417322834646,
          "duration": 0.20399272916666433
        },
        {
          "name": "A1",
          "midi": 33,
          "time": 39.16660399999985,
          "velocity": 0.8661417322834646,
          "duration": 0.20399272916666433
        },
        {
          "name": "A1",
          "midi": 33,
          "time": 39.374936999999846,
          "velocity": 0.8661417322834646,
          "duration": 0.09982622916666628
        },
        {
          "name": "A1",
          "midi": 33,
          "time": 39.479103499999844,
          "velocity": 0.8661417322834646,
          "duration": 0.09982622916666628
        },
        {
          "name": "A1",
          "midi": 33,
          "time": 39.58326999999984,
          "velocity": 0.8661417322834646,
          "duration": 0.09982622916666628
        },
        {
          "name": "A1",
          "midi": 33,
          "time": 39.68743649999984,
          "velocity": 0.8661417322834646,
          "duration": 0.09982622916666628
        },
        {
          "name": "A1",
          "midi": 33,
          "time": 39.79160299999984,
          "velocity": 0.8661417322834646,
          "duration": 0.09982622916666628
        },
        {
          "name": "A1",
          "midi": 33,
          "time": 39.89576949999984,
          "velocity": 0.8661417322834646,
          "duration": 0.09982622916666628
        },
        {
          "name": "C2",
          "midi": 36,
          "time": 39.999935999999835,
          "velocity": 0.8661417322834646,
          "duration": 0.20399272916666433
        },
        {
          "name": "D2",
          "midi": 38,
          "time": 40.20826899999983,
          "velocity": 0.8661417322834646,
          "duration": 0.09982622916666628
        },
        {
          "name": "D2",
          "midi": 38,
          "time": 40.31243549999983,
          "velocity": 0.8661417322834646,
          "duration": 0.3081592291666695
        },
        {
          "name": "G1",
          "midi": 31,
          "time": 40.62493499999983,
          "velocity": 0.8661417322834646,
          "duration": 0.20399272916666433
        },
        {
          "name": "A1",
          "midi": 33,
          "time": 40.833267999999826,
          "velocity": 0.8661417322834646,
          "duration": 0.20399272916666433
        },
        {
          "name": "A1",
          "midi": 33,
          "time": 41.04160099999982,
          "velocity": 0.8661417322834646,
          "duration": 0.09982622916666628
        },
        {
          "name": "A1",
          "midi": 33,
          "time": 41.14576749999982,
          "velocity": 0.8661417322834646,
          "duration": 0.09982622916666628
        },
        {
          "name": "A1",
          "midi": 33,
          "time": 41.24993399999982,
          "velocity": 0.8661417322834646,
          "duration": 0.09982622916666628
        },
        {
          "name": "A1",
          "midi": 33,
          "time": 41.35410049999982,
          "velocity": 0.8661417322834646,
          "duration": 0.09982622916666628
        },
        {
          "name": "A1",
          "midi": 33,
          "time": 41.458266999999815,
          "velocity": 0.8661417322834646,
          "duration": 0.09982622916666628
        },
        {
          "name": "A1",
          "midi": 33,
          "time": 41.56243349999981,
          "velocity": 0.8661417322834646,
          "duration": 0.09982622916666628
        },
        {
          "name": "A2",
          "midi": 45,
          "time": 41.66659999999981,
          "velocity": 0.8661417322834646,
          "duration": 0.09982622916666628
        },
        {
          "name": "G2",
          "midi": 43,
          "time": 41.77076649999981,
          "velocity": 0.8661417322834646,
          "duration": 0.09982622916666628
        },
        {
          "name": "E2",
          "midi": 40,
          "time": 41.87493299999981,
          "velocity": 0.8661417322834646,
          "duration": 0.09982622916666628
        },
        {
          "name": "G2",
          "midi": 43,
          "time": 41.979099499999805,
          "velocity": 0.8661417322834646,
          "duration": 0.20399272916666433
        },
        {
          "name": "D#2",
          "midi": 39,
          "time": 42.1874324999998,
          "velocity": 0.8661417322834646,
          "duration": 0.09982622916666628
        },
        {
          "name": "E2",
          "midi": 40,
          "time": 42.2915989999998,
          "velocity": 0.8661417322834646,
          "duration": 0.20399272916666433
        },
        {
          "name": "D2",
          "midi": 38,
          "time": 42.499931999999795,
          "velocity": 0.8661417322834646,
          "duration": 0.20399272916666433
        },
        {
          "name": "D2",
          "midi": 38,
          "time": 42.70826499999979,
          "velocity": 0.8661417322834646,
          "duration": 0.5555546666666658
        },
        {
          "name": "G1",
          "midi": 31,
          "time": 43.333263999999794,
          "velocity": 0.8661417322834646,
          "duration": 0.20399272916666433
        },
        {
          "name": "G1",
          "midi": 31,
          "time": 43.54159699999979,
          "velocity": 0.8661417322834646,
          "duration": 0.5555546666666658
        },
        {
          "name": "D2",
          "midi": 38,
          "time": 44.16659599999979,
          "velocity": 0.8661417322834646,
          "duration": 0.20399272916666433
        },
        {
          "name": "D2",
          "midi": 38,
          "time": 44.37492899999979,
          "velocity": 0.8661417322834646,
          "duration": 0.5555546666666658
        },
        {
          "name": "C2",
          "midi": 36,
          "time": 44.99992799999979,
          "velocity": 0.8661417322834646,
          "duration": 0.3081592291666695
        },
        {
          "name": "B1",
          "midi": 35,
          "time": 45.31242749999979,
          "velocity": 0.8661417322834646,
          "duration": 0.3081592291666695
        },
        {
          "name": "G1",
          "midi": 31,
          "time": 45.62492699999979,
          "velocity": 0.8661417322834646,
          "duration": 0.20399272916666433
        },
        {
          "name": "A1",
          "midi": 33,
          "time": 45.83325999999979,
          "velocity": 0.8661417322834646,
          "duration": 0.20399272916666433
        },
        {
          "name": "A1",
          "midi": 33,
          "time": 46.041592999999786,
          "velocity": 0.8661417322834646,
          "duration": 0.09982622916666628
        },
        {
          "name": "A1",
          "midi": 33,
          "time": 46.145759499999784,
          "velocity": 0.8661417322834646,
          "duration": 0.09982622916666628
        },
        {
          "name": "A1",
          "midi": 33,
          "time": 46.24992599999978,
          "velocity": 0.8661417322834646,
          "duration": 0.09982622916666628
        },
        {
          "name": "A1",
          "midi": 33,
          "time": 46.35409249999978,
          "velocity": 0.8661417322834646,
          "duration": 0.09982622916666628
        },
        {
          "name": "A1",
          "midi": 33,
          "time": 46.45825899999978,
          "velocity": 0.8661417322834646,
          "duration": 0.09982622916666628
        },
        {
          "name": "A1",
          "midi": 33,
          "time": 46.562425499999776,
          "velocity": 0.8661417322834646,
          "duration": 0.09982622916666628
        },
        {
          "name": "C2",
          "midi": 36,
          "time": 46.666591999999774,
          "velocity": 0.8661417322834646,
          "duration": 0.20399272916666433
        },
        {
          "name": "D2",
          "midi": 38,
          "time": 46.87492499999977,
          "velocity": 0.8661417322834646,
          "duration": 0.09982622916666628
        },
        {
          "name": "D2",
          "midi": 38,
          "time": 46.97909149999977,
          "velocity": 0.8661417322834646,
          "duration": 0.3081592291666695
        },
        {
          "name": "G1",
          "midi": 31,
          "time": 47.29159099999977,
          "velocity": 0.8661417322834646,
          "duration": 0.20399272916666433
        },
        {
          "name": "A1",
          "midi": 33,
          "time": 47.499923999999766,
          "velocity": 0.8661417322834646,
          "duration": 0.20399272916666433
        },
        {
          "name": "A1",
          "midi": 33,
          "time": 47.70825699999976,
          "velocity": 0.8661417322834646,
          "duration": 0.09982622916666628
        },
        {
          "name": "A1",
          "midi": 33,
          "time": 47.81242349999976,
          "velocity": 0.8661417322834646,
          "duration": 0.09982622916666628
        },
        {
          "name": "A1",
          "midi": 33,
          "time": 47.91658999999976,
          "velocity": 0.8661417322834646,
          "duration": 0.09982622916666628
        },
        {
          "name": "A1",
          "midi": 33,
          "time": 48.020756499999756,
          "velocity": 0.8661417322834646,
          "duration": 0.09982622916666628
        },
        {
          "name": "A1",
          "midi": 33,
          "time": 48.124922999999754,
          "velocity": 0.8661417322834646,
          "duration": 0.09982622916666628
        },
        {
          "name": "A1",
          "midi": 33,
          "time": 48.22908949999975,
          "velocity": 0.8661417322834646,
          "duration": 0.09982622916666628
        },
        {
          "name": "A2",
          "midi": 45,
          "time": 48.33325599999975,
          "velocity": 0.8661417322834646,
          "duration": 0.09982622916666628
        },
        {
          "name": "G2",
          "midi": 43,
          "time": 48.43742249999975,
          "velocity": 0.8661417322834646,
          "duration": 0.09982622916666628
        },
        {
          "name": "E2",
          "midi": 40,
          "time": 48.541588999999746,
          "velocity": 0.8661417322834646,
          "duration": 0.09982622916666628
        },
        {
          "name": "G2",
          "midi": 43,
          "time": 48.645755499999744,
          "velocity": 0.8661417322834646,
          "duration": 0.20399272916666433
        },
        {
          "name": "D#2",
          "midi": 39,
          "time": 48.85408849999974,
          "velocity": 0.8661417322834646,
          "duration": 0.09982622916666628
        },
        {
          "name": "E2",
          "midi": 40,
          "time": 48.95825499999974,
          "velocity": 0.8661417322834646,
          "duration": 0.20399272916666433
        },
        {
          "name": "E1",
          "midi": 28,
          "time": 49.166587999999734,
          "velocity": 0.8661417322834646,
          "duration": 0.20399272916666433
        },
        {
          "name": "E1",
          "midi": 28,
          "time": 49.37492099999973,
          "velocity": 0.8661417322834646,
          "duration": 0.09982622916666628
        },
        {
          "name": "E1",
          "midi": 28,
          "time": 49.47908749999973,
          "velocity": 0.8661417322834646,
          "duration": 0.09982622916666628
        },
        {
          "name": "E1",
          "midi": 28,
          "time": 49.58325399999973,
          "velocity": 0.8661417322834646,
          "duration": 0.09982622916666628
        },
        {
          "name": "E1",
          "midi": 28,
          "time": 49.687420499999725,
          "velocity": 0.8661417322834646,
          "duration": 0.09982622916666628
        },
        {
          "name": "E1",
          "midi": 28,
          "time": 49.79158699999972,
          "velocity": 0.8661417322834646,
          "duration": 0.09982622916666628
        },
        {
          "name": "E1",
          "midi": 28,
          "time": 49.89575349999972,
          "velocity": 0.8661417322834646,
          "duration": 0.09982622916666628
        },
        {
          "name": "E1",
          "midi": 28,
          "time": 49.99991999999972,
          "velocity": 0.8661417322834646,
          "duration": 0.09982622916666628
        },
        {
          "name": "E1",
          "midi": 28,
          "time": 50.10408649999972,
          "velocity": 0.8661417322834646,
          "duration": 0.09982622916666628
        },
        {
          "name": "E1",
          "midi": 28,
          "time": 50.208252999999715,
          "velocity": 0.8661417322834646,
          "duration": 0.09982622916666628
        },
        {
          "name": "E1",
          "midi": 28,
          "time": 50.31241949999971,
          "velocity": 0.8661417322834646,
          "duration": 0.09982622916666628
        },
        {
          "name": "E1",
          "midi": 28,
          "time": 50.41658599999971,
          "velocity": 0.8661417322834646,
          "duration": 0.09982622916666628
        },
        {
          "name": "E1",
          "midi": 28,
          "time": 50.52075249999971,
          "velocity": 0.8661417322834646,
          "duration": 0.09982622916666628
        },
        {
          "name": "E1",
          "midi": 28,
          "time": 50.62491899999971,
          "velocity": 0.8661417322834646,
          "duration": 0.09982622916666628
        },
        {
          "name": "E1",
          "midi": 28,
          "time": 50.729085499999705,
          "velocity": 0.8661417322834646,
          "duration": 0.09982622916666628
        },
        {
          "name": "G1",
          "midi": 31,
          "time": 50.8332519999997,
          "velocity": 0.8661417322834646,
          "duration": 0.2734370625000011
        },
        {
          "name": "F#1",
          "midi": 30,
          "time": 51.111029333333036,
          "velocity": 0.8661417322834646,
          "duration": 0.2734370625000011
        },
        {
          "name": "G1",
          "midi": 31,
          "time": 51.38880666666637,
          "velocity": 0.8661417322834646,
          "duration": 0.2734370625000011
        },
        {
          "name": "C2",
          "midi": 36,
          "time": 51.6665839999997,
          "velocity": 0.8661417322834646,
          "duration": 0.2734370625000011
        },
        {
          "name": "B1",
          "midi": 35,
          "time": 51.944361333333035,
          "velocity": 0.8661417322834646,
          "duration": 0.2734370625000011
        },
        {
          "name": "G1",
          "midi": 31,
          "time": 52.22213866666637,
          "velocity": 0.8661417322834646,
          "duration": 0.2734370625000011
        },
        {
          "name": "A1",
          "midi": 33,
          "time": 52.4999159999997,
          "velocity": 0.8661417322834646,
          "duration": 0.20399272916666433
        },
        {
          "name": "A1",
          "midi": 33,
          "time": 52.9165819999997,
          "velocity": 0.8661417322834646,
          "duration": 0.34722166666666965
        },
        {
          "name": "G1",
          "midi": 31,
          "time": 53.333247999999706,
          "velocity": 0.8661417322834646,
          "duration": 0.09982622916666628
        },
        {
          "name": "A1",
          "midi": 33,
          "time": 53.437414499999704,
          "velocity": 0.8661417322834646,
          "duration": 0.09982622916666628
        },
        {
          "name": "A1",
          "midi": 33,
          "time": 53.749913999999706,
          "velocity": 0.8661417322834646,
          "duration": 0.34722166666666965
        },
        {
          "name": "G1",
          "midi": 31,
          "time": 54.16657999999971,
          "velocity": 0.8661417322834646,
          "duration": 0.09982622916666628
        },
        {
          "name": "A1",
          "midi": 33,
          "time": 54.27074649999971,
          "velocity": 0.8661417322834646,
          "duration": 0.09982622916666628
        },
        {
          "name": "A1",
          "midi": 33,
          "time": 54.58324599999971,
          "velocity": 0.8661417322834646,
          "duration": 0.34722166666666965
        },
        {
          "name": "C2",
          "midi": 36,
          "time": 54.99991199999972,
          "velocity": 0.8661417322834646,
          "duration": 0.3081592291666695
        },
        {
          "name": "G1",
          "midi": 31,
          "time": 55.31241149999972,
          "velocity": 0.8661417322834646,
          "duration": 0.3081592291666695
        },
        {
          "name": "A1",
          "midi": 33,
          "time": 55.62491099999972,
          "velocity": 0.8661417322834646,
          "duration": 0.20399272916666433
        },
        {
          "name": "A1",
          "midi": 33,
          "time": 56.04157699999972,
          "velocity": 0.8661417322834646,
          "duration": 0.34722166666666965
        },
        {
          "name": "G1",
          "midi": 31,
          "time": 56.458242999999726,
          "velocity": 0.8661417322834646,
          "duration": 0.09982622916666628
        },
        {
          "name": "A1",
          "midi": 33,
          "time": 56.562409499999724,
          "velocity": 0.8661417322834646,
          "duration": 0.09982622916666628
        },
        {
          "name": "A1",
          "midi": 33,
          "time": 56.874908999999725,
          "velocity": 0.8661417322834646,
          "duration": 0.34722166666666965
        },
        {
          "name": "G1",
          "midi": 31,
          "time": 57.29157499999973,
          "velocity": 0.8661417322834646,
          "duration": 0.09982622916666628
        },
        {
          "name": "A1",
          "midi": 33,
          "time": 57.39574149999973,
          "velocity": 0.8661417322834646,
          "duration": 0.09982622916666628
        },
        {
          "name": "A1",
          "midi": 33,
          "time": 57.70824099999973,
          "velocity": 0.8661417322834646,
          "duration": 0.34722166666666965
        },
        {
          "name": "C2",
          "midi": 36,
          "time": 58.12490699999974,
          "velocity": 0.8661417322834646,
          "duration": 0.3081592291666695
        },
        {
          "name": "G1",
          "midi": 31,
          "time": 58.43740649999974,
          "velocity": 0.8661417322834646,
          "duration": 0.3081592291666695
        },
        {
          "name": "A1",
          "midi": 33,
          "time": 58.74990599999974,
          "velocity": 0.8661417322834646,
          "duration": 0.20399272916666433
        },
        {
          "name": "A1",
          "midi": 33,
          "time": 59.16657199999974,
          "velocity": 0.8661417322834646,
          "duration": 0.34722166666666965
        },
        {
          "name": "G1",
          "midi": 31,
          "time": 59.583237999999746,
          "velocity": 0.8661417322834646,
          "duration": 0.09982622916666628
        },
        {
          "name": "A1",
          "midi": 33,
          "time": 59.687404499999744,
          "velocity": 0.8661417322834646,
          "duration": 0.09982622916666628
        },
        {
          "name": "A1",
          "midi": 33,
          "time": 59.999903999999745,
          "velocity": 0.8661417322834646,
          "duration": 0.34722166666666965
        },
        {
          "name": "G1",
          "midi": 31,
          "time": 60.41656999999975,
          "velocity": 0.8661417322834646,
          "duration": 0.09982622916666628
        },
        {
          "name": "A1",
          "midi": 33,
          "time": 60.52073649999975,
          "velocity": 0.8661417322834646,
          "duration": 0.09982622916666628
        },
        {
          "name": "A1",
          "midi": 33,
          "time": 60.83323599999975,
          "velocity": 0.8661417322834646,
          "duration": 0.34722166666666965
        },
        {
          "name": "C2",
          "midi": 36,
          "time": 61.24990199999976,
          "velocity": 0.8661417322834646,
          "duration": 0.3081592291666695
        },
        {
          "name": "G1",
          "midi": 31,
          "time": 61.56240149999976,
          "velocity": 0.8661417322834646,
          "duration": 0.3081592291666695
        },
        {
          "name": "A1",
          "midi": 33,
          "time": 61.87490099999976,
          "velocity": 0.8661417322834646,
          "duration": 0.20399272916666433
        },
        {
          "name": "A1",
          "midi": 33,
          "time": 62.29156699999976,
          "velocity": 0.8661417322834646,
          "duration": 0.34722166666666965
        },
        {
          "name": "G1",
          "midi": 31,
          "time": 62.708232999999765,
          "velocity": 0.8661417322834646,
          "duration": 0.09982622916666628
        },
        {
          "name": "A1",
          "midi": 33,
          "time": 62.81239949999976,
          "velocity": 0.8661417322834646,
          "duration": 0.09982622916666628
        },
        {
          "name": "A1",
          "midi": 33,
          "time": 63.124898999999765,
          "velocity": 0.8661417322834646,
          "duration": 0.34722166666666965
        },
        {
          "name": "A1",
          "midi": 33,
          "time": 65.20822899999976,
          "velocity": 0.8661417322834646,
          "duration": 0.20399272916667144
        },
        {
          "name": "A1",
          "midi": 33,
          "time": 65.41656199999977,
          "velocity": 0.8661417322834646,
          "duration": 0.09982622916666628
        },
        {
          "name": "A1",
          "midi": 33,
          "time": 65.52072849999978,
          "velocity": 0.8661417322834646,
          "duration": 0.09982622916666628
        },
        {
          "name": "A1",
          "midi": 33,
          "time": 65.62489499999978,
          "velocity": 0.8661417322834646,
          "duration": 0.09982622916666628
        },
        {
          "name": "A1",
          "midi": 33,
          "time": 65.72906149999979,
          "velocity": 0.8661417322834646,
          "duration": 0.09982622916666628
        },
        {
          "name": "A1",
          "midi": 33,
          "time": 65.83322799999979,
          "velocity": 0.8661417322834646,
          "duration": 0.09982622916666628
        },
        {
          "name": "A1",
          "midi": 33,
          "time": 65.9373944999998,
          "velocity": 0.8661417322834646,
          "duration": 0.09982622916666628
        },
        {
          "name": "C2",
          "midi": 36,
          "time": 66.0415609999998,
          "velocity": 0.8661417322834646,
          "duration": 0.20399272916667144
        },
        {
          "name": "D2",
          "midi": 38,
          "time": 66.24989399999981,
          "velocity": 0.8661417322834646,
          "duration": 0.09982622916666628
        },
        {
          "name": "D2",
          "midi": 38,
          "time": 66.35406049999982,
          "velocity": 0.8661417322834646,
          "duration": 0.3081592291666624
        },
        {
          "name": "G1",
          "midi": 31,
          "time": 66.66655999999982,
          "velocity": 0.8661417322834646,
          "duration": 0.20399272916667144
        },
        {
          "name": "A1",
          "midi": 33,
          "time": 66.87489299999983,
          "velocity": 0.8661417322834646,
          "duration": 0.20399272916667144
        },
        {
          "name": "A1",
          "midi": 33,
          "time": 67.08322599999984,
          "velocity": 0.8661417322834646,
          "duration": 0.09982622916666628
        },
        {
          "name": "A1",
          "midi": 33,
          "time": 67.18739249999985,
          "velocity": 0.8661417322834646,
          "duration": 0.09982622916666628
        },
        {
          "name": "A1",
          "midi": 33,
          "time": 67.29155899999985,
          "velocity": 0.8661417322834646,
          "duration": 0.09982622916666628
        },
        {
          "name": "A1",
          "midi": 33,
          "time": 67.39572549999986,
          "velocity": 0.8661417322834646,
          "duration": 0.09982622916666628
        },
        {
          "name": "A1",
          "midi": 33,
          "time": 67.49989199999986,
          "velocity": 0.8661417322834646,
          "duration": 0.09982622916666628
        },
        {
          "name": "A1",
          "midi": 33,
          "time": 67.60405849999987,
          "velocity": 0.8661417322834646,
          "duration": 0.09982622916666628
        },
        {
          "name": "A2",
          "midi": 45,
          "time": 67.70822499999987,
          "velocity": 0.8661417322834646,
          "duration": 0.09982622916666628
        },
        {
          "name": "G2",
          "midi": 43,
          "time": 67.81239149999988,
          "velocity": 0.8661417322834646,
          "duration": 0.09982622916666628
        },
        {
          "name": "E2",
          "midi": 40,
          "time": 67.91655799999988,
          "velocity": 0.8661417322834646,
          "duration": 0.09982622916666628
        },
        {
          "name": "G2",
          "midi": 43,
          "time": 68.02072449999989,
          "velocity": 0.8661417322834646,
          "duration": 0.20399272916667144
        },
        {
          "name": "D#2",
          "midi": 39,
          "time": 68.2290574999999,
          "velocity": 0.8661417322834646,
          "duration": 0.09982622916666628
        },
        {
          "name": "E2",
          "midi": 40,
          "time": 68.3332239999999,
          "velocity": 0.8661417322834646,
          "duration": 0.20399272916667144
        },
        {
          "name": "A1",
          "midi": 33,
          "time": 68.54155699999991,
          "velocity": 0.8661417322834646,
          "duration": 0.20399272916667144
        },
        {
          "name": "A1",
          "midi": 33,
          "time": 68.74988999999992,
          "velocity": 0.8661417322834646,
          "duration": 0.09982622916666628
        },
        {
          "name": "A1",
          "midi": 33,
          "time": 68.85405649999993,
          "velocity": 0.8661417322834646,
          "duration": 0.09982622916666628
        },
        {
          "name": "A1",
          "midi": 33,
          "time": 68.95822299999993,
          "velocity": 0.8661417322834646,
          "duration": 0.09982622916666628
        },
        {
          "name": "A1",
          "midi": 33,
          "time": 69.06238949999994,
          "velocity": 0.8661417322834646,
          "duration": 0.09982622916666628
        },
        {
          "name": "A1",
          "midi": 33,
          "time": 69.16655599999994,
          "velocity": 0.8661417322834646,
          "duration": 0.09982622916666628
        },
        {
          "name": "A1",
          "midi": 33,
          "time": 69.27072249999995,
          "velocity": 0.8661417322834646,
          "duration": 0.09982622916666628
        },
        {
          "name": "C2",
          "midi": 36,
          "time": 69.37488899999995,
          "velocity": 0.8661417322834646,
          "duration": 0.20399272916667144
        },
        {
          "name": "D2",
          "midi": 38,
          "time": 69.58322199999996,
          "velocity": 0.8661417322834646,
          "duration": 0.09982622916666628
        },
        {
          "name": "D2",
          "midi": 38,
          "time": 69.68738849999997,
          "velocity": 0.8661417322834646,
          "duration": 0.3081592291666624
        },
        {
          "name": "G1",
          "midi": 31,
          "time": 69.99988799999997,
          "velocity": 0.8661417322834646,
          "duration": 0.20399272916667144
        },
        {
          "name": "A1",
          "midi": 33,
          "time": 70.20822099999998,
          "velocity": 0.8661417322834646,
          "duration": 0.20399272916667144
        },
        {
          "name": "A1",
          "midi": 33,
          "time": 70.41655399999999,
          "velocity": 0.8661417322834646,
          "duration": 0.09982622916666628
        },
        {
          "name": "A1",
          "midi": 33,
          "time": 70.5207205,
          "velocity": 0.8661417322834646,
          "duration": 0.09982622916666628
        },
        {
          "name": "A1",
          "midi": 33,
          "time": 70.624887,
          "velocity": 0.8661417322834646,
          "duration": 0.09982622916666628
        },
        {
          "name": "A1",
          "midi": 33,
          "time": 70.7290535,
          "velocity": 0.8661417322834646,
          "duration": 0.09982622916666628
        },
        {
          "name": "A1",
          "midi": 33,
          "time": 70.83322000000001,
          "velocity": 0.8661417322834646,
          "duration": 0.09982622916666628
        },
        {
          "name": "A1",
          "midi": 33,
          "time": 70.93738650000002,
          "velocity": 0.8661417322834646,
          "duration": 0.09982622916666628
        },
        {
          "name": "A2",
          "midi": 45,
          "time": 71.04155300000002,
          "velocity": 0.8661417322834646,
          "duration": 0.09982622916666628
        },
        {
          "name": "G2",
          "midi": 43,
          "time": 71.14571950000003,
          "velocity": 0.8661417322834646,
          "duration": 0.09982622916666628
        },
        {
          "name": "E2",
          "midi": 40,
          "time": 71.24988600000003,
          "velocity": 0.8661417322834646,
          "duration": 0.09982622916666628
        },
        {
          "name": "G2",
          "midi": 43,
          "time": 71.35405250000004,
          "velocity": 0.8661417322834646,
          "duration": 0.20399272916667144
        },
        {
          "name": "D#2",
          "midi": 39,
          "time": 71.56238550000005,
          "velocity": 0.8661417322834646,
          "duration": 0.09982622916666628
        },
        {
          "name": "E2",
          "midi": 40,
          "time": 71.66655200000005,
          "velocity": 0.8661417322834646,
          "duration": 0.20399272916667144
        },
        {
          "name": "D2",
          "midi": 38,
          "time": 71.87488500000006,
          "velocity": 0.8661417322834646,
          "duration": 0.20399272916667144
        },
        {
          "name": "D2",
          "midi": 38,
          "time": 72.08321800000007,
          "velocity": 0.8661417322834646,
          "duration": 0.5555546666666658
        },
        {
          "name": "G1",
          "midi": 31,
          "time": 72.70821700000008,
          "velocity": 0.8661417322834646,
          "duration": 0.20399272916667144
        },
        {
          "name": "G1",
          "midi": 31,
          "time": 72.91655000000009,
          "velocity": 0.8661417322834646,
          "duration": 0.5555546666666658
        },
        {
          "name": "D2",
          "midi": 38,
          "time": 73.54154900000009,
          "velocity": 0.8661417322834646,
          "duration": 0.20399272916667144
        },
        {
          "name": "D2",
          "midi": 38,
          "time": 73.7498820000001,
          "velocity": 0.8661417322834646,
          "duration": 0.5555546666666658
        },
        {
          "name": "C2",
          "midi": 36,
          "time": 74.3748810000001,
          "velocity": 0.8661417322834646,
          "duration": 0.3081592291666624
        },
        {
          "name": "B1",
          "midi": 35,
          "time": 74.6873805000001,
          "velocity": 0.8661417322834646,
          "duration": 0.3081592291666624
        },
        {
          "name": "G1",
          "midi": 31,
          "time": 74.9998800000001,
          "velocity": 0.8661417322834646,
          "duration": 0.20399272916667144
        },
        {
          "name": "A1",
          "midi": 33,
          "time": 75.20821300000011,
          "velocity": 0.8661417322834646,
          "duration": 0.20399272916667144
        },
        {
          "name": "A1",
          "midi": 33,
          "time": 75.41654600000012,
          "velocity": 0.8661417322834646,
          "duration": 0.09982622916666628
        },
        {
          "name": "A1",
          "midi": 33,
          "time": 75.52071250000013,
          "velocity": 0.8661417322834646,
          "duration": 0.09982622916666628
        },
        {
          "name": "A1",
          "midi": 33,
          "time": 75.62487900000013,
          "velocity": 0.8661417322834646,
          "duration": 0.09982622916666628
        },
        {
          "name": "A1",
          "midi": 33,
          "time": 75.72904550000014,
          "velocity": 0.8661417322834646,
          "duration": 0.09982622916666628
        },
        {
          "name": "A1",
          "midi": 33,
          "time": 75.83321200000015,
          "velocity": 0.8661417322834646,
          "duration": 0.09982622916666628
        },
        {
          "name": "A1",
          "midi": 33,
          "time": 75.93737850000015,
          "velocity": 0.8661417322834646,
          "duration": 0.09982622916666628
        },
        {
          "name": "C2",
          "midi": 36,
          "time": 76.04154500000016,
          "velocity": 0.8661417322834646,
          "duration": 0.20399272916667144
        },
        {
          "name": "D2",
          "midi": 38,
          "time": 76.24987800000017,
          "velocity": 0.8661417322834646,
          "duration": 0.09982622916666628
        },
        {
          "name": "D2",
          "midi": 38,
          "time": 76.35404450000017,
          "velocity": 0.8661417322834646,
          "duration": 0.3081592291666624
        },
        {
          "name": "G1",
          "midi": 31,
          "time": 76.66654400000017,
          "velocity": 0.8661417322834646,
          "duration": 0.20399272916667144
        },
        {
          "name": "A1",
          "midi": 33,
          "time": 76.87487700000018,
          "velocity": 0.8661417322834646,
          "duration": 0.20399272916667144
        },
        {
          "name": "A1",
          "midi": 33,
          "time": 77.0832100000002,
          "velocity": 0.8661417322834646,
          "duration": 0.09982622916666628
        },
        {
          "name": "A1",
          "midi": 33,
          "time": 77.1873765000002,
          "velocity": 0.8661417322834646,
          "duration": 0.09982622916666628
        },
        {
          "name": "A1",
          "midi": 33,
          "time": 77.2915430000002,
          "velocity": 0.8661417322834646,
          "duration": 0.09982622916666628
        },
        {
          "name": "A1",
          "midi": 33,
          "time": 77.39570950000021,
          "velocity": 0.8661417322834646,
          "duration": 0.09982622916666628
        },
        {
          "name": "A1",
          "midi": 33,
          "time": 77.49987600000021,
          "velocity": 0.8661417322834646,
          "duration": 0.09982622916666628
        },
        {
          "name": "A1",
          "midi": 33,
          "time": 77.60404250000022,
          "velocity": 0.8661417322834646,
          "duration": 0.09982622916666628
        },
        {
          "name": "A2",
          "midi": 45,
          "time": 77.70820900000022,
          "velocity": 0.8661417322834646,
          "duration": 0.09982622916666628
        },
        {
          "name": "G2",
          "midi": 43,
          "time": 77.81237550000023,
          "velocity": 0.8661417322834646,
          "duration": 0.09982622916666628
        },
        {
          "name": "E2",
          "midi": 40,
          "time": 77.91654200000023,
          "velocity": 0.8661417322834646,
          "duration": 0.09982622916666628
        },
        {
          "name": "G2",
          "midi": 43,
          "time": 78.02070850000024,
          "velocity": 0.8661417322834646,
          "duration": 0.20399272916667144
        },
        {
          "name": "D#2",
          "midi": 39,
          "time": 78.22904150000025,
          "velocity": 0.8661417322834646,
          "duration": 0.09982622916666628
        },
        {
          "name": "E2",
          "midi": 40,
          "time": 78.33320800000025,
          "velocity": 0.8661417322834646,
          "duration": 0.20399272916667144
        },
        {
          "name": "E1",
          "midi": 28,
          "time": 78.54154100000027,
          "velocity": 0.8661417322834646,
          "duration": 0.20399272916667144
        },
        {
          "name": "E1",
          "midi": 28,
          "time": 78.74987400000028,
          "velocity": 0.8661417322834646,
          "duration": 0.09982622916666628
        },
        {
          "name": "E1",
          "midi": 28,
          "time": 78.85404050000028,
          "velocity": 0.8661417322834646,
          "duration": 0.09982622916666628
        },
        {
          "name": "E1",
          "midi": 28,
          "time": 78.95820700000029,
          "velocity": 0.8661417322834646,
          "duration": 0.09982622916666628
        },
        {
          "name": "E1",
          "midi": 28,
          "time": 79.06237350000029,
          "velocity": 0.8661417322834646,
          "duration": 0.09982622916666628
        },
        {
          "name": "E1",
          "midi": 28,
          "time": 79.1665400000003,
          "velocity": 0.8661417322834646,
          "duration": 0.09982622916666628
        },
        {
          "name": "E1",
          "midi": 28,
          "time": 79.2707065000003,
          "velocity": 0.8661417322834646,
          "duration": 0.09982622916666628
        },
        {
          "name": "E1",
          "midi": 28,
          "time": 79.3748730000003,
          "velocity": 0.8661417322834646,
          "duration": 0.09982622916666628
        },
        {
          "name": "E1",
          "midi": 28,
          "time": 79.47903950000031,
          "velocity": 0.8661417322834646,
          "duration": 0.09982622916666628
        },
        {
          "name": "E1",
          "midi": 28,
          "time": 79.58320600000032,
          "velocity": 0.8661417322834646,
          "duration": 0.09982622916666628
        },
        {
          "name": "E1",
          "midi": 28,
          "time": 79.68737250000032,
          "velocity": 0.8661417322834646,
          "duration": 0.09982622916666628
        },
        {
          "name": "E1",
          "midi": 28,
          "time": 79.79153900000033,
          "velocity": 0.8661417322834646,
          "duration": 0.09982622916666628
        },
        {
          "name": "E1",
          "midi": 28,
          "time": 79.89570550000033,
          "velocity": 0.8661417322834646,
          "duration": 0.09982622916666628
        },
        {
          "name": "E1",
          "midi": 28,
          "time": 79.99987200000034,
          "velocity": 0.8661417322834646,
          "duration": 0.09982622916666628
        },
        {
          "name": "E1",
          "midi": 28,
          "time": 80.10403850000034,
          "velocity": 0.8661417322834646,
          "duration": 0.09982622916666628
        },
        {
          "name": "G1",
          "midi": 31,
          "time": 80.20820500000035,
          "velocity": 0.8661417322834646,
          "duration": 0.273437062499994
        },
        {
          "name": "F#1",
          "midi": 30,
          "time": 80.48598233333368,
          "velocity": 0.8661417322834646,
          "duration": 0.273437062499994
        },
        {
          "name": "G1",
          "midi": 31,
          "time": 80.76375966666701,
          "velocity": 0.8661417322834646,
          "duration": 0.273437062499994
        },
        {
          "name": "C2",
          "midi": 36,
          "time": 81.04153700000035,
          "velocity": 0.8661417322834646,
          "duration": 0.273437062499994
        },
        {
          "name": "B1",
          "midi": 35,
          "time": 81.31931433333368,
          "velocity": 0.8661417322834646,
          "duration": 0.273437062499994
        },
        {
          "name": "G1",
          "midi": 31,
          "time": 81.59709166666701,
          "velocity": 0.8661417322834646,
          "duration": 0.273437062499994
        },
        {
          "name": "A1",
          "midi": 33,
          "time": 81.87486900000034,
          "velocity": 0.8661417322834646,
          "duration": 0.20399272916667144
        },
        {
          "name": "A1",
          "midi": 33,
          "time": 82.29153500000035,
          "velocity": 0.8661417322834646,
          "duration": 0.34722166666666965
        },
        {
          "name": "G1",
          "midi": 31,
          "time": 82.70820100000036,
          "velocity": 0.8661417322834646,
          "duration": 0.09982622916666628
        },
        {
          "name": "A1",
          "midi": 33,
          "time": 82.81236750000036,
          "velocity": 0.8661417322834646,
          "duration": 0.09982622916666628
        },
        {
          "name": "A1",
          "midi": 33,
          "time": 83.12486700000036,
          "velocity": 0.8661417322834646,
          "duration": 0.34722166666666965
        },
        {
          "name": "G1",
          "midi": 31,
          "time": 83.54153300000037,
          "velocity": 0.8661417322834646,
          "duration": 0.09982622916666628
        },
        {
          "name": "A1",
          "midi": 33,
          "time": 83.64569950000038,
          "velocity": 0.8661417322834646,
          "duration": 0.09982622916666628
        },
        {
          "name": "A1",
          "midi": 33,
          "time": 83.95819900000038,
          "velocity": 0.8661417322834646,
          "duration": 0.34722166666666965
        },
        {
          "name": "C2",
          "midi": 36,
          "time": 84.37486500000038,
          "velocity": 0.8661417322834646,
          "duration": 0.3081592291666624
        },
        {
          "name": "G1",
          "midi": 31,
          "time": 84.68736450000038,
          "velocity": 0.8661417322834646,
          "duration": 0.3081592291666624
        },
        {
          "name": "A1",
          "midi": 33,
          "time": 84.99986400000039,
          "velocity": 0.8661417322834646,
          "duration": 0.20399272916667144
        },
        {
          "name": "A1",
          "midi": 33,
          "time": 85.41653000000039,
          "velocity": 0.8661417322834646,
          "duration": 0.34722166666666965
        },
        {
          "name": "G1",
          "midi": 31,
          "time": 85.8331960000004,
          "velocity": 0.8661417322834646,
          "duration": 0.09982622916666628
        },
        {
          "name": "A1",
          "midi": 33,
          "time": 85.9373625000004,
          "velocity": 0.8661417322834646,
          "duration": 0.09982622916666628
        },
        {
          "name": "A1",
          "midi": 33,
          "time": 86.2498620000004,
          "velocity": 0.8661417322834646,
          "duration": 0.34722166666666965
        },
        {
          "name": "G1",
          "midi": 31,
          "time": 86.66652800000041,
          "velocity": 0.8661417322834646,
          "duration": 0.09982622916666628
        },
        {
          "name": "A1",
          "midi": 33,
          "time": 86.77069450000042,
          "velocity": 0.8661417322834646,
          "duration": 0.09982622916666628
        },
        {
          "name": "A1",
          "midi": 33,
          "time": 87.08319400000042,
          "velocity": 0.8661417322834646,
          "duration": 0.34722166666666965
        },
        {
          "name": "C2",
          "midi": 36,
          "time": 87.49986000000042,
          "velocity": 0.8661417322834646,
          "duration": 0.3081592291666624
        },
        {
          "name": "G1",
          "midi": 31,
          "time": 87.81235950000043,
          "velocity": 0.8661417322834646,
          "duration": 0.3081592291666624
        },
        {
          "name": "A1",
          "midi": 33,
          "time": 88.12485900000043,
          "velocity": 0.8661417322834646,
          "duration": 0.20399272916667144
        },
        {
          "name": "A1",
          "midi": 33,
          "time": 88.54152500000043,
          "velocity": 0.8661417322834646,
          "duration": 0.34722166666666965
        },
        {
          "name": "G1",
          "midi": 31,
          "time": 88.95819100000044,
          "velocity": 0.8661417322834646,
          "duration": 0.09982622916666628
        },
        {
          "name": "A1",
          "midi": 33,
          "time": 89.06235750000045,
          "velocity": 0.8661417322834646,
          "duration": 0.09982622916666628
        },
        {
          "name": "A1",
          "midi": 33,
          "time": 89.37485700000045,
          "velocity": 0.8661417322834646,
          "duration": 0.34722166666666965
        },
        {
          "name": "G1",
          "midi": 31,
          "time": 89.79152300000045,
          "velocity": 0.8661417322834646,
          "duration": 0.09982622916666628
        },
        {
          "name": "A1",
          "midi": 33,
          "time": 89.89568950000046,
          "velocity": 0.8661417322834646,
          "duration": 0.09982622916666628
        },
        {
          "name": "A1",
          "midi": 33,
          "time": 90.20818900000046,
          "velocity": 0.8661417322834646,
          "duration": 0.34722166666666965
        },
        {
          "name": "C2",
          "midi": 36,
          "time": 90.62485500000047,
          "velocity": 0.8661417322834646,
          "duration": 0.3081592291666624
        },
        {
          "name": "G1",
          "midi": 31,
          "time": 90.93735450000047,
          "velocity": 0.8661417322834646,
          "duration": 0.3081592291666624
        },
        {
          "name": "A1",
          "midi": 33,
          "time": 91.24985400000047,
          "velocity": 0.8661417322834646,
          "duration": 0.20399272916667144
        },
        {
          "name": "A1",
          "midi": 33,
          "time": 91.66652000000047,
          "velocity": 0.8661417322834646,
          "duration": 0.34722166666666965
        },
        {
          "name": "G1",
          "midi": 31,
          "time": 92.08318600000048,
          "velocity": 0.8661417322834646,
          "duration": 0.09982622916666628
        },
        {
          "name": "A1",
          "midi": 33,
          "time": 92.18735250000049,
          "velocity": 0.8661417322834646,
          "duration": 0.09982622916666628
        },
        {
          "name": "A1",
          "midi": 33,
          "time": 92.49985200000049,
          "velocity": 0.8661417322834646,
          "duration": 0.34722166666666965
        },
        {
          "name": "A1",
          "midi": 33,
          "time": 94.58318200000049,
          "velocity": 0.8661417322834646,
          "duration": 0.20399272916667144
        },
        {
          "name": "A1",
          "midi": 33,
          "time": 94.7915150000005,
          "velocity": 0.8661417322834646,
          "duration": 0.09982622916666628
        },
        {
          "name": "A1",
          "midi": 33,
          "time": 94.8956815000005,
          "velocity": 0.8661417322834646,
          "duration": 0.09982622916666628
        },
        {
          "name": "A1",
          "midi": 33,
          "time": 94.99984800000051,
          "velocity": 0.8661417322834646,
          "duration": 0.09982622916666628
        },
        {
          "name": "A1",
          "midi": 33,
          "time": 95.10401450000052,
          "velocity": 0.8661417322834646,
          "duration": 0.09982622916666628
        },
        {
          "name": "A1",
          "midi": 33,
          "time": 95.20818100000052,
          "velocity": 0.8661417322834646,
          "duration": 0.09982622916666628
        },
        {
          "name": "A1",
          "midi": 33,
          "time": 95.31234750000053,
          "velocity": 0.8661417322834646,
          "duration": 0.09982622916666628
        },
        {
          "name": "C2",
          "midi": 36,
          "time": 95.41651400000053,
          "velocity": 0.8661417322834646,
          "duration": 0.20399272916667144
        },
        {
          "name": "D2",
          "midi": 38,
          "time": 95.62484700000054,
          "velocity": 0.8661417322834646,
          "duration": 0.09982622916666628
        },
        {
          "name": "D2",
          "midi": 38,
          "time": 95.72901350000055,
          "velocity": 0.8661417322834646,
          "duration": 0.3081592291666624
        },
        {
          "name": "G1",
          "midi": 31,
          "time": 96.04151300000055,
          "velocity": 0.8661417322834646,
          "duration": 0.20399272916667144
        },
        {
          "name": "A1",
          "midi": 33,
          "time": 96.24984600000056,
          "velocity": 0.8661417322834646,
          "duration": 0.20399272916667144
        },
        {
          "name": "A1",
          "midi": 33,
          "time": 96.45817900000057,
          "velocity": 0.8661417322834646,
          "duration": 0.09982622916666628
        },
        {
          "name": "A1",
          "midi": 33,
          "time": 96.56234550000057,
          "velocity": 0.8661417322834646,
          "duration": 0.09982622916666628
        },
        {
          "name": "A1",
          "midi": 33,
          "time": 96.66651200000058,
          "velocity": 0.8661417322834646,
          "duration": 0.09982622916666628
        },
        {
          "name": "A1",
          "midi": 33,
          "time": 96.77067850000059,
          "velocity": 0.8661417322834646,
          "duration": 0.09982622916666628
        },
        {
          "name": "A1",
          "midi": 33,
          "time": 96.87484500000059,
          "velocity": 0.8661417322834646,
          "duration": 0.09982622916666628
        },
        {
          "name": "A1",
          "midi": 33,
          "time": 96.9790115000006,
          "velocity": 0.8661417322834646,
          "duration": 0.09982622916666628
        },
        {
          "name": "A2",
          "midi": 45,
          "time": 97.0831780000006,
          "velocity": 0.8661417322834646,
          "duration": 0.09982622916666628
        },
        {
          "name": "G2",
          "midi": 43,
          "time": 97.1873445000006,
          "velocity": 0.8661417322834646,
          "duration": 0.09982622916666628
        },
        {
          "name": "E2",
          "midi": 40,
          "time": 97.29151100000061,
          "velocity": 0.8661417322834646,
          "duration": 0.09982622916666628
        },
        {
          "name": "G2",
          "midi": 43,
          "time": 97.39567750000062,
          "velocity": 0.8661417322834646,
          "duration": 0.20399272916667144
        },
        {
          "name": "D#2",
          "midi": 39,
          "time": 97.60401050000063,
          "velocity": 0.8661417322834646,
          "duration": 0.09982622916666628
        },
        {
          "name": "E2",
          "midi": 40,
          "time": 97.70817700000063,
          "velocity": 0.8661417322834646,
          "duration": 0.20399272916667144
        },
        {
          "name": "A1",
          "midi": 33,
          "time": 97.91651000000064,
          "velocity": 0.8661417322834646,
          "duration": 0.20399272916667144
        },
        {
          "name": "A1",
          "midi": 33,
          "time": 98.12484300000065,
          "velocity": 0.8661417322834646,
          "duration": 0.09982622916666628
        },
        {
          "name": "A1",
          "midi": 33,
          "time": 98.22900950000066,
          "velocity": 0.8661417322834646,
          "duration": 0.09982622916666628
        },
        {
          "name": "A1",
          "midi": 33,
          "time": 98.33317600000066,
          "velocity": 0.8661417322834646,
          "duration": 0.09982622916666628
        },
        {
          "name": "A1",
          "midi": 33,
          "time": 98.43734250000067,
          "velocity": 0.8661417322834646,
          "duration": 0.09982622916666628
        },
        {
          "name": "A1",
          "midi": 33,
          "time": 98.54150900000067,
          "velocity": 0.8661417322834646,
          "duration": 0.09982622916666628
        },
        {
          "name": "A1",
          "midi": 33,
          "time": 98.64567550000068,
          "velocity": 0.8661417322834646,
          "duration": 0.09982622916666628
        },
        {
          "name": "C2",
          "midi": 36,
          "time": 98.74984200000068,
          "velocity": 0.8661417322834646,
          "duration": 0.20399272916667144
        },
        {
          "name": "D2",
          "midi": 38,
          "time": 98.9581750000007,
          "velocity": 0.8661417322834646,
          "duration": 0.09982622916666628
        },
        {
          "name": "D2",
          "midi": 38,
          "time": 99.0623415000007,
          "velocity": 0.8661417322834646,
          "duration": 0.3081592291666624
        },
        {
          "name": "G1",
          "midi": 31,
          "time": 99.3748410000007,
          "velocity": 0.8661417322834646,
          "duration": 0.20399272916667144
        },
        {
          "name": "A1",
          "midi": 33,
          "time": 99.58317400000071,
          "velocity": 0.8661417322834646,
          "duration": 0.20399272916667144
        },
        {
          "name": "A1",
          "midi": 33,
          "time": 99.79150700000072,
          "velocity": 0.8661417322834646,
          "duration": 0.09982622916666628
        },
        {
          "name": "A1",
          "midi": 33,
          "time": 99.89567350000073,
          "velocity": 0.8661417322834646,
          "duration": 0.09982622916666628
        },
        {
          "name": "A1",
          "midi": 33,
          "time": 99.99984000000073,
          "velocity": 0.8661417322834646,
          "duration": 0.09982622916666628
        },
        {
          "name": "A1",
          "midi": 33,
          "time": 100.10400650000074,
          "velocity": 0.8661417322834646,
          "duration": 0.09982622916666628
        },
        {
          "name": "A1",
          "midi": 33,
          "time": 100.20817300000074,
          "velocity": 0.8661417322834646,
          "duration": 0.09982622916666628
        },
        {
          "name": "A1",
          "midi": 33,
          "time": 100.31233950000075,
          "velocity": 0.8661417322834646,
          "duration": 0.09982622916666628
        },
        {
          "name": "A2",
          "midi": 45,
          "time": 100.41650600000075,
          "velocity": 0.8661417322834646,
          "duration": 0.09982622916666628
        },
        {
          "name": "G2",
          "midi": 43,
          "time": 100.52067250000076,
          "velocity": 0.8661417322834646,
          "duration": 0.09982622916666628
        },
        {
          "name": "E2",
          "midi": 40,
          "time": 100.62483900000076,
          "velocity": 0.8661417322834646,
          "duration": 0.09982622916666628
        },
        {
          "name": "G2",
          "midi": 43,
          "time": 100.72900550000077,
          "velocity": 0.8661417322834646,
          "duration": 0.20399272916667144
        },
        {
          "name": "D#2",
          "midi": 39,
          "time": 100.93733850000078,
          "velocity": 0.8661417322834646,
          "duration": 0.09982622916666628
        },
        {
          "name": "E2",
          "midi": 40,
          "time": 101.04150500000078,
          "velocity": 0.8661417322834646,
          "duration": 0.20399272916667144
        },
        {
          "name": "D2",
          "midi": 38,
          "time": 101.24983800000079,
          "velocity": 0.8661417322834646,
          "duration": 0.20399272916667144
        },
        {
          "name": "D2",
          "midi": 38,
          "time": 101.4581710000008,
          "velocity": 0.8661417322834646,
          "duration": 0.5555546666666658
        },
        {
          "name": "G1",
          "midi": 31,
          "time": 102.0831700000008,
          "velocity": 0.8661417322834646,
          "duration": 0.20399272916667144
        },
        {
          "name": "G1",
          "midi": 31,
          "time": 102.29150300000082,
          "velocity": 0.8661417322834646,
          "duration": 0.5555546666666658
        },
        {
          "name": "D2",
          "midi": 38,
          "time": 102.91650200000082,
          "velocity": 0.8661417322834646,
          "duration": 0.20399272916667144
        },
        {
          "name": "D2",
          "midi": 38,
          "time": 103.12483500000083,
          "velocity": 0.8661417322834646,
          "duration": 0.5555546666666658
        },
        {
          "name": "C2",
          "midi": 36,
          "time": 103.74983400000083,
          "velocity": 0.8661417322834646,
          "duration": 0.3081592291666624
        },
        {
          "name": "B1",
          "midi": 35,
          "time": 104.06233350000083,
          "velocity": 0.8661417322834646,
          "duration": 0.3081592291666624
        },
        {
          "name": "G1",
          "midi": 31,
          "time": 104.37483300000083,
          "velocity": 0.8661417322834646,
          "duration": 0.20399272916667144
        },
        {
          "name": "A1",
          "midi": 33,
          "time": 104.58316600000084,
          "velocity": 0.8661417322834646,
          "duration": 0.20399272916667144
        },
        {
          "name": "A1",
          "midi": 33,
          "time": 104.79149900000085,
          "velocity": 0.8661417322834646,
          "duration": 0.09982622916666628
        },
        {
          "name": "A1",
          "midi": 33,
          "time": 104.89566550000086,
          "velocity": 0.8661417322834646,
          "duration": 0.09982622916666628
        },
        {
          "name": "A1",
          "midi": 33,
          "time": 104.99983200000086,
          "velocity": 0.8661417322834646,
          "duration": 0.09982622916666628
        },
        {
          "name": "A1",
          "midi": 33,
          "time": 105.10399850000087,
          "velocity": 0.8661417322834646,
          "duration": 0.09982622916666628
        },
        {
          "name": "A1",
          "midi": 33,
          "time": 105.20816500000088,
          "velocity": 0.8661417322834646,
          "duration": 0.09982622916666628
        },
        {
          "name": "A1",
          "midi": 33,
          "time": 105.31233150000088,
          "velocity": 0.8661417322834646,
          "duration": 0.09982622916666628
        },
        {
          "name": "C2",
          "midi": 36,
          "time": 105.41649800000089,
          "velocity": 0.8661417322834646,
          "duration": 0.20399272916667144
        },
        {
          "name": "D2",
          "midi": 38,
          "time": 105.6248310000009,
          "velocity": 0.8661417322834646,
          "duration": 0.09982622916666628
        },
        {
          "name": "D2",
          "midi": 38,
          "time": 105.7289975000009,
          "velocity": 0.8661417322834646,
          "duration": 0.3081592291666624
        },
        {
          "name": "G1",
          "midi": 31,
          "time": 106.0414970000009,
          "velocity": 0.8661417322834646,
          "duration": 0.20399272916667144
        },
        {
          "name": "A1",
          "midi": 33,
          "time": 106.24983000000091,
          "velocity": 0.8661417322834646,
          "duration": 0.20399272916667144
        },
        {
          "name": "A1",
          "midi": 33,
          "time": 106.45816300000092,
          "velocity": 0.8661417322834646,
          "duration": 0.09982622916666628
        },
        {
          "name": "A1",
          "midi": 33,
          "time": 106.56232950000093,
          "velocity": 0.8661417322834646,
          "duration": 0.09982622916666628
        },
        {
          "name": "A1",
          "midi": 33,
          "time": 106.66649600000093,
          "velocity": 0.8661417322834646,
          "duration": 0.09982622916666628
        },
        {
          "name": "A1",
          "midi": 33,
          "time": 106.77066250000094,
          "velocity": 0.8661417322834646,
          "duration": 0.09982622916666628
        },
        {
          "name": "A1",
          "midi": 33,
          "time": 106.87482900000094,
          "velocity": 0.8661417322834646,
          "duration": 0.09982622916666628
        },
        {
          "name": "A1",
          "midi": 33,
          "time": 106.97899550000095,
          "velocity": 0.8661417322834646,
          "duration": 0.09982622916666628
        },
        {
          "name": "A2",
          "midi": 45,
          "time": 107.08316200000095,
          "velocity": 0.8661417322834646,
          "duration": 0.09982622916666628
        },
        {
          "name": "G2",
          "midi": 43,
          "time": 107.18732850000096,
          "velocity": 0.8661417322834646,
          "duration": 0.09982622916666628
        },
        {
          "name": "E2",
          "midi": 40,
          "time": 107.29149500000096,
          "velocity": 0.8661417322834646,
          "duration": 0.09982622916666628
        },
        {
          "name": "G2",
          "midi": 43,
          "time": 107.39566150000097,
          "velocity": 0.8661417322834646,
          "duration": 0.20399272916667144
        },
        {
          "name": "D#2",
          "midi": 39,
          "time": 107.60399450000098,
          "velocity": 0.8661417322834646,
          "duration": 0.09982622916666628
        },
        {
          "name": "E2",
          "midi": 40,
          "time": 107.70816100000098,
          "velocity": 0.8661417322834646,
          "duration": 0.20399272916667144
        },
        {
          "name": "E1",
          "midi": 28,
          "time": 107.916494000001,
          "velocity": 0.8661417322834646,
          "duration": 0.20399272916667144
        },
        {
          "name": "E1",
          "midi": 28,
          "time": 108.124827000001,
          "velocity": 0.8661417322834646,
          "duration": 0.09982622916666628
        },
        {
          "name": "E1",
          "midi": 28,
          "time": 108.22899350000101,
          "velocity": 0.8661417322834646,
          "duration": 0.09982622916666628
        },
        {
          "name": "E1",
          "midi": 28,
          "time": 108.33316000000102,
          "velocity": 0.8661417322834646,
          "duration": 0.09982622916666628
        },
        {
          "name": "E1",
          "midi": 28,
          "time": 108.43732650000102,
          "velocity": 0.8661417322834646,
          "duration": 0.09982622916666628
        },
        {
          "name": "E1",
          "midi": 28,
          "time": 108.54149300000103,
          "velocity": 0.8661417322834646,
          "duration": 0.09982622916666628
        },
        {
          "name": "E1",
          "midi": 28,
          "time": 108.64565950000103,
          "velocity": 0.8661417322834646,
          "duration": 0.09982622916666628
        },
        {
          "name": "E1",
          "midi": 28,
          "time": 108.74982600000104,
          "velocity": 0.8661417322834646,
          "duration": 0.09982622916666628
        },
        {
          "name": "E1",
          "midi": 28,
          "time": 108.85399250000104,
          "velocity": 0.8661417322834646,
          "duration": 0.09982622916666628
        },
        {
          "name": "E1",
          "midi": 28,
          "time": 108.95815900000105,
          "velocity": 0.8661417322834646,
          "duration": 0.09982622916666628
        },
        {
          "name": "E1",
          "midi": 28,
          "time": 109.06232550000105,
          "velocity": 0.8661417322834646,
          "duration": 0.09982622916666628
        },
        {
          "name": "E1",
          "midi": 28,
          "time": 109.16649200000106,
          "velocity": 0.8661417322834646,
          "duration": 0.09982622916666628
        },
        {
          "name": "E1",
          "midi": 28,
          "time": 109.27065850000106,
          "velocity": 0.8661417322834646,
          "duration": 0.09982622916666628
        },
        {
          "name": "E1",
          "midi": 28,
          "time": 109.37482500000107,
          "velocity": 0.8661417322834646,
          "duration": 0.09982622916666628
        },
        {
          "name": "E1",
          "midi": 28,
          "time": 109.47899150000107,
          "velocity": 0.8661417322834646,
          "duration": 0.09982622916666628
        },
        {
          "name": "G1",
          "midi": 31,
          "time": 109.58315800000108,
          "velocity": 0.8661417322834646,
          "duration": 0.273437062499994
        },
        {
          "name": "F#1",
          "midi": 30,
          "time": 109.86093533333441,
          "velocity": 0.8661417322834646,
          "duration": 0.273437062499994
        },
        {
          "name": "G1",
          "midi": 31,
          "time": 110.13871266666774,
          "velocity": 0.8661417322834646,
          "duration": 0.273437062499994
        },
        {
          "name": "C2",
          "midi": 36,
          "time": 110.41649000000108,
          "velocity": 0.8661417322834646,
          "duration": 0.273437062499994
        },
        {
          "name": "B1",
          "midi": 35,
          "time": 110.69426733333441,
          "velocity": 0.8661417322834646,
          "duration": 0.273437062499994
        },
        {
          "name": "G1",
          "midi": 31,
          "time": 110.97204466666774,
          "velocity": 0.8661417322834646,
          "duration": 0.273437062499994
        },
        {
          "name": "A1",
          "midi": 33,
          "time": 111.24982200000107,
          "velocity": 0.8661417322834646,
          "duration": 0.20399272916667144
        },
        {
          "name": "A1",
          "midi": 33,
          "time": 111.66648800000108,
          "velocity": 0.8661417322834646,
          "duration": 0.34722166666666965
        },
        {
          "name": "G1",
          "midi": 31,
          "time": 112.08315400000109,
          "velocity": 0.8661417322834646,
          "duration": 0.09982622916666628
        },
        {
          "name": "A1",
          "midi": 33,
          "time": 112.18732050000109,
          "velocity": 0.8661417322834646,
          "duration": 0.09982622916666628
        },
        {
          "name": "A1",
          "midi": 33,
          "time": 112.4998200000011,
          "velocity": 0.8661417322834646,
          "duration": 0.34722166666666965
        },
        {
          "name": "G1",
          "midi": 31,
          "time": 112.9164860000011,
          "velocity": 0.8661417322834646,
          "duration": 0.09982622916666628
        },
        {
          "name": "A1",
          "midi": 33,
          "time": 113.0206525000011,
          "velocity": 0.8661417322834646,
          "duration": 0.09982622916666628
        },
        {
          "name": "A1",
          "midi": 33,
          "time": 113.3331520000011,
          "velocity": 0.8661417322834646,
          "duration": 0.34722166666666965
        },
        {
          "name": "C2",
          "midi": 36,
          "time": 113.74981800000111,
          "velocity": 0.8661417322834646,
          "duration": 0.3081592291666624
        },
        {
          "name": "G1",
          "midi": 31,
          "time": 114.06231750000111,
          "velocity": 0.8661417322834646,
          "duration": 0.3081592291666624
        },
        {
          "name": "A1",
          "midi": 33,
          "time": 114.37481700000112,
          "velocity": 0.8661417322834646,
          "duration": 0.20399272916667144
        },
        {
          "name": "A1",
          "midi": 33,
          "time": 114.79148300000112,
          "velocity": 0.8661417322834646,
          "duration": 0.34722166666666965
        },
        {
          "name": "G1",
          "midi": 31,
          "time": 115.20814900000113,
          "velocity": 0.8661417322834646,
          "duration": 0.09982622916666628
        },
        {
          "name": "A1",
          "midi": 33,
          "time": 115.31231550000113,
          "velocity": 0.8661417322834646,
          "duration": 0.09982622916666628
        },
        {
          "name": "A1",
          "midi": 33,
          "time": 115.62481500000113,
          "velocity": 0.8661417322834646,
          "duration": 0.34722166666666965
        },
        {
          "name": "G1",
          "midi": 31,
          "time": 116.04148100000114,
          "velocity": 0.8661417322834646,
          "duration": 0.09982622916666628
        },
        {
          "name": "A1",
          "midi": 33,
          "time": 116.14564750000115,
          "velocity": 0.8661417322834646,
          "duration": 0.09982622916666628
        },
        {
          "name": "A1",
          "midi": 33,
          "time": 116.45814700000115,
          "velocity": 0.8661417322834646,
          "duration": 0.34722166666666965
        },
        {
          "name": "C2",
          "midi": 36,
          "time": 116.87481300000115,
          "velocity": 0.8661417322834646,
          "duration": 0.3081592291666624
        },
        {
          "name": "G1",
          "midi": 31,
          "time": 117.18731250000116,
          "velocity": 0.8661417322834646,
          "duration": 0.3081592291666624
        },
        {
          "name": "A1",
          "midi": 33,
          "time": 117.49981200000116,
          "velocity": 0.8661417322834646,
          "duration": 0.20399272916667144
        },
        {
          "name": "A1",
          "midi": 33,
          "time": 117.91647800000116,
          "velocity": 0.8661417322834646,
          "duration": 0.34722166666666965
        },
        {
          "name": "G1",
          "midi": 31,
          "time": 118.33314400000117,
          "velocity": 0.8661417322834646,
          "duration": 0.09982622916666628
        },
        {
          "name": "A1",
          "midi": 33,
          "time": 118.43731050000117,
          "velocity": 0.8661417322834646,
          "duration": 0.09982622916666628
        },
        {
          "name": "A1",
          "midi": 33,
          "time": 118.74981000000118,
          "velocity": 0.8661417322834646,
          "duration": 0.34722166666666965
        },
        {
          "name": "G1",
          "midi": 31,
          "time": 119.16647600000118,
          "velocity": 0.8661417322834646,
          "duration": 0.09982622916666628
        },
        {
          "name": "A1",
          "midi": 33,
          "time": 119.27064250000119,
          "velocity": 0.8661417322834646,
          "duration": 0.09982622916666628
        },
        {
          "name": "A1",
          "midi": 33,
          "time": 119.58314200000119,
          "velocity": 0.8661417322834646,
          "duration": 0.34722166666666965
        },
        {
          "name": "C2",
          "midi": 36,
          "time": 119.9998080000012,
          "velocity": 0.8661417322834646,
          "duration": 0.3081592291666624
        },
        {
          "name": "G1",
          "midi": 31,
          "time": 120.3123075000012,
          "velocity": 0.8661417322834646,
          "duration": 0.3081592291666624
        },
        {
          "name": "A1",
          "midi": 33,
          "time": 120.6248070000012,
          "velocity": 0.8661417322834646,
          "duration": 0.20399272916667144
        },
        {
          "name": "A1",
          "midi": 33,
          "time": 121.0414730000012,
          "velocity": 0.8661417322834646,
          "duration": 0.34722166666666965
        },
        {
          "name": "G1",
          "midi": 31,
          "time": 121.45813900000121,
          "velocity": 0.8661417322834646,
          "duration": 0.09982622916666628
        },
        {
          "name": "A1",
          "midi": 33,
          "time": 121.56230550000122,
          "velocity": 0.8661417322834646,
          "duration": 0.09982622916666628
        },
        {
          "name": "A1",
          "midi": 33,
          "time": 121.87480500000122,
          "velocity": 0.8661417322834646,
          "duration": 0.34722166666666965
        },
        {
          "name": "A1",
          "midi": 33,
          "time": 123.74980200000122,
          "velocity": 0.8661417322834646,
          "duration": 0.7291654999999935
        },
        {
          "name": "G1",
          "midi": 31,
          "time": 124.58313400000122,
          "velocity": 0.8661417322834646,
          "duration": 0.7291654999999935
        },
        {
          "name": "B1",
          "midi": 35,
          "time": 151.2497580000012,
          "velocity": 0.8661417322834646,
          "duration": 0.20399272916665723
        },
        {
          "name": "B1",
          "midi": 35,
          "time": 151.5622575000012,
          "velocity": 0.8661417322834646,
          "duration": 0.20399272916665723
        },
        {
          "name": "B1",
          "midi": 35,
          "time": 151.8747570000012,
          "velocity": 0.8661417322834646,
          "duration": 0.20399272916665723
        },
        {
          "name": "B1",
          "midi": 35,
          "time": 152.1872565000012,
          "velocity": 0.8661417322834646,
          "duration": 0.20399272916665723
        },
        {
          "name": "D2",
          "midi": 38,
          "time": 152.4997560000012,
          "velocity": 0.8661417322834646,
          "duration": 0.34722166666665544
        },
        {
          "name": "B1",
          "midi": 35,
          "time": 152.9164220000012,
          "velocity": 0.8661417322834646,
          "duration": 0.20399272916665723
        },
        {
          "name": "B1",
          "midi": 35,
          "time": 153.2289215000012,
          "velocity": 0.8661417322834646,
          "duration": 0.20399272916665723
        },
        {
          "name": "B1",
          "midi": 35,
          "time": 153.5414210000012,
          "velocity": 0.8661417322834646,
          "duration": 0.20399272916665723
        },
        {
          "name": "B1",
          "midi": 35,
          "time": 153.8539205000012,
          "velocity": 0.8661417322834646,
          "duration": 0.20399272916665723
        },
        {
          "name": "E2",
          "midi": 40,
          "time": 154.1664200000012,
          "velocity": 0.8661417322834646,
          "duration": 0.34722166666665544
        },
        {
          "name": "B1",
          "midi": 35,
          "time": 154.5830860000012,
          "velocity": 0.8661417322834646,
          "duration": 0.20399272916665723
        },
        {
          "name": "B1",
          "midi": 35,
          "time": 154.8955855000012,
          "velocity": 0.8661417322834646,
          "duration": 0.20399272916665723
        },
        {
          "name": "B1",
          "midi": 35,
          "time": 155.2080850000012,
          "velocity": 0.8661417322834646,
          "duration": 0.20399272916665723
        },
        {
          "name": "B1",
          "midi": 35,
          "time": 155.5205845000012,
          "velocity": 0.8661417322834646,
          "duration": 0.20399272916665723
        },
        {
          "name": "D2",
          "midi": 38,
          "time": 155.8330840000012,
          "velocity": 0.8661417322834646,
          "duration": 0.34722166666665544
        },
        {
          "name": "B2",
          "midi": 47,
          "time": 156.2497500000012,
          "velocity": 0.8661417322834646,
          "duration": 0.3081592291666766
        },
        {
          "name": "A2",
          "midi": 45,
          "time": 156.5622495000012,
          "velocity": 0.8661417322834646,
          "duration": 0.3081592291666766
        },
        {
          "name": "F#2",
          "midi": 42,
          "time": 156.8747490000012,
          "velocity": 0.8661417322834646,
          "duration": 0.20399272916665723
        },
        {
          "name": "F2",
          "midi": 41,
          "time": 157.08308200000118,
          "velocity": 0.8661417322834646,
          "duration": 0.20399272916665723
        },
        {
          "name": "E2",
          "midi": 40,
          "time": 157.29141500000117,
          "velocity": 0.8661417322834646,
          "duration": 0.20399272916665723
        },
        {
          "name": "D2",
          "midi": 38,
          "time": 157.49974800000115,
          "velocity": 0.8661417322834646,
          "duration": 0.20399272916665723
        },
        {
          "name": "B1",
          "midi": 35,
          "time": 157.70808100000113,
          "velocity": 0.8661417322834646,
          "duration": 0.20399272916665723
        },
        {
          "name": "B1",
          "midi": 35,
          "time": 158.02058050000113,
          "velocity": 0.8661417322834646,
          "duration": 0.20399272916665723
        },
        {
          "name": "B1",
          "midi": 35,
          "time": 158.33308000000113,
          "velocity": 0.8661417322834646,
          "duration": 0.20399272916665723
        },
        {
          "name": "B1",
          "midi": 35,
          "time": 158.64557950000113,
          "velocity": 0.8661417322834646,
          "duration": 0.20399272916665723
        },
        {
          "name": "D2",
          "midi": 38,
          "time": 158.95807900000113,
          "velocity": 0.8661417322834646,
          "duration": 0.34722166666665544
        },
        {
          "name": "B1",
          "midi": 35,
          "time": 159.37474500000113,
          "velocity": 0.8661417322834646,
          "duration": 0.20399272916665723
        },
        {
          "name": "B1",
          "midi": 35,
          "time": 159.68724450000113,
          "velocity": 0.8661417322834646,
          "duration": 0.20399272916665723
        },
        {
          "name": "B1",
          "midi": 35,
          "time": 159.99974400000113,
          "velocity": 0.8661417322834646,
          "duration": 0.20399272916665723
        },
        {
          "name": "B1",
          "midi": 35,
          "time": 160.31224350000113,
          "velocity": 0.8661417322834646,
          "duration": 0.20399272916665723
        },
        {
          "name": "E2",
          "midi": 40,
          "time": 160.62474300000113,
          "velocity": 0.8661417322834646,
          "duration": 0.34722166666665544
        },
        {
          "name": "B1",
          "midi": 35,
          "time": 161.04140900000112,
          "velocity": 0.8661417322834646,
          "duration": 0.20399272916665723
        },
        {
          "name": "B1",
          "midi": 35,
          "time": 161.35390850000113,
          "velocity": 0.8661417322834646,
          "duration": 0.20399272916665723
        },
        {
          "name": "B1",
          "midi": 35,
          "time": 161.66640800000113,
          "velocity": 0.8661417322834646,
          "duration": 0.20399272916665723
        },
        {
          "name": "B1",
          "midi": 35,
          "time": 161.97890750000113,
          "velocity": 0.8661417322834646,
          "duration": 0.20399272916665723
        },
        {
          "name": "D2",
          "midi": 38,
          "time": 162.29140700000113,
          "velocity": 0.8661417322834646,
          "duration": 0.34722166666665544
        },
        {
          "name": "B2",
          "midi": 47,
          "time": 162.70807300000112,
          "velocity": 0.8661417322834646,
          "duration": 0.3081592291666766
        },
        {
          "name": "A2",
          "midi": 45,
          "time": 163.02057250000112,
          "velocity": 0.8661417322834646,
          "duration": 0.3081592291666766
        },
        {
          "name": "F#2",
          "midi": 42,
          "time": 163.33307200000112,
          "velocity": 0.8661417322834646,
          "duration": 0.20399272916665723
        },
        {
          "name": "F2",
          "midi": 41,
          "time": 163.5414050000011,
          "velocity": 0.8661417322834646,
          "duration": 0.20399272916665723
        },
        {
          "name": "E2",
          "midi": 40,
          "time": 163.7497380000011,
          "velocity": 0.8661417322834646,
          "duration": 0.20399272916665723
        },
        {
          "name": "D2",
          "midi": 38,
          "time": 163.95807100000107,
          "velocity": 0.8661417322834646,
          "duration": 0.20399272916665723
        },
        {
          "name": "B1",
          "midi": 35,
          "time": 164.16640400000105,
          "velocity": 0.8661417322834646,
          "duration": 0.20399272916665723
        },
        {
          "name": "B1",
          "midi": 35,
          "time": 164.47890350000105,
          "velocity": 0.8661417322834646,
          "duration": 0.20399272916665723
        },
        {
          "name": "B1",
          "midi": 35,
          "time": 164.79140300000105,
          "velocity": 0.8661417322834646,
          "duration": 0.20399272916665723
        },
        {
          "name": "B1",
          "midi": 35,
          "time": 165.10390250000106,
          "velocity": 0.8661417322834646,
          "duration": 0.20399272916665723
        },
        {
          "name": "D2",
          "midi": 38,
          "time": 165.41640200000106,
          "velocity": 0.8661417322834646,
          "duration": 0.34722166666665544
        },
        {
          "name": "B1",
          "midi": 35,
          "time": 165.83306800000105,
          "velocity": 0.8661417322834646,
          "duration": 0.20399272916665723
        },
        {
          "name": "B1",
          "midi": 35,
          "time": 166.14556750000105,
          "velocity": 0.8661417322834646,
          "duration": 0.20399272916665723
        },
        {
          "name": "B1",
          "midi": 35,
          "time": 166.45806700000105,
          "velocity": 0.8661417322834646,
          "duration": 0.20399272916665723
        },
        {
          "name": "B1",
          "midi": 35,
          "time": 166.77056650000105,
          "velocity": 0.8661417322834646,
          "duration": 0.20399272916665723
        },
        {
          "name": "E2",
          "midi": 40,
          "time": 167.08306600000105,
          "velocity": 0.8661417322834646,
          "duration": 0.34722166666665544
        },
        {
          "name": "B1",
          "midi": 35,
          "time": 167.49973200000105,
          "velocity": 0.8661417322834646,
          "duration": 0.20399272916665723
        },
        {
          "name": "B1",
          "midi": 35,
          "time": 167.81223150000105,
          "velocity": 0.8661417322834646,
          "duration": 0.20399272916665723
        },
        {
          "name": "B1",
          "midi": 35,
          "time": 168.12473100000105,
          "velocity": 0.8661417322834646,
          "duration": 0.20399272916665723
        },
        {
          "name": "B1",
          "midi": 35,
          "time": 168.43723050000105,
          "velocity": 0.8661417322834646,
          "duration": 0.20399272916665723
        },
        {
          "name": "D2",
          "midi": 38,
          "time": 168.74973000000105,
          "velocity": 0.8661417322834646,
          "duration": 0.34722166666665544
        },
        {
          "name": "B2",
          "midi": 47,
          "time": 169.16639600000104,
          "velocity": 0.8661417322834646,
          "duration": 0.3081592291666766
        },
        {
          "name": "A2",
          "midi": 45,
          "time": 169.47889550000104,
          "velocity": 0.8661417322834646,
          "duration": 0.3081592291666766
        },
        {
          "name": "F#2",
          "midi": 42,
          "time": 169.79139500000105,
          "velocity": 0.8661417322834646,
          "duration": 0.20399272916665723
        },
        {
          "name": "F2",
          "midi": 41,
          "time": 169.99972800000103,
          "velocity": 0.8661417322834646,
          "duration": 0.20399272916665723
        },
        {
          "name": "E2",
          "midi": 40,
          "time": 170.208061000001,
          "velocity": 0.8661417322834646,
          "duration": 0.20399272916665723
        },
        {
          "name": "D2",
          "midi": 38,
          "time": 170.416394000001,
          "velocity": 0.8661417322834646,
          "duration": 0.20399272916665723
        },
        {
          "name": "B1",
          "midi": 35,
          "time": 170.62472700000097,
          "velocity": 0.8661417322834646,
          "duration": 0.20399272916665723
        },
        {
          "name": "B1",
          "midi": 35,
          "time": 170.93722650000097,
          "velocity": 0.8661417322834646,
          "duration": 0.20399272916665723
        },
        {
          "name": "B1",
          "midi": 35,
          "time": 171.24972600000098,
          "velocity": 0.8661417322834646,
          "duration": 0.20399272916665723
        },
        {
          "name": "B1",
          "midi": 35,
          "time": 171.56222550000098,
          "velocity": 0.8661417322834646,
          "duration": 0.20399272916665723
        },
        {
          "name": "D2",
          "midi": 38,
          "time": 171.87472500000098,
          "velocity": 0.8661417322834646,
          "duration": 0.34722166666665544
        },
        {
          "name": "B1",
          "midi": 35,
          "time": 172.29139100000097,
          "velocity": 0.8661417322834646,
          "duration": 0.20399272916665723
        },
        {
          "name": "B1",
          "midi": 35,
          "time": 172.60389050000097,
          "velocity": 0.8661417322834646,
          "duration": 0.20399272916665723
        },
        {
          "name": "B1",
          "midi": 35,
          "time": 172.91639000000097,
          "velocity": 0.8661417322834646,
          "duration": 0.20399272916665723
        },
        {
          "name": "B1",
          "midi": 35,
          "time": 173.22888950000097,
          "velocity": 0.8661417322834646,
          "duration": 0.20399272916665723
        },
        {
          "name": "E2",
          "midi": 40,
          "time": 173.54138900000098,
          "velocity": 0.8661417322834646,
          "duration": 0.34722166666665544
        },
        {
          "name": "B1",
          "midi": 35,
          "time": 173.95805500000097,
          "velocity": 0.8661417322834646,
          "duration": 0.20399272916665723
        },
        {
          "name": "B1",
          "midi": 35,
          "time": 174.27055450000097,
          "velocity": 0.8661417322834646,
          "duration": 0.20399272916665723
        },
        {
          "name": "B1",
          "midi": 35,
          "time": 174.58305400000097,
          "velocity": 0.8661417322834646,
          "duration": 0.20399272916665723
        },
        {
          "name": "B1",
          "midi": 35,
          "time": 174.89555350000097,
          "velocity": 0.8661417322834646,
          "duration": 0.20399272916665723
        },
        {
          "name": "D2",
          "midi": 38,
          "time": 175.20805300000097,
          "velocity": 0.8661417322834646,
          "duration": 0.34722166666665544
        },
        {
          "name": "B2",
          "midi": 47,
          "time": 175.62471900000097,
          "velocity": 0.8661417322834646,
          "duration": 0.3081592291666766
        },
        {
          "name": "A2",
          "midi": 45,
          "time": 175.93721850000097,
          "velocity": 0.8661417322834646,
          "duration": 0.3081592291666766
        },
        {
          "name": "F#2",
          "midi": 42,
          "time": 176.24971800000097,
          "velocity": 0.8661417322834646,
          "duration": 0.20399272916665723
        },
        {
          "name": "F2",
          "midi": 41,
          "time": 176.45805100000095,
          "velocity": 0.8661417322834646,
          "duration": 0.20399272916665723
        },
        {
          "name": "E2",
          "midi": 40,
          "time": 176.66638400000093,
          "velocity": 0.8661417322834646,
          "duration": 0.20399272916665723
        },
        {
          "name": "D2",
          "midi": 38,
          "time": 176.8747170000009,
          "velocity": 0.8661417322834646,
          "duration": 0.20399272916665723
        },
        {
          "name": "B1",
          "midi": 35,
          "time": 177.0830500000009,
          "velocity": 0.8661417322834646,
          "duration": 0.20399272916665723
        },
        {
          "name": "B1",
          "midi": 35,
          "time": 177.3955495000009,
          "velocity": 0.8661417322834646,
          "duration": 0.20399272916665723
        },
        {
          "name": "B1",
          "midi": 35,
          "time": 177.7080490000009,
          "velocity": 0.8661417322834646,
          "duration": 0.20399272916665723
        },
        {
          "name": "B1",
          "midi": 35,
          "time": 178.0205485000009,
          "velocity": 0.8661417322834646,
          "duration": 0.20399272916665723
        },
        {
          "name": "D2",
          "midi": 38,
          "time": 178.3330480000009,
          "velocity": 0.8661417322834646,
          "duration": 0.34722166666665544
        },
        {
          "name": "B1",
          "midi": 35,
          "time": 178.7497140000009,
          "velocity": 0.8661417322834646,
          "duration": 0.20399272916665723
        },
        {
          "name": "B1",
          "midi": 35,
          "time": 179.0622135000009,
          "velocity": 0.8661417322834646,
          "duration": 0.20399272916665723
        },
        {
          "name": "B1",
          "midi": 35,
          "time": 179.3747130000009,
          "velocity": 0.8661417322834646,
          "duration": 0.20399272916665723
        },
        {
          "name": "B1",
          "midi": 35,
          "time": 179.6872125000009,
          "velocity": 0.8661417322834646,
          "duration": 0.20399272916665723
        },
        {
          "name": "E2",
          "midi": 40,
          "time": 179.9997120000009,
          "velocity": 0.8661417322834646,
          "duration": 0.34722166666665544
        },
        {
          "name": "B1",
          "midi": 35,
          "time": 180.4163780000009,
          "velocity": 0.8661417322834646,
          "duration": 0.20399272916665723
        },
        {
          "name": "B1",
          "midi": 35,
          "time": 180.7288775000009,
          "velocity": 0.8661417322834646,
          "duration": 0.20399272916665723
        },
        {
          "name": "B1",
          "midi": 35,
          "time": 181.0413770000009,
          "velocity": 0.8661417322834646,
          "duration": 0.20399272916665723
        },
        {
          "name": "B1",
          "midi": 35,
          "time": 181.3538765000009,
          "velocity": 0.8661417322834646,
          "duration": 0.20399272916665723
        },
        {
          "name": "D2",
          "midi": 38,
          "time": 181.6663760000009,
          "velocity": 0.8661417322834646,
          "duration": 0.34722166666665544
        },
        {
          "name": "B2",
          "midi": 47,
          "time": 182.0830420000009,
          "velocity": 0.8661417322834646,
          "duration": 0.3081592291666766
        },
        {
          "name": "A2",
          "midi": 45,
          "time": 182.3955415000009,
          "velocity": 0.8661417322834646,
          "duration": 0.3081592291666766
        },
        {
          "name": "F#2",
          "midi": 42,
          "time": 182.7080410000009,
          "velocity": 0.8661417322834646,
          "duration": 0.20399272916665723
        },
        {
          "name": "F2",
          "midi": 41,
          "time": 182.91637400000087,
          "velocity": 0.8661417322834646,
          "duration": 0.20399272916665723
        },
        {
          "name": "E2",
          "midi": 40,
          "time": 183.12470700000085,
          "velocity": 0.8661417322834646,
          "duration": 0.20399272916665723
        },
        {
          "name": "D2",
          "midi": 38,
          "time": 183.33304000000084,
          "velocity": 0.8661417322834646,
          "duration": 0.20399272916665723
        },
        {
          "name": "B1",
          "midi": 35,
          "time": 183.54137300000082,
          "velocity": 0.8661417322834646,
          "duration": 0.20399272916665723
        },
        {
          "name": "B1",
          "midi": 35,
          "time": 183.85387250000082,
          "velocity": 0.8661417322834646,
          "duration": 0.20399272916665723
        },
        {
          "name": "B1",
          "midi": 35,
          "time": 184.16637200000082,
          "velocity": 0.8661417322834646,
          "duration": 0.20399272916665723
        },
        {
          "name": "B1",
          "midi": 35,
          "time": 184.47887150000082,
          "velocity": 0.8661417322834646,
          "duration": 0.20399272916665723
        },
        {
          "name": "D2",
          "midi": 38,
          "time": 184.79137100000082,
          "velocity": 0.8661417322834646,
          "duration": 0.34722166666665544
        },
        {
          "name": "B1",
          "midi": 35,
          "time": 185.20803700000081,
          "velocity": 0.8661417322834646,
          "duration": 0.20399272916665723
        },
        {
          "name": "B1",
          "midi": 35,
          "time": 185.52053650000082,
          "velocity": 0.8661417322834646,
          "duration": 0.20399272916665723
        },
        {
          "name": "B1",
          "midi": 35,
          "time": 185.83303600000082,
          "velocity": 0.8661417322834646,
          "duration": 0.20399272916665723
        },
        {
          "name": "B1",
          "midi": 35,
          "time": 186.14553550000082,
          "velocity": 0.8661417322834646,
          "duration": 0.20399272916665723
        },
        {
          "name": "E2",
          "midi": 40,
          "time": 186.45803500000082,
          "velocity": 0.8661417322834646,
          "duration": 0.34722166666665544
        },
        {
          "name": "B1",
          "midi": 35,
          "time": 186.8747010000008,
          "velocity": 0.8661417322834646,
          "duration": 0.20399272916665723
        },
        {
          "name": "B1",
          "midi": 35,
          "time": 187.1872005000008,
          "velocity": 0.8661417322834646,
          "duration": 0.20399272916665723
        },
        {
          "name": "B1",
          "midi": 35,
          "time": 187.49970000000081,
          "velocity": 0.8661417322834646,
          "duration": 0.20399272916665723
        },
        {
          "name": "B1",
          "midi": 35,
          "time": 187.81219950000082,
          "velocity": 0.8661417322834646,
          "duration": 0.20399272916665723
        },
        {
          "name": "D2",
          "midi": 38,
          "time": 188.12469900000082,
          "velocity": 0.8661417322834646,
          "duration": 0.34722166666665544
        },
        {
          "name": "B2",
          "midi": 47,
          "time": 188.5413650000008,
          "velocity": 0.8661417322834646,
          "duration": 0.3081592291666766
        },
        {
          "name": "A2",
          "midi": 45,
          "time": 188.8538645000008,
          "velocity": 0.8661417322834646,
          "duration": 0.3081592291666766
        },
        {
          "name": "F#2",
          "midi": 42,
          "time": 189.1663640000008,
          "velocity": 0.8661417322834646,
          "duration": 0.20399272916665723
        },
        {
          "name": "F2",
          "midi": 41,
          "time": 189.3746970000008,
          "velocity": 0.8661417322834646,
          "duration": 0.20399272916665723
        },
        {
          "name": "E2",
          "midi": 40,
          "time": 189.58303000000078,
          "velocity": 0.8661417322834646,
          "duration": 0.20399272916665723
        },
        {
          "name": "D2",
          "midi": 38,
          "time": 189.79136300000076,
          "velocity": 0.8661417322834646,
          "duration": 0.20399272916665723
        },
        {
          "name": "B1",
          "midi": 35,
          "time": 189.99969600000074,
          "velocity": 0.8661417322834646,
          "duration": 0.20399272916665723
        },
        {
          "name": "B1",
          "midi": 35,
          "time": 190.31219550000074,
          "velocity": 0.8661417322834646,
          "duration": 0.20399272916665723
        },
        {
          "name": "B1",
          "midi": 35,
          "time": 190.62469500000074,
          "velocity": 0.8661417322834646,
          "duration": 0.20399272916665723
        },
        {
          "name": "B1",
          "midi": 35,
          "time": 190.93719450000074,
          "velocity": 0.8661417322834646,
          "duration": 0.20399272916665723
        },
        {
          "name": "D2",
          "midi": 38,
          "time": 191.24969400000074,
          "velocity": 0.8661417322834646,
          "duration": 0.34722166666665544
        },
        {
          "name": "B1",
          "midi": 35,
          "time": 191.66636000000074,
          "velocity": 0.8661417322834646,
          "duration": 0.20399272916665723
        },
        {
          "name": "B1",
          "midi": 35,
          "time": 191.97885950000074,
          "velocity": 0.8661417322834646,
          "duration": 0.20399272916665723
        },
        {
          "name": "B1",
          "midi": 35,
          "time": 192.29135900000074,
          "velocity": 0.8661417322834646,
          "duration": 0.20399272916665723
        },
        {
          "name": "B1",
          "midi": 35,
          "time": 192.60385850000074,
          "velocity": 0.8661417322834646,
          "duration": 0.20399272916665723
        },
        {
          "name": "E2",
          "midi": 40,
          "time": 192.91635800000074,
          "velocity": 0.8661417322834646,
          "duration": 0.34722166666665544
        },
        {
          "name": "B1",
          "midi": 35,
          "time": 193.33302400000073,
          "velocity": 0.8661417322834646,
          "duration": 0.20399272916665723
        },
        {
          "name": "B1",
          "midi": 35,
          "time": 193.64552350000073,
          "velocity": 0.8661417322834646,
          "duration": 0.20399272916665723
        },
        {
          "name": "B1",
          "midi": 35,
          "time": 193.95802300000074,
          "velocity": 0.8661417322834646,
          "duration": 0.20399272916665723
        },
        {
          "name": "B1",
          "midi": 35,
          "time": 194.27052250000074,
          "velocity": 0.8661417322834646,
          "duration": 0.20399272916665723
        },
        {
          "name": "D2",
          "midi": 38,
          "time": 194.58302200000074,
          "velocity": 0.8661417322834646,
          "duration": 0.34722166666665544
        },
        {
          "name": "B2",
          "midi": 47,
          "time": 194.99968800000073,
          "velocity": 0.8661417322834646,
          "duration": 0.3081592291666766
        },
        {
          "name": "A2",
          "midi": 45,
          "time": 195.31218750000073,
          "velocity": 0.8661417322834646,
          "duration": 0.3081592291666766
        },
        {
          "name": "F#2",
          "midi": 42,
          "time": 195.62468700000073,
          "velocity": 0.8661417322834646,
          "duration": 0.20399272916665723
        },
        {
          "name": "F2",
          "midi": 41,
          "time": 195.83302000000072,
          "velocity": 0.8661417322834646,
          "duration": 0.20399272916665723
        },
        {
          "name": "E2",
          "midi": 40,
          "time": 196.0413530000007,
          "velocity": 0.8661417322834646,
          "duration": 0.20399272916665723
        },
        {
          "name": "D2",
          "midi": 38,
          "time": 196.24968600000068,
          "velocity": 0.8661417322834646,
          "duration": 0.20399272916665723
        },
        {
          "name": "B1",
          "midi": 35,
          "time": 196.45801900000066,
          "velocity": 0.8661417322834646,
          "duration": 0.20399272916665723
        },
        {
          "name": "B1",
          "midi": 35,
          "time": 196.77051850000066,
          "velocity": 0.8661417322834646,
          "duration": 0.20399272916665723
        },
        {
          "name": "B1",
          "midi": 35,
          "time": 197.08301800000066,
          "velocity": 0.8661417322834646,
          "duration": 0.20399272916665723
        },
        {
          "name": "B1",
          "midi": 35,
          "time": 197.39551750000066,
          "velocity": 0.8661417322834646,
          "duration": 0.20399272916665723
        },
        {
          "name": "D2",
          "midi": 38,
          "time": 197.70801700000067,
          "velocity": 0.8661417322834646,
          "duration": 0.34722166666665544
        },
        {
          "name": "B1",
          "midi": 35,
          "time": 198.12468300000066,
          "velocity": 0.8661417322834646,
          "duration": 0.20399272916665723
        },
        {
          "name": "B1",
          "midi": 35,
          "time": 198.43718250000066,
          "velocity": 0.8661417322834646,
          "duration": 0.20399272916665723
        },
        {
          "name": "B1",
          "midi": 35,
          "time": 198.74968200000066,
          "velocity": 0.8661417322834646,
          "duration": 0.20399272916665723
        },
        {
          "name": "B1",
          "midi": 35,
          "time": 199.06218150000066,
          "velocity": 0.8661417322834646,
          "duration": 0.20399272916665723
        },
        {
          "name": "E2",
          "midi": 40,
          "time": 199.37468100000066,
          "velocity": 0.8661417322834646,
          "duration": 0.34722166666665544
        },
        {
          "name": "B1",
          "midi": 35,
          "time": 199.79134700000066,
          "velocity": 0.8661417322834646,
          "duration": 0.20399272916665723
        },
        {
          "name": "B1",
          "midi": 35,
          "time": 200.10384650000066,
          "velocity": 0.8661417322834646,
          "duration": 0.20399272916665723
        },
        {
          "name": "B1",
          "midi": 35,
          "time": 200.41634600000066,
          "velocity": 0.8661417322834646,
          "duration": 0.20399272916665723
        },
        {
          "name": "B1",
          "midi": 35,
          "time": 200.72884550000066,
          "velocity": 0.8661417322834646,
          "duration": 0.20399272916665723
        },
        {
          "name": "D2",
          "midi": 38,
          "time": 201.04134500000066,
          "velocity": 0.8661417322834646,
          "duration": 0.34722166666665544
        },
        {
          "name": "B2",
          "midi": 47,
          "time": 201.45801100000065,
          "velocity": 0.8661417322834646,
          "duration": 0.3081592291666766
        },
        {
          "name": "A2",
          "midi": 45,
          "time": 201.77051050000065,
          "velocity": 0.8661417322834646,
          "duration": 0.3081592291666766
        },
        {
          "name": "F#2",
          "midi": 42,
          "time": 202.08301000000066,
          "velocity": 0.8661417322834646,
          "duration": 0.20399272916665723
        },
        {
          "name": "F2",
          "midi": 41,
          "time": 202.29134300000064,
          "velocity": 0.8661417322834646,
          "duration": 0.20399272916665723
        },
        {
          "name": "E2",
          "midi": 40,
          "time": 202.49967600000062,
          "velocity": 0.8661417322834646,
          "duration": 0.20399272916665723
        },
        {
          "name": "D2",
          "midi": 38,
          "time": 202.7080090000006,
          "velocity": 0.8661417322834646,
          "duration": 0.20399272916665723
        },
        {
          "name": "A1",
          "midi": 33,
          "time": 202.91634200000058,
          "velocity": 0.8661417322834646,
          "duration": 0.20399272916665723
        },
        {
          "name": "A1",
          "midi": 33,
          "time": 203.22884150000058,
          "velocity": 0.8661417322834646,
          "duration": 0.20399272916665723
        },
        {
          "name": "A1",
          "midi": 33,
          "time": 203.54134100000059,
          "velocity": 0.8661417322834646,
          "duration": 0.20399272916665723
        },
        {
          "name": "A1",
          "midi": 33,
          "time": 203.8538405000006,
          "velocity": 0.8661417322834646,
          "duration": 0.20399272916665723
        },
        {
          "name": "C2",
          "midi": 36,
          "time": 204.1663400000006,
          "velocity": 0.8661417322834646,
          "duration": 0.34722166666665544
        },
        {
          "name": "A1",
          "midi": 33,
          "time": 204.58300600000058,
          "velocity": 0.8661417322834646,
          "duration": 0.20399272916665723
        },
        {
          "name": "A1",
          "midi": 33,
          "time": 204.89550550000058,
          "velocity": 0.8661417322834646,
          "duration": 0.20399272916665723
        },
        {
          "name": "A1",
          "midi": 33,
          "time": 205.20800500000058,
          "velocity": 0.8661417322834646,
          "duration": 0.20399272916665723
        },
        {
          "name": "A1",
          "midi": 33,
          "time": 205.52050450000058,
          "velocity": 0.8661417322834646,
          "duration": 0.20399272916665723
        },
        {
          "name": "D2",
          "midi": 38,
          "time": 205.83300400000059,
          "velocity": 0.8661417322834646,
          "duration": 0.34722166666665544
        },
        {
          "name": "A1",
          "midi": 33,
          "time": 206.24967000000058,
          "velocity": 0.8661417322834646,
          "duration": 0.20399272916665723
        },
        {
          "name": "A1",
          "midi": 33,
          "time": 206.56216950000058,
          "velocity": 0.8661417322834646,
          "duration": 0.20399272916665723
        },
        {
          "name": "A1",
          "midi": 33,
          "time": 206.87466900000058,
          "velocity": 0.8661417322834646,
          "duration": 0.20399272916665723
        },
        {
          "name": "A1",
          "midi": 33,
          "time": 207.18716850000058,
          "velocity": 0.8661417322834646,
          "duration": 0.20399272916665723
        },
        {
          "name": "C2",
          "midi": 36,
          "time": 207.49966800000058,
          "velocity": 0.8661417322834646,
          "duration": 0.34722166666665544
        },
        {
          "name": "A2",
          "midi": 45,
          "time": 207.91633400000057,
          "velocity": 0.8661417322834646,
          "duration": 0.3081592291666766
        },
        {
          "name": "G2",
          "midi": 43,
          "time": 208.22883350000058,
          "velocity": 0.8661417322834646,
          "duration": 0.3081592291666766
        },
        {
          "name": "E2",
          "midi": 40,
          "time": 208.54133300000058,
          "velocity": 0.8661417322834646,
          "duration": 0.20399272916665723
        },
        {
          "name": "E2",
          "midi": 40,
          "time": 208.74966600000056,
          "velocity": 0.8661417322834646,
          "duration": 0.20399272916665723
        },
        {
          "name": "D2",
          "midi": 38,
          "time": 208.95799900000054,
          "velocity": 0.8661417322834646,
          "duration": 0.20399272916665723
        },
        {
          "name": "C2",
          "midi": 36,
          "time": 209.16633200000052,
          "velocity": 0.8661417322834646,
          "duration": 0.20399272916665723
        },
        {
          "name": "A1",
          "midi": 33,
          "time": 209.3746650000005,
          "velocity": 0.8661417322834646,
          "duration": 0.20399272916665723
        },
        {
          "name": "A1",
          "midi": 33,
          "time": 209.6871645000005,
          "velocity": 0.8661417322834646,
          "duration": 0.20399272916665723
        },
        {
          "name": "A1",
          "midi": 33,
          "time": 209.9996640000005,
          "velocity": 0.8661417322834646,
          "duration": 0.20399272916665723
        },
        {
          "name": "A1",
          "midi": 33,
          "time": 210.3121635000005,
          "velocity": 0.8661417322834646,
          "duration": 0.20399272916665723
        },
        {
          "name": "C2",
          "midi": 36,
          "time": 210.6246630000005,
          "velocity": 0.8661417322834646,
          "duration": 0.34722166666665544
        },
        {
          "name": "A1",
          "midi": 33,
          "time": 211.0413290000005,
          "velocity": 0.8661417322834646,
          "duration": 0.20399272916665723
        },
        {
          "name": "A1",
          "midi": 33,
          "time": 211.3538285000005,
          "velocity": 0.8661417322834646,
          "duration": 0.20399272916665723
        },
        {
          "name": "A1",
          "midi": 33,
          "time": 211.6663280000005,
          "velocity": 0.8661417322834646,
          "duration": 0.20399272916665723
        },
        {
          "name": "A1",
          "midi": 33,
          "time": 211.9788275000005,
          "velocity": 0.8661417322834646,
          "duration": 0.20399272916665723
        },
        {
          "name": "D2",
          "midi": 38,
          "time": 212.2913270000005,
          "velocity": 0.8661417322834646,
          "duration": 0.34722166666665544
        },
        {
          "name": "A1",
          "midi": 33,
          "time": 212.7079930000005,
          "velocity": 0.8661417322834646,
          "duration": 0.20399272916665723
        },
        {
          "name": "A1",
          "midi": 33,
          "time": 213.0204925000005,
          "velocity": 0.8661417322834646,
          "duration": 0.20399272916665723
        },
        {
          "name": "A1",
          "midi": 33,
          "time": 213.3329920000005,
          "velocity": 0.8661417322834646,
          "duration": 0.20399272916665723
        },
        {
          "name": "A1",
          "midi": 33,
          "time": 213.6454915000005,
          "velocity": 0.8661417322834646,
          "duration": 0.20399272916665723
        },
        {
          "name": "C2",
          "midi": 36,
          "time": 213.9579910000005,
          "velocity": 0.8661417322834646,
          "duration": 0.34722166666665544
        },
        {
          "name": "A2",
          "midi": 45,
          "time": 214.3746570000005,
          "velocity": 0.8661417322834646,
          "duration": 0.3081592291666766
        },
        {
          "name": "G2",
          "midi": 43,
          "time": 214.6871565000005,
          "velocity": 0.8661417322834646,
          "duration": 0.3081592291666766
        },
        {
          "name": "E2",
          "midi": 40,
          "time": 214.9996560000005,
          "velocity": 0.8661417322834646,
          "duration": 0.20399272916665723
        },
        {
          "name": "E2",
          "midi": 40,
          "time": 215.20798900000048,
          "velocity": 0.8661417322834646,
          "duration": 0.20399272916665723
        },
        {
          "name": "D2",
          "midi": 38,
          "time": 215.41632200000046,
          "velocity": 0.8661417322834646,
          "duration": 0.20399272916665723
        },
        {
          "name": "C2",
          "midi": 36,
          "time": 215.62465500000044,
          "velocity": 0.8661417322834646,
          "duration": 0.20399272916665723
        },
        {
          "name": "A2",
          "midi": 45,
          "time": 215.83298800000043,
          "velocity": 0.8661417322834646,
          "duration": 0.3081592291666766
        },
        {
          "name": "G2",
          "midi": 43,
          "time": 216.14548750000043,
          "velocity": 0.8661417322834646,
          "duration": 0.3081592291666766
        },
        {
          "name": "E2",
          "midi": 40,
          "time": 216.45798700000043,
          "velocity": 0.8661417322834646,
          "duration": 0.20399272916665723
        },
        {
          "name": "E2",
          "midi": 40,
          "time": 216.6663200000004,
          "velocity": 0.8661417322834646,
          "duration": 0.20399272916665723
        },
        {
          "name": "D2",
          "midi": 38,
          "time": 216.8746530000004,
          "velocity": 0.8661417322834646,
          "duration": 0.20399272916665723
        },
        {
          "name": "C2",
          "midi": 36,
          "time": 217.08298600000037,
          "velocity": 0.8661417322834646,
          "duration": 0.20399272916665723
        },
        {
          "name": "A2",
          "midi": 45,
          "time": 217.29131900000036,
          "velocity": 0.8661417322834646,
          "duration": 0.3081592291666766
        },
        {
          "name": "G2",
          "midi": 43,
          "time": 217.60381850000036,
          "velocity": 0.8661417322834646,
          "duration": 0.3081592291666766
        },
        {
          "name": "E2",
          "midi": 40,
          "time": 217.91631800000036,
          "velocity": 0.8661417322834646,
          "duration": 0.20399272916665723
        },
        {
          "name": "E2",
          "midi": 40,
          "time": 218.12465100000034,
          "velocity": 0.8661417322834646,
          "duration": 0.20399272916665723
        },
        {
          "name": "D2",
          "midi": 38,
          "time": 218.33298400000032,
          "velocity": 0.8661417322834646,
          "duration": 0.20399272916665723
        },
        {
          "name": "C2",
          "midi": 36,
          "time": 218.5413170000003,
          "velocity": 0.8661417322834646,
          "duration": 0.20399272916665723
        },
        {
          "name": "A1",
          "midi": 33,
          "time": 218.7496500000003,
          "velocity": 0.8661417322834646,
          "duration": 0.09982622916666628
        },
        {
          "name": "A1",
          "midi": 33,
          "time": 218.85381650000028,
          "velocity": 0.8661417322834646,
          "duration": 0.09982622916666628
        },
        {
          "name": "A1",
          "midi": 33,
          "time": 218.95798300000027,
          "velocity": 0.8661417322834646,
          "duration": 0.09982622916666628
        },
        {
          "name": "A1",
          "midi": 33,
          "time": 219.06214950000026,
          "velocity": 0.8661417322834646,
          "duration": 0.09982622916666628
        },
        {
          "name": "A1",
          "midi": 33,
          "time": 219.16631600000025,
          "velocity": 0.8661417322834646,
          "duration": 0.09982622916666628
        },
        {
          "name": "A1",
          "midi": 33,
          "time": 219.27048250000024,
          "velocity": 0.8661417322834646,
          "duration": 0.09982622916666628
        },
        {
          "name": "A1",
          "midi": 33,
          "time": 219.37464900000023,
          "velocity": 0.8661417322834646,
          "duration": 0.09982622916666628
        },
        {
          "name": "A1",
          "midi": 33,
          "time": 219.47881550000022,
          "velocity": 0.8661417322834646,
          "duration": 0.09982622916666628
        },
        {
          "name": "A1",
          "midi": 33,
          "time": 219.58298200000021,
          "velocity": 0.8661417322834646,
          "duration": 0.09982622916666628
        },
        {
          "name": "A1",
          "midi": 33,
          "time": 219.6871485000002,
          "velocity": 0.8661417322834646,
          "duration": 0.09982622916666628
        },
        {
          "name": "A1",
          "midi": 33,
          "time": 219.7913150000002,
          "velocity": 0.8661417322834646,
          "duration": 0.09982622916666628
        },
        {
          "name": "A1",
          "midi": 33,
          "time": 219.8954815000002,
          "velocity": 0.8661417322834646,
          "duration": 0.09982622916666628
        },
        {
          "name": "A1",
          "midi": 33,
          "time": 219.99964800000018,
          "velocity": 0.8661417322834646,
          "duration": 0.09982622916666628
        },
        {
          "name": "A1",
          "midi": 33,
          "time": 220.10381450000017,
          "velocity": 0.8661417322834646,
          "duration": 0.09982622916666628
        },
        {
          "name": "A1",
          "midi": 33,
          "time": 220.20798100000016,
          "velocity": 0.8661417322834646,
          "duration": 0.09982622916666628
        },
        {
          "name": "A1",
          "midi": 33,
          "time": 220.31214750000015,
          "velocity": 0.8661417322834646,
          "duration": 0.09982622916666628
        },
        {
          "name": "A1",
          "midi": 33,
          "time": 220.41631400000014,
          "velocity": 0.8661417322834646,
          "duration": 0.09982622916666628
        },
        {
          "name": "A1",
          "midi": 33,
          "time": 220.52048050000013,
          "velocity": 0.8661417322834646,
          "duration": 0.09982622916666628
        },
        {
          "name": "A1",
          "midi": 33,
          "time": 220.62464700000012,
          "velocity": 0.8661417322834646,
          "duration": 0.09982622916666628
        },
        {
          "name": "A1",
          "midi": 33,
          "time": 220.72881350000011,
          "velocity": 0.8661417322834646,
          "duration": 0.09982622916666628
        },
        {
          "name": "A1",
          "midi": 33,
          "time": 220.8329800000001,
          "velocity": 0.8661417322834646,
          "duration": 0.09982622916666628
        },
        {
          "name": "A1",
          "midi": 33,
          "time": 220.9371465000001,
          "velocity": 0.8661417322834646,
          "duration": 0.09982622916666628
        },
        {
          "name": "A1",
          "midi": 33,
          "time": 221.0413130000001,
          "velocity": 0.8661417322834646,
          "duration": 0.09982622916666628
        },
        {
          "name": "A1",
          "midi": 33,
          "time": 221.14547950000008,
          "velocity": 0.8661417322834646,
          "duration": 0.09982622916666628
        },
        {
          "name": "A1",
          "midi": 33,
          "time": 221.24964600000007,
          "velocity": 0.8661417322834646,
          "duration": 0.09982622916666628
        },
        {
          "name": "A1",
          "midi": 33,
          "time": 221.35381250000006,
          "velocity": 0.8661417322834646,
          "duration": 0.09982622916666628
        },
        {
          "name": "A1",
          "midi": 33,
          "time": 221.45797900000005,
          "velocity": 0.8661417322834646,
          "duration": 0.09982622916666628
        },
        {
          "name": "A1",
          "midi": 33,
          "time": 221.56214550000004,
          "velocity": 0.8661417322834646,
          "duration": 0.09982622916666628
        },
        {
          "name": "A1",
          "midi": 33,
          "time": 221.66631200000003,
          "velocity": 0.8661417322834646,
          "duration": 0.09982622916666628
        },
        {
          "name": "A1",
          "midi": 33,
          "time": 221.77047850000002,
          "velocity": 0.8661417322834646,
          "duration": 0.09982622916666628
        },
        {
          "name": "A1",
          "midi": 33,
          "time": 221.87464500000002,
          "velocity": 0.8661417322834646,
          "duration": 0.09982622916666628
        },
        {
          "name": "A1",
          "midi": 33,
          "time": 221.9788115,
          "velocity": 0.8661417322834646,
          "duration": 0.09982622916666628
        },
        {
          "name": "A1",
          "midi": 33,
          "time": 222.082978,
          "velocity": 0.8661417322834646,
          "duration": 0.09982622916666628
        },
        {
          "name": "A1",
          "midi": 33,
          "time": 222.1871445,
          "velocity": 0.8661417322834646,
          "duration": 0.09982622916666628
        },
        {
          "name": "A1",
          "midi": 33,
          "time": 222.29131099999998,
          "velocity": 0.8661417322834646,
          "duration": 0.09982622916666628
        },
        {
          "name": "A1",
          "midi": 33,
          "time": 222.39547749999997,
          "velocity": 0.8661417322834646,
          "duration": 0.09982622916666628
        },
        {
          "name": "A1",
          "midi": 33,
          "time": 222.49964399999996,
          "velocity": 0.8661417322834646,
          "duration": 0.09982622916666628
        },
        {
          "name": "A1",
          "midi": 33,
          "time": 222.60381049999995,
          "velocity": 0.8661417322834646,
          "duration": 0.09982622916666628
        },
        {
          "name": "A1",
          "midi": 33,
          "time": 222.70797699999994,
          "velocity": 0.8661417322834646,
          "duration": 0.09982622916666628
        },
        {
          "name": "A1",
          "midi": 33,
          "time": 222.81214349999993,
          "velocity": 0.8661417322834646,
          "duration": 0.09982622916666628
        },
        {
          "name": "A1",
          "midi": 33,
          "time": 222.91630999999992,
          "velocity": 0.8661417322834646,
          "duration": 0.09982622916666628
        },
        {
          "name": "A1",
          "midi": 33,
          "time": 223.02047649999992,
          "velocity": 0.8661417322834646,
          "duration": 0.09982622916666628
        },
        {
          "name": "A1",
          "midi": 33,
          "time": 223.1246429999999,
          "velocity": 0.8661417322834646,
          "duration": 0.09982622916666628
        },
        {
          "name": "A1",
          "midi": 33,
          "time": 223.2288094999999,
          "velocity": 0.8661417322834646,
          "duration": 0.09982622916666628
        },
        {
          "name": "A1",
          "midi": 33,
          "time": 223.3329759999999,
          "velocity": 0.8661417322834646,
          "duration": 0.09982622916666628
        },
        {
          "name": "A1",
          "midi": 33,
          "time": 223.43714249999988,
          "velocity": 0.8661417322834646,
          "duration": 0.09982622916666628
        },
        {
          "name": "A1",
          "midi": 33,
          "time": 223.54130899999987,
          "velocity": 0.8661417322834646,
          "duration": 0.09982622916666628
        },
        {
          "name": "A1",
          "midi": 33,
          "time": 223.64547549999986,
          "velocity": 0.8661417322834646,
          "duration": 0.09982622916666628
        },
        {
          "name": "A1",
          "midi": 33,
          "time": 223.74964199999985,
          "velocity": 0.8661417322834646,
          "duration": 0.09982622916666628
        },
        {
          "name": "A1",
          "midi": 33,
          "time": 223.85380849999984,
          "velocity": 0.8661417322834646,
          "duration": 0.09982622916666628
        },
        {
          "name": "A1",
          "midi": 33,
          "time": 223.95797499999983,
          "velocity": 0.8661417322834646,
          "duration": 0.09982622916666628
        },
        {
          "name": "A1",
          "midi": 33,
          "time": 224.06214149999983,
          "velocity": 0.8661417322834646,
          "duration": 0.09982622916666628
        },
        {
          "name": "A1",
          "midi": 33,
          "time": 224.16630799999982,
          "velocity": 0.8661417322834646,
          "duration": 0.09982622916666628
        },
        {
          "name": "A1",
          "midi": 33,
          "time": 224.2704744999998,
          "velocity": 0.8661417322834646,
          "duration": 0.09982622916666628
        },
        {
          "name": "A1",
          "midi": 33,
          "time": 224.3746409999998,
          "velocity": 0.8661417322834646,
          "duration": 0.09982622916666628
        },
        {
          "name": "A1",
          "midi": 33,
          "time": 224.4788074999998,
          "velocity": 0.8661417322834646,
          "duration": 0.09982622916666628
        },
        {
          "name": "A1",
          "midi": 33,
          "time": 224.58297399999978,
          "velocity": 0.8661417322834646,
          "duration": 0.09982622916666628
        },
        {
          "name": "A1",
          "midi": 33,
          "time": 224.68714049999977,
          "velocity": 0.8661417322834646,
          "duration": 0.09982622916666628
        },
        {
          "name": "A1",
          "midi": 33,
          "time": 224.79130699999976,
          "velocity": 0.8661417322834646,
          "duration": 0.09982622916666628
        },
        {
          "name": "A1",
          "midi": 33,
          "time": 224.89547349999975,
          "velocity": 0.8661417322834646,
          "duration": 0.09982622916666628
        },
        {
          "name": "A1",
          "midi": 33,
          "time": 224.99963999999974,
          "velocity": 0.8661417322834646,
          "duration": 0.09982622916666628
        },
        {
          "name": "A1",
          "midi": 33,
          "time": 225.10380649999973,
          "velocity": 0.8661417322834646,
          "duration": 0.09982622916666628
        },
        {
          "name": "A1",
          "midi": 33,
          "time": 225.20797299999973,
          "velocity": 0.8661417322834646,
          "duration": 0.09982622916666628
        },
        {
          "name": "A1",
          "midi": 33,
          "time": 225.31213949999972,
          "velocity": 0.8661417322834646,
          "duration": 0.09982622916666628
        },
        {
          "name": "A1",
          "midi": 33,
          "time": 225.4163059999997,
          "velocity": 0.8661417322834646,
          "duration": 0.34722166666665544
        },
        {
          "name": "A1",
          "midi": 33,
          "time": 225.8329719999997,
          "velocity": 0.8661417322834646,
          "duration": 0.34722166666665544
        }
      ],
      "controlChanges": {
        "7": [
          {
            "number": 7,
            "time": 0,
            "value": 1
          }
        ],
        "10": [
          {
            "number": 10,
            "time": 0,
            "value": 0.5039370078740157
          }
        ]
      },
      "id": 5,
      "name": "Bass",
      "instrumentNumber": 33,
      "instrument": "electric bass (finger)",
      "instrumentFamily": "bass",
      "channelNumber": 4,
      "isPercussion": false
    },
    {
      "startTime": 0,
      "duration": 226.18019366666266,
      "length": 1844,
      "notes": [
        {
          "name": "C2",
          "midi": 36,
          "time": 0,
          "velocity": 0.8661417322834646,
          "duration": 0.09982622916666667
        },
        {
          "name": "A#2",
          "midi": 46,
          "time": 0,
          "velocity": 0.8661417322834646,
          "duration": 0.09982622916666667
        },
        {
          "name": "C2",
          "midi": 36,
          "time": 0.1041665,
          "velocity": 0.8661417322834646,
          "duration": 0.09982622916666667
        },
        {
          "name": "A#2",
          "midi": 46,
          "time": 0.1041665,
          "velocity": 0.8661417322834646,
          "duration": 0.09982622916666667
        },
        {
          "name": "C2",
          "midi": 36,
          "time": 0.208333,
          "velocity": 0.8661417322834646,
          "duration": 0.09982622916666667
        },
        {
          "name": "A#2",
          "midi": 46,
          "time": 0.208333,
          "velocity": 0.8661417322834646,
          "duration": 0.09982622916666667
        },
        {
          "name": "C2",
          "midi": 36,
          "time": 0.3124995,
          "velocity": 0.8661417322834646,
          "duration": 0.09982622916666667
        },
        {
          "name": "A#2",
          "midi": 46,
          "time": 0.3124995,
          "velocity": 0.8661417322834646,
          "duration": 0.09982622916666667
        },
        {
          "name": "C2",
          "midi": 36,
          "time": 0.416666,
          "velocity": 0.8661417322834646,
          "duration": 0.09982622916666672
        },
        {
          "name": "A#2",
          "midi": 46,
          "time": 0.416666,
          "velocity": 0.8661417322834646,
          "duration": 0.09982622916666672
        },
        {
          "name": "C2",
          "midi": 36,
          "time": 0.5208325,
          "velocity": 0.8661417322834646,
          "duration": 0.09982622916666672
        },
        {
          "name": "A#2",
          "midi": 46,
          "time": 0.5208325,
          "velocity": 0.8661417322834646,
          "duration": 0.09982622916666672
        },
        {
          "name": "C2",
          "midi": 36,
          "time": 0.6249990000000001,
          "velocity": 0.8661417322834646,
          "duration": 0.09982622916666672
        },
        {
          "name": "A#2",
          "midi": 46,
          "time": 0.6249990000000001,
          "velocity": 0.8661417322834646,
          "duration": 0.09982622916666672
        },
        {
          "name": "C2",
          "midi": 36,
          "time": 0.7291655000000001,
          "velocity": 0.8661417322834646,
          "duration": 0.09982622916666672
        },
        {
          "name": "A#2",
          "midi": 46,
          "time": 0.7291655000000001,
          "velocity": 0.8661417322834646,
          "duration": 0.09982622916666672
        },
        {
          "name": "C2",
          "midi": 36,
          "time": 0.8333320000000002,
          "velocity": 0.8661417322834646,
          "duration": 0.09982622916666672
        },
        {
          "name": "A#2",
          "midi": 46,
          "time": 0.8333320000000002,
          "velocity": 0.8661417322834646,
          "duration": 0.09982622916666672
        },
        {
          "name": "C2",
          "midi": 36,
          "time": 0.9374985000000002,
          "velocity": 0.8661417322834646,
          "duration": 0.09982622916666672
        },
        {
          "name": "A#2",
          "midi": 46,
          "time": 0.9374985000000002,
          "velocity": 0.8661417322834646,
          "duration": 0.09982622916666672
        },
        {
          "name": "C2",
          "midi": 36,
          "time": 1.0416650000000003,
          "velocity": 0.8661417322834646,
          "duration": 0.09982622916666672
        },
        {
          "name": "A#2",
          "midi": 46,
          "time": 1.0416650000000003,
          "velocity": 0.8661417322834646,
          "duration": 0.09982622916666672
        },
        {
          "name": "C2",
          "midi": 36,
          "time": 1.1458315000000003,
          "velocity": 0.8661417322834646,
          "duration": 0.09982622916666672
        },
        {
          "name": "A#2",
          "midi": 46,
          "time": 1.1458315000000003,
          "velocity": 0.8661417322834646,
          "duration": 0.09982622916666672
        },
        {
          "name": "C2",
          "midi": 36,
          "time": 1.2499980000000004,
          "velocity": 0.8661417322834646,
          "duration": 0.09982622916666672
        },
        {
          "name": "A#2",
          "midi": 46,
          "time": 1.2499980000000004,
          "velocity": 0.8661417322834646,
          "duration": 0.09982622916666672
        },
        {
          "name": "C2",
          "midi": 36,
          "time": 1.3541645000000004,
          "velocity": 0.8661417322834646,
          "duration": 0.09982622916666672
        },
        {
          "name": "A#2",
          "midi": 46,
          "time": 1.3541645000000004,
          "velocity": 0.8661417322834646,
          "duration": 0.09982622916666672
        },
        {
          "name": "C2",
          "midi": 36,
          "time": 1.4583310000000005,
          "velocity": 0.8661417322834646,
          "duration": 0.09982622916666672
        },
        {
          "name": "A#2",
          "midi": 46,
          "time": 1.4583310000000005,
          "velocity": 0.8661417322834646,
          "duration": 0.09982622916666672
        },
        {
          "name": "C2",
          "midi": 36,
          "time": 1.5624975000000005,
          "velocity": 0.8661417322834646,
          "duration": 0.09982622916666672
        },
        {
          "name": "A#2",
          "midi": 46,
          "time": 1.5624975000000005,
          "velocity": 0.8661417322834646,
          "duration": 0.09982622916666672
        },
        {
          "name": "C2",
          "midi": 36,
          "time": 1.6666640000000006,
          "velocity": 0.8661417322834646,
          "duration": 0.09982622916666672
        },
        {
          "name": "A#2",
          "midi": 46,
          "time": 1.6666640000000006,
          "velocity": 0.8661417322834646,
          "duration": 0.09982622916666672
        },
        {
          "name": "C2",
          "midi": 36,
          "time": 1.7708305000000006,
          "velocity": 0.8661417322834646,
          "duration": 0.09982622916666672
        },
        {
          "name": "A#2",
          "midi": 46,
          "time": 1.7708305000000006,
          "velocity": 0.8661417322834646,
          "duration": 0.09982622916666672
        },
        {
          "name": "C2",
          "midi": 36,
          "time": 1.8749970000000007,
          "velocity": 0.8661417322834646,
          "duration": 0.09982622916666672
        },
        {
          "name": "A#2",
          "midi": 46,
          "time": 1.8749970000000007,
          "velocity": 0.8661417322834646,
          "duration": 0.09982622916666672
        },
        {
          "name": "C2",
          "midi": 36,
          "time": 1.9791635000000007,
          "velocity": 0.8661417322834646,
          "duration": 0.09982622916666672
        },
        {
          "name": "A#2",
          "midi": 46,
          "time": 1.9791635000000007,
          "velocity": 0.8661417322834646,
          "duration": 0.09982622916666672
        },
        {
          "name": "C2",
          "midi": 36,
          "time": 2.083330000000001,
          "velocity": 0.8661417322834646,
          "duration": 0.09982622916666672
        },
        {
          "name": "A#2",
          "midi": 46,
          "time": 2.083330000000001,
          "velocity": 0.8661417322834646,
          "duration": 0.09982622916666672
        },
        {
          "name": "C2",
          "midi": 36,
          "time": 2.1874965000000013,
          "velocity": 0.8661417322834646,
          "duration": 0.09982622916666672
        },
        {
          "name": "A#2",
          "midi": 46,
          "time": 2.1874965000000013,
          "velocity": 0.8661417322834646,
          "duration": 0.09982622916666672
        },
        {
          "name": "C2",
          "midi": 36,
          "time": 2.2916630000000016,
          "velocity": 0.8661417322834646,
          "duration": 0.09982622916666672
        },
        {
          "name": "A#2",
          "midi": 46,
          "time": 2.2916630000000016,
          "velocity": 0.8661417322834646,
          "duration": 0.09982622916666672
        },
        {
          "name": "C2",
          "midi": 36,
          "time": 2.395829500000002,
          "velocity": 0.8661417322834646,
          "duration": 0.09982622916666672
        },
        {
          "name": "A#2",
          "midi": 46,
          "time": 2.395829500000002,
          "velocity": 0.8661417322834646,
          "duration": 0.09982622916666672
        },
        {
          "name": "C2",
          "midi": 36,
          "time": 2.499996000000002,
          "velocity": 0.8661417322834646,
          "duration": 0.34722166666666654
        },
        {
          "name": "A#2",
          "midi": 46,
          "time": 2.499996000000002,
          "velocity": 0.8661417322834646,
          "duration": 0.34722166666666654
        },
        {
          "name": "C2",
          "midi": 36,
          "time": 2.916662000000002,
          "velocity": 0.8661417322834646,
          "duration": 0.34722166666666654
        },
        {
          "name": "A#2",
          "midi": 46,
          "time": 2.916662000000002,
          "velocity": 0.8661417322834646,
          "duration": 0.34722166666666654
        },
        {
          "name": "C2",
          "midi": 36,
          "time": 3.3333280000000016,
          "velocity": 0.8661417322834646,
          "duration": 0.34722166666666654
        },
        {
          "name": "A#2",
          "midi": 46,
          "time": 3.3333280000000016,
          "velocity": 0.8661417322834646,
          "duration": 0.34722166666666654
        },
        {
          "name": "C2",
          "midi": 36,
          "time": 3.7499940000000014,
          "velocity": 0.8661417322834646,
          "duration": 0.34722166666666654
        },
        {
          "name": "A#2",
          "midi": 46,
          "time": 3.7499940000000014,
          "velocity": 0.8661417322834646,
          "duration": 0.34722166666666654
        },
        {
          "name": "C2",
          "midi": 36,
          "time": 4.166660000000001,
          "velocity": 0.8661417322834646,
          "duration": 0.347221666666667
        },
        {
          "name": "A#2",
          "midi": 46,
          "time": 4.166660000000001,
          "velocity": 0.8661417322834646,
          "duration": 0.347221666666667
        },
        {
          "name": "C2",
          "midi": 36,
          "time": 4.583326000000001,
          "velocity": 0.8661417322834646,
          "duration": 0.347221666666667
        },
        {
          "name": "A#2",
          "midi": 46,
          "time": 4.583326000000001,
          "velocity": 0.8661417322834646,
          "duration": 0.347221666666667
        },
        {
          "name": "C2",
          "midi": 36,
          "time": 4.9999920000000015,
          "velocity": 0.8661417322834646,
          "duration": 0.09982622916666628
        },
        {
          "name": "A#2",
          "midi": 46,
          "time": 4.9999920000000015,
          "velocity": 0.8661417322834646,
          "duration": 0.09982622916666628
        },
        {
          "name": "C2",
          "midi": 36,
          "time": 5.104158500000001,
          "velocity": 0.8661417322834646,
          "duration": 0.09982622916666628
        },
        {
          "name": "A#2",
          "midi": 46,
          "time": 5.104158500000001,
          "velocity": 0.8661417322834646,
          "duration": 0.09982622916666628
        },
        {
          "name": "C2",
          "midi": 36,
          "time": 5.208325000000001,
          "velocity": 0.8661417322834646,
          "duration": 0.09982622916666628
        },
        {
          "name": "A#2",
          "midi": 46,
          "time": 5.208325000000001,
          "velocity": 0.8661417322834646,
          "duration": 0.09982622916666628
        },
        {
          "name": "C2",
          "midi": 36,
          "time": 5.312491500000001,
          "velocity": 0.8661417322834646,
          "duration": 0.09982622916666628
        },
        {
          "name": "A#2",
          "midi": 46,
          "time": 5.312491500000001,
          "velocity": 0.8661417322834646,
          "duration": 0.09982622916666628
        },
        {
          "name": "C2",
          "midi": 36,
          "time": 5.416658000000001,
          "velocity": 0.8661417322834646,
          "duration": 0.09982622916666628
        },
        {
          "name": "A#2",
          "midi": 46,
          "time": 5.416658000000001,
          "velocity": 0.8661417322834646,
          "duration": 0.09982622916666628
        },
        {
          "name": "C2",
          "midi": 36,
          "time": 5.520824500000001,
          "velocity": 0.8661417322834646,
          "duration": 0.09982622916666628
        },
        {
          "name": "A#2",
          "midi": 46,
          "time": 5.520824500000001,
          "velocity": 0.8661417322834646,
          "duration": 0.09982622916666628
        },
        {
          "name": "C2",
          "midi": 36,
          "time": 5.6249910000000005,
          "velocity": 0.8661417322834646,
          "duration": 0.09982622916666628
        },
        {
          "name": "A#2",
          "midi": 46,
          "time": 5.6249910000000005,
          "velocity": 0.8661417322834646,
          "duration": 0.09982622916666628
        },
        {
          "name": "C2",
          "midi": 36,
          "time": 5.7291575,
          "velocity": 0.8661417322834646,
          "duration": 0.09982622916666628
        },
        {
          "name": "A#2",
          "midi": 46,
          "time": 5.7291575,
          "velocity": 0.8661417322834646,
          "duration": 0.09982622916666628
        },
        {
          "name": "C2",
          "midi": 36,
          "time": 5.833324,
          "velocity": 0.8661417322834646,
          "duration": 0.09982622916666628
        },
        {
          "name": "A#2",
          "midi": 46,
          "time": 5.833324,
          "velocity": 0.8661417322834646,
          "duration": 0.09982622916666628
        },
        {
          "name": "C2",
          "midi": 36,
          "time": 5.9374905,
          "velocity": 0.8661417322834646,
          "duration": 0.09982622916666628
        },
        {
          "name": "A#2",
          "midi": 46,
          "time": 5.9374905,
          "velocity": 0.8661417322834646,
          "duration": 0.09982622916666628
        },
        {
          "name": "C2",
          "midi": 36,
          "time": 6.041657,
          "velocity": 0.8661417322834646,
          "duration": 0.09982622916666628
        },
        {
          "name": "A#2",
          "midi": 46,
          "time": 6.041657,
          "velocity": 0.8661417322834646,
          "duration": 0.09982622916666628
        },
        {
          "name": "C2",
          "midi": 36,
          "time": 6.1458235,
          "velocity": 0.8661417322834646,
          "duration": 0.09982622916666628
        },
        {
          "name": "A#2",
          "midi": 46,
          "time": 6.1458235,
          "velocity": 0.8661417322834646,
          "duration": 0.09982622916666628
        },
        {
          "name": "C2",
          "midi": 36,
          "time": 6.2499899999999995,
          "velocity": 0.8661417322834646,
          "duration": 0.09982622916666628
        },
        {
          "name": "A#2",
          "midi": 46,
          "time": 6.2499899999999995,
          "velocity": 0.8661417322834646,
          "duration": 0.09982622916666628
        },
        {
          "name": "C2",
          "midi": 36,
          "time": 6.354156499999999,
          "velocity": 0.8661417322834646,
          "duration": 0.09982622916666628
        },
        {
          "name": "A#2",
          "midi": 46,
          "time": 6.354156499999999,
          "velocity": 0.8661417322834646,
          "duration": 0.09982622916666628
        },
        {
          "name": "C2",
          "midi": 36,
          "time": 6.458322999999999,
          "velocity": 0.8661417322834646,
          "duration": 0.09982622916666628
        },
        {
          "name": "A#2",
          "midi": 46,
          "time": 6.458322999999999,
          "velocity": 0.8661417322834646,
          "duration": 0.09982622916666628
        },
        {
          "name": "C2",
          "midi": 36,
          "time": 6.562489499999999,
          "velocity": 0.8661417322834646,
          "duration": 0.09982622916666628
        },
        {
          "name": "A#2",
          "midi": 46,
          "time": 6.562489499999999,
          "velocity": 0.8661417322834646,
          "duration": 0.09982622916666628
        },
        {
          "name": "C2",
          "midi": 36,
          "time": 6.666655999999999,
          "velocity": 0.8661417322834646,
          "duration": 0.09982622916666628
        },
        {
          "name": "A#2",
          "midi": 46,
          "time": 6.666655999999999,
          "velocity": 0.8661417322834646,
          "duration": 0.09982622916666628
        },
        {
          "name": "C2",
          "midi": 36,
          "time": 6.770822499999999,
          "velocity": 0.8661417322834646,
          "duration": 0.09982622916666628
        },
        {
          "name": "A#2",
          "midi": 46,
          "time": 6.770822499999999,
          "velocity": 0.8661417322834646,
          "duration": 0.09982622916666628
        },
        {
          "name": "C2",
          "midi": 36,
          "time": 6.8749889999999985,
          "velocity": 0.8661417322834646,
          "duration": 0.09982622916666628
        },
        {
          "name": "A#2",
          "midi": 46,
          "time": 6.8749889999999985,
          "velocity": 0.8661417322834646,
          "duration": 0.09982622916666628
        },
        {
          "name": "C2",
          "midi": 36,
          "time": 6.979155499999998,
          "velocity": 0.8661417322834646,
          "duration": 0.09982622916666628
        },
        {
          "name": "A#2",
          "midi": 46,
          "time": 6.979155499999998,
          "velocity": 0.8661417322834646,
          "duration": 0.09982622916666628
        },
        {
          "name": "C2",
          "midi": 36,
          "time": 7.083321999999998,
          "velocity": 0.8661417322834646,
          "duration": 0.09982622916666628
        },
        {
          "name": "A#2",
          "midi": 46,
          "time": 7.083321999999998,
          "velocity": 0.8661417322834646,
          "duration": 0.09982622916666628
        },
        {
          "name": "C2",
          "midi": 36,
          "time": 7.187488499999998,
          "velocity": 0.8661417322834646,
          "duration": 0.09982622916666628
        },
        {
          "name": "A#2",
          "midi": 46,
          "time": 7.187488499999998,
          "velocity": 0.8661417322834646,
          "duration": 0.09982622916666628
        },
        {
          "name": "C2",
          "midi": 36,
          "time": 7.291654999999998,
          "velocity": 0.8661417322834646,
          "duration": 0.09982622916666628
        },
        {
          "name": "A#2",
          "midi": 46,
          "time": 7.291654999999998,
          "velocity": 0.8661417322834646,
          "duration": 0.09982622916666628
        },
        {
          "name": "C2",
          "midi": 36,
          "time": 7.395821499999998,
          "velocity": 0.8661417322834646,
          "duration": 0.09982622916666628
        },
        {
          "name": "A#2",
          "midi": 46,
          "time": 7.395821499999998,
          "velocity": 0.8661417322834646,
          "duration": 0.09982622916666628
        },
        {
          "name": "C2",
          "midi": 36,
          "time": 7.499987999999997,
          "velocity": 0.8661417322834646,
          "duration": 0.09982622916666628
        },
        {
          "name": "A#2",
          "midi": 46,
          "time": 7.499987999999997,
          "velocity": 0.8661417322834646,
          "duration": 0.09982622916666628
        },
        {
          "name": "C2",
          "midi": 36,
          "time": 7.604154499999997,
          "velocity": 0.8661417322834646,
          "duration": 0.09982622916666628
        },
        {
          "name": "A#2",
          "midi": 46,
          "time": 7.604154499999997,
          "velocity": 0.8661417322834646,
          "duration": 0.09982622916666628
        },
        {
          "name": "C2",
          "midi": 36,
          "time": 7.708320999999997,
          "velocity": 0.8661417322834646,
          "duration": 0.09982622916666628
        },
        {
          "name": "A#2",
          "midi": 46,
          "time": 7.708320999999997,
          "velocity": 0.8661417322834646,
          "duration": 0.09982622916666628
        },
        {
          "name": "C2",
          "midi": 36,
          "time": 7.812487499999997,
          "velocity": 0.8661417322834646,
          "duration": 0.09982622916666628
        },
        {
          "name": "A#2",
          "midi": 46,
          "time": 7.812487499999997,
          "velocity": 0.8661417322834646,
          "duration": 0.09982622916666628
        },
        {
          "name": "C2",
          "midi": 36,
          "time": 7.916653999999997,
          "velocity": 0.8661417322834646,
          "duration": 0.09982622916666717
        },
        {
          "name": "A#2",
          "midi": 46,
          "time": 7.916653999999997,
          "velocity": 0.8661417322834646,
          "duration": 0.09982622916666717
        },
        {
          "name": "C2",
          "midi": 36,
          "time": 8.020820499999997,
          "velocity": 0.8661417322834646,
          "duration": 0.09982622916666628
        },
        {
          "name": "A#2",
          "midi": 46,
          "time": 8.020820499999997,
          "velocity": 0.8661417322834646,
          "duration": 0.09982622916666628
        },
        {
          "name": "C2",
          "midi": 36,
          "time": 8.124986999999997,
          "velocity": 0.8661417322834646,
          "duration": 0.09982622916666628
        },
        {
          "name": "A#2",
          "midi": 46,
          "time": 8.124986999999997,
          "velocity": 0.8661417322834646,
          "duration": 0.09982622916666628
        },
        {
          "name": "C2",
          "midi": 36,
          "time": 8.229153499999997,
          "velocity": 0.8661417322834646,
          "duration": 0.09982622916666628
        },
        {
          "name": "A#2",
          "midi": 46,
          "time": 8.229153499999997,
          "velocity": 0.8661417322834646,
          "duration": 0.09982622916666628
        },
        {
          "name": "C2",
          "midi": 36,
          "time": 8.333319999999997,
          "velocity": 0.8661417322834646,
          "duration": 0.09982622916666628
        },
        {
          "name": "A#2",
          "midi": 46,
          "time": 8.333319999999997,
          "velocity": 0.8661417322834646,
          "duration": 0.09982622916666628
        },
        {
          "name": "C2",
          "midi": 36,
          "time": 8.437486499999997,
          "velocity": 0.8661417322834646,
          "duration": 0.09982622916666628
        },
        {
          "name": "A#2",
          "midi": 46,
          "time": 8.437486499999997,
          "velocity": 0.8661417322834646,
          "duration": 0.09982622916666628
        },
        {
          "name": "C2",
          "midi": 36,
          "time": 8.541652999999997,
          "velocity": 0.8661417322834646,
          "duration": 0.09982622916666628
        },
        {
          "name": "A#2",
          "midi": 46,
          "time": 8.541652999999997,
          "velocity": 0.8661417322834646,
          "duration": 0.09982622916666628
        },
        {
          "name": "C2",
          "midi": 36,
          "time": 8.645819499999996,
          "velocity": 0.8661417322834646,
          "duration": 0.09982622916666628
        },
        {
          "name": "A#2",
          "midi": 46,
          "time": 8.645819499999996,
          "velocity": 0.8661417322834646,
          "duration": 0.09982622916666628
        },
        {
          "name": "C2",
          "midi": 36,
          "time": 8.749985999999996,
          "velocity": 0.8661417322834646,
          "duration": 0.09982622916666628
        },
        {
          "name": "A#2",
          "midi": 46,
          "time": 8.749985999999996,
          "velocity": 0.8661417322834646,
          "duration": 0.09982622916666628
        },
        {
          "name": "C2",
          "midi": 36,
          "time": 8.854152499999996,
          "velocity": 0.8661417322834646,
          "duration": 0.09982622916666628
        },
        {
          "name": "A#2",
          "midi": 46,
          "time": 8.854152499999996,
          "velocity": 0.8661417322834646,
          "duration": 0.09982622916666628
        },
        {
          "name": "C2",
          "midi": 36,
          "time": 8.958318999999996,
          "velocity": 0.8661417322834646,
          "duration": 0.09982622916666628
        },
        {
          "name": "A#2",
          "midi": 46,
          "time": 8.958318999999996,
          "velocity": 0.8661417322834646,
          "duration": 0.09982622916666628
        },
        {
          "name": "C2",
          "midi": 36,
          "time": 9.062485499999996,
          "velocity": 0.8661417322834646,
          "duration": 0.09982622916666628
        },
        {
          "name": "A#2",
          "midi": 46,
          "time": 9.062485499999996,
          "velocity": 0.8661417322834646,
          "duration": 0.09982622916666628
        },
        {
          "name": "C2",
          "midi": 36,
          "time": 9.166651999999996,
          "velocity": 0.8661417322834646,
          "duration": 0.09982622916666628
        },
        {
          "name": "A#2",
          "midi": 46,
          "time": 9.166651999999996,
          "velocity": 0.8661417322834646,
          "duration": 0.09982622916666628
        },
        {
          "name": "C2",
          "midi": 36,
          "time": 9.270818499999995,
          "velocity": 0.8661417322834646,
          "duration": 0.09982622916666628
        },
        {
          "name": "A#2",
          "midi": 46,
          "time": 9.270818499999995,
          "velocity": 0.8661417322834646,
          "duration": 0.09982622916666628
        },
        {
          "name": "C2",
          "midi": 36,
          "time": 9.374984999999995,
          "velocity": 0.8661417322834646,
          "duration": 0.09982622916666628
        },
        {
          "name": "A#2",
          "midi": 46,
          "time": 9.374984999999995,
          "velocity": 0.8661417322834646,
          "duration": 0.09982622916666628
        },
        {
          "name": "C2",
          "midi": 36,
          "time": 9.479151499999995,
          "velocity": 0.8661417322834646,
          "duration": 0.09982622916666628
        },
        {
          "name": "A#2",
          "midi": 46,
          "time": 9.479151499999995,
          "velocity": 0.8661417322834646,
          "duration": 0.09982622916666628
        },
        {
          "name": "C2",
          "midi": 36,
          "time": 9.583317999999995,
          "velocity": 0.8661417322834646,
          "duration": 0.09982622916666628
        },
        {
          "name": "A#2",
          "midi": 46,
          "time": 9.583317999999995,
          "velocity": 0.8661417322834646,
          "duration": 0.09982622916666628
        },
        {
          "name": "C2",
          "midi": 36,
          "time": 9.687484499999995,
          "velocity": 0.8661417322834646,
          "duration": 0.09982622916666628
        },
        {
          "name": "A#2",
          "midi": 46,
          "time": 9.687484499999995,
          "velocity": 0.8661417322834646,
          "duration": 0.09982622916666628
        },
        {
          "name": "C2",
          "midi": 36,
          "time": 9.791650999999995,
          "velocity": 0.8661417322834646,
          "duration": 0.09982622916666628
        },
        {
          "name": "A#2",
          "midi": 46,
          "time": 9.791650999999995,
          "velocity": 0.8661417322834646,
          "duration": 0.09982622916666628
        },
        {
          "name": "C2",
          "midi": 36,
          "time": 9.895817499999994,
          "velocity": 0.8661417322834646,
          "duration": 0.09982622916666628
        },
        {
          "name": "A#2",
          "midi": 46,
          "time": 9.895817499999994,
          "velocity": 0.8661417322834646,
          "duration": 0.09982622916666628
        },
        {
          "name": "C2",
          "midi": 36,
          "time": 9.999983999999994,
          "velocity": 0.8661417322834646,
          "duration": 0.09982622916666628
        },
        {
          "name": "A#2",
          "midi": 46,
          "time": 9.999983999999994,
          "velocity": 0.8661417322834646,
          "duration": 0.09982622916666628
        },
        {
          "name": "C2",
          "midi": 36,
          "time": 10.104150499999994,
          "velocity": 0.8661417322834646,
          "duration": 0.09982622916666628
        },
        {
          "name": "A#2",
          "midi": 46,
          "time": 10.104150499999994,
          "velocity": 0.8661417322834646,
          "duration": 0.09982622916666628
        },
        {
          "name": "C2",
          "midi": 36,
          "time": 10.208316999999994,
          "velocity": 0.8661417322834646,
          "duration": 0.09982622916666628
        },
        {
          "name": "A#2",
          "midi": 46,
          "time": 10.208316999999994,
          "velocity": 0.8661417322834646,
          "duration": 0.09982622916666628
        },
        {
          "name": "C2",
          "midi": 36,
          "time": 10.312483499999994,
          "velocity": 0.8661417322834646,
          "duration": 0.09982622916666628
        },
        {
          "name": "A#2",
          "midi": 46,
          "time": 10.312483499999994,
          "velocity": 0.8661417322834646,
          "duration": 0.09982622916666628
        },
        {
          "name": "C2",
          "midi": 36,
          "time": 10.416649999999994,
          "velocity": 0.8661417322834646,
          "duration": 0.09982622916666628
        },
        {
          "name": "A#2",
          "midi": 46,
          "time": 10.416649999999994,
          "velocity": 0.8661417322834646,
          "duration": 0.09982622916666628
        },
        {
          "name": "C2",
          "midi": 36,
          "time": 10.520816499999993,
          "velocity": 0.8661417322834646,
          "duration": 0.09982622916666628
        },
        {
          "name": "A#2",
          "midi": 46,
          "time": 10.520816499999993,
          "velocity": 0.8661417322834646,
          "duration": 0.09982622916666628
        },
        {
          "name": "C2",
          "midi": 36,
          "time": 10.624982999999993,
          "velocity": 0.8661417322834646,
          "duration": 0.09982622916666628
        },
        {
          "name": "A#2",
          "midi": 46,
          "time": 10.624982999999993,
          "velocity": 0.8661417322834646,
          "duration": 0.09982622916666628
        },
        {
          "name": "C2",
          "midi": 36,
          "time": 10.729149499999993,
          "velocity": 0.8661417322834646,
          "duration": 0.09982622916666628
        },
        {
          "name": "A#2",
          "midi": 46,
          "time": 10.729149499999993,
          "velocity": 0.8661417322834646,
          "duration": 0.09982622916666628
        },
        {
          "name": "C2",
          "midi": 36,
          "time": 10.833315999999993,
          "velocity": 0.8661417322834646,
          "duration": 0.09982622916666628
        },
        {
          "name": "A#2",
          "midi": 46,
          "time": 10.833315999999993,
          "velocity": 0.8661417322834646,
          "duration": 0.09982622916666628
        },
        {
          "name": "C2",
          "midi": 36,
          "time": 10.937482499999993,
          "velocity": 0.8661417322834646,
          "duration": 0.09982622916666628
        },
        {
          "name": "A#2",
          "midi": 46,
          "time": 10.937482499999993,
          "velocity": 0.8661417322834646,
          "duration": 0.09982622916666628
        },
        {
          "name": "C2",
          "midi": 36,
          "time": 11.041648999999992,
          "velocity": 0.8661417322834646,
          "duration": 0.09982622916666628
        },
        {
          "name": "A#2",
          "midi": 46,
          "time": 11.041648999999992,
          "velocity": 0.8661417322834646,
          "duration": 0.09982622916666628
        },
        {
          "name": "C2",
          "midi": 36,
          "time": 11.145815499999992,
          "velocity": 0.8661417322834646,
          "duration": 0.09982622916666628
        },
        {
          "name": "A#2",
          "midi": 46,
          "time": 11.145815499999992,
          "velocity": 0.8661417322834646,
          "duration": 0.09982622916666628
        },
        {
          "name": "C2",
          "midi": 36,
          "time": 11.249981999999992,
          "velocity": 0.8661417322834646,
          "duration": 0.09982622916666628
        },
        {
          "name": "A#2",
          "midi": 46,
          "time": 11.249981999999992,
          "velocity": 0.8661417322834646,
          "duration": 0.09982622916666628
        },
        {
          "name": "C2",
          "midi": 36,
          "time": 11.354148499999992,
          "velocity": 0.8661417322834646,
          "duration": 0.09982622916666628
        },
        {
          "name": "A#2",
          "midi": 46,
          "time": 11.354148499999992,
          "velocity": 0.8661417322834646,
          "duration": 0.09982622916666628
        },
        {
          "name": "C2",
          "midi": 36,
          "time": 11.458314999999992,
          "velocity": 0.8661417322834646,
          "duration": 0.09982622916666628
        },
        {
          "name": "A#2",
          "midi": 46,
          "time": 11.458314999999992,
          "velocity": 0.8661417322834646,
          "duration": 0.09982622916666628
        },
        {
          "name": "C2",
          "midi": 36,
          "time": 11.562481499999992,
          "velocity": 0.8661417322834646,
          "duration": 0.09982622916666628
        },
        {
          "name": "A#2",
          "midi": 46,
          "time": 11.562481499999992,
          "velocity": 0.8661417322834646,
          "duration": 0.09982622916666628
        },
        {
          "name": "C2",
          "midi": 36,
          "time": 11.666647999999991,
          "velocity": 0.8661417322834646,
          "duration": 0.09982622916666628
        },
        {
          "name": "A#2",
          "midi": 46,
          "time": 11.666647999999991,
          "velocity": 0.8661417322834646,
          "duration": 0.09982622916666628
        },
        {
          "name": "C2",
          "midi": 36,
          "time": 11.770814499999991,
          "velocity": 0.8661417322834646,
          "duration": 0.09982622916666628
        },
        {
          "name": "A#2",
          "midi": 46,
          "time": 11.770814499999991,
          "velocity": 0.8661417322834646,
          "duration": 0.09982622916666628
        },
        {
          "name": "C2",
          "midi": 36,
          "time": 11.874980999999991,
          "velocity": 0.8661417322834646,
          "duration": 0.09982622916666628
        },
        {
          "name": "A#2",
          "midi": 46,
          "time": 11.874980999999991,
          "velocity": 0.8661417322834646,
          "duration": 0.09982622916666628
        },
        {
          "name": "C2",
          "midi": 36,
          "time": 11.979147499999991,
          "velocity": 0.8661417322834646,
          "duration": 0.09982622916666628
        },
        {
          "name": "A#2",
          "midi": 46,
          "time": 11.979147499999991,
          "velocity": 0.8661417322834646,
          "duration": 0.09982622916666628
        },
        {
          "name": "C2",
          "midi": 36,
          "time": 12.08331399999999,
          "velocity": 0.8661417322834646,
          "duration": 0.09982622916666628
        },
        {
          "name": "A#2",
          "midi": 46,
          "time": 12.08331399999999,
          "velocity": 0.8661417322834646,
          "duration": 0.09982622916666628
        },
        {
          "name": "C2",
          "midi": 36,
          "time": 12.18748049999999,
          "velocity": 0.8661417322834646,
          "duration": 0.09982622916666628
        },
        {
          "name": "A#2",
          "midi": 46,
          "time": 12.18748049999999,
          "velocity": 0.8661417322834646,
          "duration": 0.09982622916666628
        },
        {
          "name": "C2",
          "midi": 36,
          "time": 12.29164699999999,
          "velocity": 0.8661417322834646,
          "duration": 0.09982622916666628
        },
        {
          "name": "A#2",
          "midi": 46,
          "time": 12.29164699999999,
          "velocity": 0.8661417322834646,
          "duration": 0.09982622916666628
        },
        {
          "name": "C2",
          "midi": 36,
          "time": 12.39581349999999,
          "velocity": 0.8661417322834646,
          "duration": 0.09982622916666628
        },
        {
          "name": "A#2",
          "midi": 46,
          "time": 12.39581349999999,
          "velocity": 0.8661417322834646,
          "duration": 0.09982622916666628
        },
        {
          "name": "C2",
          "midi": 36,
          "time": 19.16663599999999,
          "velocity": 0.8661417322834646,
          "duration": 0.3472216666666661
        },
        {
          "name": "D2",
          "midi": 38,
          "time": 19.16663599999999,
          "velocity": 0.8661417322834646,
          "duration": 0.3472216666666661
        },
        {
          "name": "F#2",
          "midi": 42,
          "time": 19.16663599999999,
          "velocity": 0.8661417322834646,
          "duration": 0.3472216666666661
        },
        {
          "name": "C#3",
          "midi": 49,
          "time": 19.16663599999999,
          "velocity": 0.8661417322834646,
          "duration": 0.3472216666666661
        },
        {
          "name": "C2",
          "midi": 36,
          "time": 20.83329999999999,
          "velocity": 0.8661417322834646,
          "duration": 0.3472216666666661
        },
        {
          "name": "D2",
          "midi": 38,
          "time": 20.83329999999999,
          "velocity": 0.8661417322834646,
          "duration": 0.3472216666666661
        },
        {
          "name": "F#2",
          "midi": 42,
          "time": 20.83329999999999,
          "velocity": 0.8661417322834646,
          "duration": 0.3472216666666661
        },
        {
          "name": "C#3",
          "midi": 49,
          "time": 20.83329999999999,
          "velocity": 0.8661417322834646,
          "duration": 0.3472216666666661
        },
        {
          "name": "C2",
          "midi": 36,
          "time": 22.49996399999999,
          "velocity": 0.8661417322834646,
          "duration": 0.3472216666666661
        },
        {
          "name": "D2",
          "midi": 38,
          "time": 22.49996399999999,
          "velocity": 0.8661417322834646,
          "duration": 0.3472216666666661
        },
        {
          "name": "F#2",
          "midi": 42,
          "time": 22.49996399999999,
          "velocity": 0.8661417322834646,
          "duration": 0.3472216666666661
        },
        {
          "name": "C#3",
          "midi": 49,
          "time": 22.49996399999999,
          "velocity": 0.8661417322834646,
          "duration": 0.3472216666666661
        },
        {
          "name": "C2",
          "midi": 36,
          "time": 24.166627999999992,
          "velocity": 0.8661417322834646,
          "duration": 0.3472216666666661
        },
        {
          "name": "D2",
          "midi": 38,
          "time": 24.166627999999992,
          "velocity": 0.8661417322834646,
          "duration": 0.3472216666666661
        },
        {
          "name": "F#2",
          "midi": 42,
          "time": 24.166627999999992,
          "velocity": 0.8661417322834646,
          "duration": 0.3472216666666661
        },
        {
          "name": "C#3",
          "midi": 49,
          "time": 24.166627999999992,
          "velocity": 0.8661417322834646,
          "duration": 0.3472216666666661
        },
        {
          "name": "D2",
          "midi": 38,
          "time": 24.99995999999999,
          "velocity": 0.8661417322834646,
          "duration": 0.09982622916666628
        },
        {
          "name": "D2",
          "midi": 38,
          "time": 25.10412649999999,
          "velocity": 0.8661417322834646,
          "duration": 0.09982622916666628
        },
        {
          "name": "D2",
          "midi": 38,
          "time": 25.208292999999987,
          "velocity": 0.8661417322834646,
          "duration": 0.09982622916666628
        },
        {
          "name": "D2",
          "midi": 38,
          "time": 25.312459499999985,
          "velocity": 0.8661417322834646,
          "duration": 0.09982622916666628
        },
        {
          "name": "D2",
          "midi": 38,
          "time": 25.416625999999983,
          "velocity": 0.8661417322834646,
          "duration": 0.09982622916666628
        },
        {
          "name": "D2",
          "midi": 38,
          "time": 25.52079249999998,
          "velocity": 0.8661417322834646,
          "duration": 0.09982622916666628
        },
        {
          "name": "D2",
          "midi": 38,
          "time": 25.62495899999998,
          "velocity": 0.8661417322834646,
          "duration": 0.09982622916666628
        },
        {
          "name": "D2",
          "midi": 38,
          "time": 25.729125499999977,
          "velocity": 0.8661417322834646,
          "duration": 0.09982622916666628
        },
        {
          "name": "C2",
          "midi": 36,
          "time": 25.833291999999975,
          "velocity": 0.8661417322834646,
          "duration": 0.20399272916666789
        },
        {
          "name": "A#2",
          "midi": 46,
          "time": 25.833291999999975,
          "velocity": 0.8661417322834646,
          "duration": 0.20399272916666789
        },
        {
          "name": "C#3",
          "midi": 49,
          "time": 25.833291999999975,
          "velocity": 0.8661417322834646,
          "duration": 0.20399272916666789
        },
        {
          "name": "D2",
          "midi": 38,
          "time": 26.041624999999975,
          "velocity": 0.8661417322834646,
          "duration": 0.20399272916666789
        },
        {
          "name": "A#2",
          "midi": 46,
          "time": 26.041624999999975,
          "velocity": 0.8661417322834646,
          "duration": 0.20399272916666789
        },
        {
          "name": "C2",
          "midi": 36,
          "time": 26.249957999999975,
          "velocity": 0.8661417322834646,
          "duration": 0.20399272916666789
        },
        {
          "name": "A#2",
          "midi": 46,
          "time": 26.249957999999975,
          "velocity": 0.8661417322834646,
          "duration": 0.20399272916666789
        },
        {
          "name": "D2",
          "midi": 38,
          "time": 26.458290999999974,
          "velocity": 0.8661417322834646,
          "duration": 0.20399272916666789
        },
        {
          "name": "A#2",
          "midi": 46,
          "time": 26.458290999999974,
          "velocity": 0.8661417322834646,
          "duration": 0.20399272916666789
        },
        {
          "name": "C2",
          "midi": 36,
          "time": 26.666623999999974,
          "velocity": 0.8661417322834646,
          "duration": 0.20399272916666789
        },
        {
          "name": "A#2",
          "midi": 46,
          "time": 26.666623999999974,
          "velocity": 0.8661417322834646,
          "duration": 0.20399272916666789
        },
        {
          "name": "D2",
          "midi": 38,
          "time": 26.874956999999974,
          "velocity": 0.8661417322834646,
          "duration": 0.20399272916666789
        },
        {
          "name": "A#2",
          "midi": 46,
          "time": 26.874956999999974,
          "velocity": 0.8661417322834646,
          "duration": 0.20399272916666789
        },
        {
          "name": "C2",
          "midi": 36,
          "time": 27.083289999999973,
          "velocity": 0.8661417322834646,
          "duration": 0.20399272916666789
        },
        {
          "name": "A#2",
          "midi": 46,
          "time": 27.083289999999973,
          "velocity": 0.8661417322834646,
          "duration": 0.20399272916666789
        },
        {
          "name": "D2",
          "midi": 38,
          "time": 27.291622999999973,
          "velocity": 0.8661417322834646,
          "duration": 0.20399272916666789
        },
        {
          "name": "A#2",
          "midi": 46,
          "time": 27.291622999999973,
          "velocity": 0.8661417322834646,
          "duration": 0.20399272916666789
        },
        {
          "name": "C2",
          "midi": 36,
          "time": 27.499955999999973,
          "velocity": 0.8661417322834646,
          "duration": 0.20399272916666789
        },
        {
          "name": "A#2",
          "midi": 46,
          "time": 27.499955999999973,
          "velocity": 0.8661417322834646,
          "duration": 0.20399272916666789
        },
        {
          "name": "D2",
          "midi": 38,
          "time": 27.708288999999972,
          "velocity": 0.8661417322834646,
          "duration": 0.20399272916666789
        },
        {
          "name": "A#2",
          "midi": 46,
          "time": 27.708288999999972,
          "velocity": 0.8661417322834646,
          "duration": 0.20399272916666789
        },
        {
          "name": "C2",
          "midi": 36,
          "time": 27.916621999999972,
          "velocity": 0.8661417322834646,
          "duration": 0.20399272916666789
        },
        {
          "name": "A#2",
          "midi": 46,
          "time": 27.916621999999972,
          "velocity": 0.8661417322834646,
          "duration": 0.20399272916666789
        },
        {
          "name": "D2",
          "midi": 38,
          "time": 28.12495499999997,
          "velocity": 0.8661417322834646,
          "duration": 0.20399272916666789
        },
        {
          "name": "A#2",
          "midi": 46,
          "time": 28.12495499999997,
          "velocity": 0.8661417322834646,
          "duration": 0.20399272916666789
        },
        {
          "name": "C2",
          "midi": 36,
          "time": 28.33328799999997,
          "velocity": 0.8661417322834646,
          "duration": 0.20399272916666789
        },
        {
          "name": "A#2",
          "midi": 46,
          "time": 28.33328799999997,
          "velocity": 0.8661417322834646,
          "duration": 0.20399272916666789
        },
        {
          "name": "D2",
          "midi": 38,
          "time": 28.54162099999997,
          "velocity": 0.8661417322834646,
          "duration": 0.20399272916666789
        },
        {
          "name": "A#2",
          "midi": 46,
          "time": 28.54162099999997,
          "velocity": 0.8661417322834646,
          "duration": 0.20399272916666789
        },
        {
          "name": "C2",
          "midi": 36,
          "time": 28.74995399999997,
          "velocity": 0.8661417322834646,
          "duration": 0.20399272916666789
        },
        {
          "name": "A#2",
          "midi": 46,
          "time": 28.74995399999997,
          "velocity": 0.8661417322834646,
          "duration": 0.20399272916666789
        },
        {
          "name": "D2",
          "midi": 38,
          "time": 28.95828699999997,
          "velocity": 0.8661417322834646,
          "duration": 0.20399272916666789
        },
        {
          "name": "A#2",
          "midi": 46,
          "time": 28.95828699999997,
          "velocity": 0.8661417322834646,
          "duration": 0.20399272916666789
        },
        {
          "name": "C2",
          "midi": 36,
          "time": 29.16661999999997,
          "velocity": 0.8661417322834646,
          "duration": 0.20399272916666789
        },
        {
          "name": "A#2",
          "midi": 46,
          "time": 29.16661999999997,
          "velocity": 0.8661417322834646,
          "duration": 0.20399272916666789
        },
        {
          "name": "D2",
          "midi": 38,
          "time": 29.37495299999997,
          "velocity": 0.8661417322834646,
          "duration": 0.20399272916666789
        },
        {
          "name": "A#2",
          "midi": 46,
          "time": 29.37495299999997,
          "velocity": 0.8661417322834646,
          "duration": 0.20399272916666789
        },
        {
          "name": "C2",
          "midi": 36,
          "time": 29.58328599999997,
          "velocity": 0.8661417322834646,
          "duration": 0.20399272916666789
        },
        {
          "name": "A#2",
          "midi": 46,
          "time": 29.58328599999997,
          "velocity": 0.8661417322834646,
          "duration": 0.20399272916666789
        },
        {
          "name": "D2",
          "midi": 38,
          "time": 29.79161899999997,
          "velocity": 0.8661417322834646,
          "duration": 0.20399272916666789
        },
        {
          "name": "A#2",
          "midi": 46,
          "time": 29.79161899999997,
          "velocity": 0.8661417322834646,
          "duration": 0.20399272916666789
        },
        {
          "name": "C2",
          "midi": 36,
          "time": 29.99995199999997,
          "velocity": 0.8661417322834646,
          "duration": 0.20399272916666789
        },
        {
          "name": "A#2",
          "midi": 46,
          "time": 29.99995199999997,
          "velocity": 0.8661417322834646,
          "duration": 0.20399272916666789
        },
        {
          "name": "D2",
          "midi": 38,
          "time": 30.208284999999968,
          "velocity": 0.8661417322834646,
          "duration": 0.20399272916666789
        },
        {
          "name": "A#2",
          "midi": 46,
          "time": 30.208284999999968,
          "velocity": 0.8661417322834646,
          "duration": 0.20399272916666789
        },
        {
          "name": "C2",
          "midi": 36,
          "time": 30.416617999999968,
          "velocity": 0.8661417322834646,
          "duration": 0.20399272916666789
        },
        {
          "name": "A#2",
          "midi": 46,
          "time": 30.416617999999968,
          "velocity": 0.8661417322834646,
          "duration": 0.20399272916666789
        },
        {
          "name": "D2",
          "midi": 38,
          "time": 30.624950999999967,
          "velocity": 0.8661417322834646,
          "duration": 0.20399272916666789
        },
        {
          "name": "A#2",
          "midi": 46,
          "time": 30.624950999999967,
          "velocity": 0.8661417322834646,
          "duration": 0.20399272916666789
        },
        {
          "name": "C2",
          "midi": 36,
          "time": 30.833283999999967,
          "velocity": 0.8661417322834646,
          "duration": 0.20399272916666789
        },
        {
          "name": "A#2",
          "midi": 46,
          "time": 30.833283999999967,
          "velocity": 0.8661417322834646,
          "duration": 0.20399272916666789
        },
        {
          "name": "D2",
          "midi": 38,
          "time": 31.041616999999967,
          "velocity": 0.8661417322834646,
          "duration": 0.20399272916666789
        },
        {
          "name": "A#2",
          "midi": 46,
          "time": 31.041616999999967,
          "velocity": 0.8661417322834646,
          "duration": 0.20399272916666789
        },
        {
          "name": "C2",
          "midi": 36,
          "time": 31.249949999999966,
          "velocity": 0.8661417322834646,
          "duration": 0.20399272916666789
        },
        {
          "name": "A#2",
          "midi": 46,
          "time": 31.249949999999966,
          "velocity": 0.8661417322834646,
          "duration": 0.20399272916666789
        },
        {
          "name": "D2",
          "midi": 38,
          "time": 31.458282999999966,
          "velocity": 0.8661417322834646,
          "duration": 0.20399272916666789
        },
        {
          "name": "A#2",
          "midi": 46,
          "time": 31.458282999999966,
          "velocity": 0.8661417322834646,
          "duration": 0.20399272916666789
        },
        {
          "name": "C2",
          "midi": 36,
          "time": 31.666615999999966,
          "velocity": 0.8661417322834646,
          "duration": 0.20399272916666789
        },
        {
          "name": "A#2",
          "midi": 46,
          "time": 31.666615999999966,
          "velocity": 0.8661417322834646,
          "duration": 0.20399272916666789
        },
        {
          "name": "D2",
          "midi": 38,
          "time": 31.874948999999965,
          "velocity": 0.8661417322834646,
          "duration": 0.20399272916666433
        },
        {
          "name": "A#2",
          "midi": 46,
          "time": 31.874948999999965,
          "velocity": 0.8661417322834646,
          "duration": 0.20399272916666433
        },
        {
          "name": "C2",
          "midi": 36,
          "time": 32.08328199999996,
          "velocity": 0.8661417322834646,
          "duration": 0.20399272916666433
        },
        {
          "name": "A#2",
          "midi": 46,
          "time": 32.08328199999996,
          "velocity": 0.8661417322834646,
          "duration": 0.20399272916666433
        },
        {
          "name": "D2",
          "midi": 38,
          "time": 32.29161499999996,
          "velocity": 0.8661417322834646,
          "duration": 0.20399272916666433
        },
        {
          "name": "A#2",
          "midi": 46,
          "time": 32.29161499999996,
          "velocity": 0.8661417322834646,
          "duration": 0.20399272916666433
        },
        {
          "name": "C2",
          "midi": 36,
          "time": 32.499947999999954,
          "velocity": 0.8661417322834646,
          "duration": 0.20399272916666433
        },
        {
          "name": "A#2",
          "midi": 46,
          "time": 32.499947999999954,
          "velocity": 0.8661417322834646,
          "duration": 0.20399272916666433
        },
        {
          "name": "D2",
          "midi": 38,
          "time": 32.70828099999995,
          "velocity": 0.8661417322834646,
          "duration": 0.20399272916666433
        },
        {
          "name": "A#2",
          "midi": 46,
          "time": 32.70828099999995,
          "velocity": 0.8661417322834646,
          "duration": 0.20399272916666433
        },
        {
          "name": "C#3",
          "midi": 49,
          "time": 32.70828099999995,
          "velocity": 0.8661417322834646,
          "duration": 0.20399272916666433
        },
        {
          "name": "C2",
          "midi": 36,
          "time": 32.916613999999946,
          "velocity": 0.8661417322834646,
          "duration": 0.20399272916666433
        },
        {
          "name": "A#2",
          "midi": 46,
          "time": 32.916613999999946,
          "velocity": 0.8661417322834646,
          "duration": 0.20399272916666433
        },
        {
          "name": "D2",
          "midi": 38,
          "time": 33.12494699999994,
          "velocity": 0.8661417322834646,
          "duration": 0.20399272916666433
        },
        {
          "name": "A#2",
          "midi": 46,
          "time": 33.12494699999994,
          "velocity": 0.8661417322834646,
          "duration": 0.20399272916666433
        },
        {
          "name": "C2",
          "midi": 36,
          "time": 33.33327999999994,
          "velocity": 0.8661417322834646,
          "duration": 0.20399272916666433
        },
        {
          "name": "A#2",
          "midi": 46,
          "time": 33.33327999999994,
          "velocity": 0.8661417322834646,
          "duration": 0.20399272916666433
        },
        {
          "name": "D2",
          "midi": 38,
          "time": 33.541612999999934,
          "velocity": 0.8661417322834646,
          "duration": 0.20399272916666433
        },
        {
          "name": "A#2",
          "midi": 46,
          "time": 33.541612999999934,
          "velocity": 0.8661417322834646,
          "duration": 0.20399272916666433
        },
        {
          "name": "C2",
          "midi": 36,
          "time": 33.74994599999993,
          "velocity": 0.8661417322834646,
          "duration": 0.20399272916666433
        },
        {
          "name": "A#2",
          "midi": 46,
          "time": 33.74994599999993,
          "velocity": 0.8661417322834646,
          "duration": 0.20399272916666433
        },
        {
          "name": "D2",
          "midi": 38,
          "time": 33.958278999999926,
          "velocity": 0.8661417322834646,
          "duration": 0.20399272916666433
        },
        {
          "name": "A#2",
          "midi": 46,
          "time": 33.958278999999926,
          "velocity": 0.8661417322834646,
          "duration": 0.20399272916666433
        },
        {
          "name": "C2",
          "midi": 36,
          "time": 34.16661199999992,
          "velocity": 0.8661417322834646,
          "duration": 0.20399272916666433
        },
        {
          "name": "A#2",
          "midi": 46,
          "time": 34.16661199999992,
          "velocity": 0.8661417322834646,
          "duration": 0.20399272916666433
        },
        {
          "name": "D2",
          "midi": 38,
          "time": 34.37494499999992,
          "velocity": 0.8661417322834646,
          "duration": 0.20399272916666433
        },
        {
          "name": "A#2",
          "midi": 46,
          "time": 34.37494499999992,
          "velocity": 0.8661417322834646,
          "duration": 0.20399272916666433
        },
        {
          "name": "C#3",
          "midi": 49,
          "time": 34.37494499999992,
          "velocity": 0.8661417322834646,
          "duration": 0.20399272916666433
        },
        {
          "name": "C2",
          "midi": 36,
          "time": 34.583277999999915,
          "velocity": 0.8661417322834646,
          "duration": 0.20399272916666433
        },
        {
          "name": "A#2",
          "midi": 46,
          "time": 34.583277999999915,
          "velocity": 0.8661417322834646,
          "duration": 0.20399272916666433
        },
        {
          "name": "D2",
          "midi": 38,
          "time": 34.79161099999991,
          "velocity": 0.8661417322834646,
          "duration": 0.20399272916666433
        },
        {
          "name": "A#2",
          "midi": 46,
          "time": 34.79161099999991,
          "velocity": 0.8661417322834646,
          "duration": 0.20399272916666433
        },
        {
          "name": "C2",
          "midi": 36,
          "time": 34.99994399999991,
          "velocity": 0.8661417322834646,
          "duration": 0.20399272916666433
        },
        {
          "name": "A#2",
          "midi": 46,
          "time": 34.99994399999991,
          "velocity": 0.8661417322834646,
          "duration": 0.20399272916666433
        },
        {
          "name": "D2",
          "midi": 38,
          "time": 35.2082769999999,
          "velocity": 0.8661417322834646,
          "duration": 0.20399272916666433
        },
        {
          "name": "A#2",
          "midi": 46,
          "time": 35.2082769999999,
          "velocity": 0.8661417322834646,
          "duration": 0.20399272916666433
        },
        {
          "name": "C2",
          "midi": 36,
          "time": 35.4166099999999,
          "velocity": 0.8661417322834646,
          "duration": 0.20399272916666433
        },
        {
          "name": "A#2",
          "midi": 46,
          "time": 35.4166099999999,
          "velocity": 0.8661417322834646,
          "duration": 0.20399272916666433
        },
        {
          "name": "D2",
          "midi": 38,
          "time": 35.624942999999895,
          "velocity": 0.8661417322834646,
          "duration": 0.20399272916666433
        },
        {
          "name": "A#2",
          "midi": 46,
          "time": 35.624942999999895,
          "velocity": 0.8661417322834646,
          "duration": 0.20399272916666433
        },
        {
          "name": "C2",
          "midi": 36,
          "time": 35.83327599999989,
          "velocity": 0.8661417322834646,
          "duration": 0.20399272916666433
        },
        {
          "name": "A#2",
          "midi": 46,
          "time": 35.83327599999989,
          "velocity": 0.8661417322834646,
          "duration": 0.20399272916666433
        },
        {
          "name": "C#3",
          "midi": 49,
          "time": 35.83327599999989,
          "velocity": 0.8661417322834646,
          "duration": 0.20399272916666433
        },
        {
          "name": "D2",
          "midi": 38,
          "time": 36.04160899999989,
          "velocity": 0.8661417322834646,
          "duration": 0.20399272916666433
        },
        {
          "name": "A#2",
          "midi": 46,
          "time": 36.04160899999989,
          "velocity": 0.8661417322834646,
          "duration": 0.20399272916666433
        },
        {
          "name": "C2",
          "midi": 36,
          "time": 36.24994199999988,
          "velocity": 0.8661417322834646,
          "duration": 0.20399272916666433
        },
        {
          "name": "A#2",
          "midi": 46,
          "time": 36.24994199999988,
          "velocity": 0.8661417322834646,
          "duration": 0.20399272916666433
        },
        {
          "name": "D2",
          "midi": 38,
          "time": 36.45827499999988,
          "velocity": 0.8661417322834646,
          "duration": 0.20399272916666433
        },
        {
          "name": "A#2",
          "midi": 46,
          "time": 36.45827499999988,
          "velocity": 0.8661417322834646,
          "duration": 0.20399272916666433
        },
        {
          "name": "C2",
          "midi": 36,
          "time": 36.666607999999876,
          "velocity": 0.8661417322834646,
          "duration": 0.20399272916666433
        },
        {
          "name": "A#2",
          "midi": 46,
          "time": 36.666607999999876,
          "velocity": 0.8661417322834646,
          "duration": 0.20399272916666433
        },
        {
          "name": "D2",
          "midi": 38,
          "time": 36.87494099999987,
          "velocity": 0.8661417322834646,
          "duration": 0.20399272916666433
        },
        {
          "name": "A#2",
          "midi": 46,
          "time": 36.87494099999987,
          "velocity": 0.8661417322834646,
          "duration": 0.20399272916666433
        },
        {
          "name": "C2",
          "midi": 36,
          "time": 37.08327399999987,
          "velocity": 0.8661417322834646,
          "duration": 0.20399272916666433
        },
        {
          "name": "A#2",
          "midi": 46,
          "time": 37.08327399999987,
          "velocity": 0.8661417322834646,
          "duration": 0.20399272916666433
        },
        {
          "name": "D2",
          "midi": 38,
          "time": 37.291606999999864,
          "velocity": 0.8661417322834646,
          "duration": 0.20399272916666433
        },
        {
          "name": "A#2",
          "midi": 46,
          "time": 37.291606999999864,
          "velocity": 0.8661417322834646,
          "duration": 0.20399272916666433
        },
        {
          "name": "C2",
          "midi": 36,
          "time": 37.49993999999986,
          "velocity": 0.8661417322834646,
          "duration": 0.20399272916666433
        },
        {
          "name": "A#2",
          "midi": 46,
          "time": 37.49993999999986,
          "velocity": 0.8661417322834646,
          "duration": 0.20399272916666433
        },
        {
          "name": "D2",
          "midi": 38,
          "time": 37.708272999999856,
          "velocity": 0.8661417322834646,
          "duration": 0.20399272916666433
        },
        {
          "name": "A#2",
          "midi": 46,
          "time": 37.708272999999856,
          "velocity": 0.8661417322834646,
          "duration": 0.20399272916666433
        },
        {
          "name": "C2",
          "midi": 36,
          "time": 37.91660599999985,
          "velocity": 0.8661417322834646,
          "duration": 0.20399272916666433
        },
        {
          "name": "A#2",
          "midi": 46,
          "time": 37.91660599999985,
          "velocity": 0.8661417322834646,
          "duration": 0.20399272916666433
        },
        {
          "name": "D2",
          "midi": 38,
          "time": 38.12493899999985,
          "velocity": 0.8661417322834646,
          "duration": 0.20399272916666433
        },
        {
          "name": "A#2",
          "midi": 46,
          "time": 38.12493899999985,
          "velocity": 0.8661417322834646,
          "duration": 0.20399272916666433
        },
        {
          "name": "C2",
          "midi": 36,
          "time": 38.333271999999845,
          "velocity": 0.8661417322834646,
          "duration": 0.20399272916666433
        },
        {
          "name": "A#2",
          "midi": 46,
          "time": 38.333271999999845,
          "velocity": 0.8661417322834646,
          "duration": 0.20399272916666433
        },
        {
          "name": "D2",
          "midi": 38,
          "time": 38.54160499999984,
          "velocity": 0.8661417322834646,
          "duration": 0.20399272916666433
        },
        {
          "name": "A#2",
          "midi": 46,
          "time": 38.54160499999984,
          "velocity": 0.8661417322834646,
          "duration": 0.20399272916666433
        },
        {
          "name": "C2",
          "midi": 36,
          "time": 38.74993799999984,
          "velocity": 0.8661417322834646,
          "duration": 0.20399272916666433
        },
        {
          "name": "A#2",
          "midi": 46,
          "time": 38.74993799999984,
          "velocity": 0.8661417322834646,
          "duration": 0.20399272916666433
        },
        {
          "name": "D2",
          "midi": 38,
          "time": 38.95827099999983,
          "velocity": 0.8661417322834646,
          "duration": 0.20399272916666433
        },
        {
          "name": "A#2",
          "midi": 46,
          "time": 38.95827099999983,
          "velocity": 0.8661417322834646,
          "duration": 0.20399272916666433
        },
        {
          "name": "C2",
          "midi": 36,
          "time": 39.16660399999983,
          "velocity": 0.8661417322834646,
          "duration": 0.20399272916666433
        },
        {
          "name": "A#2",
          "midi": 46,
          "time": 39.16660399999983,
          "velocity": 0.8661417322834646,
          "duration": 0.20399272916666433
        },
        {
          "name": "D2",
          "midi": 38,
          "time": 39.374936999999825,
          "velocity": 0.8661417322834646,
          "duration": 0.20399272916666433
        },
        {
          "name": "A#2",
          "midi": 46,
          "time": 39.374936999999825,
          "velocity": 0.8661417322834646,
          "duration": 0.20399272916666433
        },
        {
          "name": "C2",
          "midi": 36,
          "time": 39.58326999999982,
          "velocity": 0.8661417322834646,
          "duration": 0.20399272916666433
        },
        {
          "name": "A#2",
          "midi": 46,
          "time": 39.58326999999982,
          "velocity": 0.8661417322834646,
          "duration": 0.20399272916666433
        },
        {
          "name": "D2",
          "midi": 38,
          "time": 39.79160299999982,
          "velocity": 0.8661417322834646,
          "duration": 0.20399272916666433
        },
        {
          "name": "A#2",
          "midi": 46,
          "time": 39.79160299999982,
          "velocity": 0.8661417322834646,
          "duration": 0.20399272916666433
        },
        {
          "name": "C2",
          "midi": 36,
          "time": 39.99993599999981,
          "velocity": 0.8661417322834646,
          "duration": 0.20399272916666433
        },
        {
          "name": "A#2",
          "midi": 46,
          "time": 39.99993599999981,
          "velocity": 0.8661417322834646,
          "duration": 0.20399272916666433
        },
        {
          "name": "D2",
          "midi": 38,
          "time": 40.20826899999981,
          "velocity": 0.8661417322834646,
          "duration": 0.20399272916666433
        },
        {
          "name": "A#2",
          "midi": 46,
          "time": 40.20826899999981,
          "velocity": 0.8661417322834646,
          "duration": 0.20399272916666433
        },
        {
          "name": "C2",
          "midi": 36,
          "time": 40.416601999999806,
          "velocity": 0.8661417322834646,
          "duration": 0.20399272916666433
        },
        {
          "name": "A#2",
          "midi": 46,
          "time": 40.416601999999806,
          "velocity": 0.8661417322834646,
          "duration": 0.20399272916666433
        },
        {
          "name": "D2",
          "midi": 38,
          "time": 40.6249349999998,
          "velocity": 0.8661417322834646,
          "duration": 0.20399272916666433
        },
        {
          "name": "A#2",
          "midi": 46,
          "time": 40.6249349999998,
          "velocity": 0.8661417322834646,
          "duration": 0.20399272916666433
        },
        {
          "name": "C2",
          "midi": 36,
          "time": 40.8332679999998,
          "velocity": 0.8661417322834646,
          "duration": 0.20399272916666433
        },
        {
          "name": "A#2",
          "midi": 46,
          "time": 40.8332679999998,
          "velocity": 0.8661417322834646,
          "duration": 0.20399272916666433
        },
        {
          "name": "D2",
          "midi": 38,
          "time": 41.041600999999794,
          "velocity": 0.8661417322834646,
          "duration": 0.20399272916666433
        },
        {
          "name": "A#2",
          "midi": 46,
          "time": 41.041600999999794,
          "velocity": 0.8661417322834646,
          "duration": 0.20399272916666433
        },
        {
          "name": "C2",
          "midi": 36,
          "time": 41.24993399999979,
          "velocity": 0.8661417322834646,
          "duration": 0.20399272916666433
        },
        {
          "name": "A#2",
          "midi": 46,
          "time": 41.24993399999979,
          "velocity": 0.8661417322834646,
          "duration": 0.20399272916666433
        },
        {
          "name": "D2",
          "midi": 38,
          "time": 41.458266999999786,
          "velocity": 0.8661417322834646,
          "duration": 0.20399272916666433
        },
        {
          "name": "A#2",
          "midi": 46,
          "time": 41.458266999999786,
          "velocity": 0.8661417322834646,
          "duration": 0.20399272916666433
        },
        {
          "name": "C2",
          "midi": 36,
          "time": 41.66659999999978,
          "velocity": 0.8661417322834646,
          "duration": 0.20399272916666433
        },
        {
          "name": "A#2",
          "midi": 46,
          "time": 41.66659999999978,
          "velocity": 0.8661417322834646,
          "duration": 0.20399272916666433
        },
        {
          "name": "D2",
          "midi": 38,
          "time": 41.87493299999978,
          "velocity": 0.8661417322834646,
          "duration": 0.20399272916666433
        },
        {
          "name": "A#2",
          "midi": 46,
          "time": 41.87493299999978,
          "velocity": 0.8661417322834646,
          "duration": 0.20399272916666433
        },
        {
          "name": "C2",
          "midi": 36,
          "time": 42.083265999999774,
          "velocity": 0.8661417322834646,
          "duration": 0.20399272916666433
        },
        {
          "name": "A#2",
          "midi": 46,
          "time": 42.083265999999774,
          "velocity": 0.8661417322834646,
          "duration": 0.20399272916666433
        },
        {
          "name": "D2",
          "midi": 38,
          "time": 42.29159899999977,
          "velocity": 0.8661417322834646,
          "duration": 0.20399272916666433
        },
        {
          "name": "A#2",
          "midi": 46,
          "time": 42.29159899999977,
          "velocity": 0.8661417322834646,
          "duration": 0.20399272916666433
        },
        {
          "name": "C2",
          "midi": 36,
          "time": 42.49993199999977,
          "velocity": 0.8661417322834646,
          "duration": 0.20399272916666433
        },
        {
          "name": "A#2",
          "midi": 46,
          "time": 42.49993199999977,
          "velocity": 0.8661417322834646,
          "duration": 0.20399272916666433
        },
        {
          "name": "D2",
          "midi": 38,
          "time": 42.70826499999976,
          "velocity": 0.8661417322834646,
          "duration": 0.20399272916666433
        },
        {
          "name": "A#2",
          "midi": 46,
          "time": 42.70826499999976,
          "velocity": 0.8661417322834646,
          "duration": 0.20399272916666433
        },
        {
          "name": "C#3",
          "midi": 49,
          "time": 42.70826499999976,
          "velocity": 0.8661417322834646,
          "duration": 0.20399272916666433
        },
        {
          "name": "C2",
          "midi": 36,
          "time": 42.91659799999976,
          "velocity": 0.8661417322834646,
          "duration": 0.20399272916666433
        },
        {
          "name": "A#2",
          "midi": 46,
          "time": 42.91659799999976,
          "velocity": 0.8661417322834646,
          "duration": 0.20399272916666433
        },
        {
          "name": "D2",
          "midi": 38,
          "time": 43.124930999999755,
          "velocity": 0.8661417322834646,
          "duration": 0.20399272916666433
        },
        {
          "name": "A#2",
          "midi": 46,
          "time": 43.124930999999755,
          "velocity": 0.8661417322834646,
          "duration": 0.20399272916666433
        },
        {
          "name": "C2",
          "midi": 36,
          "time": 43.33326399999975,
          "velocity": 0.8661417322834646,
          "duration": 0.20399272916666433
        },
        {
          "name": "A#2",
          "midi": 46,
          "time": 43.33326399999975,
          "velocity": 0.8661417322834646,
          "duration": 0.20399272916666433
        },
        {
          "name": "D2",
          "midi": 38,
          "time": 43.54159699999975,
          "velocity": 0.8661417322834646,
          "duration": 0.20399272916666433
        },
        {
          "name": "A#2",
          "midi": 46,
          "time": 43.54159699999975,
          "velocity": 0.8661417322834646,
          "duration": 0.20399272916666433
        },
        {
          "name": "C2",
          "midi": 36,
          "time": 43.74992999999974,
          "velocity": 0.8661417322834646,
          "duration": 0.20399272916666433
        },
        {
          "name": "A#2",
          "midi": 46,
          "time": 43.74992999999974,
          "velocity": 0.8661417322834646,
          "duration": 0.20399272916666433
        },
        {
          "name": "D2",
          "midi": 38,
          "time": 43.95826299999974,
          "velocity": 0.8661417322834646,
          "duration": 0.20399272916666433
        },
        {
          "name": "A#2",
          "midi": 46,
          "time": 43.95826299999974,
          "velocity": 0.8661417322834646,
          "duration": 0.20399272916666433
        },
        {
          "name": "C2",
          "midi": 36,
          "time": 44.166595999999736,
          "velocity": 0.8661417322834646,
          "duration": 0.20399272916666433
        },
        {
          "name": "A#2",
          "midi": 46,
          "time": 44.166595999999736,
          "velocity": 0.8661417322834646,
          "duration": 0.20399272916666433
        },
        {
          "name": "D2",
          "midi": 38,
          "time": 44.37492899999973,
          "velocity": 0.8661417322834646,
          "duration": 0.20399272916666433
        },
        {
          "name": "A#2",
          "midi": 46,
          "time": 44.37492899999973,
          "velocity": 0.8661417322834646,
          "duration": 0.20399272916666433
        },
        {
          "name": "C#3",
          "midi": 49,
          "time": 44.37492899999973,
          "velocity": 0.8661417322834646,
          "duration": 0.20399272916666433
        },
        {
          "name": "C2",
          "midi": 36,
          "time": 44.58326199999973,
          "velocity": 0.8661417322834646,
          "duration": 0.20399272916666433
        },
        {
          "name": "A#2",
          "midi": 46,
          "time": 44.58326199999973,
          "velocity": 0.8661417322834646,
          "duration": 0.20399272916666433
        },
        {
          "name": "D2",
          "midi": 38,
          "time": 44.791594999999724,
          "velocity": 0.8661417322834646,
          "duration": 0.20399272916666433
        },
        {
          "name": "A#2",
          "midi": 46,
          "time": 44.791594999999724,
          "velocity": 0.8661417322834646,
          "duration": 0.20399272916666433
        },
        {
          "name": "C2",
          "midi": 36,
          "time": 44.99992799999972,
          "velocity": 0.8661417322834646,
          "duration": 0.20399272916666433
        },
        {
          "name": "A#2",
          "midi": 46,
          "time": 44.99992799999972,
          "velocity": 0.8661417322834646,
          "duration": 0.20399272916666433
        },
        {
          "name": "D2",
          "midi": 38,
          "time": 45.208260999999716,
          "velocity": 0.8661417322834646,
          "duration": 0.20399272916666433
        },
        {
          "name": "A#2",
          "midi": 46,
          "time": 45.208260999999716,
          "velocity": 0.8661417322834646,
          "duration": 0.20399272916666433
        },
        {
          "name": "C2",
          "midi": 36,
          "time": 45.41659399999971,
          "velocity": 0.8661417322834646,
          "duration": 0.20399272916666433
        },
        {
          "name": "A#2",
          "midi": 46,
          "time": 45.41659399999971,
          "velocity": 0.8661417322834646,
          "duration": 0.20399272916666433
        },
        {
          "name": "D2",
          "midi": 38,
          "time": 45.62492699999971,
          "velocity": 0.8661417322834646,
          "duration": 0.20399272916666433
        },
        {
          "name": "A#2",
          "midi": 46,
          "time": 45.62492699999971,
          "velocity": 0.8661417322834646,
          "duration": 0.20399272916666433
        },
        {
          "name": "C2",
          "midi": 36,
          "time": 45.833259999999704,
          "velocity": 0.8661417322834646,
          "duration": 0.20399272916666433
        },
        {
          "name": "A#2",
          "midi": 46,
          "time": 45.833259999999704,
          "velocity": 0.8661417322834646,
          "duration": 0.20399272916666433
        },
        {
          "name": "C#3",
          "midi": 49,
          "time": 45.833259999999704,
          "velocity": 0.8661417322834646,
          "duration": 0.20399272916666433
        },
        {
          "name": "D2",
          "midi": 38,
          "time": 46.0415929999997,
          "velocity": 0.8661417322834646,
          "duration": 0.20399272916666433
        },
        {
          "name": "A#2",
          "midi": 46,
          "time": 46.0415929999997,
          "velocity": 0.8661417322834646,
          "duration": 0.20399272916666433
        },
        {
          "name": "C2",
          "midi": 36,
          "time": 46.2499259999997,
          "velocity": 0.8661417322834646,
          "duration": 0.20399272916666433
        },
        {
          "name": "A#2",
          "midi": 46,
          "time": 46.2499259999997,
          "velocity": 0.8661417322834646,
          "duration": 0.20399272916666433
        },
        {
          "name": "D2",
          "midi": 38,
          "time": 46.45825899999969,
          "velocity": 0.8661417322834646,
          "duration": 0.20399272916666433
        },
        {
          "name": "A#2",
          "midi": 46,
          "time": 46.45825899999969,
          "velocity": 0.8661417322834646,
          "duration": 0.20399272916666433
        },
        {
          "name": "C2",
          "midi": 36,
          "time": 46.66659199999969,
          "velocity": 0.8661417322834646,
          "duration": 0.20399272916666433
        },
        {
          "name": "A#2",
          "midi": 46,
          "time": 46.66659199999969,
          "velocity": 0.8661417322834646,
          "duration": 0.20399272916666433
        },
        {
          "name": "D2",
          "midi": 38,
          "time": 46.874924999999685,
          "velocity": 0.8661417322834646,
          "duration": 0.20399272916666433
        },
        {
          "name": "A#2",
          "midi": 46,
          "time": 46.874924999999685,
          "velocity": 0.8661417322834646,
          "duration": 0.20399272916666433
        },
        {
          "name": "C2",
          "midi": 36,
          "time": 47.08325799999968,
          "velocity": 0.8661417322834646,
          "duration": 0.20399272916666433
        },
        {
          "name": "A#2",
          "midi": 46,
          "time": 47.08325799999968,
          "velocity": 0.8661417322834646,
          "duration": 0.20399272916666433
        },
        {
          "name": "D2",
          "midi": 38,
          "time": 47.29159099999968,
          "velocity": 0.8661417322834646,
          "duration": 0.20399272916666433
        },
        {
          "name": "A#2",
          "midi": 46,
          "time": 47.29159099999968,
          "velocity": 0.8661417322834646,
          "duration": 0.20399272916666433
        },
        {
          "name": "C2",
          "midi": 36,
          "time": 47.49992399999967,
          "velocity": 0.8661417322834646,
          "duration": 0.20399272916666433
        },
        {
          "name": "A#2",
          "midi": 46,
          "time": 47.49992399999967,
          "velocity": 0.8661417322834646,
          "duration": 0.20399272916666433
        },
        {
          "name": "D2",
          "midi": 38,
          "time": 47.70825699999967,
          "velocity": 0.8661417322834646,
          "duration": 0.20399272916666433
        },
        {
          "name": "A#2",
          "midi": 46,
          "time": 47.70825699999967,
          "velocity": 0.8661417322834646,
          "duration": 0.20399272916666433
        },
        {
          "name": "C2",
          "midi": 36,
          "time": 47.916589999999665,
          "velocity": 0.8661417322834646,
          "duration": 0.20399272916666433
        },
        {
          "name": "A#2",
          "midi": 46,
          "time": 47.916589999999665,
          "velocity": 0.8661417322834646,
          "duration": 0.20399272916666433
        },
        {
          "name": "D2",
          "midi": 38,
          "time": 48.12492299999966,
          "velocity": 0.8661417322834646,
          "duration": 0.20399272916666433
        },
        {
          "name": "A#2",
          "midi": 46,
          "time": 48.12492299999966,
          "velocity": 0.8661417322834646,
          "duration": 0.20399272916666433
        },
        {
          "name": "C2",
          "midi": 36,
          "time": 48.33325599999966,
          "velocity": 0.8661417322834646,
          "duration": 0.20399272916666433
        },
        {
          "name": "A#2",
          "midi": 46,
          "time": 48.33325599999966,
          "velocity": 0.8661417322834646,
          "duration": 0.20399272916666433
        },
        {
          "name": "D2",
          "midi": 38,
          "time": 48.541588999999654,
          "velocity": 0.8661417322834646,
          "duration": 0.20399272916666433
        },
        {
          "name": "A#2",
          "midi": 46,
          "time": 48.541588999999654,
          "velocity": 0.8661417322834646,
          "duration": 0.20399272916666433
        },
        {
          "name": "C2",
          "midi": 36,
          "time": 48.74992199999965,
          "velocity": 0.8661417322834646,
          "duration": 0.20399272916666433
        },
        {
          "name": "A#2",
          "midi": 46,
          "time": 48.74992199999965,
          "velocity": 0.8661417322834646,
          "duration": 0.20399272916666433
        },
        {
          "name": "D2",
          "midi": 38,
          "time": 48.958254999999646,
          "velocity": 0.8661417322834646,
          "duration": 0.20399272916666433
        },
        {
          "name": "A#2",
          "midi": 46,
          "time": 48.958254999999646,
          "velocity": 0.8661417322834646,
          "duration": 0.20399272916666433
        },
        {
          "name": "C2",
          "midi": 36,
          "time": 49.16658799999964,
          "velocity": 0.8661417322834646,
          "duration": 0.20399272916666433
        },
        {
          "name": "A#2",
          "midi": 46,
          "time": 49.16658799999964,
          "velocity": 0.8661417322834646,
          "duration": 0.20399272916666433
        },
        {
          "name": "D2",
          "midi": 38,
          "time": 49.37492099999964,
          "velocity": 0.8661417322834646,
          "duration": 0.20399272916666433
        },
        {
          "name": "A#2",
          "midi": 46,
          "time": 49.37492099999964,
          "velocity": 0.8661417322834646,
          "duration": 0.20399272916666433
        },
        {
          "name": "C#3",
          "midi": 49,
          "time": 49.37492099999964,
          "velocity": 0.8661417322834646,
          "duration": 0.20399272916666433
        },
        {
          "name": "C2",
          "midi": 36,
          "time": 49.583253999999634,
          "velocity": 0.8661417322834646,
          "duration": 0.20399272916666433
        },
        {
          "name": "A#2",
          "midi": 46,
          "time": 49.583253999999634,
          "velocity": 0.8661417322834646,
          "duration": 0.20399272916666433
        },
        {
          "name": "D2",
          "midi": 38,
          "time": 49.79158699999963,
          "velocity": 0.8661417322834646,
          "duration": 0.20399272916666433
        },
        {
          "name": "A#2",
          "midi": 46,
          "time": 49.79158699999963,
          "velocity": 0.8661417322834646,
          "duration": 0.20399272916666433
        },
        {
          "name": "C2",
          "midi": 36,
          "time": 49.999919999999626,
          "velocity": 0.8661417322834646,
          "duration": 0.20399272916666433
        },
        {
          "name": "A#2",
          "midi": 46,
          "time": 49.999919999999626,
          "velocity": 0.8661417322834646,
          "duration": 0.20399272916666433
        },
        {
          "name": "D2",
          "midi": 38,
          "time": 50.20825299999962,
          "velocity": 0.8661417322834646,
          "duration": 0.20399272916666433
        },
        {
          "name": "A#2",
          "midi": 46,
          "time": 50.20825299999962,
          "velocity": 0.8661417322834646,
          "duration": 0.20399272916666433
        },
        {
          "name": "C2",
          "midi": 36,
          "time": 50.41658599999962,
          "velocity": 0.8661417322834646,
          "duration": 0.20399272916666433
        },
        {
          "name": "A#2",
          "midi": 46,
          "time": 50.41658599999962,
          "velocity": 0.8661417322834646,
          "duration": 0.20399272916666433
        },
        {
          "name": "D2",
          "midi": 38,
          "time": 50.624918999999615,
          "velocity": 0.8661417322834646,
          "duration": 0.20399272916666433
        },
        {
          "name": "A#2",
          "midi": 46,
          "time": 50.624918999999615,
          "velocity": 0.8661417322834646,
          "duration": 0.20399272916666433
        },
        {
          "name": "C2",
          "midi": 36,
          "time": 50.83325199999961,
          "velocity": 0.8661417322834646,
          "duration": 0.2734370625000011
        },
        {
          "name": "C#3",
          "midi": 49,
          "time": 51.111029333332944,
          "velocity": 0.8661417322834646,
          "duration": 0.2734370625000011
        },
        {
          "name": "C2",
          "midi": 36,
          "time": 51.38880666666628,
          "velocity": 0.8661417322834646,
          "duration": 0.2734370625000011
        },
        {
          "name": "C#3",
          "midi": 49,
          "time": 51.66658399999961,
          "velocity": 0.8661417322834646,
          "duration": 0.2734370625000011
        },
        {
          "name": "D2",
          "midi": 38,
          "time": 51.94436133333294,
          "velocity": 0.8661417322834646,
          "duration": 0.2734370625000011
        },
        {
          "name": "C2",
          "midi": 36,
          "time": 52.222138666666275,
          "velocity": 0.8661417322834646,
          "duration": 0.2734370625000011
        },
        {
          "name": "C2",
          "midi": 36,
          "time": 52.49991599999961,
          "velocity": 0.8661417322834646,
          "duration": 0.20399272916666433
        },
        {
          "name": "A#2",
          "midi": 46,
          "time": 52.49991599999961,
          "velocity": 0.8661417322834646,
          "duration": 0.20399272916666433
        },
        {
          "name": "A#2",
          "midi": 46,
          "time": 52.708248999999604,
          "velocity": 0.8661417322834646,
          "duration": 0.20399272916666433
        },
        {
          "name": "D2",
          "midi": 38,
          "time": 52.9165819999996,
          "velocity": 0.8661417322834646,
          "duration": 0.20399272916666433
        },
        {
          "name": "A#2",
          "midi": 46,
          "time": 52.9165819999996,
          "velocity": 0.8661417322834646,
          "duration": 0.20399272916666433
        },
        {
          "name": "A#2",
          "midi": 46,
          "time": 53.124914999999596,
          "velocity": 0.8661417322834646,
          "duration": 0.20399272916666433
        },
        {
          "name": "C2",
          "midi": 36,
          "time": 53.33324799999959,
          "velocity": 0.8661417322834646,
          "duration": 0.20399272916666433
        },
        {
          "name": "A#2",
          "midi": 46,
          "time": 53.33324799999959,
          "velocity": 0.8661417322834646,
          "duration": 0.20399272916666433
        },
        {
          "name": "A#2",
          "midi": 46,
          "time": 53.54158099999959,
          "velocity": 0.8661417322834646,
          "duration": 0.20399272916666433
        },
        {
          "name": "D2",
          "midi": 38,
          "time": 53.749913999999585,
          "velocity": 0.8661417322834646,
          "duration": 0.20399272916666433
        },
        {
          "name": "A#2",
          "midi": 46,
          "time": 53.749913999999585,
          "velocity": 0.8661417322834646,
          "duration": 0.20399272916666433
        },
        {
          "name": "A#2",
          "midi": 46,
          "time": 53.95824699999958,
          "velocity": 0.8661417322834646,
          "duration": 0.20399272916666433
        },
        {
          "name": "C2",
          "midi": 36,
          "time": 54.16657999999958,
          "velocity": 0.8661417322834646,
          "duration": 0.20399272916666433
        },
        {
          "name": "A#2",
          "midi": 46,
          "time": 54.16657999999958,
          "velocity": 0.8661417322834646,
          "duration": 0.20399272916666433
        },
        {
          "name": "A#2",
          "midi": 46,
          "time": 54.37491299999957,
          "velocity": 0.8661417322834646,
          "duration": 0.20399272916666433
        },
        {
          "name": "D2",
          "midi": 38,
          "time": 54.58324599999957,
          "velocity": 0.8661417322834646,
          "duration": 0.20399272916666433
        },
        {
          "name": "A#2",
          "midi": 46,
          "time": 54.58324599999957,
          "velocity": 0.8661417322834646,
          "duration": 0.20399272916666433
        },
        {
          "name": "A#2",
          "midi": 46,
          "time": 54.791578999999565,
          "velocity": 0.8661417322834646,
          "duration": 0.20399272916666433
        },
        {
          "name": "C2",
          "midi": 36,
          "time": 54.99991199999956,
          "velocity": 0.8661417322834646,
          "duration": 0.3081592291666695
        },
        {
          "name": "C#3",
          "midi": 49,
          "time": 54.99991199999956,
          "velocity": 0.8661417322834646,
          "duration": 0.3081592291666695
        },
        {
          "name": "C2",
          "midi": 36,
          "time": 55.31241149999956,
          "velocity": 0.8661417322834646,
          "duration": 0.3081592291666695
        },
        {
          "name": "C#3",
          "midi": 49,
          "time": 55.31241149999956,
          "velocity": 0.8661417322834646,
          "duration": 0.3081592291666695
        },
        {
          "name": "C2",
          "midi": 36,
          "time": 55.624910999999564,
          "velocity": 0.8661417322834646,
          "duration": 0.20399272916666433
        },
        {
          "name": "A#2",
          "midi": 46,
          "time": 55.624910999999564,
          "velocity": 0.8661417322834646,
          "duration": 0.20399272916666433
        },
        {
          "name": "A#2",
          "midi": 46,
          "time": 55.83324399999956,
          "velocity": 0.8661417322834646,
          "duration": 0.20399272916666433
        },
        {
          "name": "D2",
          "midi": 38,
          "time": 56.041576999999556,
          "velocity": 0.8661417322834646,
          "duration": 0.20399272916666433
        },
        {
          "name": "A#2",
          "midi": 46,
          "time": 56.041576999999556,
          "velocity": 0.8661417322834646,
          "duration": 0.20399272916666433
        },
        {
          "name": "A#2",
          "midi": 46,
          "time": 56.24990999999955,
          "velocity": 0.8661417322834646,
          "duration": 0.20399272916666433
        },
        {
          "name": "C2",
          "midi": 36,
          "time": 56.45824299999955,
          "velocity": 0.8661417322834646,
          "duration": 0.20399272916666433
        },
        {
          "name": "A#2",
          "midi": 46,
          "time": 56.45824299999955,
          "velocity": 0.8661417322834646,
          "duration": 0.20399272916666433
        },
        {
          "name": "A#2",
          "midi": 46,
          "time": 56.666575999999544,
          "velocity": 0.8661417322834646,
          "duration": 0.20399272916666433
        },
        {
          "name": "D2",
          "midi": 38,
          "time": 56.87490899999954,
          "velocity": 0.8661417322834646,
          "duration": 0.20399272916666433
        },
        {
          "name": "A#2",
          "midi": 46,
          "time": 56.87490899999954,
          "velocity": 0.8661417322834646,
          "duration": 0.20399272916666433
        },
        {
          "name": "A#2",
          "midi": 46,
          "time": 57.08324199999954,
          "velocity": 0.8661417322834646,
          "duration": 0.20399272916666433
        },
        {
          "name": "C2",
          "midi": 36,
          "time": 57.29157499999953,
          "velocity": 0.8661417322834646,
          "duration": 0.20399272916666433
        },
        {
          "name": "A#2",
          "midi": 46,
          "time": 57.29157499999953,
          "velocity": 0.8661417322834646,
          "duration": 0.20399272916666433
        },
        {
          "name": "A#2",
          "midi": 46,
          "time": 57.49990799999953,
          "velocity": 0.8661417322834646,
          "duration": 0.20399272916666433
        },
        {
          "name": "D2",
          "midi": 38,
          "time": 57.708240999999525,
          "velocity": 0.8661417322834646,
          "duration": 0.20399272916666433
        },
        {
          "name": "A#2",
          "midi": 46,
          "time": 57.708240999999525,
          "velocity": 0.8661417322834646,
          "duration": 0.20399272916666433
        },
        {
          "name": "A#2",
          "midi": 46,
          "time": 57.91657399999952,
          "velocity": 0.8661417322834646,
          "duration": 0.20399272916666433
        },
        {
          "name": "C2",
          "midi": 36,
          "time": 58.12490699999952,
          "velocity": 0.8661417322834646,
          "duration": 0.3081592291666695
        },
        {
          "name": "C#3",
          "midi": 49,
          "time": 58.12490699999952,
          "velocity": 0.8661417322834646,
          "duration": 0.3081592291666695
        },
        {
          "name": "C2",
          "midi": 36,
          "time": 58.43740649999952,
          "velocity": 0.8661417322834646,
          "duration": 0.3081592291666695
        },
        {
          "name": "C#3",
          "midi": 49,
          "time": 58.43740649999952,
          "velocity": 0.8661417322834646,
          "duration": 0.3081592291666695
        },
        {
          "name": "C2",
          "midi": 36,
          "time": 58.74990599999952,
          "velocity": 0.8661417322834646,
          "duration": 0.20399272916666433
        },
        {
          "name": "A#2",
          "midi": 46,
          "time": 58.74990599999952,
          "velocity": 0.8661417322834646,
          "duration": 0.20399272916666433
        },
        {
          "name": "A#2",
          "midi": 46,
          "time": 58.958238999999516,
          "velocity": 0.8661417322834646,
          "duration": 0.20399272916666433
        },
        {
          "name": "D2",
          "midi": 38,
          "time": 59.16657199999951,
          "velocity": 0.8661417322834646,
          "duration": 0.20399272916666433
        },
        {
          "name": "A#2",
          "midi": 46,
          "time": 59.16657199999951,
          "velocity": 0.8661417322834646,
          "duration": 0.20399272916666433
        },
        {
          "name": "A#2",
          "midi": 46,
          "time": 59.37490499999951,
          "velocity": 0.8661417322834646,
          "duration": 0.20399272916666433
        },
        {
          "name": "C2",
          "midi": 36,
          "time": 59.583237999999504,
          "velocity": 0.8661417322834646,
          "duration": 0.20399272916666433
        },
        {
          "name": "A#2",
          "midi": 46,
          "time": 59.583237999999504,
          "velocity": 0.8661417322834646,
          "duration": 0.20399272916666433
        },
        {
          "name": "A#2",
          "midi": 46,
          "time": 59.7915709999995,
          "velocity": 0.8661417322834646,
          "duration": 0.20399272916666433
        },
        {
          "name": "D2",
          "midi": 38,
          "time": 59.999903999999496,
          "velocity": 0.8661417322834646,
          "duration": 0.20399272916666433
        },
        {
          "name": "A#2",
          "midi": 46,
          "time": 59.999903999999496,
          "velocity": 0.8661417322834646,
          "duration": 0.20399272916666433
        },
        {
          "name": "A#2",
          "midi": 46,
          "time": 60.20823699999949,
          "velocity": 0.8661417322834646,
          "duration": 0.20399272916666433
        },
        {
          "name": "C2",
          "midi": 36,
          "time": 60.41656999999949,
          "velocity": 0.8661417322834646,
          "duration": 0.20399272916666433
        },
        {
          "name": "A#2",
          "midi": 46,
          "time": 60.41656999999949,
          "velocity": 0.8661417322834646,
          "duration": 0.20399272916666433
        },
        {
          "name": "A#2",
          "midi": 46,
          "time": 60.624902999999485,
          "velocity": 0.8661417322834646,
          "duration": 0.20399272916666433
        },
        {
          "name": "D2",
          "midi": 38,
          "time": 60.83323599999948,
          "velocity": 0.8661417322834646,
          "duration": 0.20399272916666433
        },
        {
          "name": "A#2",
          "midi": 46,
          "time": 60.83323599999948,
          "velocity": 0.8661417322834646,
          "duration": 0.20399272916666433
        },
        {
          "name": "A#2",
          "midi": 46,
          "time": 61.04156899999948,
          "velocity": 0.8661417322834646,
          "duration": 0.20399272916666433
        },
        {
          "name": "C2",
          "midi": 36,
          "time": 61.24990199999947,
          "velocity": 0.8661417322834646,
          "duration": 0.3081592291666695
        },
        {
          "name": "C#3",
          "midi": 49,
          "time": 61.24990199999947,
          "velocity": 0.8661417322834646,
          "duration": 0.3081592291666695
        },
        {
          "name": "C2",
          "midi": 36,
          "time": 61.562401499999474,
          "velocity": 0.8661417322834646,
          "duration": 0.3081592291666695
        },
        {
          "name": "C#3",
          "midi": 49,
          "time": 61.562401499999474,
          "velocity": 0.8661417322834646,
          "duration": 0.3081592291666695
        },
        {
          "name": "C2",
          "midi": 36,
          "time": 61.874900999999475,
          "velocity": 0.8661417322834646,
          "duration": 0.20399272916666433
        },
        {
          "name": "A#2",
          "midi": 46,
          "time": 61.874900999999475,
          "velocity": 0.8661417322834646,
          "duration": 0.20399272916666433
        },
        {
          "name": "A#2",
          "midi": 46,
          "time": 62.08323399999947,
          "velocity": 0.8661417322834646,
          "duration": 0.20399272916666433
        },
        {
          "name": "D2",
          "midi": 38,
          "time": 62.29156699999947,
          "velocity": 0.8661417322834646,
          "duration": 0.20399272916666433
        },
        {
          "name": "A#2",
          "midi": 46,
          "time": 62.29156699999947,
          "velocity": 0.8661417322834646,
          "duration": 0.20399272916666433
        },
        {
          "name": "A#2",
          "midi": 46,
          "time": 62.499899999999464,
          "velocity": 0.8661417322834646,
          "duration": 0.20399272916666433
        },
        {
          "name": "C2",
          "midi": 36,
          "time": 62.70823299999946,
          "velocity": 0.8661417322834646,
          "duration": 0.20399272916666433
        },
        {
          "name": "A#2",
          "midi": 46,
          "time": 62.70823299999946,
          "velocity": 0.8661417322834646,
          "duration": 0.20399272916666433
        },
        {
          "name": "A#2",
          "midi": 46,
          "time": 62.916565999999456,
          "velocity": 0.8661417322834646,
          "duration": 0.20399272916666433
        },
        {
          "name": "D2",
          "midi": 38,
          "time": 63.12489899999945,
          "velocity": 0.8661417322834646,
          "duration": 0.20399272916666433
        },
        {
          "name": "A#2",
          "midi": 46,
          "time": 63.12489899999945,
          "velocity": 0.8661417322834646,
          "duration": 0.20399272916666433
        },
        {
          "name": "A#2",
          "midi": 46,
          "time": 63.33323199999945,
          "velocity": 0.8661417322834646,
          "duration": 0.20399272916666433
        },
        {
          "name": "D2",
          "midi": 38,
          "time": 63.541564999999444,
          "velocity": 0.8661417322834646,
          "duration": 0.09982622916666628
        },
        {
          "name": "D2",
          "midi": 38,
          "time": 63.64573149999944,
          "velocity": 0.8661417322834646,
          "duration": 0.09982622916666628
        },
        {
          "name": "C2",
          "midi": 36,
          "time": 63.74989799999944,
          "velocity": 0.8661417322834646,
          "duration": 0.09982622916666628
        },
        {
          "name": "C2",
          "midi": 36,
          "time": 63.85406449999944,
          "velocity": 0.8661417322834646,
          "duration": 0.09982622916666628
        },
        {
          "name": "C2",
          "midi": 36,
          "time": 63.95823099999944,
          "velocity": 0.8661417322834646,
          "duration": 0.09982622916667339
        },
        {
          "name": "C2",
          "midi": 36,
          "time": 64.06239749999945,
          "velocity": 0.8661417322834646,
          "duration": 0.09982622916666628
        },
        {
          "name": "D2",
          "midi": 38,
          "time": 64.16656399999945,
          "velocity": 0.8661417322834646,
          "duration": 0.09982622916666628
        },
        {
          "name": "D2",
          "midi": 38,
          "time": 64.27073049999946,
          "velocity": 0.8661417322834646,
          "duration": 0.09982622916666628
        },
        {
          "name": "C2",
          "midi": 36,
          "time": 64.37489699999946,
          "velocity": 0.8661417322834646,
          "duration": 0.09982622916666628
        },
        {
          "name": "C2",
          "midi": 36,
          "time": 64.47906349999947,
          "velocity": 0.8661417322834646,
          "duration": 0.09982622916666628
        },
        {
          "name": "C2",
          "midi": 36,
          "time": 64.58322999999947,
          "velocity": 0.8661417322834646,
          "duration": 0.20399272916667144
        },
        {
          "name": "C2",
          "midi": 36,
          "time": 64.79156299999948,
          "velocity": 0.8661417322834646,
          "duration": 0.34722166666666965
        },
        {
          "name": "D2",
          "midi": 38,
          "time": 64.79156299999948,
          "velocity": 0.8661417322834646,
          "duration": 0.34722166666666965
        },
        {
          "name": "F#2",
          "midi": 42,
          "time": 64.79156299999948,
          "velocity": 0.8661417322834646,
          "duration": 0.34722166666666965
        },
        {
          "name": "C#3",
          "midi": 49,
          "time": 64.79156299999948,
          "velocity": 0.8661417322834646,
          "duration": 0.34722166666666965
        },
        {
          "name": "C2",
          "midi": 36,
          "time": 65.20822899999949,
          "velocity": 0.8661417322834646,
          "duration": 0.20399272916667144
        },
        {
          "name": "A#2",
          "midi": 46,
          "time": 65.20822899999949,
          "velocity": 0.8661417322834646,
          "duration": 0.20399272916667144
        },
        {
          "name": "C#3",
          "midi": 49,
          "time": 65.20822899999949,
          "velocity": 0.8661417322834646,
          "duration": 0.20399272916667144
        },
        {
          "name": "D2",
          "midi": 38,
          "time": 65.4165619999995,
          "velocity": 0.8661417322834646,
          "duration": 0.20399272916667144
        },
        {
          "name": "A#2",
          "midi": 46,
          "time": 65.4165619999995,
          "velocity": 0.8661417322834646,
          "duration": 0.20399272916667144
        },
        {
          "name": "C2",
          "midi": 36,
          "time": 65.62489499999951,
          "velocity": 0.8661417322834646,
          "duration": 0.20399272916667144
        },
        {
          "name": "A#2",
          "midi": 46,
          "time": 65.62489499999951,
          "velocity": 0.8661417322834646,
          "duration": 0.20399272916667144
        },
        {
          "name": "D2",
          "midi": 38,
          "time": 65.83322799999952,
          "velocity": 0.8661417322834646,
          "duration": 0.20399272916667144
        },
        {
          "name": "A#2",
          "midi": 46,
          "time": 65.83322799999952,
          "velocity": 0.8661417322834646,
          "duration": 0.20399272916667144
        },
        {
          "name": "C2",
          "midi": 36,
          "time": 66.04156099999953,
          "velocity": 0.8661417322834646,
          "duration": 0.20399272916667144
        },
        {
          "name": "A#2",
          "midi": 46,
          "time": 66.04156099999953,
          "velocity": 0.8661417322834646,
          "duration": 0.20399272916667144
        },
        {
          "name": "D2",
          "midi": 38,
          "time": 66.24989399999954,
          "velocity": 0.8661417322834646,
          "duration": 0.20399272916667144
        },
        {
          "name": "A#2",
          "midi": 46,
          "time": 66.24989399999954,
          "velocity": 0.8661417322834646,
          "duration": 0.20399272916667144
        },
        {
          "name": "C2",
          "midi": 36,
          "time": 66.45822699999955,
          "velocity": 0.8661417322834646,
          "duration": 0.20399272916667144
        },
        {
          "name": "A#2",
          "midi": 46,
          "time": 66.45822699999955,
          "velocity": 0.8661417322834646,
          "duration": 0.20399272916667144
        },
        {
          "name": "D2",
          "midi": 38,
          "time": 66.66655999999956,
          "velocity": 0.8661417322834646,
          "duration": 0.20399272916667144
        },
        {
          "name": "A#2",
          "midi": 46,
          "time": 66.66655999999956,
          "velocity": 0.8661417322834646,
          "duration": 0.20399272916667144
        },
        {
          "name": "C2",
          "midi": 36,
          "time": 66.87489299999957,
          "velocity": 0.8661417322834646,
          "duration": 0.20399272916667144
        },
        {
          "name": "A#2",
          "midi": 46,
          "time": 66.87489299999957,
          "velocity": 0.8661417322834646,
          "duration": 0.20399272916667144
        },
        {
          "name": "D2",
          "midi": 38,
          "time": 67.08322599999958,
          "velocity": 0.8661417322834646,
          "duration": 0.20399272916667144
        },
        {
          "name": "A#2",
          "midi": 46,
          "time": 67.08322599999958,
          "velocity": 0.8661417322834646,
          "duration": 0.20399272916667144
        },
        {
          "name": "C2",
          "midi": 36,
          "time": 67.2915589999996,
          "velocity": 0.8661417322834646,
          "duration": 0.20399272916667144
        },
        {
          "name": "A#2",
          "midi": 46,
          "time": 67.2915589999996,
          "velocity": 0.8661417322834646,
          "duration": 0.20399272916667144
        },
        {
          "name": "D2",
          "midi": 38,
          "time": 67.4998919999996,
          "velocity": 0.8661417322834646,
          "duration": 0.20399272916667144
        },
        {
          "name": "A#2",
          "midi": 46,
          "time": 67.4998919999996,
          "velocity": 0.8661417322834646,
          "duration": 0.20399272916667144
        },
        {
          "name": "C2",
          "midi": 36,
          "time": 67.70822499999962,
          "velocity": 0.8661417322834646,
          "duration": 0.20399272916667144
        },
        {
          "name": "A#2",
          "midi": 46,
          "time": 67.70822499999962,
          "velocity": 0.8661417322834646,
          "duration": 0.20399272916667144
        },
        {
          "name": "D2",
          "midi": 38,
          "time": 67.91655799999963,
          "velocity": 0.8661417322834646,
          "duration": 0.20399272916667144
        },
        {
          "name": "A#2",
          "midi": 46,
          "time": 67.91655799999963,
          "velocity": 0.8661417322834646,
          "duration": 0.20399272916667144
        },
        {
          "name": "C2",
          "midi": 36,
          "time": 68.12489099999964,
          "velocity": 0.8661417322834646,
          "duration": 0.20399272916667144
        },
        {
          "name": "A#2",
          "midi": 46,
          "time": 68.12489099999964,
          "velocity": 0.8661417322834646,
          "duration": 0.20399272916667144
        },
        {
          "name": "D2",
          "midi": 38,
          "time": 68.33322399999965,
          "velocity": 0.8661417322834646,
          "duration": 0.20399272916667144
        },
        {
          "name": "A#2",
          "midi": 46,
          "time": 68.33322399999965,
          "velocity": 0.8661417322834646,
          "duration": 0.20399272916667144
        },
        {
          "name": "C2",
          "midi": 36,
          "time": 68.54155699999966,
          "velocity": 0.8661417322834646,
          "duration": 0.20399272916667144
        },
        {
          "name": "A#2",
          "midi": 46,
          "time": 68.54155699999966,
          "velocity": 0.8661417322834646,
          "duration": 0.20399272916667144
        },
        {
          "name": "C#3",
          "midi": 49,
          "time": 68.54155699999966,
          "velocity": 0.8661417322834646,
          "duration": 0.20399272916667144
        },
        {
          "name": "D2",
          "midi": 38,
          "time": 68.74988999999967,
          "velocity": 0.8661417322834646,
          "duration": 0.20399272916667144
        },
        {
          "name": "A#2",
          "midi": 46,
          "time": 68.74988999999967,
          "velocity": 0.8661417322834646,
          "duration": 0.20399272916667144
        },
        {
          "name": "C2",
          "midi": 36,
          "time": 68.95822299999968,
          "velocity": 0.8661417322834646,
          "duration": 0.20399272916667144
        },
        {
          "name": "A#2",
          "midi": 46,
          "time": 68.95822299999968,
          "velocity": 0.8661417322834646,
          "duration": 0.20399272916667144
        },
        {
          "name": "D2",
          "midi": 38,
          "time": 69.16655599999969,
          "velocity": 0.8661417322834646,
          "duration": 0.20399272916667144
        },
        {
          "name": "A#2",
          "midi": 46,
          "time": 69.16655599999969,
          "velocity": 0.8661417322834646,
          "duration": 0.20399272916667144
        },
        {
          "name": "C2",
          "midi": 36,
          "time": 69.3748889999997,
          "velocity": 0.8661417322834646,
          "duration": 0.20399272916667144
        },
        {
          "name": "A#2",
          "midi": 46,
          "time": 69.3748889999997,
          "velocity": 0.8661417322834646,
          "duration": 0.20399272916667144
        },
        {
          "name": "D2",
          "midi": 38,
          "time": 69.58322199999971,
          "velocity": 0.8661417322834646,
          "duration": 0.20399272916667144
        },
        {
          "name": "A#2",
          "midi": 46,
          "time": 69.58322199999971,
          "velocity": 0.8661417322834646,
          "duration": 0.20399272916667144
        },
        {
          "name": "C2",
          "midi": 36,
          "time": 69.79155499999972,
          "velocity": 0.8661417322834646,
          "duration": 0.20399272916667144
        },
        {
          "name": "A#2",
          "midi": 46,
          "time": 69.79155499999972,
          "velocity": 0.8661417322834646,
          "duration": 0.20399272916667144
        },
        {
          "name": "D2",
          "midi": 38,
          "time": 69.99988799999973,
          "velocity": 0.8661417322834646,
          "duration": 0.20399272916667144
        },
        {
          "name": "A#2",
          "midi": 46,
          "time": 69.99988799999973,
          "velocity": 0.8661417322834646,
          "duration": 0.20399272916667144
        },
        {
          "name": "C2",
          "midi": 36,
          "time": 70.20822099999974,
          "velocity": 0.8661417322834646,
          "duration": 0.20399272916667144
        },
        {
          "name": "A#2",
          "midi": 46,
          "time": 70.20822099999974,
          "velocity": 0.8661417322834646,
          "duration": 0.20399272916667144
        },
        {
          "name": "D2",
          "midi": 38,
          "time": 70.41655399999975,
          "velocity": 0.8661417322834646,
          "duration": 0.20399272916667144
        },
        {
          "name": "A#2",
          "midi": 46,
          "time": 70.41655399999975,
          "velocity": 0.8661417322834646,
          "duration": 0.20399272916667144
        },
        {
          "name": "C2",
          "midi": 36,
          "time": 70.62488699999976,
          "velocity": 0.8661417322834646,
          "duration": 0.20399272916667144
        },
        {
          "name": "A#2",
          "midi": 46,
          "time": 70.62488699999976,
          "velocity": 0.8661417322834646,
          "duration": 0.20399272916667144
        },
        {
          "name": "D2",
          "midi": 38,
          "time": 70.83321999999977,
          "velocity": 0.8661417322834646,
          "duration": 0.20399272916667144
        },
        {
          "name": "A#2",
          "midi": 46,
          "time": 70.83321999999977,
          "velocity": 0.8661417322834646,
          "duration": 0.20399272916667144
        },
        {
          "name": "C2",
          "midi": 36,
          "time": 71.04155299999978,
          "velocity": 0.8661417322834646,
          "duration": 0.20399272916667144
        },
        {
          "name": "A#2",
          "midi": 46,
          "time": 71.04155299999978,
          "velocity": 0.8661417322834646,
          "duration": 0.20399272916667144
        },
        {
          "name": "D2",
          "midi": 38,
          "time": 71.24988599999979,
          "velocity": 0.8661417322834646,
          "duration": 0.20399272916667144
        },
        {
          "name": "A#2",
          "midi": 46,
          "time": 71.24988599999979,
          "velocity": 0.8661417322834646,
          "duration": 0.20399272916667144
        },
        {
          "name": "C2",
          "midi": 36,
          "time": 71.4582189999998,
          "velocity": 0.8661417322834646,
          "duration": 0.20399272916667144
        },
        {
          "name": "A#2",
          "midi": 46,
          "time": 71.4582189999998,
          "velocity": 0.8661417322834646,
          "duration": 0.20399272916667144
        },
        {
          "name": "D2",
          "midi": 38,
          "time": 71.66655199999981,
          "velocity": 0.8661417322834646,
          "duration": 0.20399272916667144
        },
        {
          "name": "A#2",
          "midi": 46,
          "time": 71.66655199999981,
          "velocity": 0.8661417322834646,
          "duration": 0.20399272916667144
        },
        {
          "name": "C2",
          "midi": 36,
          "time": 71.87488499999982,
          "velocity": 0.8661417322834646,
          "duration": 0.20399272916667144
        },
        {
          "name": "A#2",
          "midi": 46,
          "time": 71.87488499999982,
          "velocity": 0.8661417322834646,
          "duration": 0.20399272916667144
        },
        {
          "name": "D2",
          "midi": 38,
          "time": 72.08321799999983,
          "velocity": 0.8661417322834646,
          "duration": 0.20399272916667144
        },
        {
          "name": "A#2",
          "midi": 46,
          "time": 72.08321799999983,
          "velocity": 0.8661417322834646,
          "duration": 0.20399272916667144
        },
        {
          "name": "C#3",
          "midi": 49,
          "time": 72.08321799999983,
          "velocity": 0.8661417322834646,
          "duration": 0.20399272916667144
        },
        {
          "name": "C2",
          "midi": 36,
          "time": 72.29155099999984,
          "velocity": 0.8661417322834646,
          "duration": 0.20399272916667144
        },
        {
          "name": "A#2",
          "midi": 46,
          "time": 72.29155099999984,
          "velocity": 0.8661417322834646,
          "duration": 0.20399272916667144
        },
        {
          "name": "D2",
          "midi": 38,
          "time": 72.49988399999985,
          "velocity": 0.8661417322834646,
          "duration": 0.20399272916667144
        },
        {
          "name": "A#2",
          "midi": 46,
          "time": 72.49988399999985,
          "velocity": 0.8661417322834646,
          "duration": 0.20399272916667144
        },
        {
          "name": "C2",
          "midi": 36,
          "time": 72.70821699999986,
          "velocity": 0.8661417322834646,
          "duration": 0.20399272916667144
        },
        {
          "name": "A#2",
          "midi": 46,
          "time": 72.70821699999986,
          "velocity": 0.8661417322834646,
          "duration": 0.20399272916667144
        },
        {
          "name": "D2",
          "midi": 38,
          "time": 72.91654999999987,
          "velocity": 0.8661417322834646,
          "duration": 0.20399272916667144
        },
        {
          "name": "A#2",
          "midi": 46,
          "time": 72.91654999999987,
          "velocity": 0.8661417322834646,
          "duration": 0.20399272916667144
        },
        {
          "name": "C2",
          "midi": 36,
          "time": 73.12488299999988,
          "velocity": 0.8661417322834646,
          "duration": 0.20399272916667144
        },
        {
          "name": "A#2",
          "midi": 46,
          "time": 73.12488299999988,
          "velocity": 0.8661417322834646,
          "duration": 0.20399272916667144
        },
        {
          "name": "D2",
          "midi": 38,
          "time": 73.3332159999999,
          "velocity": 0.8661417322834646,
          "duration": 0.20399272916667144
        },
        {
          "name": "A#2",
          "midi": 46,
          "time": 73.3332159999999,
          "velocity": 0.8661417322834646,
          "duration": 0.20399272916667144
        },
        {
          "name": "C2",
          "midi": 36,
          "time": 73.5415489999999,
          "velocity": 0.8661417322834646,
          "duration": 0.20399272916667144
        },
        {
          "name": "A#2",
          "midi": 46,
          "time": 73.5415489999999,
          "velocity": 0.8661417322834646,
          "duration": 0.20399272916667144
        },
        {
          "name": "D2",
          "midi": 38,
          "time": 73.74988199999991,
          "velocity": 0.8661417322834646,
          "duration": 0.20399272916667144
        },
        {
          "name": "A#2",
          "midi": 46,
          "time": 73.74988199999991,
          "velocity": 0.8661417322834646,
          "duration": 0.20399272916667144
        },
        {
          "name": "C#3",
          "midi": 49,
          "time": 73.74988199999991,
          "velocity": 0.8661417322834646,
          "duration": 0.20399272916667144
        },
        {
          "name": "C2",
          "midi": 36,
          "time": 73.95821499999992,
          "velocity": 0.8661417322834646,
          "duration": 0.20399272916667144
        },
        {
          "name": "A#2",
          "midi": 46,
          "time": 73.95821499999992,
          "velocity": 0.8661417322834646,
          "duration": 0.20399272916667144
        },
        {
          "name": "D2",
          "midi": 38,
          "time": 74.16654799999993,
          "velocity": 0.8661417322834646,
          "duration": 0.20399272916667144
        },
        {
          "name": "A#2",
          "midi": 46,
          "time": 74.16654799999993,
          "velocity": 0.8661417322834646,
          "duration": 0.20399272916667144
        },
        {
          "name": "C2",
          "midi": 36,
          "time": 74.37488099999995,
          "velocity": 0.8661417322834646,
          "duration": 0.20399272916667144
        },
        {
          "name": "A#2",
          "midi": 46,
          "time": 74.37488099999995,
          "velocity": 0.8661417322834646,
          "duration": 0.20399272916667144
        },
        {
          "name": "D2",
          "midi": 38,
          "time": 74.58321399999996,
          "velocity": 0.8661417322834646,
          "duration": 0.20399272916667144
        },
        {
          "name": "A#2",
          "midi": 46,
          "time": 74.58321399999996,
          "velocity": 0.8661417322834646,
          "duration": 0.20399272916667144
        },
        {
          "name": "C2",
          "midi": 36,
          "time": 74.79154699999997,
          "velocity": 0.8661417322834646,
          "duration": 0.20399272916667144
        },
        {
          "name": "A#2",
          "midi": 46,
          "time": 74.79154699999997,
          "velocity": 0.8661417322834646,
          "duration": 0.20399272916667144
        },
        {
          "name": "D2",
          "midi": 38,
          "time": 74.99987999999998,
          "velocity": 0.8661417322834646,
          "duration": 0.20399272916667144
        },
        {
          "name": "A#2",
          "midi": 46,
          "time": 74.99987999999998,
          "velocity": 0.8661417322834646,
          "duration": 0.20399272916667144
        },
        {
          "name": "C2",
          "midi": 36,
          "time": 75.20821299999999,
          "velocity": 0.8661417322834646,
          "duration": 0.20399272916667144
        },
        {
          "name": "A#2",
          "midi": 46,
          "time": 75.20821299999999,
          "velocity": 0.8661417322834646,
          "duration": 0.20399272916667144
        },
        {
          "name": "C#3",
          "midi": 49,
          "time": 75.20821299999999,
          "velocity": 0.8661417322834646,
          "duration": 0.20399272916667144
        },
        {
          "name": "D2",
          "midi": 38,
          "time": 75.416546,
          "velocity": 0.8661417322834646,
          "duration": 0.20399272916667144
        },
        {
          "name": "A#2",
          "midi": 46,
          "time": 75.416546,
          "velocity": 0.8661417322834646,
          "duration": 0.20399272916667144
        },
        {
          "name": "C2",
          "midi": 36,
          "time": 75.624879,
          "velocity": 0.8661417322834646,
          "duration": 0.20399272916667144
        },
        {
          "name": "A#2",
          "midi": 46,
          "time": 75.624879,
          "velocity": 0.8661417322834646,
          "duration": 0.20399272916667144
        },
        {
          "name": "D2",
          "midi": 38,
          "time": 75.83321200000002,
          "velocity": 0.8661417322834646,
          "duration": 0.20399272916667144
        },
        {
          "name": "A#2",
          "midi": 46,
          "time": 75.83321200000002,
          "velocity": 0.8661417322834646,
          "duration": 0.20399272916667144
        },
        {
          "name": "C2",
          "midi": 36,
          "time": 76.04154500000003,
          "velocity": 0.8661417322834646,
          "duration": 0.20399272916667144
        },
        {
          "name": "A#2",
          "midi": 46,
          "time": 76.04154500000003,
          "velocity": 0.8661417322834646,
          "duration": 0.20399272916667144
        },
        {
          "name": "D2",
          "midi": 38,
          "time": 76.24987800000004,
          "velocity": 0.8661417322834646,
          "duration": 0.20399272916667144
        },
        {
          "name": "A#2",
          "midi": 46,
          "time": 76.24987800000004,
          "velocity": 0.8661417322834646,
          "duration": 0.20399272916667144
        },
        {
          "name": "C2",
          "midi": 36,
          "time": 76.45821100000005,
          "velocity": 0.8661417322834646,
          "duration": 0.20399272916667144
        },
        {
          "name": "A#2",
          "midi": 46,
          "time": 76.45821100000005,
          "velocity": 0.8661417322834646,
          "duration": 0.20399272916667144
        },
        {
          "name": "D2",
          "midi": 38,
          "time": 76.66654400000006,
          "velocity": 0.8661417322834646,
          "duration": 0.20399272916667144
        },
        {
          "name": "A#2",
          "midi": 46,
          "time": 76.66654400000006,
          "velocity": 0.8661417322834646,
          "duration": 0.20399272916667144
        },
        {
          "name": "C2",
          "midi": 36,
          "time": 76.87487700000007,
          "velocity": 0.8661417322834646,
          "duration": 0.20399272916667144
        },
        {
          "name": "A#2",
          "midi": 46,
          "time": 76.87487700000007,
          "velocity": 0.8661417322834646,
          "duration": 0.20399272916667144
        },
        {
          "name": "D2",
          "midi": 38,
          "time": 77.08321000000008,
          "velocity": 0.8661417322834646,
          "duration": 0.20399272916667144
        },
        {
          "name": "A#2",
          "midi": 46,
          "time": 77.08321000000008,
          "velocity": 0.8661417322834646,
          "duration": 0.20399272916667144
        },
        {
          "name": "C2",
          "midi": 36,
          "time": 77.29154300000009,
          "velocity": 0.8661417322834646,
          "duration": 0.20399272916667144
        },
        {
          "name": "A#2",
          "midi": 46,
          "time": 77.29154300000009,
          "velocity": 0.8661417322834646,
          "duration": 0.20399272916667144
        },
        {
          "name": "D2",
          "midi": 38,
          "time": 77.4998760000001,
          "velocity": 0.8661417322834646,
          "duration": 0.20399272916667144
        },
        {
          "name": "A#2",
          "midi": 46,
          "time": 77.4998760000001,
          "velocity": 0.8661417322834646,
          "duration": 0.20399272916667144
        },
        {
          "name": "C2",
          "midi": 36,
          "time": 77.70820900000011,
          "velocity": 0.8661417322834646,
          "duration": 0.20399272916667144
        },
        {
          "name": "A#2",
          "midi": 46,
          "time": 77.70820900000011,
          "velocity": 0.8661417322834646,
          "duration": 0.20399272916667144
        },
        {
          "name": "D2",
          "midi": 38,
          "time": 77.91654200000012,
          "velocity": 0.8661417322834646,
          "duration": 0.20399272916667144
        },
        {
          "name": "A#2",
          "midi": 46,
          "time": 77.91654200000012,
          "velocity": 0.8661417322834646,
          "duration": 0.20399272916667144
        },
        {
          "name": "C2",
          "midi": 36,
          "time": 78.12487500000013,
          "velocity": 0.8661417322834646,
          "duration": 0.20399272916667144
        },
        {
          "name": "A#2",
          "midi": 46,
          "time": 78.12487500000013,
          "velocity": 0.8661417322834646,
          "duration": 0.20399272916667144
        },
        {
          "name": "D2",
          "midi": 38,
          "time": 78.33320800000014,
          "velocity": 0.8661417322834646,
          "duration": 0.20399272916667144
        },
        {
          "name": "A#2",
          "midi": 46,
          "time": 78.33320800000014,
          "velocity": 0.8661417322834646,
          "duration": 0.20399272916667144
        },
        {
          "name": "C2",
          "midi": 36,
          "time": 78.54154100000015,
          "velocity": 0.8661417322834646,
          "duration": 0.20399272916667144
        },
        {
          "name": "A#2",
          "midi": 46,
          "time": 78.54154100000015,
          "velocity": 0.8661417322834646,
          "duration": 0.20399272916667144
        },
        {
          "name": "D2",
          "midi": 38,
          "time": 78.74987400000016,
          "velocity": 0.8661417322834646,
          "duration": 0.20399272916667144
        },
        {
          "name": "A#2",
          "midi": 46,
          "time": 78.74987400000016,
          "velocity": 0.8661417322834646,
          "duration": 0.20399272916667144
        },
        {
          "name": "C#3",
          "midi": 49,
          "time": 78.74987400000016,
          "velocity": 0.8661417322834646,
          "duration": 0.20399272916667144
        },
        {
          "name": "C2",
          "midi": 36,
          "time": 78.95820700000017,
          "velocity": 0.8661417322834646,
          "duration": 0.20399272916667144
        },
        {
          "name": "A#2",
          "midi": 46,
          "time": 78.95820700000017,
          "velocity": 0.8661417322834646,
          "duration": 0.20399272916667144
        },
        {
          "name": "D2",
          "midi": 38,
          "time": 79.16654000000018,
          "velocity": 0.8661417322834646,
          "duration": 0.20399272916667144
        },
        {
          "name": "A#2",
          "midi": 46,
          "time": 79.16654000000018,
          "velocity": 0.8661417322834646,
          "duration": 0.20399272916667144
        },
        {
          "name": "C2",
          "midi": 36,
          "time": 79.37487300000019,
          "velocity": 0.8661417322834646,
          "duration": 0.20399272916667144
        },
        {
          "name": "A#2",
          "midi": 46,
          "time": 79.37487300000019,
          "velocity": 0.8661417322834646,
          "duration": 0.20399272916667144
        },
        {
          "name": "D2",
          "midi": 38,
          "time": 79.5832060000002,
          "velocity": 0.8661417322834646,
          "duration": 0.20399272916667144
        },
        {
          "name": "A#2",
          "midi": 46,
          "time": 79.5832060000002,
          "velocity": 0.8661417322834646,
          "duration": 0.20399272916667144
        },
        {
          "name": "C2",
          "midi": 36,
          "time": 79.79153900000021,
          "velocity": 0.8661417322834646,
          "duration": 0.20399272916667144
        },
        {
          "name": "A#2",
          "midi": 46,
          "time": 79.79153900000021,
          "velocity": 0.8661417322834646,
          "duration": 0.20399272916667144
        },
        {
          "name": "D2",
          "midi": 38,
          "time": 79.99987200000022,
          "velocity": 0.8661417322834646,
          "duration": 0.20399272916667144
        },
        {
          "name": "A#2",
          "midi": 46,
          "time": 79.99987200000022,
          "velocity": 0.8661417322834646,
          "duration": 0.20399272916667144
        },
        {
          "name": "C2",
          "midi": 36,
          "time": 80.20820500000023,
          "velocity": 0.8661417322834646,
          "duration": 0.273437062499994
        },
        {
          "name": "C#3",
          "midi": 49,
          "time": 80.48598233333357,
          "velocity": 0.8661417322834646,
          "duration": 0.273437062499994
        },
        {
          "name": "C2",
          "midi": 36,
          "time": 80.7637596666669,
          "velocity": 0.8661417322834646,
          "duration": 0.273437062499994
        },
        {
          "name": "C#3",
          "midi": 49,
          "time": 81.04153700000023,
          "velocity": 0.8661417322834646,
          "duration": 0.273437062499994
        },
        {
          "name": "D2",
          "midi": 38,
          "time": 81.31931433333357,
          "velocity": 0.8661417322834646,
          "duration": 0.273437062499994
        },
        {
          "name": "C2",
          "midi": 36,
          "time": 81.5970916666669,
          "velocity": 0.8661417322834646,
          "duration": 0.273437062499994
        },
        {
          "name": "C2",
          "midi": 36,
          "time": 81.87486900000023,
          "velocity": 0.8661417322834646,
          "duration": 0.20399272916667144
        },
        {
          "name": "A#2",
          "midi": 46,
          "time": 81.87486900000023,
          "velocity": 0.8661417322834646,
          "duration": 0.20399272916667144
        },
        {
          "name": "A#2",
          "midi": 46,
          "time": 82.08320200000024,
          "velocity": 0.8661417322834646,
          "duration": 0.20399272916667144
        },
        {
          "name": "D2",
          "midi": 38,
          "time": 82.29153500000025,
          "velocity": 0.8661417322834646,
          "duration": 0.20399272916667144
        },
        {
          "name": "A#2",
          "midi": 46,
          "time": 82.29153500000025,
          "velocity": 0.8661417322834646,
          "duration": 0.20399272916667144
        },
        {
          "name": "A#2",
          "midi": 46,
          "time": 82.49986800000026,
          "velocity": 0.8661417322834646,
          "duration": 0.20399272916667144
        },
        {
          "name": "C2",
          "midi": 36,
          "time": 82.70820100000027,
          "velocity": 0.8661417322834646,
          "duration": 0.20399272916667144
        },
        {
          "name": "A#2",
          "midi": 46,
          "time": 82.70820100000027,
          "velocity": 0.8661417322834646,
          "duration": 0.20399272916667144
        },
        {
          "name": "A#2",
          "midi": 46,
          "time": 82.91653400000028,
          "velocity": 0.8661417322834646,
          "duration": 0.20399272916667144
        },
        {
          "name": "D2",
          "midi": 38,
          "time": 83.1248670000003,
          "velocity": 0.8661417322834646,
          "duration": 0.20399272916667144
        },
        {
          "name": "A#2",
          "midi": 46,
          "time": 83.1248670000003,
          "velocity": 0.8661417322834646,
          "duration": 0.20399272916667144
        },
        {
          "name": "A#2",
          "midi": 46,
          "time": 83.3332000000003,
          "velocity": 0.8661417322834646,
          "duration": 0.20399272916667144
        },
        {
          "name": "C2",
          "midi": 36,
          "time": 83.54153300000031,
          "velocity": 0.8661417322834646,
          "duration": 0.20399272916667144
        },
        {
          "name": "A#2",
          "midi": 46,
          "time": 83.54153300000031,
          "velocity": 0.8661417322834646,
          "duration": 0.20399272916667144
        },
        {
          "name": "A#2",
          "midi": 46,
          "time": 83.74986600000032,
          "velocity": 0.8661417322834646,
          "duration": 0.20399272916667144
        },
        {
          "name": "D2",
          "midi": 38,
          "time": 83.95819900000033,
          "velocity": 0.8661417322834646,
          "duration": 0.20399272916667144
        },
        {
          "name": "A#2",
          "midi": 46,
          "time": 83.95819900000033,
          "velocity": 0.8661417322834646,
          "duration": 0.20399272916667144
        },
        {
          "name": "A#2",
          "midi": 46,
          "time": 84.16653200000034,
          "velocity": 0.8661417322834646,
          "duration": 0.20399272916667144
        },
        {
          "name": "C2",
          "midi": 36,
          "time": 84.37486500000036,
          "velocity": 0.8661417322834646,
          "duration": 0.3081592291666624
        },
        {
          "name": "C#3",
          "midi": 49,
          "time": 84.37486500000036,
          "velocity": 0.8661417322834646,
          "duration": 0.3081592291666624
        },
        {
          "name": "C2",
          "midi": 36,
          "time": 84.68736450000036,
          "velocity": 0.8661417322834646,
          "duration": 0.3081592291666624
        },
        {
          "name": "C#3",
          "midi": 49,
          "time": 84.68736450000036,
          "velocity": 0.8661417322834646,
          "duration": 0.3081592291666624
        },
        {
          "name": "C2",
          "midi": 36,
          "time": 84.99986400000036,
          "velocity": 0.8661417322834646,
          "duration": 0.20399272916667144
        },
        {
          "name": "A#2",
          "midi": 46,
          "time": 84.99986400000036,
          "velocity": 0.8661417322834646,
          "duration": 0.20399272916667144
        },
        {
          "name": "A#2",
          "midi": 46,
          "time": 85.20819700000037,
          "velocity": 0.8661417322834646,
          "duration": 0.20399272916667144
        },
        {
          "name": "D2",
          "midi": 38,
          "time": 85.41653000000038,
          "velocity": 0.8661417322834646,
          "duration": 0.20399272916667144
        },
        {
          "name": "A#2",
          "midi": 46,
          "time": 85.41653000000038,
          "velocity": 0.8661417322834646,
          "duration": 0.20399272916667144
        },
        {
          "name": "A#2",
          "midi": 46,
          "time": 85.62486300000039,
          "velocity": 0.8661417322834646,
          "duration": 0.20399272916667144
        },
        {
          "name": "C2",
          "midi": 36,
          "time": 85.8331960000004,
          "velocity": 0.8661417322834646,
          "duration": 0.20399272916667144
        },
        {
          "name": "A#2",
          "midi": 46,
          "time": 85.8331960000004,
          "velocity": 0.8661417322834646,
          "duration": 0.20399272916667144
        },
        {
          "name": "A#2",
          "midi": 46,
          "time": 86.04152900000041,
          "velocity": 0.8661417322834646,
          "duration": 0.20399272916667144
        },
        {
          "name": "D2",
          "midi": 38,
          "time": 86.24986200000042,
          "velocity": 0.8661417322834646,
          "duration": 0.20399272916667144
        },
        {
          "name": "A#2",
          "midi": 46,
          "time": 86.24986200000042,
          "velocity": 0.8661417322834646,
          "duration": 0.20399272916667144
        },
        {
          "name": "A#2",
          "midi": 46,
          "time": 86.45819500000043,
          "velocity": 0.8661417322834646,
          "duration": 0.20399272916667144
        },
        {
          "name": "C2",
          "midi": 36,
          "time": 86.66652800000044,
          "velocity": 0.8661417322834646,
          "duration": 0.20399272916667144
        },
        {
          "name": "A#2",
          "midi": 46,
          "time": 86.66652800000044,
          "velocity": 0.8661417322834646,
          "duration": 0.20399272916667144
        },
        {
          "name": "A#2",
          "midi": 46,
          "time": 86.87486100000045,
          "velocity": 0.8661417322834646,
          "duration": 0.20399272916667144
        },
        {
          "name": "D2",
          "midi": 38,
          "time": 87.08319400000046,
          "velocity": 0.8661417322834646,
          "duration": 0.20399272916667144
        },
        {
          "name": "A#2",
          "midi": 46,
          "time": 87.08319400000046,
          "velocity": 0.8661417322834646,
          "duration": 0.20399272916667144
        },
        {
          "name": "A#2",
          "midi": 46,
          "time": 87.29152700000047,
          "velocity": 0.8661417322834646,
          "duration": 0.20399272916667144
        },
        {
          "name": "C2",
          "midi": 36,
          "time": 87.49986000000048,
          "velocity": 0.8661417322834646,
          "duration": 0.3081592291666624
        },
        {
          "name": "C#3",
          "midi": 49,
          "time": 87.49986000000048,
          "velocity": 0.8661417322834646,
          "duration": 0.3081592291666624
        },
        {
          "name": "C2",
          "midi": 36,
          "time": 87.81235950000048,
          "velocity": 0.8661417322834646,
          "duration": 0.3081592291666624
        },
        {
          "name": "C#3",
          "midi": 49,
          "time": 87.81235950000048,
          "velocity": 0.8661417322834646,
          "duration": 0.3081592291666624
        },
        {
          "name": "C2",
          "midi": 36,
          "time": 88.12485900000048,
          "velocity": 0.8661417322834646,
          "duration": 0.20399272916667144
        },
        {
          "name": "A#2",
          "midi": 46,
          "time": 88.12485900000048,
          "velocity": 0.8661417322834646,
          "duration": 0.20399272916667144
        },
        {
          "name": "A#2",
          "midi": 46,
          "time": 88.3331920000005,
          "velocity": 0.8661417322834646,
          "duration": 0.20399272916667144
        },
        {
          "name": "D2",
          "midi": 38,
          "time": 88.5415250000005,
          "velocity": 0.8661417322834646,
          "duration": 0.20399272916667144
        },
        {
          "name": "A#2",
          "midi": 46,
          "time": 88.5415250000005,
          "velocity": 0.8661417322834646,
          "duration": 0.20399272916667144
        },
        {
          "name": "A#2",
          "midi": 46,
          "time": 88.74985800000051,
          "velocity": 0.8661417322834646,
          "duration": 0.20399272916667144
        },
        {
          "name": "C2",
          "midi": 36,
          "time": 88.95819100000053,
          "velocity": 0.8661417322834646,
          "duration": 0.20399272916667144
        },
        {
          "name": "A#2",
          "midi": 46,
          "time": 88.95819100000053,
          "velocity": 0.8661417322834646,
          "duration": 0.20399272916667144
        },
        {
          "name": "A#2",
          "midi": 46,
          "time": 89.16652400000054,
          "velocity": 0.8661417322834646,
          "duration": 0.20399272916667144
        },
        {
          "name": "D2",
          "midi": 38,
          "time": 89.37485700000055,
          "velocity": 0.8661417322834646,
          "duration": 0.20399272916667144
        },
        {
          "name": "A#2",
          "midi": 46,
          "time": 89.37485700000055,
          "velocity": 0.8661417322834646,
          "duration": 0.20399272916667144
        },
        {
          "name": "A#2",
          "midi": 46,
          "time": 89.58319000000056,
          "velocity": 0.8661417322834646,
          "duration": 0.20399272916667144
        },
        {
          "name": "C2",
          "midi": 36,
          "time": 89.79152300000057,
          "velocity": 0.8661417322834646,
          "duration": 0.20399272916667144
        },
        {
          "name": "A#2",
          "midi": 46,
          "time": 89.79152300000057,
          "velocity": 0.8661417322834646,
          "duration": 0.20399272916667144
        },
        {
          "name": "A#2",
          "midi": 46,
          "time": 89.99985600000058,
          "velocity": 0.8661417322834646,
          "duration": 0.20399272916667144
        },
        {
          "name": "D2",
          "midi": 38,
          "time": 90.20818900000059,
          "velocity": 0.8661417322834646,
          "duration": 0.20399272916667144
        },
        {
          "name": "A#2",
          "midi": 46,
          "time": 90.20818900000059,
          "velocity": 0.8661417322834646,
          "duration": 0.20399272916667144
        },
        {
          "name": "A#2",
          "midi": 46,
          "time": 90.4165220000006,
          "velocity": 0.8661417322834646,
          "duration": 0.20399272916667144
        },
        {
          "name": "C2",
          "midi": 36,
          "time": 90.62485500000061,
          "velocity": 0.8661417322834646,
          "duration": 0.3081592291666624
        },
        {
          "name": "C#3",
          "midi": 49,
          "time": 90.62485500000061,
          "velocity": 0.8661417322834646,
          "duration": 0.3081592291666624
        },
        {
          "name": "C2",
          "midi": 36,
          "time": 90.93735450000061,
          "velocity": 0.8661417322834646,
          "duration": 0.3081592291666624
        },
        {
          "name": "C#3",
          "midi": 49,
          "time": 90.93735450000061,
          "velocity": 0.8661417322834646,
          "duration": 0.3081592291666624
        },
        {
          "name": "C2",
          "midi": 36,
          "time": 91.24985400000061,
          "velocity": 0.8661417322834646,
          "duration": 0.20399272916667144
        },
        {
          "name": "A#2",
          "midi": 46,
          "time": 91.24985400000061,
          "velocity": 0.8661417322834646,
          "duration": 0.20399272916667144
        },
        {
          "name": "A#2",
          "midi": 46,
          "time": 91.45818700000062,
          "velocity": 0.8661417322834646,
          "duration": 0.20399272916667144
        },
        {
          "name": "D2",
          "midi": 38,
          "time": 91.66652000000063,
          "velocity": 0.8661417322834646,
          "duration": 0.20399272916667144
        },
        {
          "name": "A#2",
          "midi": 46,
          "time": 91.66652000000063,
          "velocity": 0.8661417322834646,
          "duration": 0.20399272916667144
        },
        {
          "name": "A#2",
          "midi": 46,
          "time": 91.87485300000064,
          "velocity": 0.8661417322834646,
          "duration": 0.20399272916667144
        },
        {
          "name": "C2",
          "midi": 36,
          "time": 92.08318600000065,
          "velocity": 0.8661417322834646,
          "duration": 0.20399272916667144
        },
        {
          "name": "A#2",
          "midi": 46,
          "time": 92.08318600000065,
          "velocity": 0.8661417322834646,
          "duration": 0.20399272916667144
        },
        {
          "name": "A#2",
          "midi": 46,
          "time": 92.29151900000066,
          "velocity": 0.8661417322834646,
          "duration": 0.20399272916667144
        },
        {
          "name": "D2",
          "midi": 38,
          "time": 92.49985200000067,
          "velocity": 0.8661417322834646,
          "duration": 0.20399272916667144
        },
        {
          "name": "A#2",
          "midi": 46,
          "time": 92.49985200000067,
          "velocity": 0.8661417322834646,
          "duration": 0.20399272916667144
        },
        {
          "name": "A#2",
          "midi": 46,
          "time": 92.70818500000068,
          "velocity": 0.8661417322834646,
          "duration": 0.20399272916667144
        },
        {
          "name": "D2",
          "midi": 38,
          "time": 92.91651800000069,
          "velocity": 0.8661417322834646,
          "duration": 0.09982622916666628
        },
        {
          "name": "D2",
          "midi": 38,
          "time": 93.0206845000007,
          "velocity": 0.8661417322834646,
          "duration": 0.09982622916666628
        },
        {
          "name": "C2",
          "midi": 36,
          "time": 93.1248510000007,
          "velocity": 0.8661417322834646,
          "duration": 0.20399272916667144
        },
        {
          "name": "C2",
          "midi": 36,
          "time": 93.33318400000071,
          "velocity": 0.8661417322834646,
          "duration": 0.34722166666666965
        },
        {
          "name": "D2",
          "midi": 38,
          "time": 93.33318400000071,
          "velocity": 0.8661417322834646,
          "duration": 0.34722166666666965
        },
        {
          "name": "F#2",
          "midi": 42,
          "time": 93.33318400000071,
          "velocity": 0.8661417322834646,
          "duration": 0.34722166666666965
        },
        {
          "name": "C#3",
          "midi": 49,
          "time": 93.33318400000071,
          "velocity": 0.8661417322834646,
          "duration": 0.34722166666666965
        },
        {
          "name": "D2",
          "midi": 38,
          "time": 93.74985000000072,
          "velocity": 0.8661417322834646,
          "duration": 0.09982622916666628
        },
        {
          "name": "D2",
          "midi": 38,
          "time": 93.85401650000072,
          "velocity": 0.8661417322834646,
          "duration": 0.09982622916666628
        },
        {
          "name": "C2",
          "midi": 36,
          "time": 93.95818300000073,
          "velocity": 0.8661417322834646,
          "duration": 0.20399272916667144
        },
        {
          "name": "C2",
          "midi": 36,
          "time": 94.16651600000074,
          "velocity": 0.8661417322834646,
          "duration": 0.34722166666666965
        },
        {
          "name": "D2",
          "midi": 38,
          "time": 94.16651600000074,
          "velocity": 0.8661417322834646,
          "duration": 0.34722166666666965
        },
        {
          "name": "F#2",
          "midi": 42,
          "time": 94.16651600000074,
          "velocity": 0.8661417322834646,
          "duration": 0.34722166666666965
        },
        {
          "name": "C#3",
          "midi": 49,
          "time": 94.16651600000074,
          "velocity": 0.8661417322834646,
          "duration": 0.34722166666666965
        },
        {
          "name": "C2",
          "midi": 36,
          "time": 94.58318200000075,
          "velocity": 0.8661417322834646,
          "duration": 0.20399272916667144
        },
        {
          "name": "A#2",
          "midi": 46,
          "time": 94.58318200000075,
          "velocity": 0.8661417322834646,
          "duration": 0.20399272916667144
        },
        {
          "name": "C#3",
          "midi": 49,
          "time": 94.58318200000075,
          "velocity": 0.8661417322834646,
          "duration": 0.20399272916667144
        },
        {
          "name": "D2",
          "midi": 38,
          "time": 94.79151500000076,
          "velocity": 0.8661417322834646,
          "duration": 0.20399272916667144
        },
        {
          "name": "A#2",
          "midi": 46,
          "time": 94.79151500000076,
          "velocity": 0.8661417322834646,
          "duration": 0.20399272916667144
        },
        {
          "name": "C2",
          "midi": 36,
          "time": 94.99984800000077,
          "velocity": 0.8661417322834646,
          "duration": 0.20399272916667144
        },
        {
          "name": "A#2",
          "midi": 46,
          "time": 94.99984800000077,
          "velocity": 0.8661417322834646,
          "duration": 0.20399272916667144
        },
        {
          "name": "D2",
          "midi": 38,
          "time": 95.20818100000078,
          "velocity": 0.8661417322834646,
          "duration": 0.20399272916667144
        },
        {
          "name": "A#2",
          "midi": 46,
          "time": 95.20818100000078,
          "velocity": 0.8661417322834646,
          "duration": 0.20399272916667144
        },
        {
          "name": "C2",
          "midi": 36,
          "time": 95.41651400000079,
          "velocity": 0.8661417322834646,
          "duration": 0.20399272916667144
        },
        {
          "name": "A#2",
          "midi": 46,
          "time": 95.41651400000079,
          "velocity": 0.8661417322834646,
          "duration": 0.20399272916667144
        },
        {
          "name": "D2",
          "midi": 38,
          "time": 95.6248470000008,
          "velocity": 0.8661417322834646,
          "duration": 0.20399272916667144
        },
        {
          "name": "A#2",
          "midi": 46,
          "time": 95.6248470000008,
          "velocity": 0.8661417322834646,
          "duration": 0.20399272916667144
        },
        {
          "name": "C2",
          "midi": 36,
          "time": 95.83318000000081,
          "velocity": 0.8661417322834646,
          "duration": 0.20399272916667144
        },
        {
          "name": "A#2",
          "midi": 46,
          "time": 95.83318000000081,
          "velocity": 0.8661417322834646,
          "duration": 0.20399272916667144
        },
        {
          "name": "D2",
          "midi": 38,
          "time": 96.04151300000082,
          "velocity": 0.8661417322834646,
          "duration": 0.20399272916667144
        },
        {
          "name": "A#2",
          "midi": 46,
          "time": 96.04151300000082,
          "velocity": 0.8661417322834646,
          "duration": 0.20399272916667144
        },
        {
          "name": "C2",
          "midi": 36,
          "time": 96.24984600000083,
          "velocity": 0.8661417322834646,
          "duration": 0.20399272916667144
        },
        {
          "name": "A#2",
          "midi": 46,
          "time": 96.24984600000083,
          "velocity": 0.8661417322834646,
          "duration": 0.20399272916667144
        },
        {
          "name": "D2",
          "midi": 38,
          "time": 96.45817900000084,
          "velocity": 0.8661417322834646,
          "duration": 0.20399272916667144
        },
        {
          "name": "A#2",
          "midi": 46,
          "time": 96.45817900000084,
          "velocity": 0.8661417322834646,
          "duration": 0.20399272916667144
        },
        {
          "name": "C2",
          "midi": 36,
          "time": 96.66651200000085,
          "velocity": 0.8661417322834646,
          "duration": 0.20399272916667144
        },
        {
          "name": "A#2",
          "midi": 46,
          "time": 96.66651200000085,
          "velocity": 0.8661417322834646,
          "duration": 0.20399272916667144
        },
        {
          "name": "D2",
          "midi": 38,
          "time": 96.87484500000086,
          "velocity": 0.8661417322834646,
          "duration": 0.20399272916667144
        },
        {
          "name": "A#2",
          "midi": 46,
          "time": 96.87484500000086,
          "velocity": 0.8661417322834646,
          "duration": 0.20399272916667144
        },
        {
          "name": "C2",
          "midi": 36,
          "time": 97.08317800000087,
          "velocity": 0.8661417322834646,
          "duration": 0.20399272916667144
        },
        {
          "name": "A#2",
          "midi": 46,
          "time": 97.08317800000087,
          "velocity": 0.8661417322834646,
          "duration": 0.20399272916667144
        },
        {
          "name": "D2",
          "midi": 38,
          "time": 97.29151100000088,
          "velocity": 0.8661417322834646,
          "duration": 0.20399272916667144
        },
        {
          "name": "A#2",
          "midi": 46,
          "time": 97.29151100000088,
          "velocity": 0.8661417322834646,
          "duration": 0.20399272916667144
        },
        {
          "name": "C2",
          "midi": 36,
          "time": 97.49984400000089,
          "velocity": 0.8661417322834646,
          "duration": 0.20399272916667144
        },
        {
          "name": "A#2",
          "midi": 46,
          "time": 97.49984400000089,
          "velocity": 0.8661417322834646,
          "duration": 0.20399272916667144
        },
        {
          "name": "D2",
          "midi": 38,
          "time": 97.7081770000009,
          "velocity": 0.8661417322834646,
          "duration": 0.20399272916667144
        },
        {
          "name": "A#2",
          "midi": 46,
          "time": 97.7081770000009,
          "velocity": 0.8661417322834646,
          "duration": 0.20399272916667144
        },
        {
          "name": "C2",
          "midi": 36,
          "time": 97.91651000000091,
          "velocity": 0.8661417322834646,
          "duration": 0.20399272916667144
        },
        {
          "name": "A#2",
          "midi": 46,
          "time": 97.91651000000091,
          "velocity": 0.8661417322834646,
          "duration": 0.20399272916667144
        },
        {
          "name": "C#3",
          "midi": 49,
          "time": 97.91651000000091,
          "velocity": 0.8661417322834646,
          "duration": 0.20399272916667144
        },
        {
          "name": "D2",
          "midi": 38,
          "time": 98.12484300000092,
          "velocity": 0.8661417322834646,
          "duration": 0.20399272916667144
        },
        {
          "name": "A#2",
          "midi": 46,
          "time": 98.12484300000092,
          "velocity": 0.8661417322834646,
          "duration": 0.20399272916667144
        },
        {
          "name": "C2",
          "midi": 36,
          "time": 98.33317600000093,
          "velocity": 0.8661417322834646,
          "duration": 0.20399272916667144
        },
        {
          "name": "A#2",
          "midi": 46,
          "time": 98.33317600000093,
          "velocity": 0.8661417322834646,
          "duration": 0.20399272916667144
        },
        {
          "name": "D2",
          "midi": 38,
          "time": 98.54150900000094,
          "velocity": 0.8661417322834646,
          "duration": 0.20399272916667144
        },
        {
          "name": "A#2",
          "midi": 46,
          "time": 98.54150900000094,
          "velocity": 0.8661417322834646,
          "duration": 0.20399272916667144
        },
        {
          "name": "C2",
          "midi": 36,
          "time": 98.74984200000095,
          "velocity": 0.8661417322834646,
          "duration": 0.20399272916667144
        },
        {
          "name": "A#2",
          "midi": 46,
          "time": 98.74984200000095,
          "velocity": 0.8661417322834646,
          "duration": 0.20399272916667144
        },
        {
          "name": "D2",
          "midi": 38,
          "time": 98.95817500000096,
          "velocity": 0.8661417322834646,
          "duration": 0.20399272916667144
        },
        {
          "name": "A#2",
          "midi": 46,
          "time": 98.95817500000096,
          "velocity": 0.8661417322834646,
          "duration": 0.20399272916667144
        },
        {
          "name": "C2",
          "midi": 36,
          "time": 99.16650800000097,
          "velocity": 0.8661417322834646,
          "duration": 0.20399272916667144
        },
        {
          "name": "A#2",
          "midi": 46,
          "time": 99.16650800000097,
          "velocity": 0.8661417322834646,
          "duration": 0.20399272916667144
        },
        {
          "name": "D2",
          "midi": 38,
          "time": 99.37484100000098,
          "velocity": 0.8661417322834646,
          "duration": 0.20399272916667144
        },
        {
          "name": "A#2",
          "midi": 46,
          "time": 99.37484100000098,
          "velocity": 0.8661417322834646,
          "duration": 0.20399272916667144
        },
        {
          "name": "C2",
          "midi": 36,
          "time": 99.583174000001,
          "velocity": 0.8661417322834646,
          "duration": 0.20399272916667144
        },
        {
          "name": "A#2",
          "midi": 46,
          "time": 99.583174000001,
          "velocity": 0.8661417322834646,
          "duration": 0.20399272916667144
        },
        {
          "name": "D2",
          "midi": 38,
          "time": 99.791507000001,
          "velocity": 0.8661417322834646,
          "duration": 0.20399272916667144
        },
        {
          "name": "A#2",
          "midi": 46,
          "time": 99.791507000001,
          "velocity": 0.8661417322834646,
          "duration": 0.20399272916667144
        },
        {
          "name": "C2",
          "midi": 36,
          "time": 99.99984000000102,
          "velocity": 0.8661417322834646,
          "duration": 0.20399272916667144
        },
        {
          "name": "A#2",
          "midi": 46,
          "time": 99.99984000000102,
          "velocity": 0.8661417322834646,
          "duration": 0.20399272916667144
        },
        {
          "name": "D2",
          "midi": 38,
          "time": 100.20817300000103,
          "velocity": 0.8661417322834646,
          "duration": 0.20399272916667144
        },
        {
          "name": "A#2",
          "midi": 46,
          "time": 100.20817300000103,
          "velocity": 0.8661417322834646,
          "duration": 0.20399272916667144
        },
        {
          "name": "C2",
          "midi": 36,
          "time": 100.41650600000104,
          "velocity": 0.8661417322834646,
          "duration": 0.20399272916667144
        },
        {
          "name": "A#2",
          "midi": 46,
          "time": 100.41650600000104,
          "velocity": 0.8661417322834646,
          "duration": 0.20399272916667144
        },
        {
          "name": "D2",
          "midi": 38,
          "time": 100.62483900000105,
          "velocity": 0.8661417322834646,
          "duration": 0.20399272916667144
        },
        {
          "name": "A#2",
          "midi": 46,
          "time": 100.62483900000105,
          "velocity": 0.8661417322834646,
          "duration": 0.20399272916667144
        },
        {
          "name": "C2",
          "midi": 36,
          "time": 100.83317200000106,
          "velocity": 0.8661417322834646,
          "duration": 0.20399272916667144
        },
        {
          "name": "A#2",
          "midi": 46,
          "time": 100.83317200000106,
          "velocity": 0.8661417322834646,
          "duration": 0.20399272916667144
        },
        {
          "name": "D2",
          "midi": 38,
          "time": 101.04150500000107,
          "velocity": 0.8661417322834646,
          "duration": 0.20399272916667144
        },
        {
          "name": "A#2",
          "midi": 46,
          "time": 101.04150500000107,
          "velocity": 0.8661417322834646,
          "duration": 0.20399272916667144
        },
        {
          "name": "C2",
          "midi": 36,
          "time": 101.24983800000108,
          "velocity": 0.8661417322834646,
          "duration": 0.20399272916667144
        },
        {
          "name": "A#2",
          "midi": 46,
          "time": 101.24983800000108,
          "velocity": 0.8661417322834646,
          "duration": 0.20399272916667144
        },
        {
          "name": "D2",
          "midi": 38,
          "time": 101.45817100000109,
          "velocity": 0.8661417322834646,
          "duration": 0.20399272916667144
        },
        {
          "name": "A#2",
          "midi": 46,
          "time": 101.45817100000109,
          "velocity": 0.8661417322834646,
          "duration": 0.20399272916667144
        },
        {
          "name": "C#3",
          "midi": 49,
          "time": 101.45817100000109,
          "velocity": 0.8661417322834646,
          "duration": 0.20399272916667144
        },
        {
          "name": "C2",
          "midi": 36,
          "time": 101.6665040000011,
          "velocity": 0.8661417322834646,
          "duration": 0.20399272916667144
        },
        {
          "name": "A#2",
          "midi": 46,
          "time": 101.6665040000011,
          "velocity": 0.8661417322834646,
          "duration": 0.20399272916667144
        },
        {
          "name": "D2",
          "midi": 38,
          "time": 101.87483700000111,
          "velocity": 0.8661417322834646,
          "duration": 0.20399272916667144
        },
        {
          "name": "A#2",
          "midi": 46,
          "time": 101.87483700000111,
          "velocity": 0.8661417322834646,
          "duration": 0.20399272916667144
        },
        {
          "name": "C2",
          "midi": 36,
          "time": 102.08317000000112,
          "velocity": 0.8661417322834646,
          "duration": 0.20399272916667144
        },
        {
          "name": "A#2",
          "midi": 46,
          "time": 102.08317000000112,
          "velocity": 0.8661417322834646,
          "duration": 0.20399272916667144
        },
        {
          "name": "D2",
          "midi": 38,
          "time": 102.29150300000113,
          "velocity": 0.8661417322834646,
          "duration": 0.20399272916667144
        },
        {
          "name": "A#2",
          "midi": 46,
          "time": 102.29150300000113,
          "velocity": 0.8661417322834646,
          "duration": 0.20399272916667144
        },
        {
          "name": "C2",
          "midi": 36,
          "time": 102.49983600000114,
          "velocity": 0.8661417322834646,
          "duration": 0.20399272916667144
        },
        {
          "name": "A#2",
          "midi": 46,
          "time": 102.49983600000114,
          "velocity": 0.8661417322834646,
          "duration": 0.20399272916667144
        },
        {
          "name": "D2",
          "midi": 38,
          "time": 102.70816900000115,
          "velocity": 0.8661417322834646,
          "duration": 0.20399272916667144
        },
        {
          "name": "A#2",
          "midi": 46,
          "time": 102.70816900000115,
          "velocity": 0.8661417322834646,
          "duration": 0.20399272916667144
        },
        {
          "name": "C2",
          "midi": 36,
          "time": 102.91650200000116,
          "velocity": 0.8661417322834646,
          "duration": 0.20399272916667144
        },
        {
          "name": "A#2",
          "midi": 46,
          "time": 102.91650200000116,
          "velocity": 0.8661417322834646,
          "duration": 0.20399272916667144
        },
        {
          "name": "D2",
          "midi": 38,
          "time": 103.12483500000117,
          "velocity": 0.8661417322834646,
          "duration": 0.20399272916667144
        },
        {
          "name": "A#2",
          "midi": 46,
          "time": 103.12483500000117,
          "velocity": 0.8661417322834646,
          "duration": 0.20399272916667144
        },
        {
          "name": "C#3",
          "midi": 49,
          "time": 103.12483500000117,
          "velocity": 0.8661417322834646,
          "duration": 0.20399272916667144
        },
        {
          "name": "C2",
          "midi": 36,
          "time": 103.33316800000118,
          "velocity": 0.8661417322834646,
          "duration": 0.20399272916667144
        },
        {
          "name": "A#2",
          "midi": 46,
          "time": 103.33316800000118,
          "velocity": 0.8661417322834646,
          "duration": 0.20399272916667144
        },
        {
          "name": "D2",
          "midi": 38,
          "time": 103.54150100000119,
          "velocity": 0.8661417322834646,
          "duration": 0.20399272916667144
        },
        {
          "name": "A#2",
          "midi": 46,
          "time": 103.54150100000119,
          "velocity": 0.8661417322834646,
          "duration": 0.20399272916667144
        },
        {
          "name": "C2",
          "midi": 36,
          "time": 103.7498340000012,
          "velocity": 0.8661417322834646,
          "duration": 0.20399272916667144
        },
        {
          "name": "A#2",
          "midi": 46,
          "time": 103.7498340000012,
          "velocity": 0.8661417322834646,
          "duration": 0.20399272916667144
        },
        {
          "name": "D2",
          "midi": 38,
          "time": 103.95816700000121,
          "velocity": 0.8661417322834646,
          "duration": 0.20399272916667144
        },
        {
          "name": "A#2",
          "midi": 46,
          "time": 103.95816700000121,
          "velocity": 0.8661417322834646,
          "duration": 0.20399272916667144
        },
        {
          "name": "C2",
          "midi": 36,
          "time": 104.16650000000122,
          "velocity": 0.8661417322834646,
          "duration": 0.20399272916667144
        },
        {
          "name": "A#2",
          "midi": 46,
          "time": 104.16650000000122,
          "velocity": 0.8661417322834646,
          "duration": 0.20399272916667144
        },
        {
          "name": "D2",
          "midi": 38,
          "time": 104.37483300000123,
          "velocity": 0.8661417322834646,
          "duration": 0.20399272916667144
        },
        {
          "name": "A#2",
          "midi": 46,
          "time": 104.37483300000123,
          "velocity": 0.8661417322834646,
          "duration": 0.20399272916667144
        },
        {
          "name": "C2",
          "midi": 36,
          "time": 104.58316600000124,
          "velocity": 0.8661417322834646,
          "duration": 0.20399272916667144
        },
        {
          "name": "A#2",
          "midi": 46,
          "time": 104.58316600000124,
          "velocity": 0.8661417322834646,
          "duration": 0.20399272916667144
        },
        {
          "name": "C#3",
          "midi": 49,
          "time": 104.58316600000124,
          "velocity": 0.8661417322834646,
          "duration": 0.20399272916667144
        },
        {
          "name": "D2",
          "midi": 38,
          "time": 104.79149900000125,
          "velocity": 0.8661417322834646,
          "duration": 0.20399272916667144
        },
        {
          "name": "A#2",
          "midi": 46,
          "time": 104.79149900000125,
          "velocity": 0.8661417322834646,
          "duration": 0.20399272916667144
        },
        {
          "name": "C2",
          "midi": 36,
          "time": 104.99983200000126,
          "velocity": 0.8661417322834646,
          "duration": 0.20399272916667144
        },
        {
          "name": "A#2",
          "midi": 46,
          "time": 104.99983200000126,
          "velocity": 0.8661417322834646,
          "duration": 0.20399272916667144
        },
        {
          "name": "D2",
          "midi": 38,
          "time": 105.20816500000127,
          "velocity": 0.8661417322834646,
          "duration": 0.20399272916667144
        },
        {
          "name": "A#2",
          "midi": 46,
          "time": 105.20816500000127,
          "velocity": 0.8661417322834646,
          "duration": 0.20399272916667144
        },
        {
          "name": "C2",
          "midi": 36,
          "time": 105.41649800000128,
          "velocity": 0.8661417322834646,
          "duration": 0.20399272916667144
        },
        {
          "name": "A#2",
          "midi": 46,
          "time": 105.41649800000128,
          "velocity": 0.8661417322834646,
          "duration": 0.20399272916667144
        },
        {
          "name": "D2",
          "midi": 38,
          "time": 105.6248310000013,
          "velocity": 0.8661417322834646,
          "duration": 0.20399272916667144
        },
        {
          "name": "A#2",
          "midi": 46,
          "time": 105.6248310000013,
          "velocity": 0.8661417322834646,
          "duration": 0.20399272916667144
        },
        {
          "name": "C2",
          "midi": 36,
          "time": 105.8331640000013,
          "velocity": 0.8661417322834646,
          "duration": 0.20399272916667144
        },
        {
          "name": "A#2",
          "midi": 46,
          "time": 105.8331640000013,
          "velocity": 0.8661417322834646,
          "duration": 0.20399272916667144
        },
        {
          "name": "D2",
          "midi": 38,
          "time": 106.04149700000131,
          "velocity": 0.8661417322834646,
          "duration": 0.20399272916667144
        },
        {
          "name": "A#2",
          "midi": 46,
          "time": 106.04149700000131,
          "velocity": 0.8661417322834646,
          "duration": 0.20399272916667144
        },
        {
          "name": "C2",
          "midi": 36,
          "time": 106.24983000000132,
          "velocity": 0.8661417322834646,
          "duration": 0.20399272916667144
        },
        {
          "name": "A#2",
          "midi": 46,
          "time": 106.24983000000132,
          "velocity": 0.8661417322834646,
          "duration": 0.20399272916667144
        },
        {
          "name": "D2",
          "midi": 38,
          "time": 106.45816300000133,
          "velocity": 0.8661417322834646,
          "duration": 0.20399272916667144
        },
        {
          "name": "A#2",
          "midi": 46,
          "time": 106.45816300000133,
          "velocity": 0.8661417322834646,
          "duration": 0.20399272916667144
        },
        {
          "name": "C2",
          "midi": 36,
          "time": 106.66649600000135,
          "velocity": 0.8661417322834646,
          "duration": 0.20399272916667144
        },
        {
          "name": "A#2",
          "midi": 46,
          "time": 106.66649600000135,
          "velocity": 0.8661417322834646,
          "duration": 0.20399272916667144
        },
        {
          "name": "D2",
          "midi": 38,
          "time": 106.87482900000136,
          "velocity": 0.8661417322834646,
          "duration": 0.20399272916667144
        },
        {
          "name": "A#2",
          "midi": 46,
          "time": 106.87482900000136,
          "velocity": 0.8661417322834646,
          "duration": 0.20399272916667144
        },
        {
          "name": "C2",
          "midi": 36,
          "time": 107.08316200000137,
          "velocity": 0.8661417322834646,
          "duration": 0.20399272916667144
        },
        {
          "name": "A#2",
          "midi": 46,
          "time": 107.08316200000137,
          "velocity": 0.8661417322834646,
          "duration": 0.20399272916667144
        },
        {
          "name": "D2",
          "midi": 38,
          "time": 107.29149500000138,
          "velocity": 0.8661417322834646,
          "duration": 0.20399272916667144
        },
        {
          "name": "A#2",
          "midi": 46,
          "time": 107.29149500000138,
          "velocity": 0.8661417322834646,
          "duration": 0.20399272916667144
        },
        {
          "name": "C2",
          "midi": 36,
          "time": 107.49982800000139,
          "velocity": 0.8661417322834646,
          "duration": 0.20399272916667144
        },
        {
          "name": "A#2",
          "midi": 46,
          "time": 107.49982800000139,
          "velocity": 0.8661417322834646,
          "duration": 0.20399272916667144
        },
        {
          "name": "D2",
          "midi": 38,
          "time": 107.7081610000014,
          "velocity": 0.8661417322834646,
          "duration": 0.20399272916667144
        },
        {
          "name": "A#2",
          "midi": 46,
          "time": 107.7081610000014,
          "velocity": 0.8661417322834646,
          "duration": 0.20399272916667144
        },
        {
          "name": "C2",
          "midi": 36,
          "time": 107.9164940000014,
          "velocity": 0.8661417322834646,
          "duration": 0.20399272916667144
        },
        {
          "name": "A#2",
          "midi": 46,
          "time": 107.9164940000014,
          "velocity": 0.8661417322834646,
          "duration": 0.20399272916667144
        },
        {
          "name": "D2",
          "midi": 38,
          "time": 108.12482700000142,
          "velocity": 0.8661417322834646,
          "duration": 0.20399272916667144
        },
        {
          "name": "A#2",
          "midi": 46,
          "time": 108.12482700000142,
          "velocity": 0.8661417322834646,
          "duration": 0.20399272916667144
        },
        {
          "name": "C#3",
          "midi": 49,
          "time": 108.12482700000142,
          "velocity": 0.8661417322834646,
          "duration": 0.20399272916667144
        },
        {
          "name": "C2",
          "midi": 36,
          "time": 108.33316000000143,
          "velocity": 0.8661417322834646,
          "duration": 0.20399272916667144
        },
        {
          "name": "A#2",
          "midi": 46,
          "time": 108.33316000000143,
          "velocity": 0.8661417322834646,
          "duration": 0.20399272916667144
        },
        {
          "name": "D2",
          "midi": 38,
          "time": 108.54149300000144,
          "velocity": 0.8661417322834646,
          "duration": 0.20399272916667144
        },
        {
          "name": "A#2",
          "midi": 46,
          "time": 108.54149300000144,
          "velocity": 0.8661417322834646,
          "duration": 0.20399272916667144
        },
        {
          "name": "C2",
          "midi": 36,
          "time": 108.74982600000145,
          "velocity": 0.8661417322834646,
          "duration": 0.20399272916667144
        },
        {
          "name": "A#2",
          "midi": 46,
          "time": 108.74982600000145,
          "velocity": 0.8661417322834646,
          "duration": 0.20399272916667144
        },
        {
          "name": "D2",
          "midi": 38,
          "time": 108.95815900000146,
          "velocity": 0.8661417322834646,
          "duration": 0.20399272916667144
        },
        {
          "name": "A#2",
          "midi": 46,
          "time": 108.95815900000146,
          "velocity": 0.8661417322834646,
          "duration": 0.20399272916667144
        },
        {
          "name": "C2",
          "midi": 36,
          "time": 109.16649200000147,
          "velocity": 0.8661417322834646,
          "duration": 0.20399272916667144
        },
        {
          "name": "A#2",
          "midi": 46,
          "time": 109.16649200000147,
          "velocity": 0.8661417322834646,
          "duration": 0.20399272916667144
        },
        {
          "name": "D2",
          "midi": 38,
          "time": 109.37482500000148,
          "velocity": 0.8661417322834646,
          "duration": 0.20399272916667144
        },
        {
          "name": "A#2",
          "midi": 46,
          "time": 109.37482500000148,
          "velocity": 0.8661417322834646,
          "duration": 0.20399272916667144
        },
        {
          "name": "C2",
          "midi": 36,
          "time": 109.58315800000149,
          "velocity": 0.8661417322834646,
          "duration": 0.273437062499994
        },
        {
          "name": "C#3",
          "midi": 49,
          "time": 109.86093533333482,
          "velocity": 0.8661417322834646,
          "duration": 0.273437062499994
        },
        {
          "name": "C2",
          "midi": 36,
          "time": 110.13871266666816,
          "velocity": 0.8661417322834646,
          "duration": 0.273437062499994
        },
        {
          "name": "C#3",
          "midi": 49,
          "time": 110.41649000000149,
          "velocity": 0.8661417322834646,
          "duration": 0.273437062499994
        },
        {
          "name": "D2",
          "midi": 38,
          "time": 110.69426733333482,
          "velocity": 0.8661417322834646,
          "duration": 0.273437062499994
        },
        {
          "name": "C2",
          "midi": 36,
          "time": 110.97204466666815,
          "velocity": 0.8661417322834646,
          "duration": 0.273437062499994
        },
        {
          "name": "C2",
          "midi": 36,
          "time": 111.24982200000149,
          "velocity": 0.8661417322834646,
          "duration": 0.20399272916667144
        },
        {
          "name": "A#2",
          "midi": 46,
          "time": 111.24982200000149,
          "velocity": 0.8661417322834646,
          "duration": 0.20399272916667144
        },
        {
          "name": "A#2",
          "midi": 46,
          "time": 111.4581550000015,
          "velocity": 0.8661417322834646,
          "duration": 0.20399272916667144
        },
        {
          "name": "D2",
          "midi": 38,
          "time": 111.66648800000151,
          "velocity": 0.8661417322834646,
          "duration": 0.20399272916667144
        },
        {
          "name": "A#2",
          "midi": 46,
          "time": 111.66648800000151,
          "velocity": 0.8661417322834646,
          "duration": 0.20399272916667144
        },
        {
          "name": "A#2",
          "midi": 46,
          "time": 111.87482100000152,
          "velocity": 0.8661417322834646,
          "duration": 0.20399272916667144
        },
        {
          "name": "C2",
          "midi": 36,
          "time": 112.08315400000153,
          "velocity": 0.8661417322834646,
          "duration": 0.20399272916667144
        },
        {
          "name": "A#2",
          "midi": 46,
          "time": 112.08315400000153,
          "velocity": 0.8661417322834646,
          "duration": 0.20399272916667144
        },
        {
          "name": "A#2",
          "midi": 46,
          "time": 112.29148700000154,
          "velocity": 0.8661417322834646,
          "duration": 0.20399272916667144
        },
        {
          "name": "D2",
          "midi": 38,
          "time": 112.49982000000155,
          "velocity": 0.8661417322834646,
          "duration": 0.20399272916667144
        },
        {
          "name": "A#2",
          "midi": 46,
          "time": 112.49982000000155,
          "velocity": 0.8661417322834646,
          "duration": 0.20399272916667144
        },
        {
          "name": "A#2",
          "midi": 46,
          "time": 112.70815300000156,
          "velocity": 0.8661417322834646,
          "duration": 0.20399272916667144
        },
        {
          "name": "C2",
          "midi": 36,
          "time": 112.91648600000157,
          "velocity": 0.8661417322834646,
          "duration": 0.20399272916667144
        },
        {
          "name": "A#2",
          "midi": 46,
          "time": 112.91648600000157,
          "velocity": 0.8661417322834646,
          "duration": 0.20399272916667144
        },
        {
          "name": "A#2",
          "midi": 46,
          "time": 113.12481900000158,
          "velocity": 0.8661417322834646,
          "duration": 0.20399272916667144
        },
        {
          "name": "D2",
          "midi": 38,
          "time": 113.33315200000159,
          "velocity": 0.8661417322834646,
          "duration": 0.20399272916667144
        },
        {
          "name": "A#2",
          "midi": 46,
          "time": 113.33315200000159,
          "velocity": 0.8661417322834646,
          "duration": 0.20399272916667144
        },
        {
          "name": "A#2",
          "midi": 46,
          "time": 113.5414850000016,
          "velocity": 0.8661417322834646,
          "duration": 0.20399272916667144
        },
        {
          "name": "C2",
          "midi": 36,
          "time": 113.74981800000161,
          "velocity": 0.8661417322834646,
          "duration": 0.3081592291666624
        },
        {
          "name": "C#3",
          "midi": 49,
          "time": 113.74981800000161,
          "velocity": 0.8661417322834646,
          "duration": 0.3081592291666624
        },
        {
          "name": "C2",
          "midi": 36,
          "time": 114.06231750000161,
          "velocity": 0.8661417322834646,
          "duration": 0.3081592291666624
        },
        {
          "name": "C#3",
          "midi": 49,
          "time": 114.06231750000161,
          "velocity": 0.8661417322834646,
          "duration": 0.3081592291666624
        },
        {
          "name": "C2",
          "midi": 36,
          "time": 114.37481700000161,
          "velocity": 0.8661417322834646,
          "duration": 0.20399272916667144
        },
        {
          "name": "A#2",
          "midi": 46,
          "time": 114.37481700000161,
          "velocity": 0.8661417322834646,
          "duration": 0.20399272916667144
        },
        {
          "name": "A#2",
          "midi": 46,
          "time": 114.58315000000162,
          "velocity": 0.8661417322834646,
          "duration": 0.20399272916667144
        },
        {
          "name": "D2",
          "midi": 38,
          "time": 114.79148300000163,
          "velocity": 0.8661417322834646,
          "duration": 0.20399272916667144
        },
        {
          "name": "A#2",
          "midi": 46,
          "time": 114.79148300000163,
          "velocity": 0.8661417322834646,
          "duration": 0.20399272916667144
        },
        {
          "name": "A#2",
          "midi": 46,
          "time": 114.99981600000164,
          "velocity": 0.8661417322834646,
          "duration": 0.20399272916667144
        },
        {
          "name": "C2",
          "midi": 36,
          "time": 115.20814900000165,
          "velocity": 0.8661417322834646,
          "duration": 0.20399272916667144
        },
        {
          "name": "A#2",
          "midi": 46,
          "time": 115.20814900000165,
          "velocity": 0.8661417322834646,
          "duration": 0.20399272916667144
        },
        {
          "name": "A#2",
          "midi": 46,
          "time": 115.41648200000166,
          "velocity": 0.8661417322834646,
          "duration": 0.20399272916667144
        },
        {
          "name": "D2",
          "midi": 38,
          "time": 115.62481500000168,
          "velocity": 0.8661417322834646,
          "duration": 0.20399272916667144
        },
        {
          "name": "A#2",
          "midi": 46,
          "time": 115.62481500000168,
          "velocity": 0.8661417322834646,
          "duration": 0.20399272916667144
        },
        {
          "name": "A#2",
          "midi": 46,
          "time": 115.83314800000169,
          "velocity": 0.8661417322834646,
          "duration": 0.20399272916667144
        },
        {
          "name": "C2",
          "midi": 36,
          "time": 116.0414810000017,
          "velocity": 0.8661417322834646,
          "duration": 0.20399272916667144
        },
        {
          "name": "A#2",
          "midi": 46,
          "time": 116.0414810000017,
          "velocity": 0.8661417322834646,
          "duration": 0.20399272916667144
        },
        {
          "name": "A#2",
          "midi": 46,
          "time": 116.2498140000017,
          "velocity": 0.8661417322834646,
          "duration": 0.20399272916667144
        },
        {
          "name": "D2",
          "midi": 38,
          "time": 116.45814700000172,
          "velocity": 0.8661417322834646,
          "duration": 0.20399272916667144
        },
        {
          "name": "A#2",
          "midi": 46,
          "time": 116.45814700000172,
          "velocity": 0.8661417322834646,
          "duration": 0.20399272916667144
        },
        {
          "name": "A#2",
          "midi": 46,
          "time": 116.66648000000173,
          "velocity": 0.8661417322834646,
          "duration": 0.20399272916667144
        },
        {
          "name": "C2",
          "midi": 36,
          "time": 116.87481300000174,
          "velocity": 0.8661417322834646,
          "duration": 0.3081592291666624
        },
        {
          "name": "C#3",
          "midi": 49,
          "time": 116.87481300000174,
          "velocity": 0.8661417322834646,
          "duration": 0.3081592291666624
        },
        {
          "name": "C2",
          "midi": 36,
          "time": 117.18731250000174,
          "velocity": 0.8661417322834646,
          "duration": 0.3081592291666624
        },
        {
          "name": "C#3",
          "midi": 49,
          "time": 117.18731250000174,
          "velocity": 0.8661417322834646,
          "duration": 0.3081592291666624
        },
        {
          "name": "C2",
          "midi": 36,
          "time": 117.49981200000174,
          "velocity": 0.8661417322834646,
          "duration": 0.20399272916667144
        },
        {
          "name": "A#2",
          "midi": 46,
          "time": 117.49981200000174,
          "velocity": 0.8661417322834646,
          "duration": 0.20399272916667144
        },
        {
          "name": "A#2",
          "midi": 46,
          "time": 117.70814500000175,
          "velocity": 0.8661417322834646,
          "duration": 0.20399272916667144
        },
        {
          "name": "D2",
          "midi": 38,
          "time": 117.91647800000176,
          "velocity": 0.8661417322834646,
          "duration": 0.20399272916667144
        },
        {
          "name": "A#2",
          "midi": 46,
          "time": 117.91647800000176,
          "velocity": 0.8661417322834646,
          "duration": 0.20399272916667144
        },
        {
          "name": "A#2",
          "midi": 46,
          "time": 118.12481100000177,
          "velocity": 0.8661417322834646,
          "duration": 0.20399272916667144
        },
        {
          "name": "C2",
          "midi": 36,
          "time": 118.33314400000178,
          "velocity": 0.8661417322834646,
          "duration": 0.20399272916667144
        },
        {
          "name": "A#2",
          "midi": 46,
          "time": 118.33314400000178,
          "velocity": 0.8661417322834646,
          "duration": 0.20399272916667144
        },
        {
          "name": "A#2",
          "midi": 46,
          "time": 118.54147700000179,
          "velocity": 0.8661417322834646,
          "duration": 0.20399272916667144
        },
        {
          "name": "D2",
          "midi": 38,
          "time": 118.7498100000018,
          "velocity": 0.8661417322834646,
          "duration": 0.20399272916667144
        },
        {
          "name": "A#2",
          "midi": 46,
          "time": 118.7498100000018,
          "velocity": 0.8661417322834646,
          "duration": 0.20399272916667144
        },
        {
          "name": "A#2",
          "midi": 46,
          "time": 118.95814300000181,
          "velocity": 0.8661417322834646,
          "duration": 0.20399272916667144
        },
        {
          "name": "C2",
          "midi": 36,
          "time": 119.16647600000182,
          "velocity": 0.8661417322834646,
          "duration": 0.20399272916667144
        },
        {
          "name": "A#2",
          "midi": 46,
          "time": 119.16647600000182,
          "velocity": 0.8661417322834646,
          "duration": 0.20399272916667144
        },
        {
          "name": "A#2",
          "midi": 46,
          "time": 119.37480900000183,
          "velocity": 0.8661417322834646,
          "duration": 0.20399272916667144
        },
        {
          "name": "D2",
          "midi": 38,
          "time": 119.58314200000184,
          "velocity": 0.8661417322834646,
          "duration": 0.20399272916667144
        },
        {
          "name": "A#2",
          "midi": 46,
          "time": 119.58314200000184,
          "velocity": 0.8661417322834646,
          "duration": 0.20399272916667144
        },
        {
          "name": "A#2",
          "midi": 46,
          "time": 119.79147500000185,
          "velocity": 0.8661417322834646,
          "duration": 0.20399272916667144
        },
        {
          "name": "C2",
          "midi": 36,
          "time": 119.99980800000186,
          "velocity": 0.8661417322834646,
          "duration": 0.3081592291666624
        },
        {
          "name": "C#3",
          "midi": 49,
          "time": 119.99980800000186,
          "velocity": 0.8661417322834646,
          "duration": 0.3081592291666624
        },
        {
          "name": "C2",
          "midi": 36,
          "time": 120.31230750000186,
          "velocity": 0.8661417322834646,
          "duration": 0.3081592291666624
        },
        {
          "name": "C#3",
          "midi": 49,
          "time": 120.31230750000186,
          "velocity": 0.8661417322834646,
          "duration": 0.3081592291666624
        },
        {
          "name": "C2",
          "midi": 36,
          "time": 120.62480700000187,
          "velocity": 0.8661417322834646,
          "duration": 0.20399272916667144
        },
        {
          "name": "A#2",
          "midi": 46,
          "time": 120.62480700000187,
          "velocity": 0.8661417322834646,
          "duration": 0.20399272916667144
        },
        {
          "name": "A#2",
          "midi": 46,
          "time": 120.83314000000188,
          "velocity": 0.8661417322834646,
          "duration": 0.20399272916667144
        },
        {
          "name": "D2",
          "midi": 38,
          "time": 121.04147300000189,
          "velocity": 0.8661417322834646,
          "duration": 0.20399272916667144
        },
        {
          "name": "A#2",
          "midi": 46,
          "time": 121.04147300000189,
          "velocity": 0.8661417322834646,
          "duration": 0.20399272916667144
        },
        {
          "name": "A#2",
          "midi": 46,
          "time": 121.2498060000019,
          "velocity": 0.8661417322834646,
          "duration": 0.20399272916667144
        },
        {
          "name": "C2",
          "midi": 36,
          "time": 121.4581390000019,
          "velocity": 0.8661417322834646,
          "duration": 0.20399272916667144
        },
        {
          "name": "A#2",
          "midi": 46,
          "time": 121.4581390000019,
          "velocity": 0.8661417322834646,
          "duration": 0.20399272916667144
        },
        {
          "name": "A#2",
          "midi": 46,
          "time": 121.66647200000192,
          "velocity": 0.8661417322834646,
          "duration": 0.20399272916667144
        },
        {
          "name": "D2",
          "midi": 38,
          "time": 121.87480500000193,
          "velocity": 0.8661417322834646,
          "duration": 0.20399272916667144
        },
        {
          "name": "A#2",
          "midi": 46,
          "time": 121.87480500000193,
          "velocity": 0.8661417322834646,
          "duration": 0.20399272916667144
        },
        {
          "name": "A#2",
          "midi": 46,
          "time": 122.08313800000194,
          "velocity": 0.8661417322834646,
          "duration": 0.20399272916667144
        },
        {
          "name": "C2",
          "midi": 36,
          "time": 122.29147100000195,
          "velocity": 0.8661417322834646,
          "duration": 0.20399272916667144
        },
        {
          "name": "A#2",
          "midi": 46,
          "time": 122.29147100000195,
          "velocity": 0.8661417322834646,
          "duration": 0.20399272916667144
        },
        {
          "name": "A#2",
          "midi": 46,
          "time": 122.49980400000196,
          "velocity": 0.8661417322834646,
          "duration": 0.20399272916667144
        },
        {
          "name": "D2",
          "midi": 38,
          "time": 122.70813700000197,
          "velocity": 0.8661417322834646,
          "duration": 0.20399272916667144
        },
        {
          "name": "A#2",
          "midi": 46,
          "time": 122.70813700000197,
          "velocity": 0.8661417322834646,
          "duration": 0.20399272916667144
        },
        {
          "name": "A#2",
          "midi": 46,
          "time": 122.91647000000198,
          "velocity": 0.8661417322834646,
          "duration": 0.20399272916667144
        },
        {
          "name": "C2",
          "midi": 36,
          "time": 123.12480300000199,
          "velocity": 0.8661417322834646,
          "duration": 0.3081592291666624
        },
        {
          "name": "C#3",
          "midi": 49,
          "time": 123.12480300000199,
          "velocity": 0.8661417322834646,
          "duration": 0.3081592291666624
        },
        {
          "name": "C2",
          "midi": 36,
          "time": 123.43730250000199,
          "velocity": 0.8661417322834646,
          "duration": 0.3081592291666624
        },
        {
          "name": "C#3",
          "midi": 49,
          "time": 123.43730250000199,
          "velocity": 0.8661417322834646,
          "duration": 0.3081592291666624
        },
        {
          "name": "C2",
          "midi": 36,
          "time": 123.74980200000199,
          "velocity": 0.8661417322834646,
          "duration": 0.7291654999999935
        },
        {
          "name": "D2",
          "midi": 38,
          "time": 123.74980200000199,
          "velocity": 0.8661417322834646,
          "duration": 0.7291654999999935
        },
        {
          "name": "F#2",
          "midi": 42,
          "time": 123.74980200000199,
          "velocity": 0.8661417322834646,
          "duration": 0.7291654999999935
        },
        {
          "name": "C#3",
          "midi": 49,
          "time": 123.74980200000199,
          "velocity": 0.8661417322834646,
          "duration": 0.7291654999999935
        },
        {
          "name": "C2",
          "midi": 36,
          "time": 124.58313400000199,
          "velocity": 0.8661417322834646,
          "duration": 0.7291654999999935
        },
        {
          "name": "D2",
          "midi": 38,
          "time": 124.58313400000199,
          "velocity": 0.8661417322834646,
          "duration": 0.7291654999999935
        },
        {
          "name": "F#2",
          "midi": 42,
          "time": 124.58313400000199,
          "velocity": 0.8661417322834646,
          "duration": 0.7291654999999935
        },
        {
          "name": "C#3",
          "midi": 49,
          "time": 124.58313400000199,
          "velocity": 0.8661417322834646,
          "duration": 0.7291654999999935
        },
        {
          "name": "C2",
          "midi": 36,
          "time": 130.416458000002,
          "velocity": 0.8661417322834646,
          "duration": 0.3081592291666766
        },
        {
          "name": "C#3",
          "midi": 49,
          "time": 130.416458000002,
          "velocity": 0.8661417322834646,
          "duration": 0.3081592291666766
        },
        {
          "name": "C2",
          "midi": 36,
          "time": 130.728957500002,
          "velocity": 0.8661417322834646,
          "duration": 0.3081592291666766
        },
        {
          "name": "C#3",
          "midi": 49,
          "time": 130.728957500002,
          "velocity": 0.8661417322834646,
          "duration": 0.3081592291666766
        },
        {
          "name": "C2",
          "midi": 36,
          "time": 131.041457000002,
          "velocity": 0.8661417322834646,
          "duration": 0.20399272916665723
        },
        {
          "name": "C#3",
          "midi": 49,
          "time": 131.041457000002,
          "velocity": 0.8661417322834646,
          "duration": 0.20399272916665723
        },
        {
          "name": "C2",
          "midi": 36,
          "time": 131.24979000000198,
          "velocity": 0.8661417322834646,
          "duration": 0.20399272916665723
        },
        {
          "name": "C#3",
          "midi": 49,
          "time": 131.24979000000198,
          "velocity": 0.8661417322834646,
          "duration": 0.20399272916665723
        },
        {
          "name": "C2",
          "midi": 36,
          "time": 131.45812300000196,
          "velocity": 0.8661417322834646,
          "duration": 0.20399272916665723
        },
        {
          "name": "C#3",
          "midi": 49,
          "time": 131.45812300000196,
          "velocity": 0.8661417322834646,
          "duration": 0.20399272916665723
        },
        {
          "name": "C2",
          "midi": 36,
          "time": 131.66645600000194,
          "velocity": 0.8661417322834646,
          "duration": 0.20399272916665723
        },
        {
          "name": "C#3",
          "midi": 49,
          "time": 131.66645600000194,
          "velocity": 0.8661417322834646,
          "duration": 0.20399272916665723
        },
        {
          "name": "C2",
          "midi": 36,
          "time": 136.87478100000195,
          "velocity": 0.8661417322834646,
          "duration": 0.3081592291666766
        },
        {
          "name": "C#3",
          "midi": 49,
          "time": 136.87478100000195,
          "velocity": 0.8661417322834646,
          "duration": 0.3081592291666766
        },
        {
          "name": "C2",
          "midi": 36,
          "time": 137.18728050000195,
          "velocity": 0.8661417322834646,
          "duration": 0.3081592291666766
        },
        {
          "name": "C#3",
          "midi": 49,
          "time": 137.18728050000195,
          "velocity": 0.8661417322834646,
          "duration": 0.3081592291666766
        },
        {
          "name": "C2",
          "midi": 36,
          "time": 137.49978000000195,
          "velocity": 0.8661417322834646,
          "duration": 0.20399272916665723
        },
        {
          "name": "C#3",
          "midi": 49,
          "time": 137.49978000000195,
          "velocity": 0.8661417322834646,
          "duration": 0.20399272916665723
        },
        {
          "name": "C2",
          "midi": 36,
          "time": 137.70811300000193,
          "velocity": 0.8661417322834646,
          "duration": 0.20399272916665723
        },
        {
          "name": "C#3",
          "midi": 49,
          "time": 137.70811300000193,
          "velocity": 0.8661417322834646,
          "duration": 0.20399272916665723
        },
        {
          "name": "C2",
          "midi": 36,
          "time": 137.9164460000019,
          "velocity": 0.8661417322834646,
          "duration": 0.20399272916665723
        },
        {
          "name": "C#3",
          "midi": 49,
          "time": 137.9164460000019,
          "velocity": 0.8661417322834646,
          "duration": 0.20399272916665723
        },
        {
          "name": "C2",
          "midi": 36,
          "time": 138.1247790000019,
          "velocity": 0.8661417322834646,
          "duration": 0.20399272916665723
        },
        {
          "name": "C#3",
          "midi": 49,
          "time": 138.1247790000019,
          "velocity": 0.8661417322834646,
          "duration": 0.20399272916665723
        },
        {
          "name": "C2",
          "midi": 36,
          "time": 143.3331040000019,
          "velocity": 0.8661417322834646,
          "duration": 0.3081592291666766
        },
        {
          "name": "C#3",
          "midi": 49,
          "time": 143.3331040000019,
          "velocity": 0.8661417322834646,
          "duration": 0.3081592291666766
        },
        {
          "name": "C2",
          "midi": 36,
          "time": 143.6456035000019,
          "velocity": 0.8661417322834646,
          "duration": 0.3081592291666766
        },
        {
          "name": "C#3",
          "midi": 49,
          "time": 143.6456035000019,
          "velocity": 0.8661417322834646,
          "duration": 0.3081592291666766
        },
        {
          "name": "C2",
          "midi": 36,
          "time": 143.9581030000019,
          "velocity": 0.8661417322834646,
          "duration": 0.20399272916665723
        },
        {
          "name": "C#3",
          "midi": 49,
          "time": 143.9581030000019,
          "velocity": 0.8661417322834646,
          "duration": 0.20399272916665723
        },
        {
          "name": "C2",
          "midi": 36,
          "time": 144.16643600000188,
          "velocity": 0.8661417322834646,
          "duration": 0.20399272916665723
        },
        {
          "name": "C#3",
          "midi": 49,
          "time": 144.16643600000188,
          "velocity": 0.8661417322834646,
          "duration": 0.20399272916665723
        },
        {
          "name": "C2",
          "midi": 36,
          "time": 144.37476900000186,
          "velocity": 0.8661417322834646,
          "duration": 0.20399272916665723
        },
        {
          "name": "C#3",
          "midi": 49,
          "time": 144.37476900000186,
          "velocity": 0.8661417322834646,
          "duration": 0.20399272916665723
        },
        {
          "name": "C2",
          "midi": 36,
          "time": 144.58310200000184,
          "velocity": 0.8661417322834646,
          "duration": 0.20399272916665723
        },
        {
          "name": "C#3",
          "midi": 49,
          "time": 144.58310200000184,
          "velocity": 0.8661417322834646,
          "duration": 0.20399272916665723
        },
        {
          "name": "C2",
          "midi": 36,
          "time": 149.79142700000185,
          "velocity": 0.8661417322834646,
          "duration": 0.3081592291666766
        },
        {
          "name": "C#3",
          "midi": 49,
          "time": 149.79142700000185,
          "velocity": 0.8661417322834646,
          "duration": 0.3081592291666766
        },
        {
          "name": "C2",
          "midi": 36,
          "time": 150.10392650000185,
          "velocity": 0.8661417322834646,
          "duration": 0.3081592291666766
        },
        {
          "name": "C#3",
          "midi": 49,
          "time": 150.10392650000185,
          "velocity": 0.8661417322834646,
          "duration": 0.3081592291666766
        },
        {
          "name": "C2",
          "midi": 36,
          "time": 150.41642600000185,
          "velocity": 0.8661417322834646,
          "duration": 0.20399272916665723
        },
        {
          "name": "C#3",
          "midi": 49,
          "time": 150.41642600000185,
          "velocity": 0.8661417322834646,
          "duration": 0.20399272916665723
        },
        {
          "name": "C2",
          "midi": 36,
          "time": 150.62475900000183,
          "velocity": 0.8661417322834646,
          "duration": 0.20399272916665723
        },
        {
          "name": "C#3",
          "midi": 49,
          "time": 150.62475900000183,
          "velocity": 0.8661417322834646,
          "duration": 0.20399272916665723
        },
        {
          "name": "C2",
          "midi": 36,
          "time": 150.8330920000018,
          "velocity": 0.8661417322834646,
          "duration": 0.20399272916665723
        },
        {
          "name": "C#3",
          "midi": 49,
          "time": 150.8330920000018,
          "velocity": 0.8661417322834646,
          "duration": 0.20399272916665723
        },
        {
          "name": "C2",
          "midi": 36,
          "time": 151.0414250000018,
          "velocity": 0.8661417322834646,
          "duration": 0.20399272916665723
        },
        {
          "name": "C#3",
          "midi": 49,
          "time": 151.0414250000018,
          "velocity": 0.8661417322834646,
          "duration": 0.20399272916665723
        },
        {
          "name": "C2",
          "midi": 36,
          "time": 151.24975800000178,
          "velocity": 0.8661417322834646,
          "duration": 0.20399272916665723
        },
        {
          "name": "A#2",
          "midi": 46,
          "time": 151.24975800000178,
          "velocity": 0.8661417322834646,
          "duration": 0.20399272916665723
        },
        {
          "name": "C#3",
          "midi": 49,
          "time": 151.24975800000178,
          "velocity": 0.8661417322834646,
          "duration": 0.20399272916665723
        },
        {
          "name": "D2",
          "midi": 38,
          "time": 151.45809100000176,
          "velocity": 0.8661417322834646,
          "duration": 0.20399272916665723
        },
        {
          "name": "A#2",
          "midi": 46,
          "time": 151.45809100000176,
          "velocity": 0.8661417322834646,
          "duration": 0.20399272916665723
        },
        {
          "name": "C2",
          "midi": 36,
          "time": 151.66642400000174,
          "velocity": 0.8661417322834646,
          "duration": 0.20399272916665723
        },
        {
          "name": "A#2",
          "midi": 46,
          "time": 151.66642400000174,
          "velocity": 0.8661417322834646,
          "duration": 0.20399272916665723
        },
        {
          "name": "D2",
          "midi": 38,
          "time": 151.87475700000172,
          "velocity": 0.8661417322834646,
          "duration": 0.20399272916665723
        },
        {
          "name": "A#2",
          "midi": 46,
          "time": 151.87475700000172,
          "velocity": 0.8661417322834646,
          "duration": 0.20399272916665723
        },
        {
          "name": "C2",
          "midi": 36,
          "time": 152.0830900000017,
          "velocity": 0.8661417322834646,
          "duration": 0.20399272916665723
        },
        {
          "name": "A#2",
          "midi": 46,
          "time": 152.0830900000017,
          "velocity": 0.8661417322834646,
          "duration": 0.20399272916665723
        },
        {
          "name": "D2",
          "midi": 38,
          "time": 152.29142300000169,
          "velocity": 0.8661417322834646,
          "duration": 0.20399272916665723
        },
        {
          "name": "A#2",
          "midi": 46,
          "time": 152.29142300000169,
          "velocity": 0.8661417322834646,
          "duration": 0.20399272916665723
        },
        {
          "name": "C2",
          "midi": 36,
          "time": 152.49975600000167,
          "velocity": 0.8661417322834646,
          "duration": 0.20399272916665723
        },
        {
          "name": "A#2",
          "midi": 46,
          "time": 152.49975600000167,
          "velocity": 0.8661417322834646,
          "duration": 0.20399272916665723
        },
        {
          "name": "D2",
          "midi": 38,
          "time": 152.70808900000165,
          "velocity": 0.8661417322834646,
          "duration": 0.20399272916665723
        },
        {
          "name": "A#2",
          "midi": 46,
          "time": 152.70808900000165,
          "velocity": 0.8661417322834646,
          "duration": 0.20399272916665723
        },
        {
          "name": "C2",
          "midi": 36,
          "time": 152.91642200000163,
          "velocity": 0.8661417322834646,
          "duration": 0.20399272916665723
        },
        {
          "name": "A#2",
          "midi": 46,
          "time": 152.91642200000163,
          "velocity": 0.8661417322834646,
          "duration": 0.20399272916665723
        },
        {
          "name": "D2",
          "midi": 38,
          "time": 153.1247550000016,
          "velocity": 0.8661417322834646,
          "duration": 0.20399272916665723
        },
        {
          "name": "A#2",
          "midi": 46,
          "time": 153.1247550000016,
          "velocity": 0.8661417322834646,
          "duration": 0.20399272916665723
        },
        {
          "name": "C2",
          "midi": 36,
          "time": 153.3330880000016,
          "velocity": 0.8661417322834646,
          "duration": 0.20399272916665723
        },
        {
          "name": "A#2",
          "midi": 46,
          "time": 153.3330880000016,
          "velocity": 0.8661417322834646,
          "duration": 0.20399272916665723
        },
        {
          "name": "D2",
          "midi": 38,
          "time": 153.54142100000158,
          "velocity": 0.8661417322834646,
          "duration": 0.20399272916665723
        },
        {
          "name": "A#2",
          "midi": 46,
          "time": 153.54142100000158,
          "velocity": 0.8661417322834646,
          "duration": 0.20399272916665723
        },
        {
          "name": "C2",
          "midi": 36,
          "time": 153.74975400000156,
          "velocity": 0.8661417322834646,
          "duration": 0.20399272916665723
        },
        {
          "name": "A#2",
          "midi": 46,
          "time": 153.74975400000156,
          "velocity": 0.8661417322834646,
          "duration": 0.20399272916665723
        },
        {
          "name": "D2",
          "midi": 38,
          "time": 153.95808700000154,
          "velocity": 0.8661417322834646,
          "duration": 0.20399272916665723
        },
        {
          "name": "A#2",
          "midi": 46,
          "time": 153.95808700000154,
          "velocity": 0.8661417322834646,
          "duration": 0.20399272916665723
        },
        {
          "name": "C2",
          "midi": 36,
          "time": 154.16642000000152,
          "velocity": 0.8661417322834646,
          "duration": 0.20399272916665723
        },
        {
          "name": "A#2",
          "midi": 46,
          "time": 154.16642000000152,
          "velocity": 0.8661417322834646,
          "duration": 0.20399272916665723
        },
        {
          "name": "D2",
          "midi": 38,
          "time": 154.3747530000015,
          "velocity": 0.8661417322834646,
          "duration": 0.20399272916665723
        },
        {
          "name": "A#2",
          "midi": 46,
          "time": 154.3747530000015,
          "velocity": 0.8661417322834646,
          "duration": 0.20399272916665723
        },
        {
          "name": "C2",
          "midi": 36,
          "time": 154.5830860000015,
          "velocity": 0.8661417322834646,
          "duration": 0.20399272916665723
        },
        {
          "name": "A#2",
          "midi": 46,
          "time": 154.5830860000015,
          "velocity": 0.8661417322834646,
          "duration": 0.20399272916665723
        },
        {
          "name": "C#3",
          "midi": 49,
          "time": 154.5830860000015,
          "velocity": 0.8661417322834646,
          "duration": 0.20399272916665723
        },
        {
          "name": "D2",
          "midi": 38,
          "time": 154.79141900000147,
          "velocity": 0.8661417322834646,
          "duration": 0.20399272916665723
        },
        {
          "name": "A#2",
          "midi": 46,
          "time": 154.79141900000147,
          "velocity": 0.8661417322834646,
          "duration": 0.20399272916665723
        },
        {
          "name": "C2",
          "midi": 36,
          "time": 154.99975200000145,
          "velocity": 0.8661417322834646,
          "duration": 0.20399272916665723
        },
        {
          "name": "A#2",
          "midi": 46,
          "time": 154.99975200000145,
          "velocity": 0.8661417322834646,
          "duration": 0.20399272916665723
        },
        {
          "name": "D2",
          "midi": 38,
          "time": 155.20808500000143,
          "velocity": 0.8661417322834646,
          "duration": 0.20399272916665723
        },
        {
          "name": "A#2",
          "midi": 46,
          "time": 155.20808500000143,
          "velocity": 0.8661417322834646,
          "duration": 0.20399272916665723
        },
        {
          "name": "C2",
          "midi": 36,
          "time": 155.4164180000014,
          "velocity": 0.8661417322834646,
          "duration": 0.20399272916665723
        },
        {
          "name": "A#2",
          "midi": 46,
          "time": 155.4164180000014,
          "velocity": 0.8661417322834646,
          "duration": 0.20399272916665723
        },
        {
          "name": "D2",
          "midi": 38,
          "time": 155.6247510000014,
          "velocity": 0.8661417322834646,
          "duration": 0.20399272916665723
        },
        {
          "name": "A#2",
          "midi": 46,
          "time": 155.6247510000014,
          "velocity": 0.8661417322834646,
          "duration": 0.20399272916665723
        },
        {
          "name": "C2",
          "midi": 36,
          "time": 155.83308400000138,
          "velocity": 0.8661417322834646,
          "duration": 0.20399272916665723
        },
        {
          "name": "A#2",
          "midi": 46,
          "time": 155.83308400000138,
          "velocity": 0.8661417322834646,
          "duration": 0.20399272916665723
        },
        {
          "name": "D2",
          "midi": 38,
          "time": 156.04141700000136,
          "velocity": 0.8661417322834646,
          "duration": 0.20399272916665723
        },
        {
          "name": "A#2",
          "midi": 46,
          "time": 156.04141700000136,
          "velocity": 0.8661417322834646,
          "duration": 0.20399272916665723
        },
        {
          "name": "C2",
          "midi": 36,
          "time": 156.24975000000134,
          "velocity": 0.8661417322834646,
          "duration": 0.3081592291666766
        },
        {
          "name": "C#3",
          "midi": 49,
          "time": 156.24975000000134,
          "velocity": 0.8661417322834646,
          "duration": 0.3081592291666766
        },
        {
          "name": "C2",
          "midi": 36,
          "time": 156.56224950000134,
          "velocity": 0.8661417322834646,
          "duration": 0.3081592291666766
        },
        {
          "name": "C#3",
          "midi": 49,
          "time": 156.56224950000134,
          "velocity": 0.8661417322834646,
          "duration": 0.3081592291666766
        },
        {
          "name": "C2",
          "midi": 36,
          "time": 156.87474900000134,
          "velocity": 0.8661417322834646,
          "duration": 0.20399272916665723
        },
        {
          "name": "C#3",
          "midi": 49,
          "time": 156.87474900000134,
          "velocity": 0.8661417322834646,
          "duration": 0.20399272916665723
        },
        {
          "name": "C2",
          "midi": 36,
          "time": 157.08308200000133,
          "velocity": 0.8661417322834646,
          "duration": 0.20399272916665723
        },
        {
          "name": "C#3",
          "midi": 49,
          "time": 157.08308200000133,
          "velocity": 0.8661417322834646,
          "duration": 0.20399272916665723
        },
        {
          "name": "C2",
          "midi": 36,
          "time": 157.2914150000013,
          "velocity": 0.8661417322834646,
          "duration": 0.20399272916665723
        },
        {
          "name": "C#3",
          "midi": 49,
          "time": 157.2914150000013,
          "velocity": 0.8661417322834646,
          "duration": 0.20399272916665723
        },
        {
          "name": "C2",
          "midi": 36,
          "time": 157.4997480000013,
          "velocity": 0.8661417322834646,
          "duration": 0.20399272916665723
        },
        {
          "name": "C#3",
          "midi": 49,
          "time": 157.4997480000013,
          "velocity": 0.8661417322834646,
          "duration": 0.20399272916665723
        },
        {
          "name": "C2",
          "midi": 36,
          "time": 157.70808100000127,
          "velocity": 0.8661417322834646,
          "duration": 0.20399272916665723
        },
        {
          "name": "A#2",
          "midi": 46,
          "time": 157.70808100000127,
          "velocity": 0.8661417322834646,
          "duration": 0.20399272916665723
        },
        {
          "name": "C#3",
          "midi": 49,
          "time": 157.70808100000127,
          "velocity": 0.8661417322834646,
          "duration": 0.20399272916665723
        },
        {
          "name": "D2",
          "midi": 38,
          "time": 157.91641400000125,
          "velocity": 0.8661417322834646,
          "duration": 0.20399272916665723
        },
        {
          "name": "A#2",
          "midi": 46,
          "time": 157.91641400000125,
          "velocity": 0.8661417322834646,
          "duration": 0.20399272916665723
        },
        {
          "name": "C2",
          "midi": 36,
          "time": 158.12474700000124,
          "velocity": 0.8661417322834646,
          "duration": 0.20399272916665723
        },
        {
          "name": "A#2",
          "midi": 46,
          "time": 158.12474700000124,
          "velocity": 0.8661417322834646,
          "duration": 0.20399272916665723
        },
        {
          "name": "D2",
          "midi": 38,
          "time": 158.33308000000122,
          "velocity": 0.8661417322834646,
          "duration": 0.20399272916665723
        },
        {
          "name": "A#2",
          "midi": 46,
          "time": 158.33308000000122,
          "velocity": 0.8661417322834646,
          "duration": 0.20399272916665723
        },
        {
          "name": "C2",
          "midi": 36,
          "time": 158.5414130000012,
          "velocity": 0.8661417322834646,
          "duration": 0.20399272916665723
        },
        {
          "name": "A#2",
          "midi": 46,
          "time": 158.5414130000012,
          "velocity": 0.8661417322834646,
          "duration": 0.20399272916665723
        },
        {
          "name": "D2",
          "midi": 38,
          "time": 158.74974600000118,
          "velocity": 0.8661417322834646,
          "duration": 0.20399272916665723
        },
        {
          "name": "A#2",
          "midi": 46,
          "time": 158.74974600000118,
          "velocity": 0.8661417322834646,
          "duration": 0.20399272916665723
        },
        {
          "name": "C2",
          "midi": 36,
          "time": 158.95807900000116,
          "velocity": 0.8661417322834646,
          "duration": 0.20399272916665723
        },
        {
          "name": "A#2",
          "midi": 46,
          "time": 158.95807900000116,
          "velocity": 0.8661417322834646,
          "duration": 0.20399272916665723
        },
        {
          "name": "D2",
          "midi": 38,
          "time": 159.16641200000115,
          "velocity": 0.8661417322834646,
          "duration": 0.20399272916665723
        },
        {
          "name": "A#2",
          "midi": 46,
          "time": 159.16641200000115,
          "velocity": 0.8661417322834646,
          "duration": 0.20399272916665723
        },
        {
          "name": "C2",
          "midi": 36,
          "time": 159.37474500000113,
          "velocity": 0.8661417322834646,
          "duration": 0.20399272916665723
        },
        {
          "name": "A#2",
          "midi": 46,
          "time": 159.37474500000113,
          "velocity": 0.8661417322834646,
          "duration": 0.20399272916665723
        },
        {
          "name": "D2",
          "midi": 38,
          "time": 159.5830780000011,
          "velocity": 0.8661417322834646,
          "duration": 0.20399272916665723
        },
        {
          "name": "A#2",
          "midi": 46,
          "time": 159.5830780000011,
          "velocity": 0.8661417322834646,
          "duration": 0.20399272916665723
        },
        {
          "name": "C2",
          "midi": 36,
          "time": 159.7914110000011,
          "velocity": 0.8661417322834646,
          "duration": 0.20399272916665723
        },
        {
          "name": "A#2",
          "midi": 46,
          "time": 159.7914110000011,
          "velocity": 0.8661417322834646,
          "duration": 0.20399272916665723
        },
        {
          "name": "D2",
          "midi": 38,
          "time": 159.99974400000107,
          "velocity": 0.8661417322834646,
          "duration": 0.20399272916665723
        },
        {
          "name": "A#2",
          "midi": 46,
          "time": 159.99974400000107,
          "velocity": 0.8661417322834646,
          "duration": 0.20399272916665723
        },
        {
          "name": "C2",
          "midi": 36,
          "time": 160.20807700000105,
          "velocity": 0.8661417322834646,
          "duration": 0.20399272916665723
        },
        {
          "name": "A#2",
          "midi": 46,
          "time": 160.20807700000105,
          "velocity": 0.8661417322834646,
          "duration": 0.20399272916665723
        },
        {
          "name": "D2",
          "midi": 38,
          "time": 160.41641000000104,
          "velocity": 0.8661417322834646,
          "duration": 0.20399272916665723
        },
        {
          "name": "A#2",
          "midi": 46,
          "time": 160.41641000000104,
          "velocity": 0.8661417322834646,
          "duration": 0.20399272916665723
        },
        {
          "name": "C2",
          "midi": 36,
          "time": 160.62474300000102,
          "velocity": 0.8661417322834646,
          "duration": 0.20399272916665723
        },
        {
          "name": "A#2",
          "midi": 46,
          "time": 160.62474300000102,
          "velocity": 0.8661417322834646,
          "duration": 0.20399272916665723
        },
        {
          "name": "D2",
          "midi": 38,
          "time": 160.833076000001,
          "velocity": 0.8661417322834646,
          "duration": 0.20399272916665723
        },
        {
          "name": "A#2",
          "midi": 46,
          "time": 160.833076000001,
          "velocity": 0.8661417322834646,
          "duration": 0.20399272916665723
        },
        {
          "name": "C2",
          "midi": 36,
          "time": 161.04140900000098,
          "velocity": 0.8661417322834646,
          "duration": 0.20399272916665723
        },
        {
          "name": "A#2",
          "midi": 46,
          "time": 161.04140900000098,
          "velocity": 0.8661417322834646,
          "duration": 0.20399272916665723
        },
        {
          "name": "C#3",
          "midi": 49,
          "time": 161.04140900000098,
          "velocity": 0.8661417322834646,
          "duration": 0.20399272916665723
        },
        {
          "name": "D2",
          "midi": 38,
          "time": 161.24974200000096,
          "velocity": 0.8661417322834646,
          "duration": 0.20399272916665723
        },
        {
          "name": "A#2",
          "midi": 46,
          "time": 161.24974200000096,
          "velocity": 0.8661417322834646,
          "duration": 0.20399272916665723
        },
        {
          "name": "C2",
          "midi": 36,
          "time": 161.45807500000095,
          "velocity": 0.8661417322834646,
          "duration": 0.20399272916665723
        },
        {
          "name": "A#2",
          "midi": 46,
          "time": 161.45807500000095,
          "velocity": 0.8661417322834646,
          "duration": 0.20399272916665723
        },
        {
          "name": "D2",
          "midi": 38,
          "time": 161.66640800000093,
          "velocity": 0.8661417322834646,
          "duration": 0.20399272916665723
        },
        {
          "name": "A#2",
          "midi": 46,
          "time": 161.66640800000093,
          "velocity": 0.8661417322834646,
          "duration": 0.20399272916665723
        },
        {
          "name": "C2",
          "midi": 36,
          "time": 161.8747410000009,
          "velocity": 0.8661417322834646,
          "duration": 0.20399272916665723
        },
        {
          "name": "A#2",
          "midi": 46,
          "time": 161.8747410000009,
          "velocity": 0.8661417322834646,
          "duration": 0.20399272916665723
        },
        {
          "name": "D2",
          "midi": 38,
          "time": 162.0830740000009,
          "velocity": 0.8661417322834646,
          "duration": 0.20399272916665723
        },
        {
          "name": "A#2",
          "midi": 46,
          "time": 162.0830740000009,
          "velocity": 0.8661417322834646,
          "duration": 0.20399272916665723
        },
        {
          "name": "C2",
          "midi": 36,
          "time": 162.29140700000087,
          "velocity": 0.8661417322834646,
          "duration": 0.20399272916665723
        },
        {
          "name": "A#2",
          "midi": 46,
          "time": 162.29140700000087,
          "velocity": 0.8661417322834646,
          "duration": 0.20399272916665723
        },
        {
          "name": "D2",
          "midi": 38,
          "time": 162.49974000000086,
          "velocity": 0.8661417322834646,
          "duration": 0.20399272916665723
        },
        {
          "name": "A#2",
          "midi": 46,
          "time": 162.49974000000086,
          "velocity": 0.8661417322834646,
          "duration": 0.20399272916665723
        },
        {
          "name": "C2",
          "midi": 36,
          "time": 162.70807300000084,
          "velocity": 0.8661417322834646,
          "duration": 0.3081592291666766
        },
        {
          "name": "C#3",
          "midi": 49,
          "time": 162.70807300000084,
          "velocity": 0.8661417322834646,
          "duration": 0.3081592291666766
        },
        {
          "name": "C2",
          "midi": 36,
          "time": 163.02057250000084,
          "velocity": 0.8661417322834646,
          "duration": 0.3081592291666766
        },
        {
          "name": "C#3",
          "midi": 49,
          "time": 163.02057250000084,
          "velocity": 0.8661417322834646,
          "duration": 0.3081592291666766
        },
        {
          "name": "C2",
          "midi": 36,
          "time": 163.33307200000084,
          "velocity": 0.8661417322834646,
          "duration": 0.20399272916665723
        },
        {
          "name": "C#3",
          "midi": 49,
          "time": 163.33307200000084,
          "velocity": 0.8661417322834646,
          "duration": 0.20399272916665723
        },
        {
          "name": "C2",
          "midi": 36,
          "time": 163.54140500000082,
          "velocity": 0.8661417322834646,
          "duration": 0.20399272916665723
        },
        {
          "name": "C#3",
          "midi": 49,
          "time": 163.54140500000082,
          "velocity": 0.8661417322834646,
          "duration": 0.20399272916665723
        },
        {
          "name": "C2",
          "midi": 36,
          "time": 163.7497380000008,
          "velocity": 0.8661417322834646,
          "duration": 0.20399272916665723
        },
        {
          "name": "C#3",
          "midi": 49,
          "time": 163.7497380000008,
          "velocity": 0.8661417322834646,
          "duration": 0.20399272916665723
        },
        {
          "name": "C2",
          "midi": 36,
          "time": 163.95807100000079,
          "velocity": 0.8661417322834646,
          "duration": 0.20399272916665723
        },
        {
          "name": "C#3",
          "midi": 49,
          "time": 163.95807100000079,
          "velocity": 0.8661417322834646,
          "duration": 0.20399272916665723
        },
        {
          "name": "C2",
          "midi": 36,
          "time": 164.16640400000077,
          "velocity": 0.8661417322834646,
          "duration": 0.20399272916665723
        },
        {
          "name": "A#2",
          "midi": 46,
          "time": 164.16640400000077,
          "velocity": 0.8661417322834646,
          "duration": 0.20399272916665723
        },
        {
          "name": "C#3",
          "midi": 49,
          "time": 164.16640400000077,
          "velocity": 0.8661417322834646,
          "duration": 0.20399272916665723
        },
        {
          "name": "D2",
          "midi": 38,
          "time": 164.37473700000075,
          "velocity": 0.8661417322834646,
          "duration": 0.20399272916665723
        },
        {
          "name": "A#2",
          "midi": 46,
          "time": 164.37473700000075,
          "velocity": 0.8661417322834646,
          "duration": 0.20399272916665723
        },
        {
          "name": "C2",
          "midi": 36,
          "time": 164.58307000000073,
          "velocity": 0.8661417322834646,
          "duration": 0.20399272916665723
        },
        {
          "name": "A#2",
          "midi": 46,
          "time": 164.58307000000073,
          "velocity": 0.8661417322834646,
          "duration": 0.20399272916665723
        },
        {
          "name": "D2",
          "midi": 38,
          "time": 164.7914030000007,
          "velocity": 0.8661417322834646,
          "duration": 0.20399272916665723
        },
        {
          "name": "A#2",
          "midi": 46,
          "time": 164.7914030000007,
          "velocity": 0.8661417322834646,
          "duration": 0.20399272916665723
        },
        {
          "name": "C2",
          "midi": 36,
          "time": 164.9997360000007,
          "velocity": 0.8661417322834646,
          "duration": 0.20399272916665723
        },
        {
          "name": "A#2",
          "midi": 46,
          "time": 164.9997360000007,
          "velocity": 0.8661417322834646,
          "duration": 0.20399272916665723
        },
        {
          "name": "D2",
          "midi": 38,
          "time": 165.20806900000068,
          "velocity": 0.8661417322834646,
          "duration": 0.20399272916665723
        },
        {
          "name": "A#2",
          "midi": 46,
          "time": 165.20806900000068,
          "velocity": 0.8661417322834646,
          "duration": 0.20399272916665723
        },
        {
          "name": "C2",
          "midi": 36,
          "time": 165.41640200000066,
          "velocity": 0.8661417322834646,
          "duration": 0.20399272916665723
        },
        {
          "name": "A#2",
          "midi": 46,
          "time": 165.41640200000066,
          "velocity": 0.8661417322834646,
          "duration": 0.20399272916665723
        },
        {
          "name": "D2",
          "midi": 38,
          "time": 165.62473500000064,
          "velocity": 0.8661417322834646,
          "duration": 0.20399272916665723
        },
        {
          "name": "A#2",
          "midi": 46,
          "time": 165.62473500000064,
          "velocity": 0.8661417322834646,
          "duration": 0.20399272916665723
        },
        {
          "name": "C2",
          "midi": 36,
          "time": 165.83306800000062,
          "velocity": 0.8661417322834646,
          "duration": 0.20399272916665723
        },
        {
          "name": "A#2",
          "midi": 46,
          "time": 165.83306800000062,
          "velocity": 0.8661417322834646,
          "duration": 0.20399272916665723
        },
        {
          "name": "D2",
          "midi": 38,
          "time": 166.0414010000006,
          "velocity": 0.8661417322834646,
          "duration": 0.20399272916665723
        },
        {
          "name": "A#2",
          "midi": 46,
          "time": 166.0414010000006,
          "velocity": 0.8661417322834646,
          "duration": 0.20399272916665723
        },
        {
          "name": "C2",
          "midi": 36,
          "time": 166.2497340000006,
          "velocity": 0.8661417322834646,
          "duration": 0.20399272916665723
        },
        {
          "name": "A#2",
          "midi": 46,
          "time": 166.2497340000006,
          "velocity": 0.8661417322834646,
          "duration": 0.20399272916665723
        },
        {
          "name": "D2",
          "midi": 38,
          "time": 166.45806700000057,
          "velocity": 0.8661417322834646,
          "duration": 0.20399272916665723
        },
        {
          "name": "A#2",
          "midi": 46,
          "time": 166.45806700000057,
          "velocity": 0.8661417322834646,
          "duration": 0.20399272916665723
        },
        {
          "name": "C2",
          "midi": 36,
          "time": 166.66640000000055,
          "velocity": 0.8661417322834646,
          "duration": 0.20399272916665723
        },
        {
          "name": "A#2",
          "midi": 46,
          "time": 166.66640000000055,
          "velocity": 0.8661417322834646,
          "duration": 0.20399272916665723
        },
        {
          "name": "D2",
          "midi": 38,
          "time": 166.87473300000053,
          "velocity": 0.8661417322834646,
          "duration": 0.20399272916665723
        },
        {
          "name": "A#2",
          "midi": 46,
          "time": 166.87473300000053,
          "velocity": 0.8661417322834646,
          "duration": 0.20399272916665723
        },
        {
          "name": "C2",
          "midi": 36,
          "time": 167.0830660000005,
          "velocity": 0.8661417322834646,
          "duration": 0.20399272916665723
        },
        {
          "name": "A#2",
          "midi": 46,
          "time": 167.0830660000005,
          "velocity": 0.8661417322834646,
          "duration": 0.20399272916665723
        },
        {
          "name": "D2",
          "midi": 38,
          "time": 167.2913990000005,
          "velocity": 0.8661417322834646,
          "duration": 0.20399272916665723
        },
        {
          "name": "A#2",
          "midi": 46,
          "time": 167.2913990000005,
          "velocity": 0.8661417322834646,
          "duration": 0.20399272916665723
        },
        {
          "name": "C2",
          "midi": 36,
          "time": 167.49973200000048,
          "velocity": 0.8661417322834646,
          "duration": 0.20399272916665723
        },
        {
          "name": "A#2",
          "midi": 46,
          "time": 167.49973200000048,
          "velocity": 0.8661417322834646,
          "duration": 0.20399272916665723
        },
        {
          "name": "C#3",
          "midi": 49,
          "time": 167.49973200000048,
          "velocity": 0.8661417322834646,
          "duration": 0.20399272916665723
        },
        {
          "name": "D2",
          "midi": 38,
          "time": 167.70806500000046,
          "velocity": 0.8661417322834646,
          "duration": 0.20399272916665723
        },
        {
          "name": "A#2",
          "midi": 46,
          "time": 167.70806500000046,
          "velocity": 0.8661417322834646,
          "duration": 0.20399272916665723
        },
        {
          "name": "C2",
          "midi": 36,
          "time": 167.91639800000044,
          "velocity": 0.8661417322834646,
          "duration": 0.20399272916665723
        },
        {
          "name": "A#2",
          "midi": 46,
          "time": 167.91639800000044,
          "velocity": 0.8661417322834646,
          "duration": 0.20399272916665723
        },
        {
          "name": "D2",
          "midi": 38,
          "time": 168.12473100000042,
          "velocity": 0.8661417322834646,
          "duration": 0.20399272916665723
        },
        {
          "name": "A#2",
          "midi": 46,
          "time": 168.12473100000042,
          "velocity": 0.8661417322834646,
          "duration": 0.20399272916665723
        },
        {
          "name": "C2",
          "midi": 36,
          "time": 168.3330640000004,
          "velocity": 0.8661417322834646,
          "duration": 0.20399272916665723
        },
        {
          "name": "A#2",
          "midi": 46,
          "time": 168.3330640000004,
          "velocity": 0.8661417322834646,
          "duration": 0.20399272916665723
        },
        {
          "name": "D2",
          "midi": 38,
          "time": 168.5413970000004,
          "velocity": 0.8661417322834646,
          "duration": 0.20399272916665723
        },
        {
          "name": "A#2",
          "midi": 46,
          "time": 168.5413970000004,
          "velocity": 0.8661417322834646,
          "duration": 0.20399272916665723
        },
        {
          "name": "C2",
          "midi": 36,
          "time": 168.74973000000037,
          "velocity": 0.8661417322834646,
          "duration": 0.20399272916665723
        },
        {
          "name": "A#2",
          "midi": 46,
          "time": 168.74973000000037,
          "velocity": 0.8661417322834646,
          "duration": 0.20399272916665723
        },
        {
          "name": "D2",
          "midi": 38,
          "time": 168.95806300000035,
          "velocity": 0.8661417322834646,
          "duration": 0.20399272916665723
        },
        {
          "name": "A#2",
          "midi": 46,
          "time": 168.95806300000035,
          "velocity": 0.8661417322834646,
          "duration": 0.20399272916665723
        },
        {
          "name": "C2",
          "midi": 36,
          "time": 169.16639600000033,
          "velocity": 0.8661417322834646,
          "duration": 0.3081592291666766
        },
        {
          "name": "C#3",
          "midi": 49,
          "time": 169.16639600000033,
          "velocity": 0.8661417322834646,
          "duration": 0.3081592291666766
        },
        {
          "name": "C2",
          "midi": 36,
          "time": 169.47889550000033,
          "velocity": 0.8661417322834646,
          "duration": 0.3081592291666766
        },
        {
          "name": "C#3",
          "midi": 49,
          "time": 169.47889550000033,
          "velocity": 0.8661417322834646,
          "duration": 0.3081592291666766
        },
        {
          "name": "C2",
          "midi": 36,
          "time": 169.79139500000034,
          "velocity": 0.8661417322834646,
          "duration": 0.20399272916665723
        },
        {
          "name": "C#3",
          "midi": 49,
          "time": 169.79139500000034,
          "velocity": 0.8661417322834646,
          "duration": 0.20399272916665723
        },
        {
          "name": "C2",
          "midi": 36,
          "time": 169.99972800000032,
          "velocity": 0.8661417322834646,
          "duration": 0.20399272916665723
        },
        {
          "name": "C#3",
          "midi": 49,
          "time": 169.99972800000032,
          "velocity": 0.8661417322834646,
          "duration": 0.20399272916665723
        },
        {
          "name": "C2",
          "midi": 36,
          "time": 170.2080610000003,
          "velocity": 0.8661417322834646,
          "duration": 0.20399272916665723
        },
        {
          "name": "C#3",
          "midi": 49,
          "time": 170.2080610000003,
          "velocity": 0.8661417322834646,
          "duration": 0.20399272916665723
        },
        {
          "name": "C2",
          "midi": 36,
          "time": 170.41639400000028,
          "velocity": 0.8661417322834646,
          "duration": 0.20399272916665723
        },
        {
          "name": "C#3",
          "midi": 49,
          "time": 170.41639400000028,
          "velocity": 0.8661417322834646,
          "duration": 0.20399272916665723
        },
        {
          "name": "C2",
          "midi": 36,
          "time": 170.62472700000026,
          "velocity": 0.8661417322834646,
          "duration": 0.20399272916665723
        },
        {
          "name": "A#2",
          "midi": 46,
          "time": 170.62472700000026,
          "velocity": 0.8661417322834646,
          "duration": 0.20399272916665723
        },
        {
          "name": "C#3",
          "midi": 49,
          "time": 170.62472700000026,
          "velocity": 0.8661417322834646,
          "duration": 0.20399272916665723
        },
        {
          "name": "D2",
          "midi": 38,
          "time": 170.83306000000024,
          "velocity": 0.8661417322834646,
          "duration": 0.20399272916665723
        },
        {
          "name": "A#2",
          "midi": 46,
          "time": 170.83306000000024,
          "velocity": 0.8661417322834646,
          "duration": 0.20399272916665723
        },
        {
          "name": "C2",
          "midi": 36,
          "time": 171.04139300000023,
          "velocity": 0.8661417322834646,
          "duration": 0.20399272916665723
        },
        {
          "name": "A#2",
          "midi": 46,
          "time": 171.04139300000023,
          "velocity": 0.8661417322834646,
          "duration": 0.20399272916665723
        },
        {
          "name": "D2",
          "midi": 38,
          "time": 171.2497260000002,
          "velocity": 0.8661417322834646,
          "duration": 0.20399272916665723
        },
        {
          "name": "A#2",
          "midi": 46,
          "time": 171.2497260000002,
          "velocity": 0.8661417322834646,
          "duration": 0.20399272916665723
        },
        {
          "name": "C2",
          "midi": 36,
          "time": 171.4580590000002,
          "velocity": 0.8661417322834646,
          "duration": 0.20399272916665723
        },
        {
          "name": "A#2",
          "midi": 46,
          "time": 171.4580590000002,
          "velocity": 0.8661417322834646,
          "duration": 0.20399272916665723
        },
        {
          "name": "D2",
          "midi": 38,
          "time": 171.66639200000017,
          "velocity": 0.8661417322834646,
          "duration": 0.20399272916665723
        },
        {
          "name": "A#2",
          "midi": 46,
          "time": 171.66639200000017,
          "velocity": 0.8661417322834646,
          "duration": 0.20399272916665723
        },
        {
          "name": "C2",
          "midi": 36,
          "time": 171.87472500000015,
          "velocity": 0.8661417322834646,
          "duration": 0.20399272916665723
        },
        {
          "name": "A#2",
          "midi": 46,
          "time": 171.87472500000015,
          "velocity": 0.8661417322834646,
          "duration": 0.20399272916665723
        },
        {
          "name": "D2",
          "midi": 38,
          "time": 172.08305800000014,
          "velocity": 0.8661417322834646,
          "duration": 0.20399272916665723
        },
        {
          "name": "A#2",
          "midi": 46,
          "time": 172.08305800000014,
          "velocity": 0.8661417322834646,
          "duration": 0.20399272916665723
        },
        {
          "name": "C2",
          "midi": 36,
          "time": 172.29139100000012,
          "velocity": 0.8661417322834646,
          "duration": 0.20399272916665723
        },
        {
          "name": "A#2",
          "midi": 46,
          "time": 172.29139100000012,
          "velocity": 0.8661417322834646,
          "duration": 0.20399272916665723
        },
        {
          "name": "D2",
          "midi": 38,
          "time": 172.4997240000001,
          "velocity": 0.8661417322834646,
          "duration": 0.20399272916665723
        },
        {
          "name": "A#2",
          "midi": 46,
          "time": 172.4997240000001,
          "velocity": 0.8661417322834646,
          "duration": 0.20399272916665723
        },
        {
          "name": "C2",
          "midi": 36,
          "time": 172.70805700000008,
          "velocity": 0.8661417322834646,
          "duration": 0.20399272916665723
        },
        {
          "name": "A#2",
          "midi": 46,
          "time": 172.70805700000008,
          "velocity": 0.8661417322834646,
          "duration": 0.20399272916665723
        },
        {
          "name": "D2",
          "midi": 38,
          "time": 172.91639000000006,
          "velocity": 0.8661417322834646,
          "duration": 0.20399272916665723
        },
        {
          "name": "A#2",
          "midi": 46,
          "time": 172.91639000000006,
          "velocity": 0.8661417322834646,
          "duration": 0.20399272916665723
        },
        {
          "name": "C2",
          "midi": 36,
          "time": 173.12472300000005,
          "velocity": 0.8661417322834646,
          "duration": 0.20399272916665723
        },
        {
          "name": "A#2",
          "midi": 46,
          "time": 173.12472300000005,
          "velocity": 0.8661417322834646,
          "duration": 0.20399272916665723
        },
        {
          "name": "D2",
          "midi": 38,
          "time": 173.33305600000003,
          "velocity": 0.8661417322834646,
          "duration": 0.20399272916665723
        },
        {
          "name": "A#2",
          "midi": 46,
          "time": 173.33305600000003,
          "velocity": 0.8661417322834646,
          "duration": 0.20399272916665723
        },
        {
          "name": "C2",
          "midi": 36,
          "time": 173.541389,
          "velocity": 0.8661417322834646,
          "duration": 0.20399272916665723
        },
        {
          "name": "A#2",
          "midi": 46,
          "time": 173.541389,
          "velocity": 0.8661417322834646,
          "duration": 0.20399272916665723
        },
        {
          "name": "D2",
          "midi": 38,
          "time": 173.749722,
          "velocity": 0.8661417322834646,
          "duration": 0.20399272916665723
        },
        {
          "name": "A#2",
          "midi": 46,
          "time": 173.749722,
          "velocity": 0.8661417322834646,
          "duration": 0.20399272916665723
        },
        {
          "name": "C2",
          "midi": 36,
          "time": 173.95805499999997,
          "velocity": 0.8661417322834646,
          "duration": 0.20399272916665723
        },
        {
          "name": "A#2",
          "midi": 46,
          "time": 173.95805499999997,
          "velocity": 0.8661417322834646,
          "duration": 0.20399272916665723
        },
        {
          "name": "C#3",
          "midi": 49,
          "time": 173.95805499999997,
          "velocity": 0.8661417322834646,
          "duration": 0.20399272916665723
        },
        {
          "name": "D2",
          "midi": 38,
          "time": 174.16638799999996,
          "velocity": 0.8661417322834646,
          "duration": 0.20399272916665723
        },
        {
          "name": "A#2",
          "midi": 46,
          "time": 174.16638799999996,
          "velocity": 0.8661417322834646,
          "duration": 0.20399272916665723
        },
        {
          "name": "C2",
          "midi": 36,
          "time": 174.37472099999994,
          "velocity": 0.8661417322834646,
          "duration": 0.20399272916665723
        },
        {
          "name": "A#2",
          "midi": 46,
          "time": 174.37472099999994,
          "velocity": 0.8661417322834646,
          "duration": 0.20399272916665723
        },
        {
          "name": "D2",
          "midi": 38,
          "time": 174.58305399999992,
          "velocity": 0.8661417322834646,
          "duration": 0.20399272916665723
        },
        {
          "name": "A#2",
          "midi": 46,
          "time": 174.58305399999992,
          "velocity": 0.8661417322834646,
          "duration": 0.20399272916665723
        },
        {
          "name": "C2",
          "midi": 36,
          "time": 174.7913869999999,
          "velocity": 0.8661417322834646,
          "duration": 0.20399272916665723
        },
        {
          "name": "A#2",
          "midi": 46,
          "time": 174.7913869999999,
          "velocity": 0.8661417322834646,
          "duration": 0.20399272916665723
        },
        {
          "name": "D2",
          "midi": 38,
          "time": 174.99971999999988,
          "velocity": 0.8661417322834646,
          "duration": 0.20399272916665723
        },
        {
          "name": "A#2",
          "midi": 46,
          "time": 174.99971999999988,
          "velocity": 0.8661417322834646,
          "duration": 0.20399272916665723
        },
        {
          "name": "C2",
          "midi": 36,
          "time": 175.20805299999986,
          "velocity": 0.8661417322834646,
          "duration": 0.20399272916665723
        },
        {
          "name": "A#2",
          "midi": 46,
          "time": 175.20805299999986,
          "velocity": 0.8661417322834646,
          "duration": 0.20399272916665723
        },
        {
          "name": "D2",
          "midi": 38,
          "time": 175.41638599999985,
          "velocity": 0.8661417322834646,
          "duration": 0.20399272916665723
        },
        {
          "name": "A#2",
          "midi": 46,
          "time": 175.41638599999985,
          "velocity": 0.8661417322834646,
          "duration": 0.20399272916665723
        },
        {
          "name": "C2",
          "midi": 36,
          "time": 175.62471899999983,
          "velocity": 0.8661417322834646,
          "duration": 0.3081592291666766
        },
        {
          "name": "C#3",
          "midi": 49,
          "time": 175.62471899999983,
          "velocity": 0.8661417322834646,
          "duration": 0.3081592291666766
        },
        {
          "name": "C2",
          "midi": 36,
          "time": 175.93721849999983,
          "velocity": 0.8661417322834646,
          "duration": 0.3081592291666766
        },
        {
          "name": "C#3",
          "midi": 49,
          "time": 175.93721849999983,
          "velocity": 0.8661417322834646,
          "duration": 0.3081592291666766
        },
        {
          "name": "C2",
          "midi": 36,
          "time": 176.24971799999983,
          "velocity": 0.8661417322834646,
          "duration": 0.20399272916665723
        },
        {
          "name": "C#3",
          "midi": 49,
          "time": 176.24971799999983,
          "velocity": 0.8661417322834646,
          "duration": 0.20399272916665723
        },
        {
          "name": "C2",
          "midi": 36,
          "time": 176.4580509999998,
          "velocity": 0.8661417322834646,
          "duration": 0.20399272916665723
        },
        {
          "name": "C#3",
          "midi": 49,
          "time": 176.4580509999998,
          "velocity": 0.8661417322834646,
          "duration": 0.20399272916665723
        },
        {
          "name": "C2",
          "midi": 36,
          "time": 176.6663839999998,
          "velocity": 0.8661417322834646,
          "duration": 0.20399272916665723
        },
        {
          "name": "C#3",
          "midi": 49,
          "time": 176.6663839999998,
          "velocity": 0.8661417322834646,
          "duration": 0.20399272916665723
        },
        {
          "name": "C2",
          "midi": 36,
          "time": 176.87471699999978,
          "velocity": 0.8661417322834646,
          "duration": 0.20399272916665723
        },
        {
          "name": "C#3",
          "midi": 49,
          "time": 176.87471699999978,
          "velocity": 0.8661417322834646,
          "duration": 0.20399272916665723
        },
        {
          "name": "C2",
          "midi": 36,
          "time": 177.08304999999976,
          "velocity": 0.8661417322834646,
          "duration": 0.20399272916665723
        },
        {
          "name": "A#2",
          "midi": 46,
          "time": 177.08304999999976,
          "velocity": 0.8661417322834646,
          "duration": 0.20399272916665723
        },
        {
          "name": "C#3",
          "midi": 49,
          "time": 177.08304999999976,
          "velocity": 0.8661417322834646,
          "duration": 0.20399272916665723
        },
        {
          "name": "D2",
          "midi": 38,
          "time": 177.29138299999974,
          "velocity": 0.8661417322834646,
          "duration": 0.20399272916665723
        },
        {
          "name": "A#2",
          "midi": 46,
          "time": 177.29138299999974,
          "velocity": 0.8661417322834646,
          "duration": 0.20399272916665723
        },
        {
          "name": "C2",
          "midi": 36,
          "time": 177.49971599999972,
          "velocity": 0.8661417322834646,
          "duration": 0.20399272916665723
        },
        {
          "name": "A#2",
          "midi": 46,
          "time": 177.49971599999972,
          "velocity": 0.8661417322834646,
          "duration": 0.20399272916665723
        },
        {
          "name": "D2",
          "midi": 38,
          "time": 177.7080489999997,
          "velocity": 0.8661417322834646,
          "duration": 0.20399272916665723
        },
        {
          "name": "A#2",
          "midi": 46,
          "time": 177.7080489999997,
          "velocity": 0.8661417322834646,
          "duration": 0.20399272916665723
        },
        {
          "name": "C2",
          "midi": 36,
          "time": 177.9163819999997,
          "velocity": 0.8661417322834646,
          "duration": 0.20399272916665723
        },
        {
          "name": "A#2",
          "midi": 46,
          "time": 177.9163819999997,
          "velocity": 0.8661417322834646,
          "duration": 0.20399272916665723
        },
        {
          "name": "D2",
          "midi": 38,
          "time": 178.12471499999967,
          "velocity": 0.8661417322834646,
          "duration": 0.20399272916665723
        },
        {
          "name": "A#2",
          "midi": 46,
          "time": 178.12471499999967,
          "velocity": 0.8661417322834646,
          "duration": 0.20399272916665723
        },
        {
          "name": "C2",
          "midi": 36,
          "time": 178.33304799999965,
          "velocity": 0.8661417322834646,
          "duration": 0.20399272916665723
        },
        {
          "name": "A#2",
          "midi": 46,
          "time": 178.33304799999965,
          "velocity": 0.8661417322834646,
          "duration": 0.20399272916665723
        },
        {
          "name": "D2",
          "midi": 38,
          "time": 178.54138099999963,
          "velocity": 0.8661417322834646,
          "duration": 0.20399272916665723
        },
        {
          "name": "A#2",
          "midi": 46,
          "time": 178.54138099999963,
          "velocity": 0.8661417322834646,
          "duration": 0.20399272916665723
        },
        {
          "name": "C2",
          "midi": 36,
          "time": 178.7497139999996,
          "velocity": 0.8661417322834646,
          "duration": 0.20399272916665723
        },
        {
          "name": "A#2",
          "midi": 46,
          "time": 178.7497139999996,
          "velocity": 0.8661417322834646,
          "duration": 0.20399272916665723
        },
        {
          "name": "D2",
          "midi": 38,
          "time": 178.9580469999996,
          "velocity": 0.8661417322834646,
          "duration": 0.20399272916665723
        },
        {
          "name": "A#2",
          "midi": 46,
          "time": 178.9580469999996,
          "velocity": 0.8661417322834646,
          "duration": 0.20399272916665723
        },
        {
          "name": "C2",
          "midi": 36,
          "time": 179.16637999999958,
          "velocity": 0.8661417322834646,
          "duration": 0.20399272916665723
        },
        {
          "name": "A#2",
          "midi": 46,
          "time": 179.16637999999958,
          "velocity": 0.8661417322834646,
          "duration": 0.20399272916665723
        },
        {
          "name": "D2",
          "midi": 38,
          "time": 179.37471299999956,
          "velocity": 0.8661417322834646,
          "duration": 0.20399272916665723
        },
        {
          "name": "A#2",
          "midi": 46,
          "time": 179.37471299999956,
          "velocity": 0.8661417322834646,
          "duration": 0.20399272916665723
        },
        {
          "name": "C2",
          "midi": 36,
          "time": 179.58304599999954,
          "velocity": 0.8661417322834646,
          "duration": 0.20399272916665723
        },
        {
          "name": "A#2",
          "midi": 46,
          "time": 179.58304599999954,
          "velocity": 0.8661417322834646,
          "duration": 0.20399272916665723
        },
        {
          "name": "D2",
          "midi": 38,
          "time": 179.79137899999952,
          "velocity": 0.8661417322834646,
          "duration": 0.20399272916665723
        },
        {
          "name": "A#2",
          "midi": 46,
          "time": 179.79137899999952,
          "velocity": 0.8661417322834646,
          "duration": 0.20399272916665723
        },
        {
          "name": "C2",
          "midi": 36,
          "time": 179.9997119999995,
          "velocity": 0.8661417322834646,
          "duration": 0.20399272916665723
        },
        {
          "name": "A#2",
          "midi": 46,
          "time": 179.9997119999995,
          "velocity": 0.8661417322834646,
          "duration": 0.20399272916665723
        },
        {
          "name": "D2",
          "midi": 38,
          "time": 180.2080449999995,
          "velocity": 0.8661417322834646,
          "duration": 0.20399272916665723
        },
        {
          "name": "A#2",
          "midi": 46,
          "time": 180.2080449999995,
          "velocity": 0.8661417322834646,
          "duration": 0.20399272916665723
        },
        {
          "name": "C2",
          "midi": 36,
          "time": 180.41637799999947,
          "velocity": 0.8661417322834646,
          "duration": 0.20399272916665723
        },
        {
          "name": "A#2",
          "midi": 46,
          "time": 180.41637799999947,
          "velocity": 0.8661417322834646,
          "duration": 0.20399272916665723
        },
        {
          "name": "C#3",
          "midi": 49,
          "time": 180.41637799999947,
          "velocity": 0.8661417322834646,
          "duration": 0.20399272916665723
        },
        {
          "name": "D2",
          "midi": 38,
          "time": 180.62471099999945,
          "velocity": 0.8661417322834646,
          "duration": 0.20399272916665723
        },
        {
          "name": "A#2",
          "midi": 46,
          "time": 180.62471099999945,
          "velocity": 0.8661417322834646,
          "duration": 0.20399272916665723
        },
        {
          "name": "C2",
          "midi": 36,
          "time": 180.83304399999943,
          "velocity": 0.8661417322834646,
          "duration": 0.20399272916665723
        },
        {
          "name": "A#2",
          "midi": 46,
          "time": 180.83304399999943,
          "velocity": 0.8661417322834646,
          "duration": 0.20399272916665723
        },
        {
          "name": "D2",
          "midi": 38,
          "time": 181.04137699999941,
          "velocity": 0.8661417322834646,
          "duration": 0.20399272916665723
        },
        {
          "name": "A#2",
          "midi": 46,
          "time": 181.04137699999941,
          "velocity": 0.8661417322834646,
          "duration": 0.20399272916665723
        },
        {
          "name": "C2",
          "midi": 36,
          "time": 181.2497099999994,
          "velocity": 0.8661417322834646,
          "duration": 0.20399272916665723
        },
        {
          "name": "A#2",
          "midi": 46,
          "time": 181.2497099999994,
          "velocity": 0.8661417322834646,
          "duration": 0.20399272916665723
        },
        {
          "name": "D2",
          "midi": 38,
          "time": 181.45804299999938,
          "velocity": 0.8661417322834646,
          "duration": 0.20399272916665723
        },
        {
          "name": "A#2",
          "midi": 46,
          "time": 181.45804299999938,
          "velocity": 0.8661417322834646,
          "duration": 0.20399272916665723
        },
        {
          "name": "C2",
          "midi": 36,
          "time": 181.66637599999936,
          "velocity": 0.8661417322834646,
          "duration": 0.20399272916665723
        },
        {
          "name": "A#2",
          "midi": 46,
          "time": 181.66637599999936,
          "velocity": 0.8661417322834646,
          "duration": 0.20399272916665723
        },
        {
          "name": "D2",
          "midi": 38,
          "time": 181.87470899999934,
          "velocity": 0.8661417322834646,
          "duration": 0.20399272916665723
        },
        {
          "name": "A#2",
          "midi": 46,
          "time": 181.87470899999934,
          "velocity": 0.8661417322834646,
          "duration": 0.20399272916665723
        },
        {
          "name": "C2",
          "midi": 36,
          "time": 182.08304199999932,
          "velocity": 0.8661417322834646,
          "duration": 0.3081592291666766
        },
        {
          "name": "C#3",
          "midi": 49,
          "time": 182.08304199999932,
          "velocity": 0.8661417322834646,
          "duration": 0.3081592291666766
        },
        {
          "name": "C2",
          "midi": 36,
          "time": 182.39554149999933,
          "velocity": 0.8661417322834646,
          "duration": 0.3081592291666766
        },
        {
          "name": "C#3",
          "midi": 49,
          "time": 182.39554149999933,
          "velocity": 0.8661417322834646,
          "duration": 0.3081592291666766
        },
        {
          "name": "C2",
          "midi": 36,
          "time": 182.70804099999933,
          "velocity": 0.8661417322834646,
          "duration": 0.20399272916665723
        },
        {
          "name": "C#3",
          "midi": 49,
          "time": 182.70804099999933,
          "velocity": 0.8661417322834646,
          "duration": 0.20399272916665723
        },
        {
          "name": "C2",
          "midi": 36,
          "time": 182.9163739999993,
          "velocity": 0.8661417322834646,
          "duration": 0.20399272916665723
        },
        {
          "name": "C#3",
          "midi": 49,
          "time": 182.9163739999993,
          "velocity": 0.8661417322834646,
          "duration": 0.20399272916665723
        },
        {
          "name": "C2",
          "midi": 36,
          "time": 183.1247069999993,
          "velocity": 0.8661417322834646,
          "duration": 0.20399272916665723
        },
        {
          "name": "C#3",
          "midi": 49,
          "time": 183.1247069999993,
          "velocity": 0.8661417322834646,
          "duration": 0.20399272916665723
        },
        {
          "name": "C2",
          "midi": 36,
          "time": 183.33303999999927,
          "velocity": 0.8661417322834646,
          "duration": 0.20399272916665723
        },
        {
          "name": "C#3",
          "midi": 49,
          "time": 183.33303999999927,
          "velocity": 0.8661417322834646,
          "duration": 0.20399272916665723
        },
        {
          "name": "C2",
          "midi": 36,
          "time": 183.54137299999925,
          "velocity": 0.8661417322834646,
          "duration": 0.20399272916665723
        },
        {
          "name": "A#2",
          "midi": 46,
          "time": 183.54137299999925,
          "velocity": 0.8661417322834646,
          "duration": 0.20399272916665723
        },
        {
          "name": "C#3",
          "midi": 49,
          "time": 183.54137299999925,
          "velocity": 0.8661417322834646,
          "duration": 0.20399272916665723
        },
        {
          "name": "D2",
          "midi": 38,
          "time": 183.74970599999924,
          "velocity": 0.8661417322834646,
          "duration": 0.20399272916665723
        },
        {
          "name": "A#2",
          "midi": 46,
          "time": 183.74970599999924,
          "velocity": 0.8661417322834646,
          "duration": 0.20399272916665723
        },
        {
          "name": "C2",
          "midi": 36,
          "time": 183.95803899999922,
          "velocity": 0.8661417322834646,
          "duration": 0.20399272916665723
        },
        {
          "name": "A#2",
          "midi": 46,
          "time": 183.95803899999922,
          "velocity": 0.8661417322834646,
          "duration": 0.20399272916665723
        },
        {
          "name": "D2",
          "midi": 38,
          "time": 184.1663719999992,
          "velocity": 0.8661417322834646,
          "duration": 0.20399272916665723
        },
        {
          "name": "A#2",
          "midi": 46,
          "time": 184.1663719999992,
          "velocity": 0.8661417322834646,
          "duration": 0.20399272916665723
        },
        {
          "name": "C2",
          "midi": 36,
          "time": 184.37470499999918,
          "velocity": 0.8661417322834646,
          "duration": 0.20399272916665723
        },
        {
          "name": "A#2",
          "midi": 46,
          "time": 184.37470499999918,
          "velocity": 0.8661417322834646,
          "duration": 0.20399272916665723
        },
        {
          "name": "D2",
          "midi": 38,
          "time": 184.58303799999916,
          "velocity": 0.8661417322834646,
          "duration": 0.20399272916665723
        },
        {
          "name": "A#2",
          "midi": 46,
          "time": 184.58303799999916,
          "velocity": 0.8661417322834646,
          "duration": 0.20399272916665723
        },
        {
          "name": "C2",
          "midi": 36,
          "time": 184.79137099999915,
          "velocity": 0.8661417322834646,
          "duration": 0.20399272916665723
        },
        {
          "name": "A#2",
          "midi": 46,
          "time": 184.79137099999915,
          "velocity": 0.8661417322834646,
          "duration": 0.20399272916665723
        },
        {
          "name": "D2",
          "midi": 38,
          "time": 184.99970399999913,
          "velocity": 0.8661417322834646,
          "duration": 0.20399272916665723
        },
        {
          "name": "A#2",
          "midi": 46,
          "time": 184.99970399999913,
          "velocity": 0.8661417322834646,
          "duration": 0.20399272916665723
        },
        {
          "name": "C2",
          "midi": 36,
          "time": 185.2080369999991,
          "velocity": 0.8661417322834646,
          "duration": 0.20399272916665723
        },
        {
          "name": "A#2",
          "midi": 46,
          "time": 185.2080369999991,
          "velocity": 0.8661417322834646,
          "duration": 0.20399272916665723
        },
        {
          "name": "D2",
          "midi": 38,
          "time": 185.4163699999991,
          "velocity": 0.8661417322834646,
          "duration": 0.20399272916665723
        },
        {
          "name": "A#2",
          "midi": 46,
          "time": 185.4163699999991,
          "velocity": 0.8661417322834646,
          "duration": 0.20399272916665723
        },
        {
          "name": "C2",
          "midi": 36,
          "time": 185.62470299999907,
          "velocity": 0.8661417322834646,
          "duration": 0.20399272916665723
        },
        {
          "name": "A#2",
          "midi": 46,
          "time": 185.62470299999907,
          "velocity": 0.8661417322834646,
          "duration": 0.20399272916665723
        },
        {
          "name": "D2",
          "midi": 38,
          "time": 185.83303599999905,
          "velocity": 0.8661417322834646,
          "duration": 0.20399272916665723
        },
        {
          "name": "A#2",
          "midi": 46,
          "time": 185.83303599999905,
          "velocity": 0.8661417322834646,
          "duration": 0.20399272916665723
        },
        {
          "name": "C2",
          "midi": 36,
          "time": 186.04136899999904,
          "velocity": 0.8661417322834646,
          "duration": 0.20399272916665723
        },
        {
          "name": "A#2",
          "midi": 46,
          "time": 186.04136899999904,
          "velocity": 0.8661417322834646,
          "duration": 0.20399272916665723
        },
        {
          "name": "D2",
          "midi": 38,
          "time": 186.24970199999902,
          "velocity": 0.8661417322834646,
          "duration": 0.20399272916665723
        },
        {
          "name": "A#2",
          "midi": 46,
          "time": 186.24970199999902,
          "velocity": 0.8661417322834646,
          "duration": 0.20399272916665723
        },
        {
          "name": "C2",
          "midi": 36,
          "time": 186.458034999999,
          "velocity": 0.8661417322834646,
          "duration": 0.20399272916665723
        },
        {
          "name": "A#2",
          "midi": 46,
          "time": 186.458034999999,
          "velocity": 0.8661417322834646,
          "duration": 0.20399272916665723
        },
        {
          "name": "D2",
          "midi": 38,
          "time": 186.66636799999898,
          "velocity": 0.8661417322834646,
          "duration": 0.20399272916665723
        },
        {
          "name": "A#2",
          "midi": 46,
          "time": 186.66636799999898,
          "velocity": 0.8661417322834646,
          "duration": 0.20399272916665723
        },
        {
          "name": "C2",
          "midi": 36,
          "time": 186.87470099999896,
          "velocity": 0.8661417322834646,
          "duration": 0.20399272916665723
        },
        {
          "name": "A#2",
          "midi": 46,
          "time": 186.87470099999896,
          "velocity": 0.8661417322834646,
          "duration": 0.20399272916665723
        },
        {
          "name": "C#3",
          "midi": 49,
          "time": 186.87470099999896,
          "velocity": 0.8661417322834646,
          "duration": 0.20399272916665723
        },
        {
          "name": "D2",
          "midi": 38,
          "time": 187.08303399999895,
          "velocity": 0.8661417322834646,
          "duration": 0.20399272916665723
        },
        {
          "name": "A#2",
          "midi": 46,
          "time": 187.08303399999895,
          "velocity": 0.8661417322834646,
          "duration": 0.20399272916665723
        },
        {
          "name": "C2",
          "midi": 36,
          "time": 187.29136699999893,
          "velocity": 0.8661417322834646,
          "duration": 0.20399272916665723
        },
        {
          "name": "A#2",
          "midi": 46,
          "time": 187.29136699999893,
          "velocity": 0.8661417322834646,
          "duration": 0.20399272916665723
        },
        {
          "name": "D2",
          "midi": 38,
          "time": 187.4996999999989,
          "velocity": 0.8661417322834646,
          "duration": 0.20399272916665723
        },
        {
          "name": "A#2",
          "midi": 46,
          "time": 187.4996999999989,
          "velocity": 0.8661417322834646,
          "duration": 0.20399272916665723
        },
        {
          "name": "C2",
          "midi": 36,
          "time": 187.7080329999989,
          "velocity": 0.8661417322834646,
          "duration": 0.20399272916665723
        },
        {
          "name": "A#2",
          "midi": 46,
          "time": 187.7080329999989,
          "velocity": 0.8661417322834646,
          "duration": 0.20399272916665723
        },
        {
          "name": "D2",
          "midi": 38,
          "time": 187.91636599999887,
          "velocity": 0.8661417322834646,
          "duration": 0.20399272916665723
        },
        {
          "name": "A#2",
          "midi": 46,
          "time": 187.91636599999887,
          "velocity": 0.8661417322834646,
          "duration": 0.20399272916665723
        },
        {
          "name": "C2",
          "midi": 36,
          "time": 188.12469899999886,
          "velocity": 0.8661417322834646,
          "duration": 0.20399272916665723
        },
        {
          "name": "A#2",
          "midi": 46,
          "time": 188.12469899999886,
          "velocity": 0.8661417322834646,
          "duration": 0.20399272916665723
        },
        {
          "name": "D2",
          "midi": 38,
          "time": 188.33303199999884,
          "velocity": 0.8661417322834646,
          "duration": 0.20399272916665723
        },
        {
          "name": "A#2",
          "midi": 46,
          "time": 188.33303199999884,
          "velocity": 0.8661417322834646,
          "duration": 0.20399272916665723
        },
        {
          "name": "C2",
          "midi": 36,
          "time": 188.54136499999882,
          "velocity": 0.8661417322834646,
          "duration": 0.3081592291666766
        },
        {
          "name": "C#3",
          "midi": 49,
          "time": 188.54136499999882,
          "velocity": 0.8661417322834646,
          "duration": 0.3081592291666766
        },
        {
          "name": "C2",
          "midi": 36,
          "time": 188.85386449999882,
          "velocity": 0.8661417322834646,
          "duration": 0.3081592291666766
        },
        {
          "name": "C#3",
          "midi": 49,
          "time": 188.85386449999882,
          "velocity": 0.8661417322834646,
          "duration": 0.3081592291666766
        },
        {
          "name": "C2",
          "midi": 36,
          "time": 189.16636399999882,
          "velocity": 0.8661417322834646,
          "duration": 0.20399272916665723
        },
        {
          "name": "C#3",
          "midi": 49,
          "time": 189.16636399999882,
          "velocity": 0.8661417322834646,
          "duration": 0.20399272916665723
        },
        {
          "name": "C2",
          "midi": 36,
          "time": 189.3746969999988,
          "velocity": 0.8661417322834646,
          "duration": 0.20399272916665723
        },
        {
          "name": "C#3",
          "midi": 49,
          "time": 189.3746969999988,
          "velocity": 0.8661417322834646,
          "duration": 0.20399272916665723
        },
        {
          "name": "C2",
          "midi": 36,
          "time": 189.5830299999988,
          "velocity": 0.8661417322834646,
          "duration": 0.20399272916665723
        },
        {
          "name": "C#3",
          "midi": 49,
          "time": 189.5830299999988,
          "velocity": 0.8661417322834646,
          "duration": 0.20399272916665723
        },
        {
          "name": "C2",
          "midi": 36,
          "time": 189.79136299999877,
          "velocity": 0.8661417322834646,
          "duration": 0.20399272916665723
        },
        {
          "name": "C#3",
          "midi": 49,
          "time": 189.79136299999877,
          "velocity": 0.8661417322834646,
          "duration": 0.20399272916665723
        },
        {
          "name": "C2",
          "midi": 36,
          "time": 189.99969599999875,
          "velocity": 0.8661417322834646,
          "duration": 0.20399272916665723
        },
        {
          "name": "A#2",
          "midi": 46,
          "time": 189.99969599999875,
          "velocity": 0.8661417322834646,
          "duration": 0.20399272916665723
        },
        {
          "name": "C#3",
          "midi": 49,
          "time": 189.99969599999875,
          "velocity": 0.8661417322834646,
          "duration": 0.20399272916665723
        },
        {
          "name": "D2",
          "midi": 38,
          "time": 190.20802899999873,
          "velocity": 0.8661417322834646,
          "duration": 0.20399272916665723
        },
        {
          "name": "A#2",
          "midi": 46,
          "time": 190.20802899999873,
          "velocity": 0.8661417322834646,
          "duration": 0.20399272916665723
        },
        {
          "name": "C2",
          "midi": 36,
          "time": 190.4163619999987,
          "velocity": 0.8661417322834646,
          "duration": 0.20399272916665723
        },
        {
          "name": "A#2",
          "midi": 46,
          "time": 190.4163619999987,
          "velocity": 0.8661417322834646,
          "duration": 0.20399272916665723
        },
        {
          "name": "D2",
          "midi": 38,
          "time": 190.6246949999987,
          "velocity": 0.8661417322834646,
          "duration": 0.20399272916665723
        },
        {
          "name": "A#2",
          "midi": 46,
          "time": 190.6246949999987,
          "velocity": 0.8661417322834646,
          "duration": 0.20399272916665723
        },
        {
          "name": "C2",
          "midi": 36,
          "time": 190.83302799999868,
          "velocity": 0.8661417322834646,
          "duration": 0.20399272916665723
        },
        {
          "name": "A#2",
          "midi": 46,
          "time": 190.83302799999868,
          "velocity": 0.8661417322834646,
          "duration": 0.20399272916665723
        },
        {
          "name": "D2",
          "midi": 38,
          "time": 191.04136099999866,
          "velocity": 0.8661417322834646,
          "duration": 0.20399272916665723
        },
        {
          "name": "A#2",
          "midi": 46,
          "time": 191.04136099999866,
          "velocity": 0.8661417322834646,
          "duration": 0.20399272916665723
        },
        {
          "name": "C2",
          "midi": 36,
          "time": 191.24969399999864,
          "velocity": 0.8661417322834646,
          "duration": 0.20399272916665723
        },
        {
          "name": "A#2",
          "midi": 46,
          "time": 191.24969399999864,
          "velocity": 0.8661417322834646,
          "duration": 0.20399272916665723
        },
        {
          "name": "D2",
          "midi": 38,
          "time": 191.45802699999862,
          "velocity": 0.8661417322834646,
          "duration": 0.20399272916665723
        },
        {
          "name": "A#2",
          "midi": 46,
          "time": 191.45802699999862,
          "velocity": 0.8661417322834646,
          "duration": 0.20399272916665723
        },
        {
          "name": "C2",
          "midi": 36,
          "time": 191.6663599999986,
          "velocity": 0.8661417322834646,
          "duration": 0.20399272916665723
        },
        {
          "name": "A#2",
          "midi": 46,
          "time": 191.6663599999986,
          "velocity": 0.8661417322834646,
          "duration": 0.20399272916665723
        },
        {
          "name": "D2",
          "midi": 38,
          "time": 191.8746929999986,
          "velocity": 0.8661417322834646,
          "duration": 0.20399272916665723
        },
        {
          "name": "A#2",
          "midi": 46,
          "time": 191.8746929999986,
          "velocity": 0.8661417322834646,
          "duration": 0.20399272916665723
        },
        {
          "name": "C2",
          "midi": 36,
          "time": 192.08302599999857,
          "velocity": 0.8661417322834646,
          "duration": 0.20399272916665723
        },
        {
          "name": "A#2",
          "midi": 46,
          "time": 192.08302599999857,
          "velocity": 0.8661417322834646,
          "duration": 0.20399272916665723
        },
        {
          "name": "D2",
          "midi": 38,
          "time": 192.29135899999855,
          "velocity": 0.8661417322834646,
          "duration": 0.20399272916665723
        },
        {
          "name": "A#2",
          "midi": 46,
          "time": 192.29135899999855,
          "velocity": 0.8661417322834646,
          "duration": 0.20399272916665723
        },
        {
          "name": "C2",
          "midi": 36,
          "time": 192.49969199999853,
          "velocity": 0.8661417322834646,
          "duration": 0.20399272916665723
        },
        {
          "name": "A#2",
          "midi": 46,
          "time": 192.49969199999853,
          "velocity": 0.8661417322834646,
          "duration": 0.20399272916665723
        },
        {
          "name": "D2",
          "midi": 38,
          "time": 192.7080249999985,
          "velocity": 0.8661417322834646,
          "duration": 0.20399272916665723
        },
        {
          "name": "A#2",
          "midi": 46,
          "time": 192.7080249999985,
          "velocity": 0.8661417322834646,
          "duration": 0.20399272916665723
        },
        {
          "name": "C2",
          "midi": 36,
          "time": 192.9163579999985,
          "velocity": 0.8661417322834646,
          "duration": 0.20399272916665723
        },
        {
          "name": "A#2",
          "midi": 46,
          "time": 192.9163579999985,
          "velocity": 0.8661417322834646,
          "duration": 0.20399272916665723
        },
        {
          "name": "D2",
          "midi": 38,
          "time": 193.12469099999848,
          "velocity": 0.8661417322834646,
          "duration": 0.20399272916665723
        },
        {
          "name": "A#2",
          "midi": 46,
          "time": 193.12469099999848,
          "velocity": 0.8661417322834646,
          "duration": 0.20399272916665723
        },
        {
          "name": "C2",
          "midi": 36,
          "time": 193.33302399999846,
          "velocity": 0.8661417322834646,
          "duration": 0.20399272916665723
        },
        {
          "name": "A#2",
          "midi": 46,
          "time": 193.33302399999846,
          "velocity": 0.8661417322834646,
          "duration": 0.20399272916665723
        },
        {
          "name": "C#3",
          "midi": 49,
          "time": 193.33302399999846,
          "velocity": 0.8661417322834646,
          "duration": 0.20399272916665723
        },
        {
          "name": "D2",
          "midi": 38,
          "time": 193.54135699999844,
          "velocity": 0.8661417322834646,
          "duration": 0.20399272916665723
        },
        {
          "name": "A#2",
          "midi": 46,
          "time": 193.54135699999844,
          "velocity": 0.8661417322834646,
          "duration": 0.20399272916665723
        },
        {
          "name": "C2",
          "midi": 36,
          "time": 193.74968999999842,
          "velocity": 0.8661417322834646,
          "duration": 0.20399272916665723
        },
        {
          "name": "A#2",
          "midi": 46,
          "time": 193.74968999999842,
          "velocity": 0.8661417322834646,
          "duration": 0.20399272916665723
        },
        {
          "name": "D2",
          "midi": 38,
          "time": 193.9580229999984,
          "velocity": 0.8661417322834646,
          "duration": 0.20399272916665723
        },
        {
          "name": "A#2",
          "midi": 46,
          "time": 193.9580229999984,
          "velocity": 0.8661417322834646,
          "duration": 0.20399272916665723
        },
        {
          "name": "C2",
          "midi": 36,
          "time": 194.1663559999984,
          "velocity": 0.8661417322834646,
          "duration": 0.20399272916665723
        },
        {
          "name": "A#2",
          "midi": 46,
          "time": 194.1663559999984,
          "velocity": 0.8661417322834646,
          "duration": 0.20399272916665723
        },
        {
          "name": "D2",
          "midi": 38,
          "time": 194.37468899999837,
          "velocity": 0.8661417322834646,
          "duration": 0.20399272916665723
        },
        {
          "name": "A#2",
          "midi": 46,
          "time": 194.37468899999837,
          "velocity": 0.8661417322834646,
          "duration": 0.20399272916665723
        },
        {
          "name": "C2",
          "midi": 36,
          "time": 194.58302199999835,
          "velocity": 0.8661417322834646,
          "duration": 0.20399272916665723
        },
        {
          "name": "A#2",
          "midi": 46,
          "time": 194.58302199999835,
          "velocity": 0.8661417322834646,
          "duration": 0.20399272916665723
        },
        {
          "name": "D2",
          "midi": 38,
          "time": 194.79135499999833,
          "velocity": 0.8661417322834646,
          "duration": 0.20399272916665723
        },
        {
          "name": "A#2",
          "midi": 46,
          "time": 194.79135499999833,
          "velocity": 0.8661417322834646,
          "duration": 0.20399272916665723
        },
        {
          "name": "C2",
          "midi": 36,
          "time": 194.99968799999832,
          "velocity": 0.8661417322834646,
          "duration": 0.3081592291666766
        },
        {
          "name": "C#3",
          "midi": 49,
          "time": 194.99968799999832,
          "velocity": 0.8661417322834646,
          "duration": 0.3081592291666766
        },
        {
          "name": "C2",
          "midi": 36,
          "time": 195.31218749999832,
          "velocity": 0.8661417322834646,
          "duration": 0.3081592291666766
        },
        {
          "name": "C#3",
          "midi": 49,
          "time": 195.31218749999832,
          "velocity": 0.8661417322834646,
          "duration": 0.3081592291666766
        },
        {
          "name": "C2",
          "midi": 36,
          "time": 195.62468699999832,
          "velocity": 0.8661417322834646,
          "duration": 0.20399272916665723
        },
        {
          "name": "C#3",
          "midi": 49,
          "time": 195.62468699999832,
          "velocity": 0.8661417322834646,
          "duration": 0.20399272916665723
        },
        {
          "name": "C2",
          "midi": 36,
          "time": 195.8330199999983,
          "velocity": 0.8661417322834646,
          "duration": 0.20399272916665723
        },
        {
          "name": "C#3",
          "midi": 49,
          "time": 195.8330199999983,
          "velocity": 0.8661417322834646,
          "duration": 0.20399272916665723
        },
        {
          "name": "C2",
          "midi": 36,
          "time": 196.04135299999828,
          "velocity": 0.8661417322834646,
          "duration": 0.20399272916665723
        },
        {
          "name": "C#3",
          "midi": 49,
          "time": 196.04135299999828,
          "velocity": 0.8661417322834646,
          "duration": 0.20399272916665723
        },
        {
          "name": "C2",
          "midi": 36,
          "time": 196.24968599999826,
          "velocity": 0.8661417322834646,
          "duration": 0.20399272916665723
        },
        {
          "name": "C#3",
          "midi": 49,
          "time": 196.24968599999826,
          "velocity": 0.8661417322834646,
          "duration": 0.20399272916665723
        },
        {
          "name": "C2",
          "midi": 36,
          "time": 196.45801899999825,
          "velocity": 0.8661417322834646,
          "duration": 0.20399272916665723
        },
        {
          "name": "A#2",
          "midi": 46,
          "time": 196.45801899999825,
          "velocity": 0.8661417322834646,
          "duration": 0.20399272916665723
        },
        {
          "name": "C#3",
          "midi": 49,
          "time": 196.45801899999825,
          "velocity": 0.8661417322834646,
          "duration": 0.20399272916665723
        },
        {
          "name": "D2",
          "midi": 38,
          "time": 196.66635199999823,
          "velocity": 0.8661417322834646,
          "duration": 0.20399272916665723
        },
        {
          "name": "A#2",
          "midi": 46,
          "time": 196.66635199999823,
          "velocity": 0.8661417322834646,
          "duration": 0.20399272916665723
        },
        {
          "name": "C2",
          "midi": 36,
          "time": 196.8746849999982,
          "velocity": 0.8661417322834646,
          "duration": 0.20399272916665723
        },
        {
          "name": "A#2",
          "midi": 46,
          "time": 196.8746849999982,
          "velocity": 0.8661417322834646,
          "duration": 0.20399272916665723
        },
        {
          "name": "D2",
          "midi": 38,
          "time": 197.0830179999982,
          "velocity": 0.8661417322834646,
          "duration": 0.20399272916665723
        },
        {
          "name": "A#2",
          "midi": 46,
          "time": 197.0830179999982,
          "velocity": 0.8661417322834646,
          "duration": 0.20399272916665723
        },
        {
          "name": "C2",
          "midi": 36,
          "time": 197.29135099999817,
          "velocity": 0.8661417322834646,
          "duration": 0.20399272916665723
        },
        {
          "name": "A#2",
          "midi": 46,
          "time": 197.29135099999817,
          "velocity": 0.8661417322834646,
          "duration": 0.20399272916665723
        },
        {
          "name": "D2",
          "midi": 38,
          "time": 197.49968399999815,
          "velocity": 0.8661417322834646,
          "duration": 0.20399272916665723
        },
        {
          "name": "A#2",
          "midi": 46,
          "time": 197.49968399999815,
          "velocity": 0.8661417322834646,
          "duration": 0.20399272916665723
        },
        {
          "name": "C2",
          "midi": 36,
          "time": 197.70801699999814,
          "velocity": 0.8661417322834646,
          "duration": 0.20399272916665723
        },
        {
          "name": "A#2",
          "midi": 46,
          "time": 197.70801699999814,
          "velocity": 0.8661417322834646,
          "duration": 0.20399272916665723
        },
        {
          "name": "D2",
          "midi": 38,
          "time": 197.91634999999812,
          "velocity": 0.8661417322834646,
          "duration": 0.20399272916665723
        },
        {
          "name": "A#2",
          "midi": 46,
          "time": 197.91634999999812,
          "velocity": 0.8661417322834646,
          "duration": 0.20399272916665723
        },
        {
          "name": "C2",
          "midi": 36,
          "time": 198.1246829999981,
          "velocity": 0.8661417322834646,
          "duration": 0.20399272916665723
        },
        {
          "name": "A#2",
          "midi": 46,
          "time": 198.1246829999981,
          "velocity": 0.8661417322834646,
          "duration": 0.20399272916665723
        },
        {
          "name": "D2",
          "midi": 38,
          "time": 198.33301599999808,
          "velocity": 0.8661417322834646,
          "duration": 0.20399272916665723
        },
        {
          "name": "A#2",
          "midi": 46,
          "time": 198.33301599999808,
          "velocity": 0.8661417322834646,
          "duration": 0.20399272916665723
        },
        {
          "name": "C2",
          "midi": 36,
          "time": 198.54134899999806,
          "velocity": 0.8661417322834646,
          "duration": 0.20399272916665723
        },
        {
          "name": "A#2",
          "midi": 46,
          "time": 198.54134899999806,
          "velocity": 0.8661417322834646,
          "duration": 0.20399272916665723
        },
        {
          "name": "D2",
          "midi": 38,
          "time": 198.74968199999805,
          "velocity": 0.8661417322834646,
          "duration": 0.20399272916665723
        },
        {
          "name": "A#2",
          "midi": 46,
          "time": 198.74968199999805,
          "velocity": 0.8661417322834646,
          "duration": 0.20399272916665723
        },
        {
          "name": "C2",
          "midi": 36,
          "time": 198.95801499999803,
          "velocity": 0.8661417322834646,
          "duration": 0.20399272916665723
        },
        {
          "name": "A#2",
          "midi": 46,
          "time": 198.95801499999803,
          "velocity": 0.8661417322834646,
          "duration": 0.20399272916665723
        },
        {
          "name": "D2",
          "midi": 38,
          "time": 199.166347999998,
          "velocity": 0.8661417322834646,
          "duration": 0.20399272916665723
        },
        {
          "name": "A#2",
          "midi": 46,
          "time": 199.166347999998,
          "velocity": 0.8661417322834646,
          "duration": 0.20399272916665723
        },
        {
          "name": "C2",
          "midi": 36,
          "time": 199.374680999998,
          "velocity": 0.8661417322834646,
          "duration": 0.20399272916665723
        },
        {
          "name": "A#2",
          "midi": 46,
          "time": 199.374680999998,
          "velocity": 0.8661417322834646,
          "duration": 0.20399272916665723
        },
        {
          "name": "D2",
          "midi": 38,
          "time": 199.58301399999797,
          "velocity": 0.8661417322834646,
          "duration": 0.20399272916665723
        },
        {
          "name": "A#2",
          "midi": 46,
          "time": 199.58301399999797,
          "velocity": 0.8661417322834646,
          "duration": 0.20399272916665723
        },
        {
          "name": "C2",
          "midi": 36,
          "time": 199.79134699999796,
          "velocity": 0.8661417322834646,
          "duration": 0.20399272916665723
        },
        {
          "name": "A#2",
          "midi": 46,
          "time": 199.79134699999796,
          "velocity": 0.8661417322834646,
          "duration": 0.20399272916665723
        },
        {
          "name": "C#3",
          "midi": 49,
          "time": 199.79134699999796,
          "velocity": 0.8661417322834646,
          "duration": 0.20399272916665723
        },
        {
          "name": "D2",
          "midi": 38,
          "time": 199.99967999999794,
          "velocity": 0.8661417322834646,
          "duration": 0.20399272916665723
        },
        {
          "name": "A#2",
          "midi": 46,
          "time": 199.99967999999794,
          "velocity": 0.8661417322834646,
          "duration": 0.20399272916665723
        },
        {
          "name": "C2",
          "midi": 36,
          "time": 200.20801299999792,
          "velocity": 0.8661417322834646,
          "duration": 0.20399272916665723
        },
        {
          "name": "A#2",
          "midi": 46,
          "time": 200.20801299999792,
          "velocity": 0.8661417322834646,
          "duration": 0.20399272916665723
        },
        {
          "name": "D2",
          "midi": 38,
          "time": 200.4163459999979,
          "velocity": 0.8661417322834646,
          "duration": 0.20399272916665723
        },
        {
          "name": "A#2",
          "midi": 46,
          "time": 200.4163459999979,
          "velocity": 0.8661417322834646,
          "duration": 0.20399272916665723
        },
        {
          "name": "C2",
          "midi": 36,
          "time": 200.62467899999788,
          "velocity": 0.8661417322834646,
          "duration": 0.20399272916665723
        },
        {
          "name": "A#2",
          "midi": 46,
          "time": 200.62467899999788,
          "velocity": 0.8661417322834646,
          "duration": 0.20399272916665723
        },
        {
          "name": "D2",
          "midi": 38,
          "time": 200.83301199999786,
          "velocity": 0.8661417322834646,
          "duration": 0.20399272916665723
        },
        {
          "name": "A#2",
          "midi": 46,
          "time": 200.83301199999786,
          "velocity": 0.8661417322834646,
          "duration": 0.20399272916665723
        },
        {
          "name": "C2",
          "midi": 36,
          "time": 201.04134499999785,
          "velocity": 0.8661417322834646,
          "duration": 0.20399272916665723
        },
        {
          "name": "A#2",
          "midi": 46,
          "time": 201.04134499999785,
          "velocity": 0.8661417322834646,
          "duration": 0.20399272916665723
        },
        {
          "name": "D2",
          "midi": 38,
          "time": 201.24967799999783,
          "velocity": 0.8661417322834646,
          "duration": 0.20399272916665723
        },
        {
          "name": "A#2",
          "midi": 46,
          "time": 201.24967799999783,
          "velocity": 0.8661417322834646,
          "duration": 0.20399272916665723
        },
        {
          "name": "C2",
          "midi": 36,
          "time": 201.4580109999978,
          "velocity": 0.8661417322834646,
          "duration": 0.3081592291666766
        },
        {
          "name": "C#3",
          "midi": 49,
          "time": 201.4580109999978,
          "velocity": 0.8661417322834646,
          "duration": 0.3081592291666766
        },
        {
          "name": "C2",
          "midi": 36,
          "time": 201.7705104999978,
          "velocity": 0.8661417322834646,
          "duration": 0.3081592291666766
        },
        {
          "name": "C#3",
          "midi": 49,
          "time": 201.7705104999978,
          "velocity": 0.8661417322834646,
          "duration": 0.3081592291666766
        },
        {
          "name": "C2",
          "midi": 36,
          "time": 202.0830099999978,
          "velocity": 0.8661417322834646,
          "duration": 0.20399272916665723
        },
        {
          "name": "C#3",
          "midi": 49,
          "time": 202.0830099999978,
          "velocity": 0.8661417322834646,
          "duration": 0.20399272916665723
        },
        {
          "name": "C2",
          "midi": 36,
          "time": 202.2913429999978,
          "velocity": 0.8661417322834646,
          "duration": 0.20399272916665723
        },
        {
          "name": "C#3",
          "midi": 49,
          "time": 202.2913429999978,
          "velocity": 0.8661417322834646,
          "duration": 0.20399272916665723
        },
        {
          "name": "C2",
          "midi": 36,
          "time": 202.49967599999778,
          "velocity": 0.8661417322834646,
          "duration": 0.20399272916665723
        },
        {
          "name": "C#3",
          "midi": 49,
          "time": 202.49967599999778,
          "velocity": 0.8661417322834646,
          "duration": 0.20399272916665723
        },
        {
          "name": "C2",
          "midi": 36,
          "time": 202.70800899999776,
          "velocity": 0.8661417322834646,
          "duration": 0.20399272916665723
        },
        {
          "name": "C#3",
          "midi": 49,
          "time": 202.70800899999776,
          "velocity": 0.8661417322834646,
          "duration": 0.20399272916665723
        },
        {
          "name": "C2",
          "midi": 36,
          "time": 202.91634199999774,
          "velocity": 0.8661417322834646,
          "duration": 0.20399272916665723
        },
        {
          "name": "A#2",
          "midi": 46,
          "time": 202.91634199999774,
          "velocity": 0.8661417322834646,
          "duration": 0.20399272916665723
        },
        {
          "name": "C#3",
          "midi": 49,
          "time": 202.91634199999774,
          "velocity": 0.8661417322834646,
          "duration": 0.20399272916665723
        },
        {
          "name": "D2",
          "midi": 38,
          "time": 203.12467499999772,
          "velocity": 0.8661417322834646,
          "duration": 0.20399272916665723
        },
        {
          "name": "A#2",
          "midi": 46,
          "time": 203.12467499999772,
          "velocity": 0.8661417322834646,
          "duration": 0.20399272916665723
        },
        {
          "name": "C2",
          "midi": 36,
          "time": 203.3330079999977,
          "velocity": 0.8661417322834646,
          "duration": 0.20399272916665723
        },
        {
          "name": "A#2",
          "midi": 46,
          "time": 203.3330079999977,
          "velocity": 0.8661417322834646,
          "duration": 0.20399272916665723
        },
        {
          "name": "D2",
          "midi": 38,
          "time": 203.5413409999977,
          "velocity": 0.8661417322834646,
          "duration": 0.20399272916665723
        },
        {
          "name": "A#2",
          "midi": 46,
          "time": 203.5413409999977,
          "velocity": 0.8661417322834646,
          "duration": 0.20399272916665723
        },
        {
          "name": "C2",
          "midi": 36,
          "time": 203.74967399999767,
          "velocity": 0.8661417322834646,
          "duration": 0.20399272916665723
        },
        {
          "name": "A#2",
          "midi": 46,
          "time": 203.74967399999767,
          "velocity": 0.8661417322834646,
          "duration": 0.20399272916665723
        },
        {
          "name": "D2",
          "midi": 38,
          "time": 203.95800699999765,
          "velocity": 0.8661417322834646,
          "duration": 0.20399272916665723
        },
        {
          "name": "A#2",
          "midi": 46,
          "time": 203.95800699999765,
          "velocity": 0.8661417322834646,
          "duration": 0.20399272916665723
        },
        {
          "name": "C2",
          "midi": 36,
          "time": 204.16633999999763,
          "velocity": 0.8661417322834646,
          "duration": 0.20399272916665723
        },
        {
          "name": "A#2",
          "midi": 46,
          "time": 204.16633999999763,
          "velocity": 0.8661417322834646,
          "duration": 0.20399272916665723
        },
        {
          "name": "D2",
          "midi": 38,
          "time": 204.3746729999976,
          "velocity": 0.8661417322834646,
          "duration": 0.20399272916665723
        },
        {
          "name": "A#2",
          "midi": 46,
          "time": 204.3746729999976,
          "velocity": 0.8661417322834646,
          "duration": 0.20399272916665723
        },
        {
          "name": "C2",
          "midi": 36,
          "time": 204.5830059999976,
          "velocity": 0.8661417322834646,
          "duration": 0.20399272916665723
        },
        {
          "name": "A#2",
          "midi": 46,
          "time": 204.5830059999976,
          "velocity": 0.8661417322834646,
          "duration": 0.20399272916665723
        },
        {
          "name": "D2",
          "midi": 38,
          "time": 204.79133899999758,
          "velocity": 0.8661417322834646,
          "duration": 0.20399272916665723
        },
        {
          "name": "A#2",
          "midi": 46,
          "time": 204.79133899999758,
          "velocity": 0.8661417322834646,
          "duration": 0.20399272916665723
        },
        {
          "name": "C2",
          "midi": 36,
          "time": 204.99967199999756,
          "velocity": 0.8661417322834646,
          "duration": 0.20399272916665723
        },
        {
          "name": "A#2",
          "midi": 46,
          "time": 204.99967199999756,
          "velocity": 0.8661417322834646,
          "duration": 0.20399272916665723
        },
        {
          "name": "D2",
          "midi": 38,
          "time": 205.20800499999754,
          "velocity": 0.8661417322834646,
          "duration": 0.20399272916665723
        },
        {
          "name": "A#2",
          "midi": 46,
          "time": 205.20800499999754,
          "velocity": 0.8661417322834646,
          "duration": 0.20399272916665723
        },
        {
          "name": "C2",
          "midi": 36,
          "time": 205.41633799999752,
          "velocity": 0.8661417322834646,
          "duration": 0.20399272916665723
        },
        {
          "name": "A#2",
          "midi": 46,
          "time": 205.41633799999752,
          "velocity": 0.8661417322834646,
          "duration": 0.20399272916665723
        },
        {
          "name": "D2",
          "midi": 38,
          "time": 205.6246709999975,
          "velocity": 0.8661417322834646,
          "duration": 0.20399272916665723
        },
        {
          "name": "A#2",
          "midi": 46,
          "time": 205.6246709999975,
          "velocity": 0.8661417322834646,
          "duration": 0.20399272916665723
        },
        {
          "name": "C2",
          "midi": 36,
          "time": 205.8330039999975,
          "velocity": 0.8661417322834646,
          "duration": 0.20399272916665723
        },
        {
          "name": "A#2",
          "midi": 46,
          "time": 205.8330039999975,
          "velocity": 0.8661417322834646,
          "duration": 0.20399272916665723
        },
        {
          "name": "D2",
          "midi": 38,
          "time": 206.04133699999747,
          "velocity": 0.8661417322834646,
          "duration": 0.20399272916665723
        },
        {
          "name": "A#2",
          "midi": 46,
          "time": 206.04133699999747,
          "velocity": 0.8661417322834646,
          "duration": 0.20399272916665723
        },
        {
          "name": "C2",
          "midi": 36,
          "time": 206.24966999999745,
          "velocity": 0.8661417322834646,
          "duration": 0.20399272916665723
        },
        {
          "name": "A#2",
          "midi": 46,
          "time": 206.24966999999745,
          "velocity": 0.8661417322834646,
          "duration": 0.20399272916665723
        },
        {
          "name": "C#3",
          "midi": 49,
          "time": 206.24966999999745,
          "velocity": 0.8661417322834646,
          "duration": 0.20399272916665723
        },
        {
          "name": "D2",
          "midi": 38,
          "time": 206.45800299999743,
          "velocity": 0.8661417322834646,
          "duration": 0.20399272916665723
        },
        {
          "name": "A#2",
          "midi": 46,
          "time": 206.45800299999743,
          "velocity": 0.8661417322834646,
          "duration": 0.20399272916665723
        },
        {
          "name": "C2",
          "midi": 36,
          "time": 206.66633599999741,
          "velocity": 0.8661417322834646,
          "duration": 0.20399272916665723
        },
        {
          "name": "A#2",
          "midi": 46,
          "time": 206.66633599999741,
          "velocity": 0.8661417322834646,
          "duration": 0.20399272916665723
        },
        {
          "name": "D2",
          "midi": 38,
          "time": 206.8746689999974,
          "velocity": 0.8661417322834646,
          "duration": 0.20399272916665723
        },
        {
          "name": "A#2",
          "midi": 46,
          "time": 206.8746689999974,
          "velocity": 0.8661417322834646,
          "duration": 0.20399272916665723
        },
        {
          "name": "C2",
          "midi": 36,
          "time": 207.08300199999738,
          "velocity": 0.8661417322834646,
          "duration": 0.20399272916665723
        },
        {
          "name": "A#2",
          "midi": 46,
          "time": 207.08300199999738,
          "velocity": 0.8661417322834646,
          "duration": 0.20399272916665723
        },
        {
          "name": "D2",
          "midi": 38,
          "time": 207.29133499999736,
          "velocity": 0.8661417322834646,
          "duration": 0.20399272916665723
        },
        {
          "name": "A#2",
          "midi": 46,
          "time": 207.29133499999736,
          "velocity": 0.8661417322834646,
          "duration": 0.20399272916665723
        },
        {
          "name": "C2",
          "midi": 36,
          "time": 207.49966799999734,
          "velocity": 0.8661417322834646,
          "duration": 0.20399272916665723
        },
        {
          "name": "A#2",
          "midi": 46,
          "time": 207.49966799999734,
          "velocity": 0.8661417322834646,
          "duration": 0.20399272916665723
        },
        {
          "name": "D2",
          "midi": 38,
          "time": 207.70800099999732,
          "velocity": 0.8661417322834646,
          "duration": 0.20399272916665723
        },
        {
          "name": "A#2",
          "midi": 46,
          "time": 207.70800099999732,
          "velocity": 0.8661417322834646,
          "duration": 0.20399272916665723
        },
        {
          "name": "C2",
          "midi": 36,
          "time": 207.9163339999973,
          "velocity": 0.8661417322834646,
          "duration": 0.3081592291666766
        },
        {
          "name": "C#3",
          "midi": 49,
          "time": 207.9163339999973,
          "velocity": 0.8661417322834646,
          "duration": 0.3081592291666766
        },
        {
          "name": "C2",
          "midi": 36,
          "time": 208.2288334999973,
          "velocity": 0.8661417322834646,
          "duration": 0.3081592291666766
        },
        {
          "name": "C#3",
          "midi": 49,
          "time": 208.2288334999973,
          "velocity": 0.8661417322834646,
          "duration": 0.3081592291666766
        },
        {
          "name": "C2",
          "midi": 36,
          "time": 208.5413329999973,
          "velocity": 0.8661417322834646,
          "duration": 0.20399272916665723
        },
        {
          "name": "C#3",
          "midi": 49,
          "time": 208.5413329999973,
          "velocity": 0.8661417322834646,
          "duration": 0.20399272916665723
        },
        {
          "name": "C2",
          "midi": 36,
          "time": 208.7496659999973,
          "velocity": 0.8661417322834646,
          "duration": 0.20399272916665723
        },
        {
          "name": "C#3",
          "midi": 49,
          "time": 208.7496659999973,
          "velocity": 0.8661417322834646,
          "duration": 0.20399272916665723
        },
        {
          "name": "C2",
          "midi": 36,
          "time": 208.95799899999727,
          "velocity": 0.8661417322834646,
          "duration": 0.20399272916665723
        },
        {
          "name": "C#3",
          "midi": 49,
          "time": 208.95799899999727,
          "velocity": 0.8661417322834646,
          "duration": 0.20399272916665723
        },
        {
          "name": "C2",
          "midi": 36,
          "time": 209.16633199999725,
          "velocity": 0.8661417322834646,
          "duration": 0.20399272916665723
        },
        {
          "name": "C#3",
          "midi": 49,
          "time": 209.16633199999725,
          "velocity": 0.8661417322834646,
          "duration": 0.20399272916665723
        },
        {
          "name": "C2",
          "midi": 36,
          "time": 209.37466499999724,
          "velocity": 0.8661417322834646,
          "duration": 0.20399272916665723
        },
        {
          "name": "A#2",
          "midi": 46,
          "time": 209.37466499999724,
          "velocity": 0.8661417322834646,
          "duration": 0.20399272916665723
        },
        {
          "name": "C#3",
          "midi": 49,
          "time": 209.37466499999724,
          "velocity": 0.8661417322834646,
          "duration": 0.20399272916665723
        },
        {
          "name": "D2",
          "midi": 38,
          "time": 209.58299799999722,
          "velocity": 0.8661417322834646,
          "duration": 0.20399272916665723
        },
        {
          "name": "A#2",
          "midi": 46,
          "time": 209.58299799999722,
          "velocity": 0.8661417322834646,
          "duration": 0.20399272916665723
        },
        {
          "name": "C2",
          "midi": 36,
          "time": 209.7913309999972,
          "velocity": 0.8661417322834646,
          "duration": 0.20399272916665723
        },
        {
          "name": "A#2",
          "midi": 46,
          "time": 209.7913309999972,
          "velocity": 0.8661417322834646,
          "duration": 0.20399272916665723
        },
        {
          "name": "D2",
          "midi": 38,
          "time": 209.99966399999718,
          "velocity": 0.8661417322834646,
          "duration": 0.20399272916665723
        },
        {
          "name": "A#2",
          "midi": 46,
          "time": 209.99966399999718,
          "velocity": 0.8661417322834646,
          "duration": 0.20399272916665723
        },
        {
          "name": "C2",
          "midi": 36,
          "time": 210.20799699999716,
          "velocity": 0.8661417322834646,
          "duration": 0.20399272916665723
        },
        {
          "name": "A#2",
          "midi": 46,
          "time": 210.20799699999716,
          "velocity": 0.8661417322834646,
          "duration": 0.20399272916665723
        },
        {
          "name": "D2",
          "midi": 38,
          "time": 210.41632999999715,
          "velocity": 0.8661417322834646,
          "duration": 0.20399272916665723
        },
        {
          "name": "A#2",
          "midi": 46,
          "time": 210.41632999999715,
          "velocity": 0.8661417322834646,
          "duration": 0.20399272916665723
        },
        {
          "name": "C2",
          "midi": 36,
          "time": 210.62466299999713,
          "velocity": 0.8661417322834646,
          "duration": 0.20399272916665723
        },
        {
          "name": "A#2",
          "midi": 46,
          "time": 210.62466299999713,
          "velocity": 0.8661417322834646,
          "duration": 0.20399272916665723
        },
        {
          "name": "D2",
          "midi": 38,
          "time": 210.8329959999971,
          "velocity": 0.8661417322834646,
          "duration": 0.20399272916665723
        },
        {
          "name": "A#2",
          "midi": 46,
          "time": 210.8329959999971,
          "velocity": 0.8661417322834646,
          "duration": 0.20399272916665723
        },
        {
          "name": "C2",
          "midi": 36,
          "time": 211.0413289999971,
          "velocity": 0.8661417322834646,
          "duration": 0.20399272916665723
        },
        {
          "name": "A#2",
          "midi": 46,
          "time": 211.0413289999971,
          "velocity": 0.8661417322834646,
          "duration": 0.20399272916665723
        },
        {
          "name": "D2",
          "midi": 38,
          "time": 211.24966199999707,
          "velocity": 0.8661417322834646,
          "duration": 0.20399272916665723
        },
        {
          "name": "A#2",
          "midi": 46,
          "time": 211.24966199999707,
          "velocity": 0.8661417322834646,
          "duration": 0.20399272916665723
        },
        {
          "name": "C2",
          "midi": 36,
          "time": 211.45799499999706,
          "velocity": 0.8661417322834646,
          "duration": 0.20399272916665723
        },
        {
          "name": "A#2",
          "midi": 46,
          "time": 211.45799499999706,
          "velocity": 0.8661417322834646,
          "duration": 0.20399272916665723
        },
        {
          "name": "D2",
          "midi": 38,
          "time": 211.66632799999704,
          "velocity": 0.8661417322834646,
          "duration": 0.20399272916665723
        },
        {
          "name": "A#2",
          "midi": 46,
          "time": 211.66632799999704,
          "velocity": 0.8661417322834646,
          "duration": 0.20399272916665723
        },
        {
          "name": "C2",
          "midi": 36,
          "time": 211.87466099999702,
          "velocity": 0.8661417322834646,
          "duration": 0.20399272916665723
        },
        {
          "name": "A#2",
          "midi": 46,
          "time": 211.87466099999702,
          "velocity": 0.8661417322834646,
          "duration": 0.20399272916665723
        },
        {
          "name": "D2",
          "midi": 38,
          "time": 212.082993999997,
          "velocity": 0.8661417322834646,
          "duration": 0.20399272916665723
        },
        {
          "name": "A#2",
          "midi": 46,
          "time": 212.082993999997,
          "velocity": 0.8661417322834646,
          "duration": 0.20399272916665723
        },
        {
          "name": "C2",
          "midi": 36,
          "time": 212.29132699999698,
          "velocity": 0.8661417322834646,
          "duration": 0.20399272916665723
        },
        {
          "name": "A#2",
          "midi": 46,
          "time": 212.29132699999698,
          "velocity": 0.8661417322834646,
          "duration": 0.20399272916665723
        },
        {
          "name": "D2",
          "midi": 38,
          "time": 212.49965999999696,
          "velocity": 0.8661417322834646,
          "duration": 0.20399272916665723
        },
        {
          "name": "A#2",
          "midi": 46,
          "time": 212.49965999999696,
          "velocity": 0.8661417322834646,
          "duration": 0.20399272916665723
        },
        {
          "name": "C2",
          "midi": 36,
          "time": 212.70799299999695,
          "velocity": 0.8661417322834646,
          "duration": 0.20399272916665723
        },
        {
          "name": "A#2",
          "midi": 46,
          "time": 212.70799299999695,
          "velocity": 0.8661417322834646,
          "duration": 0.20399272916665723
        },
        {
          "name": "C#3",
          "midi": 49,
          "time": 212.70799299999695,
          "velocity": 0.8661417322834646,
          "duration": 0.20399272916665723
        },
        {
          "name": "D2",
          "midi": 38,
          "time": 212.91632599999693,
          "velocity": 0.8661417322834646,
          "duration": 0.20399272916665723
        },
        {
          "name": "A#2",
          "midi": 46,
          "time": 212.91632599999693,
          "velocity": 0.8661417322834646,
          "duration": 0.20399272916665723
        },
        {
          "name": "C2",
          "midi": 36,
          "time": 213.1246589999969,
          "velocity": 0.8661417322834646,
          "duration": 0.20399272916665723
        },
        {
          "name": "A#2",
          "midi": 46,
          "time": 213.1246589999969,
          "velocity": 0.8661417322834646,
          "duration": 0.20399272916665723
        },
        {
          "name": "D2",
          "midi": 38,
          "time": 213.3329919999969,
          "velocity": 0.8661417322834646,
          "duration": 0.20399272916665723
        },
        {
          "name": "A#2",
          "midi": 46,
          "time": 213.3329919999969,
          "velocity": 0.8661417322834646,
          "duration": 0.20399272916665723
        },
        {
          "name": "C2",
          "midi": 36,
          "time": 213.54132499999687,
          "velocity": 0.8661417322834646,
          "duration": 0.20399272916665723
        },
        {
          "name": "A#2",
          "midi": 46,
          "time": 213.54132499999687,
          "velocity": 0.8661417322834646,
          "duration": 0.20399272916665723
        },
        {
          "name": "D2",
          "midi": 38,
          "time": 213.74965799999686,
          "velocity": 0.8661417322834646,
          "duration": 0.20399272916665723
        },
        {
          "name": "A#2",
          "midi": 46,
          "time": 213.74965799999686,
          "velocity": 0.8661417322834646,
          "duration": 0.20399272916665723
        },
        {
          "name": "C2",
          "midi": 36,
          "time": 213.95799099999684,
          "velocity": 0.8661417322834646,
          "duration": 0.20399272916665723
        },
        {
          "name": "A#2",
          "midi": 46,
          "time": 213.95799099999684,
          "velocity": 0.8661417322834646,
          "duration": 0.20399272916665723
        },
        {
          "name": "D2",
          "midi": 38,
          "time": 214.16632399999682,
          "velocity": 0.8661417322834646,
          "duration": 0.20399272916665723
        },
        {
          "name": "A#2",
          "midi": 46,
          "time": 214.16632399999682,
          "velocity": 0.8661417322834646,
          "duration": 0.20399272916665723
        },
        {
          "name": "C2",
          "midi": 36,
          "time": 214.3746569999968,
          "velocity": 0.8661417322834646,
          "duration": 0.3081592291666766
        },
        {
          "name": "C#3",
          "midi": 49,
          "time": 214.3746569999968,
          "velocity": 0.8661417322834646,
          "duration": 0.3081592291666766
        },
        {
          "name": "C2",
          "midi": 36,
          "time": 214.6871564999968,
          "velocity": 0.8661417322834646,
          "duration": 0.3081592291666766
        },
        {
          "name": "C#3",
          "midi": 49,
          "time": 214.6871564999968,
          "velocity": 0.8661417322834646,
          "duration": 0.3081592291666766
        },
        {
          "name": "C2",
          "midi": 36,
          "time": 214.9996559999968,
          "velocity": 0.8661417322834646,
          "duration": 0.20399272916665723
        },
        {
          "name": "C#3",
          "midi": 49,
          "time": 214.9996559999968,
          "velocity": 0.8661417322834646,
          "duration": 0.20399272916665723
        },
        {
          "name": "C2",
          "midi": 36,
          "time": 215.2079889999968,
          "velocity": 0.8661417322834646,
          "duration": 0.20399272916665723
        },
        {
          "name": "C#3",
          "midi": 49,
          "time": 215.2079889999968,
          "velocity": 0.8661417322834646,
          "duration": 0.20399272916665723
        },
        {
          "name": "C2",
          "midi": 36,
          "time": 215.41632199999677,
          "velocity": 0.8661417322834646,
          "duration": 0.20399272916665723
        },
        {
          "name": "C#3",
          "midi": 49,
          "time": 215.41632199999677,
          "velocity": 0.8661417322834646,
          "duration": 0.20399272916665723
        },
        {
          "name": "C2",
          "midi": 36,
          "time": 215.62465499999675,
          "velocity": 0.8661417322834646,
          "duration": 0.20399272916665723
        },
        {
          "name": "C#3",
          "midi": 49,
          "time": 215.62465499999675,
          "velocity": 0.8661417322834646,
          "duration": 0.20399272916665723
        },
        {
          "name": "C2",
          "midi": 36,
          "time": 215.83298799999673,
          "velocity": 0.8661417322834646,
          "duration": 0.3081592291666766
        },
        {
          "name": "C#3",
          "midi": 49,
          "time": 215.83298799999673,
          "velocity": 0.8661417322834646,
          "duration": 0.3081592291666766
        },
        {
          "name": "C2",
          "midi": 36,
          "time": 216.14548749999673,
          "velocity": 0.8661417322834646,
          "duration": 0.3081592291666766
        },
        {
          "name": "C#3",
          "midi": 49,
          "time": 216.14548749999673,
          "velocity": 0.8661417322834646,
          "duration": 0.3081592291666766
        },
        {
          "name": "C2",
          "midi": 36,
          "time": 216.45798699999673,
          "velocity": 0.8661417322834646,
          "duration": 0.20399272916665723
        },
        {
          "name": "C#3",
          "midi": 49,
          "time": 216.45798699999673,
          "velocity": 0.8661417322834646,
          "duration": 0.20399272916665723
        },
        {
          "name": "C2",
          "midi": 36,
          "time": 216.66631999999672,
          "velocity": 0.8661417322834646,
          "duration": 0.20399272916665723
        },
        {
          "name": "C#3",
          "midi": 49,
          "time": 216.66631999999672,
          "velocity": 0.8661417322834646,
          "duration": 0.20399272916665723
        },
        {
          "name": "C2",
          "midi": 36,
          "time": 216.8746529999967,
          "velocity": 0.8661417322834646,
          "duration": 0.20399272916665723
        },
        {
          "name": "C#3",
          "midi": 49,
          "time": 216.8746529999967,
          "velocity": 0.8661417322834646,
          "duration": 0.20399272916665723
        },
        {
          "name": "C2",
          "midi": 36,
          "time": 217.08298599999668,
          "velocity": 0.8661417322834646,
          "duration": 0.20399272916665723
        },
        {
          "name": "C#3",
          "midi": 49,
          "time": 217.08298599999668,
          "velocity": 0.8661417322834646,
          "duration": 0.20399272916665723
        },
        {
          "name": "C2",
          "midi": 36,
          "time": 217.29131899999666,
          "velocity": 0.8661417322834646,
          "duration": 0.3081592291666766
        },
        {
          "name": "C#3",
          "midi": 49,
          "time": 217.29131899999666,
          "velocity": 0.8661417322834646,
          "duration": 0.3081592291666766
        },
        {
          "name": "C2",
          "midi": 36,
          "time": 217.60381849999666,
          "velocity": 0.8661417322834646,
          "duration": 0.3081592291666766
        },
        {
          "name": "C#3",
          "midi": 49,
          "time": 217.60381849999666,
          "velocity": 0.8661417322834646,
          "duration": 0.3081592291666766
        },
        {
          "name": "C2",
          "midi": 36,
          "time": 217.91631799999666,
          "velocity": 0.8661417322834646,
          "duration": 0.20399272916665723
        },
        {
          "name": "C#3",
          "midi": 49,
          "time": 217.91631799999666,
          "velocity": 0.8661417322834646,
          "duration": 0.20399272916665723
        },
        {
          "name": "C2",
          "midi": 36,
          "time": 218.12465099999665,
          "velocity": 0.8661417322834646,
          "duration": 0.20399272916665723
        },
        {
          "name": "C#3",
          "midi": 49,
          "time": 218.12465099999665,
          "velocity": 0.8661417322834646,
          "duration": 0.20399272916665723
        },
        {
          "name": "C2",
          "midi": 36,
          "time": 218.33298399999663,
          "velocity": 0.8661417322834646,
          "duration": 0.20399272916665723
        },
        {
          "name": "C#3",
          "midi": 49,
          "time": 218.33298399999663,
          "velocity": 0.8661417322834646,
          "duration": 0.20399272916665723
        },
        {
          "name": "C2",
          "midi": 36,
          "time": 218.5413169999966,
          "velocity": 0.8661417322834646,
          "duration": 0.20399272916665723
        },
        {
          "name": "C#3",
          "midi": 49,
          "time": 218.5413169999966,
          "velocity": 0.8661417322834646,
          "duration": 0.20399272916665723
        },
        {
          "name": "C2",
          "midi": 36,
          "time": 218.7496499999966,
          "velocity": 0.8661417322834646,
          "duration": 0.09982622916666628
        },
        {
          "name": "C#3",
          "midi": 49,
          "time": 218.7496499999966,
          "velocity": 0.8661417322834646,
          "duration": 0.347221666666627
        },
        {
          "name": "C2",
          "midi": 36,
          "time": 218.85381649999658,
          "velocity": 0.8661417322834646,
          "duration": 0.09982622916666628
        },
        {
          "name": "C2",
          "midi": 36,
          "time": 218.95798299999657,
          "velocity": 0.8661417322834646,
          "duration": 0.09982622916666628
        },
        {
          "name": "C2",
          "midi": 36,
          "time": 219.06214949999656,
          "velocity": 0.8661417322834646,
          "duration": 0.09982622916666628
        },
        {
          "name": "C2",
          "midi": 36,
          "time": 219.16631599999656,
          "velocity": 0.8661417322834646,
          "duration": 0.09982622916666628
        },
        {
          "name": "C#3",
          "midi": 49,
          "time": 219.16631599999656,
          "velocity": 0.8661417322834646,
          "duration": 0.347221666666627
        },
        {
          "name": "C2",
          "midi": 36,
          "time": 219.27048249999655,
          "velocity": 0.8661417322834646,
          "duration": 0.09982622916666628
        },
        {
          "name": "C2",
          "midi": 36,
          "time": 219.37464899999654,
          "velocity": 0.8661417322834646,
          "duration": 0.09982622916666628
        },
        {
          "name": "C2",
          "midi": 36,
          "time": 219.47881549999653,
          "velocity": 0.8661417322834646,
          "duration": 0.09982622916666628
        },
        {
          "name": "C2",
          "midi": 36,
          "time": 219.58298199999652,
          "velocity": 0.8661417322834646,
          "duration": 0.09982622916666628
        },
        {
          "name": "C#3",
          "midi": 49,
          "time": 219.58298199999652,
          "velocity": 0.8661417322834646,
          "duration": 0.347221666666627
        },
        {
          "name": "C2",
          "midi": 36,
          "time": 219.6871484999965,
          "velocity": 0.8661417322834646,
          "duration": 0.09982622916666628
        },
        {
          "name": "C2",
          "midi": 36,
          "time": 219.7913149999965,
          "velocity": 0.8661417322834646,
          "duration": 0.09982622916666628
        },
        {
          "name": "C2",
          "midi": 36,
          "time": 219.8954814999965,
          "velocity": 0.8661417322834646,
          "duration": 0.09982622916666628
        },
        {
          "name": "C2",
          "midi": 36,
          "time": 219.99964799999648,
          "velocity": 0.8661417322834646,
          "duration": 0.09982622916666628
        },
        {
          "name": "C#3",
          "midi": 49,
          "time": 219.99964799999648,
          "velocity": 0.8661417322834646,
          "duration": 0.347221666666627
        },
        {
          "name": "C2",
          "midi": 36,
          "time": 220.10381449999647,
          "velocity": 0.8661417322834646,
          "duration": 0.09982622916666628
        },
        {
          "name": "C2",
          "midi": 36,
          "time": 220.20798099999647,
          "velocity": 0.8661417322834646,
          "duration": 0.09982622916666628
        },
        {
          "name": "C2",
          "midi": 36,
          "time": 220.31214749999646,
          "velocity": 0.8661417322834646,
          "duration": 0.09982622916666628
        },
        {
          "name": "C2",
          "midi": 36,
          "time": 220.41631399999645,
          "velocity": 0.8661417322834646,
          "duration": 0.09982622916666628
        },
        {
          "name": "C#3",
          "midi": 49,
          "time": 220.41631399999645,
          "velocity": 0.8661417322834646,
          "duration": 0.347221666666627
        },
        {
          "name": "C2",
          "midi": 36,
          "time": 220.52048049999644,
          "velocity": 0.8661417322834646,
          "duration": 0.09982622916666628
        },
        {
          "name": "C2",
          "midi": 36,
          "time": 220.62464699999643,
          "velocity": 0.8661417322834646,
          "duration": 0.09982622916666628
        },
        {
          "name": "C2",
          "midi": 36,
          "time": 220.72881349999642,
          "velocity": 0.8661417322834646,
          "duration": 0.09982622916666628
        },
        {
          "name": "C2",
          "midi": 36,
          "time": 220.8329799999964,
          "velocity": 0.8661417322834646,
          "duration": 0.09982622916666628
        },
        {
          "name": "C#3",
          "midi": 49,
          "time": 220.8329799999964,
          "velocity": 0.8661417322834646,
          "duration": 0.347221666666627
        },
        {
          "name": "C2",
          "midi": 36,
          "time": 220.9371464999964,
          "velocity": 0.8661417322834646,
          "duration": 0.09982622916666628
        },
        {
          "name": "C2",
          "midi": 36,
          "time": 221.0413129999964,
          "velocity": 0.8661417322834646,
          "duration": 0.09982622916666628
        },
        {
          "name": "C2",
          "midi": 36,
          "time": 221.14547949999638,
          "velocity": 0.8661417322834646,
          "duration": 0.09982622916666628
        },
        {
          "name": "C2",
          "midi": 36,
          "time": 221.24964599999637,
          "velocity": 0.8661417322834646,
          "duration": 0.09982622916666628
        },
        {
          "name": "C#3",
          "midi": 49,
          "time": 221.24964599999637,
          "velocity": 0.8661417322834646,
          "duration": 0.347221666666627
        },
        {
          "name": "C2",
          "midi": 36,
          "time": 221.35381249999637,
          "velocity": 0.8661417322834646,
          "duration": 0.09982622916666628
        },
        {
          "name": "C2",
          "midi": 36,
          "time": 221.45797899999636,
          "velocity": 0.8661417322834646,
          "duration": 0.09982622916666628
        },
        {
          "name": "C2",
          "midi": 36,
          "time": 221.56214549999635,
          "velocity": 0.8661417322834646,
          "duration": 0.09982622916666628
        },
        {
          "name": "C2",
          "midi": 36,
          "time": 221.66631199999634,
          "velocity": 0.8661417322834646,
          "duration": 0.09982622916666628
        },
        {
          "name": "C#3",
          "midi": 49,
          "time": 221.66631199999634,
          "velocity": 0.8661417322834646,
          "duration": 0.347221666666627
        },
        {
          "name": "C2",
          "midi": 36,
          "time": 221.77047849999633,
          "velocity": 0.8661417322834646,
          "duration": 0.09982622916666628
        },
        {
          "name": "C2",
          "midi": 36,
          "time": 221.87464499999632,
          "velocity": 0.8661417322834646,
          "duration": 0.09982622916666628
        },
        {
          "name": "C2",
          "midi": 36,
          "time": 221.9788114999963,
          "velocity": 0.8661417322834646,
          "duration": 0.09982622916666628
        },
        {
          "name": "C2",
          "midi": 36,
          "time": 222.0829779999963,
          "velocity": 0.8661417322834646,
          "duration": 0.09982622916666628
        },
        {
          "name": "C#3",
          "midi": 49,
          "time": 222.0829779999963,
          "velocity": 0.8661417322834646,
          "duration": 1.5624974999998642
        },
        {
          "name": "C2",
          "midi": 36,
          "time": 222.1871444999963,
          "velocity": 0.8661417322834646,
          "duration": 0.09982622916666628
        },
        {
          "name": "C2",
          "midi": 36,
          "time": 222.29131099999628,
          "velocity": 0.8661417322834646,
          "duration": 0.09982622916666628
        },
        {
          "name": "C2",
          "midi": 36,
          "time": 222.39547749999628,
          "velocity": 0.8661417322834646,
          "duration": 0.09982622916666628
        },
        {
          "name": "C2",
          "midi": 36,
          "time": 222.49964399999627,
          "velocity": 0.8661417322834646,
          "duration": 0.09982622916666628
        },
        {
          "name": "C2",
          "midi": 36,
          "time": 222.60381049999626,
          "velocity": 0.8661417322834646,
          "duration": 0.09982622916666628
        },
        {
          "name": "C2",
          "midi": 36,
          "time": 222.70797699999625,
          "velocity": 0.8661417322834646,
          "duration": 0.09982622916666628
        },
        {
          "name": "C2",
          "midi": 36,
          "time": 222.81214349999624,
          "velocity": 0.8661417322834646,
          "duration": 0.09982622916666628
        },
        {
          "name": "C2",
          "midi": 36,
          "time": 222.91630999999623,
          "velocity": 0.8661417322834646,
          "duration": 0.09982622916666628
        },
        {
          "name": "C2",
          "midi": 36,
          "time": 223.02047649999622,
          "velocity": 0.8661417322834646,
          "duration": 0.09982622916666628
        },
        {
          "name": "C2",
          "midi": 36,
          "time": 223.1246429999962,
          "velocity": 0.8661417322834646,
          "duration": 0.09982622916666628
        },
        {
          "name": "C2",
          "midi": 36,
          "time": 223.2288094999962,
          "velocity": 0.8661417322834646,
          "duration": 0.09982622916666628
        },
        {
          "name": "C2",
          "midi": 36,
          "time": 223.3329759999962,
          "velocity": 0.8661417322834646,
          "duration": 0.09982622916666628
        },
        {
          "name": "C2",
          "midi": 36,
          "time": 223.43714249999618,
          "velocity": 0.8661417322834646,
          "duration": 0.09982622916666628
        },
        {
          "name": "C2",
          "midi": 36,
          "time": 223.54130899999618,
          "velocity": 0.8661417322834646,
          "duration": 0.09982622916666628
        },
        {
          "name": "C2",
          "midi": 36,
          "time": 223.64547549999617,
          "velocity": 0.8661417322834646,
          "duration": 0.09982622916666628
        },
        {
          "name": "C2",
          "midi": 36,
          "time": 223.74964199999616,
          "velocity": 0.8661417322834646,
          "duration": 0.09982622916666628
        },
        {
          "name": "C2",
          "midi": 36,
          "time": 223.85380849999615,
          "velocity": 0.8661417322834646,
          "duration": 0.09982622916666628
        },
        {
          "name": "C2",
          "midi": 36,
          "time": 223.95797499999614,
          "velocity": 0.8661417322834646,
          "duration": 0.09982622916666628
        },
        {
          "name": "C2",
          "midi": 36,
          "time": 224.06214149999613,
          "velocity": 0.8661417322834646,
          "duration": 0.09982622916666628
        },
        {
          "name": "C2",
          "midi": 36,
          "time": 224.16630799999612,
          "velocity": 0.8661417322834646,
          "duration": 0.09982622916666628
        },
        {
          "name": "C2",
          "midi": 36,
          "time": 224.2704744999961,
          "velocity": 0.8661417322834646,
          "duration": 0.09982622916666628
        },
        {
          "name": "C2",
          "midi": 36,
          "time": 224.3746409999961,
          "velocity": 0.8661417322834646,
          "duration": 0.09982622916666628
        },
        {
          "name": "C2",
          "midi": 36,
          "time": 224.4788074999961,
          "velocity": 0.8661417322834646,
          "duration": 0.09982622916666628
        },
        {
          "name": "C2",
          "midi": 36,
          "time": 224.58297399999609,
          "velocity": 0.8661417322834646,
          "duration": 0.09982622916666628
        },
        {
          "name": "C2",
          "midi": 36,
          "time": 224.68714049999608,
          "velocity": 0.8661417322834646,
          "duration": 0.09982622916666628
        },
        {
          "name": "C2",
          "midi": 36,
          "time": 224.79130699999607,
          "velocity": 0.8661417322834646,
          "duration": 0.09982622916666628
        },
        {
          "name": "C2",
          "midi": 36,
          "time": 224.89547349999606,
          "velocity": 0.8661417322834646,
          "duration": 0.09982622916666628
        },
        {
          "name": "C2",
          "midi": 36,
          "time": 224.99963999999605,
          "velocity": 0.8661417322834646,
          "duration": 0.09982622916666628
        },
        {
          "name": "C2",
          "midi": 36,
          "time": 225.10380649999604,
          "velocity": 0.8661417322834646,
          "duration": 0.09982622916666628
        },
        {
          "name": "C2",
          "midi": 36,
          "time": 225.20797299999603,
          "velocity": 0.8661417322834646,
          "duration": 0.09982622916666628
        },
        {
          "name": "C2",
          "midi": 36,
          "time": 225.31213949999602,
          "velocity": 0.8661417322834646,
          "duration": 0.09982622916666628
        },
        {
          "name": "C2",
          "midi": 36,
          "time": 225.416305999996,
          "velocity": 0.8661417322834646,
          "duration": 0.34722166666665544
        },
        {
          "name": "C#3",
          "midi": 49,
          "time": 225.416305999996,
          "velocity": 0.8661417322834646,
          "duration": 0.34722166666665544
        },
        {
          "name": "C2",
          "midi": 36,
          "time": 225.832971999996,
          "velocity": 0.8661417322834646,
          "duration": 0.34722166666665544
        },
        {
          "name": "C#3",
          "midi": 49,
          "time": 225.832971999996,
          "velocity": 0.8661417322834646,
          "duration": 0.34722166666665544
        }
      ],
      "controlChanges": {
        "7": [
          {
            "number": 7,
            "time": 0,
            "value": 1
          }
        ],
        "10": [
          {
            "number": 10,
            "time": 0,
            "value": 0.5039370078740157
          }
        ]
      },
      "id": 6,
      "name": "Drums",
      "channelNumber": 9,
      "isPercussion": true
    }
  ]
}