{
  "header": {
    "bpm": 120,
    "timeSignature": [
      4,
      4
    ],
    "PPQ": 480,
    "name": ""
  },
  "startTime": 0,
  "duration": 75.29,
  "tracks": [
    {
      "startTime": 0,
      "duration": 75.29,
      "length": 499,
      "notes": [
        {
          "name": "A5",
          "midi": 81,
          "time": 0,
          "velocity": 1,
          "duration": 0.15
        },
        {
          "name": "G#5",
          "midi": 80,
          "time": 0.15,
          "velocity": 1,
          "duration": 0.15
        },
        {
          "name": "A5",
          "midi": 81,
          "time": 0.3,
          "velocity": 1,
          "duration": 0.15
        },
        {
          "name": "C6",
          "midi": 84,
          "time": 0.45,
          "velocity": 1,
          "duration": 0.15
        },
        {
          "name": "A5",
          "midi": 81,
          "time": 0.6,
          "velocity": 1,
          "duration": 0.15
        },
        {
          "name": "E5",
          "midi": 76,
          "time": 0.75,
          "velocity": 1,
          "duration": 0.15
        },
        {
          "name": "A4",
          "midi": 69,
          "time": 0.9,
          "velocity": 1,
          "duration": 0.15
        },
        {
          "name": "C5",
          "midi": 72,
          "time": 1.05,
          "velocity": 1,
          "duration": 0.15
        },
        {
          "name": "E5",
          "midi": 76,
          "time": 1.2,
          "velocity": 1,
          "duration": 0.15
        },
        {
          "name": "F5",
          "midi": 77,
          "time": 1.35,
          "velocity": 1,
          "duration": 0.15
        },
        {
          "name": "G#4",
          "midi": 68,
          "time": 1.5,
          "velocity": 1,
          "duration": 0.15
        },
        {
          "name": "F5",
          "midi": 77,
          "time": 1.65,
          "velocity": 1,
          "duration": 0.15
        },
        {
          "name": "E5",
          "midi": 76,
          "time": 1.8,
          "velocity": 1,
          "duration": 0.15
        },
        {
          "name": "D5",
          "midi": 74,
          "time": 1.95,
          "velocity": 1,
          "duration": 0.15
        },
        {
          "name": "C5",
          "midi": 72,
          "time": 2.1,
          "velocity": 1,
          "duration": 0.15
        },
        {
          "name": "E5",
          "midi": 76,
          "time": 2.25,
          "velocity": 1,
          "duration": 0.15
        },
        {
          "name": "G#5",
          "midi": 80,
          "time": 2.4,
          "velocity": 1,
          "duration": 0.15
        },
        {
          "name": "A5",
          "midi": 81,
          "time": 2.55,
          "velocity": 1,
          "duration": 0.15
        },
        {
          "name": "E4",
          "midi": 64,
          "time": 2.7,
          "velocity": 1,
          "duration": 0.15
        },
        {
          "name": "D5",
          "midi": 74,
          "time": 2.85,
          "velocity": 1,
          "duration": 0.15
        },
        {
          "name": "C5",
          "midi": 72,
          "time": 3,
          "velocity": 1,
          "duration": 0.15
        },
        {
          "name": "B4",
          "midi": 71,
          "time": 3.15,
          "velocity": 1,
          "duration": 0.14
        },
        {
          "name": "A4",
          "midi": 69,
          "time": 3.29,
          "velocity": 1,
          "duration": 0.15
        },
        {
          "name": "C5",
          "midi": 72,
          "time": 3.44,
          "velocity": 1,
          "duration": 0.15
        },
        {
          "name": "G#4",
          "midi": 68,
          "time": 3.59,
          "velocity": 1,
          "duration": 0.15
        },
        {
          "name": "A4",
          "midi": 69,
          "time": 3.74,
          "velocity": 1,
          "duration": 0.15
        },
        {
          "name": "F4",
          "midi": 65,
          "time": 3.89,
          "velocity": 1,
          "duration": 0.15
        },
        {
          "name": "E5",
          "midi": 76,
          "time": 4.04,
          "velocity": 1,
          "duration": 0.14
        },
        {
          "name": "G#4",
          "midi": 68,
          "time": 4.18,
          "velocity": 1,
          "duration": 0.15
        },
        {
          "name": "A4",
          "midi": 69,
          "time": 4.33,
          "velocity": 1,
          "duration": 0.15
        },
        {
          "name": "E4",
          "midi": 64,
          "time": 4.48,
          "velocity": 1,
          "duration": 0.15
        },
        {
          "name": "C5",
          "midi": 72,
          "time": 4.63,
          "velocity": 1,
          "duration": 0.16
        },
        {
          "name": "E5",
          "midi": 76,
          "time": 4.79,
          "velocity": 1,
          "duration": 0.14
        },
        {
          "name": "A4",
          "midi": 69,
          "time": 4.93,
          "velocity": 1,
          "duration": 0.15
        },
        {
          "name": "D4",
          "midi": 62,
          "time": 5.08,
          "velocity": 1,
          "duration": 0.14
        },
        {
          "name": "C5",
          "midi": 72,
          "time": 5.22,
          "velocity": 1,
          "duration": 0.14
        },
        {
          "name": "B4",
          "midi": 71,
          "time": 5.36,
          "velocity": 1,
          "duration": 0.14
        },
        {
          "name": "A4",
          "midi": 69,
          "time": 5.5,
          "velocity": 1,
          "duration": 0.15
        },
        {
          "name": "E4",
          "midi": 64,
          "time": 5.65,
          "velocity": 1,
          "duration": 0.15
        },
        {
          "name": "F4",
          "midi": 65,
          "time": 5.8,
          "velocity": 1,
          "duration": 0.15
        },
        {
          "name": "G#4",
          "midi": 68,
          "time": 5.95,
          "velocity": 1,
          "duration": 0.14
        },
        {
          "name": "A4",
          "midi": 69,
          "time": 6.09,
          "velocity": 1,
          "duration": 0.16
        },
        {
          "name": "E5",
          "midi": 76,
          "time": 6.25,
          "velocity": 1,
          "duration": 0.14
        },
        {
          "name": "C5",
          "midi": 72,
          "time": 6.39,
          "velocity": 1,
          "duration": 0.15
        },
        {
          "name": "E5",
          "midi": 76,
          "time": 6.54,
          "velocity": 1,
          "duration": 0.14
        },
        {
          "name": "A4",
          "midi": 69,
          "time": 6.68,
          "velocity": 1,
          "duration": 0.15
        },
        {
          "name": "B4",
          "midi": 71,
          "time": 6.83,
          "velocity": 1,
          "duration": 0.15
        },
        {
          "name": "C5",
          "midi": 72,
          "time": 6.98,
          "velocity": 1,
          "duration": 0.15
        },
        {
          "name": "B4",
          "midi": 71,
          "time": 7.13,
          "velocity": 1,
          "duration": 0.15
        },
        {
          "name": "A4",
          "midi": 69,
          "time": 7.28,
          "velocity": 1,
          "duration": 0.15
        },
        {
          "name": "C5",
          "midi": 72,
          "time": 7.43,
          "velocity": 1,
          "duration": 0.15
        },
        {
          "name": "E5",
          "midi": 76,
          "time": 7.58,
          "velocity": 1,
          "duration": 0.15
        },
        {
          "name": "F5",
          "midi": 77,
          "time": 7.73,
          "velocity": 1,
          "duration": 0.15
        },
        {
          "name": "G#5",
          "midi": 80,
          "time": 7.88,
          "velocity": 1,
          "duration": 0.15
        },
        {
          "name": "A5",
          "midi": 81,
          "time": 8.03,
          "velocity": 1,
          "duration": 0.15
        },
        {
          "name": "E5",
          "midi": 76,
          "time": 8.18,
          "velocity": 1,
          "duration": 0.15
        },
        {
          "name": "A5",
          "midi": 81,
          "time": 8.33,
          "velocity": 1,
          "duration": 0.16
        },
        {
          "name": "C6",
          "midi": 84,
          "time": 8.49,
          "velocity": 1,
          "duration": 0.15
        },
        {
          "name": "E6",
          "midi": 88,
          "time": 8.64,
          "velocity": 1,
          "duration": 0.15
        },
        {
          "name": "B4",
          "midi": 71,
          "time": 8.79,
          "velocity": 1,
          "duration": 0.15
        },
        {
          "name": "C5",
          "midi": 72,
          "time": 8.94,
          "velocity": 1,
          "duration": 0.14
        },
        {
          "name": "E6",
          "midi": 88,
          "time": 9.08,
          "velocity": 1,
          "duration": 0.15
        },
        {
          "name": "D6",
          "midi": 86,
          "time": 9.23,
          "velocity": 1,
          "duration": 0.16
        },
        {
          "name": "C6",
          "midi": 84,
          "time": 9.39,
          "velocity": 1,
          "duration": 0.15
        },
        {
          "name": "B5",
          "midi": 83,
          "time": 9.54,
          "velocity": 1,
          "duration": 0.16
        },
        {
          "name": "A5",
          "midi": 81,
          "time": 9.7,
          "velocity": 1,
          "duration": 0.16
        },
        {
          "name": "C6",
          "midi": 84,
          "time": 9.86,
          "velocity": 1,
          "duration": 0.16
        },
        {
          "name": "F5",
          "midi": 77,
          "time": 10.02,
          "velocity": 1,
          "duration": 0.15
        },
        {
          "name": "E5",
          "midi": 76,
          "time": 10.17,
          "velocity": 1,
          "duration": 0.15
        },
        {
          "name": "D5",
          "midi": 74,
          "time": 10.32,
          "velocity": 1,
          "duration": 0.15
        },
        {
          "name": "A4",
          "midi": 69,
          "time": 10.47,
          "velocity": 1,
          "duration": 0.15
        },
        {
          "name": "C5",
          "midi": 72,
          "time": 10.62,
          "velocity": 1,
          "duration": 0.15
        },
        {
          "name": "A4",
          "midi": 69,
          "time": 10.77,
          "velocity": 1,
          "duration": 0.15
        },
        {
          "name": "B4",
          "midi": 71,
          "time": 10.92,
          "velocity": 1,
          "duration": 0.15
        },
        {
          "name": "E4",
          "midi": 64,
          "time": 11.07,
          "velocity": 1,
          "duration": 0.15
        },
        {
          "name": "F#4",
          "midi": 66,
          "time": 11.22,
          "velocity": 1,
          "duration": 0.14
        },
        {
          "name": "E4",
          "midi": 64,
          "time": 11.36,
          "velocity": 1,
          "duration": 0.15
        },
        {
          "name": "D5",
          "midi": 74,
          "time": 11.51,
          "velocity": 1,
          "duration": 0.15
        },
        {
          "name": "E4",
          "midi": 64,
          "time": 11.66,
          "velocity": 1,
          "duration": 0.15
        },
        {
          "name": "F4",
          "midi": 65,
          "time": 11.81,
          "velocity": 1,
          "duration": 0.15
        },
        {
          "name": "E4",
          "midi": 64,
          "time": 11.96,
          "velocity": 1,
          "duration": 0.15
        },
        {
          "name": "C5",
          "midi": 72,
          "time": 12.11,
          "velocity": 1,
          "duration": 0.16
        },
        {
          "name": "B4",
          "midi": 71,
          "time": 12.27,
          "velocity": 1,
          "duration": 0.15
        },
        {
          "name": "C5",
          "midi": 72,
          "time": 12.42,
          "velocity": 1,
          "duration": 0.16
        },
        {
          "name": "E5",
          "midi": 76,
          "time": 12.58,
          "velocity": 1,
          "duration": 0.2
        },
        {
          "name": "C5",
          "midi": 72,
          "time": 12.78,
          "velocity": 1,
          "duration": 0.17
        },
        {
          "name": "A4",
          "midi": 69,
          "time": 12.95,
          "velocity": 1,
          "duration": 0.16
        },
        {
          "name": "F4",
          "midi": 65,
          "time": 13.11,
          "velocity": 1,
          "duration": 0.18
        },
        {
          "name": "E4",
          "midi": 64,
          "time": 13.29,
          "velocity": 1,
          "duration": 0.15
        },
        {
          "name": "E5",
          "midi": 76,
          "time": 13.44,
          "velocity": 1,
          "duration": 0.15
        },
        {
          "name": "A4",
          "midi": 69,
          "time": 13.59,
          "velocity": 1,
          "duration": 0.14
        },
        {
          "name": "B4",
          "midi": 71,
          "time": 13.73,
          "velocity": 1,
          "duration": 0.15
        },
        {
          "name": "C5",
          "midi": 72,
          "time": 13.88,
          "velocity": 1,
          "duration": 0.15
        },
        {
          "name": "A5",
          "midi": 81,
          "time": 14.03,
          "velocity": 1,
          "duration": 0.15
        },
        {
          "name": "E5",
          "midi": 76,
          "time": 14.18,
          "velocity": 1,
          "duration": 0.15
        },
        {
          "name": "A5",
          "midi": 81,
          "time": 14.33,
          "velocity": 1,
          "duration": 0.15
        },
        {
          "name": "C6",
          "midi": 84,
          "time": 14.48,
          "velocity": 1,
          "duration": 0.15
        },
        {
          "name": "E6",
          "midi": 88,
          "time": 14.63,
          "velocity": 1,
          "duration": 0.16
        },
        {
          "name": "A5",
          "midi": 81,
          "time": 14.79,
          "velocity": 1,
          "duration": 0.16
        },
        {
          "name": "C6",
          "midi": 84,
          "time": 14.95,
          "velocity": 1,
          "duration": 0.15
        },
        {
          "name": "E6",
          "midi": 88,
          "time": 15.1,
          "velocity": 1,
          "duration": 0.15
        },
        {
          "name": "C#6",
          "midi": 85,
          "time": 15.25,
          "velocity": 1,
          "duration": 0.16
        },
        {
          "name": "D6",
          "midi": 86,
          "time": 15.41,
          "velocity": 1,
          "duration": 0.17
        },
        {
          "name": "F#5",
          "midi": 78,
          "time": 15.58,
          "velocity": 1,
          "duration": 0.15
        },
        {
          "name": "E5",
          "midi": 76,
          "time": 15.73,
          "velocity": 1,
          "duration": 0.15
        },
        {
          "name": "G5",
          "midi": 79,
          "time": 15.88,
          "velocity": 1,
          "duration": 0.15
        },
        {
          "name": "F#5",
          "midi": 78,
          "time": 16.03,
          "velocity": 1,
          "duration": 0.15
        },
        {
          "name": "B5",
          "midi": 83,
          "time": 16.18,
          "velocity": 1,
          "duration": 0.15
        },
        {
          "name": "A5",
          "midi": 81,
          "time": 16.33,
          "velocity": 1,
          "duration": 0.15
        },
        {
          "name": "C6",
          "midi": 84,
          "time": 16.48,
          "velocity": 1,
          "duration": 0.16
        },
        {
          "name": "E5",
          "midi": 76,
          "time": 16.64,
          "velocity": 1,
          "duration": 0.15
        },
        {
          "name": "D5",
          "midi": 74,
          "time": 16.79,
          "velocity": 1,
          "duration": 0.16
        },
        {
          "name": "A4",
          "midi": 69,
          "time": 16.95,
          "velocity": 1,
          "duration": 0.16
        },
        {
          "name": "C5",
          "midi": 72,
          "time": 17.11,
          "velocity": 1,
          "duration": 0.15
        },
        {
          "name": "G4",
          "midi": 67,
          "time": 17.26,
          "velocity": 1,
          "duration": 0.14
        },
        {
          "name": "A4",
          "midi": 69,
          "time": 17.4,
          "velocity": 1,
          "duration": 0.14
        },
        {
          "name": "B4",
          "midi": 71,
          "time": 17.54,
          "velocity": 1,
          "duration": 0.15
        },
        {
          "name": "C5",
          "midi": 72,
          "time": 17.69,
          "velocity": 1,
          "duration": 0.14
        },
        {
          "name": "D5",
          "midi": 74,
          "time": 17.83,
          "velocity": 1,
          "duration": 0.14
        },
        {
          "name": "E5",
          "midi": 76,
          "time": 17.97,
          "velocity": 1,
          "duration": 0.15
        },
        {
          "name": "F5",
          "midi": 77,
          "time": 18.12,
          "velocity": 1,
          "duration": 0.16
        },
        {
          "name": "G5",
          "midi": 79,
          "time": 18.28,
          "velocity": 1,
          "duration": 0.14
        },
        {
          "name": "A5",
          "midi": 81,
          "time": 18.42,
          "velocity": 1,
          "duration": 0.15
        },
        {
          "name": "G5",
          "midi": 79,
          "time": 18.57,
          "velocity": 1,
          "duration": 0.15
        },
        {
          "name": "F5",
          "midi": 77,
          "time": 18.72,
          "velocity": 1,
          "duration": 0.15
        },
        {
          "name": "E5",
          "midi": 76,
          "time": 18.87,
          "velocity": 1,
          "duration": 0.15
        },
        {
          "name": "G5",
          "midi": 79,
          "time": 19.02,
          "velocity": 1,
          "duration": 0.15
        },
        {
          "name": "E5",
          "midi": 76,
          "time": 19.17,
          "velocity": 1,
          "duration": 0.15
        },
        {
          "name": "F5",
          "midi": 77,
          "time": 19.32,
          "velocity": 1,
          "duration": 0.15
        },
        {
          "name": "G4",
          "midi": 67,
          "time": 19.47,
          "velocity": 1,
          "duration": 0.15
        },
        {
          "name": "D5",
          "midi": 74,
          "time": 19.62,
          "velocity": 1,
          "duration": 0.14
        },
        {
          "name": "B4",
          "midi": 71,
          "time": 19.76,
          "velocity": 1,
          "duration": 0.15
        },
        {
          "name": "C5",
          "midi": 72,
          "time": 19.91,
          "velocity": 1,
          "duration": 0.16
        },
        {
          "name": "G4",
          "midi": 67,
          "time": 20.07,
          "velocity": 1,
          "duration": 0.15
        },
        {
          "name": "F4",
          "midi": 65,
          "time": 20.22,
          "velocity": 1,
          "duration": 0.14
        },
        {
          "name": "E5",
          "midi": 76,
          "time": 20.36,
          "velocity": 1,
          "duration": 0.16
        },
        {
          "name": "E4",
          "midi": 64,
          "time": 20.52,
          "velocity": 1,
          "duration": 0.15
        },
        {
          "name": "D4",
          "midi": 62,
          "time": 20.67,
          "velocity": 1,
          "duration": 0.15
        },
        {
          "name": "A4",
          "midi": 69,
          "time": 20.82,
          "velocity": 1,
          "duration": 0.15
        },
        {
          "name": "C5",
          "midi": 72,
          "time": 20.97,
          "velocity": 1,
          "duration": 0.15
        },
        {
          "name": "E5",
          "midi": 76,
          "time": 21.12,
          "velocity": 1,
          "duration": 0.14
        },
        {
          "name": "G5",
          "midi": 79,
          "time": 21.26,
          "velocity": 1,
          "duration": 0.15
        },
        {
          "name": "C5",
          "midi": 72,
          "time": 21.41,
          "velocity": 1,
          "duration": 0.15
        },
        {
          "name": "D5",
          "midi": 74,
          "time": 21.56,
          "velocity": 1,
          "duration": 0.15
        },
        {
          "name": "B4",
          "midi": 71,
          "time": 21.71,
          "velocity": 1,
          "duration": 0.15
        },
        {
          "name": "C5",
          "midi": 72,
          "time": 21.86,
          "velocity": 1,
          "duration": 0.15
        },
        {
          "name": "A4",
          "midi": 69,
          "time": 22.01,
          "velocity": 1,
          "duration": 0.15
        },
        {
          "name": "C5",
          "midi": 72,
          "time": 22.16,
          "velocity": 1,
          "duration": 0.14
        },
        {
          "name": "B4",
          "midi": 71,
          "time": 22.3,
          "velocity": 1,
          "duration": 0.15
        },
        {
          "name": "A4",
          "midi": 69,
          "time": 22.45,
          "velocity": 1,
          "duration": 0.15
        },
        {
          "name": "C5",
          "midi": 72,
          "time": 22.6,
          "velocity": 1,
          "duration": 0.15
        },
        {
          "name": "C5",
          "midi": 72,
          "time": 22.75,
          "velocity": 1,
          "duration": 0.15
        },
        {
          "name": "E5",
          "midi": 76,
          "time": 22.9,
          "velocity": 1,
          "duration": 0.15
        },
        {
          "name": "A5",
          "midi": 81,
          "time": 23.05,
          "velocity": 1,
          "duration": 0.15
        },
        {
          "name": "B5",
          "midi": 83,
          "time": 23.2,
          "velocity": 1,
          "duration": 0.15
        },
        {
          "name": "C6",
          "midi": 84,
          "time": 23.35,
          "velocity": 1,
          "duration": 0.15
        },
        {
          "name": "B5",
          "midi": 83,
          "time": 23.5,
          "velocity": 1,
          "duration": 0.15
        },
        {
          "name": "C6",
          "midi": 84,
          "time": 23.65,
          "velocity": 1,
          "duration": 0.15
        },
        {
          "name": "A5",
          "midi": 81,
          "time": 23.8,
          "velocity": 1,
          "duration": 0.15
        },
        {
          "name": "D#5",
          "midi": 75,
          "time": 23.95,
          "velocity": 1,
          "duration": 0.15
        },
        {
          "name": "A5",
          "midi": 81,
          "time": 24.1,
          "velocity": 1,
          "duration": 0.15
        },
        {
          "name": "B5",
          "midi": 83,
          "time": 24.25,
          "velocity": 1,
          "duration": 0.15
        },
        {
          "name": "A5",
          "midi": 81,
          "time": 24.4,
          "velocity": 1,
          "duration": 0.15
        },
        {
          "name": "G5",
          "midi": 79,
          "time": 24.55,
          "velocity": 1,
          "duration": 0.15
        },
        {
          "name": "F#5",
          "midi": 78,
          "time": 24.7,
          "velocity": 1,
          "duration": 0.15
        },
        {
          "name": "E5",
          "midi": 76,
          "time": 24.85,
          "velocity": 1,
          "duration": 0.15
        },
        {
          "name": "B4",
          "midi": 71,
          "time": 25,
          "velocity": 1,
          "duration": 0.15
        },
        {
          "name": "D#5",
          "midi": 75,
          "time": 25.15,
          "velocity": 1,
          "duration": 0.15
        },
        {
          "name": "E5",
          "midi": 76,
          "time": 25.3,
          "velocity": 1,
          "duration": 0.14
        },
        {
          "name": "F#5",
          "midi": 78,
          "time": 25.44,
          "velocity": 1,
          "duration": 0.14
        },
        {
          "name": "G#5",
          "midi": 80,
          "time": 25.58,
          "velocity": 1,
          "duration": 0.14
        },
        {
          "name": "A5",
          "midi": 81,
          "time": 25.72,
          "velocity": 1,
          "duration": 0.14
        },
        {
          "name": "C6",
          "midi": 84,
          "time": 25.86,
          "velocity": 1,
          "duration": 0.15
        },
        {
          "name": "E5",
          "midi": 76,
          "time": 26.01,
          "velocity": 1,
          "duration": 0.14
        },
        {
          "name": "A4",
          "midi": 69,
          "time": 26.15,
          "velocity": 1,
          "duration": 0.15
        },
        {
          "name": "E5",
          "midi": 76,
          "time": 26.3,
          "velocity": 1,
          "duration": 0.14
        },
        {
          "name": "E5",
          "midi": 76,
          "time": 26.44,
          "velocity": 1,
          "duration": 0.15
        },
        {
          "name": "G5",
          "midi": 79,
          "time": 26.59,
          "velocity": 1,
          "duration": 0.14
        },
        {
          "name": "A5",
          "midi": 81,
          "time": 26.73,
          "velocity": 1,
          "duration": 0.14
        },
        {
          "name": "C6",
          "midi": 84,
          "time": 26.87,
          "velocity": 1,
          "duration": 0.15
        },
        {
          "name": "B5",
          "midi": 83,
          "time": 27.02,
          "velocity": 1,
          "duration": 0.15
        },
        {
          "name": "D5",
          "midi": 74,
          "time": 27.17,
          "velocity": 1,
          "duration": 0.15
        },
        {
          "name": "C6",
          "midi": 84,
          "time": 27.32,
          "velocity": 1,
          "duration": 0.15
        },
        {
          "name": "B5",
          "midi": 83,
          "time": 27.47,
          "velocity": 1,
          "duration": 0.15
        },
        {
          "name": "A5",
          "midi": 81,
          "time": 27.62,
          "velocity": 1,
          "duration": 0.15
        },
        {
          "name": "G5",
          "midi": 79,
          "time": 27.77,
          "velocity": 1,
          "duration": 0.15
        },
        {
          "name": "C6",
          "midi": 84,
          "time": 27.92,
          "velocity": 1,
          "duration": 0.15
        },
        {
          "name": "D5",
          "midi": 74,
          "time": 28.07,
          "velocity": 1,
          "duration": 0.15
        },
        {
          "name": "G#5",
          "midi": 80,
          "time": 28.22,
          "velocity": 1,
          "duration": 0.15
        },
        {
          "name": "C5",
          "midi": 72,
          "time": 28.37,
          "velocity": 1,
          "duration": 0.15
        },
        {
          "name": "G#5",
          "midi": 80,
          "time": 28.52,
          "velocity": 1,
          "duration": 0.15
        },
        {
          "name": "D5",
          "midi": 74,
          "time": 28.67,
          "velocity": 1,
          "duration": 0.15
        },
        {
          "name": "C5",
          "midi": 72,
          "time": 28.82,
          "velocity": 1,
          "duration": 0.15
        },
        {
          "name": "C5",
          "midi": 72,
          "time": 28.97,
          "velocity": 1,
          "duration": 0.15
        },
        {
          "name": "B4",
          "midi": 71,
          "time": 29.12,
          "velocity": 1,
          "duration": 0.15
        },
        {
          "name": "C5",
          "midi": 72,
          "time": 29.27,
          "velocity": 1,
          "duration": 0.15
        },
        {
          "name": "A4",
          "midi": 69,
          "time": 29.42,
          "velocity": 1,
          "duration": 0.14
        },
        {
          "name": "A5",
          "midi": 81,
          "time": 29.56,
          "velocity": 1,
          "duration": 0.14
        },
        {
          "name": "E5",
          "midi": 76,
          "time": 29.7,
          "velocity": 1,
          "duration": 0.14
        },
        {
          "name": "A5",
          "midi": 81,
          "time": 29.84,
          "velocity": 1,
          "duration": 0.15
        },
        {
          "name": "G#5",
          "midi": 80,
          "time": 29.99,
          "velocity": 1,
          "duration": 0.15
        },
        {
          "name": "A5",
          "midi": 81,
          "time": 30.14,
          "velocity": 1,
          "duration": 0.15
        },
        {
          "name": "C5",
          "midi": 72,
          "time": 30.29,
          "velocity": 1,
          "duration": 0.15
        },
        {
          "name": "D#4",
          "midi": 63,
          "time": 30.44,
          "velocity": 1,
          "duration": 0.15
        },
        {
          "name": "C5",
          "midi": 72,
          "time": 30.59,
          "velocity": 1,
          "duration": 0.15
        },
        {
          "name": "A5",
          "midi": 81,
          "time": 30.74,
          "velocity": 1,
          "duration": 0.15
        },
        {
          "name": "A5",
          "midi": 81,
          "time": 30.89,
          "velocity": 1,
          "duration": 0.15
        },
        {
          "name": "C6",
          "midi": 84,
          "time": 31.04,
          "velocity": 1,
          "duration": 0.15
        },
        {
          "name": "D5",
          "midi": 74,
          "time": 31.19,
          "velocity": 1,
          "duration": 0.15
        },
        {
          "name": "A5",
          "midi": 81,
          "time": 31.34,
          "velocity": 1,
          "duration": 0.15
        },
        {
          "name": "G#5",
          "midi": 80,
          "time": 31.49,
          "velocity": 1,
          "duration": 0.15
        },
        {
          "name": "A5",
          "midi": 81,
          "time": 31.64,
          "velocity": 1,
          "duration": 0.15
        },
        {
          "name": "B5",
          "midi": 83,
          "time": 31.79,
          "velocity": 1,
          "duration": 0.15
        },
        {
          "name": "G#5",
          "midi": 80,
          "time": 31.94,
          "velocity": 1,
          "duration": 0.15
        },
        {
          "name": "D5",
          "midi": 74,
          "time": 32.09,
          "velocity": 1,
          "duration": 0.15
        },
        {
          "name": "C6",
          "midi": 84,
          "time": 32.24,
          "velocity": 1,
          "duration": 0.15
        },
        {
          "name": "A5",
          "midi": 81,
          "time": 32.39,
          "velocity": 1,
          "duration": 0.16
        },
        {
          "name": "F5",
          "midi": 77,
          "time": 32.55,
          "velocity": 1,
          "duration": 0.15
        },
        {
          "name": "D5",
          "midi": 74,
          "time": 32.7,
          "velocity": 1,
          "duration": 0.15
        },
        {
          "name": "C5",
          "midi": 72,
          "time": 32.85,
          "velocity": 1,
          "duration": 0.15
        },
        {
          "name": "D5",
          "midi": 74,
          "time": 33,
          "velocity": 1,
          "duration": 0.15
        },
        {
          "name": "G#4",
          "midi": 68,
          "time": 33.15,
          "velocity": 1,
          "duration": 0.15
        },
        {
          "name": "B4",
          "midi": 71,
          "time": 33.3,
          "velocity": 1,
          "duration": 0.15
        },
        {
          "name": "G#4",
          "midi": 68,
          "time": 33.45,
          "velocity": 1,
          "duration": 0.15
        },
        {
          "name": "F5",
          "midi": 77,
          "time": 33.6,
          "velocity": 1,
          "duration": 0.16
        },
        {
          "name": "D5",
          "midi": 74,
          "time": 33.76,
          "velocity": 1,
          "duration": 0.15
        },
        {
          "name": "D5",
          "midi": 74,
          "time": 33.91,
          "velocity": 1,
          "duration": 0.15
        },
        {
          "name": "E5",
          "midi": 76,
          "time": 34.06,
          "velocity": 1,
          "duration": 0.15
        },
        {
          "name": "F5",
          "midi": 77,
          "time": 34.21,
          "velocity": 1,
          "duration": 0.14
        },
        {
          "name": "C5",
          "midi": 72,
          "time": 34.35,
          "velocity": 1,
          "duration": 0.15
        },
        {
          "name": "B4",
          "midi": 71,
          "time": 34.5,
          "velocity": 1,
          "duration": 0.14
        },
        {
          "name": "C5",
          "midi": 72,
          "time": 34.64,
          "velocity": 1,
          "duration": 0.15
        },
        {
          "name": "B4",
          "midi": 71,
          "time": 34.79,
          "velocity": 1,
          "duration": 0.14
        },
        {
          "name": "C5",
          "midi": 72,
          "time": 34.93,
          "velocity": 1,
          "duration": 0.14
        },
        {
          "name": "E5",
          "midi": 76,
          "time": 35.07,
          "velocity": 1,
          "duration": 0.15
        },
        {
          "name": "A4",
          "midi": 69,
          "time": 35.22,
          "velocity": 1,
          "duration": 0.15
        },
        {
          "name": "B4",
          "midi": 71,
          "time": 35.37,
          "velocity": 1,
          "duration": 0.15
        },
        {
          "name": "C5",
          "midi": 72,
          "time": 35.52,
          "velocity": 1,
          "duration": 0.15
        },
        {
          "name": "E5",
          "midi": 76,
          "time": 35.67,
          "velocity": 1,
          "duration": 0.15
        },
        {
          "name": "A5",
          "midi": 81,
          "time": 35.82,
          "velocity": 1,
          "duration": 0.15
        },
        {
          "name": "B5",
          "midi": 83,
          "time": 35.97,
          "velocity": 1,
          "duration": 0.15
        },
        {
          "name": "C6",
          "midi": 84,
          "time": 36.12,
          "velocity": 1,
          "duration": 0.15
        },
        {
          "name": "A5",
          "midi": 81,
          "time": 36.27,
          "velocity": 1,
          "duration": 0.15
        },
        {
          "name": "D#6",
          "midi": 87,
          "time": 36.42,
          "velocity": 1,
          "duration": 0.15
        },
        {
          "name": "A4",
          "midi": 69,
          "time": 36.57,
          "velocity": 1,
          "duration": 0.12
        },
        {
          "name": "C5",
          "midi": 72,
          "time": 36.69,
          "velocity": 1,
          "duration": 0.12
        },
        {
          "name": "B4",
          "midi": 71,
          "time": 36.81,
          "velocity": 1,
          "duration": 0.14
        },
        {
          "name": "A4",
          "midi": 69,
          "time": 36.95,
          "velocity": 1,
          "duration": 0.15
        },
        {
          "name": "G4",
          "midi": 67,
          "time": 37.1,
          "velocity": 1,
          "duration": 0.14
        },
        {
          "name": "F#4",
          "midi": 66,
          "time": 37.24,
          "velocity": 1,
          "duration": 0.16
        },
        {
          "name": "G4",
          "midi": 67,
          "time": 37.4,
          "velocity": 1,
          "duration": 0.17
        },
        {
          "name": "B4",
          "midi": 71,
          "time": 37.57,
          "velocity": 1,
          "duration": 0.14
        },
        {
          "name": "E5",
          "midi": 76,
          "time": 37.71,
          "velocity": 1,
          "duration": 0.15
        },
        {
          "name": "B5",
          "midi": 83,
          "time": 37.86,
          "velocity": 1,
          "duration": 0.16
        },
        {
          "name": "A5",
          "midi": 81,
          "time": 38.02,
          "velocity": 1,
          "duration": 0.15
        },
        {
          "name": "G5",
          "midi": 79,
          "time": 38.17,
          "velocity": 1,
          "duration": 0.16
        },
        {
          "name": "F#5",
          "midi": 78,
          "time": 38.33,
          "velocity": 1,
          "duration": 0.16
        },
        {
          "name": "E5",
          "midi": 76,
          "time": 38.49,
          "velocity": 1,
          "duration": 0.15
        },
        {
          "name": "G5",
          "midi": 79,
          "time": 38.64,
          "velocity": 1,
          "duration": 0.16
        },
        {
          "name": "F#5",
          "midi": 78,
          "time": 38.8,
          "velocity": 1,
          "duration": 0.15
        },
        {
          "name": "E5",
          "midi": 76,
          "time": 38.95,
          "velocity": 1,
          "duration": 0.15
        },
        {
          "name": "D#5",
          "midi": 75,
          "time": 39.1,
          "velocity": 1,
          "duration": 0.15
        },
        {
          "name": "E5",
          "midi": 76,
          "time": 39.25,
          "velocity": 1,
          "duration": 0.15
        },
        {
          "name": "A#4",
          "midi": 70,
          "time": 39.4,
          "velocity": 1,
          "duration": 0.15
        },
        {
          "name": "B4",
          "midi": 71,
          "time": 39.55,
          "velocity": 1,
          "duration": 0.14
        },
        {
          "name": "C#5",
          "midi": 73,
          "time": 39.69,
          "velocity": 1,
          "duration": 0.19
        },
        {
          "name": "E5",
          "midi": 76,
          "time": 39.88,
          "velocity": 1,
          "duration": 0.2
        },
        {
          "name": "F#5",
          "midi": 78,
          "time": 40.08,
          "velocity": 1,
          "duration": 0.14
        },
        {
          "name": "E5",
          "midi": 76,
          "time": 40.22,
          "velocity": 1,
          "duration": 0.15
        },
        {
          "name": "D5",
          "midi": 74,
          "time": 40.37,
          "velocity": 1,
          "duration": 0.15
        },
        {
          "name": "C#5",
          "midi": 73,
          "time": 40.52,
          "velocity": 1,
          "duration": 0.15
        },
        {
          "name": "D#5",
          "midi": 75,
          "time": 40.67,
          "velocity": 1,
          "duration": 0.17
        },
        {
          "name": "F#5",
          "midi": 78,
          "time": 40.84,
          "velocity": 1,
          "duration": 0.14
        },
        {
          "name": "G5",
          "midi": 79,
          "time": 40.98,
          "velocity": 1,
          "duration": 0.14
        },
        {
          "name": "A5",
          "midi": 81,
          "time": 41.12,
          "velocity": 1,
          "duration": 0.24
        },
        {
          "name": "F#5",
          "midi": 78,
          "time": 41.36,
          "velocity": 1,
          "duration": 0.24
        },
        {
          "name": "E5",
          "midi": 76,
          "time": 41.6,
          "velocity": 1,
          "duration": 0.14
        },
        {
          "name": "D#5",
          "midi": 75,
          "time": 41.74,
          "velocity": 1,
          "duration": 0.14
        },
        {
          "name": "C#5",
          "midi": 73,
          "time": 41.88,
          "velocity": 1,
          "duration": 0.14
        },
        {
          "name": "B4",
          "midi": 71,
          "time": 42.02,
          "velocity": 1,
          "duration": 0.14
        },
        {
          "name": "A4",
          "midi": 69,
          "time": 42.16,
          "velocity": 1,
          "duration": 0.14
        },
        {
          "name": "F#4",
          "midi": 66,
          "time": 42.3,
          "velocity": 1,
          "duration": 0.14
        },
        {
          "name": "G4",
          "midi": 67,
          "time": 42.44,
          "velocity": 1,
          "duration": 0.15
        },
        {
          "name": "B4",
          "midi": 71,
          "time": 42.59,
          "velocity": 1,
          "duration": 0.14
        },
        {
          "name": "E5",
          "midi": 76,
          "time": 42.73,
          "velocity": 1,
          "duration": 0.14
        },
        {
          "name": "G5",
          "midi": 79,
          "time": 42.87,
          "velocity": 1,
          "duration": 0.15
        },
        {
          "name": "B5",
          "midi": 83,
          "time": 43.02,
          "velocity": 1,
          "duration": 0.15
        },
        {
          "name": "E5",
          "midi": 76,
          "time": 43.17,
          "velocity": 1,
          "duration": 0.15
        },
        {
          "name": "B4",
          "midi": 71,
          "time": 43.32,
          "velocity": 1,
          "duration": 0.17
        },
        {
          "name": "D#5",
          "midi": 75,
          "time": 43.49,
          "velocity": 1,
          "duration": 0.16
        },
        {
          "name": "E5",
          "midi": 76,
          "time": 43.65,
          "velocity": 1,
          "duration": 0.14
        },
        {
          "name": "B4",
          "midi": 71,
          "time": 43.79,
          "velocity": 1,
          "duration": 0.14
        },
        {
          "name": "C5",
          "midi": 72,
          "time": 43.93,
          "velocity": 1,
          "duration": 0.14
        },
        {
          "name": "A4",
          "midi": 69,
          "time": 44.07,
          "velocity": 1,
          "duration": 0.14
        },
        {
          "name": "G4",
          "midi": 67,
          "time": 44.21,
          "velocity": 1,
          "duration": 0.14
        },
        {
          "name": "E5",
          "midi": 76,
          "time": 44.35,
          "velocity": 1,
          "duration": 0.14
        },
        {
          "name": "F#4",
          "midi": 66,
          "time": 44.49,
          "velocity": 1,
          "duration": 0.15
        },
        {
          "name": "D#5",
          "midi": 75,
          "time": 44.64,
          "velocity": 1,
          "duration": 0.15
        },
        {
          "name": "E4",
          "midi": 64,
          "time": 44.79,
          "velocity": 1,
          "duration": 0.22
        },
        {
          "name": "B4",
          "midi": 71,
          "time": 45.01,
          "velocity": 1,
          "duration": 0.25
        },
        {
          "name": "E4",
          "midi": 64,
          "time": 45.26,
          "velocity": 1,
          "duration": 0.15
        },
        {
          "name": "F#4",
          "midi": 66,
          "time": 45.41,
          "velocity": 1,
          "duration": 0.15
        },
        {
          "name": "G#4",
          "midi": 68,
          "time": 45.56,
          "velocity": 1,
          "duration": 0.14
        },
        {
          "name": "A4",
          "midi": 69,
          "time": 45.7,
          "velocity": 1,
          "duration": 0.15
        },
        {
          "name": "B4",
          "midi": 71,
          "time": 45.85,
          "velocity": 1,
          "duration": 0.13
        },
        {
          "name": "C5",
          "midi": 72,
          "time": 45.98,
          "velocity": 1,
          "duration": 0.15
        },
        {
          "name": "D5",
          "midi": 74,
          "time": 46.13,
          "velocity": 1,
          "duration": 0.16
        },
        {
          "name": "E5",
          "midi": 76,
          "time": 46.29,
          "velocity": 1,
          "duration": 0.16
        },
        {
          "name": "F5",
          "midi": 77,
          "time": 46.45,
          "velocity": 1,
          "duration": 0.16
        },
        {
          "name": "E5",
          "midi": 76,
          "time": 46.61,
          "velocity": 1,
          "duration": 0.15
        },
        {
          "name": "D5",
          "midi": 74,
          "time": 46.76,
          "velocity": 1,
          "duration": 0.15
        },
        {
          "name": "C5",
          "midi": 72,
          "time": 46.91,
          "velocity": 1,
          "duration": 0.16
        },
        {
          "name": "A4",
          "midi": 69,
          "time": 47.07,
          "velocity": 1,
          "duration": 0.15
        },
        {
          "name": "C6",
          "midi": 84,
          "time": 47.22,
          "velocity": 1,
          "duration": 0.14
        },
        {
          "name": "G4",
          "midi": 67,
          "time": 47.36,
          "velocity": 1,
          "duration": 0.15
        },
        {
          "name": "F#4",
          "midi": 66,
          "time": 47.51,
          "velocity": 1,
          "duration": 0.16
        },
        {
          "name": "C6",
          "midi": 84,
          "time": 47.67,
          "velocity": 1,
          "duration": 0.14
        },
        {
          "name": "B5",
          "midi": 83,
          "time": 47.81,
          "velocity": 1,
          "duration": 0.16
        },
        {
          "name": "C6",
          "midi": 84,
          "time": 47.97,
          "velocity": 1,
          "duration": 0.17
        },
        {
          "name": "E4",
          "midi": 64,
          "time": 48.14,
          "velocity": 1,
          "duration": 0.16
        },
        {
          "name": "D4",
          "midi": 62,
          "time": 48.3,
          "velocity": 1,
          "duration": 0.17
        },
        {
          "name": "C6",
          "midi": 84,
          "time": 48.47,
          "velocity": 1,
          "duration": 0.16
        },
        {
          "name": "B5",
          "midi": 83,
          "time": 48.63,
          "velocity": 1,
          "duration": 0.12
        },
        {
          "name": "C6",
          "midi": 84,
          "time": 48.75,
          "velocity": 1,
          "duration": 0.16
        },
        {
          "name": "D6",
          "midi": 86,
          "time": 48.91,
          "velocity": 1,
          "duration": 0.15
        },
        {
          "name": "B5",
          "midi": 83,
          "time": 49.06,
          "velocity": 1,
          "duration": 0.15
        },
        {
          "name": "G5",
          "midi": 79,
          "time": 49.21,
          "velocity": 1,
          "duration": 0.18
        },
        {
          "name": "F5",
          "midi": 77,
          "time": 49.39,
          "velocity": 1,
          "duration": 0.16
        },
        {
          "name": "E5",
          "midi": 76,
          "time": 49.55,
          "velocity": 1,
          "duration": 0.15
        },
        {
          "name": "D5",
          "midi": 74,
          "time": 49.7,
          "velocity": 1,
          "duration": 0.16
        },
        {
          "name": "C5",
          "midi": 72,
          "time": 49.86,
          "velocity": 1,
          "duration": 0.15
        },
        {
          "name": "B4",
          "midi": 71,
          "time": 50.01,
          "velocity": 1,
          "duration": 0.15
        },
        {
          "name": "A4",
          "midi": 69,
          "time": 50.16,
          "velocity": 1,
          "duration": 0.15
        },
        {
          "name": "C5",
          "midi": 72,
          "time": 50.31,
          "velocity": 1,
          "duration": 0.14
        },
        {
          "name": "F5",
          "midi": 77,
          "time": 50.45,
          "velocity": 1,
          "duration": 0.15
        },
        {
          "name": "G5",
          "midi": 79,
          "time": 50.6,
          "velocity": 1,
          "duration": 0.15
        },
        {
          "name": "A5",
          "midi": 81,
          "time": 50.75,
          "velocity": 1,
          "duration": 0.15
        },
        {
          "name": "F5",
          "midi": 77,
          "time": 50.9,
          "velocity": 1,
          "duration": 0.15
        },
        {
          "name": "D5",
          "midi": 74,
          "time": 51.05,
          "velocity": 1,
          "duration": 0.15
        },
        {
          "name": "E5",
          "midi": 76,
          "time": 51.2,
          "velocity": 1,
          "duration": 0.15
        },
        {
          "name": "F5",
          "midi": 77,
          "time": 51.35,
          "velocity": 1,
          "duration": 0.16
        },
        {
          "name": "D5",
          "midi": 74,
          "time": 51.51,
          "velocity": 1,
          "duration": 0.15
        },
        {
          "name": "C5",
          "midi": 72,
          "time": 51.66,
          "velocity": 1,
          "duration": 0.15
        },
        {
          "name": "B4",
          "midi": 71,
          "time": 51.81,
          "velocity": 1,
          "duration": 0.15
        },
        {
          "name": "A4",
          "midi": 69,
          "time": 51.96,
          "velocity": 1,
          "duration": 0.15
        },
        {
          "name": "G4",
          "midi": 67,
          "time": 52.11,
          "velocity": 1,
          "duration": 0.15
        },
        {
          "name": "E5",
          "midi": 76,
          "time": 52.26,
          "velocity": 1,
          "duration": 0.15
        },
        {
          "name": "F5",
          "midi": 77,
          "time": 52.41,
          "velocity": 1,
          "duration": 0.15
        },
        {
          "name": "G5",
          "midi": 79,
          "time": 52.56,
          "velocity": 1,
          "duration": 0.15
        },
        {
          "name": "E5",
          "midi": 76,
          "time": 52.71,
          "velocity": 1,
          "duration": 0.15
        },
        {
          "name": "C5",
          "midi": 72,
          "time": 52.86,
          "velocity": 1,
          "duration": 0.16
        },
        {
          "name": "D5",
          "midi": 74,
          "time": 53.02,
          "velocity": 1,
          "duration": 0.15
        },
        {
          "name": "E5",
          "midi": 76,
          "time": 53.17,
          "velocity": 1,
          "duration": 0.16
        },
        {
          "name": "C5",
          "midi": 72,
          "time": 53.33,
          "velocity": 1,
          "duration": 0.16
        },
        {
          "name": "A4",
          "midi": 69,
          "time": 53.49,
          "velocity": 1,
          "duration": 0.15
        },
        {
          "name": "G4",
          "midi": 67,
          "time": 53.64,
          "velocity": 1,
          "duration": 0.15
        },
        {
          "name": "F4",
          "midi": 65,
          "time": 53.79,
          "velocity": 1,
          "duration": 0.14
        },
        {
          "name": "A4",
          "midi": 69,
          "time": 53.93,
          "velocity": 1,
          "duration": 0.15
        },
        {
          "name": "D5",
          "midi": 74,
          "time": 54.08,
          "velocity": 1,
          "duration": 0.15
        },
        {
          "name": "E5",
          "midi": 76,
          "time": 54.23,
          "velocity": 1,
          "duration": 0.16
        },
        {
          "name": "F5",
          "midi": 77,
          "time": 54.39,
          "velocity": 1,
          "duration": 0.16
        },
        {
          "name": "G5",
          "midi": 79,
          "time": 54.55,
          "velocity": 1,
          "duration": 0.15
        },
        {
          "name": "A5",
          "midi": 81,
          "time": 54.7,
          "velocity": 1,
          "duration": 0.15
        },
        {
          "name": "B5",
          "midi": 83,
          "time": 54.85,
          "velocity": 1,
          "duration": 0.15
        },
        {
          "name": "C6",
          "midi": 84,
          "time": 55,
          "velocity": 1,
          "duration": 0.16
        },
        {
          "name": "A5",
          "midi": 81,
          "time": 55.16,
          "velocity": 1,
          "duration": 0.16
        },
        {
          "name": "F5",
          "midi": 77,
          "time": 55.32,
          "velocity": 1,
          "duration": 0.15
        },
        {
          "name": "E5",
          "midi": 76,
          "time": 55.47,
          "velocity": 1,
          "duration": 0.15
        },
        {
          "name": "F5",
          "midi": 77,
          "time": 55.62,
          "velocity": 1,
          "duration": 0.15
        },
        {
          "name": "D5",
          "midi": 74,
          "time": 55.77,
          "velocity": 1,
          "duration": 0.15
        },
        {
          "name": "B4",
          "midi": 71,
          "time": 55.92,
          "velocity": 1,
          "duration": 0.16
        },
        {
          "name": "A4",
          "midi": 69,
          "time": 56.08,
          "velocity": 1,
          "duration": 0.15
        },
        {
          "name": "B4",
          "midi": 71,
          "time": 56.23,
          "velocity": 1,
          "duration": 0.16
        },
        {
          "name": "G4",
          "midi": 67,
          "time": 56.39,
          "velocity": 1,
          "duration": 0.15
        },
        {
          "name": "F4",
          "midi": 65,
          "time": 56.54,
          "velocity": 1,
          "duration": 0.15
        },
        {
          "name": "E4",
          "midi": 64,
          "time": 56.69,
          "velocity": 1,
          "duration": 0.15
        },
        {
          "name": "F4",
          "midi": 65,
          "time": 56.84,
          "velocity": 1,
          "duration": 0.14
        },
        {
          "name": "D4",
          "midi": 62,
          "time": 56.98,
          "velocity": 1,
          "duration": 0.15
        },
        {
          "name": "E4",
          "midi": 64,
          "time": 57.13,
          "velocity": 1,
          "duration": 0.15
        },
        {
          "name": "C5",
          "midi": 72,
          "time": 57.28,
          "velocity": 1,
          "duration": 0.15
        },
        {
          "name": "G5",
          "midi": 79,
          "time": 57.43,
          "velocity": 1,
          "duration": 0.14
        },
        {
          "name": "G5",
          "midi": 79,
          "time": 57.57,
          "velocity": 1,
          "duration": 0.15
        },
        {
          "name": "E4",
          "midi": 64,
          "time": 57.72,
          "velocity": 1,
          "duration": 0.16
        },
        {
          "name": "C5",
          "midi": 72,
          "time": 57.88,
          "velocity": 1,
          "duration": 0.15
        },
        {
          "name": "G5",
          "midi": 79,
          "time": 58.03,
          "velocity": 1,
          "duration": 0.15
        },
        {
          "name": "C5",
          "midi": 72,
          "time": 58.18,
          "velocity": 1,
          "duration": 0.16
        },
        {
          "name": "A5",
          "midi": 81,
          "time": 58.34,
          "velocity": 1,
          "duration": 0.15
        },
        {
          "name": "C5",
          "midi": 72,
          "time": 58.49,
          "velocity": 1,
          "duration": 0.16
        },
        {
          "name": "A#5",
          "midi": 82,
          "time": 58.65,
          "velocity": 1,
          "duration": 0.15
        },
        {
          "name": "C5",
          "midi": 72,
          "time": 58.8,
          "velocity": 1,
          "duration": 0.15
        },
        {
          "name": "F4",
          "midi": 65,
          "time": 58.95,
          "velocity": 1,
          "duration": 0.15
        },
        {
          "name": "C5",
          "midi": 72,
          "time": 59.1,
          "velocity": 1,
          "duration": 0.15
        },
        {
          "name": "A5",
          "midi": 81,
          "time": 59.25,
          "velocity": 1,
          "duration": 0.15
        },
        {
          "name": "F5",
          "midi": 77,
          "time": 59.4,
          "velocity": 1,
          "duration": 0.14
        },
        {
          "name": "E5",
          "midi": 76,
          "time": 59.54,
          "velocity": 1,
          "duration": 0.15
        },
        {
          "name": "D5",
          "midi": 74,
          "time": 59.69,
          "velocity": 1,
          "duration": 0.15
        },
        {
          "name": "C5",
          "midi": 72,
          "time": 59.84,
          "velocity": 1,
          "duration": 0.15
        },
        {
          "name": "A#4",
          "midi": 70,
          "time": 59.99,
          "velocity": 1,
          "duration": 0.15
        },
        {
          "name": "A4",
          "midi": 69,
          "time": 60.14,
          "velocity": 1,
          "duration": 0.15
        },
        {
          "name": "G4",
          "midi": 67,
          "time": 60.29,
          "velocity": 1,
          "duration": 0.15
        },
        {
          "name": "F4",
          "midi": 65,
          "time": 60.44,
          "velocity": 1,
          "duration": 0.15
        },
        {
          "name": "E4",
          "midi": 64,
          "time": 60.59,
          "velocity": 1,
          "duration": 0.15
        },
        {
          "name": "F#4",
          "midi": 66,
          "time": 60.74,
          "velocity": 1,
          "duration": 0.15
        },
        {
          "name": "D5",
          "midi": 74,
          "time": 60.89,
          "velocity": 1,
          "duration": 0.15
        },
        {
          "name": "A5",
          "midi": 81,
          "time": 61.04,
          "velocity": 1,
          "duration": 0.15
        },
        {
          "name": "A5",
          "midi": 81,
          "time": 61.19,
          "velocity": 1,
          "duration": 0.16
        },
        {
          "name": "F#4",
          "midi": 66,
          "time": 61.35,
          "velocity": 1,
          "duration": 0.15
        },
        {
          "name": "D5",
          "midi": 74,
          "time": 61.5,
          "velocity": 1,
          "duration": 0.15
        },
        {
          "name": "A5",
          "midi": 81,
          "time": 61.65,
          "velocity": 1,
          "duration": 0.16
        },
        {
          "name": "D5",
          "midi": 74,
          "time": 61.81,
          "velocity": 1,
          "duration": 0.16
        },
        {
          "name": "B5",
          "midi": 83,
          "time": 61.97,
          "velocity": 1,
          "duration": 0.17
        },
        {
          "name": "D5",
          "midi": 74,
          "time": 62.14,
          "velocity": 1,
          "duration": 0.16
        },
        {
          "name": "C6",
          "midi": 84,
          "time": 62.3,
          "velocity": 1,
          "duration": 0.16
        },
        {
          "name": "D5",
          "midi": 74,
          "time": 62.46,
          "velocity": 1,
          "duration": 0.16
        },
        {
          "name": "G4",
          "midi": 67,
          "time": 62.62,
          "velocity": 1,
          "duration": 0.15
        },
        {
          "name": "D5",
          "midi": 74,
          "time": 62.77,
          "velocity": 1,
          "duration": 0.15
        },
        {
          "name": "B5",
          "midi": 83,
          "time": 62.92,
          "velocity": 1,
          "duration": 0.15
        },
        {
          "name": "G5",
          "midi": 79,
          "time": 63.07,
          "velocity": 1,
          "duration": 0.15
        },
        {
          "name": "F5",
          "midi": 77,
          "time": 63.22,
          "velocity": 1,
          "duration": 0.15
        },
        {
          "name": "E5",
          "midi": 76,
          "time": 63.37,
          "velocity": 1,
          "duration": 0.15
        },
        {
          "name": "D5",
          "midi": 74,
          "time": 63.52,
          "velocity": 1,
          "duration": 0.15
        },
        {
          "name": "C5",
          "midi": 72,
          "time": 63.67,
          "velocity": 1,
          "duration": 0.15
        },
        {
          "name": "B4",
          "midi": 71,
          "time": 63.82,
          "velocity": 1,
          "duration": 0.15
        },
        {
          "name": "A4",
          "midi": 69,
          "time": 63.97,
          "velocity": 1,
          "duration": 0.15
        },
        {
          "name": "G4",
          "midi": 67,
          "time": 64.12,
          "velocity": 1,
          "duration": 0.14
        },
        {
          "name": "F4",
          "midi": 65,
          "time": 64.26,
          "velocity": 1,
          "duration": 0.14
        },
        {
          "name": "E4",
          "midi": 64,
          "time": 64.4,
          "velocity": 1,
          "duration": 0.14
        },
        {
          "name": "F4",
          "midi": 65,
          "time": 64.54,
          "velocity": 1,
          "duration": 0.15
        },
        {
          "name": "G4",
          "midi": 67,
          "time": 64.69,
          "velocity": 1,
          "duration": 0.15
        },
        {
          "name": "C5",
          "midi": 72,
          "time": 64.84,
          "velocity": 1,
          "duration": 0.14
        },
        {
          "name": "E5",
          "midi": 76,
          "time": 64.98,
          "velocity": 1,
          "duration": 0.14
        },
        {
          "name": "C5",
          "midi": 72,
          "time": 65.12,
          "velocity": 1,
          "duration": 0.16
        },
        {
          "name": "B4",
          "midi": 71,
          "time": 65.28,
          "velocity": 1,
          "duration": 0.15
        },
        {
          "name": "C5",
          "midi": 72,
          "time": 65.43,
          "velocity": 1,
          "duration": 0.16
        },
        {
          "name": "G4",
          "midi": 67,
          "time": 65.59,
          "velocity": 1,
          "duration": 0.17
        },
        {
          "name": "B4",
          "midi": 71,
          "time": 65.76,
          "velocity": 1,
          "duration": 0.15
        },
        {
          "name": "C5",
          "midi": 72,
          "time": 65.91,
          "velocity": 1,
          "duration": 0.15
        },
        {
          "name": "E5",
          "midi": 76,
          "time": 66.06,
          "velocity": 1,
          "duration": 0.15
        },
        {
          "name": "F4",
          "midi": 65,
          "time": 66.21,
          "velocity": 1,
          "duration": 0.15
        },
        {
          "name": "G4",
          "midi": 67,
          "time": 66.36,
          "velocity": 1,
          "duration": 0.14
        },
        {
          "name": "A4",
          "midi": 69,
          "time": 66.5,
          "velocity": 1,
          "duration": 0.15
        },
        {
          "name": "C5",
          "midi": 72,
          "time": 66.65,
          "velocity": 1,
          "duration": 0.15
        },
        {
          "name": "E5",
          "midi": 76,
          "time": 66.8,
          "velocity": 1,
          "duration": 0.15
        },
        {
          "name": "C5",
          "midi": 72,
          "time": 66.95,
          "velocity": 1,
          "duration": 0.16
        },
        {
          "name": "B4",
          "midi": 71,
          "time": 67.11,
          "velocity": 1,
          "duration": 0.15
        },
        {
          "name": "C5",
          "midi": 72,
          "time": 67.26,
          "velocity": 1,
          "duration": 0.15
        },
        {
          "name": "A4",
          "midi": 69,
          "time": 67.41,
          "velocity": 1,
          "duration": 0.15
        },
        {
          "name": "B4",
          "midi": 71,
          "time": 67.56,
          "velocity": 1,
          "duration": 0.15
        },
        {
          "name": "C5",
          "midi": 72,
          "time": 67.71,
          "velocity": 1,
          "duration": 0.15
        },
        {
          "name": "E5",
          "midi": 76,
          "time": 67.86,
          "velocity": 1,
          "duration": 0.15
        },
        {
          "name": "G4",
          "midi": 67,
          "time": 68.01,
          "velocity": 1,
          "duration": 0.15
        },
        {
          "name": "A4",
          "midi": 69,
          "time": 68.16,
          "velocity": 1,
          "duration": 0.15
        },
        {
          "name": "B4",
          "midi": 71,
          "time": 68.31,
          "velocity": 1,
          "duration": 0.15
        },
        {
          "name": "C5",
          "midi": 72,
          "time": 68.46,
          "velocity": 1,
          "duration": 0.15
        },
        {
          "name": "E5",
          "midi": 76,
          "time": 68.61,
          "velocity": 1,
          "duration": 0.15
        },
        {
          "name": "C5",
          "midi": 72,
          "time": 68.76,
          "velocity": 1,
          "duration": 0.15
        },
        {
          "name": "B4",
          "midi": 71,
          "time": 68.91,
          "velocity": 1,
          "duration": 0.15
        },
        {
          "name": "C5",
          "midi": 72,
          "time": 69.06,
          "velocity": 1,
          "duration": 0.15
        },
        {
          "name": "B4",
          "midi": 71,
          "time": 69.21,
          "velocity": 1,
          "duration": 0.15
        },
        {
          "name": "C5",
          "midi": 72,
          "time": 69.36,
          "velocity": 1,
          "duration": 0.15
        },
        {
          "name": "D5",
          "midi": 74,
          "time": 69.51,
          "velocity": 1,
          "duration": 0.15
        },
        {
          "name": "E5",
          "midi": 76,
          "time": 69.66,
          "velocity": 1,
          "duration": 0.15
        },
        {
          "name": "A4",
          "midi": 69,
          "time": 69.81,
          "velocity": 1,
          "duration": 0.15
        },
        {
          "name": "B4",
          "midi": 71,
          "time": 69.96,
          "velocity": 1,
          "duration": 0.14
        },
        {
          "name": "C5",
          "midi": 72,
          "time": 70.1,
          "velocity": 1,
          "duration": 0.15
        },
        {
          "name": "E5",
          "midi": 76,
          "time": 70.25,
          "velocity": 1,
          "duration": 0.14
        },
        {
          "name": "F5",
          "midi": 77,
          "time": 70.39,
          "velocity": 1,
          "duration": 0.15
        },
        {
          "name": "A5",
          "midi": 81,
          "time": 70.54,
          "velocity": 1,
          "duration": 0.14
        },
        {
          "name": "F5",
          "midi": 77,
          "time": 70.68,
          "velocity": 1,
          "duration": 0.15
        },
        {
          "name": "E5",
          "midi": 76,
          "time": 70.83,
          "velocity": 1,
          "duration": 0.15
        },
        {
          "name": "D5",
          "midi": 74,
          "time": 70.98,
          "velocity": 1,
          "duration": 0.15
        },
        {
          "name": "F5",
          "midi": 77,
          "time": 71.13,
          "velocity": 1,
          "duration": 0.15
        },
        {
          "name": "D5",
          "midi": 74,
          "time": 71.28,
          "velocity": 1,
          "duration": 0.15
        },
        {
          "name": "C5",
          "midi": 72,
          "time": 71.43,
          "velocity": 1,
          "duration": 0.15
        },
        {
          "name": "B4",
          "midi": 71,
          "time": 71.58,
          "velocity": 1,
          "duration": 0.15
        },
        {
          "name": "C5",
          "midi": 72,
          "time": 71.73,
          "velocity": 1,
          "duration": 0.15
        },
        {
          "name": "D5",
          "midi": 74,
          "time": 71.88,
          "velocity": 1,
          "duration": 0.15
        },
        {
          "name": "F5",
          "midi": 77,
          "time": 72.03,
          "velocity": 1,
          "duration": 0.15
        },
        {
          "name": "G5",
          "midi": 79,
          "time": 72.18,
          "velocity": 1,
          "duration": 0.14
        },
        {
          "name": "D6",
          "midi": 86,
          "time": 72.32,
          "velocity": 1,
          "duration": 0.15
        },
        {
          "name": "B5",
          "midi": 83,
          "time": 72.47,
          "velocity": 1,
          "duration": 0.14
        },
        {
          "name": "A5",
          "midi": 81,
          "time": 72.61,
          "velocity": 1,
          "duration": 0.15
        },
        {
          "name": "G5",
          "midi": 79,
          "time": 72.76,
          "velocity": 1,
          "duration": 0.15
        },
        {
          "name": "B5",
          "midi": 83,
          "time": 72.91,
          "velocity": 1,
          "duration": 0.15
        },
        {
          "name": "G5",
          "midi": 79,
          "time": 73.06,
          "velocity": 1,
          "duration": 0.15
        },
        {
          "name": "F5",
          "midi": 77,
          "time": 73.21,
          "velocity": 1,
          "duration": 0.15
        },
        {
          "name": "E6",
          "midi": 88,
          "time": 73.36,
          "velocity": 1,
          "duration": 0.15
        },
        {
          "name": "G6",
          "midi": 91,
          "time": 73.51,
          "velocity": 1,
          "duration": 0.15
        },
        {
          "name": "E6",
          "midi": 88,
          "time": 73.66,
          "velocity": 1,
          "duration": 0.15
        },
        {
          "name": "D6",
          "midi": 86,
          "time": 73.81,
          "velocity": 1,
          "duration": 0.15
        },
        {
          "name": "C6",
          "midi": 84,
          "time": 73.96,
          "velocity": 1,
          "duration": 0.14
        },
        {
          "name": "E6",
          "midi": 88,
          "time": 74.1,
          "velocity": 1,
          "duration": 0.15
        },
        {
          "name": "C6",
          "midi": 84,
          "time": 74.25,
          "velocity": 1,
          "duration": 0.15
        },
        {
          "name": "B5",
          "midi": 83,
          "time": 74.4,
          "velocity": 1,
          "duration": 0.15
        },
        {
          "name": "A5",
          "midi": 81,
          "time": 74.55,
          "velocity": 1,
          "duration": 0.15
        },
        {
          "name": "C6",
          "midi": 84,
          "time": 74.7,
          "velocity": 1,
          "duration": 0.15
        },
        {
          "name": "A5",
          "midi": 81,
          "time": 74.85,
          "velocity": 1,
          "duration": 0.15
        },
        {
          "name": "G5",
          "midi": 79,
          "time": 75,
          "velocity": 1,
          "duration": 0.15
        },
        {
          "name": "F5",
          "midi": 77,
          "time": 75.15,
          "velocity": 1,
          "duration": 0.14
        }
      ],
      "controlChanges": {},
      "instrumentNumber": 34,
      "instrument": "electric bass (pick)",
      "instrumentFamily": "bass"
    }
  ]
}